<svg width="200" height="164" viewBox="0 0 200 164" fill="none" xmlns="http://www.w3.org/2000/svg">
<path d="M100.094 0.75C108.433 0.75 115.928 5.05633 120.245 12.1846V12.1855L178.505 109.682C182.818 117.094 182.907 125.898 178.689 133.301C174.471 140.707 166.886 145.109 158.353 145.109L41.834 145.109C33.3007 145.109 25.7157 140.707 21.4971 133.301C17.2803 125.898 17.3702 117.095 21.6826 109.682L79.9414 12.1855L79.9404 12.1846C84.2571 5.0559 91.754 0.750011 100.094 0.75Z" fill="#4FB2F3" fill-opacity="0.3" stroke="black" stroke-width="1.5"/>
<path d="M101.227 35.0645C106.699 35.0646 111.173 39.5394 111.173 45.0117V81.7988C111.173 87.2711 106.698 91.7449 101.227 91.7451C95.7545 91.7451 91.2795 87.2709 91.2793 81.7988V45.0117C91.2793 39.5392 95.7541 35.0645 101.227 35.0645Z" fill="#F34F4F" stroke="black" stroke-width="1.5"/>
<path d="M101.224 101.273C106.725 101.273 111.168 105.716 111.168 111.218C111.168 116.719 106.726 121.162 101.224 121.162C95.7215 121.162 91.2793 116.719 91.2793 111.218C91.2794 105.716 95.7218 101.274 101.224 101.273Z" fill="#F34F4F" stroke="black" stroke-width="1.5"/>
<ellipse cx="100" cy="154.701" rx="100.955" ry="9.29851" fill="#EEEEEE"/>
</svg>
