<svg width="167" height="163" viewBox="0 0 167 163" fill="none" xmlns="http://www.w3.org/2000/svg">
<path d="M83.2832 123.725C89.7725 123.725 95.0332 128.985 95.0332 135.475C95.0332 141.964 89.7725 147.225 83.2832 147.225C76.7939 147.225 71.5332 141.964 71.5332 135.475C71.5332 128.985 76.7939 123.725 83.2832 123.725Z" fill="#4FB2F3" fill-opacity="0.3" stroke="black" stroke-width="1.5"/>
<path d="M132.263 0.863281C132.975 0.716715 133.71 0.71237 134.424 0.851562C135.138 0.990766 135.817 1.2704 136.422 1.67383C137.027 2.07727 137.546 2.59672 137.949 3.20215C138.352 3.80761 138.632 4.48716 138.771 5.20117C138.909 5.91494 138.905 6.64921 138.758 7.36133C138.611 8.07366 138.323 8.74988 137.913 9.35059L137.909 9.35742L37.9092 159.357L37.9043 159.364C37.5075 159.974 36.9936 160.499 36.3926 160.909C35.7917 161.319 35.1156 161.605 34.4033 161.752C33.6909 161.899 32.9561 161.902 32.2422 161.763C31.5283 161.623 30.8493 161.344 30.2441 160.94C29.639 160.537 29.1199 160.018 28.7168 159.412C28.3137 158.807 28.0342 158.127 27.8955 157.413C27.7569 156.699 27.7613 155.965 27.9082 155.253C28.0552 154.541 28.342 153.864 28.752 153.264H28.7529L28.7568 153.257L54.8652 114.09L55.3232 113.402L54.5947 113.013C54.0261 112.708 53.4992 112.331 53.0273 111.892C51.5901 110.493 50.7656 108.581 50.7344 106.575C50.7031 104.564 51.4706 102.623 52.8701 101.179L52.8711 101.18C57.8271 96.0683 63.8499 92.555 70.3906 90.5059L70.6436 90.4268L86.2217 67.0596L84.874 67.0156C84.6531 67.0085 84.4313 66.9816 84.1641 66.9512C83.909 66.9221 83.6134 66.8906 83.3076 66.8906C66.4924 66.8907 50.6743 73.6672 38.7695 85.9512C37.3687 87.3953 35.4512 88.2243 33.4395 88.2549C31.4279 88.2853 29.487 87.515 28.043 86.1143C26.599 84.7134 25.7699 82.7968 25.7393 80.7852C25.7106 78.8992 26.3853 77.0746 27.624 75.6641L27.8799 75.3877C42.6731 60.1322 62.3444 51.725 83.3027 51.7236C87.2844 51.7641 91.2561 52.1283 95.1787 52.8125L95.6602 52.8965L95.9316 52.4902L107.79 34.7148L108.374 33.8398L107.356 33.5732C99.5903 31.5415 91.5425 30.4238 83.3076 30.4238C57.0513 30.4406 32.3577 40.9924 13.7773 60.1689C12.3776 61.6126 10.4618 62.4413 8.45117 62.4727C6.44027 62.5039 4.49878 61.7347 3.05469 60.335C1.61098 58.9352 0.78234 57.0194 0.750977 55.0088C0.719691 52.9979 1.48802 51.0564 2.8877 49.6123C24.3567 27.4644 52.9215 15.2656 83.2979 15.2568C94.5949 15.2991 105.818 17.0866 116.569 20.5547L117.109 20.7285L117.424 20.2568L128.757 3.25684L128.762 3.25C129.159 2.6404 129.672 2.11478 130.273 1.70508C130.874 1.29557 131.551 1.00983 132.263 0.863281ZM94.9561 90.0244C102.087 92.0255 108.569 95.8702 113.744 101.178V101.179C114.781 102.248 115.48 103.6 115.754 105.064C116.027 106.529 115.863 108.041 115.282 109.413V109.414C114.701 110.786 113.73 111.956 112.488 112.778C111.246 113.601 109.789 114.041 108.3 114.041V114.04L108.298 114.041C107.283 114.043 106.278 113.84 105.343 113.445C104.408 113.051 103.561 112.472 102.854 111.743C98.2032 106.94 92.0453 104.37 85.7461 103.846L94.9561 90.0244ZM115.659 58.9658C124.287 62.9892 132.109 68.5563 138.736 75.3955C139.773 76.4652 140.472 77.8169 140.745 79.2812C141.019 80.7455 140.855 82.2581 140.274 83.6299C139.694 85.0017 138.721 86.1723 137.479 86.9951C136.238 87.818 134.781 88.2568 133.291 88.2568C132.275 88.2577 131.269 88.0542 130.334 87.6582C129.399 87.2622 128.553 86.6819 127.847 85.9521L127.257 85.3525C121.359 79.4331 114.499 74.9246 107.104 71.8125L115.659 58.9658ZM135.879 28.6387C146.183 34.1564 155.577 41.2291 163.728 49.6113V49.6123C164.7 50.6151 165.375 51.8657 165.681 53.2246L165.737 53.498C166.011 54.9624 165.846 56.4748 165.266 57.8467C164.685 59.2184 163.713 60.3891 162.472 61.2119C161.23 62.0347 159.773 62.4735 158.283 62.4736H158.282C157.267 62.4744 156.261 62.271 155.326 61.875C154.391 61.479 153.545 60.8988 152.839 60.1689L152.837 60.168L152.121 59.4395C144.883 52.1524 136.547 46.0447 127.416 41.3389L135.879 28.6387Z" fill="#4FB2F3" fill-opacity="0.3" stroke="black" stroke-width="1.5"/>
</svg>
