<svg width="63" height="87" viewBox="0 0 63 87" fill="none" xmlns="http://www.w3.org/2000/svg">
<g clip-path="url(#clip0_1572_12240)">
<mask id="path-1-inside-1_1572_12240" fill="white">
<path d="M0 10C0 4.47715 4.47715 0 10 0H53C58.5228 0 63 4.47715 63 10V77C63 82.5228 58.5228 87 53 87H10C4.47715 87 0 82.5229 0 77V10Z"/>
</mask>
<path d="M0 10C0 4.47715 4.47715 0 10 0H53C58.5228 0 63 4.47715 63 10V77C63 82.5228 58.5228 87 53 87H10C4.47715 87 0 82.5229 0 77V10Z" fill="#ECF9EF"/>
<rect x="0.5" y="0.5" width="62" height="86" rx="9.5" fill="#F7EEFF" stroke="#A64FF3"/>
<rect x="67.1582" y="6.35156" width="14" height="107.43" transform="rotate(45 67.1582 6.35156)" fill="#A64FF3" fill-opacity="0.05"/>
<rect x="46.1133" y="-14.1504" width="14" height="51.5014" rx="7" transform="rotate(45 46.1133 -14.1504)" fill="#A64FF3" fill-opacity="0.05"/>
<path d="M31.5003 37.2575C36.0837 37.2575 39.8337 33.5075 39.8337 28.9242C39.8337 24.3408 36.0837 20.5908 31.5003 20.5908C26.917 20.5908 23.167 24.3408 23.167 28.9242C23.167 33.5075 26.917 37.2575 31.5003 37.2575Z" fill="#C583FF"/>
<path d="M31.5003 37.2575C36.0837 37.2575 39.8337 33.5075 39.8337 28.9242C39.8337 24.3408 36.0837 20.5908 31.5003 20.5908C26.917 20.5908 23.167 24.3408 23.167 28.9242C23.167 33.5075 26.917 37.2575 31.5003 37.2575Z" stroke="#111111" stroke-width="0.5" stroke-linecap="round" stroke-linejoin="round"/>
<path d="M35.8389 25.6562L35.3486 26.0928L35.1689 26.2529C34.0582 27.2423 32.8884 28.8015 31.9873 30.1328C31.0935 31.4534 30.477 32.5305 30.4609 32.5586L30.3818 32.6963L30.168 33.0723L29.9492 32.6992L29.8691 32.5625C29.275 31.5503 27.6827 29.3831 27.6631 29.3564L27.6162 29.293L27.4883 29.1191L27.6416 28.9668L28.2441 28.3711L28.3926 28.2256L28.5635 28.3447L30.0947 29.4141C31.1317 28.1027 32.0889 27.1887 32.7285 26.6416C33.4678 26.0092 33.9403 25.7228 33.9697 25.7051L33.9922 25.6914L34.0508 25.6562H35.8389Z" fill="white" stroke="#111111" stroke-width="0.5"/>
<g clip-path="url(#clip1_1572_12240)">
<path d="M22.7485 62.8925C22.7485 62.8925 23.3103 61.9638 23.7019 61.8608C24.113 61.7845 24.5378 61.8667 24.8907 62.0909C25.2437 62.3151 25.4986 62.6647 25.6042 63.0693C25.6646 63.273 25.311 63.6422 25.1566 63.8414C24.8567 64.2084 24.1361 64.7232 23.4378 64.2196C23.4289 64.2196 22.5135 63.7429 22.7485 62.8925Z" fill="#EEEEEE"/>
<path d="M26.5667 64.2291C26.7077 63.956 27.1777 63.4861 27.5514 63.4973C28.1624 63.5129 29.5052 64.1373 29.0218 64.9877C29.0218 64.9877 28.61 65.7061 27.9028 65.7956C27.9028 65.7956 26.6674 66.0709 26.3698 64.9184C26.3295 64.7438 26.4862 64.388 26.5667 64.2291Z" fill="#EEEEEE"/>
<path d="M29.5567 66.3508C29.6753 66.7984 30.3668 67.3512 30.8748 66.9931C31.0807 66.8499 31.5328 66.3351 31.5842 66.0979C31.6715 65.6816 30.9576 64.688 30.1273 65.4265C29.9326 65.5899 29.4895 66.0957 29.5567 66.3508Z" fill="#EEEEEE"/>
<path d="M34.0663 45.4414C34.0663 45.4414 19.533 58.1351 19.1816 59.7151C19.6187 60.0212 19.9894 60.4125 20.2715 60.8654C20.9049 61.821 21.7553 62.2619 22.2297 62.0761C22.9168 61.8076 22.9213 61.3197 22.9213 61.3197L32.3005 66.1201C32.3005 66.1201 35.9081 65.4711 43.8707 59.0213L46.0818 56.5819L34.0663 45.4414Z" fill="#CE8946"/>
<path d="M30.2646 42.873C31.1 42.7693 32.1973 42.8898 33.2051 43.7861L33.3555 43.9199L33.2559 44.0957L33.251 44.1055C33.247 44.1127 33.2403 44.1238 33.2324 44.1387C33.2165 44.1685 33.1936 44.2137 33.165 44.2715C33.1078 44.3872 33.0289 44.5545 32.9463 44.7598C32.7804 45.1722 32.6007 45.7288 32.5332 46.3174C32.4656 46.9069 32.5131 47.5107 32.7822 48.0342C33.0146 48.4862 33.4237 48.9007 34.1172 49.1973L34.4316 49.3174L34.459 49.3262L34.4844 49.3418L34.4873 49.3438C34.4891 49.3449 34.4919 49.3466 34.4951 49.3486C34.5021 49.353 34.5121 49.3598 34.5254 49.3682C34.5523 49.3851 34.5918 49.41 34.6426 49.4424C34.7441 49.5072 34.8909 49.6018 35.0723 49.7217C35.4351 49.9615 35.9381 50.3025 36.4961 50.707C37.6076 51.5129 38.956 52.5828 39.8594 53.6162C40.2993 54.1166 41.0028 54.81 41.7178 55.5078C42.4277 56.2008 43.1495 56.8984 43.6104 57.3955V57.3965C43.7263 57.522 43.8991 57.6732 44.1025 57.8691C44.2931 58.0527 44.5022 58.2682 44.6406 58.4883C44.809 58.7538 45.0805 59.2158 45.1152 59.7402C45.133 60.0083 45.0893 60.2942 44.9404 60.5752C44.7946 60.8505 44.5548 61.1068 44.2021 61.3359C44.2007 61.3372 44.199 61.3385 44.1973 61.3398C44.1867 61.3485 44.1723 61.3598 44.1543 61.373C44.1182 61.3995 44.0667 61.4337 44.001 61.4697C43.8697 61.5417 43.6795 61.6217 43.4365 61.6572C42.9715 61.7251 42.3511 61.6274 41.624 61.0898L41.4775 60.9766C41.3036 60.8359 41.1146 60.6742 40.915 60.4971C40.9848 60.5716 41.0527 60.647 41.1162 60.7207C41.2474 60.873 41.3717 61.0334 41.4443 61.1729C41.6579 61.548 41.7359 61.9853 41.665 62.4111C41.595 62.8312 41.3837 63.2145 41.0674 63.499L41.0664 63.5L41.0654 63.502C41.0645 63.5029 41.0629 63.5036 41.0615 63.5049L41.0469 63.5195C41.0354 63.5304 41.0194 63.545 40.999 63.5625C40.958 63.5978 40.8988 63.6454 40.8232 63.6973C40.6724 63.8007 40.4521 63.9246 40.1748 64.0039C39.6223 64.1619 38.8766 64.1327 38.0479 63.502C38.0616 63.5182 38.0761 63.5333 38.0889 63.5488C38.1465 63.6189 38.1973 63.6844 38.2363 63.7432C38.2534 63.7689 38.2728 63.7995 38.29 63.833L38.3311 63.9404V63.9424C38.4953 64.6589 38.2825 65.4422 37.7412 65.9102C37.2381 66.3449 36.5024 66.4661 35.6357 66.0947C35.6343 66.2205 35.5943 66.3449 35.543 66.4443C35.4334 66.6565 35.2326 66.8654 34.9678 67.0244C34.4284 67.3482 33.6044 67.4787 32.6152 67.0322V67.0312C30.0084 65.8569 24.6605 63.644 22.1113 62.2852L22.1055 62.2812C20.923 61.6068 19.7834 60.8594 18.6934 60.0439C16.7241 58.5718 14.4207 57.6106 11.9893 57.2451L11.6846 57.1992L11.792 56.9102L16.3154 44.7471L16.3975 44.5254L16.624 44.5957L19.2891 45.4258L19.3359 45.4404L19.374 45.4717C19.8092 45.8329 20.3358 46.0679 20.8955 46.1494C21.4552 46.2308 22.0268 46.1558 22.5469 45.9336L22.5488 45.9326L28.8584 43.2969C28.8625 43.2947 28.8676 43.2929 28.873 43.29C28.892 43.2802 28.9195 43.2664 28.9541 43.25C29.0232 43.2171 29.1225 43.173 29.2471 43.126C29.4959 43.032 29.8487 42.9247 30.2646 42.873Z" fill="white" stroke="black" stroke-width="0.5"/>
<path d="M22.0324 62.6873C22.0324 62.6873 23.0372 61.6578 23.6213 61.3132C24.8074 60.6127 26.656 61.669 26.6224 62.7052C26.6224 62.7052 26.9156 63.7637 24.9842 65.0259C24.6284 65.2497 23.5206 65.7824 22.1778 64.3545C22.1778 64.3613 21.3901 63.428 22.0324 62.6873Z" fill="#EEEEEE"/>
<path d="M25.4634 65.3813C25.5283 64.6226 26.7637 63.3671 27.2874 62.9419C27.905 62.4339 30.1251 62.1542 30.087 64.4749C30.087 64.4749 29.7513 66.0616 28.4399 66.8248C27.8133 67.1873 25.3269 66.9904 25.4634 65.3813Z" fill="#EEEEEE"/>
<path d="M30.4271 64.8491C30.8746 64.312 32.7142 64.265 32.5442 65.9412C32.4793 66.5745 32.0182 67.5771 31.0268 67.8703C30.3062 68.0941 28.5651 67.369 28.9992 66.6797C29.2991 66.2053 29.4334 66.0598 30.4271 64.8491Z" fill="#EEEEEE"/>
<path d="M23.3945 61.6885C23.8894 61.3973 24.5527 61.4599 25.1123 61.7422C25.3882 61.8814 25.6231 62.0672 25.7842 62.2686C25.946 62.4709 26.0228 62.6744 26.0166 62.8564L26.0156 62.8955L26.0244 62.9277V62.9287C26.025 62.9313 26.0261 62.9378 26.0273 62.9473C26.0299 62.9666 26.0332 62.9996 26.0322 63.0449C26.0302 63.1356 26.0119 63.2785 25.9395 63.4609C25.7951 63.8242 25.4259 64.3665 24.4941 64.9775C24.3356 65.0761 24.0218 65.2367 23.6055 65.2217C23.1937 65.2068 22.6406 65.0196 22.0059 64.3457L21.9971 64.3359C21.9947 64.3331 21.9917 64.3296 21.9883 64.3252C21.9722 64.3047 21.948 64.2714 21.9199 64.2285C21.8634 64.1421 21.7953 64.0204 21.7451 63.8809C21.6571 63.6362 21.6322 63.3662 21.7881 63.1162L21.8662 63.0107C21.8735 63.0034 21.8846 62.9924 21.8984 62.9785C21.9265 62.9503 21.9677 62.9095 22.0186 62.8594C22.1206 62.7588 22.2621 62.6206 22.4219 62.4727C22.7476 62.1711 23.1277 61.8453 23.3945 61.6885Z" fill="white" stroke="black" stroke-width="0.5"/>
<path d="M24.6797 52.9497C24.6797 52.9497 26.9176 55.2436 30.2544 49.6845C30.2544 49.6845 31.5703 50.338 33.8643 49.369L34.3969 48.7312C34.3969 48.7312 29.9971 48.6461 30.006 48.7312C30.015 48.8162 24.6797 52.9497 24.6797 52.9497Z" fill="#EF9C52"/>
<path d="M27.6875 63.0518C27.9526 62.9965 28.2476 62.9892 28.5176 63.0566C28.7847 63.1233 29.0226 63.2615 29.1943 63.498C29.3642 63.732 29.4847 64.0846 29.4795 64.6113C29.4772 64.6206 29.4755 64.633 29.4717 64.6475C29.461 64.6882 29.4443 64.7488 29.4199 64.8242C29.3711 64.9752 29.2925 65.1848 29.1758 65.417C28.9407 65.8843 28.5575 66.4259 27.96 66.7744C27.8595 66.8329 27.6381 66.8875 27.333 66.8945C27.0378 66.9014 26.6989 66.8628 26.3848 66.7686C26.0688 66.6738 25.7952 66.5282 25.6113 66.332C25.4341 66.1429 25.3305 65.8977 25.3584 65.5684C25.3701 65.4326 25.4384 65.2494 25.5645 65.0303C25.688 64.8156 25.8555 64.5865 26.041 64.3623C26.4129 63.9128 26.8404 63.5044 27.0898 63.3027L27.0918 63.3008C27.2055 63.2074 27.4187 63.1078 27.6875 63.0518Z" fill="white" stroke="black" stroke-width="0.5"/>
<path d="M30.6729 64.9668C30.8702 64.9213 31.0956 64.9188 31.2998 64.9727C31.502 65.026 31.6742 65.1315 31.7891 65.2959C31.9032 65.4594 31.9793 65.7079 31.9414 66.0811C31.8824 66.6556 31.461 67.5417 30.5996 67.7979L30.5967 67.7988C30.4719 67.8376 30.2737 67.841 30.0342 67.7969C29.8002 67.7537 29.5517 67.6694 29.3389 67.5605C29.1216 67.4494 28.9647 67.324 28.8867 67.2109C28.8496 67.157 28.8362 67.1151 28.834 67.085C28.8321 67.0582 28.8378 67.0253 28.8662 66.9814L28.8701 66.9736C29.1445 66.5192 29.2657 66.392 30.2646 65.1748C30.3289 65.0981 30.4698 65.0136 30.6729 64.9668Z" fill="white" stroke="black" stroke-width="0.5"/>
<path d="M18.7458 60.776C19.0201 60.367 19.3895 60.0306 19.8223 59.7957C20.1692 59.5831 21.0644 59.5966 21.5545 59.9949C21.9058 60.2814 22.5884 60.9349 22.3557 61.4115C21.9081 62.3067 21.2121 63.5264 20.0819 63.0072C20.0819 63.0072 17.8484 62.2306 18.7458 60.776Z" fill="#EEEEEE"/>
<path d="M20.2646 59.9014C20.562 59.9265 20.8546 60.0217 21.0479 60.1797C21.2164 60.3171 21.4547 60.536 21.6211 60.7686C21.7996 61.018 21.8307 61.189 21.7832 61.291C21.5585 61.7404 21.2888 62.2303 20.9531 62.5479C20.7883 62.7038 20.6187 62.8074 20.4424 62.8496C20.2704 62.8908 20.0717 62.8788 19.835 62.7705L19.8242 62.7656L19.8135 62.7617H19.8125C19.8119 62.7615 19.8109 62.7612 19.8096 62.7607C19.8063 62.7596 19.801 62.7575 19.7939 62.7549C19.7798 62.7496 19.7579 62.7416 19.7305 62.7305C19.6756 62.7082 19.5974 62.6737 19.5059 62.6289C19.3209 62.5384 19.0893 62.4064 18.8877 62.2363C18.6843 62.0647 18.5293 61.8691 18.4658 61.6562C18.4133 61.4801 18.4159 61.2681 18.5459 61.0098L18.6104 60.8955C18.8616 60.5247 19.1987 60.2201 19.5928 60.0068L19.6016 60.002L19.6094 59.9961C19.7137 59.9283 19.9588 59.8756 20.2646 59.9014Z" fill="white" stroke="black" stroke-width="0.5"/>
<path d="M11.9688 43.8105C12.2994 42.8676 13.3512 42.3924 14.2773 42.7676L17.1396 43.9277C17.9684 44.2636 18.4106 45.1704 18.165 46.0303L14.8564 57.6191C14.584 58.5733 13.5731 59.1109 12.6299 58.8027L9.01953 57.623C8.08704 57.3182 7.58748 56.3057 7.91211 55.3799L11.9688 43.8105Z" fill="#C583FF" stroke="black" stroke-width="0.5"/>
<path d="M49.0938 42.6504L51.8076 54.5117L51.8643 54.7578L51.6182 54.8115L47.5703 55.6973C46.5314 56.9315 45.8191 57.6106 45.3574 57.9834C45.1224 58.1731 44.9502 58.2854 44.832 58.3516C44.7731 58.3845 44.7267 58.4066 44.6924 58.4209C44.6752 58.4281 44.66 58.4336 44.6484 58.4375L44.625 58.4453H44.623L44.5596 58.2041L44.6221 58.4463L44.4854 58.4814L44.3848 58.3818L40.2285 54.3027L40.208 54.2832L40.1934 54.2588C40.0232 53.9933 39.6786 53.6354 39.2373 53.2363C38.8013 52.8421 38.2884 52.4235 37.7959 52.04C37.3038 51.6569 36.8343 51.3105 36.4883 51.0596C36.3155 50.9343 36.1739 50.8326 36.0752 50.7627C36.0259 50.7278 35.9871 50.7009 35.9609 50.6826C35.9479 50.6735 35.9383 50.6658 35.9316 50.6611C35.9283 50.6588 35.9255 50.6574 35.9238 50.6562L35.9219 50.6553V50.6543L35.917 50.6514C35.1803 50.1174 34.7504 49.7568 34.502 49.5264C34.4023 49.4339 34.3316 49.3613 34.2812 49.3066C33.4928 49.4617 32.813 49.5993 32.3223 49.7002C32.0621 49.7537 31.8548 49.7965 31.7129 49.8262C31.6422 49.841 31.5877 49.8526 31.5508 49.8604C31.5324 49.8642 31.5182 49.8672 31.5088 49.8691C31.5041 49.8701 31.5004 49.8716 31.498 49.8721H31.4951L31.4746 49.877L31.4551 49.8779C30.9019 49.9041 30.5308 49.8101 30.2832 49.6758L30.2686 49.6982C29.2629 51.2227 28.2236 52.1418 27.4287 52.6807C27.0317 52.9498 26.6958 53.1231 26.457 53.2305C26.3377 53.2841 26.2425 53.3217 26.1758 53.3457C26.1425 53.3577 26.1162 53.3661 26.0977 53.3721C26.0887 53.3749 26.0815 53.3773 26.0762 53.3789C26.0736 53.3797 26.071 53.3804 26.0693 53.3809L26.0674 53.3818H26.0664L25.998 53.1416L26.0654 53.3818L26.0273 53.3926L25.9873 53.3916C25.0941 53.3556 24.4828 53.2034 24.0771 52.9717C23.6595 52.7331 23.4633 52.4105 23.4141 52.0752C23.3672 51.7556 23.4586 51.4558 23.5488 51.25C23.595 51.1447 23.6443 51.0573 23.6816 50.9961C23.7002 50.9657 23.7158 50.9411 23.7275 50.9238L23.7471 50.8965L23.748 50.8945L25.5742 48.0596C25.9307 47.1238 26.4874 46.5703 26.9639 46.251C27.2031 46.0907 27.4212 45.9905 27.5811 45.9297C27.661 45.8993 27.7273 45.8785 27.7744 45.8652C27.7946 45.8596 27.8112 45.8547 27.8242 45.8516L31.2646 44.3037C32.4063 43.4265 33.6102 43.2774 34.5244 43.3477C34.9846 43.383 35.3732 43.4733 35.6475 43.5557C35.7847 43.5969 35.8939 43.6367 35.9697 43.666C36.0026 43.6788 36.0298 43.6888 36.0498 43.6973L40.3369 44.085C40.7807 44.0957 41.5242 44.0055 42.4092 43.8555C43.2911 43.706 44.2941 43.5013 45.2402 43.2949C46.1857 43.0887 47.0727 42.8809 47.7236 42.7246C48.0491 42.6465 48.3161 42.5808 48.501 42.5352C48.5931 42.5124 48.6651 42.4946 48.7139 42.4824C48.7383 42.4763 48.757 42.4719 48.7695 42.4688C48.7755 42.4672 48.7801 42.4656 48.7832 42.4648C48.7847 42.4645 48.7863 42.4641 48.7871 42.4639H48.7881L49.0361 42.4014L49.0938 42.6504Z" fill="white" stroke="black" stroke-width="0.5"/>
<path d="M50.0811 41.7129C51.006 41.4436 51.9745 41.9727 52.248 42.8965L55.168 52.7549C55.4506 53.71 54.8795 54.708 53.9131 54.9492L51.7061 55.5C50.7891 55.7289 49.8562 55.1886 49.5986 54.2793L46.8203 44.4717C46.5586 43.5469 47.0919 42.5844 48.0146 42.3154L50.0811 41.7129Z" fill="#C583FF" stroke="black" stroke-width="0.5"/>
<path d="M24.8721 49.6169C24.8721 49.6169 26.329 49.2655 26.6177 50.2883C26.6177 50.2883 25.9776 51.9511 25.454 52.2711C25.0489 52.5195 23.8135 52.4949 23.6636 51.8235C23.6546 51.8213 23.5853 51.1543 24.8721 49.6169Z" fill="#EEEEEE"/>
<path d="M37.3848 51.4343C37.3848 51.4343 39.8465 52.8241 42.7178 51.0605C42.7178 51.0605 40.6164 53.2537 38.3001 52.1437L37.3848 51.4343Z" fill="#EEEEEE"/>
<path d="M11.665 54.2471C11.8126 54.2504 11.958 54.2828 12.0928 54.3428C12.2274 54.4027 12.349 54.4885 12.4502 54.5957C12.5514 54.7031 12.6307 54.8297 12.6826 54.9678C12.7215 55.0713 12.745 55.1801 12.752 55.29L12.7529 55.4004C12.7454 55.6205 12.6732 55.8337 12.5449 56.0127C12.4166 56.1917 12.2373 56.3285 12.0312 56.4062C11.8253 56.4839 11.6012 56.4987 11.3867 56.4492C11.1721 56.3996 10.9763 56.2882 10.8252 56.1279C10.6741 55.9676 10.5739 55.766 10.5371 55.5488C10.5003 55.3317 10.5284 55.1083 10.6182 54.9072C10.708 54.7061 10.8556 54.5355 11.042 54.418C11.2279 54.3007 11.4444 54.2419 11.6641 54.2471H11.665Z" fill="white" stroke="black" stroke-width="0.5"/>
<path d="M52.3633 51.3496C52.4723 51.3635 52.579 51.3933 52.6797 51.4385C52.814 51.4987 52.9352 51.5853 53.0361 51.6924C53.1369 51.7993 53.2155 51.9251 53.2676 52.0625C53.3197 52.2001 53.3445 52.347 53.3398 52.4941V52.4951C53.3323 52.7152 53.2601 52.9284 53.1318 53.1074C53.0035 53.2864 52.8243 53.4232 52.6182 53.501C52.4122 53.5786 52.1881 53.5934 51.9736 53.5439C51.759 53.4944 51.5632 53.383 51.4121 53.2227C51.261 53.0624 51.1609 52.8607 51.124 52.6436C51.0872 52.4265 51.1153 52.203 51.2051 52.002C51.2949 51.8008 51.4426 51.6302 51.6289 51.5127C51.8153 51.3952 52.0327 51.3353 52.2529 51.3408L52.3633 51.3496Z" fill="white" stroke="black" stroke-width="0.5"/>
</g>
</g>
<path d="M0 0H63H0ZM63 77C63 84.1797 57.1797 90 50 90H13C5.8203 90 0 84.1797 0 77C0 80.866 4.47715 84 10 84H53C58.5228 84 63 80.866 63 77ZM0 87V0V87ZM63 0V87V0Z" fill="#A64FF3" mask="url(#path-1-inside-1_1572_12240)"/>
<defs>
<clipPath id="clip0_1572_12240">
<path d="M0 10C0 4.47715 4.47715 0 10 0H53C58.5228 0 63 4.47715 63 10V77C63 82.5228 58.5228 87 53 87H10C4.47715 87 0 82.5229 0 77V10Z" fill="white"/>
</clipPath>
<clipPath id="clip1_1572_12240">
<rect width="49" height="27.1598" fill="white" transform="translate(7 40.916)"/>
</clipPath>
</defs>
</svg>
