<svg width="35" height="51" viewBox="0 0 35 51" fill="none" xmlns="http://www.w3.org/2000/svg">
<path d="M5.71133 15.8068L7.89537 18.0014H26.4824L28.7009 15.8111C29.4823 15.0396 29.9222 13.9872 29.9222 12.8891V0.170898H4.51562V12.9103C4.51562 13.9959 4.94553 15.0373 5.71133 15.8068Z" fill="url(#paint0_linear_3020_38188)" stroke="#4FB2F3" stroke-width="0.342184"/>
<g opacity="0.2">
<rect x="8.62109" y="0.170898" width="3.42184" height="26.0059" fill="white"/>
<rect x="15.4648" y="0.170898" width="3.42184" height="26.0059" fill="white"/>
<rect x="22.3086" y="0.170898" width="3.42184" height="26.0059" fill="white"/>
</g>
<path d="M1.6463 39.5394L15.3136 48.8673C16.4654 49.6534 17.9817 49.6513 19.1313 48.8622L32.7115 39.5401C33.6297 38.9098 34.1785 37.8675 34.1785 36.7538V24.7631C34.1785 23.6513 33.6316 22.6106 32.716 21.9799L19.1324 12.6236C17.9805 11.8302 16.459 11.8283 15.3052 12.6188L1.64128 21.9805C0.721633 22.6106 0.171875 23.6537 0.171875 24.7685V36.748C0.171875 37.8649 0.723742 38.9097 1.6463 39.5394Z" fill="url(#paint1_linear_3020_38188)" stroke="#4FB2F3" stroke-width="0.342184"/>
<path d="M4.00952 37.6817L16.253 46.1282C16.832 46.5277 17.5979 46.5266 18.1759 46.1256L30.3439 37.682C30.7989 37.3663 31.0703 36.8476 31.0703 36.2938V25.2182C31.0703 24.6653 30.7998 24.1474 30.3461 23.8315L18.1751 15.357C17.5961 14.9539 16.8276 14.9529 16.2475 15.3546L4.007 23.8318C3.55124 24.1474 3.2793 24.6665 3.2793 25.2209V36.2908C3.2793 36.8463 3.55229 37.3663 4.00952 37.6817Z" fill="url(#paint2_linear_3020_38188)" stroke="#4FB2F3" stroke-width="0.342184"/>
<path d="M16.2803 22.387C16.6562 21.66 17.6959 21.66 18.0718 22.387L20.4655 27.0166C20.5614 27.2021 20.7125 27.3532 20.8981 27.4491L25.5276 29.8428C26.2546 30.2187 26.2546 31.2584 25.5276 31.6343L20.8981 34.028C20.7125 34.1239 20.5614 34.275 20.4655 34.4606L18.0718 39.0901C17.6959 39.8171 16.6562 39.8171 16.2803 39.0901L13.8866 34.4606C13.7907 34.275 13.6396 34.1239 13.4541 34.028L8.82455 31.6343C8.09755 31.2584 8.09755 30.2187 8.82455 29.8428L13.4541 27.4491C13.6396 27.3532 13.7907 27.2021 13.8866 27.0166L16.2803 22.387Z" fill="url(#paint3_linear_3020_38188)" stroke="#4FB2F3" stroke-width="0.342184"/>
<defs>
<linearGradient id="paint0_linear_3020_38188" x1="17.2189" y1="0.170898" x2="17.2189" y2="18.0014" gradientUnits="userSpaceOnUse">
<stop stop-color="#4FB2F3"/>
<stop offset="1" stop-color="#CDEBFF"/>
</linearGradient>
<linearGradient id="paint1_linear_3020_38188" x1="34.1785" y1="30.739" x2="0.171875" y2="30.739" gradientUnits="userSpaceOnUse">
<stop stop-color="#93D2FB"/>
<stop offset="1" stop-color="#CEE9FA"/>
</linearGradient>
<linearGradient id="paint2_linear_3020_38188" x1="27.3181" y1="41.0539" x2="5.9724" y2="22.6323" gradientUnits="userSpaceOnUse">
<stop stop-color="#4FB2F3"/>
<stop offset="1" stop-color="#AFDEFD"/>
</linearGradient>
<linearGradient id="paint3_linear_3020_38188" x1="17.1761" y1="21.8418" x2="17.1761" y2="39.6353" gradientUnits="userSpaceOnUse">
<stop stop-color="#DFEEF9"/>
<stop offset="1" stop-color="#ABD8F5"/>
</linearGradient>
</defs>
</svg>
