<svg width="49" height="57" viewBox="0 0 49 57" fill="none" xmlns="http://www.w3.org/2000/svg">
<g clip-path="url(#clip0_2121_19677)">
<path d="M37.0869 31.0293C36.2098 31.0645 35.0614 31.1683 33.957 31.4746C32.883 31.7725 31.8764 32.2533 31.1924 33.0176L31.0596 33.1748C30.0342 34.4534 29.4266 36.244 29.2646 38.0576C29.1026 39.8724 29.3897 41.6758 30.1123 42.9785V42.9795C30.5137 43.7066 31.3609 45.7373 32.3574 48.1357C33.327 50.4694 34.4481 53.1691 35.458 55.4199C36.4903 54.9979 37.4828 54.4841 38.4219 53.8818C39.9822 52.7241 41.3119 50.4087 42.0381 48.2578L42.1758 47.8291L42.2695 47.502L42.2969 47.3984C42.566 45.8747 42.4753 44.3087 42.0322 42.8262L42.0332 42.8252L39.7256 35.3574C39.2666 33.9717 38.5647 32.6784 37.6533 31.5381C37.4759 31.3562 37.2861 31.1869 37.0869 31.0293Z" fill="#93E3A4" stroke="black" stroke-width="0.5"/>
<path d="M19.8945 19.5469L19.8867 19.7881L19.792 22.5566L19.3252 26.1211L17.9521 27.7197L17.9004 27.7803L17.8926 27.8594L17.2236 34.8311L17.1973 35.1045H34.1387L34.1338 34.8496L34.0381 30.1064L34.0352 29.9775L33.9297 29.9053L30.291 27.4131L30.499 19.8037L30.5059 19.5469H19.8945Z" fill="white" stroke="black" stroke-width="0.5"/>
<path d="M27.2158 0.719727C24.7231 0.345605 21.907 0.558289 19.5635 1.51465C17.1698 2.4915 16.0499 4.43156 15.6221 6.58984C15.1964 8.7377 15.4496 11.1225 15.8096 13.0557C16.175 15.0183 16.9837 16.6871 17.9932 17.917C18.9755 19.1137 20.1622 19.9092 21.3281 20.1367C21.7289 20.5841 22.329 21.2415 22.9678 21.8682C23.6319 22.5197 24.3556 23.1584 24.9414 23.4893L24.9482 23.4932L24.9561 23.4971C26.6691 24.3262 28.531 24.8039 30.4316 24.9014H30.4443C31.2183 24.9014 31.8334 24.8142 32.292 24.6924C32.7397 24.5735 33.068 24.4134 33.2373 24.2441C33.2985 24.1829 33.3548 24.0848 33.4023 23.9932C33.4552 23.8913 33.5148 23.7613 33.5781 23.6123C33.7051 23.3137 33.8527 22.9246 34 22.4941C34.2939 21.6352 34.5936 20.5936 34.7295 19.7568L34.7305 19.749C34.9668 17.9288 35.0394 16.0911 34.9492 14.2578H34.9502C34.9343 13.4672 34.9132 12.7006 34.9238 11.1445V11.1436C34.9344 8.91315 35.1648 6.35825 33.0215 3.5166C31.9207 2.05729 29.6978 1.0923 27.2158 0.719727Z" fill="white" stroke="black" stroke-width="0.5"/>
<path d="M22.9629 11.5674L23.0391 11.4932C23.6143 10.9378 24.038 10.2441 24.2686 9.47852L24.3555 9.18848L24.624 9.33008C25.4342 9.75601 26.3049 10.0515 27.2041 10.2119C27.159 10.1194 27.1143 10.0308 27.0752 9.9502C27.0255 9.84776 26.9825 9.75912 26.9521 9.69629C26.937 9.66486 26.9253 9.63924 26.917 9.62207C26.9129 9.6135 26.9094 9.60702 26.9072 9.60254C26.9061 9.6003 26.9049 9.5988 26.9043 9.59766V9.59668L26.9033 9.5957L26.5889 8.94336L27.2393 9.2627C28.5408 9.90184 29.927 10.3484 31.3545 10.5938C31.3096 10.4945 31.2702 10.4036 31.2344 10.3271C31.1938 10.2404 31.1608 10.1701 31.1377 10.1221L31.1035 10.0537C31.1028 10.0522 31.1029 10.0506 31.1025 10.0498L31.1016 10.0488L30.7744 9.38672L31.4365 9.71387C32.0422 10.0131 32.9808 10.0442 33.8096 9.98535C34.2159 9.95647 34.5822 9.90727 34.8467 9.86523C34.8942 9.85769 34.938 9.8487 34.9785 9.8418L34.6748 9.06348L34.5703 8.7959L34.8486 8.72949C35.3092 8.61916 35.7521 8.44536 36.165 8.21484C35.8109 7.57031 35.4801 6.96276 35.2324 6.50098C35.0951 6.24482 34.9825 6.0338 34.9043 5.88672C34.8653 5.81329 34.8342 5.75598 34.8135 5.7168C34.8031 5.6973 34.7954 5.68199 34.79 5.67188C34.7874 5.66685 34.7855 5.66273 34.7842 5.66016C34.7835 5.65887 34.7826 5.65788 34.7822 5.65723V5.65625H34.7812L34.5342 5.1875L35.0537 5.29492C35.2701 5.33974 35.4902 5.35516 35.71 5.34863C34.9061 4.54851 34.0604 3.79126 33.1758 3.08105C31.9219 2.14459 29.159 0.464452 26.3076 0.361328H26.3008L26.2939 0.360352C24.9041 0.230881 23.278 0.162644 21.8008 0.458984C20.3266 0.754814 19.0301 1.40801 18.249 2.69824L18.207 2.76562L18.1348 2.79785C16.6739 3.4343 15.954 4.57699 15.6152 5.7959C15.2744 7.02226 15.3236 8.31383 15.4023 9.20801C15.579 11.0352 15.8824 12.8484 16.3096 14.6338C16.6431 15.9845 17.6196 17.9357 18.5283 19.5693C18.9803 20.3819 19.4116 21.1084 19.7295 21.6318C19.8198 21.7805 19.9018 21.9123 19.9717 22.0254L20.7705 19.6377L21.0439 16.7803L21.0654 16.5537H22.3154V13.8584L22.3574 13.7949C22.5436 13.5146 22.7462 13.2456 22.9629 12.9883V11.5674Z" fill="#111111" stroke="black" stroke-width="0.5"/>
<path d="M11.9883 31.5146L11.9873 31.5156C9.99025 32.791 8.36669 34.5713 7.27734 36.6748C7.34556 37.254 8.48369 45.0567 9.55469 52.3359C10.1129 52.7599 10.695 53.1514 11.2998 53.5059C17.6745 57.231 27.3811 57.939 35.0508 55.6074C36.0563 55.2212 37.0272 54.7492 37.9521 54.1973H37.9512L37.958 54.1934L38.2197 54.0322H38.2207L38.4502 53.8838C39.1572 53.3344 39.7697 52.6738 40.2656 51.9287C39.6194 42.9016 38.8497 35.3194 38.6006 32.9277C38.3281 32.4702 38.0278 32.0298 37.7021 31.6084C37.1915 31.0439 36.0602 30.2777 34.6924 29.5215C33.4243 28.8204 31.9808 28.1441 30.7041 27.6621L30.0928 31.6982L30.0605 31.9102H29.002L28.958 31.8936L18.0518 27.6045L11.9883 31.5146Z" fill="#93E3A4" stroke="black" stroke-width="0.5"/>
<mask id="path-6-outside-1_2121_19677" maskUnits="userSpaceOnUse" x="25.0547" y="30.6602" width="11" height="27" fill="black">
<rect fill="white" x="25.0547" y="30.6602" width="11" height="27"/>
<path d="M26.5293 31.6602V32.7158L28.6406 34.6631H28.6465C28.6639 34.9989 29.242 46.1502 29.5869 56.4756C31.4682 56.274 33.2402 55.8311 35.0547 55.2949C32.9675 44.9491 30.5701 34.6878 30.5625 34.6553H30.5596L31.3467 32.3076L31.166 31.6602H26.5293Z"/>
</mask>
<path d="M26.5293 31.6602V32.7158L28.6406 34.6631H28.6465C28.6639 34.9989 29.242 46.1502 29.5869 56.4756C31.4682 56.274 33.2402 55.8311 35.0547 55.2949C32.9675 44.9491 30.5701 34.6878 30.5625 34.6553H30.5596L31.3467 32.3076L31.166 31.6602H26.5293Z" fill="white"/>
<path d="M26.5293 31.6602H26.0293V31.1602H26.5293V31.6602ZM26.5293 32.7158L26.1903 33.0834L26.0293 32.9349V32.7158H26.5293ZM28.6406 34.6631V35.1631H28.4453L28.3016 35.0306L28.6406 34.6631ZM28.6465 34.6631V34.1631H29.1212L29.1458 34.6372L28.6465 34.6631ZM29.5869 56.4756L29.6402 56.9727L29.1052 57.0301L29.0872 56.4923L29.5869 56.4756ZM35.0547 55.2949L35.5448 55.196L35.6353 55.6447L35.1964 55.7744L35.0547 55.2949ZM30.5625 34.6553V34.1553H30.9591L31.0494 34.5415L30.5625 34.6553ZM30.5596 34.6553V35.1553H29.8646L30.0855 34.4963L30.5596 34.6553ZM31.3467 32.3076L31.8283 32.1732L31.8695 32.3211L31.8207 32.4666L31.3467 32.3076ZM31.166 31.6602V31.1602H31.5456L31.6476 31.5258L31.166 31.6602ZM26.5293 31.6602H27.0293V32.7158H26.5293H26.0293V31.6602H26.5293ZM26.5293 32.7158L26.8683 32.3483L28.9796 34.2955L28.6406 34.6631L28.3016 35.0306L26.1903 33.0834L26.5293 32.7158ZM28.6406 34.6631V34.1631H28.6465V34.6631V35.1631H28.6406V34.6631ZM28.6465 34.6631L29.1458 34.6372C29.1633 34.9734 29.7416 46.1286 30.0866 56.4589L29.5869 56.4756L29.0872 56.4923C28.7425 46.1719 28.1646 35.0245 28.1472 34.689L28.6465 34.6631ZM29.5869 56.4756L29.5336 55.9784C31.3713 55.7815 33.1103 55.3481 34.913 54.8154L35.0547 55.2949L35.1964 55.7744C33.3701 56.314 31.5651 56.7664 29.6402 56.9727L29.5869 56.4756ZM35.0547 55.2949L34.5646 55.3938C32.4789 45.0557 30.083 34.8005 30.0756 34.7691L30.5625 34.6553L31.0494 34.5415C31.0572 34.5752 33.4561 44.8425 35.5448 55.196L35.0547 55.2949ZM30.5625 34.6553V35.1553H30.5596V34.6553V34.1553H30.5625V34.6553ZM30.5596 34.6553L30.0855 34.4963L30.8726 32.1487L31.3467 32.3076L31.8207 32.4666L31.0336 34.8142L30.5596 34.6553ZM31.3467 32.3076L30.8651 32.442L30.6844 31.7945L31.166 31.6602L31.6476 31.5258L31.8283 32.1732L31.3467 32.3076ZM31.166 31.6602V32.1602H26.5293V31.6602V31.1602H31.166V31.6602Z" fill="black" mask="url(#path-6-outside-1_2121_19677)"/>
<path d="M18.3359 27.3057L24.7822 34.957L28.6504 31.6709L19.833 25.0166L18.3359 27.3057Z" fill="#93E3A4" stroke="black" stroke-width="0.5"/>
<path d="M30.1025 31.4863L32.6826 33.3086L31.6533 27.7236L30.3369 26.5088L30.1025 31.4863Z" fill="#93E3A4" stroke="black" stroke-width="0.5"/>
<path d="M20.7268 17.7422L20.5697 19.3159L19.587 18.6185L19.1454 17.8146C19.0923 17.5053 18.9863 16.8745 18.9863 16.8251V15.8709L19.3042 15.173L19.587 14.3604H20.3468L21.0889 14.8373L21.6682 16.3247H20.8596L20.7268 17.7422Z" fill="white"/>
<path d="M8.15625 35.1562C7.35796 36.2638 6.80632 37.5305 6.53906 38.8711C6.25146 40.3339 5.94198 42.0486 5.625 43.8887L5.64453 43.8838L5.5791 44.2617C5.01997 47.5162 6.8738 50.9404 11.293 53.5098C12.0814 53.96 12.8993 54.3566 13.7383 54.7031C14.0257 53.6845 14.2818 52.7866 14.4707 52.123C14.5735 51.762 14.6559 51.4706 14.7129 51.2666C14.7414 51.1645 14.7637 51.0852 14.7783 51.0303C14.7856 51.0028 14.7908 50.9829 14.7939 50.9697C14.7944 50.968 14.7946 50.9662 14.7949 50.9648C14.9706 49.2224 14.5606 46.0181 13.4463 42.8467C12.3573 39.7474 10.6167 36.7389 8.15625 35.1562Z" fill="#93E3A4" stroke="black" stroke-width="0.5"/>
<path d="M20.9466 19.6033C19.881 19.0961 18.1978 17.5057 19.2921 14.9594C19.6466 14.1347 20.9952 13.7282 21.9444 16.6207" stroke="black" stroke-width="0.5"/>
<path d="M24.844 14.9682C25.2311 14.5276 26.3074 13.7677 27.5152 14.2524" stroke="black" stroke-width="0.5" stroke-linecap="round"/>
<path d="M30.715 14.2508C31.1505 13.8579 32.3074 13.2276 33.451 13.8487" stroke="black" stroke-width="0.5" stroke-linecap="round"/>
<circle cx="26.3422" cy="15.6351" r="0.666382" fill="#111111"/>
<circle cx="32.1927" cy="15.1498" r="0.666382" fill="#111111"/>
<path d="M29.4602 15.627L29.9997 18.3915C30.06 18.7003 29.8235 18.9873 29.509 18.9873H28.9141" stroke="black" stroke-width="0.5" stroke-linecap="round"/>
<path d="M27.0391 20.7109C27.5974 21.1179 29.2365 21.7388 31.3259 20.9666" stroke="black" stroke-width="0.5" stroke-linecap="round"/>
</g>
<defs>
<clipPath id="clip0_2121_19677">
<rect width="49" height="57" fill="white" transform="matrix(-1 0 0 1 49 0)"/>
</clipPath>
</defs>
</svg>
