<svg width="63" height="72" viewBox="0 0 63 72" fill="none" xmlns="http://www.w3.org/2000/svg">
<g clip-path="url(#clip0_2121_18709)">
<mask id="path-1-inside-1_2121_18709" fill="white">
<path d="M0 10C0 4.47715 4.47715 0 10 0H53C58.5228 0 63 4.47715 63 10V62C63 67.5229 58.5228 72 53 72H10C4.47715 72 0 67.5229 0 62V10Z"/>
</mask>
<path d="M0 10C0 4.47715 4.47715 0 10 0H53C58.5228 0 63 4.47715 63 10V62C63 67.5229 58.5228 72 53 72H10C4.47715 72 0 67.5229 0 62V10Z" fill="#ECF9EF"/>
<rect y="0.5" width="63" height="71" rx="9.5" fill="#ECF9EF" stroke="#3EBF5A"/>
<rect x="67.1592" y="6.35156" width="14" height="107.43" transform="rotate(45 67.1592 6.35156)" fill="#3EBF5A" fill-opacity="0.05"/>
<rect x="46.1133" y="-14.1504" width="14" height="51.5014" rx="7" transform="rotate(45 46.1133 -14.1504)" fill="#3EBF5A" fill-opacity="0.05"/>
<g clip-path="url(#clip1_2121_18709)">
<path d="M44.0869 38.0293C43.2098 38.0645 42.0614 38.1683 40.957 38.4746C39.883 38.7725 38.8764 39.2533 38.1924 40.0176L38.0596 40.1748C37.0342 41.4534 36.4266 43.244 36.2646 45.0576C36.1026 46.8724 36.3897 48.6758 37.1123 49.9785V49.9795C37.5137 50.7066 38.3609 52.7373 39.3574 55.1357C40.327 57.4694 41.4481 60.1691 42.458 62.4199C43.4903 61.9979 44.4828 61.4841 45.4219 60.8818C46.9822 59.7241 48.3119 57.4087 49.0381 55.2578L49.1758 54.8291L49.2695 54.502L49.2969 54.3984C49.566 52.8747 49.4753 51.3087 49.0322 49.8262L49.0332 49.8252L46.7256 42.3574C46.2666 40.9717 45.5647 39.6784 44.6533 38.5381C44.4759 38.3562 44.2861 38.1869 44.0869 38.0293Z" fill="#93E3A4" stroke="black" stroke-width="0.5"/>
<path d="M26.8945 26.5469L26.8867 26.7881L26.792 29.5566L26.3252 33.1211L24.9521 34.7197L24.9004 34.7803L24.8926 34.8594L24.2236 41.8311L24.1973 42.1045H41.1387L41.1338 41.8496L41.0381 37.1064L41.0352 36.9775L40.9297 36.9053L37.291 34.4131L37.499 26.8037L37.5059 26.5469H26.8945Z" fill="white" stroke="black" stroke-width="0.5"/>
<path d="M34.2158 7.71973C31.7231 7.34561 28.907 7.55829 26.5635 8.51465C24.1698 9.4915 23.0499 11.4316 22.6221 13.5898C22.1964 15.7377 22.4496 18.1225 22.8096 20.0557C23.175 22.0183 23.9837 23.6871 24.9932 24.917C25.9755 26.1137 27.1622 26.9092 28.3281 27.1367C28.7289 27.5841 29.329 28.2415 29.9678 28.8682C30.6319 29.5197 31.3556 30.1584 31.9414 30.4893L31.9482 30.4932L31.9561 30.4971C33.6691 31.3262 35.531 31.8039 37.4316 31.9014H37.4443C38.2183 31.9014 38.8334 31.8142 39.292 31.6924C39.7397 31.5735 40.068 31.4134 40.2373 31.2441C40.2985 31.1829 40.3548 31.0848 40.4023 30.9932C40.4552 30.8913 40.5148 30.7613 40.5781 30.6123C40.7051 30.3137 40.8527 29.9246 41 29.4941C41.2939 28.6352 41.5936 27.5936 41.7295 26.7568L41.7305 26.749C41.9668 24.9288 42.0394 23.0911 41.9492 21.2578H41.9502C41.9343 20.4672 41.9132 19.7006 41.9238 18.1445V18.1436C41.9344 15.9132 42.1648 13.3583 40.0215 10.5166C38.9207 9.05729 36.6978 8.0923 34.2158 7.71973Z" fill="white" stroke="black" stroke-width="0.5"/>
<path d="M29.9629 18.5674L30.0391 18.4932C30.6143 17.9378 31.038 17.2441 31.2686 16.4785L31.3555 16.1885L31.624 16.3301C32.4342 16.756 33.3049 17.0515 34.2041 17.2119C34.159 17.1194 34.1143 17.0308 34.0752 16.9502C34.0255 16.8478 33.9825 16.7591 33.9521 16.6963C33.937 16.6649 33.9253 16.6392 33.917 16.6221C33.9129 16.6135 33.9094 16.607 33.9072 16.6025C33.9061 16.6003 33.9049 16.5988 33.9043 16.5977V16.5967L33.9033 16.5957L33.5889 15.9434L34.2393 16.2627C35.5408 16.9018 36.927 17.3484 38.3545 17.5938C38.3096 17.4945 38.2702 17.4036 38.2344 17.3271C38.1938 17.2404 38.1608 17.1701 38.1377 17.1221L38.1035 17.0537C38.1028 17.0522 38.1029 17.0506 38.1025 17.0498L38.1016 17.0488L37.7744 16.3867L38.4365 16.7139C39.0422 17.0131 39.9808 17.0442 40.8096 16.9854C41.2159 16.9565 41.5822 16.9073 41.8467 16.8652C41.8942 16.8577 41.938 16.8487 41.9785 16.8418L41.6748 16.0635L41.5703 15.7959L41.8486 15.7295C42.3092 15.6192 42.7521 15.4454 43.165 15.2148C42.8109 14.5703 42.4801 13.9628 42.2324 13.501C42.0951 13.2448 41.9825 13.0338 41.9043 12.8867C41.8653 12.8133 41.8342 12.756 41.8135 12.7168C41.8031 12.6973 41.7954 12.682 41.79 12.6719C41.7874 12.6668 41.7855 12.6627 41.7842 12.6602C41.7835 12.6589 41.7826 12.6579 41.7822 12.6572V12.6562H41.7812L41.5342 12.1875L42.0537 12.2949C42.2701 12.3397 42.4902 12.3552 42.71 12.3486C41.9061 11.5485 41.0604 10.7913 40.1758 10.0811C38.9219 9.14459 36.159 7.46445 33.3076 7.36133H33.3008L33.2939 7.36035C31.9041 7.23088 30.278 7.16264 28.8008 7.45898C27.3266 7.75481 26.0301 8.40801 25.249 9.69824L25.207 9.76562L25.1348 9.79785C23.6739 10.4343 22.954 11.577 22.6152 12.7959C22.2744 14.0223 22.3236 15.3138 22.4023 16.208C22.579 18.0352 22.8824 19.8484 23.3096 21.6338C23.6431 22.9845 24.6196 24.9357 25.5283 26.5693C25.9803 27.3819 26.4116 28.1084 26.7295 28.6318C26.8198 28.7805 26.9018 28.9123 26.9717 29.0254L27.7705 26.6377L28.0439 23.7803L28.0654 23.5537H29.3154V20.8584L29.3574 20.7949C29.5436 20.5146 29.7462 20.2456 29.9629 19.9883V18.5674Z" fill="#111111" stroke="black" stroke-width="0.5"/>
<path d="M18.9883 38.5146L18.9873 38.5156C16.9903 39.791 15.3667 41.5713 14.2773 43.6748C14.3456 44.254 15.4837 52.0567 16.5547 59.3359C17.1129 59.7599 17.695 60.1514 18.2998 60.5059C24.6745 64.231 34.3811 64.939 42.0508 62.6074C43.0563 62.2212 44.0272 61.7492 44.9521 61.1973H44.9512L44.958 61.1934L45.2197 61.0322H45.2207L45.4502 60.8838C46.1572 60.3344 46.7697 59.6738 47.2656 58.9287C46.6194 49.9016 45.8497 42.3194 45.6006 39.9277C45.3281 39.4702 45.0278 39.0298 44.7021 38.6084C44.1915 38.0439 43.0602 37.2777 41.6924 36.5215C40.4243 35.8204 38.9808 35.1441 37.7041 34.6621L37.0928 38.6982L37.0605 38.9102H36.002L35.958 38.8936L25.0518 34.6045L18.9883 38.5146Z" fill="#93E3A4" stroke="black" stroke-width="0.5"/>
<mask id="path-11-outside-2_2121_18709" maskUnits="userSpaceOnUse" x="32.0547" y="37.6602" width="11" height="27" fill="black">
<rect fill="white" x="32.0547" y="37.6602" width="11" height="27"/>
<path d="M33.5293 38.6602V39.7158L35.6406 41.6631H35.6465C35.6639 41.9989 36.242 53.1502 36.5869 63.4756C38.4682 63.274 40.2402 62.8311 42.0547 62.2949C39.9675 51.9491 37.5701 41.6878 37.5625 41.6553H37.5596L38.3467 39.3076L38.166 38.6602H33.5293Z"/>
</mask>
<path d="M33.5293 38.6602V39.7158L35.6406 41.6631H35.6465C35.6639 41.9989 36.242 53.1502 36.5869 63.4756C38.4682 63.274 40.2402 62.8311 42.0547 62.2949C39.9675 51.9491 37.5701 41.6878 37.5625 41.6553H37.5596L38.3467 39.3076L38.166 38.6602H33.5293Z" fill="white"/>
<path d="M33.5293 38.6602H33.0293V38.1602H33.5293V38.6602ZM33.5293 39.7158L33.1903 40.0834L33.0293 39.9349V39.7158H33.5293ZM35.6406 41.6631V42.1631H35.4453L35.3016 42.0306L35.6406 41.6631ZM35.6465 41.6631V41.1631H36.1212L36.1458 41.6372L35.6465 41.6631ZM36.5869 63.4756L36.6402 63.9727L36.1052 64.0301L36.0872 63.4923L36.5869 63.4756ZM42.0547 62.2949L42.5448 62.196L42.6353 62.6447L42.1964 62.7744L42.0547 62.2949ZM37.5625 41.6553V41.1553H37.9591L38.0494 41.5415L37.5625 41.6553ZM37.5596 41.6553V42.1553H36.8646L37.0855 41.4963L37.5596 41.6553ZM38.3467 39.3076L38.8283 39.1732L38.8695 39.3211L38.8207 39.4666L38.3467 39.3076ZM38.166 38.6602V38.1602H38.5456L38.6476 38.5258L38.166 38.6602ZM33.5293 38.6602H34.0293V39.7158H33.5293H33.0293V38.6602H33.5293ZM33.5293 39.7158L33.8683 39.3483L35.9796 41.2955L35.6406 41.6631L35.3016 42.0306L33.1903 40.0834L33.5293 39.7158ZM35.6406 41.6631V41.1631H35.6465V41.6631V42.1631H35.6406V41.6631ZM35.6465 41.6631L36.1458 41.6372C36.1633 41.9734 36.7416 53.1286 37.0866 63.4589L36.5869 63.4756L36.0872 63.4923C35.7425 53.1719 35.1646 42.0245 35.1472 41.689L35.6465 41.6631ZM36.5869 63.4756L36.5336 62.9784C38.3713 62.7815 40.1103 62.3481 41.913 61.8154L42.0547 62.2949L42.1964 62.7744C40.3701 63.314 38.5651 63.7664 36.6402 63.9727L36.5869 63.4756ZM42.0547 62.2949L41.5646 62.3938C39.4789 52.0557 37.083 41.8005 37.0756 41.7691L37.5625 41.6553L38.0494 41.5415C38.0572 41.5752 40.4561 51.8425 42.5448 62.196L42.0547 62.2949ZM37.5625 41.6553V42.1553H37.5596V41.6553V41.1553H37.5625V41.6553ZM37.5596 41.6553L37.0855 41.4963L37.8726 39.1487L38.3467 39.3076L38.8207 39.4666L38.0336 41.8142L37.5596 41.6553ZM38.3467 39.3076L37.8651 39.442L37.6844 38.7945L38.166 38.6602L38.6476 38.5258L38.8283 39.1732L38.3467 39.3076ZM38.166 38.6602V39.1602H33.5293V38.6602V38.1602H38.166V38.6602Z" fill="black" mask="url(#path-11-outside-2_2121_18709)"/>
<path d="M25.3359 34.3057L31.7822 41.957L35.6504 38.6709L26.833 32.0166L25.3359 34.3057Z" fill="#93E3A4" stroke="black" stroke-width="0.5"/>
<path d="M37.1025 38.4863L39.6826 40.3086L38.6533 34.7236L37.3369 33.5088L37.1025 38.4863Z" fill="#93E3A4" stroke="black" stroke-width="0.5"/>
<path d="M27.7268 24.7422L27.5697 26.3159L26.587 25.6185L26.1454 24.8146C26.0923 24.5053 25.9863 23.8745 25.9863 23.8251V22.8709L26.3042 22.173L26.587 21.3604H27.3468L28.0889 21.8373L28.6682 23.3247H27.8596L27.7268 24.7422Z" fill="white"/>
<path d="M15.1562 42.1562C14.358 43.2638 13.8063 44.5305 13.5391 45.8711C13.2515 47.3339 12.942 49.0486 12.625 50.8887L12.6445 50.8838L12.5791 51.2617C12.02 54.5162 13.8738 57.9404 18.293 60.5098C19.0814 60.96 19.8993 61.3566 20.7383 61.7031C21.0257 60.6845 21.2818 59.7866 21.4707 59.123C21.5735 58.762 21.6559 58.4706 21.7129 58.2666C21.7414 58.1645 21.7637 58.0852 21.7783 58.0303C21.7856 58.0028 21.7908 57.9829 21.7939 57.9697C21.7944 57.968 21.7946 57.9662 21.7949 57.9648C21.9706 56.2224 21.5606 53.0181 20.4463 49.8467C19.3573 46.7474 17.6167 43.7389 15.1562 42.1562Z" fill="#93E3A4" stroke="black" stroke-width="0.5"/>
<path d="M27.9466 26.6033C26.881 26.0961 25.1978 24.5057 26.2921 21.9594C26.6466 21.1347 27.9952 20.7282 28.9444 23.6207" stroke="black" stroke-width="0.5"/>
<path d="M31.844 21.9682C32.2311 21.5276 33.3074 20.7677 34.5152 21.2524" stroke="black" stroke-width="0.5" stroke-linecap="round"/>
<path d="M37.715 21.2508C38.1505 20.8579 39.3074 20.2276 40.451 20.8487" stroke="black" stroke-width="0.5" stroke-linecap="round"/>
<circle cx="33.3422" cy="22.6351" r="0.666382" fill="#111111"/>
<circle cx="39.1927" cy="22.1498" r="0.666382" fill="#111111"/>
<path d="M36.4602 22.627L36.9997 25.3915C37.06 25.7003 36.8235 25.9873 36.509 25.9873H35.9141" stroke="black" stroke-width="0.5" stroke-linecap="round"/>
<path d="M34.0391 27.7109C34.5974 28.1179 36.2365 28.7388 38.3259 27.9666" stroke="black" stroke-width="0.5" stroke-linecap="round"/>
</g>
</g>
<path d="M0 0H63H0ZM63 62C63 69.1797 57.1797 75 50 75H13C5.8203 75 0 69.1797 0 62C0 65.866 4.47715 69 10 69H53C58.5228 69 63 65.866 63 62ZM0 72V0V72ZM63 0V72V0Z" fill="#3EBF5A" mask="url(#path-1-inside-1_2121_18709)"/>
<defs>
<clipPath id="clip0_2121_18709">
<path d="M0 10C0 4.47715 4.47715 0 10 0H53C58.5228 0 63 4.47715 63 10V62C63 67.5229 58.5228 72 53 72H10C4.47715 72 0 67.5229 0 62V10Z" fill="white"/>
</clipPath>
<clipPath id="clip1_2121_18709">
<rect width="49" height="57" fill="white" transform="matrix(-1 0 0 1 56 7)"/>
</clipPath>
</defs>
</svg>
