<svg width="60" height="60" viewBox="0 0 60 60" fill="none" xmlns="http://www.w3.org/2000/svg">
<path d="M15.9648 1.625H47.6016C49.3209 1.625 50.7148 3.01893 50.7148 4.73828V47.5645C50.7148 49.2838 49.3209 50.6777 47.6016 50.6777H15.9648C14.2455 50.6777 12.8516 49.2838 12.8516 47.5645V4.73828C12.8516 3.01893 14.2455 1.625 15.9648 1.625Z" fill="white" stroke="black" stroke-width="0.5"/>
<path d="M22.2471 9.31641H46.7812L56.8359 19.3711V55.0957C56.8358 56.9039 55.3697 58.3691 53.5615 58.3691H22.2471C20.4389 58.3691 18.9728 56.9039 18.9727 55.0957V12.5908C18.9727 10.7825 20.4388 9.31641 22.2471 9.31641Z" fill="white" stroke="black" stroke-width="0.5"/>
<path d="M56.4805 19.0176H49.0742C48.002 19.0176 47.1328 18.1484 47.1328 17.0762V9.66992L56.4805 19.0176Z" fill="#F7EDC0" stroke="black" stroke-width="0.5"/>
<path d="M27.9466 26.4088C29.1985 26.4088 30.2134 25.3938 30.2134 24.1419C30.2134 22.8899 29.1985 21.875 27.9466 21.875C26.6946 21.875 25.6797 22.8899 25.6797 24.1419C25.6797 25.3938 26.6946 26.4088 27.9466 26.4088Z" fill="white"/>
<path d="M47.8645 26.4088C49.1165 26.4088 50.1314 25.3938 50.1314 24.1419C50.1314 22.8899 49.1165 21.875 47.8645 21.875C46.6126 21.875 45.5977 22.8899 45.5977 24.1419C45.5977 25.3938 46.6126 26.4088 47.8645 26.4088Z" fill="white"/>
<path d="M27.9466 45.8111C29.1985 45.8111 30.2134 44.7962 30.2134 43.5442C30.2134 42.2923 29.1985 41.2773 27.9466 41.2773C26.6946 41.2773 25.6797 42.2923 25.6797 43.5442C25.6797 44.7962 26.6946 45.8111 27.9466 45.8111Z" fill="white"/>
<path d="M47.8645 45.8111C49.1165 45.8111 50.1314 44.7962 50.1314 43.5442C50.1314 42.2923 49.1165 41.2773 47.8645 41.2773C46.6126 41.2773 45.5977 42.2923 45.5977 43.5442C45.5977 44.7962 46.6126 45.8111 47.8645 45.8111Z" fill="white"/>
<path d="M4.79297 48.7188H30.5811L36.4326 52.1426L30.5811 55.5674H4.79297C3.89345 55.5673 3.16416 54.8382 3.16406 53.9385V50.3477L3.17285 50.1816C3.25612 49.3601 3.94944 48.7188 4.79297 48.7188Z" fill="#F7EDC0" stroke="black" stroke-width="0.5"/>
<path d="M8.17383 46.9961H9.67871C9.7511 46.9961 9.82274 47.0104 9.88965 47.0381C9.95673 47.0659 10.018 47.1069 10.0693 47.1582C10.1206 47.2094 10.1617 47.27 10.1895 47.3369C10.2172 47.404 10.2314 47.4763 10.2314 47.5488V56.7412C10.2315 56.8138 10.2172 56.886 10.1895 56.9531C10.1617 57.0201 10.1206 57.0806 10.0693 57.1318C10.018 57.1832 9.95672 57.2242 9.88965 57.252C9.82273 57.2796 9.75112 57.2939 9.67871 57.2939H8.17383C8.10126 57.2939 8.02897 57.2797 7.96191 57.252C7.89499 57.2242 7.83444 57.1831 7.7832 57.1318C7.73196 57.0806 7.69085 57.0201 7.66309 56.9531C7.63531 56.886 7.62108 56.8138 7.62109 56.7412V47.5488C7.62113 47.4022 7.67955 47.2619 7.7832 47.1582C7.88686 47.0546 8.02725 46.9961 8.17383 46.9961ZM36.4346 52.1445L30.666 55.5205V48.7686L36.4346 52.1445Z" fill="#ECE9EB" stroke="black" stroke-width="0.5"/>
<path d="M27.9463 41.8506C27.011 41.8506 26.25 42.6116 26.25 43.5469C26.2502 44.482 27.0111 45.2422 27.9463 45.2422C28.8812 45.242 29.6414 44.4818 29.6416 43.5469C29.6416 42.6117 28.8814 41.8508 27.9463 41.8506ZM47.8643 41.8506C46.929 41.8506 46.168 42.6115 46.168 43.5469C46.1682 44.482 46.9291 45.2422 47.8643 45.2422C48.7994 45.2421 49.5593 44.4819 49.5596 43.5469C49.5596 42.6116 48.7995 41.8507 47.8643 41.8506ZM27.9453 22.4463C27.0103 22.4465 26.2501 23.2075 26.25 24.1426C26.25 25.0777 27.0102 25.8386 27.9453 25.8389C28.8806 25.8389 29.6416 25.0779 29.6416 24.1426C29.6415 23.2074 28.8806 22.4463 27.9453 22.4463ZM47.8643 22.4463C46.9292 22.4463 46.1681 23.2075 46.168 24.1426C46.168 25.0779 46.929 25.8389 47.8643 25.8389C48.7995 25.8388 49.5596 25.0778 49.5596 24.1426C49.5595 23.2074 48.7995 22.4464 47.8643 22.4463ZM25.4268 11.7168H35.9727C37.3524 11.7168 38.4754 12.8399 38.4756 14.2197C38.4756 15.5997 37.3526 16.7227 35.9727 16.7227H25.4268C24.0471 16.7224 22.9238 15.5995 22.9238 14.2197C22.924 12.8401 24.0471 11.717 25.4268 11.7168ZM25.4268 12.8594C24.6766 12.8595 24.0657 13.4695 24.0654 14.2197C24.0654 14.9701 24.6764 15.5809 25.4268 15.5811H35.9727C36.7231 15.5811 37.334 14.9703 37.334 14.2197C37.3338 13.4694 36.723 12.8594 35.9727 12.8594H25.4268ZM27.375 26.9209L27.2979 26.9023C26.0447 26.6079 25.1084 25.4833 25.1084 24.1426C25.1086 22.5781 26.3817 21.3047 27.9463 21.3047C29.2872 21.3049 30.4118 22.242 30.7061 23.4951L30.7236 23.5723H45.0859L45.1035 23.4951C45.3979 22.2418 46.5232 21.3047 47.8643 21.3047C49.4287 21.3048 50.702 22.5781 50.7021 24.1426C50.7021 25.4834 49.7649 26.608 48.5117 26.9023L48.4346 26.9209V40.7686L48.5117 40.7861C49.7649 41.0805 50.7021 42.206 50.7021 43.5469C50.7019 45.1113 49.4287 46.3837 47.8643 46.3838C46.5232 46.3838 45.3979 45.4476 45.1035 44.1943L45.0859 44.1172H30.7236L30.7061 44.1943C30.4118 45.4477 29.2864 46.3838 27.9453 46.3838C26.381 46.3835 25.1086 45.1112 25.1084 43.5469C25.1084 42.206 26.0445 41.0805 27.2979 40.7861L27.375 40.7686V26.9209ZM47.293 26.9209L47.2158 26.9023C46.1716 26.6569 45.3489 25.835 45.1035 24.791L45.0859 24.7139H30.7236L30.7061 24.791C30.4608 25.8352 29.638 26.657 28.5938 26.9023L28.5166 26.9209V40.7686L28.5938 40.7861C29.638 41.0315 30.4608 41.8542 30.7061 42.8984L30.7236 42.9756H45.0859L45.1035 42.8984C45.3489 41.8542 46.1715 41.0315 47.2158 40.7861L47.293 40.7686V26.9209Z" fill="#F7EDC0" stroke="black" stroke-width="0.2"/>
<path d="M39.7168 27.6094C40.0744 27.6094 40.4382 27.684 40.8076 27.8262C41.1771 27.9573 41.5189 28.1359 41.8301 28.3633H41.8291C42.1468 28.5763 42.4117 28.8212 42.6191 29.1006C42.8324 29.3766 42.957 29.6705 42.957 29.9766C42.957 30.0766 42.932 30.1979 42.8379 30.292C42.7437 30.3861 42.6225 30.4111 42.5225 30.4111H42.2041L42.1885 30.4092C42.1105 30.3994 42.0259 30.3945 41.9346 30.3945C41.5587 30.3945 41.1765 30.4056 40.7891 30.4277C40.4728 30.4458 40.1603 30.4678 39.8516 30.4932L39.2939 39.9873V39.9902C39.2807 40.1751 39.2242 40.3747 39.0557 40.4951C38.9129 40.6144 38.7096 40.6425 38.5244 40.6426C38.1961 40.6426 37.8595 40.5261 37.5205 40.3203C37.1496 40.0951 36.8633 39.7218 36.6484 39.2324C36.4245 38.7221 36.3467 38.05 36.3926 37.2363L36.7295 30.793C36.6442 30.8008 36.559 30.8081 36.4736 30.8135L36.4658 30.8145H35.9707C35.5113 30.8145 35.0762 30.6958 34.6699 30.4619L34.667 30.46C34.2831 30.232 33.9655 29.9529 33.7197 29.6211L33.7158 29.6162V29.6152C33.4846 29.2864 33.3516 28.9514 33.3516 28.6152C33.3516 28.47 33.3962 28.3192 33.5234 28.2109C33.6431 28.1092 33.796 28.0801 33.9375 28.0801C34.0589 28.0801 34.3001 28.064 34.6709 28.0303C35.0403 27.9967 35.4658 27.9579 35.9473 27.9131L37.4258 27.7783H37.4268C37.9311 27.7335 38.3853 27.6938 38.7891 27.6602L39.333 27.6221C39.4879 27.6135 39.6161 27.6094 39.7168 27.6094Z" fill="#F7EDC0" stroke="black" stroke-width="0.5"/>
</svg>
