<svg width="60" height="60" viewBox="0 0 60 60" fill="none" xmlns="http://www.w3.org/2000/svg">
<circle cx="24" cy="24" r="18" fill="white"/>
<path d="M32.6077 37.1654C30.3209 38.7417 27.5604 39.6564 24.5794 39.6564C21.5984 39.6564 18.8379 38.7417 16.543 37.1736C16.6491 35.189 17.474 33.335 18.8869 31.9303C19.6333 31.1815 20.5206 30.5881 21.4977 30.1844C22.4748 29.7807 23.5222 29.5746 24.5794 29.5782C28.8917 29.57 32.3872 32.8859 32.6077 37.1654Z" fill="#93E3A4"/>
<path d="M43.874 37.6914C43.9568 37.6914 44.0255 37.7168 44.0918 37.7783L44.0947 37.7812L54.666 47.2627C54.7487 47.3415 54.7772 47.4141 54.7773 47.4961H54.7764L54.7773 47.5088C54.7816 47.6005 54.7489 47.6783 54.6816 47.7461L54.0928 48.3271L54.0508 48.3691L48.6113 53.7998C48.5828 53.8217 48.5409 53.8569 48.5029 53.9082L47.75 54.6543L47.748 54.6562C47.7173 54.6872 47.6802 54.7113 47.6396 54.7275C47.599 54.7437 47.5554 54.7513 47.5117 54.75C47.4681 54.7487 47.4253 54.7383 47.3857 54.7197C47.3461 54.7012 47.3102 54.6754 47.2812 54.6426L47.2803 54.6406L37.8379 44.1338H37.8389L37.8359 44.1309L37.8037 44.0898C37.7745 44.0457 37.7559 43.9947 37.751 43.9414C37.745 43.8771 37.7601 43.8132 37.791 43.7568C37.7981 43.7477 37.8034 43.7382 37.8086 43.7295C37.8092 43.7288 37.8102 43.7271 37.8125 43.7246C37.815 43.722 37.8174 43.7189 37.8213 43.7148C37.8247 43.7112 37.8294 43.7062 37.834 43.7012C37.838 43.6968 37.8418 43.6912 37.8467 43.6855L43.6484 37.7939L43.6494 37.7949L43.6533 37.7891C43.7186 37.7192 43.7896 37.6915 43.874 37.6914Z" fill="#93E3A4" stroke="black" stroke-width="0.5"/>
<path d="M37.6019 43.6082C37.5777 43.6405 37.5615 43.6647 37.5373 43.6809C37.4647 43.7535 37.3598 43.7858 37.271 43.7858C37.1661 43.7858 37.0531 43.7454 36.9805 43.6567L36.803 43.463L35.3988 41.9136L35.1729 41.6634C35.1022 41.5853 35.0655 41.4823 35.0708 41.3771C35.0761 41.2719 35.123 41.1732 35.2011 41.1025C35.2792 41.0319 35.3822 40.9952 35.4874 41.0005C35.5926 41.0058 35.6913 41.0527 35.762 41.1308L36.0686 41.4617L37.2791 42.7851L37.5615 43.0998C37.6907 43.2532 37.7068 43.4549 37.6019 43.6082Z" fill="#231F20"/>
<path d="M42.7361 37.2337L37.2808 42.7938L36.0703 41.4704C38.2008 40.0178 40.0407 38.1617 41.4933 36.0312L42.7361 37.2337Z" fill="#111111"/>
<path d="M43.6013 37.5144C43.5287 37.5951 43.4238 37.6355 43.327 37.6355C43.222 37.6355 43.1252 37.6032 43.0526 37.5225L42.754 37.232L41.5032 36.0215L41.1642 35.6987C41.0028 35.5454 40.9948 35.2952 41.1562 35.1419C41.3095 34.9805 41.5516 34.9724 41.713 35.1258L41.947 35.3517L43.3915 36.7478L43.6094 36.9576C43.7466 37.111 43.7547 37.3611 43.6013 37.5144Z" fill="#231F20"/>
<path d="M53.917 49.0957C54.1428 50.3214 53.7216 51.5773 52.7939 52.5479L52.7949 52.5488C51.821 53.574 50.4582 54.0479 49.1416 53.8672L48.6416 53.7988L48.999 53.4424L53.4941 48.9639L53.8301 48.6289L53.917 49.0957Z" fill="white" stroke="black" stroke-width="0.5"/>
<circle cx="24.5732" cy="23.6162" r="4.1318" fill="#93E3A4"/>
<path d="M24.5791 5.25C35.2626 5.25025 43.9463 13.9343 43.9385 24.6094V24.6104C43.9382 35.2856 35.2544 43.9695 24.5791 43.9697C13.9036 43.9697 5.219 35.2858 5.21875 24.6104C5.21875 13.9347 13.9035 5.25 24.5791 5.25ZM24.5791 9.49512C16.2419 9.49512 9.46387 16.2814 9.46387 24.6104C9.46402 29.6386 11.9258 34.0927 15.7021 36.8389V36.8398L15.8018 36.915C15.8041 36.9169 15.8429 36.9464 15.8936 36.9766C15.9001 36.982 15.9056 36.9891 15.9131 36.9941C15.9156 36.9958 15.9193 36.9965 15.9219 36.998C18.3735 38.7174 21.358 39.7324 24.5791 39.7324V39.7314C27.6703 39.7366 30.6861 38.7844 33.2139 37.0059C33.2786 36.9771 33.3292 36.9383 33.3662 36.9043C37.193 34.1638 39.7016 29.6781 39.6934 24.6094C39.6931 16.2807 32.9078 9.49536 24.5791 9.49512Z" fill="white" stroke="black" stroke-width="0.5"/>
</svg>
