<svg width="60" height="60" viewBox="0 0 60 60" fill="none" xmlns="http://www.w3.org/2000/svg">
<path d="M19.4248 5.25H19.4258C21.2871 5.24378 23.113 5.7596 24.6963 6.73828C26.2794 7.71692 27.5563 9.11956 28.3828 10.7871L28.3838 10.7881L29.5938 13.209H19.4248C18.3696 13.209 17.3576 12.79 16.6113 12.0439C15.865 11.2976 15.4453 10.2849 15.4453 9.22949C15.4453 8.17409 15.865 7.1623 16.6113 6.41602C17.3576 5.66974 18.3694 5.25002 19.4248 5.25ZM40.5723 5.25C41.6277 5.25 42.6404 5.6697 43.3867 6.41602C44.1329 7.16228 44.5527 8.17418 44.5527 9.22949C44.5527 10.2849 44.133 11.2976 43.3867 12.0439C42.6404 12.7902 41.6276 13.209 40.5723 13.209H30.4043L31.6143 10.7881V10.7871C32.4408 9.11938 33.7185 7.71697 35.3018 6.73828C36.7861 5.82073 38.4835 5.30992 40.2236 5.25488L40.5723 5.25Z" fill="white" stroke="black" stroke-width="0.5"/>
<path d="M50.8975 25.6445V52.8867L50.8877 53.0703C50.845 53.4973 50.6566 53.899 50.3506 54.2051C50.0009 54.5547 49.5267 54.7515 49.0322 54.752H10.9668C10.4724 54.7515 9.99807 54.5546 9.64844 54.2051C9.29884 53.8555 9.10212 53.3811 9.10156 52.8867V25.6445H50.8975Z" fill="white" stroke="black" stroke-width="0.5"/>
<path d="M6.73633 13.332H53.2607C54.2906 13.332 55.126 14.1674 55.126 15.1973V23.6562C55.1258 24.686 54.2905 25.5205 53.2607 25.5205H6.73633C5.70653 25.5205 4.87125 24.686 4.87109 23.6562V15.1973C4.87109 14.1674 5.70644 13.332 6.73633 13.332Z" fill="white" stroke="black" stroke-width="0.5"/>
<path d="M23.5781 25.9219H36.4179V54.5451H23.5781V25.9219Z" fill="#FFBE8F"/>
<path d="M21.0742 13.457H38.9205V25.2556H21.0742V13.457Z" fill="#FFBE8F"/>
</svg>
