<svg width="57" height="47" viewBox="0 0 57 47" fill="none" xmlns="http://www.w3.org/2000/svg">
<rect x="7.14746" y="37.4502" width="42.7" height="9.1" rx="0.75" fill="#7ECCFF" stroke="black" stroke-width="0.5"/>
<path d="M28.4609 6.16895C30.0996 11.0915 31.897 15.0831 33.8252 18.0605C35.8442 21.1781 38.0235 23.2104 40.3369 24.0137C42.4601 24.7905 44.8301 24.4293 46.6299 23.0684L46.6309 23.0693C48.9817 21.3791 51.3715 19.5618 53.251 18.1201L50.3408 35.75H6.5459L3.62793 18.1201C5.50747 19.5618 7.89796 21.378 10.249 23.0684C12.0563 24.4488 14.4475 24.8098 16.584 24.0127L16.583 24.0117C18.8919 23.2075 21.0717 21.1763 23.0918 18.0605C25.0222 15.0831 26.822 11.0916 28.4609 6.16895ZM1.82617 13.1621H1.82715C2.69148 13.1622 3.38855 13.8605 3.38867 14.7178V14.7422C3.38259 15.6049 2.6743 16.303 1.81055 16.2979C1.60469 16.2968 1.40074 16.2555 1.21094 16.1758C1.0211 16.096 0.848977 15.9793 0.704102 15.833C0.559282 15.6867 0.444067 15.5138 0.366211 15.3232C0.288406 15.1327 0.249036 14.9284 0.25 14.7227C0.251019 14.5169 0.292419 14.3128 0.37207 14.123C0.451778 13.9333 0.568607 13.7611 0.714844 13.6162C0.861167 13.4713 1.03496 13.3562 1.22559 13.2783C1.4161 13.2006 1.6204 13.1611 1.82617 13.1621ZM55.1836 13.1621H55.2109L55.3682 13.1729C56.1475 13.2648 56.747 13.924 56.7471 14.7178V14.7422C56.741 15.6053 56.038 16.3028 55.1689 16.2979C54.3057 16.2927 53.6064 15.5902 53.6055 14.7197C53.609 14.3042 53.7766 13.9072 54.0723 13.6152C54.3681 13.3232 54.7679 13.1601 55.1836 13.1621ZM28.5215 0.25C28.726 0.25006 28.9282 0.290909 29.1172 0.369141C29.3063 0.447488 29.4783 0.562264 29.623 0.707031C29.7677 0.851648 29.8826 1.023 29.9609 1.21191C30.0392 1.40094 30.08 1.604 30.0801 1.80859C30.0801 2.01328 30.0392 2.21617 29.9609 2.40527C29.8826 2.59442 29.7678 2.76637 29.623 2.91113C29.4783 3.05587 29.3063 3.17069 29.1172 3.24902C28.9283 3.32724 28.726 3.36713 28.5215 3.36719C27.6632 3.36146 26.9706 2.6698 26.9648 1.81152C26.9651 1.00128 27.5792 0.337563 28.3623 0.257812L28.5215 0.25Z" fill="white" stroke="black" stroke-width="0.5"/>
</svg>
