<svg width="44" height="44" viewBox="0 0 44 44" fill="none" xmlns="http://www.w3.org/2000/svg">
<g clip-path="url(#clip0_1745_9698)">
<rect width="44" height="44" rx="22" fill="#E5F4FD"/>
<g clip-path="url(#clip1_1745_9698)">
<path d="M30.832 29.7754C30.2168 29.8001 29.4119 29.8732 28.6377 30.0879C27.8336 30.3109 27.0835 30.6804 26.6045 31.2812H26.6035C25.8839 32.1785 25.4584 33.4353 25.3447 34.708C25.231 35.9814 25.4315 37.247 25.9385 38.1611H25.9395C26.2211 38.6711 26.8152 40.0968 27.5146 41.7803C28.1951 43.4181 28.9816 45.3129 29.6904 46.8926C30.3195 46.6355 30.9273 46.3295 31.5078 45.9766L31.7744 45.8096C32.9407 44.9419 33.9228 43.153 34.4043 41.5654C34.4262 41.4925 34.4487 41.4156 34.4707 41.335L34.4902 41.2588C34.6783 40.1907 34.6153 39.0929 34.3047 38.0537L32.6855 32.8164C32.3639 31.8441 31.8733 30.936 31.2344 30.1357C31.1086 30.0066 30.9734 29.8872 30.832 29.7754Z" fill="#4FB2F3" stroke="black" stroke-width="0.350877"/>
<path d="M18.7686 21.7178L18.7627 21.8877L18.6963 23.8223L18.3682 26.3311L17.4043 27.4541L17.3682 27.4961L17.3633 27.5508L16.8936 32.4434L16.875 32.6357H28.7637L28.7607 32.457L28.6934 29.1279L28.6914 29.0381L28.6172 28.9873L26.0635 27.2383L26.21 21.8984L26.2148 21.7178H18.7686Z" fill="white" stroke="black" stroke-width="0.350877"/>
<path d="M23.9062 8.50586C22.157 8.24332 20.1807 8.39138 18.5361 9.0625C16.8564 9.74797 16.0708 11.1095 15.7705 12.624C15.4717 14.1314 15.6497 15.8054 15.9023 17.1621C16.1588 18.5395 16.7261 19.7101 17.4346 20.5732C18.1241 21.4133 18.9569 21.9714 19.7754 22.1309C20.0566 22.4448 20.4776 22.9061 20.9258 23.3457C21.3919 23.803 21.8994 24.2523 22.3105 24.4844L22.3203 24.4893C23.5225 25.0712 24.8292 25.4062 26.1631 25.4746H26.1719C26.7151 25.4746 27.1469 25.4136 27.4688 25.3281C27.7829 25.2447 28.013 25.1325 28.1318 25.0137C28.1749 24.9706 28.2146 24.9014 28.248 24.8369C28.2851 24.7655 28.3267 24.6748 28.3711 24.5703C28.4602 24.3609 28.5637 24.0881 28.667 23.7861C28.8732 23.1833 29.0834 22.4516 29.1787 21.8643L29.1797 21.8594C29.3458 20.5802 29.3977 19.2883 29.334 18C29.3228 17.4471 29.308 16.9089 29.3154 15.8203C29.3228 14.2551 29.4847 12.462 27.9805 10.4678C27.208 9.44369 25.648 8.76731 23.9062 8.50586Z" fill="white" stroke="black" stroke-width="0.350877"/>
<path d="M20.9219 16.1172L20.9756 16.0654C21.3792 15.6757 21.6761 15.1886 21.8379 14.6514L21.8994 14.4482L22.0879 14.5469C22.6565 14.8458 23.2673 15.0535 23.8984 15.166C23.8668 15.1011 23.8351 15.039 23.8076 14.9824C23.7727 14.9104 23.743 14.8478 23.7217 14.8037C23.7112 14.782 23.7021 14.7649 23.6963 14.7529C23.6934 14.7469 23.691 14.7414 23.6895 14.7383C23.6888 14.7369 23.6879 14.7361 23.6875 14.7354V14.7344L23.4668 14.2764L23.9229 14.5C24.8365 14.9487 25.8094 15.2624 26.8115 15.4346C26.7799 15.3646 26.7518 15.3009 26.7266 15.2471C26.6981 15.1862 26.6744 15.1372 26.6582 15.1035C26.6501 15.0867 26.6439 15.0732 26.6396 15.0645L26.6338 15.0527L26.6328 15.0518L26.4043 14.5879L26.8682 14.8174C27.2932 15.0273 27.9517 15.0481 28.5332 15.0068C28.8183 14.9866 29.0751 14.9523 29.2607 14.9229C29.2944 14.9175 29.3259 14.9111 29.3545 14.9062L29.1406 14.3604L29.0674 14.1729L29.2627 14.126C29.5857 14.0486 29.895 13.9243 30.1846 13.7627C29.9366 13.3114 29.7057 12.8859 29.5322 12.5625C29.4358 12.3826 29.3566 12.2341 29.3018 12.1309C29.2744 12.0794 29.2528 12.0392 29.2383 12.0117C29.2311 11.9982 29.2254 11.9876 29.2217 11.9805C29.2198 11.9769 29.2178 11.9735 29.2168 11.9717L29.2158 11.9697L29.042 11.6406L29.4062 11.7158C29.5572 11.7471 29.711 11.7582 29.8643 11.7539C29.3018 11.1942 28.7115 10.663 28.0928 10.166C27.2698 9.55058 25.5124 8.47252 23.6445 8.28027L23.2695 8.25391L23.2598 8.25293C22.2844 8.16207 21.1431 8.11431 20.1064 8.32227C19.0719 8.52986 18.1615 8.98811 17.6133 9.89355L17.585 9.94141L17.5332 9.96289C16.5081 10.4095 16.0034 11.212 15.7656 12.0674C15.5264 12.9281 15.5609 13.8344 15.6162 14.4619C15.7247 15.584 15.9013 16.6984 16.1445 17.7988L16.2529 18.2695C16.487 19.2174 17.1719 20.5871 17.8096 21.7334C18.1268 22.3036 18.4293 22.8134 18.6523 23.1807C18.7157 23.2849 18.7742 23.3767 18.8232 23.4561L19.3848 21.7783L19.5752 19.7754L19.5898 19.6172H20.4678V17.7246L20.4971 17.6807C20.6274 17.4845 20.7703 17.2973 20.9219 17.1172V16.1172Z" fill="#111111" stroke="black" stroke-width="0.350877"/>
<path d="M13.2207 30.1152L13.2197 30.1162C11.8187 31.011 10.6794 32.2597 9.91504 33.7354C9.96169 34.1336 10.7614 39.6147 11.5137 44.7275C11.9051 45.0248 12.3132 45.2993 12.7373 45.5479C17.2101 48.1616 24.0205 48.6587 29.4023 47.0234C30.1088 46.7523 30.7906 46.4209 31.4404 46.0332L31.4453 46.0303L31.6289 45.917L31.7881 45.8135C32.285 45.4276 32.716 44.9641 33.0645 44.4404C32.6111 38.1076 32.0705 32.7883 31.8955 31.1084C31.7046 30.7877 31.4957 30.478 31.2676 30.1826C30.9101 29.7863 30.1147 29.2483 29.1533 28.7168C28.2635 28.2248 27.2504 27.7504 26.3545 27.4121L25.9248 30.2441L25.9023 30.3926H25.1602L25.1289 30.3809L17.4756 27.3711L13.2207 30.1152Z" fill="#4FB2F3" stroke="black" stroke-width="0.350877"/>
<mask id="path-7-outside-1_1745_9698" maskUnits="userSpaceOnUse" x="22.4082" y="29.2188" width="8" height="19" fill="black">
<rect fill="white" x="22.4082" y="29.2188" width="8" height="19"/>
<path d="M23.4248 30.2188V30.96L24.9062 32.3262H24.9111C24.9248 32.5888 25.3297 40.3991 25.5713 47.6318C26.8915 47.4903 28.1349 47.1799 29.4082 46.8037C27.9444 39.5479 26.2632 32.3509 26.2559 32.3193H26.2529L26.8057 30.6729L26.6787 30.2188H23.4248Z"/>
</mask>
<path d="M23.4248 30.2188V30.96L24.9062 32.3262H24.9111C24.9248 32.5888 25.3297 40.3991 25.5713 47.6318C26.8915 47.4903 28.1349 47.1799 29.4082 46.8037C27.9444 39.5479 26.2632 32.3509 26.2559 32.3193H26.2529L26.8057 30.6729L26.6787 30.2188H23.4248Z" fill="white"/>
<path d="M23.4248 30.2188H23.0739V29.8679H23.4248V30.2188ZM23.4248 30.96L23.1869 31.2179L23.0739 31.1137V30.96H23.4248ZM24.9062 32.3262V32.677H24.7692L24.6684 32.5841L24.9062 32.3262ZM24.9111 32.3262V31.9753H25.2443L25.2615 32.308L24.9111 32.3262ZM25.5713 47.6318L25.6087 47.9807L25.2332 48.021L25.2206 47.6435L25.5713 47.6318ZM29.4082 46.8037L29.7522 46.7343L29.8157 47.0492L29.5076 47.1402L29.4082 46.8037ZM26.2559 32.3193V31.9685H26.5342L26.5975 32.2395L26.2559 32.3193ZM26.2529 32.3193V32.6702H25.765L25.9203 32.2077L26.2529 32.3193ZM26.8057 30.6729L27.1436 30.5784L27.1726 30.6823L27.1383 30.7845L26.8057 30.6729ZM26.6787 30.2188V29.8679H26.9449L27.0166 30.1243L26.6787 30.2188ZM23.4248 30.2188H23.7757V30.96H23.4248H23.0739V30.2188H23.4248ZM23.4248 30.96L23.6627 30.702L25.1441 32.0682L24.9062 32.3262L24.6684 32.5841L23.1869 31.2179L23.4248 30.96ZM24.9062 32.3262V31.9753H24.9111V32.3262V32.677H24.9062V32.3262ZM24.9111 32.3262L25.2615 32.308C25.2752 32.5709 25.6803 40.3839 25.922 47.6201L25.5713 47.6318L25.2206 47.6435C24.9791 40.4143 24.5743 32.6067 24.5607 32.3444L24.9111 32.3262ZM25.5713 47.6318L25.5339 47.283C26.8235 47.1447 28.0438 46.841 29.3088 46.4672L29.4082 46.8037L29.5076 47.1402C28.226 47.5189 26.9594 47.8359 25.6087 47.9807L25.5713 47.6318ZM29.4082 46.8037L29.0643 46.8731C27.6015 39.6227 25.9214 32.4299 25.9142 32.3992L26.2559 32.3193L26.5975 32.2395C26.6051 32.2718 28.2873 39.4731 29.7522 46.7343L29.4082 46.8037ZM26.2559 32.3193V32.6702H26.2529V32.3193V31.9685H26.2559V32.3193ZM26.2529 32.3193L25.9203 32.2077L26.473 30.5612L26.8057 30.6729L27.1383 30.7845L26.5856 32.431L26.2529 32.3193ZM26.8057 30.6729L26.4677 30.7673L26.3408 30.3132L26.6787 30.2188L27.0166 30.1243L27.1436 30.5784L26.8057 30.6729ZM26.6787 30.2188V30.5696H23.4248V30.2188V29.8679H26.6787V30.2188Z" fill="black" mask="url(#path-7-outside-1_1745_9698)"/>
<path d="M17.6748 27.1621L22.1982 32.5312L24.9141 30.2256L18.7256 25.5547L17.6748 27.1621Z" fill="#4FB2F3" stroke="black" stroke-width="0.350877"/>
<path d="M25.9316 30.0967L27.7422 31.375L27.0195 27.4551L26.0957 26.6025L25.9316 30.0967Z" fill="#4FB2F3" stroke="black" stroke-width="0.350877"/>
<path d="M19.3522 20.4513L19.242 21.5557L18.5524 21.0663L18.2425 20.5021C18.2053 20.2851 18.1309 19.8425 18.1309 19.8077V19.1382L18.3539 18.6484L18.5524 18.0781H19.0856L19.6064 18.4128L20.0129 19.4566H19.4454L19.3522 20.4513Z" fill="white"/>
<path d="M10.5312 32.6748C10.0459 33.3489 9.68837 34.1053 9.48047 34.9082L9.39551 35.2783C9.19377 36.3044 8.97722 37.5072 8.75488 38.7979L8.76855 38.7949L8.72266 39.0605C8.34238 41.2735 9.55168 43.5983 12.4482 45.3809L12.7324 45.5508C13.286 45.8668 13.8602 46.1444 14.4492 46.3877C14.6509 45.6731 14.8294 45.0427 14.9619 44.5771C15.034 44.3238 15.0928 44.1197 15.1328 43.9766C15.1528 43.9049 15.1675 43.8491 15.1777 43.8105C15.1829 43.7911 15.1862 43.7768 15.1885 43.7676C15.189 43.7655 15.1901 43.764 15.1904 43.7627V43.7607C15.3127 42.5371 15.0243 40.2905 14.2432 38.0674C13.4792 35.8934 12.2567 33.7857 10.5312 32.6748Z" fill="#4FB2F3" stroke="black" stroke-width="0.350877"/>
<path d="M19.5072 21.7566C18.7595 21.4007 17.5783 20.2846 18.3462 18.4978C18.595 17.919 19.5413 17.6338 20.2075 19.6635" stroke="black" stroke-width="0.350877"/>
<path d="M22.2414 18.5041C22.5131 18.195 23.2683 17.6617 24.1159 18.0019" stroke="black" stroke-width="0.350877" stroke-linecap="round"/>
<path d="M26.3623 17.9995C26.6679 17.7239 27.4798 17.2815 28.2823 17.7174" stroke="black" stroke-width="0.350877" stroke-linecap="round"/>
<circle cx="23.2938" cy="18.9725" r="0.467636" fill="#111111"/>
<circle cx="27.3993" cy="18.6317" r="0.467636" fill="#111111"/>
<path d="M25.4819 18.9668L25.8605 20.9069C25.9028 21.1235 25.7369 21.3249 25.5161 21.3249H25.0986" stroke="black" stroke-width="0.350877" stroke-linecap="round"/>
<path d="M23.7832 22.5342C24.175 22.8198 25.3252 23.2555 26.7915 22.7136" stroke="black" stroke-width="0.350877" stroke-linecap="round"/>
</g>
</g>
<defs>
<clipPath id="clip0_1745_9698">
<rect width="44" height="44" rx="22" fill="white"/>
</clipPath>
<clipPath id="clip1_1745_9698">
<rect width="34.386" height="40" fill="white" transform="matrix(-1 0 0 1 39.1934 8)"/>
</clipPath>
</defs>
</svg>
