<svg width="60" height="60" viewBox="0 0 60 60" fill="none" xmlns="http://www.w3.org/2000/svg">
<g clip-path="url(#clip0_2022_15023)">
<path d="M40.5381 7.09375C41.3043 7.09396 41.9258 7.7152 41.9258 8.48145V14.1191C41.9258 14.6761 41.4739 15.1279 40.917 15.1279H40.0283C39.4714 15.1279 39.0195 14.6761 39.0195 14.1191V10.6797C39.0195 10.3991 38.7923 10.1722 38.5117 10.1719L21.4932 10.1572C21.2124 10.1571 20.9845 10.3843 20.9844 10.665V14.1084C20.9844 14.6628 20.5368 15.1135 19.9824 15.1172L19.0967 15.123C18.5373 15.1265 18.082 14.6737 18.082 14.1143V8.48145C18.082 7.71507 18.7034 7.09375 19.4697 7.09375L40.5381 7.09375Z" fill="#C583FF" stroke="black" stroke-width="0.5"/>
<rect x="0.25" y="18.6211" width="59.4991" height="33.7861" rx="7.3343" fill="white" stroke="black" stroke-width="0.5"/>
<path d="M11.1426 13.4766L48.8564 13.4766C54.8722 13.4767 59.7488 18.3534 59.749 24.3691C59.749 26.598 57.9418 28.4053 55.7129 28.4053L4.28613 28.4053C2.05724 28.4053 0.25 26.598 0.25 24.3691C0.250215 18.3534 5.12687 13.4768 11.1426 13.4766Z" fill="white" stroke="black" stroke-width="0.5"/>
<line x1="0.949219" y1="21.1172" x2="59.292" y2="21.1172" stroke="black" stroke-width="0.5"/>
<rect x="24.4688" y="25.8438" width="9.07131" height="5.64291" rx="2.82146" fill="#C583FF" stroke="black" stroke-width="0.5"/>
</g>
<defs>
<clipPath id="clip0_2022_15023">
<rect width="60" height="60" fill="white"/>
</clipPath>
</defs>
</svg>
