<svg width="50" height="74" viewBox="0 0 50 74" fill="none" xmlns="http://www.w3.org/2000/svg">
<path d="M8.09385 22.817L11.2852 26.0237H38.4446L41.6862 22.8233C42.8281 21.696 43.4708 20.1582 43.4708 18.5536V-0.0302734H6.34668V18.5846C6.34668 20.1709 6.97486 21.6926 8.09385 22.817Z" fill="url(#paint0_linear_2121_20628)" stroke="#A8694C" stroke-width="0.5"/>
<g opacity="0.2">
<rect x="12.3457" y="0.200195" width="5" height="37.6959" fill="white"/>
<rect x="22.4082" y="0.200195" width="5" height="37.6959" fill="white"/>
<rect x="32.3457" y="0.200195" width="5" height="37.6959" fill="white"/>
</g>
<path d="M22.2539 18.3652C23.8545 17.2686 25.9656 17.2705 27.5635 18.3711L47.4121 32.043C48.6821 32.9179 49.4404 34.3621 49.4404 35.9043V53.4248C49.4404 54.9698 48.679 56.4157 47.4053 57.29L27.5625 70.9111C25.9677 72.0059 23.8634 72.0094 22.2656 70.9189L2.29492 57.2881C1.01543 56.4146 0.25 54.9653 0.25 53.416V35.9121C0.25 34.3657 1.01239 32.918 2.28809 32.0439L22.2539 18.3652Z" fill="url(#paint1_linear_2121_20628)" stroke="#A8694C" stroke-width="0.5"/>
<path d="M23.6328 22.3613C24.3945 21.834 25.4037 21.8349 26.1641 22.3643L43.9482 34.7471C44.544 35.1619 44.8993 35.8424 44.8994 36.5684V52.752C44.8994 53.4793 44.5428 54.1605 43.9453 54.5752L26.165 66.9131C25.4062 67.4395 24.4009 67.4412 23.6406 66.917L5.75 54.5742C5.14966 54.16 4.79104 53.4774 4.79102 52.748V36.5723C4.79112 35.8443 5.14863 35.1625 5.74707 34.748L23.6328 22.3613Z" fill="url(#paint2_linear_2121_20628)" stroke="#A8694C" stroke-width="0.5"/>
<path d="M23.5359 32.4325C24.0851 31.3702 25.6043 31.3702 26.1536 32.4325L29.6512 39.1971C29.7914 39.4682 30.0122 39.6891 30.2834 39.8292L37.048 43.3269C38.1103 43.8761 38.1103 45.3953 37.048 45.9446L30.2834 49.4422C30.0122 49.5824 29.7914 49.8032 29.6512 50.0744L26.1536 56.839C25.6043 57.9013 24.0851 57.9013 23.5359 56.839L20.0382 50.0744C19.898 49.8032 19.6772 49.5824 19.4061 49.4422L12.6414 45.9446C11.5792 45.3953 11.5792 43.8761 12.6414 43.3269L19.4061 39.8292C19.6772 39.6891 19.898 39.4682 20.0382 39.1971L23.5359 32.4325Z" fill="url(#paint3_linear_2121_20628)" stroke="#A8694C" stroke-width="0.5"/>
<defs>
<linearGradient id="paint0_linear_2121_20628" x1="24.9088" y1="-0.0302734" x2="24.9088" y2="26.0237" gradientUnits="userSpaceOnUse">
<stop stop-color="#FE986A"/>
<stop offset="1" stop-color="#FED5C0"/>
</linearGradient>
<linearGradient id="paint1_linear_2121_20628" x1="49.6906" y1="44.6358" x2="0" y2="44.6358" gradientUnits="userSpaceOnUse">
<stop stop-color="#FE986A"/>
<stop offset="1" stop-color="#FED5C0"/>
</linearGradient>
<linearGradient id="paint2_linear_2121_20628" x1="39.6666" y1="59.7079" x2="8.47618" y2="32.7901" gradientUnits="userSpaceOnUse">
<stop stop-color="#FFBFA5"/>
<stop offset="1" stop-color="#FEB394"/>
</linearGradient>
<linearGradient id="paint3_linear_2121_20628" x1="24.8447" y1="31.6357" x2="24.8447" y2="57.6357" gradientUnits="userSpaceOnUse">
<stop stop-color="#FBF8F3"/>
<stop offset="1" stop-color="#FFDACA"/>
</linearGradient>
</defs>
</svg>
