<svg width="62" height="72" viewBox="0 0 62 72" fill="none" xmlns="http://www.w3.org/2000/svg">
<g clip-path="url(#clip0_2121_18781)">
<mask id="path-1-inside-1_2121_18781" fill="white">
<path d="M0 10C0 4.47715 4.47715 0 10 0H52C57.5228 0 62 4.47715 62 10V62C62 67.5229 57.5228 72 52 72H10C4.47715 72 0 67.5229 0 62V10Z"/>
</mask>
<path d="M0 10C0 4.47715 4.47715 0 10 0H52C57.5228 0 62 4.47715 62 10V62C62 67.5229 57.5228 72 52 72H10C4.47715 72 0 67.5229 0 62V10Z" fill="#FEEFE5"/>
<rect x="0.5" y="0.5" width="61" height="71" rx="9.5" fill="#FEEFE5" stroke="#F3934F"/>
<rect x="66.6592" y="6.35156" width="14" height="107.43" transform="rotate(45 66.6592 6.35156)" fill="#F3934F" fill-opacity="0.05"/>
<rect x="45.6133" y="-14.1504" width="14" height="51.5014" rx="7" transform="rotate(45 45.6133 -14.1504)" fill="#F3934F" fill-opacity="0.05"/>
<path d="M23.0576 29.4521C26.824 25.6857 32.95 25.6857 36.7158 29.4521C40.4817 33.2173 40.4816 39.3436 36.7158 43.1094L28.3438 51.4824C24.5773 55.2489 18.4504 55.2489 14.6846 51.4824C10.9191 47.7174 10.9186 41.591 14.6846 37.8252L23.0576 29.4521ZM29.8867 32.2598C28.8203 32.2599 27.7979 32.6833 27.043 33.4365L27.042 33.4355L18.6699 41.8086C17.9166 42.5636 17.4932 43.5868 17.4932 44.6533C17.4932 45.7194 17.9161 46.7422 18.6689 47.4971C19.4239 48.2502 20.4473 48.6738 21.5137 48.6738C22.5801 48.6738 23.6035 48.2503 24.3584 47.4971L32.7314 39.125C33.4848 38.37 33.9072 37.3468 33.9072 36.2803C33.9072 35.2137 33.4848 34.1905 32.7314 33.4355C31.9765 32.6824 30.9531 32.2598 29.8867 32.2598Z" fill="white" stroke="black" stroke-width="0.5"/>
<path d="M29.9561 16.5127C33.7192 12.7496 39.8439 12.7453 43.6123 16.5137C47.2573 20.1587 47.3713 26.0252 43.9541 29.8096L43.6123 30.1689L38.9336 34.8477L38.8398 34.3936C38.4806 32.6564 37.6194 31.0631 36.3633 29.8105L36.1855 29.6338L36.3633 29.4561L39.6309 26.1875C41.197 24.622 41.193 22.067 39.626 20.5C38.059 18.933 35.5037 18.9289 33.9375 20.4951L25.5625 28.8701C23.9967 30.4368 23.9961 32.997 25.5625 34.5635C27.1291 36.1301 29.6902 36.1301 31.2568 34.5635L32.7354 33.084L32.9131 32.9072L33.0898 33.085C33.9361 33.9341 34.4112 35.0844 34.4102 36.2832C34.4092 37.4074 33.9895 38.4882 33.2383 39.3174L33.084 39.4795L31.8555 40.709L31.8164 40.7471L31.7656 40.7666C28.3434 42.0338 24.3293 41.2921 21.582 38.5449C20.255 37.2219 19.3451 35.5388 18.9639 33.7041C18.6324 32.133 18.6981 30.5041 19.1553 28.9648C19.6125 27.4257 20.4467 26.025 21.582 24.8896L29.9561 16.5127Z" fill="#FFBE8F" stroke="black" stroke-width="0.5"/>
<path d="M43.334 35.3721C48.0395 35.3722 51.8545 39.187 51.8545 43.8926C51.8544 48.598 48.0394 52.413 43.334 52.4131C38.6284 52.4131 34.8136 48.5981 34.8135 43.8926C34.8135 39.187 38.6284 35.3721 43.334 35.3721Z" fill="black" stroke="black" stroke-width="0.0664062"/>
<path d="M47.393 43.2452H43.981V39.8326C43.981 39.661 43.9129 39.4964 43.7915 39.3751C43.6702 39.2537 43.5056 39.1855 43.334 39.1855C43.1624 39.1855 42.9978 39.2537 42.8764 39.3751C42.7551 39.4964 42.6869 39.661 42.6869 39.8326V43.2452H39.275C39.1034 43.2452 38.9388 43.3134 38.8174 43.4347C38.6961 43.5561 38.6279 43.7206 38.6279 43.8923C38.6279 44.0639 38.6961 44.2284 38.8174 44.3498C38.9388 44.4711 39.1034 44.5393 39.275 44.5393H42.6869V47.9513C42.6869 48.1229 42.7551 48.2874 42.8764 48.4088C42.9978 48.5301 43.1624 48.5983 43.334 48.5983C43.5056 48.5983 43.6702 48.5301 43.7915 48.4088C43.9129 48.2874 43.981 48.1229 43.981 47.9513V44.5393H47.393C47.5646 44.5393 47.7292 44.4711 47.8505 44.3498C47.9719 44.2284 48.04 44.0639 48.04 43.8923C48.04 43.7206 47.9719 43.5561 47.8505 43.4347C47.7292 43.3134 47.5646 43.2452 47.393 43.2452Z" fill="white"/>
</g>
<path d="M0 0H62H0ZM62 62C62 69.1797 56.1797 75 49 75H13C5.8203 75 0 69.1797 0 62C0 65.866 4.47715 69 10 69H52C57.5228 69 62 65.866 62 62ZM0 72V0V72ZM62 0V72V0Z" fill="#F3934F" mask="url(#path-1-inside-1_2121_18781)"/>
<defs>
<clipPath id="clip0_2121_18781">
<path d="M0 10C0 4.47715 4.47715 0 10 0H52C57.5228 0 62 4.47715 62 10V62C62 67.5229 57.5228 72 52 72H10C4.47715 72 0 67.5229 0 62V10Z" fill="white"/>
</clipPath>
</defs>
</svg>
