<svg width="63" height="72" viewBox="0 0 63 72" fill="none" xmlns="http://www.w3.org/2000/svg">
<g clip-path="url(#clip0_2121_18836)">
<mask id="path-1-inside-1_2121_18836" fill="white">
<path d="M0 10C0 4.47715 4.47715 0 10 0H53C58.5228 0 63 4.47715 63 10V62C63 67.5229 58.5228 72 53 72H10C4.47715 72 0 67.5229 0 62V10Z"/>
</mask>
<path d="M0 10C0 4.47715 4.47715 0 10 0H53C58.5228 0 63 4.47715 63 10V62C63 67.5229 58.5228 72 53 72H10C4.47715 72 0 67.5229 0 62V10Z" fill="#ECF9EF"/>
<rect y="0.5" width="63" height="71" rx="9.5" fill="#F8F9FF" stroke="#788CFF"/>
<rect x="67.1592" y="6.35156" width="14" height="107.43" transform="rotate(45 67.1592 6.35156)" fill="#788CFF" fill-opacity="0.05"/>
<rect x="46.1133" y="-14.1504" width="14" height="51.5014" rx="7" transform="rotate(45 46.1133 -14.1504)" fill="#788CFF" fill-opacity="0.05"/>
<path d="M36.2373 11.8311C36.8387 11.8311 37.327 12.3185 37.3271 12.9199V15.1172C37.3271 15.5376 36.9859 15.8789 36.5654 15.8789C36.145 15.8789 35.8037 15.5376 35.8037 15.1172V13.8828C35.8037 13.6376 35.6056 13.4389 35.3604 13.4385L27.459 13.4316C27.2134 13.4315 27.0146 13.6303 27.0146 13.876V15.1143C27.0146 15.5323 26.6768 15.8722 26.2588 15.875C25.8368 15.8778 25.4932 15.5362 25.4932 15.1143V12.9199C25.4933 12.3187 25.9808 11.8312 26.582 11.8311L36.2373 11.8311Z" fill="#788CFF" stroke="black" stroke-width="0.337838"/>
<rect x="16.8037" y="17.5996" width="29.2094" height="16.5457" rx="5.96614" fill="white" stroke="black" stroke-width="0.337838"/>
<path d="M22.1221 15.0664L40.6953 15.0664C43.6323 15.0666 46.0127 17.4477 46.0127 20.3848C46.0126 21.457 45.1435 22.3262 44.0713 22.3262L18.7451 22.3262C17.6729 22.3261 16.8038 21.4569 16.8037 20.3848C16.8037 17.4476 19.1849 15.0664 22.1221 15.0664Z" fill="white" stroke="black" stroke-width="0.337838"/>
<line x1="17.2041" y1="18.8682" x2="45.8516" y2="18.8682" stroke="black" stroke-width="0.337838"/>
<rect x="30.5655" y="21.0655" width="4.55888" height="2.87037" rx="1.43519" fill="#C9D1FF" stroke="black" stroke-width="0.337838"/>
<path d="M25.8643 28.9043C26.9828 28.7334 28.1271 28.8785 29.168 29.3223L36.2363 32.3369C36.7021 32.5357 37.1077 32.8503 37.416 33.249L37.542 33.4248L41.2822 39.0762L32.75 56.1553L27.8555 53.7305L17.7959 48.7158C15.7567 47.6992 14.1658 45.9638 13.3281 43.8447L13.293 43.7578L13.2002 43.7412L9.99316 43.1748L12.4072 29.4873L16.8604 30.2764L16.8887 30.2812L16.916 30.2764L25.8643 28.9043Z" fill="#FCD8C0" stroke="black" stroke-width="0.337838"/>
<path d="M13.9248 27.9893L10.9941 44.5869L7.47852 43.9668L10.4102 27.3691L13.9248 27.9893Z" fill="#788CFF" stroke="black" stroke-width="0.337838"/>
<mask id="path-13-inside-2_2121_18836" fill="white">
<path d="M35.2188 53.8795L45.2781 48.8646C47.3546 47.8294 48.9752 46.0631 49.8281 43.9053L53.2 43.3131L50.7281 29.292L46.1086 30.11L38.1258 29.8271"/>
</mask>
<path d="M35.2188 53.8795L45.2781 48.8646C47.3546 47.8294 48.9752 46.0631 49.8281 43.9053L53.2 43.3131L50.7281 29.292L46.1086 30.11L38.1258 29.8271" fill="#FCCBA9"/>
<path d="M45.2781 48.8646L45.4289 49.167L45.4289 49.167L45.2781 48.8646ZM49.8281 43.9053L49.7697 43.5725L49.5835 43.6052L49.5139 43.7811L49.8281 43.9053ZM53.2 43.3131L53.2584 43.6458L53.5914 43.5874L53.5327 43.2544L53.2 43.3131ZM50.7281 29.292L51.0608 29.2333L51.0021 28.9004L50.6692 28.9593L50.7281 29.292ZM46.1086 30.11L46.0966 30.4476L46.1323 30.4489L46.1675 30.4426L46.1086 30.11ZM35.2188 53.8795L35.3695 54.1818L45.4289 49.167L45.2781 48.8646L45.1274 48.5623L35.068 53.5771L35.2188 53.8795ZM45.2781 48.8646L45.4289 49.167C47.58 48.0946 49.2587 46.2648 50.1423 44.0295L49.8281 43.9053L49.5139 43.7811C48.6916 45.8614 47.1293 47.5642 45.1274 48.5623L45.2781 48.8646ZM49.8281 43.9053L49.8866 44.238L53.2584 43.6458L53.2 43.3131L53.1416 42.9803L49.7697 43.5725L49.8281 43.9053ZM53.2 43.3131L53.5327 43.2544L51.0608 29.2333L50.7281 29.292L50.3954 29.3506L52.8673 43.3717L53.2 43.3131ZM50.7281 29.292L50.6692 28.9593L46.0497 29.7773L46.1086 30.11L46.1675 30.4426L50.787 29.6247L50.7281 29.292ZM46.1086 30.11L46.1206 29.7723L38.1377 29.4895L38.1258 29.8271L38.1138 30.1648L46.0966 30.4476L46.1086 30.11Z" fill="black" mask="url(#path-13-inside-2_2121_18836)"/>
<mask id="path-15-inside-3_2121_18836" fill="white">
<path d="M35.1102 44.6734L43.4445 50.1875C43.7012 50.3574 43.9889 50.4751 44.291 50.5339C44.5932 50.5927 44.904 50.5913 45.2057 50.5299C45.5073 50.4686 45.7939 50.3484 46.0491 50.1762C46.3043 50.004 46.5231 49.7833 46.693 49.5266C47.0351 49.0083 47.1576 48.3755 47.0335 47.767C46.9095 47.1585 46.549 46.6242 46.0312 46.2812L34.3047 38.5195M35.0594 44.6406L42.1414 49.3281C42.3981 49.498 42.6189 49.7168 42.791 49.972C42.9632 50.2272 43.0834 50.5138 43.1448 50.8154C43.2061 51.1171 43.2075 51.4279 43.1487 51.7301C43.09 52.0322 42.9723 52.3199 42.8023 52.5766C42.4592 53.0947 41.9242 53.4553 41.3152 53.5791C40.7062 53.7029 40.0729 53.5797 39.5547 53.2367L34.343 49.7875"/>
</mask>
<path d="M35.1102 44.6734L43.4445 50.1875C43.7012 50.3574 43.9889 50.4751 44.291 50.5339C44.5932 50.5927 44.904 50.5913 45.2057 50.5299C45.5073 50.4686 45.7939 50.3484 46.0491 50.1762C46.3043 50.004 46.5231 49.7833 46.693 49.5266C47.0351 49.0083 47.1576 48.3755 47.0335 47.767C46.9095 47.1585 46.549 46.6242 46.0312 46.2812L34.3047 38.5195M35.0594 44.6406L42.1414 49.3281C42.3981 49.498 42.6189 49.7168 42.791 49.972C42.9632 50.2272 43.0834 50.5138 43.1448 50.8154C43.2061 51.1171 43.2075 51.4279 43.1487 51.7301C43.09 52.0322 42.9723 52.3199 42.8023 52.5766C42.4592 53.0947 41.9242 53.4553 41.3152 53.5791C40.7062 53.7029 40.0729 53.5797 39.5547 53.2367L34.343 49.7875" fill="#FCD8C0"/>
<path d="M43.4445 50.1875L43.631 49.9058L43.6309 49.9057L43.4445 50.1875ZM46.693 49.5266L46.9747 49.713L46.9749 49.7127L46.693 49.5266ZM46.0312 46.2812L46.2178 45.9996L46.2177 45.9995L46.0312 46.2812ZM42.1414 49.3281L41.9549 49.6098L41.955 49.6099L42.1414 49.3281ZM42.8023 52.5766L43.084 52.7631L43.084 52.7631L42.8023 52.5766ZM39.5547 53.2367L39.7412 52.955L39.7411 52.955L39.5547 53.2367ZM35.1102 44.6734L34.9237 44.9552L43.2581 50.4693L43.4445 50.1875L43.6309 49.9057L35.2966 44.3917L35.1102 44.6734ZM43.4445 50.1875L43.258 50.4692C43.5517 50.6636 43.8808 50.7983 44.2266 50.8655L44.291 50.5339L44.3555 50.2023C44.0969 50.152 43.8507 50.0512 43.631 49.9058L43.4445 50.1875ZM44.291 50.5339L44.2266 50.8655C44.5723 50.9327 44.9279 50.9312 45.273 50.861L45.2057 50.5299L45.1383 50.1989C44.8801 50.2514 44.6141 50.2526 44.3555 50.2023L44.291 50.5339ZM45.2057 50.5299L45.273 50.861C45.6182 50.7908 45.9461 50.6532 46.2381 50.4563L46.0491 50.1762L45.8602 49.8961C45.6418 50.0435 45.3965 50.1463 45.1383 50.1989L45.2057 50.5299ZM46.0491 50.1762L46.2381 50.4563C46.53 50.2593 46.7804 50.0067 46.9747 49.713L46.693 49.5266L46.4112 49.3401C46.2658 49.5599 46.0786 49.7488 45.8602 49.8961L46.0491 50.1762ZM46.693 49.5266L46.9749 49.7127C47.3664 49.1198 47.5065 48.3957 47.3646 47.6995L47.0335 47.767L46.7025 47.8345C46.8087 48.3553 46.7039 48.8969 46.411 49.3404L46.693 49.5266ZM47.0335 47.767L47.3646 47.6995C47.2226 47.0033 46.8102 46.3919 46.2178 45.9996L46.0312 46.2812L45.8447 46.5629C46.2878 46.8564 46.5963 47.3137 46.7025 47.8345L47.0335 47.767ZM46.0312 46.2812L46.2177 45.9995L34.4912 38.2378L34.3047 38.5195L34.1182 38.8012L45.8448 46.563L46.0312 46.2812ZM35.0594 44.6406L34.8729 44.9223L41.9549 49.6098L42.1414 49.3281L42.3279 49.0464L35.2458 44.3589L35.0594 44.6406ZM42.1414 49.3281L41.955 49.6099C42.1747 49.7553 42.3636 49.9425 42.511 50.1609L42.791 49.972L43.0711 49.783C42.8741 49.4911 42.6216 49.2407 42.3278 49.0464L42.1414 49.3281ZM42.791 49.972L42.511 50.1609C42.6583 50.3793 42.7612 50.6246 42.8137 50.8828L43.1448 50.8154L43.4758 50.7481C43.4056 50.4029 43.2681 50.075 43.0711 49.783L42.791 49.972ZM43.1448 50.8154L42.8137 50.8828C42.8662 51.141 42.8674 51.407 42.8171 51.6656L43.1487 51.7301L43.4804 51.7945C43.5476 51.4488 43.5461 51.0932 43.4758 50.7481L43.1448 50.8154ZM43.1487 51.7301L42.8171 51.6656C42.7668 51.9242 42.6661 52.1704 42.5206 52.3901L42.8023 52.5766L43.084 52.7631C43.2785 52.4694 43.4131 52.1403 43.4804 51.7945L43.1487 51.7301ZM42.8023 52.5766L42.5207 52.39C42.227 52.8335 41.7692 53.1421 41.2479 53.248L41.3152 53.5791L41.3825 53.9102C42.0793 53.7685 42.6913 53.3559 43.084 52.7631L42.8023 52.5766ZM41.3152 53.5791L41.2479 53.248C40.7267 53.354 40.1847 53.2486 39.7412 52.955L39.5547 53.2367L39.3682 53.5184C39.9612 53.9109 40.6857 54.0518 41.3825 53.9102L41.3152 53.5791ZM39.5547 53.2367L39.7411 52.955L34.5294 49.5058L34.343 49.7875L34.1565 50.0692L39.3682 53.5184L39.5547 53.2367Z" fill="black" mask="url(#path-15-inside-3_2121_18836)"/>
<mask id="path-17-inside-4_2121_18836" fill="white">
<path d="M22.6523 53.2922L31.7734 59.3281C32.2918 59.6711 32.9251 59.7941 33.5341 59.6702C34.1432 59.5462 34.678 59.1854 35.0211 58.6672C35.3641 58.1489 35.4871 57.5155 35.3631 56.9065C35.2392 56.2975 34.8784 55.7626 34.3602 55.4195L33.0617 54.5625L35.6633 56.2812C35.92 56.4512 36.2076 56.5689 36.5098 56.6277C36.812 56.6864 37.1228 56.6851 37.4244 56.6237C37.7261 56.5623 38.0127 56.4421 38.2679 56.2699C38.5231 56.0978 38.7418 55.877 38.9117 55.6203C39.2547 55.102 39.3777 54.4687 39.2538 53.8596C39.1298 53.2506 38.769 52.7157 38.2508 52.3727L34.3445 49.7852"/>
</mask>
<path d="M22.6523 53.2922L31.7734 59.3281C32.2918 59.6711 32.9251 59.7941 33.5341 59.6702C34.1432 59.5462 34.678 59.1854 35.0211 58.6672C35.3641 58.1489 35.4871 57.5155 35.3631 56.9065C35.2392 56.2975 34.8784 55.7626 34.3602 55.4195L33.0617 54.5625L35.6633 56.2812C35.92 56.4512 36.2076 56.5689 36.5098 56.6277C36.812 56.6864 37.1228 56.6851 37.4244 56.6237C37.7261 56.5623 38.0127 56.4421 38.2679 56.2699C38.5231 56.0978 38.7418 55.877 38.9117 55.6203C39.2547 55.102 39.3777 54.4687 39.2538 53.8596C39.1298 53.2506 38.769 52.7157 38.2508 52.3727L34.3445 49.7852" fill="#FCD8C0"/>
<path d="M31.7734 59.3281L31.587 59.6099L31.587 59.6099L31.7734 59.3281ZM35.0211 58.6672L35.3028 58.8537L35.3028 58.8536L35.0211 58.6672ZM34.3602 55.4195L34.5466 55.1378L34.5463 55.1376L34.3602 55.4195ZM33.0617 54.5625L33.2478 54.2805L32.8755 54.8444L33.0617 54.5625ZM35.6633 56.2812L35.8498 55.9996L35.8495 55.9994L35.6633 56.2812ZM38.9117 55.6203L39.1935 55.8067L39.1935 55.8067L38.9117 55.6203ZM38.2508 52.3727L38.0642 52.6543L38.0643 52.6544L38.2508 52.3727ZM22.6523 53.2922L22.4659 53.5739L31.587 59.6099L31.7734 59.3281L31.9599 59.0464L22.8388 53.0105L22.6523 53.2922ZM31.7734 59.3281L31.587 59.6099C32.1801 60.0023 32.9047 60.143 33.6015 60.0012L33.5341 59.6702L33.4668 59.3391C32.9455 59.4452 32.4035 59.3399 31.9599 59.0464L31.7734 59.3281ZM33.5341 59.6702L33.6015 60.0012C34.2983 59.8594 34.9103 59.4466 35.3028 58.8537L35.0211 58.6672L34.7394 58.4807C34.4458 58.9243 33.988 59.233 33.4668 59.3391L33.5341 59.6702ZM35.0211 58.6672L35.3028 58.8536C35.6952 58.2606 35.836 57.5359 35.6942 56.8391L35.3631 56.9065L35.0321 56.9739C35.1382 57.4951 35.0329 58.0372 34.7393 58.4808L35.0211 58.6672ZM35.3631 56.9065L35.6942 56.8391C35.5524 56.1423 35.1396 55.5303 34.5466 55.1378L34.3602 55.4195L34.1737 55.7012C34.6172 55.9949 34.926 56.4526 35.0321 56.9739L35.3631 56.9065ZM34.3602 55.4195L34.5463 55.1376L33.2478 54.2805L33.0617 54.5625L32.8756 54.8445L34.1741 55.7015L34.3602 55.4195ZM33.0617 54.5625L32.8755 54.8444L35.4771 56.5631L35.6633 56.2812L35.8495 55.9994L33.2479 54.2806L33.0617 54.5625ZM35.6633 56.2812L35.4768 56.5629C35.7705 56.7574 36.0996 56.8921 36.4453 56.9593L36.5098 56.6277L36.5743 56.296C36.3156 56.2457 36.0695 56.145 35.8498 55.9996L35.6633 56.2812ZM36.5098 56.6277L36.4453 56.9593C36.791 57.0265 37.1466 57.025 37.4918 56.9547L37.4244 56.6237L37.3571 56.2926C37.0989 56.3452 36.8329 56.3463 36.5743 56.296L36.5098 56.6277ZM37.4244 56.6237L37.4918 56.9547C37.8369 56.8845 38.1648 56.747 38.4568 56.55L38.2679 56.2699L38.0789 55.9899C37.8605 56.1372 37.6152 56.2401 37.3571 56.2926L37.4244 56.6237ZM38.2679 56.2699L38.4568 56.55C38.7488 56.353 38.9991 56.1005 39.1935 55.8067L38.9117 55.6203L38.63 55.4339C38.4846 55.6536 38.2973 55.8425 38.0789 55.9899L38.2679 56.2699ZM38.9117 55.6203L39.1935 55.8067C39.5859 55.2137 39.7266 54.4891 39.5848 53.7922L39.2538 53.8596L38.9227 53.927C39.0288 54.4482 38.9235 54.9903 38.63 55.4339L38.9117 55.6203ZM39.2538 53.8596L39.5848 53.7922C39.443 53.0954 39.0302 52.4835 38.4373 52.0909L38.2508 52.3727L38.0643 52.6544C38.5079 52.948 38.8166 53.4057 38.9227 53.927L39.2538 53.8596ZM38.2508 52.3727L38.4373 52.091L34.5311 49.5035L34.3445 49.7852L34.158 50.0668L38.0642 52.6543L38.2508 52.3727Z" fill="black" mask="url(#path-17-inside-4_2121_18836)"/>
<mask id="path-19-inside-5_2121_18836" fill="white">
<path d="M50.7282 29.2917L46.1087 30.1096L37.1641 28.7378C36.0145 28.5621 34.8387 28.7106 33.7688 29.1667L26.6962 32.1815C26.1335 32.4217 25.6536 32.8215 25.3157 33.3315L22.3837 37.7612C22.2704 37.9323 22.1919 38.1241 22.1527 38.3255C22.1136 38.527 22.1145 38.7342 22.1554 38.9353C22.1963 39.1364 22.2764 39.3275 22.3912 39.4976C22.506 39.6677 22.6532 39.8136 22.8243 39.9268C23.1665 40.1534 23.5501 40.3104 23.953 40.3887C24.3559 40.467 24.7703 40.4652 25.1725 40.3834C25.5747 40.3016 25.9568 40.1413 26.2971 39.9118C26.6374 39.6822 26.9291 39.3879 27.1556 39.0456L28.6712 36.7557L32.5649 35.9635C32.6035 36.1516 32.6496 36.3359 32.7032 36.5167C33.8423 40.326 38.5063 41.7878 41.822 39.5932L43.0423 38.7854"/>
</mask>
<path d="M50.7282 29.2917L46.1087 30.1096L37.1641 28.7378C36.0145 28.5621 34.8387 28.7106 33.7688 29.1667L26.6962 32.1815C26.1335 32.4217 25.6536 32.8215 25.3157 33.3315L22.3837 37.7612C22.2704 37.9323 22.1919 38.1241 22.1527 38.3255C22.1136 38.527 22.1145 38.7342 22.1554 38.9353C22.1963 39.1364 22.2764 39.3275 22.3912 39.4976C22.506 39.6677 22.6532 39.8136 22.8243 39.9268C23.1665 40.1534 23.5501 40.3104 23.953 40.3887C24.3559 40.467 24.7703 40.4652 25.1725 40.3834C25.5747 40.3016 25.9568 40.1413 26.2971 39.9118C26.6374 39.6822 26.9291 39.3879 27.1556 39.0456L28.6712 36.7557L32.5649 35.9635C32.6035 36.1516 32.6496 36.3359 32.7032 36.5167C33.8423 40.326 38.5063 41.7878 41.822 39.5932L43.0423 38.7854" fill="#FCCBA9"/>
<path d="M46.1087 30.1096L46.0575 30.4436L46.1126 30.452L46.1676 30.4423L46.1087 30.1096ZM37.1641 28.7378L37.2154 28.4038L37.2152 28.4038L37.1641 28.7378ZM33.7688 29.1667L33.9013 29.4775L33.9013 29.4774L33.7688 29.1667ZM26.6962 32.1815L26.5637 31.8707L26.5636 31.8708L26.6962 32.1815ZM25.3157 33.3315L25.0341 33.1449L25.034 33.145L25.3157 33.3315ZM22.3837 37.7612L22.6654 37.9477L22.6654 37.9477L22.3837 37.7612ZM22.8243 39.9268L23.0108 39.6451L23.0107 39.6451L22.8243 39.9268ZM27.1556 39.0456L26.8738 38.8591L26.8738 38.8591L27.1556 39.0456ZM28.6712 36.7557L28.6038 36.4247L28.4667 36.4526L28.3895 36.5693L28.6712 36.7557ZM32.5649 35.9635L32.8959 35.8957L32.8281 35.5652L32.4976 35.6325L32.5649 35.9635ZM32.7032 36.5167L32.3793 36.6128L32.3795 36.6135L32.7032 36.5167ZM41.822 39.5932L42.0084 39.875L42.0084 39.8749L41.822 39.5932ZM50.7282 29.2917L50.6693 28.959L46.0498 29.777L46.1087 30.1096L46.1676 30.4423L50.7871 29.6243L50.7282 29.2917ZM46.1087 30.1096L46.1599 29.7757L37.2154 28.4038L37.1641 28.7378L37.1129 29.0717L46.0575 30.4436L46.1087 30.1096ZM37.1641 28.7378L37.2152 28.4038C36.0034 28.2186 34.764 28.3752 33.6363 28.8559L33.7688 29.1667L33.9013 29.4774C34.9133 29.046 36.0256 28.9055 37.1131 29.0717L37.1641 28.7378ZM33.7688 29.1667L33.6364 28.8559L26.5637 31.8707L26.6962 32.1815L26.8287 32.4923L33.9013 29.4775L33.7688 29.1667ZM26.6962 32.1815L26.5636 31.8708C25.9402 32.1369 25.4084 32.5799 25.0341 33.1449L25.3157 33.3315L25.5974 33.5181C25.8987 33.0631 26.3269 32.7065 26.8288 32.4922L26.6962 32.1815ZM25.3157 33.3315L25.034 33.145L22.102 37.5747L22.3837 37.7612L22.6654 37.9477L25.5974 33.518L25.3157 33.3315ZM22.3837 37.7612L22.102 37.5747C21.9642 37.7828 21.8688 38.016 21.8211 38.2611L22.1527 38.3255L22.4844 38.39C22.5151 38.2321 22.5766 38.0818 22.6654 37.9477L22.3837 37.7612ZM22.1527 38.3255L21.8211 38.2611C21.7735 38.5061 21.7746 38.7581 21.8243 39.0026L22.1554 38.9353L22.4864 38.8679C22.4544 38.7103 22.4537 38.5479 22.4844 38.39L22.1527 38.3255ZM22.1554 38.9353L21.8243 39.0026C21.8741 39.2472 21.9716 39.4796 22.1112 39.6865L22.3912 39.4976L22.6713 39.3087C22.5813 39.1753 22.5185 39.0256 22.4864 38.8679L22.1554 38.9353ZM22.3912 39.4976L22.1112 39.6865C22.2507 39.8934 22.4297 40.0708 22.6379 40.2086L22.8243 39.9268L23.0107 39.6451C22.8766 39.5563 22.7612 39.442 22.6713 39.3087L22.3912 39.4976ZM22.8243 39.9268L22.6378 40.2085C23.017 40.4596 23.442 40.6335 23.8885 40.7203L23.953 40.3887L24.0175 40.0571C23.6581 39.9872 23.316 39.8472 23.0108 39.6451L22.8243 39.9268ZM23.953 40.3887L23.8885 40.7203C24.335 40.8071 24.7941 40.8051 25.2398 40.7145L25.1725 40.3834L25.1051 40.0523C24.7464 40.1253 24.3768 40.1269 24.0175 40.0571L23.953 40.3887ZM25.1725 40.3834L25.2398 40.7145C25.6855 40.6238 26.109 40.4462 26.486 40.1918L26.2971 39.9118L26.1082 39.6317C25.8047 39.8364 25.4638 39.9794 25.1051 40.0523L25.1725 40.3834ZM26.2971 39.9118L26.486 40.1918C26.8631 39.9375 27.1863 39.6113 27.4373 39.232L27.1556 39.0456L26.8738 38.8591C26.6718 39.1644 26.4116 39.427 26.1082 39.6317L26.2971 39.9118ZM27.1556 39.0456L27.4373 39.232L28.9529 36.9422L28.6712 36.7557L28.3895 36.5693L26.8738 38.8591L27.1556 39.0456ZM28.6712 36.7557L28.7385 37.0868L32.6323 36.2946L32.5649 35.9635L32.4976 35.6325L28.6038 36.4247L28.6712 36.7557ZM32.5649 35.9635L32.234 36.0314C32.2744 36.2288 32.3229 36.4226 32.3793 36.6128L32.7032 36.5167L33.0271 36.4205C32.9763 36.2493 32.9325 36.0744 32.8959 35.8957L32.5649 35.9635ZM32.7032 36.5167L32.3795 36.6135C33.5899 40.6613 38.5227 42.1821 42.0084 39.875L41.822 39.5932L41.6355 39.3115C38.49 41.3935 34.0947 39.9908 33.0269 36.4199L32.7032 36.5167ZM41.822 39.5932L42.0084 39.8749L43.2288 39.0671L43.0423 38.7854L42.8558 38.5037L41.6355 39.3115L41.822 39.5932Z" fill="black" mask="url(#path-19-inside-5_2121_18836)"/>
<path d="M19.6518 43.7516C20.7149 42.8596 22.2998 42.9983 23.1918 44.0613C24.0838 45.1243 23.9451 46.7093 22.8821 47.6013L19.8897 50.1122C18.8267 51.0042 17.2418 50.8655 16.3498 49.8025C15.4578 48.7394 15.5964 47.1545 16.6595 46.2625L19.6518 43.7516Z" fill="#F9BA8F" stroke="black" stroke-width="0.337838"/>
<path d="M22.0667 47.8441C23.1298 46.9521 24.7147 47.0908 25.6067 48.1539C26.4987 49.2169 26.36 50.8018 25.297 51.6938L21.7061 54.7069C20.6431 55.5989 19.0582 55.4602 18.1662 54.3972C17.2742 53.3341 17.4128 51.7492 18.4759 50.8572L22.0667 47.8441Z" fill="#F9BA8F" stroke="black" stroke-width="0.337838"/>
<path d="M25.6793 50.9335C26.7424 50.0415 28.3273 50.1801 29.2193 51.2432C30.1113 52.3062 29.9726 53.8911 28.9096 54.7831L26.5157 56.7918C25.4527 57.6838 23.8677 57.5452 22.9757 56.4821C22.0837 55.4191 22.2224 53.8342 23.2855 52.9422L25.6793 50.9335Z" fill="#F9BA8F" stroke="black" stroke-width="0.337838"/>
<path d="M55.5439 43.9463L52.0293 44.5664L49.0977 27.9688L52.6133 27.3486L55.5439 43.9463Z" fill="#788CFF" stroke="black" stroke-width="0.337838"/>
<path d="M42.685 40.8959L43.2537 40.5193C43.4167 40.4012 43.5278 40.2248 43.5638 40.0269C43.5999 39.8289 43.5583 39.6246 43.4475 39.4566C43.3367 39.2886 43.1653 39.1699 42.9691 39.1251C42.773 39.0803 42.5671 39.1129 42.3943 39.2162L41.8256 39.5928C40.5001 40.4662 38.8897 40.7971 37.3271 40.517L39.6709 42.067C40.7469 41.8933 41.774 41.4943 42.685 40.8959Z" fill="#F9AC78"/>
<path d="M17.7645 47.5951L20.7574 45.0834C21.1283 44.7736 21.5862 44.5864 22.0679 44.5475C22.5496 44.5086 23.0315 44.6199 23.4473 44.8662C23.3579 44.6152 23.2257 44.3816 23.0567 44.1756C22.6572 43.6998 22.0851 43.402 21.4661 43.3478C20.8472 43.2936 20.232 43.4874 19.7559 43.8866L16.7629 46.3975C16.2868 46.797 15.9889 47.3693 15.9347 47.9884C15.8805 48.6076 16.0744 49.2229 16.4739 49.6991C16.647 49.9019 16.854 50.0731 17.0856 50.2053C16.915 49.7534 16.8887 49.2598 17.0103 48.7924C17.1319 48.3249 17.3954 47.9066 17.7645 47.5951ZM24.3903 54.2741L26.784 52.2655C27.1548 51.9554 27.6126 51.7681 28.0944 51.7292C28.5762 51.6903 29.0581 51.8018 29.4739 52.0483C29.3846 51.7972 29.2524 51.5635 29.0832 51.3577C28.6836 50.8817 28.1113 50.5839 27.4921 50.5299C26.873 50.4758 26.2577 50.6699 25.7817 51.0694L23.3848 53.078C22.9087 53.4775 22.6108 54.0497 22.5566 54.6689C22.5024 55.288 22.6963 55.9034 23.0957 56.3795C23.2691 56.5822 23.476 56.7534 23.7074 56.8858C23.5371 56.4333 23.5113 55.9391 23.6336 55.4713C23.7559 55.0036 24.0202 54.5853 24.3903 54.2741ZM19.5809 52.1905L23.1746 49.1764C23.5454 48.8665 24.003 48.6793 24.4846 48.6404C24.9662 48.6015 25.4481 48.7129 25.8637 48.9592C25.7744 48.7084 25.6423 48.475 25.4731 48.2694C25.0736 47.7933 24.5013 47.4954 23.8821 47.4412C23.263 47.387 22.6477 47.5809 22.1715 47.9803L18.5778 50.9936C18.1017 51.3931 17.8038 51.9654 17.7496 52.5845C17.6954 53.2037 17.8893 53.819 18.2887 54.2951C18.462 54.4978 18.669 54.669 18.9004 54.8014C18.7298 54.3493 18.7037 53.8554 18.8256 53.3878C18.9474 52.9201 19.2113 52.5018 19.5809 52.1905Z" fill="#FCCBA9"/>
<path d="M30.486 53.0214C31.549 52.1293 33.1339 52.268 34.0259 53.3311C34.918 54.3941 34.7793 55.979 33.7162 56.871L31.3224 58.8797C30.2593 59.7717 28.6744 59.6331 27.7824 58.57C26.8904 57.507 27.029 55.9221 28.0921 55.0301L30.486 53.0214Z" fill="#F9BA8F" stroke="black" stroke-width="0.337838"/>
<path d="M29.1971 56.3596L31.5916 54.3502C31.9625 54.0404 32.4203 53.8532 32.902 53.8143C33.3838 53.7754 33.8657 53.8867 34.2815 54.133C34.192 53.8823 34.0599 53.6489 33.8908 53.4432C33.4913 52.9673 32.9192 52.6696 32.3003 52.6154C31.6813 52.5612 31.0662 52.755 30.5901 53.1541L28.1955 55.1635C27.7195 55.563 27.4215 56.1353 27.3673 56.7544C27.3131 57.3736 27.5071 57.9889 27.9065 58.4651C28.0794 58.6679 28.2864 58.8389 28.5182 58.9705C28.3474 58.5186 28.321 58.0248 28.4426 57.5572C28.5642 57.0896 28.8278 56.6712 29.1971 56.3596Z" fill="#FCCBA9"/>
</g>
<path d="M0 0H63H0ZM63 62C63 69.1797 57.1797 75 50 75H13C5.8203 75 0 69.1797 0 62C0 65.866 4.47715 69 10 69H53C58.5228 69 63 65.866 63 62ZM0 72V0V72ZM63 0V72V0Z" fill="#788CFF" mask="url(#path-1-inside-1_2121_18836)"/>
<defs>
<clipPath id="clip0_2121_18836">
<path d="M0 10C0 4.47715 4.47715 0 10 0H53C58.5228 0 63 4.47715 63 10V62C63 67.5229 58.5228 72 53 72H10C4.47715 72 0 67.5229 0 62V10Z" fill="white"/>
</clipPath>
</defs>
</svg>
