<svg width="54" height="54" viewBox="0 0 54 54" fill="none" xmlns="http://www.w3.org/2000/svg">
<path d="M16.5693 21.6699C20.7887 17.4508 27.6514 17.4508 31.8701 21.6699C36.0889 25.888 36.0889 32.7519 31.8701 36.9707L22.5146 46.3271C18.2952 50.5466 11.4317 50.5467 7.21289 46.3271C2.99412 42.1091 2.99336 35.2452 7.21289 31.0264L16.5693 21.6699ZM24.2197 24.8545C23.0353 24.8545 21.899 25.3245 21.0605 26.1611L11.7051 35.5176C10.8684 36.3561 10.3984 37.4923 10.3984 38.6768C10.3985 39.8608 10.8679 40.9966 11.7041 41.835C12.5426 42.6715 13.6789 43.1416 14.8633 43.1416C16.0475 43.1416 17.1831 42.6713 18.0215 41.835L27.3789 32.4795C28.2155 31.641 28.6855 30.5048 28.6855 29.3203C28.6855 28.2097 28.2724 27.1414 27.5312 26.3213L27.3789 26.1611C26.5404 25.3246 25.4042 24.8545 24.2197 24.8545Z" fill="white" stroke="black" stroke-width="0.613636"/>
<path d="M24.2773 7.21191C28.4931 2.99611 35.3544 2.99114 39.5762 7.21289C43.7912 11.4281 43.7912 18.2949 39.5762 22.5107L34.7139 27.3721L34.3125 27.7744L34.1973 27.2168C33.7969 25.2809 32.8364 23.5052 31.4365 22.1094L31.2197 21.8926L31.4365 21.6748L35.0889 18.0234C36.8281 16.2849 36.8232 13.4464 35.083 11.7061C33.3427 9.96571 30.504 9.96082 28.7646 11.7002L19.4062 21.0586C17.6674 22.7984 17.6669 25.6421 19.4062 27.3818C21.1461 29.1217 23.9906 29.1217 25.7305 27.3818L27.6006 25.5117L27.8174 25.7295C28.7684 26.6835 29.3019 27.9761 29.3008 29.3232C29.2996 30.6702 28.764 31.9617 27.8115 32.9141L26.4385 34.2881L26.3906 34.3359L26.3281 34.3584C22.4942 35.778 17.9977 34.9469 14.9199 31.8691C13.4335 30.3871 12.4134 28.5023 11.9863 26.4473L11.9219 26.1162C11.6259 24.4592 11.721 22.7542 12.2012 21.1377C12.7134 19.4134 13.648 17.8442 14.9199 16.5723L24.2773 7.21191Z" fill="#FFBE8F" stroke="black" stroke-width="0.613636"/>
<path d="M39.2432 28.3086C44.4993 28.3086 48.7606 32.5691 48.7607 37.8252C48.7607 43.0814 44.4994 47.3428 39.2432 47.3428C33.9871 47.3426 29.7266 43.0813 29.7266 37.8252C29.7268 32.5693 33.9872 28.3088 39.2432 28.3086Z" fill="black" stroke="black" stroke-width="0.0814986"/>
<path d="M43.7827 37.1028H39.9701V33.2895C39.9701 33.0977 39.8939 32.9138 39.7583 32.7782C39.6227 32.6426 39.4388 32.5664 39.247 32.5664C39.0552 32.5664 38.8713 32.6426 38.7357 32.7782C38.6001 32.9138 38.524 33.0977 38.524 33.2895V37.1028H34.7113C34.5196 37.1028 34.3357 37.179 34.2001 37.3146C34.0645 37.4502 33.9883 37.6341 33.9883 37.8259C33.9883 38.0176 34.0645 38.2015 34.2001 38.3371C34.3357 38.4727 34.5196 38.5489 34.7113 38.5489H38.524V42.3615C38.524 42.5533 38.6001 42.7372 38.7357 42.8728C38.8713 43.0084 39.0552 43.0846 39.247 43.0846C39.4388 43.0846 39.6227 43.0084 39.7583 42.8728C39.8939 42.7372 39.9701 42.5533 39.9701 42.3615V38.5489H43.7827C43.9744 38.5489 44.1584 38.4727 44.294 38.3371C44.4296 38.2015 44.5057 38.0176 44.5057 37.8259C44.5057 37.6341 44.4296 37.4502 44.294 37.3146C44.1584 37.179 43.9744 37.1028 43.7827 37.1028Z" fill="white"/>
</svg>
