<svg width="54" height="54" viewBox="0 0 54 54" fill="none" xmlns="http://www.w3.org/2000/svg">
<path d="M31.3213 5.85938C31.8215 5.85963 32.2266 6.26535 32.2266 6.76563V8.82324C32.2264 9.18253 31.9355 9.47354 31.5762 9.47363H31.5322C31.1729 9.47357 30.882 9.18255 30.8818 8.82324V7.65039C30.8817 7.44638 30.7158 7.28142 30.5117 7.28125L23.3311 7.27441C23.1269 7.2745 22.961 7.44032 22.9609 7.64453V8.81934C22.9609 9.17714 22.6723 9.46738 22.3145 9.46973L22.2725 9.4707C21.9113 9.47307 21.6172 9.18049 21.6172 8.81934V6.76562C21.6172 6.26519 22.023 5.85938 22.5234 5.85938L31.3213 5.85938Z" fill="#788CFF" stroke="black" stroke-width="0.281054"/>
<rect x="13.787" y="11.0194" width="26.2664" height="14.8884" rx="4.96335" fill="white" stroke="black" stroke-width="0.281054"/>
<path d="M18.5762 8.74414L35.2637 8.74414C37.9087 8.74414 40.0535 10.8882 40.0537 13.5332C40.0537 14.5028 39.2674 15.289 38.2979 15.2891L15.543 15.2891C14.5733 15.2891 13.7871 14.5028 13.7871 13.5332C13.7873 10.8883 15.9313 8.74435 18.5762 8.74414Z" fill="white" stroke="black" stroke-width="0.281054"/>
<line x1="14.1562" y1="12.1817" x2="39.8953" y2="12.1817" stroke="black" stroke-width="0.281054"/>
<rect x="26.1739" y="14.1563" width="4.07355" height="2.55647" rx="1.27824" fill="#C9D1FF" stroke="black" stroke-width="0.281054"/>
<path d="M21.9365 21.1777C22.9436 21.0238 23.974 21.1542 24.9111 21.5537L31.2617 24.2627C31.742 24.4677 32.152 24.8088 32.4404 25.2441L35.8037 30.3262L28.1309 45.6875L23.7217 43.5039H23.7227L14.6846 38.999C12.85 38.0844 11.4177 36.5236 10.6641 34.6172L10.6348 34.5439L10.5576 34.5303L7.66699 34.0205L9.83887 21.6992L13.8506 22.4102L13.874 22.4141L13.8965 22.4102L21.9365 21.1777Z" fill="#FCD8C0" stroke="black" stroke-width="0.281054"/>
<path d="M11.2246 20.3574L8.58594 35.291L5.40723 34.7295L8.04395 19.7959L11.2246 20.3574Z" fill="#788CFF" stroke="black" stroke-width="0.281054"/>
<mask id="path-8-inside-1_3412_192803" fill="white">
<path d="M30.3438 43.6284L39.3818 39.1226C41.2475 38.1925 42.7035 36.6055 43.4699 34.6668L46.4994 34.1347L44.2785 21.5371L40.128 22.272L32.9556 22.0179"/>
</mask>
<path d="M30.3438 43.6284L39.3818 39.1226C41.2475 38.1925 42.7035 36.6055 43.4699 34.6668L46.4994 34.1347L44.2785 21.5371L40.128 22.272L32.9556 22.0179" fill="#FCCBA9"/>
<path d="M39.3818 39.1226L39.5072 39.3742L39.5072 39.3742L39.3818 39.1226ZM43.4699 34.6668L43.4213 34.39L43.2663 34.4172L43.2085 34.5634L43.4699 34.6668ZM46.4994 34.1347L46.5481 34.4115L46.8251 34.3629L46.7762 34.0859L46.4994 34.1347ZM44.2785 21.5371L44.5553 21.4883L44.5065 21.2113L44.2295 21.2604L44.2785 21.5371ZM40.128 22.272L40.118 22.5529L40.1477 22.554L40.177 22.5488L40.128 22.272ZM30.3438 43.6284L30.4691 43.8799L39.5072 39.3742L39.3818 39.1226L39.2564 38.8711L30.2184 43.3768L30.3438 43.6284ZM39.3818 39.1226L39.5072 39.3742C41.435 38.4131 42.9394 36.7733 43.7313 34.7701L43.4699 34.6668L43.2085 34.5634C42.4676 36.4377 41.0601 37.9719 39.2564 38.8711L39.3818 39.1226ZM43.4699 34.6668L43.5185 34.9436L46.5481 34.4115L46.4994 34.1347L46.4508 33.8579L43.4213 34.39L43.4699 34.6668ZM46.4994 34.1347L46.7762 34.0859L44.5553 21.4883L44.2785 21.5371L44.0017 21.5859L46.2227 34.1835L46.4994 34.1347ZM44.2785 21.5371L44.2295 21.2604L40.079 21.9953L40.128 22.272L40.177 22.5488L44.3275 21.8139L44.2785 21.5371ZM40.128 22.272L40.1379 21.9912L32.9656 21.7371L32.9556 22.0179L32.9457 22.2988L40.118 22.5529L40.128 22.272Z" fill="black" mask="url(#path-8-inside-1_3412_192803)"/>
<mask id="path-10-inside-2_3412_192803" fill="white">
<path d="M30.2452 35.3573L37.7334 40.3115C37.964 40.4642 38.2225 40.5699 38.494 40.6227C38.7655 40.6755 39.0447 40.6743 39.3157 40.6192C39.5868 40.564 39.8443 40.456 40.0736 40.3013C40.3028 40.1467 40.4994 39.9483 40.652 39.7177C40.9594 39.252 41.0695 38.6834 40.958 38.1367C40.8465 37.59 40.5227 37.1099 40.0575 36.8018L29.5215 29.8281M30.1996 35.3278L36.5626 39.5394C36.7932 39.692 36.9916 39.8886 37.1463 40.1179C37.3009 40.3471 37.4089 40.6046 37.4641 40.8757C37.5192 41.1467 37.5204 41.426 37.4676 41.6974C37.4149 41.9689 37.3091 42.2274 37.1564 42.458C36.8481 42.9235 36.3675 43.2475 35.8203 43.3588C35.2731 43.47 34.7041 43.3593 34.2385 43.0511L29.5559 39.9521"/>
</mask>
<path d="M30.2452 35.3573L37.7334 40.3115C37.964 40.4642 38.2225 40.5699 38.494 40.6227C38.7655 40.6755 39.0447 40.6743 39.3157 40.6192C39.5868 40.564 39.8443 40.456 40.0736 40.3013C40.3028 40.1467 40.4994 39.9483 40.652 39.7177C40.9594 39.252 41.0695 38.6834 40.958 38.1367C40.8465 37.59 40.5227 37.1099 40.0575 36.8018L29.5215 29.8281M30.1996 35.3278L36.5626 39.5394C36.7932 39.692 36.9916 39.8886 37.1463 40.1179C37.3009 40.3471 37.4089 40.6046 37.4641 40.8757C37.5192 41.1467 37.5204 41.426 37.4676 41.6974C37.4149 41.9689 37.3091 42.2274 37.1564 42.458C36.8481 42.9235 36.3675 43.2475 35.8203 43.3588C35.2731 43.47 34.7041 43.3593 34.2385 43.0511L29.5559 39.9521" fill="#FCD8C0"/>
<path d="M37.7334 40.3115L37.8886 40.0771L37.8885 40.0771L37.7334 40.3115ZM40.652 39.7177L40.8864 39.8728L40.8866 39.8725L40.652 39.7177ZM40.0575 36.8018L40.2127 36.5675L40.2126 36.5675L40.0575 36.8018ZM36.5626 39.5394L36.4074 39.7737L36.4075 39.7738L36.5626 39.5394ZM37.1564 42.458L37.3907 42.6132L37.3908 42.6132L37.1564 42.458ZM34.2385 43.0511L34.3936 42.8168L34.3936 42.8168L34.2385 43.0511ZM30.2452 35.3573L30.0901 35.5917L37.5783 40.5459L37.7334 40.3115L37.8885 40.0771L30.4003 35.1229L30.2452 35.3573ZM37.7334 40.3115L37.5782 40.5458C37.8396 40.7189 38.1326 40.8388 38.4403 40.8986L38.494 40.6227L38.5476 40.3468C38.3123 40.3011 38.0884 40.2095 37.8886 40.0771L37.7334 40.3115ZM38.494 40.6227L38.4403 40.8986C38.7481 40.9584 39.0646 40.9571 39.3718 40.8946L39.3157 40.6192L39.2597 40.3437C39.0248 40.3915 38.7829 40.3926 38.5476 40.3468L38.494 40.6227ZM39.3157 40.6192L39.3718 40.8946C39.679 40.8321 39.9708 40.7097 40.2307 40.5343L40.0736 40.3013L39.9164 40.0683C39.7177 40.2024 39.4945 40.296 39.2597 40.3437L39.3157 40.6192ZM40.0736 40.3013L40.2307 40.5343C40.4906 40.359 40.7134 40.1342 40.8864 39.8728L40.652 39.7177L40.4176 39.5626C40.2854 39.7624 40.1151 39.9343 39.9164 40.0683L40.0736 40.3013ZM40.652 39.7177L40.8866 39.8725C41.235 39.3447 41.3598 38.7003 41.2334 38.0806L40.958 38.1367L40.6826 38.1929C40.7792 38.6666 40.6839 39.1593 40.4175 39.5628L40.652 39.7177ZM40.958 38.1367L41.2334 38.0806C41.1071 37.4609 40.7399 36.9167 40.2127 36.5675L40.0575 36.8018L39.9023 37.0361C40.3054 37.3031 40.586 37.7192 40.6826 38.1929L40.958 38.1367ZM40.0575 36.8018L40.2126 36.5675L29.6766 29.5938L29.5215 29.8281L29.3664 30.0625L39.9024 37.0362L40.0575 36.8018ZM30.1996 35.3278L30.0444 35.5621L36.4074 39.7737L36.5626 39.5394L36.7177 39.305L30.3547 35.0934L30.1996 35.3278ZM36.5626 39.5394L36.4075 39.7738C36.6074 39.906 36.7792 40.0763 36.9133 40.275L37.1463 40.1179L37.3792 39.9607C37.2039 39.7008 36.9791 39.478 36.7177 39.305L36.5626 39.5394ZM37.1463 40.1179L36.9133 40.275C37.0473 40.4737 37.1409 40.6969 37.1887 40.9317L37.4641 40.8757L37.7395 40.8196C37.677 40.5124 37.5546 40.2206 37.3792 39.9607L37.1463 40.1179ZM37.4641 40.8757L37.1887 40.9317C37.2364 41.1666 37.2375 41.4085 37.1918 41.6438L37.4676 41.6974L37.7435 41.7511C37.8034 41.4434 37.802 41.1268 37.7395 40.8196L37.4641 40.8757ZM37.4676 41.6974L37.1918 41.6438C37.146 41.8791 37.0544 42.103 36.9221 42.3029L37.1564 42.458L37.3908 42.6132C37.5638 42.3518 37.6837 42.0588 37.7435 41.7511L37.4676 41.6974ZM37.1564 42.458L36.9221 42.3028C36.6549 42.7062 36.2384 42.987 35.7643 43.0834L35.8203 43.3588L35.8762 43.6342C36.4965 43.5081 37.0412 43.1409 37.3907 42.6132L37.1564 42.458ZM35.8203 43.3588L35.7643 43.0834C35.2901 43.1797 34.7971 43.0838 34.3936 42.8168L34.2385 43.0511L34.0833 43.2855C34.6111 43.6348 35.256 43.7603 35.8762 43.6342L35.8203 43.3588ZM34.2385 43.0511L34.3936 42.8168L29.711 39.7177L29.5559 39.9521L29.4008 40.1865L34.0834 43.2855L34.2385 43.0511Z" fill="black" mask="url(#path-10-inside-2_3412_192803)"/>
<mask id="path-12-inside-3_3412_192803" fill="white">
<path d="M19.0527 43.1002L27.2478 48.5233C27.7135 48.8315 28.2825 48.942 28.8297 48.8307C29.3769 48.7193 29.8575 48.3951 30.1657 47.9295C30.4739 47.4638 30.5844 46.8948 30.4731 46.3476C30.3617 45.8004 30.0375 45.3198 29.5719 45.0116L28.4053 44.2415L30.7427 45.7858C30.9733 45.9385 31.2318 46.0442 31.5033 46.097C31.7748 46.1498 32.054 46.1486 32.3251 46.0935C32.5961 46.0383 32.8536 45.9303 33.0829 45.7756C33.3122 45.621 33.5087 45.4226 33.6614 45.192C33.9695 44.7263 34.08 44.1572 33.9687 43.61C33.8573 43.0628 33.5332 42.5823 33.0675 42.274L29.5579 39.9492"/>
</mask>
<path d="M19.0527 43.1002L27.2478 48.5233C27.7135 48.8315 28.2825 48.942 28.8297 48.8307C29.3769 48.7193 29.8575 48.3951 30.1657 47.9295C30.4739 47.4638 30.5844 46.8948 30.4731 46.3476C30.3617 45.8004 30.0375 45.3198 29.5719 45.0116L28.4053 44.2415L30.7427 45.7858C30.9733 45.9385 31.2318 46.0442 31.5033 46.097C31.7748 46.1498 32.054 46.1486 32.3251 46.0935C32.5961 46.0383 32.8536 45.9303 33.0829 45.7756C33.3122 45.621 33.5087 45.4226 33.6614 45.192C33.9695 44.7263 34.08 44.1572 33.9687 43.61C33.8573 43.0628 33.5332 42.5823 33.0675 42.274L29.5579 39.9492" fill="#FCD8C0"/>
<path d="M27.2478 48.5233L27.0927 48.7577L27.0927 48.7577L27.2478 48.5233ZM30.1657 47.9295L30.4001 48.0846L30.4001 48.0846L30.1657 47.9295ZM29.5719 45.0116L29.727 44.7772L29.7267 44.777L29.5719 45.0116ZM28.4053 44.2415L28.5601 44.007L28.2504 44.476L28.4053 44.2415ZM30.7427 45.7858L30.8979 45.5514L30.8977 45.5513L30.7427 45.7858ZM33.6614 45.192L33.8958 45.347L33.8958 45.347L33.6614 45.192ZM33.0675 42.274L32.9123 42.5083L32.9124 42.5084L33.0675 42.274ZM19.0527 43.1002L18.8976 43.3346L27.0927 48.7577L27.2478 48.5233L27.4029 48.2889L19.2078 42.8658L19.0527 43.1002ZM27.2478 48.5233L27.0927 48.7577C27.6206 49.107 28.2656 49.2323 28.8858 49.1061L28.8297 48.8307L28.7737 48.5552C28.2995 48.6517 27.8064 48.556 27.4029 48.2889L27.2478 48.5233ZM28.8297 48.8307L28.8858 49.1061C29.506 48.9798 30.0507 48.6124 30.4001 48.0846L30.1657 47.9295L29.9314 47.7744C29.6643 48.1779 29.2479 48.4587 28.7737 48.5552L28.8297 48.8307ZM30.1657 47.9295L30.4001 48.0846C30.7494 47.5567 30.8747 46.9117 30.7485 46.2915L30.4731 46.3476L30.1976 46.4036C30.2941 46.8778 30.1984 47.3709 29.9313 47.7744L30.1657 47.9295ZM30.4731 46.3476L30.7485 46.2915C30.6222 45.6713 30.2548 45.1266 29.727 44.7772L29.5719 45.0116L29.4168 45.2459C29.8203 45.513 30.1012 45.9294 30.1976 46.4036L30.4731 46.3476ZM29.5719 45.0116L29.7267 44.777L28.5601 44.007L28.4053 44.2415L28.2505 44.4761L29.4171 45.2461L29.5719 45.0116ZM28.4053 44.2415L28.2504 44.476L30.5878 46.0203L30.7427 45.7858L30.8977 45.5513L28.5602 44.007L28.4053 44.2415ZM30.7427 45.7858L30.5876 46.0201C30.849 46.1932 31.1419 46.3131 31.4496 46.3729L31.5033 46.097L31.5569 45.8211C31.3217 45.7754 31.0977 45.6837 30.8979 45.5514L30.7427 45.7858ZM31.5033 46.097L31.4496 46.3729C31.7574 46.4327 32.0739 46.4314 32.3811 46.3689L32.3251 46.0935L32.269 45.818C32.0342 45.8658 31.7922 45.8669 31.5569 45.8211L31.5033 46.097ZM32.3251 46.0935L32.3811 46.3689C32.6883 46.3064 32.9802 46.184 33.2401 46.0086L33.0829 45.7756L32.9257 45.5426C32.727 45.6767 32.5039 45.7703 32.269 45.818L32.3251 46.0935ZM33.0829 45.7756L33.2401 46.0086C33.5 45.8333 33.7228 45.6085 33.8958 45.347L33.6614 45.192L33.427 45.0369C33.2947 45.2367 33.1244 45.4086 32.9257 45.5426L33.0829 45.7756ZM33.6614 45.192L33.8958 45.347C34.245 44.8192 34.3703 44.1742 34.2441 43.554L33.9687 43.61L33.6933 43.6661C33.7898 44.1402 33.694 44.6333 33.427 45.0369L33.6614 45.192ZM33.9687 43.61L34.2441 43.554C34.1179 42.9337 33.7505 42.389 33.2227 42.0397L33.0675 42.274L32.9124 42.5084C33.3159 42.7755 33.5968 43.1919 33.6933 43.6661L33.9687 43.61ZM33.0675 42.274L33.2227 42.0397L29.7131 39.7149L29.5579 39.9492L29.4027 40.1835L32.9123 42.5083L33.0675 42.274Z" fill="black" mask="url(#path-12-inside-3_3412_192803)"/>
<mask id="path-14-inside-4_3412_192803" fill="white">
<path d="M44.2783 21.5367L40.1277 22.2717L32.0913 21.0391C31.0584 20.8812 30.0019 21.0147 29.0407 21.4244L22.6861 24.1332C22.1806 24.349 21.7493 24.7082 21.4458 25.1664L18.8114 29.1464C18.7096 29.3001 18.6391 29.4724 18.6039 29.6534C18.5687 29.8344 18.5695 30.0206 18.6063 30.2013C18.6431 30.382 18.7151 30.5536 18.8182 30.7065C18.9213 30.8594 19.0535 30.9904 19.2073 31.0922C19.5148 31.2957 19.8594 31.4367 20.2214 31.5071C20.5834 31.5775 20.9557 31.5759 21.3171 31.5024C21.6785 31.4289 22.0218 31.2849 22.3275 31.0786C22.6332 30.8724 22.8953 30.6079 23.0988 30.3004L24.4606 28.243L27.959 27.5313C27.9936 27.7002 28.0351 27.8658 28.0833 28.0282C29.1067 31.4508 33.2972 32.7642 36.2762 30.7924L37.3726 30.0666"/>
</mask>
<path d="M44.2783 21.5367L40.1277 22.2717L32.0913 21.0391C31.0584 20.8812 30.0019 21.0147 29.0407 21.4244L22.6861 24.1332C22.1806 24.349 21.7493 24.7082 21.4458 25.1664L18.8114 29.1464C18.7096 29.3001 18.6391 29.4724 18.6039 29.6534C18.5687 29.8344 18.5695 30.0206 18.6063 30.2013C18.6431 30.382 18.7151 30.5536 18.8182 30.7065C18.9213 30.8594 19.0535 30.9904 19.2073 31.0922C19.5148 31.2957 19.8594 31.4367 20.2214 31.5071C20.5834 31.5775 20.9557 31.5759 21.3171 31.5024C21.6785 31.4289 22.0218 31.2849 22.3275 31.0786C22.6332 30.8724 22.8953 30.6079 23.0988 30.3004L24.4606 28.243L27.959 27.5313C27.9936 27.7002 28.0351 27.8658 28.0833 28.0282C29.1067 31.4508 33.2972 32.7642 36.2762 30.7924L37.3726 30.0666" fill="#FCCBA9"/>
<path d="M40.1277 22.2717L40.0851 22.5495L40.131 22.5565L40.1767 22.5484L40.1277 22.2717ZM32.0913 21.0391L32.1339 20.7613L32.1338 20.7612L32.0913 21.0391ZM29.0407 21.4244L29.1509 21.683L29.1509 21.683L29.0407 21.4244ZM22.6861 24.1332L22.5759 23.8747L22.5758 23.8747L22.6861 24.1332ZM21.4458 25.1664L21.2115 25.0112L21.2114 25.0113L21.4458 25.1664ZM18.8114 29.1464L19.0458 29.3016L19.0458 29.3015L18.8114 29.1464ZM19.2073 31.0922L19.3625 30.8578L19.3624 30.8578L19.2073 31.0922ZM23.0988 30.3004L22.8645 30.1453L22.8644 30.1453L23.0988 30.3004ZM24.4606 28.243L24.4045 27.9676L24.2905 27.9908L24.2262 28.0879L24.4606 28.243ZM27.959 27.5313L28.2343 27.4748L28.178 27.1999L27.903 27.2558L27.959 27.5313ZM28.0833 28.0282L27.8138 28.1082L27.814 28.1087L28.0833 28.0282ZM36.2762 30.7924L36.4313 31.0268L36.4314 31.0268L36.2762 30.7924ZM44.2783 21.5367L44.2293 21.26L40.0787 21.9949L40.1277 22.2717L40.1767 22.5484L44.3273 21.8135L44.2783 21.5367ZM40.1277 22.2717L40.1703 21.9939L32.1339 20.7613L32.0913 21.0391L32.0487 21.3169L40.0851 22.5495L40.1277 22.2717ZM32.0913 21.0391L32.1338 20.7612C31.0491 20.5955 29.9398 20.7356 28.9305 21.1659L29.0407 21.4244L29.1509 21.683C30.064 21.2937 31.0676 21.1669 32.0488 21.3169L32.0913 21.0391ZM29.0407 21.4244L28.9305 21.1659L22.5759 23.8747L22.6861 24.1332L22.7963 24.3917L29.1509 21.683L29.0407 21.4244ZM22.6861 24.1332L22.5758 23.8747C22.0197 24.1121 21.5454 24.5072 21.2115 25.0112L21.4458 25.1664L21.6801 25.3217C21.9533 24.9092 22.3414 24.5859 22.7964 24.3917L22.6861 24.1332ZM21.4458 25.1664L21.2114 25.0113L18.5771 28.9913L18.8114 29.1464L19.0458 29.3015L21.6801 25.3216L21.4458 25.1664ZM18.8114 29.1464L18.5771 28.9913C18.4549 29.1758 18.3703 29.3826 18.328 29.5998L18.6039 29.6534L18.8798 29.7071C18.908 29.5623 18.9644 29.4245 19.0458 29.3016L18.8114 29.1464ZM18.6039 29.6534L18.328 29.5998C18.2858 29.817 18.2868 30.0405 18.3309 30.2573L18.6063 30.2013L18.8817 30.1453C18.8523 30.0007 18.8517 29.8518 18.8798 29.7071L18.6039 29.6534ZM18.6063 30.2013L18.3309 30.2573C18.375 30.4742 18.4614 30.6802 18.5852 30.8637L18.8182 30.7065L19.0512 30.5493C18.9687 30.4271 18.9111 30.2898 18.8817 30.1453L18.6063 30.2013ZM18.8182 30.7065L18.5852 30.8637C18.709 31.0471 18.8677 31.2044 19.0522 31.3265L19.2073 31.0922L19.3624 30.8578C19.2394 30.7764 19.1337 30.6716 19.0512 30.5493L18.8182 30.7065ZM19.2073 31.0922L19.0522 31.3265C19.3904 31.5505 19.7695 31.7056 20.1677 31.783L20.2214 31.5071L20.275 31.2312C19.9493 31.1679 19.6392 31.041 19.3625 30.8578L19.2073 31.0922ZM20.2214 31.5071L20.1677 31.783C20.566 31.8605 20.9756 31.8587 21.3731 31.7778L21.3171 31.5024L21.261 31.227C20.9358 31.2931 20.6008 31.2946 20.275 31.2312L20.2214 31.5071ZM21.3171 31.5024L21.3731 31.7778C21.7707 31.6969 22.1484 31.5385 22.4847 31.3116L22.3275 31.0786L22.1703 30.8456C21.8952 31.0312 21.5862 31.1608 21.261 31.227L21.3171 31.5024ZM22.3275 31.0786L22.4847 31.3116C22.821 31.0847 23.1093 30.7938 23.3332 30.4555L23.0988 30.3004L22.8644 30.1453C22.6813 30.422 22.4455 30.66 22.1703 30.8456L22.3275 31.0786ZM23.0988 30.3004L23.3332 30.4555L24.6949 28.3981L24.4606 28.243L24.2262 28.0879L22.8645 30.1453L23.0988 30.3004ZM24.4606 28.243L24.5166 28.5184L28.015 27.8067L27.959 27.5313L27.903 27.2558L24.4045 27.9676L24.4606 28.243ZM27.959 27.5313L27.6837 27.5877C27.7199 27.7644 27.7633 27.9379 27.8138 28.1082L28.0833 28.0282L28.3527 27.9482C28.3068 27.7938 28.2674 27.636 28.2343 27.4748L27.959 27.5313ZM28.0833 28.0282L27.814 28.1087C28.8967 31.7297 33.3108 33.0922 36.4313 31.0268L36.2762 30.7924L36.1211 30.5581C33.2836 32.4361 29.3166 31.172 28.3525 27.9477L28.0833 28.0282ZM36.2762 30.7924L36.4314 31.0268L37.5278 30.301L37.3726 30.0666L37.2175 29.8323L36.1211 30.5581L36.2762 30.7924Z" fill="black" mask="url(#path-14-inside-4_3412_192803)"/>
<path d="M16.3635 34.5368C17.3138 33.7394 18.7304 33.8635 19.5278 34.8136C20.3253 35.764 20.202 37.1813 19.2516 37.9787L16.563 40.2348C15.6126 41.032 14.1954 40.9075 13.398 39.9572C12.6008 39.0069 12.7248 37.5902 13.6748 36.7928L16.3635 34.5368Z" fill="#F9BA8F" stroke="black" stroke-width="0.281054"/>
<path d="M18.5322 38.2144C19.4825 37.417 20.8991 37.5411 21.6966 38.4912C22.494 39.4416 22.3707 40.8589 21.4204 41.6563L18.1938 44.3637C17.2435 45.1609 15.8262 45.0364 15.0288 44.0861C14.2317 43.1358 14.3556 41.7191 15.3057 40.9217L18.5322 38.2144Z" fill="#F9BA8F" stroke="black" stroke-width="0.281054"/>
<path d="M21.7787 40.9901C22.729 40.1927 24.1463 40.3161 24.9438 41.2663C25.7413 42.2166 25.6172 43.6346 24.6669 44.432L22.5161 46.2367C21.5657 47.0339 20.1485 46.9094 19.3511 45.9591C18.554 45.0089 18.6779 43.5922 19.628 42.7948L21.7787 40.9901Z" fill="#F9BA8F" stroke="black" stroke-width="0.281054"/>
<path d="M48.6191 34.7109L45.4395 35.2734L42.8018 20.3389L45.9814 19.7783L48.6191 34.7109Z" fill="#788CFF" stroke="black" stroke-width="0.281054"/>
<path d="M37.0521 31.9622L37.5631 31.6238C37.7095 31.5177 37.8094 31.3592 37.8418 31.1814C37.8742 31.0035 37.8368 30.82 37.7372 30.669C37.6377 30.5181 37.4837 30.4114 37.3075 30.3711C37.1312 30.3309 36.9462 30.3602 36.791 30.453L36.28 30.7913C35.0891 31.5761 33.6422 31.8734 32.2383 31.6217L34.3441 33.0144C35.3108 32.8583 36.2337 32.4998 37.0521 31.9622Z" fill="#F9AC78"/>
<path d="M14.6618 37.9804L17.3509 35.7237C17.6841 35.4453 18.0955 35.2771 18.5283 35.2422C18.9611 35.2072 19.3941 35.3073 19.7677 35.5286C19.6873 35.303 19.5686 35.0931 19.4167 34.9081C19.0577 34.4805 18.5437 34.213 17.9876 34.1643C17.4315 34.1156 16.8788 34.2897 16.451 34.6483L13.7619 36.9043C13.3342 37.2633 13.0665 37.7775 13.0178 38.3338C12.9691 38.89 13.1433 39.4429 13.5022 39.8707C13.6578 40.0529 13.8437 40.2068 14.0518 40.3256C13.8986 39.9196 13.8749 39.4761 13.9842 39.0561C14.0934 38.6361 14.3301 38.2603 14.6618 37.9804ZM20.6149 43.9812L22.7656 42.1766C23.0988 41.898 23.5101 41.7297 23.943 41.6947C24.3758 41.6598 24.8088 41.7599 25.1824 41.9814C25.1022 41.7558 24.9834 41.5459 24.8314 41.3609C24.4723 40.9333 23.9581 40.6657 23.4018 40.6172C22.8456 40.5686 22.2928 40.743 21.865 41.1019L19.7115 42.9066C19.2837 43.2655 19.0161 43.7797 18.9674 44.336C18.9187 44.8923 19.0929 45.4451 19.4518 45.8729C19.6075 46.055 19.7934 46.2089 20.0014 46.3278C19.8483 45.9213 19.8251 45.4772 19.935 45.057C20.0449 44.6367 20.2824 44.2608 20.6149 43.9812ZM16.2938 42.1092L19.5227 39.4011C19.8558 39.1227 20.267 38.9545 20.6997 38.9195C21.1324 38.8846 21.5653 38.9847 21.9387 39.206C21.8585 38.9806 21.7398 38.7709 21.5878 38.5862C21.2288 38.1584 20.7146 37.8908 20.1584 37.8421C19.6021 37.7934 19.0492 37.9676 18.6214 38.3265L15.3925 41.0338C14.9648 41.3928 14.6971 41.9069 14.6484 42.4632C14.5997 43.0195 14.7739 43.5724 15.1328 44.0002C15.2885 44.1822 15.4744 44.3361 15.6824 44.455C15.5291 44.0488 15.5057 43.6051 15.6151 43.1849C15.7246 42.7648 15.9617 42.3889 16.2938 42.1092Z" fill="#FCCBA9"/>
<path d="M26.0971 42.8651C27.0474 42.0677 28.4647 42.1911 29.2622 43.1413C30.0596 44.0916 29.9356 45.5096 28.9852 46.307L26.8345 48.1117C25.8841 48.9089 24.4669 48.7844 23.6695 47.8341C22.8723 46.8839 22.9963 45.4672 23.9463 44.6698L26.0971 42.8651Z" fill="#F9BA8F" stroke="black" stroke-width="0.281054"/>
<path d="M24.9333 45.8565L27.0847 44.0511C27.4179 43.7728 27.8293 43.6045 28.2621 43.5696C28.6949 43.5346 29.1279 43.6347 29.5015 43.856C29.4211 43.6307 29.3024 43.421 29.1505 43.2362C28.7915 42.8086 28.2775 42.5411 27.7214 42.4924C27.1653 42.4437 26.6126 42.6178 26.1848 42.9765L24.0334 44.7818C23.6056 45.1408 23.338 45.655 23.2893 46.2112C23.2406 46.7675 23.4148 47.3204 23.7737 47.7482C23.9291 47.9304 24.1151 48.0841 24.3233 48.2024C24.1699 47.7963 24.1462 47.3526 24.2554 46.9325C24.3647 46.5123 24.6015 46.1364 24.9333 45.8565Z" fill="#FCCBA9"/>
</svg>
