<svg width="63" height="67" viewBox="0 0 63 67" fill="none" xmlns="http://www.w3.org/2000/svg">
<g clip-path="url(#clip0_1572_12361)">
<mask id="path-1-inside-1_1572_12361" fill="white">
<path d="M0 10C0 4.47715 4.47715 0 10 0H53C58.5228 0 63 4.47715 63 10V77C63 82.5228 58.5228 87 53 87H10C4.47715 87 0 82.5229 0 77V10Z"/>
</mask>
<path d="M0 10C0 4.47715 4.47715 0 10 0H53C58.5228 0 63 4.47715 63 10V77C63 82.5228 58.5228 87 53 87H10C4.47715 87 0 82.5229 0 77V10Z" fill="#ECF9EF"/>
<rect x="0.5" y="0.5" width="62" height="86" rx="9.5" fill="#FFFBE8" stroke="#F1C400"/>
<rect x="67.1582" y="6.35156" width="14" height="107.43" transform="rotate(45 67.1582 6.35156)" fill="#F1C400" fill-opacity="0.05"/>
<rect x="46.1133" y="-14.1504" width="14" height="51.5014" rx="7" transform="rotate(45 46.1133 -14.1504)" fill="#F1C400" fill-opacity="0.05"/>
<rect x="7.75" y="17.25" width="48.5" height="53.5" rx="5.75" fill="white"/>
<rect x="7.75" y="17.25" width="48.5" height="53.5" rx="5.75" stroke="black" stroke-width="0.5"/>
<g clip-path="url(#clip1_1572_12361)">
<rect x="22" y="20" width="20" height="20" rx="10" fill="white"/>
<g clip-path="url(#clip2_1572_12361)">
<path d="M36.3955 33.9502C36.0934 33.9634 35.7061 34.0006 35.335 34.1035C34.9885 34.1996 34.6693 34.3491 34.4424 34.5762L34.3506 34.6787C34.0004 35.1154 33.7904 35.7318 33.7344 36.3594C33.6784 36.9874 33.7786 37.6067 34.0244 38.0498C34.1674 38.3087 34.4657 39.0269 34.8145 39.8662C35.1467 40.6658 35.5298 41.5862 35.877 42.3633C36.1205 42.261 36.358 42.1453 36.5869 42.0137L36.8535 41.8516C37.3488 41.4812 37.7817 40.7636 38.042 40.0635L38.1426 39.7637L38.1748 39.6504L38.1855 39.6094C38.2759 39.0881 38.2441 38.5529 38.0928 38.0459L37.2842 35.4277C37.1258 34.9487 36.884 34.5007 36.5693 34.1064C36.5148 34.0507 36.4561 33.9992 36.3955 33.9502Z" fill="#EEDA81" stroke="black" stroke-width="0.3"/>
<path d="M30.3232 29.7959L30.3184 29.9414L30.2861 30.9023L30.125 32.1377L29.6543 32.6855L29.624 32.7217L29.6191 32.7695L29.3848 35.2158L29.3691 35.3799H35.4453L35.4424 35.2266L35.4082 33.5625L35.4072 33.4854L35.3428 33.4414L34.0947 32.5859L34.167 29.9502L34.1709 29.7959H30.3232Z" fill="white" stroke="black" stroke-width="0.3"/>
<path d="M32.9629 23.1914C32.0793 23.0588 31.0795 23.1331 30.2451 23.4736C29.3806 23.8264 28.9772 24.5283 28.8242 25.2998C28.6725 26.0652 28.7638 26.9119 28.8906 27.5928C29.0207 28.2912 29.3088 28.8862 29.6699 29.3262C30.0147 29.7462 30.4344 30.0312 30.8545 30.1201C30.9954 30.2771 31.2009 30.5029 31.4199 30.7178C31.6529 30.9463 31.9118 31.1754 32.125 31.2959L32.1338 31.3008C32.7423 31.5953 33.4039 31.7652 34.0791 31.7998H34.0869C34.3629 31.7998 34.5841 31.7689 34.751 31.7246C34.9113 31.682 35.0392 31.6219 35.1104 31.5508C35.1395 31.5216 35.1633 31.4789 35.1797 31.4473C35.1992 31.4096 35.2206 31.3626 35.2432 31.3096C35.2884 31.2031 35.3406 31.0651 35.3926 30.9131C35.4962 30.6102 35.6029 30.241 35.6514 29.9424L35.6523 29.9375C35.7358 29.2943 35.7615 28.6449 35.7295 27.9971C35.7239 27.7213 35.717 27.4532 35.7207 26.9111V26.9102C35.7244 26.131 35.8067 25.2126 35.04 24.1963C34.6393 23.6651 33.84 23.3231 32.9629 23.1914Z" fill="white" stroke="black" stroke-width="0.3"/>
<path d="M31.3984 27.0322L31.4443 26.9883C31.6385 26.8008 31.7815 26.566 31.8594 26.3076L31.9111 26.1338L32.0723 26.2188C32.3141 26.3459 32.5719 26.4384 32.8379 26.4971C32.8247 26.4699 32.8123 26.4464 32.8037 26.4287C32.7985 26.418 32.7949 26.4093 32.792 26.4033C32.7905 26.4003 32.7888 26.3981 32.7881 26.3965L32.7871 26.3945V26.3936L32.5986 26.0029L32.9883 26.1943C33.4044 26.3987 33.8456 26.5452 34.2998 26.6338C34.289 26.6109 34.279 26.5927 34.2725 26.5791C34.2684 26.5708 34.2658 26.5639 34.2637 26.5596C34.2626 26.5574 34.2613 26.5557 34.2607 26.5547V26.5537L34.0645 26.1562L34.4609 26.3525C34.6571 26.4495 34.9715 26.462 35.2617 26.4414C35.3876 26.4325 35.5024 26.4177 35.5908 26.4043L35.5117 26.2031L35.4492 26.042L35.6162 26.002C35.7523 25.9694 35.8836 25.9202 36.0078 25.8564C35.8952 25.651 35.7907 25.4593 35.7109 25.3105C35.6627 25.2206 35.6232 25.1464 35.5957 25.0947C35.582 25.069 35.5708 25.0489 35.5635 25.0352C35.56 25.0285 35.5575 25.0231 35.5557 25.0195C35.5548 25.0179 35.5532 25.0165 35.5527 25.0156V25.0137L35.4033 24.7324L35.7158 24.7969C35.7342 24.8007 35.753 24.802 35.7715 24.8047C35.5278 24.5692 35.2731 24.3452 35.0088 24.1328C34.5729 23.8068 33.6147 23.225 32.6318 23.1895L32.623 23.1885C32.137 23.1432 31.5743 23.1197 31.0654 23.2217C30.5581 23.3235 30.1212 23.5461 29.8594 23.9785L29.835 24.0195L29.791 24.0391C29.2999 24.2531 29.0576 24.6363 28.9424 25.0508C28.8261 25.4696 28.8427 25.9129 28.8701 26.2246C28.9318 26.8625 29.0374 27.4958 29.1865 28.1191C29.3012 28.5839 29.6397 29.262 29.959 29.8359C30.117 30.1201 30.2677 30.3745 30.3789 30.5576C30.384 30.5659 30.3896 30.574 30.3945 30.582L30.6299 29.8799L30.7246 28.8818L30.7383 28.7461H31.1709V27.8438L31.1963 27.8057C31.2586 27.7118 31.3265 27.6218 31.3984 27.5352V27.0322Z" fill="#111111" stroke="black" stroke-width="0.3"/>
<path d="M27.6436 34.1104H27.6426C26.9564 34.5486 26.3986 35.1598 26.0215 35.8809C26.0223 35.8868 26.0224 35.8937 26.0234 35.9014C26.0271 35.9287 26.0326 35.9661 26.0391 36.0127C26.0521 36.1059 26.0707 36.2358 26.0938 36.3965C26.1399 36.718 26.2042 37.163 26.2803 37.6855C26.43 38.7136 26.6247 40.0428 26.8135 41.3262C27.0017 41.468 27.1961 41.6015 27.3994 41.7207C29.617 43.0166 33.0012 43.2649 35.6777 42.4531C36.0277 42.3188 36.3656 42.155 36.6875 41.9629L36.6914 41.9609L36.7803 41.9062L36.8535 41.8594C37.0924 41.6742 37.2987 41.4514 37.4678 41.2012C37.2428 38.0642 36.9765 35.4286 36.8877 34.5752C36.7963 34.4227 36.6963 34.2756 36.5879 34.1348C36.4175 33.945 36.0277 33.6795 35.5459 33.4131C35.1273 33.1816 34.6538 32.9586 34.2275 32.793L34.0234 34.1309L34.0039 34.2588H33.5674L33.541 34.248L29.7441 32.7549L27.6436 34.1104Z" fill="#EEDA81" stroke="black" stroke-width="0.3"/>
<mask id="path-14-outside-2_1572_12361" maskUnits="userSpaceOnUse" x="31.7041" y="33.1084" width="5" height="11" fill="black">
<rect fill="white" x="31.7041" y="33.1084" width="5" height="11"/>
<path d="M32.7129 34.1084V34.4785L33.4541 35.1621H33.4561C33.4624 35.2844 33.6642 39.1947 33.7852 42.8154C34.4453 42.7447 35.0674 42.5895 35.7041 42.4014C34.9722 38.7735 34.1316 35.175 34.1279 35.1592H34.127L34.4033 34.3359L34.3398 34.1084H32.7129Z"/>
</mask>
<path d="M32.7129 34.1084V34.4785L33.4541 35.1621H33.4561C33.4624 35.2844 33.6642 39.1947 33.7852 42.8154C34.4453 42.7447 35.0674 42.5895 35.7041 42.4014C34.9722 38.7735 34.1316 35.175 34.1279 35.1592H34.127L34.4033 34.3359L34.3398 34.1084H32.7129Z" fill="white"/>
<path d="M32.7129 34.1084H32.4129V33.8084H32.7129V34.1084ZM32.7129 34.4785L32.5095 34.699L32.4129 34.6099V34.4785H32.7129ZM33.4541 35.1621V35.4621H33.3369L33.2507 35.3826L33.4541 35.1621ZM33.4561 35.1621V34.8621H33.7409L33.7557 35.1466L33.4561 35.1621ZM33.7852 42.8154L33.8171 43.1137L33.4961 43.1481L33.4853 42.8254L33.7852 42.8154ZM35.7041 42.4014L35.9982 42.342L36.0525 42.6113L35.7891 42.6891L35.7041 42.4014ZM34.1279 35.1592V34.8592H34.3659L34.4201 35.0909L34.1279 35.1592ZM34.127 35.1592V35.4592H33.7098L33.8426 35.0637L34.127 35.1592ZM34.4033 34.3359L34.6923 34.2553L34.717 34.3441L34.6877 34.4314L34.4033 34.3359ZM34.3398 34.1084V33.8084H34.5676L34.6288 34.0278L34.3398 34.1084ZM32.7129 34.1084H33.0129V34.4785H32.7129H32.4129V34.1084H32.7129ZM32.7129 34.4785L32.9163 34.258L33.6575 34.9416L33.4541 35.1621L33.2507 35.3826L32.5095 34.699L32.7129 34.4785ZM33.4541 35.1621V34.8621H33.4561V35.1621V35.4621H33.4541V35.1621ZM33.4561 35.1621L33.7557 35.1466C33.762 35.2692 33.964 39.1817 34.085 42.8054L33.7852 42.8154L33.4853 42.8254C33.3645 39.2076 33.1628 35.2996 33.1565 35.1777L33.4561 35.1621ZM33.7852 42.8154L33.7532 42.5171C34.3872 42.4492 34.9896 42.2997 35.6191 42.1137L35.7041 42.4014L35.7891 42.6891C35.1453 42.8793 34.5033 43.0402 33.8171 43.1137L33.7852 42.8154ZM35.7041 42.4014L35.41 42.4607C34.6791 38.8374 33.8393 35.2426 33.8358 35.2275L34.1279 35.1592L34.4201 35.0909C34.4239 35.1074 35.2653 38.7095 35.9982 42.342L35.7041 42.4014ZM34.1279 35.1592V35.4592H34.127V35.1592V34.8592H34.1279V35.1592ZM34.127 35.1592L33.8426 35.0637L34.1189 34.2405L34.4033 34.3359L34.6877 34.4314L34.4114 35.2547L34.127 35.1592ZM34.4033 34.3359L34.1144 34.4166L34.0509 34.189L34.3398 34.1084L34.6288 34.0278L34.6923 34.2553L34.4033 34.3359ZM34.3398 34.1084V34.4084H32.7129V34.1084V33.8084H34.3398V34.1084Z" fill="black" mask="url(#path-14-outside-2_1572_12361)"/>
<path d="M29.915 32.5762L32.1064 35.1777L33.3574 34.1152L30.3779 31.8672L29.915 32.5762Z" fill="#EEDA81" stroke="black" stroke-width="0.3"/>
<path d="M34.0303 34.0166L34.7832 34.5479L34.4531 32.7588L34.1045 32.4365L34.0303 34.0166Z" fill="#EEDA81" stroke="black" stroke-width="0.3"/>
<path d="M30.6761 29.2247L30.621 29.7769L30.2762 29.5322L30.1212 29.2501C30.1026 29.1416 30.0654 28.9203 30.0654 28.9029V28.5681L30.177 28.3232L30.2762 28.0381H30.5428L30.8032 28.2054L31.0064 28.7273H30.7227L30.6761 29.2247Z" fill="white"/>
<path d="M26.2822 35.4229C26.0262 35.7922 25.8469 36.2097 25.7588 36.6514C25.663 37.1387 25.5615 37.7062 25.4561 38.3154L25.4619 38.3145L25.4229 38.541C25.2326 39.648 25.8598 40.8276 27.3975 41.7217C27.6515 41.8667 27.9144 41.9952 28.1836 42.1094C28.2766 41.7802 28.3589 41.4903 28.4209 41.2725C28.457 41.1457 28.4859 41.0431 28.5059 40.9717C28.5158 40.936 28.5233 40.9085 28.5283 40.8896C28.53 40.8835 28.5322 40.8788 28.5332 40.875C28.5933 40.2751 28.4512 39.161 28.0625 38.0547C27.6897 36.994 27.1014 35.9754 26.2822 35.4229Z" fill="#EEDA81" stroke="black" stroke-width="0.3"/>
<path d="M30.7531 29.8788C30.3793 29.7008 29.7886 29.1428 30.1726 28.2494C30.297 27.96 30.7702 27.8174 31.1032 28.8323" stroke="black" stroke-width="0.175439"/>
<path d="M32.1212 28.2516C32.257 28.097 32.6346 27.8304 33.0584 28.0004" stroke="black" stroke-width="0.3" stroke-linecap="round"/>
<path d="M34.1812 28.0002C34.334 27.8624 34.7399 27.6412 35.1412 27.8592" stroke="black" stroke-width="0.3" stroke-linecap="round"/>
<circle cx="32.6469" cy="28.4858" r="0.233818" fill="#111111"/>
<circle cx="34.6996" cy="28.3158" r="0.233818" fill="#111111"/>
<path d="M33.7405 28.4834L33.9298 29.4534C33.9509 29.5618 33.8679 29.6625 33.7576 29.6625H33.5488" stroke="black" stroke-width="0.3" stroke-linecap="round"/>
<path d="M32.8916 30.2666C33.0875 30.4094 33.6626 30.6273 34.3958 30.3563" stroke="black" stroke-width="0.3" stroke-linecap="round"/>
</g>
</g>
<rect x="22.25" y="20.25" width="19.5" height="19.5" rx="9.75" stroke="black" stroke-width="0.5"/>
<path d="M14 42.9424C14.3482 42.9426 14.6235 43.2036 14.7998 43.5576L15.3877 44.7334C15.4053 44.7693 15.4473 44.8204 15.5107 44.8672C15.5741 44.9139 15.6365 44.9394 15.6777 44.9463L16.7412 45.123C17.1243 45.1869 17.4468 45.3737 17.5518 45.7002C17.6568 46.0272 17.5027 46.3663 17.2266 46.6406L17.2256 46.6396L16.4004 47.4668C16.3679 47.4993 16.3315 47.5608 16.3086 47.6406C16.2861 47.7194 16.284 47.7907 16.2939 47.8369L16.5303 48.8604L16.5605 49.0195C16.616 49.3889 16.558 49.7371 16.293 49.9307C15.9901 50.1514 15.576 50.0546 15.1992 49.832L14.2021 49.2412C14.1601 49.2164 14.0878 49.1963 14.001 49.1963C13.9144 49.1963 13.8406 49.2163 13.7959 49.2422L13.7949 49.2412L12.8008 49.832L12.7998 49.8311C12.4236 50.0542 12.0107 50.1506 11.708 49.9297C11.4053 49.7085 11.3713 49.2859 11.4697 48.8604L11.7061 47.8369C11.716 47.7907 11.7139 47.7194 11.6914 47.6406C11.6685 47.5608 11.6321 47.4993 11.5996 47.4668L10.7734 46.6396C10.4991 46.3653 10.345 46.0267 10.4492 45.7002C10.5536 45.3736 10.8755 45.1869 11.2588 45.123L12.3213 44.9463C12.3606 44.9396 12.422 44.9142 12.4854 44.8672C12.5486 44.8203 12.5907 44.7693 12.6084 44.7334L13.1963 43.5576L13.2676 43.4297C13.4446 43.1422 13.6951 42.9424 14 42.9424Z" fill="#EEDA81" stroke="black" stroke-width="0.5" stroke-linecap="round" stroke-linejoin="round"/>
<path d="M23 42.9424C23.3482 42.9426 23.6235 43.2036 23.7998 43.5576L24.3877 44.7334C24.4053 44.7693 24.4473 44.8204 24.5107 44.8672C24.5741 44.9139 24.6365 44.9394 24.6777 44.9463L25.7412 45.123C26.1243 45.1869 26.4468 45.3737 26.5518 45.7002C26.6568 46.0272 26.5027 46.3663 26.2266 46.6406L26.2256 46.6396L25.4004 47.4668C25.3679 47.4993 25.3315 47.5608 25.3086 47.6406C25.2861 47.7194 25.284 47.7907 25.2939 47.8369L25.5303 48.8604L25.5605 49.0195C25.616 49.3889 25.558 49.7371 25.293 49.9307C24.9901 50.1514 24.576 50.0546 24.1992 49.832L23.2021 49.2412C23.1601 49.2164 23.0878 49.1963 23.001 49.1963C22.9144 49.1963 22.8406 49.2163 22.7959 49.2422L22.7949 49.2412L21.8008 49.832L21.7998 49.8311C21.4236 50.0542 21.0107 50.1506 20.708 49.9297C20.4053 49.7085 20.3713 49.2859 20.4697 48.8604L20.7061 47.8369C20.716 47.7907 20.7139 47.7194 20.6914 47.6406C20.6685 47.5608 20.6321 47.4993 20.5996 47.4668L19.7734 46.6396C19.4991 46.3653 19.345 46.0267 19.4492 45.7002C19.5536 45.3736 19.8755 45.1869 20.2588 45.123L21.3213 44.9463C21.3606 44.9396 21.422 44.9142 21.4854 44.8672C21.5486 44.8203 21.5907 44.7693 21.6084 44.7334L22.1963 43.5576L22.2676 43.4297C22.4446 43.1422 22.6951 42.9424 23 42.9424Z" fill="#EEDA81" stroke="black" stroke-width="0.5" stroke-linecap="round" stroke-linejoin="round"/>
<path d="M32 42.9424C32.3482 42.9426 32.6235 43.2036 32.7998 43.5576L33.3877 44.7334C33.4053 44.7693 33.4473 44.8204 33.5107 44.8672C33.5741 44.9139 33.6365 44.9394 33.6777 44.9463L34.7412 45.123C35.1243 45.1869 35.4468 45.3737 35.5518 45.7002C35.6568 46.0272 35.5027 46.3663 35.2266 46.6406L35.2256 46.6396L34.4004 47.4668C34.3679 47.4993 34.3315 47.5608 34.3086 47.6406C34.2861 47.7194 34.284 47.7907 34.2939 47.8369L34.5303 48.8604L34.5605 49.0195C34.616 49.3889 34.558 49.7371 34.293 49.9307C33.9901 50.1514 33.576 50.0546 33.1992 49.832L32.2021 49.2412C32.1601 49.2164 32.0878 49.1963 32.001 49.1963C31.9144 49.1963 31.8406 49.2163 31.7959 49.2422L31.7949 49.2412L30.8008 49.832L30.7998 49.8311C30.4236 50.0542 30.0107 50.1506 29.708 49.9297C29.4053 49.7085 29.3713 49.2859 29.4697 48.8604L29.7061 47.8369C29.716 47.7907 29.7139 47.7194 29.6914 47.6406C29.6685 47.5608 29.6321 47.4993 29.5996 47.4668L28.7734 46.6396C28.4991 46.3653 28.345 46.0267 28.4492 45.7002C28.5536 45.3736 28.8755 45.1869 29.2588 45.123L30.3213 44.9463C30.3606 44.9396 30.422 44.9142 30.4854 44.8672C30.5486 44.8203 30.5907 44.7693 30.6084 44.7334L31.1963 43.5576L31.2676 43.4297C31.4446 43.1422 31.6951 42.9424 32 42.9424Z" fill="#EEDA81" stroke="black" stroke-width="0.5" stroke-linecap="round" stroke-linejoin="round"/>
<path d="M41 42.9424C41.3482 42.9426 41.6235 43.2036 41.7998 43.5576L42.3877 44.7334C42.4053 44.7693 42.4473 44.8204 42.5107 44.8672C42.5741 44.9139 42.6365 44.9394 42.6777 44.9463L43.7412 45.123C44.1243 45.1869 44.4468 45.3737 44.5518 45.7002C44.6568 46.0272 44.5027 46.3663 44.2266 46.6406L44.2256 46.6396L43.4004 47.4668C43.3679 47.4993 43.3315 47.5608 43.3086 47.6406C43.2861 47.7194 43.284 47.7907 43.2939 47.8369L43.5303 48.8604L43.5605 49.0195C43.616 49.3889 43.558 49.7371 43.293 49.9307C42.9901 50.1514 42.576 50.0546 42.1992 49.832L41.2021 49.2412C41.1601 49.2164 41.0878 49.1963 41.001 49.1963C40.9144 49.1963 40.8406 49.2163 40.7959 49.2422L40.7949 49.2412L39.8008 49.832L39.7998 49.8311C39.4236 50.0542 39.0107 50.1506 38.708 49.9297C38.4053 49.7085 38.3713 49.2859 38.4697 48.8604L38.7061 47.8369C38.716 47.7907 38.7139 47.7194 38.6914 47.6406C38.6685 47.5608 38.6321 47.4993 38.5996 47.4668L37.7734 46.6396C37.4991 46.3653 37.345 46.0267 37.4492 45.7002C37.5536 45.3736 37.8755 45.1869 38.2588 45.123L39.3213 44.9463C39.3606 44.9396 39.422 44.9142 39.4854 44.8672C39.5486 44.8203 39.5907 44.7693 39.6084 44.7334L40.1963 43.5576L40.2676 43.4297C40.4446 43.1422 40.6951 42.9424 41 42.9424Z" fill="#EEDA81" stroke="black" stroke-width="0.5" stroke-linecap="round" stroke-linejoin="round"/>
<path d="M50 42.9424C50.3482 42.9426 50.6235 43.2036 50.7998 43.5576L51.3877 44.7334C51.4053 44.7693 51.4473 44.8204 51.5107 44.8672C51.5741 44.9139 51.6365 44.9394 51.6777 44.9463L52.7412 45.123C53.1243 45.1869 53.4468 45.3737 53.5518 45.7002C53.6568 46.0272 53.5027 46.3663 53.2266 46.6406L53.2256 46.6396L52.4004 47.4668C52.3679 47.4993 52.3315 47.5608 52.3086 47.6406C52.2861 47.7194 52.284 47.7907 52.2939 47.8369L52.5303 48.8604L52.5605 49.0195C52.616 49.3889 52.558 49.7371 52.293 49.9307C51.9901 50.1514 51.576 50.0546 51.1992 49.832L50.2021 49.2412C50.1601 49.2164 50.0878 49.1963 50.001 49.1963C49.9144 49.1963 49.8406 49.2163 49.7959 49.2422L49.7949 49.2412L48.8008 49.832L48.7998 49.8311C48.4236 50.0542 48.0107 50.1506 47.708 49.9297C47.4053 49.7085 47.3713 49.2859 47.4697 48.8604L47.7061 47.8369C47.716 47.7907 47.7139 47.7194 47.6914 47.6406C47.6685 47.5608 47.6321 47.4993 47.5996 47.4668L46.7734 46.6396C46.4991 46.3653 46.345 46.0267 46.4492 45.7002C46.5536 45.3736 46.8755 45.1869 47.2588 45.123L48.3213 44.9463C48.3606 44.9396 48.422 44.9142 48.4854 44.8672C48.5486 44.8203 48.5907 44.7693 48.6084 44.7334L49.1963 43.5576L49.2676 43.4297C49.4446 43.1422 49.6951 42.9424 50 42.9424Z" fill="#EEDA81" stroke="black" stroke-width="0.5" stroke-linecap="round" stroke-linejoin="round"/>
<line x1="10" y1="54.3311" x2="54" y2="54.3311" stroke="black" stroke-width="0.5"/>
<line x1="10" y1="59.3311" x2="32" y2="59.3311" stroke="black" stroke-width="0.5"/>
<line x1="10" y1="64.3311" x2="42" y2="64.3311" stroke="black" stroke-width="0.5"/>
</g>
<path d="M0 0H63H0ZM63 77C63 84.1797 57.1797 90 50 90H13C5.8203 90 0 84.1797 0 77C0 80.866 4.47715 84 10 84H53C58.5228 84 63 80.866 63 77ZM0 87V0V87ZM63 0V87V0Z" fill="#F1C400" mask="url(#path-1-inside-1_1572_12361)"/>
<defs>
<clipPath id="clip0_1572_12361">
<path d="M0 10C0 4.47715 4.47715 0 10 0H53C58.5228 0 63 4.47715 63 10V77C63 82.5228 58.5228 87 53 87H10C4.47715 87 0 82.5229 0 77V10Z" fill="white"/>
</clipPath>
<clipPath id="clip1_1572_12361">
<rect x="22" y="20" width="20" height="20" rx="10" fill="white"/>
</clipPath>
<clipPath id="clip2_1572_12361">
<rect width="17.193" height="20" fill="white" transform="matrix(-1 0 0 1 40.5967 23)"/>
</clipPath>
</defs>
</svg>
