<svg width="20" height="20" viewBox="0 0 20 20" fill="none" xmlns="http://www.w3.org/2000/svg">
<g clip-path="url(#clip0_2121_18776)">
<path d="M3.53299 16.2011C2.52662 16.2013 1.67685 15.4536 1.54887 14.4554L0.632098 7.30492C0.613545 7.1592 0.631559 7.01015 0.683847 6.87675C0.736135 6.74336 0.820329 6.63166 0.925704 6.55588C1.03108 6.48011 1.15287 6.44369 1.27555 6.45127C1.39823 6.45884 1.51626 6.51007 1.6146 6.59842L5.16835 9.79642C5.26069 9.87957 5.36619 9.93923 5.4784 9.97177C5.59062 10.0043 5.70719 10.009 5.82097 9.98565C5.93476 9.96227 6.04338 9.91128 6.14018 9.8358C6.23699 9.76033 6.31994 9.66194 6.38397 9.54667L9.34272 4.21867C9.41485 4.0892 9.51247 3.98306 9.62694 3.90966C9.7414 3.83625 9.86919 3.79785 9.99897 3.79785C10.1288 3.79785 10.2565 3.83625 10.371 3.90966C10.4855 3.98306 10.5831 4.0892 10.6552 4.21867L13.614 9.54367C13.678 9.65894 13.761 9.75733 13.8578 9.83281C13.9546 9.90828 14.0632 9.95927 14.177 9.98265C14.2908 10.006 14.4073 10.0013 14.5195 9.96877C14.6318 9.93623 14.7373 9.87657 14.8296 9.79342L18.3833 6.59542C18.4817 6.50707 18.5997 6.45584 18.7224 6.44827C18.8451 6.44069 18.9669 6.47711 19.0722 6.55288C19.1776 6.62866 19.2618 6.74036 19.3141 6.87375C19.3664 7.00715 19.3844 7.1562 19.3658 7.30192L18.449 14.4531C18.321 15.451 17.4717 16.1986 16.4656 16.1987L3.53299 16.2011Z" fill="#4FB2F3"/>
</g>
<defs>
<clipPath id="clip0_2121_18776">
<rect width="20" height="20" fill="white"/>
</clipPath>
</defs>
</svg>
