<svg width="43" height="43" viewBox="0 0 43 43" fill="none" xmlns="http://www.w3.org/2000/svg">
<mask id="mask0_2121_18626" style="mask-type:alpha" maskUnits="userSpaceOnUse" x="2" y="0" width="39" height="43">
<path d="M19.5093 1.14935C20.7411 0.438132 22.2589 0.438132 23.4907 1.14935L38.1288 9.60065C39.3607 10.3119 40.1195 11.6263 40.1195 13.0487V29.9513C40.1195 31.3737 39.3607 32.6881 38.1288 33.3994L23.4907 41.8506C22.2589 42.5619 20.7411 42.5619 19.5093 41.8506L4.87119 33.3994C3.63932 32.6881 2.88045 31.3737 2.88045 29.9513V13.0487C2.88045 11.6263 3.63932 10.3119 4.87119 9.60065L19.5093 1.14935Z" fill="#4FB2F3"/>
</mask>
<g mask="url(#mask0_2121_18626)">
<path d="M19.6338 1.36621C20.7883 0.699646 22.2117 0.699646 23.3662 1.36621L38.0039 9.81738C39.1583 10.484 39.8691 11.7158 39.8691 13.0488V29.9512C39.8691 31.2842 39.1583 32.516 38.0039 33.1826L23.3662 41.6338C22.2117 42.3004 20.7883 42.3004 19.6338 41.6338L4.99609 33.1826C3.84167 32.516 3.13086 31.2842 3.13086 29.9512V13.0488C3.13086 11.7158 3.84167 10.484 4.99609 9.81738L19.6338 1.36621Z" fill="#EFF9FF" stroke="black" stroke-width="0.5"/>
<g filter="url(#filter0_i_2121_18626)">
<path d="M19.5093 3.93647C20.7412 3.22524 22.2589 3.22524 23.4908 3.93646L35.7152 10.9942C36.9471 11.7055 37.706 13.0199 37.706 14.4423V28.5578C37.706 29.9803 36.9471 31.2947 35.7152 32.0059L23.4908 39.0637C22.2589 39.7749 20.7412 39.7749 19.5093 39.0637L7.28491 32.0059C6.05304 31.2947 5.29417 29.9803 5.29417 28.5578V14.4423C5.29417 13.0199 6.05304 11.7055 7.28491 10.9942L19.5093 3.93647Z" fill="#E5F4FD"/>
</g>
<path d="M19.6094 4.10938C20.7793 3.43402 22.2207 3.43406 23.3906 4.10938L35.6152 11.167C36.7852 11.8425 37.5059 13.0914 37.5059 14.4424V28.5576C37.5059 29.9086 36.7852 31.1575 35.6152 31.833L23.3906 38.8906C22.2207 39.566 20.7793 39.566 19.6094 38.8906L7.38477 31.833C6.21477 31.1575 5.49414 29.9086 5.49414 28.5576V14.4424C5.49414 13.0914 6.21477 11.8425 7.38477 11.167L19.6094 4.10938Z" stroke="#4FB2F3" stroke-width="0.4"/>
<g filter="url(#filter1_f_2121_18626)">
<path d="M35.0732 17.2458C36.795 20.109 32.6822 25.7428 25.8869 29.8291C19.0916 33.9155 12.1871 34.907 10.4653 32.0438C8.74347 29.1805 12.8563 23.5467 19.6516 19.4604C26.4469 15.374 33.3514 14.3825 35.0732 17.2458Z" fill="white" fill-opacity="0.2"/>
</g>
<circle cx="21.5009" cy="21.4999" r="11.3778" fill="url(#paint0_linear_2121_18626)"/>
</g>
<g clip-path="url(#clip0_2121_18626)">
<path d="M18.5361 10.1523C18.5994 10.1343 18.7143 10.1355 18.9082 10.207C19.3076 10.3546 20.0613 10.8105 20.8662 11.4424C21.6684 12.0722 22.5048 12.8636 23.0762 13.6699C23.8999 14.8326 24.4589 15.9724 24.8115 16.8213C24.9878 17.2456 25.113 17.5972 25.1934 17.8418C25.2335 17.9638 25.2623 18.0593 25.2812 18.124C25.2907 18.1562 25.2982 18.1809 25.3027 18.1973C25.305 18.2054 25.3065 18.2118 25.3076 18.2158C25.3082 18.2178 25.3083 18.2198 25.3086 18.2207V18.2217L25.3848 18.5088L25.5703 18.2773H25.5713V18.2764L25.5723 18.2754C25.5735 18.2739 25.576 18.2713 25.5781 18.2686C25.5824 18.2631 25.5881 18.2551 25.5957 18.2451C25.6114 18.2247 25.6338 18.1948 25.6611 18.1572C25.7157 18.0821 25.7905 17.9751 25.8711 17.8457C26.0312 17.5885 26.2204 17.2362 26.3203 16.8701C26.3742 16.6728 26.4168 16.4686 26.4561 16.3066C26.4977 16.1345 26.5354 16.0131 26.5781 15.9424C26.5984 15.9089 26.6114 15.9003 26.6133 15.8994H26.6143C26.616 15.8994 26.6211 15.9002 26.6309 15.9033C26.6543 15.9109 26.6945 15.9319 26.7529 15.9824C26.8103 16.032 26.8795 16.1039 26.9619 16.2041C27.6056 16.9868 28.5645 18.4632 29.1025 19.8613C29.5899 21.1281 29.7655 22.3747 29.8193 23.3057C29.8462 23.7707 29.8424 24.1563 29.832 24.4248C29.8269 24.5587 29.8209 24.6634 29.8154 24.7344C29.8127 24.7699 29.8103 24.7975 29.8086 24.8154C29.8078 24.8241 29.8071 24.8307 29.8066 24.835C29.8064 24.8371 29.8058 24.8388 29.8057 24.8398V24.8408H29.8047V24.8516C29.6189 29.2867 25.9661 32.8252 21.4854 32.8252C16.8871 32.8252 13.1572 28.9706 13.1572 24.4971C13.1572 23.9012 13.1444 22.707 14.0459 20.6797C14.5904 19.4552 14.9387 18.6711 15.1357 17.9521C15.1621 17.856 15.1922 17.7548 15.2305 17.6699C15.2714 17.5791 15.3094 17.5362 15.334 17.5225C15.3416 17.5182 15.3471 17.5164 15.3555 17.5176C15.3665 17.5192 15.3904 17.5272 15.4287 17.5557C15.5081 17.6148 15.6194 17.7435 15.7637 17.9893C15.9236 18.2618 16.0101 18.6015 16.0557 18.8809C16.0782 19.0188 16.0902 19.139 16.0967 19.2246C16.0999 19.2674 16.1016 19.3022 16.1025 19.3252C16.103 19.3364 16.1034 19.345 16.1035 19.3506V19.3584L16.1084 19.6562L16.3457 19.4746L16.3467 19.4736C16.3474 19.4731 16.3485 19.4726 16.3496 19.4717C16.3524 19.4695 16.3571 19.4661 16.3623 19.4619C16.3728 19.4536 16.3879 19.4409 16.4072 19.4248C16.4459 19.3927 16.5013 19.345 16.5703 19.2822C16.7085 19.1566 16.9013 18.9702 17.1211 18.7236C17.5608 18.2304 18.111 17.4958 18.5547 16.5322C19.2065 15.1167 19.2751 13.9773 19.1318 13.042C19.0605 12.5764 18.9377 12.1644 18.8115 11.7988C18.6828 11.4259 18.5582 11.1203 18.4717 10.834C18.4436 10.7411 18.4191 10.6315 18.4092 10.5254C18.399 10.4169 18.4058 10.3246 18.4297 10.2588C18.4512 10.1997 18.4833 10.1674 18.5361 10.1523Z" fill="white" stroke="black" stroke-width="0.3"/>
<path d="M20.8926 18.8457C20.9075 18.8444 20.9335 18.8462 20.9736 18.8662C21.0596 18.9092 21.1885 19.0232 21.3643 19.2754C21.7389 19.8129 22.3266 20.7705 22.7021 21.584C23.0243 22.282 23.2252 22.9704 23.3447 23.4854C23.4044 23.7425 23.4433 23.9561 23.4678 24.1045C23.48 24.1785 23.4888 24.2363 23.4941 24.2754C23.4968 24.295 23.4988 24.3105 23.5 24.3203C23.5006 24.325 23.5007 24.3288 23.501 24.3311C23.5011 24.3321 23.5009 24.3335 23.501 24.334L23.5273 24.5635L23.7275 24.4463V24.4453C23.7281 24.445 23.7296 24.4449 23.7305 24.4443C23.7323 24.4433 23.7344 24.4413 23.7373 24.4395C23.7432 24.4358 23.7515 24.4306 23.7617 24.4238C23.7825 24.41 23.8126 24.3896 23.8486 24.3623C23.9207 24.3078 24.0199 24.2256 24.1328 24.1123C24.3593 23.8849 24.6407 23.5312 24.8691 23.0254C24.8892 22.9811 24.9115 22.9232 24.9336 22.8652C24.9566 22.805 24.9815 22.74 25.0098 22.6748C25.0678 22.5408 25.1328 22.4222 25.2061 22.3496C25.2412 22.3148 25.2736 22.2963 25.3018 22.2881C25.3277 22.2806 25.3595 22.2796 25.4023 22.2949C25.4974 22.3291 25.6431 22.4432 25.8389 22.7334C26.4173 23.5911 27.2095 25.1306 27.1982 27.1123V27.1133C27.1981 30.2683 24.6403 32.8262 21.4854 32.8262C18.3305 32.8259 15.7735 30.2682 15.7734 27.1133C15.7734 26.1591 15.9648 25.3986 16.3535 24.6807C16.7443 23.9589 17.3382 23.2728 18.1543 22.4717C19.2098 21.4355 20.2051 20.1563 20.6328 19.2734C20.6469 19.2443 20.662 19.2031 20.6748 19.1689C20.6891 19.1309 20.7046 19.0904 20.7227 19.0498C20.7611 18.9636 20.8016 18.8986 20.8438 18.8662C20.862 18.8522 20.878 18.847 20.8926 18.8457Z" fill="#4FB2F3" stroke="black" stroke-width="0.3"/>
<path d="M21.5752 26.7217C21.7257 26.7217 21.8421 26.7861 21.9551 26.9355C22.074 27.0929 22.1785 27.3312 22.2969 27.6533C22.53 28.2876 22.8005 29.2057 23.3359 30.248C23.6627 30.8842 23.5806 31.5232 23.2432 32.0059C22.9039 32.4911 22.3008 32.8252 21.5752 32.8252C20.8487 32.8251 20.3066 32.533 19.9424 32.0645C19.5747 31.5914 19.3809 30.9269 19.3809 30.1787C19.381 29.4485 19.741 28.5765 20.2139 27.8809C20.4491 27.5348 20.7081 27.2389 20.9541 27.0322C21.2055 26.8211 21.4214 26.7218 21.5752 26.7217Z" fill="#E5F4FD" stroke="black" stroke-width="0.3"/>
</g>
<defs>
<filter id="filter0_i_2121_18626" x="5.29395" y="3.20425" width="32.4121" height="36.3924" filterUnits="userSpaceOnUse" color-interpolation-filters="sRGB">
<feFlood flood-opacity="0" result="BackgroundImageFix"/>
<feBlend mode="normal" in="SourceGraphic" in2="BackgroundImageFix" result="shape"/>
<feColorMatrix in="SourceAlpha" type="matrix" values="0 0 0 0 0 0 0 0 0 0 0 0 0 0 0 0 0 0 127 0" result="hardAlpha"/>
<feOffset dy="-1.59"/>
<feGaussianBlur stdDeviation="0.099537"/>
<feComposite in2="hardAlpha" operator="arithmetic" k2="-1" k3="1"/>
<feColorMatrix type="matrix" values="0 0 0 0 0.309804 0 0 0 0 0.698039 0 0 0 0 0.952941 0 0 0 1 0"/>
<feBlend mode="normal" in2="shape" result="effect1_innerShadow_2121_18626"/>
</filter>
<filter id="filter1_f_2121_18626" x="-1.8712" y="3.66493" width="49.2805" height="41.9592" filterUnits="userSpaceOnUse" color-interpolation-filters="sRGB">
<feFlood flood-opacity="0" result="BackgroundImageFix"/>
<feBlend mode="normal" in="SourceGraphic" in2="BackgroundImageFix" result="shape"/>
<feGaussianBlur stdDeviation="5.97222" result="effect1_foregroundBlur_2121_18626"/>
</filter>
<linearGradient id="paint0_linear_2121_18626" x1="21.5009" y1="10.1221" x2="21.5009" y2="32.8777" gradientUnits="userSpaceOnUse">
<stop stop-color="white" stop-opacity="0.1"/>
<stop offset="1" stop-color="white" stop-opacity="0.05"/>
</linearGradient>
<clipPath id="clip0_2121_18626">
<rect width="23" height="23" fill="white" transform="translate(9.99902 9.99316)"/>
</clipPath>
</defs>
</svg>
