<svg width="270" height="24" viewBox="0 0 270 24" fill="none" xmlns="http://www.w3.org/2000/svg">
<rect y="3.64648" width="270" height="18" rx="9" fill="#11293A" fill-opacity="0.2"/>
<rect x="1" y="4.64648" width="234.068" height="16" rx="8" fill="#FCF7E4"/>
<rect x="1" y="4.64648" width="234.068" height="16" rx="8" fill="#EEDE81"/>
<rect x="1" y="4.64648" width="234.068" height="16" rx="8" fill="url(#paint0_linear_2121_18642)"/>
<g clip-path="url(#clip0_2121_18642)">
<path d="M225.747 23.3725C220.456 22.0361 215.82 16.1451 215.384 10.2269C215.302 9.13596 215.356 8.09959 215.575 7.1723C216.011 5.18137 217.02 3.62681 218.493 2.67226L220.511 1.33588C219.066 2.29043 218.029 3.845 217.593 5.83593C217.402 6.76321 217.32 7.77231 217.402 8.8905C217.838 14.8087 222.502 20.6724 227.766 22.0361C230.002 22.6088 231.966 22.2816 233.493 21.2997L231.475 22.6361C229.947 23.6179 227.957 23.9452 225.747 23.3725Z" fill="#4FB2F3"/>
<path d="M225.747 23.3725C220.456 22.0361 215.82 16.1451 215.384 10.2269C215.302 9.13596 215.356 8.09959 215.575 7.1723C216.011 5.18137 217.02 3.62681 218.493 2.67226L220.511 1.33588C219.066 2.29043 218.029 3.845 217.593 5.83593C217.402 6.76321 217.32 7.77231 217.402 8.8905C217.838 14.8087 222.502 20.6724 227.766 22.0361C230.002 22.6088 231.966 22.2816 233.493 21.2997L231.475 22.6361C229.947 23.6179 227.957 23.9452 225.747 23.3725Z" fill="url(#paint1_linear_2121_18642)"/>
<path d="M225.747 23.3725C220.456 22.0361 215.82 16.1451 215.384 10.2269C215.302 9.13596 215.356 8.09959 215.575 7.1723C216.011 5.18137 217.02 3.62681 218.493 2.67226L220.511 1.33588C219.066 2.29043 218.029 3.845 217.593 5.83593C217.402 6.76321 217.32 7.77231 217.402 8.8905C217.838 14.8087 222.502 20.6724 227.766 22.0361C230.002 22.6088 231.966 22.2816 233.493 21.2997L231.475 22.6361C229.947 23.6179 227.957 23.9452 225.747 23.3725Z" stroke="#111111" stroke-width="0.454545" stroke-miterlimit="10" stroke-linecap="round" stroke-linejoin="round"/>
<path d="M217.592 5.86375L215.574 7.17285" stroke="#111111" stroke-width="0.454545" stroke-miterlimit="10" stroke-linecap="round" stroke-linejoin="round"/>
<path d="M220.184 16.4184L218.166 17.7275" stroke="#111111" stroke-width="0.454545" stroke-miterlimit="10" stroke-linecap="round" stroke-linejoin="round"/>
<path d="M217.866 11.4818L215.82 12.7363" stroke="#111111" stroke-width="0.454545" stroke-miterlimit="10" stroke-linecap="round" stroke-linejoin="round"/>
<path d="M224.247 20.673L222.338 21.8457" stroke="#111111" stroke-width="0.454545" stroke-miterlimit="10" stroke-linecap="round" stroke-linejoin="round"/>
<path d="M228.365 22.1733L226.211 23.4824" stroke="#111111" stroke-width="0.454545" stroke-miterlimit="10" stroke-linecap="round" stroke-linejoin="round"/>
<path d="M227.766 22.0637C222.503 20.7001 217.839 14.8364 217.403 8.91815C217.321 7.82723 217.403 6.79085 217.594 5.86357C218.466 1.77262 221.875 -0.463766 226.185 0.627153C231.503 1.9908 236.139 7.8545 236.575 13.8C236.657 14.8909 236.575 15.9 236.385 16.8273C235.539 20.891 232.103 23.1547 227.766 22.0637Z" fill="white"/>
<path d="M227.766 22.0637C222.503 20.7001 217.839 14.8364 217.403 8.91815C217.321 7.82723 217.403 6.79085 217.594 5.86357C218.466 1.77262 221.875 -0.463767 226.185 0.627154C231.503 1.9908 236.139 7.8545 236.575 13.8C236.657 14.8909 236.575 15.9 236.385 16.8273C235.539 20.891 232.103 23.1547 227.766 22.0637Z" stroke="#111111" stroke-width="0.454545" stroke-miterlimit="10" stroke-linecap="round" stroke-linejoin="round"/>
<path d="M234.883 15.9272C235.047 15.1636 235.102 14.2909 235.047 13.3908C234.692 8.42716 230.792 3.49074 226.347 2.37255C222.72 1.44526 219.883 3.35438 219.147 6.7635C218.983 7.52715 218.929 8.39988 218.983 9.29989C219.365 14.2363 223.238 19.1727 227.656 20.3182C231.283 21.2455 234.147 19.3364 234.883 15.9272Z" stroke="#111111" stroke-width="0.454545" stroke-miterlimit="10" stroke-linecap="round" stroke-linejoin="round"/>
<path d="M230.547 12.9001C230.547 12.9273 230.465 13.0092 230.384 13.091C230.274 13.2001 230.138 13.3092 229.974 13.4182C229.811 13.5273 229.62 13.6637 229.402 13.7728C229.184 13.8819 228.938 13.991 228.693 14.0728L227.956 12.3546L228.365 12.191C228.774 12.0001 229.156 11.8091 229.484 11.591C229.811 11.4 230.056 11.1546 230.22 10.9091C230.384 10.6637 230.493 10.3637 230.52 10.0637C230.547 9.73639 230.465 9.38184 230.274 8.97275C230.056 8.48183 229.811 8.10001 229.484 7.8C229.156 7.5 228.802 7.25455 228.393 7.09091C227.984 6.92727 227.574 6.81818 227.111 6.7909C226.674 6.73636 226.211 6.76363 225.747 6.81818L225.093 5.34543L224.138 5.50907L224.765 6.98181C224.138 7.14545 223.565 7.36364 223.02 7.63637C222.474 7.93637 222.011 8.26365 221.656 8.64547L223.429 10.2819C223.456 10.2273 223.511 10.1455 223.647 10.0364C223.756 9.90003 223.92 9.79094 224.138 9.6273C224.356 9.49093 224.574 9.32729 224.847 9.19093C225.12 9.05456 225.42 8.9182 225.72 8.83638L226.429 10.5L225.829 10.7728C225.42 10.9637 225.093 11.1819 224.82 11.3728C224.547 11.5637 224.356 11.7819 224.22 12.0273C224.084 12.2455 224.029 12.5182 224.029 12.7637C224.029 13.0364 224.111 13.3364 224.247 13.6637C224.438 14.1001 224.684 14.4819 224.984 14.7819C225.284 15.0819 225.638 15.3546 226.02 15.5455C226.402 15.7365 226.811 15.8728 227.274 15.9546C227.711 16.0365 228.174 16.0637 228.638 16.0092L229.184 17.291L230.138 17.1274L229.593 15.8455C230.165 15.7092 230.684 15.491 231.12 15.191C231.556 14.9183 231.938 14.6455 232.238 14.3728L230.547 12.9001ZM226.756 13.6364C226.674 13.4182 226.674 13.2546 226.784 13.091C226.893 12.9546 227.084 12.791 227.384 12.6546L228.038 14.2092C227.384 14.2637 226.947 14.0728 226.756 13.6364ZM227.738 9.19093C227.82 9.40911 227.82 9.60003 227.656 9.73639C227.52 9.90003 227.302 10.0364 227.029 10.2L226.374 8.70002C227.111 8.59092 227.547 8.75456 227.738 9.19093Z" fill="white"/>
<g clip-path="url(#clip1_2121_18642)">
<path d="M231.407 9.76461C231.532 9.9612 231.472 10.2232 231.273 10.3493C231.075 10.4755 230.812 10.4184 230.687 10.2218L229.967 9.08879L229.457 9.41309L230.177 10.5461C230.48 11.0219 231.115 11.1609 231.596 10.8549C232.077 10.5495 232.222 9.91585 231.919 9.4391L231.198 8.3061L230.688 8.63039L231.408 9.76339L231.407 9.76461Z" fill="black"/>
<path d="M229.595 8.90168C229.779 8.78525 229.835 8.54295 229.719 8.36061C229.603 8.17921 229.361 8.12554 229.176 8.24258C228.993 8.35901 228.937 8.60131 229.053 8.78365C229.169 8.96599 229.411 9.01871 229.595 8.90168Z" fill="url(#paint2_linear_2121_18642)"/>
<path d="M230.675 8.21811C230.858 8.10168 230.914 7.85938 230.798 7.67704C230.682 7.49625 230.44 7.44353 230.257 7.55996C230.073 7.67639 230.017 7.91869 230.133 8.10103C230.249 8.28243 230.491 8.33515 230.675 8.21811Z" fill="url(#paint3_linear_2121_18642)"/>
<path d="M224.285 11.3555C224.102 11.4719 224.047 11.7136 224.163 11.896C224.278 12.0773 224.521 12.131 224.705 12.014C224.888 11.8976 224.944 11.6553 224.828 11.4729C224.711 11.2912 224.469 11.2385 224.285 11.3555Z" fill="url(#paint4_linear_2121_18642)"/>
<path d="M228.666 11.3395C228.682 11.3448 228.698 11.3498 228.713 11.3532L228.049 10.3085L227.539 10.6328L227.854 11.1276C228.203 11.2003 228.469 11.2804 228.666 11.3395Z" fill="black"/>
<path d="M229.489 10.9834C229.575 11.1192 229.574 11.2857 229.499 11.4184C229.466 11.4783 229.418 11.53 229.357 11.569C229.069 11.7519 228.811 11.5558 228.005 11.3666C227.923 11.347 227.834 11.3276 227.738 11.3084C227.508 11.2215 227.304 11.1819 227.125 11.1726C226.888 11.1447 226.642 11.1877 226.419 11.3059C226.399 11.3156 226.383 11.3244 226.369 11.332C226.352 11.3414 226.34 11.3493 226.33 11.3554C226.273 11.392 226.218 11.4333 226.17 11.4776C226.059 11.5771 225.97 11.6926 225.905 11.8192L225.817 11.6806L225.307 12.0049L225.952 13.0192L226.395 13.7172L226.596 14.0335L227.105 13.7098L227.019 13.573L226.904 13.3935L226.461 12.6955C226.32 12.4742 226.344 12.1947 226.499 11.9977C226.541 11.9445 226.59 11.8981 226.65 11.8603C226.666 11.85 226.682 11.8412 226.699 11.8333C226.706 11.83 226.714 11.8261 226.722 11.8227C226.73 11.8188 226.737 11.8155 226.745 11.8116C226.756 11.8074 226.768 11.8026 226.779 11.7993C226.781 11.7981 226.783 11.7984 226.785 11.7972C226.803 11.7913 226.821 11.7863 226.839 11.7828C226.903 11.7689 226.962 11.7646 227.01 11.7676C227.028 11.7682 227.046 11.7698 227.065 11.7723C227.08 11.7738 227.095 11.7763 227.109 11.7793C227.109 11.7793 227.109 11.7793 227.11 11.7797C227.123 11.7824 227.131 11.7841 227.131 11.7841C227.131 11.7841 227.669 11.9152 228.142 12.0361C228.346 12.0879 228.537 12.1384 228.668 12.1751C229.084 12.2919 229.402 12.2508 229.678 12.0752C229.737 12.038 229.79 11.9964 229.837 11.9502C230.186 11.6178 230.265 11.0779 230 10.66L229.279 9.52607L228.769 9.85036L229.489 10.9834Z" fill="url(#paint5_linear_2121_18642)"/>
<path d="M223.591 13.1418C223.463 13.2234 223.359 13.3294 223.281 13.4482L222.863 12.7901C222.799 12.6894 222.665 12.6611 222.564 12.7251L222.236 12.9336L223.269 14.5576L223.428 14.8074L223.989 15.6906L224.499 15.3663L223.938 14.4831L223.778 14.2323C223.653 14.0358 223.714 13.7732 223.911 13.6476C224.11 13.5214 224.372 13.5786 224.497 13.7752L225.218 14.9091L225.728 14.5848L225.007 13.4509C224.706 12.9745 224.071 12.8364 223.591 13.1418Z" fill="url(#paint6_linear_2121_18642)"/>
<path d="M225.127 12.1191L224.617 12.4434L225.907 14.4719L226.417 14.1476L225.127 12.1191Z" fill="url(#paint7_linear_2121_18642)"/>
</g>
</g>
<defs>
<linearGradient id="paint0_linear_2121_18642" x1="1" y1="12.6465" x2="235.068" y2="12.6465" gradientUnits="userSpaceOnUse">
<stop offset="0.117737" stop-color="white" stop-opacity="0"/>
<stop offset="0.215" stop-color="white" stop-opacity="0.4"/>
<stop offset="0.316392" stop-color="white" stop-opacity="0.02"/>
<stop offset="0.468527" stop-color="white" stop-opacity="0"/>
<stop offset="0.528878" stop-color="white" stop-opacity="0.4"/>
<stop offset="0.593001" stop-color="white" stop-opacity="0"/>
<stop offset="0.718732" stop-color="white" stop-opacity="0.04"/>
<stop offset="0.805" stop-color="white" stop-opacity="0.4"/>
<stop offset="0.893498" stop-color="white" stop-opacity="0"/>
</linearGradient>
<linearGradient id="paint1_linear_2121_18642" x1="217.207" y1="25.4542" x2="231.986" y2="22.8459" gradientUnits="userSpaceOnUse">
<stop stop-color="#FFE9D0"/>
<stop offset="1" stop-color="#FFC27C"/>
</linearGradient>
<linearGradient id="paint2_linear_2121_18642" x1="231.427" y1="11.7833" x2="228.944" y2="7.87802" gradientUnits="userSpaceOnUse">
<stop stop-color="#E74C69"/>
<stop offset="1" stop-color="#F8846F"/>
</linearGradient>
<linearGradient id="paint3_linear_2121_18642" x1="232.507" y1="11.0998" x2="230.024" y2="7.19446" gradientUnits="userSpaceOnUse">
<stop stop-color="#E74C69"/>
<stop offset="1" stop-color="#F8846F"/>
</linearGradient>
<linearGradient id="paint4_linear_2121_18642" x1="226.555" y1="14.9245" x2="224.11" y2="11.0795" gradientUnits="userSpaceOnUse">
<stop stop-color="#E74C69"/>
<stop offset="1" stop-color="#F8846F"/>
</linearGradient>
<linearGradient id="paint5_linear_2121_18642" x1="228.963" y1="13.3935" x2="226.518" y2="9.54858" gradientUnits="userSpaceOnUse">
<stop stop-color="#E74C69"/>
<stop offset="1" stop-color="#F8846F"/>
</linearGradient>
<linearGradient id="paint6_linear_2121_18642" x1="225.251" y1="15.7529" x2="222.806" y2="11.908" gradientUnits="userSpaceOnUse">
<stop stop-color="#E74C69"/>
<stop offset="1" stop-color="#F8846F"/>
</linearGradient>
<linearGradient id="paint7_linear_2121_18642" x1="226.554" y1="14.9252" x2="224.109" y2="11.0802" gradientUnits="userSpaceOnUse">
<stop stop-color="#E74C69"/>
<stop offset="1" stop-color="#F8846F"/>
</linearGradient>
<clipPath id="clip0_2121_18642">
<rect width="21.9545" height="24" fill="white" transform="matrix(1 0 0 -1 215 24)"/>
</clipPath>
<clipPath id="clip1_2121_18642">
<rect width="10.0435" height="3.5" fill="white" transform="translate(222.111 12.7363) rotate(-32.4478)"/>
</clipPath>
</defs>
</svg>
