<svg width="63" height="87" viewBox="0 0 63 87" fill="none" xmlns="http://www.w3.org/2000/svg">
<g clip-path="url(#clip0_1572_11923)">
<mask id="path-1-inside-1_1572_11923" fill="white">
<path d="M0 10C0 4.47715 4.47715 0 10 0H53C58.5228 0 63 4.47715 63 10V77C63 82.5228 58.5228 87 53 87H10C4.47715 87 0 82.5229 0 77V10Z"/>
</mask>
<path d="M0 10C0 4.47715 4.47715 0 10 0H53C58.5228 0 63 4.47715 63 10V77C63 82.5228 58.5228 87 53 87H10C4.47715 87 0 82.5229 0 77V10Z" fill="#FFF4ED"/>
<rect x="0.5" y="0.5" width="62" height="86" rx="9.5" fill="#FFF4ED" stroke="#F3934F"/>
<rect x="67.1582" y="6.35156" width="14" height="107.43" transform="rotate(45 67.1582 6.35156)" fill="#F3934F" fill-opacity="0.05"/>
<rect x="46.1133" y="-14.1504" width="14" height="51.5014" rx="7" transform="rotate(45 46.1133 -14.1504)" fill="#F3934F" fill-opacity="0.05"/>
<path d="M21.375 24.7656H41.624C44.5375 24.7656 46.9547 25.7437 48.6426 27.4316C50.3303 29.1195 51.3085 31.536 51.3086 34.4492V53.2656C51.3086 56.1791 50.3305 58.5963 48.6426 60.2842C46.9547 61.972 44.5375 62.9502 41.624 62.9502H21.375C18.4618 62.9501 16.0453 61.9719 14.3574 60.2842C12.6695 58.5963 11.6914 56.1791 11.6914 53.2656V34.4492L11.7031 33.9092C11.8167 31.2369 12.775 29.0141 14.3574 27.4316C16.0453 25.7438 18.4617 24.7657 21.375 24.7656Z" fill="white" stroke="black" stroke-width="0.5"/>
<path d="M21.375 24.7656H41.624C44.5375 24.7656 46.9547 25.7437 48.6426 27.4316C50.3004 29.0896 51.2716 31.4506 51.3057 34.2949H11.6943C11.7284 31.4506 12.6995 29.0896 14.3574 27.4316C16.0453 25.7438 18.4617 24.7657 21.375 24.7656Z" fill="#FFBE8F" stroke="black" stroke-width="0.5"/>
<path d="M28.8728 56.4434C28.9273 55.1775 29.0906 53.9798 29.3628 52.85C29.6487 51.7203 29.9957 50.6791 30.4041 49.7263C30.826 48.7599 31.2684 47.8888 31.7312 47.113C32.1939 46.3371 32.6295 45.6702 33.0378 45.1121C33.4598 44.5405 33.8137 44.0913 34.0995 43.7646H26.4024V41.3351H37.1824V43.3359C37.1824 43.3359 37.0531 43.4788 36.7945 43.7646C36.5495 44.0369 36.2228 44.4452 35.8145 44.9896C35.4198 45.5205 34.991 46.1738 34.5282 46.9496C34.0655 47.7118 33.6231 48.583 33.2012 49.563C32.7928 50.5293 32.4389 51.591 32.1395 52.7479C31.8537 53.9049 31.6903 55.1367 31.6495 56.4434H28.8728Z" fill="#111111"/>
<path d="M20.7546 31.679C21.9415 31.679 22.9036 30.7169 22.9036 29.5299C22.9036 28.343 21.9415 27.3809 20.7546 27.3809C19.5676 27.3809 18.6055 28.343 18.6055 29.5299C18.6055 30.7169 19.5676 31.679 20.7546 31.679Z" fill="#F3934F"/>
<path d="M42.2458 31.679C43.4327 31.679 44.3949 30.7169 44.3949 29.5299C44.3949 28.343 43.4327 27.3809 42.2458 27.3809C41.0589 27.3809 40.0967 28.343 40.0967 29.5299C40.0967 30.7169 41.0589 31.679 42.2458 31.679Z" fill="#F3934F"/>
<path d="M20.7549 22.833C21.2882 22.8333 21.7207 23.2665 21.7207 23.7998V29.5303C21.7208 30.0637 21.2881 30.4968 20.7549 30.4971C20.2214 30.4971 19.7881 30.0638 19.7881 29.5303V23.7998C19.7881 23.2663 20.2214 22.833 20.7549 22.833Z" fill="white" stroke="black" stroke-width="0.5"/>
<path d="M42.2461 22.833C42.7794 22.8333 43.2119 23.2665 43.2119 23.7998V29.5303C43.2119 30.0636 42.7794 30.4968 42.2461 30.4971C41.7126 30.4971 41.2793 30.0638 41.2793 29.5303V23.7998C41.2793 23.2663 41.7126 22.833 42.2461 22.833Z" fill="white" stroke="black" stroke-width="0.5"/>
</g>
<path d="M0 0H63H0ZM63 77C63 84.1797 57.1797 90 50 90H13C5.8203 90 0 84.1797 0 77C0 80.866 4.47715 84 10 84H53C58.5228 84 63 80.866 63 77ZM0 87V0V87ZM63 0V87V0Z" fill="#F3934F" mask="url(#path-1-inside-1_1572_11923)"/>
<defs>
<clipPath id="clip0_1572_11923">
<path d="M0 10C0 4.47715 4.47715 0 10 0H53C58.5228 0 63 4.47715 63 10V77C63 82.5228 58.5228 87 53 87H10C4.47715 87 0 82.5229 0 77V10Z" fill="white"/>
</clipPath>
</defs>
</svg>
