<svg width="353" height="213" viewBox="0 0 353 213" fill="none" xmlns="http://www.w3.org/2000/svg">
<mask id="path-1-inside-1_2121_18911" fill="white">
<path d="M343 0C348.523 0 353 4.47715 353 10V35.2002C348.436 36.1267 345 40.1621 345 45C345 49.8378 348.436 53.8722 353 54.7988V76.2002C348.436 77.1267 345 81.1621 345 86C345 90.8378 348.436 94.8722 353 95.7988V117.2C348.436 118.127 345 122.162 345 127C345 131.838 348.436 135.872 353 136.799V158.2C348.436 159.127 345 163.162 345 168C345 172.838 348.436 176.872 353 177.799V203C353 208.523 348.523 213 343 213H10C4.47723 213 0 208.523 0 203V177.541C4.05693 176.267 7 172.478 7 168C7 163.522 4.05708 159.732 0 158.458V136.541C4.05693 135.267 7 131.478 7 127C7 122.522 4.05708 118.732 0 117.458V95.541C4.05693 94.2666 7 90.4775 7 86C7 81.5224 4.05708 77.7323 0 76.458V54.541C4.05693 53.2666 7 49.4775 7 45C7 40.5224 4.05708 36.7323 0 35.458V10C1.93384e-06 4.47721 4.47723 9.31019e-05 10 0H343Z"/>
</mask>
<path d="M343 0C348.523 0 353 4.47715 353 10V35.2002C348.436 36.1267 345 40.1621 345 45C345 49.8378 348.436 53.8722 353 54.7988V76.2002C348.436 77.1267 345 81.1621 345 86C345 90.8378 348.436 94.8722 353 95.7988V117.2C348.436 118.127 345 122.162 345 127C345 131.838 348.436 135.872 353 136.799V158.2C348.436 159.127 345 163.162 345 168C345 172.838 348.436 176.872 353 177.799V203C353 208.523 348.523 213 343 213H10C4.47723 213 0 208.523 0 203V177.541C4.05693 176.267 7 172.478 7 168C7 163.522 4.05708 159.732 0 158.458V136.541C4.05693 135.267 7 131.478 7 127C7 122.522 4.05708 118.732 0 117.458V95.541C4.05693 94.2666 7 90.4775 7 86C7 81.5224 4.05708 77.7323 0 76.458V54.541C4.05693 53.2666 7 49.4775 7 45C7 40.5224 4.05708 36.7323 0 35.458V10C1.93384e-06 4.47721 4.47723 9.31019e-05 10 0H343Z" fill="#E5F4FD"/>
<path d="M353 10H354H353ZM353 35.2002L353.199 36.1802L354 36.0176V35.2002H353ZM353 54.7988H354V53.9814L353.199 53.8188L353 54.7988ZM353 76.2002L353.199 77.1802L354 77.0176V76.2002H353ZM353 95.7988H354V94.9814L353.199 94.8188L353 95.7988ZM353 117.2L353.199 118.18L354 118.018V117.2H353ZM353 136.799H354V135.981L353.199 135.819L353 136.799ZM353 158.2L353.199 159.18L354 159.018V158.2H353ZM353 177.799H354V176.981L353.199 176.819L353 177.799ZM353 203H354H353ZM10 213L9.99998 214H10V213ZM0 177.541L-0.299684 176.587L-1 176.807V177.541H0ZM0 158.458H-1V159.192L-0.299655 159.412L0 158.458ZM0 136.541L-0.299684 135.587L-1 135.807V136.541H0ZM0 117.458H-1V118.192L-0.299655 118.412L0 117.458ZM0 95.541L-0.299684 94.587L-1 94.807V95.541H0ZM0 76.458H-1V77.1921L-0.299655 77.4121L0 76.458ZM0 54.541L-0.299684 53.587L-1 53.807V54.541H0ZM0 35.458H-1V36.1921L-0.299655 36.4121L0 35.458ZM0 10H-1H0ZM10 0V-1H9.99998L10 0ZM343 0V1C347.971 1 352 5.02944 352 10H353H354C354 3.92487 349.075 -1 343 -1V0ZM353 10H352V35.2002H353H354V10H353ZM353 35.2002L352.801 34.2202C347.78 35.2395 344 39.6771 344 45H345H346C346 40.6471 349.091 37.014 353.199 36.1802L353 35.2002ZM345 45H344C344 50.3229 347.78 54.7595 352.801 55.7788L353 54.7988L353.199 53.8188C349.091 52.9849 346 49.3527 346 45H345ZM353 54.7988H352V76.2002H353H354V54.7988H353ZM353 76.2002L352.801 75.2202C347.78 76.2395 344 80.6771 344 86H345H346C346 81.6471 349.091 78.014 353.199 77.1802L353 76.2002ZM345 86H344C344 91.323 347.78 95.7595 352.801 96.7788L353 95.7988L353.199 94.8188C349.091 93.9849 346 90.3527 346 86H345ZM353 95.7988H352V117.2H353H354V95.7988H353ZM353 117.2L352.801 116.22C347.78 117.239 344 121.677 344 127H345H346C346 122.647 349.091 119.014 353.199 118.18L353 117.2ZM345 127H344C344 132.323 347.78 136.759 352.801 137.779L353 136.799L353.199 135.819C349.091 134.985 346 131.353 346 127H345ZM353 136.799H352V158.2H353H354V136.799H353ZM353 158.2L352.801 157.22C347.78 158.239 344 162.677 344 168H345H346C346 163.647 349.091 160.014 353.199 159.18L353 158.2ZM345 168H344C344 173.323 347.78 177.759 352.801 178.779L353 177.799L353.199 176.819C349.091 175.985 346 172.353 346 168H345ZM353 177.799H352V203H353H354V177.799H353ZM353 203H352C352 207.971 347.971 212 343 212V213V214C349.075 214 354 209.075 354 203H353ZM343 213V212H10V213V214H343V213ZM10 213L10 212C5.0295 212 1 207.97 1 203H0H-1C-1 209.075 3.92496 214 9.99998 214L10 213ZM0 203H1V177.541H0H-1V203H0ZM0 177.541L0.299684 178.495C4.76123 177.094 8 172.927 8 168H7H6C6 172.028 3.35264 175.44 -0.299684 176.587L0 177.541ZM7 168H8C8 163.073 4.7615 158.905 0.299655 157.504L0 158.458L-0.299655 159.412C3.35265 160.559 6 163.972 6 168H7ZM0 158.458H1V136.541H0H-1V158.458H0ZM0 136.541L0.299684 137.495C4.76123 136.094 8 131.927 8 127H7H6C6 131.028 3.35264 134.44 -0.299684 135.587L0 136.541ZM7 127H8C8 122.073 4.7615 117.905 0.299655 116.504L0 117.458L-0.299655 118.412C3.35265 119.559 6 122.972 6 127H7ZM0 117.458H1V95.541H0H-1V117.458H0ZM0 95.541L0.299684 96.4951C4.76123 95.0936 8 90.927 8 86H7H6C6 90.0281 3.35264 93.4397 -0.299684 94.587L0 95.541ZM7 86H8C8 81.0731 4.7615 76.9054 0.299655 75.504L0 76.458L-0.299655 77.4121C3.35265 78.5592 6 81.9717 6 86H7ZM0 76.458H1V54.541H0H-1V76.458H0ZM0 54.541L0.299684 55.4951C4.76123 54.0936 8 49.927 8 45H7H6C6 49.0281 3.35264 52.4397 -0.299684 53.587L0 54.541ZM7 45H8C8 40.0731 4.7615 35.9054 0.299655 34.504L0 35.458L-0.299655 36.4121C3.35265 37.5592 6 40.9717 6 45H7ZM0 35.458H1V10H0H-1V35.458H0ZM0 10H1C1 5.02951 5.02951 1.00008 10 1L10 0L9.99998 -1C3.92496 -0.999898 -0.999998 3.92491 -1 10H0ZM10 0V1H343V0V-1H10V0Z" fill="url(#paint0_linear_2121_18911)" fill-opacity="0.2" mask="url(#path-1-inside-1_2121_18911)"/>
<defs>
<linearGradient id="paint0_linear_2121_18911" x1="176.5" y1="0" x2="176.5" y2="213" gradientUnits="userSpaceOnUse">
<stop stop-color="#4FB2F3"/>
<stop offset="1" stop-color="#4FB2F3" stop-opacity="0"/>
</linearGradient>
</defs>
</svg>
