<svg width="20" height="20" viewBox="0 0 20 20" fill="none" xmlns="http://www.w3.org/2000/svg">
<path d="M14.4916 12.0583L11.1249 9H8.86657L5.4999 12.0583C4.55823 12.9083 4.2499 14.2167 4.70823 15.4C5.16657 16.575 6.28323 17.3333 7.54157 17.3333H12.4499C13.7166 17.3333 14.8249 16.575 15.2832 15.4C15.7416 14.2167 15.4332 12.9083 14.4916 12.0583ZM11.5166 14.1167H8.48323C8.16657 14.1167 7.91657 13.8583 7.91657 13.55C7.91657 13.2417 8.1749 12.9833 8.48323 12.9833H11.5166C11.8332 12.9833 12.0832 13.2417 12.0832 13.55C12.0832 13.8583 11.8249 14.1167 11.5166 14.1167Z" fill="#F3934F"/>
<path d="M15.2919 2.59935C14.8335 1.42435 13.7169 0.666016 12.4585 0.666016H7.54188C6.28355 0.666016 5.16688 1.42435 4.70855 2.59935C4.25855 3.78268 4.56688 5.09102 5.50855 5.94102L8.87521 8.99935H11.1335L14.5002 5.94102C15.4335 5.09102 15.7419 3.78268 15.2919 2.59935ZM11.5169 5.02435H8.48355C8.16688 5.02435 7.91688 4.76602 7.91688 4.45768C7.91688 4.14935 8.17522 3.89102 8.48355 3.89102H11.5169C11.8335 3.89102 12.0835 4.14935 12.0835 4.45768C12.0835 4.76602 11.8252 5.02435 11.5169 5.02435Z" fill="#F3934F"/>
</svg>
