<svg width="63" height="87" viewBox="0 0 63 87" fill="none" xmlns="http://www.w3.org/2000/svg">
<g clip-path="url(#clip0_1572_12136)">
<mask id="path-1-inside-1_1572_12136" fill="white">
<path d="M0 10C0 4.47715 4.47715 0 10 0H53C58.5228 0 63 4.47715 63 10V77C63 82.5228 58.5228 87 53 87H10C4.47715 87 0 82.5229 0 77V10Z"/>
</mask>
<path d="M0 10C0 4.47715 4.47715 0 10 0H53C58.5228 0 63 4.47715 63 10V77C63 82.5228 58.5228 87 53 87H10C4.47715 87 0 82.5229 0 77V10Z" fill="#ECF9EF"/>
<rect x="0.5" y="0.5" width="62" height="86" rx="9.5" fill="#EFF9FF" stroke="#4FB2F3"/>
<rect x="67.1582" y="6.35156" width="14" height="107.43" transform="rotate(45 67.1582 6.35156)" fill="#4FB2F3" fill-opacity="0.05"/>
<rect x="46.1133" y="-14.1504" width="14" height="51.5014" rx="7" transform="rotate(45 46.1133 -14.1504)" fill="#4FB2F3" fill-opacity="0.05"/>
<path d="M48.0264 34.3793C48.1087 33.9264 48.1705 33.4322 48.1705 32.9587C48.1705 28.6764 44.6911 25.1969 40.4087 25.1969C38.8028 25.1969 37.3205 25.6705 36.1058 26.5146C34.5205 22.7058 30.794 20.0293 26.4293 20.0293C20.644 20.0293 15.9705 24.7028 15.9705 30.4881C15.9705 30.6116 15.9705 30.7352 15.9705 30.8793C13.1087 31.7028 11.0293 34.3175 11.0293 37.4264C11.0293 40.8646 13.5822 43.7058 16.8969 44.1793V44.2617H47.6764C50.394 44.2617 52.6175 42.0587 52.6175 39.3205C52.6381 36.6852 50.5999 34.5646 48.0264 34.3793Z" fill="#7ECCFF" stroke="black" stroke-width="0.5" stroke-miterlimit="10" stroke-linecap="round" stroke-linejoin="round"/>
<path d="M37.3204 60.5469L36.5381 61.2469L38.2057 63.2233L39.2146 62.8322L37.3204 60.5469Z" fill="#263238" stroke="#263238" stroke-miterlimit="10" stroke-linecap="round" stroke-linejoin="round"/>
<path d="M36.558 36.9115L31.1227 30.0762L25.708 36.9115H27.8286V47.185H34.4374V36.9115H36.558Z" fill="white" stroke="black" stroke-width="0.5" stroke-miterlimit="10" stroke-linecap="round" stroke-linejoin="round"/>
<path d="M39.7053 46.0117H21.6598C20.5534 46.0117 19.6573 46.9099 19.6598 48.0162L19.6916 62.2633C19.6941 63.3664 20.5893 64.2593 21.6924 64.2588L39.706 64.252C40.8103 64.2516 41.7053 63.3563 41.7053 62.252V48.0117C41.7053 46.9071 40.8098 46.0117 39.7053 46.0117Z" fill="white" stroke="#111111" stroke-width="0.5" stroke-miterlimit="10" stroke-linecap="round" stroke-linejoin="round"/>
<path d="M36.0433 54.7739L31.3697 59.6533L27.7462 58.6445C27.3756 58.5416 27.005 58.6033 26.6962 58.8298L19.6905 62.4382V65.0642L19.682 65.628C19.6652 66.7443 20.5654 67.6582 21.6818 67.6582H39.7071C40.8086 67.6582 41.7027 66.7676 41.7071 65.6661L41.7382 57.7592L37.8139 54.7739C37.3403 54.2798 36.5168 54.2798 36.0433 54.7739Z" fill="white" stroke="#111111" stroke-width="0.5" stroke-miterlimit="10" stroke-linecap="round" stroke-linejoin="round"/>
<path d="M30.4421 53.3895C30.9732 52.0957 30.355 50.6162 29.0612 50.085C27.7673 49.5538 26.2879 50.1721 25.7567 51.4659C25.2255 52.7597 25.8438 54.2392 27.1376 54.7704C28.4314 55.3016 29.9109 54.6833 30.4421 53.3895Z" fill="#7ECCFF" stroke="black" stroke-width="0.5" stroke-miterlimit="10" stroke-linecap="round" stroke-linejoin="round"/>
</g>
<path d="M0 0H63H0ZM63 77C63 84.1797 57.1797 90 50 90H13C5.8203 90 0 84.1797 0 77C0 80.866 4.47715 84 10 84H53C58.5228 84 63 80.866 63 77ZM0 87V0V87ZM63 0V87V0Z" fill="#4FB2F3" mask="url(#path-1-inside-1_1572_12136)"/>
<defs>
<clipPath id="clip0_1572_12136">
<path d="M0 10C0 4.47715 4.47715 0 10 0H53C58.5228 0 63 4.47715 63 10V77C63 82.5228 58.5228 87 53 87H10C4.47715 87 0 82.5229 0 77V10Z" fill="white"/>
</clipPath>
</defs>
</svg>
