<svg width="50" height="50" viewBox="0 0 50 50" fill="none" xmlns="http://www.w3.org/2000/svg">
<path opacity="0.5" fill-rule="evenodd" clip-rule="evenodd" d="M25 50C38.8071 50 50 38.8071 50 25C50 11.1929 38.8071 0 25 0C11.1929 0 0 11.1929 0 25C0 38.8071 11.1929 50 25 50ZM24.9994 23.1481C29.0436 23.1481 32.3221 19.8317 32.3221 15.7407C32.3221 11.6497 29.0436 8.33333 24.9994 8.33333C20.9552 8.33333 17.6767 11.6497 17.6767 15.7407C17.6767 19.8317 20.9552 23.1481 24.9994 23.1481ZM20.1262 27.0363C15.5374 27.372 11.9327 31.028 11.1771 35.6188C10.7286 38.3435 12.6161 40.9085 15.3347 41.1672C22.279 41.8282 27.7367 41.8362 34.6695 41.1727C37.3872 40.9126 39.2712 38.347 38.8228 35.6231C38.0667 31.0293 34.4607 27.3696 29.8689 27.0346C26.5232 26.7904 23.4797 26.7909 20.1262 27.0363Z" fill="#7B7B7B"/>
</svg>
