<svg width="51" height="50" viewBox="0 0 51 50" fill="none" xmlns="http://www.w3.org/2000/svg">
<rect x="0.832031" y="0.5" width="49" height="49" rx="24.5" fill="white"/>
<rect x="0.832031" y="0.5" width="49" height="49" rx="24.5" stroke="#EEEEEE"/>
<g clip-path="url(#clip0_2371_34774)">
<g clip-path="url(#clip1_2371_34774)">
<path d="M25.3307 41.6673C34.5355 41.6673 41.9974 34.2054 41.9974 25.0007C41.9974 15.7959 34.5355 8.33398 25.3307 8.33398C16.126 8.33398 8.66406 15.7959 8.66406 25.0007C8.66406 34.2054 16.126 41.6673 25.3307 41.6673Z" fill="#333333"/>
<path d="M31.8941 22.4574C31.8177 22.502 29.9991 23.4425 29.9991 25.5279C30.0848 27.9061 32.2941 28.7401 32.332 28.7401C32.2941 28.7847 31.9985 29.8763 31.1227 31.0205C30.4277 32.0062 29.6562 33 28.4848 33C27.3705 33 26.9705 32.3431 25.6848 32.3431C24.3041 32.3431 23.9134 33 22.8562 33C21.6848 33 20.8562 31.953 20.1233 30.9766C19.1711 29.6986 18.3618 27.6931 18.3332 25.7675C18.314 24.7471 18.5239 23.744 19.0568 22.8921C19.809 21.7026 21.1519 20.8952 22.6183 20.8686C23.7419 20.8333 24.742 21.5875 25.4277 21.5875C26.0848 21.5875 27.3134 20.8686 28.7035 20.8686C29.3035 20.8692 30.9035 21.0376 31.8941 22.4574ZM25.3326 20.6649C25.1326 19.733 25.6848 18.8012 26.1991 18.2068C26.8562 17.4879 27.8941 17 28.7892 17C28.8463 17.9318 28.4842 18.8458 27.837 19.5114C27.2562 20.2302 26.2562 20.7714 25.3326 20.6649Z" fill="white"/>
</g>
</g>
<defs>
<clipPath id="clip0_2371_34774">
<rect width="33.3333" height="33.3333" fill="white" transform="translate(8.66406 8.33398)"/>
</clipPath>
<clipPath id="clip1_2371_34774">
<rect width="33.3333" height="33.3333" fill="white" transform="translate(8.66406 8.33398)"/>
</clipPath>
</defs>
</svg>
