<svg width="353" height="141" viewBox="0 0 353 141" fill="none" xmlns="http://www.w3.org/2000/svg">
<mask id="path-1-inside-1_1506_168604" fill="white">
<path d="M343 0C348.523 0 353 4.47715 353 10V38.2002C348.436 39.1267 345 43.1621 345 48C345 52.8378 348.436 56.8722 353 57.7988V82.2002C348.436 83.1267 345 87.1621 345 92C345 96.8378 348.436 100.872 353 101.799V131C353 136.523 348.523 141 343 141H10C4.47715 141 1.12748e-07 136.523 0 131V101.541C4.05693 100.267 7 96.4775 7 92C7 87.5224 4.05708 83.7323 0 82.458V57.541C4.05693 56.2666 7 52.4775 7 48C7 43.5224 4.05708 39.7323 0 38.458V10C0 4.47715 4.47715 1.04692e-07 10 0H343Z"/>
</mask>
<path d="M343 0C348.523 0 353 4.47715 353 10V38.2002C348.436 39.1267 345 43.1621 345 48C345 52.8378 348.436 56.8722 353 57.7988V82.2002C348.436 83.1267 345 87.1621 345 92C345 96.8378 348.436 100.872 353 101.799V131C353 136.523 348.523 141 343 141H10C4.47715 141 1.12748e-07 136.523 0 131V101.541C4.05693 100.267 7 96.4775 7 92C7 87.5224 4.05708 83.7323 0 82.458V57.541C4.05693 56.2666 7 52.4775 7 48C7 43.5224 4.05708 39.7323 0 38.458V10C0 4.47715 4.47715 1.04692e-07 10 0H343Z" fill="white"/>
<path d="M353 10H354H353ZM353 38.2002L353.199 39.1802L354 39.0176V38.2002H353ZM353 57.7988H354V56.9814L353.199 56.8188L353 57.7988ZM353 82.2002L353.199 83.1802L354 83.0176V82.2002H353ZM353 101.799H354V100.981L353.199 100.819L353 101.799ZM343 141V142V141ZM0 131H-1H0ZM0 101.541L-0.299684 100.587L-1 100.807V101.541H0ZM0 82.458H-1V83.1921L-0.299655 83.4121L0 82.458ZM0 57.541L-0.299684 56.587L-1 56.807V57.541H0ZM0 38.458H-1V39.1921L-0.299655 39.4121L0 38.458ZM10 0V-1V0ZM343 0V1C347.971 1 352 5.02944 352 10H353H354C354 3.92487 349.075 -1 343 -1V0ZM353 10H352V38.2002H353H354V10H353ZM353 38.2002L352.801 37.2202C347.78 38.2395 344 42.6771 344 48H345H346C346 43.6471 349.091 40.014 353.199 39.1802L353 38.2002ZM345 48H344C344 53.3229 347.78 57.7595 352.801 58.7788L353 57.7988L353.199 56.8188C349.091 55.9849 346 52.3527 346 48H345ZM353 57.7988H352V82.2002H353H354V57.7988H353ZM353 82.2002L352.801 81.2202C347.78 82.2395 344 86.6771 344 92H345H346C346 87.6471 349.091 84.014 353.199 83.1802L353 82.2002ZM345 92H344C344 97.323 347.78 101.759 352.801 102.779L353 101.799L353.199 100.819C349.091 99.9849 346 96.3527 346 92H345ZM353 101.799H352V131H353H354V101.799H353ZM353 131H352C352 135.971 347.971 140 343 140V141V142C349.075 142 354 137.075 354 131H353ZM343 141V140H10V141V142H343V141ZM10 141V140C5.02944 140 1 135.971 1 131H0H-1C-1 137.075 3.92487 142 10 142V141ZM0 131H1V101.541H0H-1V131H0ZM0 101.541L0.299684 102.495C4.76123 101.094 8 96.927 8 92H7H6C6 96.0281 3.35264 99.4397 -0.299684 100.587L0 101.541ZM7 92H8C8 87.0731 4.7615 82.9054 0.299655 81.504L0 82.458L-0.299655 83.4121C3.35265 84.5592 6 87.9717 6 92H7ZM0 82.458H1V57.541H0H-1V82.458H0ZM0 57.541L0.299684 58.4951C4.76123 57.0936 8 52.927 8 48H7H6C6 52.0281 3.35264 55.4397 -0.299684 56.587L0 57.541ZM7 48H8C8 43.0731 4.7615 38.9054 0.299655 37.504L0 38.458L-0.299655 39.4121C3.35265 40.5592 6 43.9717 6 48H7ZM0 38.458H1V10H0H-1V38.458H0ZM0 10H1C1 5.02944 5.02944 1 10 1V0V-1C3.92487 -1 -1 3.92487 -1 10H0ZM10 0V1H343V0V-1H10V0Z" fill="#EEEEEE" mask="url(#path-1-inside-1_1506_168604)"/>
</svg>
