<svg width="16" height="20" viewBox="0 0 16 20" fill="none" xmlns="http://www.w3.org/2000/svg">
<path d="M4.49752 15.5C4.49752 17.433 6.06452 19 7.99752 19C9.93051 19 11.4975 17.433 11.4975 15.5M2.23309 15.6416C6.56272 16.111 9.442 16.1121 13.7626 15.6421C14.4104 15.5717 14.845 14.9304 14.747 14.2863C14.4749 12.4987 14.3854 9.91367 14.3738 7.49802C14.357 3.95697 11.5386 1 7.99752 1C4.45643 1 1.63807 3.95697 1.6212 7.49802C1.60969 9.91339 1.52017 12.4981 1.24816 14.2857C1.15011 14.93 1.58515 15.5714 2.23309 15.6416Z" stroke="#111111"/>
</svg>
