<svg width="24" height="24" viewBox="0 0 24 24" fill="none" xmlns="http://www.w3.org/2000/svg">
<path d="M3.08579 8.99919C2.9043 11.8408 3.02272 14.247 3.32857 17.369C3.42621 18.3656 4.37117 19.1616 5.56642 19.2465C10.3059 19.5833 13.6523 19.5841 18.453 19.2449C19.6454 19.1606 20.5904 18.3689 20.6891 17.3748C20.9643 14.6028 21.0676 12.4065 20.9649 9.99919C20.9578 9.83361 20.9498 9.66702 20.9408 9.49919M3.08579 8.99919C3.13455 8.23579 3.20495 7.44096 3.29918 6.59238C3.40777 5.61445 4.34515 4.84399 5.51901 4.7597C8.04989 4.57797 10.175 4.49128 12.3144 4.49976M3.08579 8.99919H14.5M6.5 15.4992H8.5M11.5 15.4992H15.5M15 5.99919L17.8586 3.14061C17.8976 3.10156 17.9488 3.08203 18 3.08203M21 5.99919L18.1414 3.14061C18.1024 3.10156 18.0512 3.08203 18 3.08203M18 3.08203V11.4992" stroke="#111111" stroke-linecap="round"/>
</svg>
