<svg width="48" height="48" viewBox="0 0 48 48" fill="none" xmlns="http://www.w3.org/2000/svg">
<g clip-path="url(#clip0_1312_135697)">
<path d="M7.88825 36.5228C7.7009 36.1974 7.27691 36.0889 6.95152 36.2763L5.23583 37.2722V35.2903C5.23583 34.9156 4.93016 34.6099 4.55546 34.6099C4.18077 34.6099 3.8751 34.9156 3.8751 35.2903V37.2722L2.15941 36.2763C1.83402 36.0889 1.41002 36.1974 1.22268 36.5228C1.03533 36.8482 1.1438 37.2722 1.46919 37.4595L3.19474 38.4653L1.46919 39.471C1.1438 39.6584 1.03533 40.0824 1.22268 40.4078C1.41002 40.7331 1.83402 40.8416 2.15941 40.6543L3.8751 39.6584V41.6403C3.8751 42.015 4.18077 42.3207 4.55546 42.3207C4.93016 42.3207 5.23583 42.015 5.23583 41.6403V39.6584L6.95152 40.6543C7.27691 40.8416 7.7009 40.7331 7.88825 40.4078C8.07559 40.0824 7.96713 39.6584 7.64174 39.471L5.91619 38.4653L7.64174 37.4595C7.96713 37.2623 8.08545 36.8482 7.88825 36.5228ZM14.189 40.3979C14.3763 40.7233 14.8003 40.8317 15.1257 40.6444L16.8414 39.6485V41.6304C16.8414 42.0051 17.1471 42.3108 17.5218 42.3108C17.8965 42.3108 18.2021 42.0051 18.2021 41.6304V39.6485L19.9178 40.6444C20.2432 40.8317 20.6672 40.7233 20.8546 40.3979C21.0419 40.0725 20.9334 39.6485 20.6081 39.4612L18.8825 38.4554L20.6081 37.4497C20.9334 37.2623 21.0419 36.8383 20.8546 36.5129C20.6672 36.1875 20.2432 36.0791 19.9178 36.2664L18.2021 37.2623V35.2804C18.2021 34.9057 17.8965 34.6 17.5218 34.6C17.1471 34.6 16.8414 34.9057 16.8414 35.2804V37.2623L15.1257 36.2763C14.8003 36.0889 14.3763 36.1974 14.189 36.5228C14.0016 36.8482 14.1101 37.2722 14.4355 37.4595L16.1611 38.4653L14.4355 39.4612C14.1101 39.6485 14.0016 40.0725 14.189 40.3979ZM12.9663 45.5647V46.7677C12.9663 47.0536 13.203 47.2903 13.4889 47.2903H21.5645C21.8505 47.2903 22.0871 47.0536 22.0871 46.7677V45.5647C22.0871 45.2788 21.8505 45.0421 21.5645 45.0421H13.4889C13.1931 45.0421 12.9663 45.2788 12.9663 45.5647ZM32.6475 11.941H32.5883V9.25903C32.5883 4.5951 28.7724 0.631259 24.1183 0.710142C19.5924 0.789024 15.9244 4.4965 15.9244 9.04211V9.29847C15.9244 9.68303 16.2399 9.99856 16.6245 9.99856H18.8628C19.2473 9.99856 19.5629 9.68303 19.5629 9.29847V9.21959C19.5629 6.71507 21.4462 4.51622 23.9507 4.35846C26.6721 4.19083 28.94 6.35024 28.94 9.03225V11.9312H22.0378V11.941H15.6582C14.4749 11.9805 13.5185 12.9369 13.5185 14.13V26.2582C13.5185 27.471 14.5045 28.4571 15.7173 28.4571H32.6376C33.8504 28.4571 34.8365 27.471 34.8365 26.2582V14.1399C34.8463 12.9271 33.8603 11.941 32.6475 11.941ZM25.4889 20.7463C25.3213 20.8646 25.272 20.9928 25.272 21.19C25.2818 22.0774 25.2818 22.9649 25.272 23.8622C25.2917 24.2368 25.1044 24.5918 24.7691 24.7594C23.9901 25.1539 23.2112 24.6017 23.2112 23.8622V21.1802C23.2112 21.0027 23.1717 20.8745 23.014 20.7562C22.2054 20.1645 21.9392 19.1489 22.3435 18.2516C22.7379 17.3839 23.6943 16.8712 24.5916 17.0585C25.5974 17.2557 26.2974 18.0742 26.3073 19.07C26.3369 19.7701 26.0509 20.342 25.4889 20.7463ZM25.9228 45.5647V46.7677C25.9228 47.0536 26.1594 47.2903 26.4454 47.2903H34.521C34.8069 47.2903 35.0435 47.0536 35.0435 46.7677V45.5647C35.0435 45.2788 34.8069 45.0421 34.521 45.0421H26.4454C26.1594 45.0421 25.9228 45.2788 25.9228 45.5647ZM27.1454 40.3979C27.3328 40.7233 27.7568 40.8317 28.0822 40.6444L29.7979 39.6485V41.6304C29.7979 42.0051 30.1035 42.3108 30.4782 42.3108C30.8529 42.3108 31.1586 42.0051 31.1586 41.6304V39.6485L32.8743 40.6444C33.1997 40.8317 33.6237 40.7233 33.811 40.3979C33.9984 40.0725 33.8899 39.6485 33.5645 39.4612L31.8389 38.4554L33.5645 37.4497C33.8899 37.2623 33.9984 36.8383 33.811 36.5129C33.6237 36.1875 33.1997 36.0791 32.8743 36.2664L31.1586 37.2623V35.2804C31.1586 34.9057 30.8529 34.6 30.4782 34.6C30.1035 34.6 29.7979 34.9057 29.7979 35.2804V37.2623L28.0822 36.2664C27.7568 36.0791 27.3328 36.1875 27.1454 36.5129C26.9581 36.8383 27.0666 37.2623 27.3919 37.4497L29.1175 38.4554L27.3919 39.4612C27.0666 39.6485 26.9581 40.0725 27.1454 40.3979ZM47.4774 45.0421H39.4018C39.1159 45.0421 38.8792 45.2788 38.8792 45.5647V46.7677C38.8792 47.0536 39.1159 47.2903 39.4018 47.2903H47.4774C47.7633 47.2903 48 47.0536 48 46.7677V45.5647C48 45.2788 47.7633 45.0421 47.4774 45.0421ZM0.522597 47.2903H8.59819C8.88414 47.2903 9.12079 47.0536 9.12079 46.7677V45.5647C9.12079 45.2788 8.88414 45.0421 8.59819 45.0421H0.522597C0.236647 45.0421 0 45.2788 0 45.5647V46.7677C0 47.0536 0.236647 47.2903 0.522597 47.2903ZM40.1117 40.3979C40.2991 40.7233 40.7231 40.8317 41.0485 40.6444L42.7642 39.6485V41.6304C42.7642 42.0051 43.0698 42.3108 43.4445 42.3108C43.8192 42.3108 44.1249 42.0051 44.1249 41.6304V39.6485L45.8406 40.6444C46.166 40.8317 46.59 40.7233 46.7773 40.3979C46.9647 40.0725 46.8562 39.6485 46.5308 39.4612L44.8053 38.4554L46.5308 37.4497C46.8562 37.2623 46.9647 36.8383 46.7773 36.5129C46.59 36.1875 46.166 36.0791 45.8406 36.2664L44.1249 37.2623V35.2804C44.1249 34.9057 43.8192 34.6 43.4445 34.6C43.0698 34.6 42.7642 34.9057 42.7642 35.2804V37.2623L41.0485 36.2664C40.7231 36.0791 40.2991 36.1875 40.1117 36.5129C39.9244 36.8383 40.0329 37.2623 40.3583 37.4497L42.0838 38.4554L40.3583 39.4612C40.0329 39.6485 39.9145 40.0725 40.1117 40.3979Z" fill="#4FB2F3"/>
</g>
<defs>
<clipPath id="clip0_1312_135697">
<rect width="48" height="48" fill="white"/>
</clipPath>
</defs>
</svg>
