<svg width="18" height="18" viewBox="0 0 18 18" fill="none" xmlns="http://www.w3.org/2000/svg">
<path d="M6.22709 8.13381H3.95562C3.85136 8.13381 3.75137 8.09239 3.67764 8.01867C3.60392 7.94494 3.5625 7.84495 3.5625 7.74069C3.5625 7.63642 3.60392 7.53643 3.67764 7.46271C3.75137 7.38898 3.85136 7.34756 3.95562 7.34756H5.83396V4.74273C5.83396 4.63847 5.87538 4.53848 5.94911 4.46475C6.02283 4.39103 6.12282 4.34961 6.22709 4.34961C6.33135 4.34961 6.43134 4.39103 6.50506 4.46475C6.57879 4.53848 6.62021 4.63847 6.62021 4.74273V7.74069C6.62021 7.84495 6.57879 7.94494 6.50506 8.01867C6.43134 8.09239 6.33135 8.13381 6.22709 8.13381ZM13.4613 16.4987H9.64961C9.39148 16.4987 9.13588 16.4478 8.8974 16.3491C8.65892 16.2503 8.44224 16.1055 8.25971 15.923C8.07719 15.7404 7.9324 15.5237 7.83362 15.2853C7.73484 15.0468 7.684 14.7912 7.684 14.5331V8.12201C7.684 8.01775 7.72542 7.91776 7.79914 7.84404C7.87287 7.77031 7.97286 7.72889 8.07712 7.72889H15.0338C15.1381 7.72889 15.2381 7.77031 15.3118 7.84404C15.3855 7.91776 15.4269 8.01775 15.4269 8.12201V14.5331C15.4269 14.7912 15.3761 15.0468 15.2773 15.2853C15.1785 15.5237 15.0338 15.7404 14.8512 15.923C14.6687 16.1055 14.452 16.2503 14.2135 16.3491C13.9751 16.4478 13.7195 16.4987 13.4613 16.4987ZM8.47024 8.51514V14.5331C8.47024 14.8458 8.5945 15.1458 8.81567 15.367C9.03685 15.5882 9.33682 15.7124 9.64961 15.7124H13.4613C13.7741 15.7124 14.0741 15.5882 14.2953 15.367C14.5164 15.1458 14.6407 14.8458 14.6407 14.5331V8.51514H8.47024Z" fill="#7A7A7A"/>
<path d="M16.0701 14.0768H15.0323C14.928 14.0768 14.828 14.0354 14.7543 13.9616C14.6806 13.8879 14.6391 13.7879 14.6391 13.6837C14.6391 13.5794 14.6806 13.4794 14.7543 13.4057C14.828 13.332 14.928 13.2905 15.0323 13.2905H16.0701C16.1744 13.2905 16.2744 13.2491 16.3481 13.1754C16.4218 13.1017 16.4632 13.0017 16.4632 12.8974V11.3171C16.4632 11.2128 16.4218 11.1128 16.3481 11.0391C16.2744 10.9654 16.1744 10.9239 16.0701 10.9239H15.0323C14.928 10.9239 14.828 10.8825 14.7543 10.8088C14.6806 10.7351 14.6391 10.6351 14.6391 10.5308C14.6391 10.4266 14.6806 10.3266 14.7543 10.2528C14.828 10.1791 14.928 10.1377 15.0323 10.1377H16.0701C16.3829 10.1377 16.6829 10.2619 16.9041 10.4831C17.1252 10.7043 17.2495 11.0043 17.2495 11.3171V12.8974C17.2495 13.2102 17.1252 13.5102 16.9041 13.7314C16.6829 13.9525 16.3829 14.0768 16.0701 14.0768ZM10.8384 7.30406C10.7342 7.30406 10.6342 7.26265 10.5605 7.18892C10.4867 7.1152 10.4453 7.0152 10.4453 6.91094V5.6443C10.4453 5.12299 10.6524 4.62303 11.021 4.2544C11.3897 3.88578 11.8896 3.67869 12.4109 3.67869H13.8608C13.965 3.67869 14.065 3.63727 14.1387 3.56354C14.2125 3.48982 14.2539 3.38983 14.2539 3.28556C14.2543 2.81213 14.4426 2.35821 14.7773 2.02344C15.1121 1.68867 15.566 1.50042 16.0394 1.5H16.8564C16.9606 1.5 17.0606 1.54142 17.1343 1.61514C17.2081 1.68887 17.2495 1.78886 17.2495 1.89312C17.2495 1.99739 17.2081 2.09738 17.1343 2.1711C17.0606 2.24483 16.9606 2.28625 16.8564 2.28625H16.0394C15.7745 2.28645 15.5204 2.39181 15.3331 2.57917C15.1457 2.76653 15.0403 3.02059 15.0401 3.28556C15.0401 3.59835 14.9159 3.89833 14.6947 4.1195C14.4735 4.34068 14.1736 4.46493 13.8608 4.46493H12.4109C12.0981 4.46493 11.7982 4.58919 11.577 4.81036C11.3558 5.03154 11.2316 5.33151 11.2316 5.6443V6.91094C11.2316 7.0152 11.1901 7.1152 11.1164 7.18892C11.0427 7.26265 10.9427 7.30406 10.8384 7.30406Z" fill="#7A7A7A"/>
<path d="M14.1476 5.72593H12.3503C12.246 5.72593 12.146 5.68452 12.0723 5.61079C11.9986 5.53707 11.9571 5.43707 11.9571 5.33281C11.9571 5.22855 11.9986 5.12856 12.0723 5.05483C12.146 4.98111 12.246 4.93969 12.3503 4.93969H14.1476C14.5572 4.93927 14.95 4.77636 15.2396 4.48672C15.5293 4.19707 15.6922 3.80434 15.6926 3.39472C15.6926 3.29045 15.734 3.19046 15.8077 3.11674C15.8815 3.04301 15.9815 3.00159 16.0857 3.00159C16.19 3.00159 16.29 3.04301 16.3637 3.11674C16.4374 3.19046 16.4788 3.29045 16.4788 3.39472C16.4782 4.0128 16.2324 4.60539 15.7954 5.04245C15.3583 5.4795 14.7657 5.72531 14.1476 5.72593ZM6.2262 13.2141C4.77382 13.2141 3.38093 12.6372 2.35394 11.6102C1.32696 10.5832 0.75 9.19031 0.75 7.73794C0.75 6.28556 1.32696 4.89266 2.35394 3.86568C3.38093 2.83869 4.77382 2.26174 6.2262 2.26174C7.62223 2.2582 8.96523 2.79624 9.97266 3.76268C10.0121 3.79782 10.044 3.84053 10.0665 3.88826C10.089 3.936 10.1017 3.98779 10.1038 4.04054C10.1059 4.09328 10.0973 4.14591 10.0786 4.19528C10.0599 4.24465 10.0315 4.28974 9.995 4.32788C9.9585 4.36602 9.9147 4.39641 9.8662 4.41725C9.8177 4.4381 9.7655 4.44895 9.71271 4.44918C9.65992 4.44941 9.60763 4.43901 9.55894 4.41859C9.51026 4.39818 9.4662 4.36816 9.42936 4.33035C8.5679 3.50436 7.41967 3.04467 6.2262 3.04798C4.98235 3.05445 3.79201 3.55476 2.91704 4.43887C2.04207 5.32298 1.55415 6.51846 1.56062 7.76231C1.56708 9.00616 2.0674 10.1965 2.95151 11.0715C3.83562 11.9464 5.03109 12.4344 6.27495 12.4279C6.33174 12.4292 6.38855 12.4258 6.44478 12.4177C6.4964 12.4075 6.54955 12.4077 6.60107 12.4185C6.65258 12.4292 6.70143 12.4502 6.74469 12.4801C6.78796 12.5101 6.82477 12.5484 6.85295 12.5928C6.88113 12.6373 6.90009 12.6869 6.90873 12.7388C6.91736 12.7908 6.91549 12.8439 6.90321 12.895C6.89094 12.9462 6.86852 12.9944 6.83728 13.0367C6.80603 13.0791 6.76661 13.1147 6.72133 13.1416C6.67606 13.1684 6.62587 13.1858 6.57372 13.1929C6.45869 13.2098 6.34243 13.2169 6.2262 13.2141ZM15.9906 16.4991H7.12488C7.02062 16.4991 6.92062 16.4576 6.8469 16.3839C6.77317 16.3102 6.73176 16.2102 6.73176 16.1059C6.73176 16.0017 6.77317 15.9017 6.8469 15.828C6.92062 15.7542 7.02062 15.7128 7.12488 15.7128H15.9906C16.0948 15.7128 16.1948 15.7542 16.2686 15.828C16.3423 15.9017 16.3837 16.0017 16.3837 16.1059C16.3837 16.2102 16.3423 16.3102 16.2686 16.3839C16.1948 16.4576 16.0948 16.4991 15.9906 16.4991Z" fill="#7A7A7A"/>
</svg>
