<svg width="219" height="168" viewBox="0 0 219 168" fill="none" xmlns="http://www.w3.org/2000/svg">
<ellipse cx="109.501" cy="156.141" rx="109.2" ry="10.08" fill="#EEEEEE"/>
<path d="M149.44 144.864C119.575 147.713 98.758 147.706 69.2741 144.878C61.8385 144.164 55.96 137.478 55.3526 129.107C52.9387 95.8365 52.4016 72.2439 55.1698 38.5828C55.8453 30.3682 61.6766 23.8964 68.9791 23.1883C89.4402 21.2044 105.638 20.5689 123.309 21.284L164.912 62.8873C165.79 84.8396 165.184 104.226 163.351 129.155C162.736 137.506 156.858 144.156 149.44 144.864Z" fill="#E5F4FD"/>
<path d="M123.309 21.284C105.638 20.5689 89.4402 21.2044 68.9791 23.1883C61.6766 23.8964 55.8453 30.3682 55.1698 38.5828C52.4016 72.2439 52.9387 95.8365 55.3526 129.107C55.96 137.478 61.8385 144.164 69.2741 144.878C98.758 147.706 119.575 147.713 149.44 144.864C156.858 144.156 162.736 137.506 163.351 129.155C165.184 104.226 165.79 84.8396 164.912 62.8873M123.309 21.284L164.912 62.8873M123.309 21.284V60.3873C123.309 61.768 124.428 62.8873 125.809 62.8873H164.912" stroke="#282930" stroke-width="2"/>
<path d="M80.3086 87.75H137.309" stroke="#282930" stroke-width="2" stroke-linecap="round"/>
<path d="M80.3086 111.75H116.309" stroke="#282930" stroke-width="2" stroke-linecap="round"/>
<circle cx="165.539" cy="129.652" r="25.8276" fill="#C6ECCE" stroke="black" stroke-width="2"/>
<path d="M154.336 130.099L161.594 138.231C161.704 138.355 161.903 138.356 162.015 138.234L176.736 122.225" stroke="#3EBF5A" stroke-width="1.5" stroke-linecap="round"/>
<rect x="72" y="39" width="32" height="32" rx="16" fill="white"/>
<path d="M91.674 49.5C91.674 51.433 90.0289 53 87.9996 53C85.9703 53 84.3252 51.433 84.3252 49.5C84.3252 47.567 85.9703 46 87.9996 46C90.0289 46 91.674 47.567 91.674 49.5Z" stroke="#282930"/>
<path d="M81.0961 60.4898C81.456 58.1147 83.3863 56.1739 85.8989 55.9995C87.3344 55.8999 88.6698 55.8997 90.1026 55.999C92.6141 56.1729 94.543 58.1137 94.9028 60.4878L94.9727 60.9495C95.1801 62.3178 94.1822 63.595 92.7391 63.7424C89.3522 64.0883 86.658 64.0843 83.2662 63.7397C81.8208 63.5928 80.8196 62.3146 81.0273 60.9442L81.0961 60.4898Z" stroke="#282930"/>
</svg>
