<svg width="62" height="62" viewBox="0 0 62 62" fill="none" xmlns="http://www.w3.org/2000/svg">
<rect x="1" y="1" width="60" height="60" rx="10" fill="white"/>
<rect x="0.5" y="0.5" width="61" height="61" rx="10.5" stroke="url(#paint0_linear_6474_60993)" stroke-opacity="0.4"/>
<rect x="0.5" y="0.5" width="61" height="61" rx="10.5" stroke="url(#paint1_linear_6474_60993)" stroke-opacity="0.4"/>
<path d="M1 11C1 5.47715 5.47715 1 11 1H50.9337C56.4565 1 60.9337 5.47715 60.9337 11V31H1V11Z" fill="#FFEEE2"/>
<path d="M1 31H60.9337V51C60.9337 56.5228 56.4565 61 50.9337 61H11C5.47714 61 1 56.5228 1 51V31Z" fill="#FBE3D1"/>
<rect x="1.06641" y="30.5" width="59.9337" height="0.5" fill="#FFE1CA"/>
<rect x="1.06641" y="31" width="59.9337" height="0.5" fill="#FFF5EE"/>
<defs>
<linearGradient id="paint0_linear_6474_60993" x1="31" y1="1" x2="31" y2="61" gradientUnits="userSpaceOnUse">
<stop offset="0.0936356" stop-color="white" stop-opacity="0"/>
<stop offset="1" stop-color="#F3934F"/>
</linearGradient>
<linearGradient id="paint1_linear_6474_60993" x1="31" y1="1" x2="31" y2="61" gradientUnits="userSpaceOnUse">
<stop stop-color="#F3934F"/>
<stop offset="0.906364" stop-color="white" stop-opacity="0"/>
</linearGradient>
</defs>
</svg>
