<svg width="132" height="110" viewBox="0 0 132 110" fill="none" xmlns="http://www.w3.org/2000/svg">
<g clip-path="url(#clip0_1406_279151)">
<path d="M70.2401 40.2436C72.4974 54.5882 86.9877 68.4232 102.57 71.1174C105.483 71.6271 108.177 71.6999 110.726 71.4086C116.114 70.7533 120.556 68.4232 123.395 64.7824L127.4 59.7581C124.488 63.3989 120.119 65.729 114.73 66.3843C112.182 66.6756 109.488 66.6028 106.575 66.0931C90.9925 63.3989 76.5022 49.564 74.2449 35.2193C73.2983 29.1756 74.609 24.0057 77.6673 20.1465L73.6624 25.1708C70.6042 29.03 69.2935 34.1999 70.2401 40.2436Z" fill="url(#paint0_linear_1406_279151)"/>
<path d="M70.2401 40.2436C72.4974 54.5882 86.9877 68.4232 102.57 71.1174C105.483 71.6271 108.177 71.6999 110.726 71.4086C116.114 70.7533 120.556 68.4232 123.395 64.7824L127.4 59.7581C124.488 63.3989 120.119 65.729 114.73 66.3843C112.182 66.6756 109.488 66.6028 106.575 66.0931C90.9925 63.3989 76.5022 49.564 74.2449 35.2193C73.2983 29.1756 74.609 24.0057 77.6673 20.1465L73.6624 25.1708C70.6042 29.03 69.2935 34.1999 70.2401 40.2436Z" stroke="#121212" stroke-miterlimit="10" stroke-linecap="round" stroke-linejoin="round"/>
<path d="M114.657 66.3828L110.652 71.4071" stroke="#121212" stroke-miterlimit="10" stroke-linecap="round" stroke-linejoin="round"/>
<path d="M87.3525 56.7715L83.3477 61.8686" stroke="#121212" stroke-miterlimit="10" stroke-linecap="round" stroke-linejoin="round"/>
<path d="M99.802 64.2734L96.0156 69.3705" stroke="#121212" stroke-miterlimit="10" stroke-linecap="round" stroke-linejoin="round"/>
<path d="M77.0133 44.9766L73.4453 49.7096" stroke="#121212" stroke-miterlimit="10" stroke-linecap="round" stroke-linejoin="round"/>
<path d="M74.0283 33.6172L70.0234 39.0055" stroke="#121212" stroke-miterlimit="10" stroke-linecap="round" stroke-linejoin="round"/>
<path d="M74.2452 35.2184C76.5025 49.5631 90.9928 63.3981 106.575 66.0922C109.488 66.6019 112.182 66.6748 114.731 66.3835C125.799 65.0728 132.643 56.6262 130.823 44.8301C128.566 30.4126 114.148 16.5049 98.4928 13.8835C95.5802 13.3738 92.886 13.301 90.4103 13.5922C79.2695 14.9029 72.4248 23.3495 74.2452 35.2184Z" fill="white"/>
<g clip-path="url(#clip1_1406_279151)">
<path d="M114.783 34.3345C115.201 34.843 115.124 35.5981 114.611 36.0201C114.097 36.442 113.341 36.3719 112.923 35.8634L110.515 32.9331L109.195 34.0176L111.604 36.9479C112.616 38.1785 114.445 38.3505 115.689 37.3272C116.932 36.3059 117.121 34.479 116.107 33.246L113.698 30.3156L112.379 31.4001L114.788 34.3304L114.783 34.3345Z" fill="black"/>
<path d="M109.418 32.5363C109.892 32.147 109.966 31.4483 109.578 30.9767C109.192 30.5075 108.493 30.4403 108.017 30.8317C107.543 31.2211 107.469 31.9198 107.857 32.3914C108.245 32.863 108.942 32.9277 109.418 32.5363Z" fill="url(#paint1_linear_1406_279151)"/>
<path d="M112.197 30.2487C112.671 29.8594 112.745 29.1606 112.357 28.689C111.969 28.2219 111.272 28.1572 110.798 28.5465C110.324 28.9359 110.25 29.6346 110.638 30.1062C111.024 30.5754 111.721 30.6401 112.197 30.2487Z" fill="url(#paint2_linear_1406_279151)"/>
<path d="M95.358 41.2419C94.8844 41.6313 94.813 42.328 95.2007 42.7996C95.5864 43.2687 96.2857 43.3359 96.7618 42.9445C97.2354 42.5552 97.3093 41.8565 96.9216 41.3849C96.5314 40.9153 95.8341 40.8505 95.358 41.2419Z" fill="url(#paint3_linear_1406_279151)"/>
<path d="M107.636 39.6912C107.685 39.7003 107.73 39.7089 107.775 39.7131L105.554 37.0112L104.234 38.0957L105.286 39.3754C106.291 39.4596 107.065 39.5927 107.636 39.6912Z" fill="black"/>
<path d="M109.825 38.411C110.113 38.7622 110.165 39.2299 110.002 39.6277C109.929 39.8069 109.813 39.9685 109.654 40.099C108.91 40.7106 108.119 40.2492 105.795 39.9948C105.557 39.9682 105.301 39.9443 105.026 39.9234C104.35 39.7585 103.764 39.7177 103.261 39.7526C102.586 39.7558 101.911 39.9608 101.324 40.3692C101.273 40.403 101.231 40.4331 101.194 40.4592C101.15 40.4914 101.118 40.5179 101.093 40.5383C100.944 40.6606 100.806 40.7952 100.685 40.936C100.409 41.253 100.198 41.6077 100.059 41.9851L99.7645 41.6264L98.4453 42.7109L100.602 45.3342L102.086 47.1396L102.758 47.9575L104.075 46.8751L103.784 46.5214L103.403 46.0571L101.919 44.2518C101.448 43.6795 101.42 42.8873 101.787 42.2816C101.885 42.1183 102.009 41.971 102.163 41.8446C102.205 41.81 102.247 41.7798 102.29 41.7521C102.31 41.7403 102.332 41.7264 102.351 41.7146C102.373 41.7008 102.392 41.689 102.414 41.6751C102.443 41.6596 102.474 41.6421 102.505 41.6291C102.51 41.625 102.515 41.6254 102.52 41.6214C102.567 41.5986 102.617 41.5782 102.666 41.5624C102.841 41.5014 103.005 41.4691 103.14 41.4612C103.19 41.4568 103.243 41.4548 103.297 41.4554C103.338 41.4546 103.381 41.4563 103.422 41.4601C103.422 41.4601 103.422 41.4601 103.426 41.4605C103.462 41.4639 103.485 41.466 103.485 41.466C103.485 41.466 105.04 41.6489 106.407 41.8258C106.996 41.9009 107.549 41.9772 107.93 42.0352C109.137 42.2199 110.016 41.9953 110.73 41.4082C110.881 41.2838 111.016 41.1488 111.133 41.0032C111.997 39.9513 112.034 38.4097 111.146 37.329L108.735 34.3962L107.416 35.4807L109.825 38.411Z" fill="url(#paint4_linear_1406_279151)"/>
<path d="M94.0233 46.4881C93.6911 46.7613 93.4367 47.0938 93.259 47.4539L91.8597 45.7518C91.6457 45.4914 91.2608 45.4579 91.0004 45.672L90.1523 46.3691L93.6053 50.5693L94.1363 51.2153L96.0142 53.4997L97.3334 52.4152L95.4555 50.1309L94.9224 49.4824C94.5045 48.974 94.5843 48.2168 95.0951 47.7969C95.6084 47.3749 96.3642 47.4451 96.7822 47.9535L99.1932 50.8863L100.512 49.8018L98.1014 46.869C97.0922 45.6364 95.2657 45.4668 94.0233 46.4881Z" fill="url(#paint5_linear_1406_279151)"/>
<path d="M97.9794 43.0932L96.6602 44.1777L100.973 49.4243L102.292 48.3398L97.9794 43.0932Z" fill="url(#paint6_linear_1406_279151)"/>
</g>
<path d="M74.2452 35.2184C76.5025 49.5631 90.9928 63.3981 106.575 66.0922C109.488 66.6019 112.182 66.6748 114.731 66.3835C125.799 65.0728 132.643 56.6262 130.823 44.8301C128.566 30.4126 114.148 16.5049 98.4928 13.8835C95.5802 13.3738 92.886 13.301 90.4103 13.5922C79.2695 14.9029 72.4248 23.3495 74.2452 35.2184Z" stroke="#121212" stroke-miterlimit="10" stroke-linecap="round" stroke-linejoin="round"/>
<path d="M92.3035 17.8885C94.4151 17.6701 96.6724 17.7429 99.0753 18.1069C112.182 20.3642 124.269 31.9419 126.163 44.0293C127.692 53.8594 121.939 60.9953 112.692 62.0875C110.58 62.306 108.323 62.2332 105.847 61.8691C92.8132 59.6118 80.653 48.0341 78.7598 36.0196C77.3035 26.1167 83.0559 18.9807 92.3035 17.8885Z" stroke="#121212" stroke-width="0.849515" stroke-miterlimit="10" stroke-linecap="round" stroke-linejoin="round"/>
</g>
<g clip-path="url(#clip2_1406_279151)">
<path d="M45.6283 60.5678C32.401 63.9087 20.8101 78.636 19.7192 93.4315C19.5146 96.1587 19.651 98.7496 20.1965 101.068C21.2874 106.045 23.8101 109.931 27.4919 112.318L32.5374 115.659C28.9237 113.272 26.3328 109.386 25.2419 104.409C24.7646 102.091 24.5601 99.5678 24.7646 96.7724C25.8556 81.9769 37.5146 67.3178 50.6737 63.9087C56.2646 62.4769 61.1737 63.2951 64.9919 65.7496L59.9465 62.4087C56.1283 59.9542 51.151 59.136 45.6283 60.5678Z" fill="url(#paint7_linear_1406_279151)"/>
<path d="M45.6283 60.5678C32.401 63.9087 20.8101 78.636 19.7192 93.4315C19.5146 96.1587 19.651 98.7496 20.1965 101.068C21.2874 106.045 23.8101 109.931 27.4919 112.318L32.5374 115.659C28.9237 113.272 26.3328 109.386 25.2419 104.409C24.7646 102.091 24.5601 99.5678 24.7646 96.7724C25.8556 81.9769 37.5146 67.3178 50.6737 63.9087C56.2646 62.4769 61.1737 63.2951 64.9919 65.7496L59.9465 62.4087C56.1283 59.9542 51.151 59.136 45.6283 60.5678Z" stroke="#121212" stroke-miterlimit="10" stroke-linecap="round" stroke-linejoin="round"/>
<path d="M25.2408 104.341L20.1953 101.068" stroke="#121212" stroke-miterlimit="10" stroke-linecap="round" stroke-linejoin="round"/>
<path d="M31.7173 77.9544L26.6719 74.6816" stroke="#121212" stroke-miterlimit="10" stroke-linecap="round" stroke-linejoin="round"/>
<path d="M25.9222 90.2946L20.8086 87.1582" stroke="#121212" stroke-miterlimit="10" stroke-linecap="round" stroke-linejoin="round"/>
<path d="M41.8782 67.3185L37.1055 64.3867" stroke="#121212" stroke-miterlimit="10" stroke-linecap="round" stroke-linejoin="round"/>
<path d="M52.1754 63.5676L46.7891 60.2949" stroke="#121212" stroke-miterlimit="10" stroke-linecap="round" stroke-linejoin="round"/>
<path d="M50.6756 63.8392C37.5165 67.2483 25.8574 81.9074 24.7665 96.7028C24.5619 99.4301 24.7665 102.021 25.2438 104.339C27.4256 114.566 35.9483 120.157 46.721 117.43C60.0165 114.021 71.6074 99.3619 72.6983 84.4983C72.9028 81.771 72.6983 79.2483 72.221 76.9301C70.1074 66.771 61.5165 61.1119 50.6756 63.8392Z" fill="white"/>
<g clip-path="url(#clip3_1406_279151)">
<path d="M59.0292 99.5232C58.7011 100.091 57.9693 100.284 57.3957 99.9526C56.822 99.6214 56.6227 98.8914 56.9508 98.3232L58.8415 95.0484L57.3672 94.1973L55.4765 97.472C54.6825 98.8473 55.1626 100.614 56.5537 101.417C57.9421 102.219 59.7134 101.756 60.509 100.378L62.3997 97.1028L60.9254 96.2516L59.0347 99.5264L59.0292 99.5232Z" fill="black"/>
<path d="M58.8266 93.884C59.3559 94.1896 60.0338 94.0137 60.3381 93.4867C60.6408 92.9624 60.4585 92.2862 59.9264 91.979C59.3971 91.6734 58.7192 91.8493 58.4149 92.3763C58.1106 92.9034 58.2945 93.5768 58.8266 93.884Z" fill="url(#paint8_linear_1406_279151)"/>
<path d="M61.9336 95.6782C62.4629 95.9838 63.1409 95.8079 63.4452 95.2808C63.7451 94.7549 63.5612 94.0815 63.0319 93.7759C62.5026 93.4703 61.8247 93.6462 61.5204 94.1732C61.2177 94.6975 61.4016 95.371 61.9336 95.6782Z" fill="url(#paint9_linear_1406_279151)"/>
<path d="M45.7752 83.8114C45.2459 83.5058 44.5708 83.6833 44.2665 84.2103C43.9638 84.7346 44.1461 85.4108 44.6781 85.718C45.2074 86.0236 45.8854 85.8477 46.1897 85.3207C46.4912 84.7921 46.3073 84.1186 45.7752 83.8114Z" fill="url(#paint10_linear_1406_279151)"/>
<path d="M51.5232 94.7298C51.5319 94.7787 51.5394 94.8233 51.5513 94.8668L53.2946 91.8473L51.8203 90.9961L50.9946 92.4262C51.2679 93.3929 51.4149 94.1622 51.5232 94.7298Z" fill="black"/>
<path d="M53.484 96.324C53.2574 96.7165 52.8392 96.9289 52.4107 96.9158C52.2179 96.9106 52.0263 96.8585 51.8489 96.7561C51.0176 96.2762 51.1711 95.3766 50.5942 93.1184C50.5357 92.8869 50.4681 92.6393 50.3913 92.3754C50.3084 91.687 50.1411 91.1256 49.9322 90.6683C49.6929 90.0397 49.265 89.4815 48.6784 89.0769C48.6289 89.0411 48.5861 89.0127 48.5489 88.9876C48.5034 88.9576 48.4674 88.9368 48.4396 88.9208C48.2734 88.8248 48.0992 88.7426 47.9254 88.6788C47.533 88.5328 47.128 88.46 46.7273 88.4629L46.9586 88.0621L45.4844 87.2109L43.7918 90.1426L42.6269 92.1602L42.0992 93.0743L43.5707 93.9238L43.7989 93.5285L44.0984 93.0097L45.2633 90.9922C45.6325 90.3526 46.362 90.0491 47.0557 90.1787C47.2426 90.2134 47.4235 90.2776 47.5953 90.3768C47.6424 90.404 47.6852 90.4324 47.7264 90.4635C47.7442 90.4774 47.7648 90.4929 47.7826 90.5069C47.8032 90.5224 47.821 90.5364 47.8416 90.5519C47.8661 90.5734 47.8934 90.5965 47.9164 90.6207C47.9219 90.6239 47.9231 90.6283 47.9286 90.6315C47.9666 90.6681 48.0031 90.7074 48.0351 90.7479C48.1531 90.8891 48.2409 91.0314 48.2955 91.1544C48.3173 91.1999 48.3375 91.2481 48.3561 91.2991C48.3711 91.3371 48.3845 91.3778 48.3952 91.4169C48.3952 91.4169 48.3952 91.4169 48.3964 91.4213C48.4059 91.456 48.4118 91.4777 48.4118 91.4777C48.4118 91.4777 48.7859 92.993 49.0998 94.3308C49.2362 94.9073 49.3588 95.4502 49.4378 95.8253C49.6884 97.0167 50.2061 97.7584 51.0042 98.2192C51.1732 98.3168 51.3463 98.3947 51.5232 98.453C52.8076 98.8908 54.2594 98.3857 54.9567 97.1779L56.849 93.9004L55.3747 93.0492L53.484 96.324Z" fill="url(#paint11_linear_1406_279151)"/>
<path d="M40.4132 84.4101C40.0418 84.1957 39.6424 84.0749 39.244 84.0352L40.3423 82.1329C40.5103 81.842 40.4067 81.471 40.1157 81.303L39.168 80.7559L36.4579 85.4498L36.0411 86.1717L34.5672 88.7246L36.0415 89.5758L37.5154 87.0229L37.9338 86.2982C38.2618 85.73 38.9964 85.5393 39.5673 85.8688C40.1409 86.2 40.3402 86.93 40.0122 87.4982L38.1199 90.7757L39.5942 91.6269L41.4864 88.3494C42.2832 86.9757 41.8015 85.2117 40.4132 84.4101Z" fill="url(#paint12_linear_1406_279151)"/>
<path d="M44.9665 86.9117L43.4922 86.0605L40.107 91.9239L41.5813 92.775L44.9665 86.9117Z" fill="url(#paint13_linear_1406_279151)"/>
</g>
<path d="M50.6756 63.8392C37.5165 67.2483 25.8574 81.9074 24.7665 96.7028C24.5619 99.4301 24.7665 102.021 25.2438 104.339C27.4256 114.566 35.9483 120.157 46.721 117.43C60.0165 114.021 71.6074 99.3619 72.6983 84.4983C72.9028 81.771 72.6983 79.2483 72.221 76.9301C70.1074 66.771 61.5165 61.1119 50.6756 63.8392Z" stroke="#121212" stroke-miterlimit="10" stroke-linecap="round" stroke-linejoin="round"/>
<path d="M68.4691 79.1823C68.8782 81.0914 69.0146 83.2732 68.8782 85.5232C67.9918 97.9323 58.2418 110.273 47.1282 113.069C38.06 115.387 30.9691 110.614 29.1282 102.091C28.7191 100.182 28.5827 98.0005 28.7191 95.7505C29.6737 83.4095 39.3555 71.0686 50.4009 68.205C59.4691 65.8868 66.6282 70.6595 68.4691 79.1823Z" stroke="#121212" stroke-width="0.681818" stroke-miterlimit="10" stroke-linecap="round" stroke-linejoin="round"/>
</g>
<g clip-path="url(#clip4_1406_279151)">
<path d="M21.1823 58.6799C33.9601 55.9716 48.8212 42.0132 54.4462 27.5688C55.4878 24.8605 56.1129 22.3605 56.3906 20.0688C57.0156 15.1382 55.974 11.1799 53.474 8.6799L48.9601 4.16602C51.4601 6.66602 52.5017 10.6243 51.8767 15.5549C51.599 17.8466 50.9045 20.3466 49.9323 23.0549C44.3073 37.5688 29.3767 51.4577 16.599 54.166C11.2517 55.2771 7.08507 54.3049 4.51562 51.666L9.09896 56.1799C11.6684 58.8188 15.8351 59.791 21.1823 58.6799Z" fill="url(#paint14_linear_1406_279151)"/>
<path d="M21.1823 58.6799C33.9601 55.9716 48.8212 42.0132 54.4462 27.5688C55.4878 24.8605 56.1128 22.3605 56.3906 20.0688C57.0156 15.1382 55.974 11.1799 53.474 8.6799L48.9601 4.16602C51.4601 6.66602 52.5017 10.6243 51.8767 15.5549C51.599 17.8466 50.9045 20.3466 49.9323 23.0549C44.3073 37.5688 29.3767 51.4577 16.599 54.166C11.2517 55.2771 7.08507 54.3049 4.51562 51.666L9.09896 56.1799C11.6684 58.8188 15.8351 59.791 21.1823 58.6799Z" stroke="#212121" stroke-miterlimit="10" stroke-linecap="round" stroke-linejoin="round"/>
<path d="M51.875 15.5547L56.4583 20.0686" stroke="#212121" stroke-miterlimit="10" stroke-linecap="round" stroke-linejoin="round"/>
<path d="M37.8516 41.1797L42.4349 45.6936" stroke="#212121" stroke-miterlimit="10" stroke-linecap="round" stroke-linejoin="round"/>
<path d="M46.875 29.375L51.5278 33.6806" stroke="#212121" stroke-miterlimit="10" stroke-linecap="round" stroke-linejoin="round"/>
<path d="M25.5586 51.25L29.9336 55.2778" stroke="#212121" stroke-miterlimit="10" stroke-linecap="round" stroke-linejoin="round"/>
<path d="M15.2109 54.4434L20.072 58.8878" stroke="#212121" stroke-miterlimit="10" stroke-linecap="round" stroke-linejoin="round"/>
<path d="M16.3894 54.4441C28.8199 52.083 43.681 38.1941 49.5144 23.5414C50.6255 20.833 51.2505 18.2636 51.5977 15.9025C53.056 5.55525 47.5699 -0.694748 37.431 1.2497C24.8616 3.61081 10.0005 17.4303 4.16714 32.2219C3.12547 34.9303 2.43103 37.4997 2.0838 39.8608C0.625472 50.1386 6.11158 56.458 16.3894 54.4441Z" fill="white"/>
<path d="M16.3894 54.4441C28.8199 52.083 43.681 38.1941 49.5144 23.5414C50.6255 20.833 51.2505 18.2636 51.5977 15.9025C53.056 5.55525 47.5699 -0.694748 37.431 1.2497C24.8616 3.61081 10.0005 17.4303 4.16714 32.2219C3.12547 34.9303 2.43103 37.4997 2.0838 39.8608C0.625472 50.1386 6.11158 56.458 16.3894 54.4441Z" stroke="#212121" stroke-miterlimit="10" stroke-linecap="round" stroke-linejoin="round"/>
<path d="M6.10933 37.848C6.38711 35.9035 6.94266 33.7508 7.84544 31.4591C12.776 19.1674 25.2066 7.5702 35.6927 5.55631C44.2343 3.95909 48.8177 9.16742 47.5677 17.848C47.2899 19.7924 46.7343 21.9452 45.8316 24.2369C40.9704 36.5285 28.5399 48.1257 18.1232 50.1396C9.44267 51.8063 4.85933 46.5285 6.10933 37.848Z" stroke="#212121" stroke-width="0.68" stroke-miterlimit="10" stroke-linecap="round" stroke-linejoin="round"/>
<g clip-path="url(#clip5_1406_279151)">
<path d="M34.3964 35.0931C34.0537 35.5006 33.4416 35.5504 33.0302 35.2044C32.6189 34.8584 32.5632 34.2468 32.906 33.8393L34.8815 31.4909L33.8242 30.6016L31.8487 32.95C31.0191 33.9362 31.152 35.4161 32.1496 36.2553C33.1453 37.0928 34.6264 36.974 35.4577 35.9858L37.4331 33.6374L36.3759 32.748L34.4004 35.0964L34.3964 35.0931Z" fill="black"/>
<path d="M35.0365 30.5595C35.4161 30.8788 35.9827 30.8345 36.3007 30.4565C36.617 30.0805 36.5672 29.5143 36.1857 29.1934C35.8061 28.8741 35.2394 28.9184 34.9215 29.2964C34.6036 29.6743 34.6549 30.2385 35.0365 30.5595Z" fill="url(#paint15_linear_1406_279151)"/>
<path d="M37.2647 32.4345C37.6443 32.7538 38.211 32.7094 38.5289 32.3315C38.8432 31.9538 38.7918 31.3896 38.4122 31.0703C38.0327 30.751 37.466 30.7954 37.1481 31.1733C36.8318 31.5493 36.8832 32.1135 37.2647 32.4345Z" fill="url(#paint16_linear_1406_279151)"/>
<path d="M26.0353 20.6585C25.6557 20.3392 25.091 20.3852 24.7731 20.7631C24.4568 21.1391 24.5065 21.7053 24.8881 22.0263C25.2676 22.3456 25.8343 22.3013 26.1522 21.9233C26.4682 21.5437 26.4168 20.9794 26.0353 20.6585Z" fill="url(#paint17_linear_1406_279151)"/>
<path d="M29.0804 30.1991C29.0804 30.2394 29.0801 30.2761 29.0834 30.3125L30.9049 28.1472L29.8477 27.2578L28.9849 28.2834C29.0661 29.0946 29.0744 29.7302 29.0804 30.1991Z" fill="black"/>
<path d="M30.4231 31.751C30.1864 32.0325 29.822 32.1429 29.4816 32.0716C29.3282 32.0401 29.1825 31.9713 29.0553 31.8643C28.4591 31.3628 28.7095 30.6658 28.5689 28.7795C28.555 28.5862 28.5361 28.3787 28.5123 28.157C28.5437 27.5952 28.4897 27.1228 28.3877 26.7278C28.2856 26.1915 28.023 25.6848 27.6116 25.2783C27.5771 25.2426 27.547 25.2139 27.5208 25.1885C27.4887 25.1581 27.4629 25.1364 27.443 25.1196C27.3238 25.0193 27.1962 24.9289 27.0664 24.8533C26.7736 24.6809 26.4603 24.5653 26.1397 24.5107L26.3815 24.2233L25.3242 23.334L23.5557 25.4363L22.3386 26.8832L21.7872 27.5387L22.8425 28.4264L23.0809 28.1429L23.3939 27.7709L24.611 26.324C24.9968 25.8654 25.6228 25.7263 26.1586 25.9284C26.3031 25.9826 26.4385 26.0596 26.5617 26.1632C26.5955 26.1917 26.6257 26.2204 26.6541 26.2511C26.6664 26.2647 26.6806 26.2801 26.6929 26.2937C26.7071 26.3091 26.7194 26.3228 26.7336 26.3381C26.7502 26.3588 26.7687 26.3811 26.7836 26.4037C26.7876 26.407 26.788 26.4107 26.7919 26.414C26.8171 26.4487 26.8406 26.4852 26.8605 26.5221C26.9347 26.6518 26.9847 26.7779 27.0109 26.8839C27.0218 26.9234 27.0311 26.9648 27.0387 27.0082C27.0453 27.0406 27.0503 27.0751 27.0533 27.1078C27.0533 27.1078 27.0533 27.1078 27.0536 27.1115C27.0563 27.1406 27.0579 27.1588 27.0579 27.1588C27.0579 27.1588 27.1418 28.4227 27.2028 29.5362C27.23 30.0162 27.2509 30.4674 27.2608 30.7783C27.292 31.7659 27.6004 32.432 28.1727 32.9135C28.2939 33.0155 28.4211 33.1023 28.5543 33.1739C29.5184 33.706 30.7501 33.5084 31.4787 32.6423L33.4559 30.2919L32.3986 29.4026L30.4231 31.751Z" fill="url(#paint18_linear_1406_279151)"/>
<path d="M21.6678 20.374C21.4015 20.15 21.0995 19.9967 20.7868 19.9085L21.9344 18.5443C22.1099 18.3357 22.0797 18.0246 21.8711 17.8491L21.1914 17.2773L18.3598 20.6435L17.9243 21.1612L16.3844 22.9919L17.4416 23.8812L18.9816 22.0505L19.4187 21.5309C19.7615 21.1234 20.3755 21.0752 20.7849 21.4195C21.1963 21.7656 21.252 22.3771 20.9092 22.7846L18.9321 25.135L19.9893 26.0243L21.9664 23.674C22.798 22.6894 22.6635 21.2115 21.6678 20.374Z" fill="url(#paint19_linear_1406_279151)"/>
<path d="M24.9518 23.0202L23.8945 22.1309L20.3575 26.3356L21.4148 27.2249L24.9518 23.0202Z" fill="url(#paint20_linear_1406_279151)"/>
</g>
</g>
<defs>
<linearGradient id="paint0_linear_1406_279151" x1="75.827" y1="15.9987" x2="121.406" y2="27.0527" gradientUnits="userSpaceOnUse">
<stop stop-color="#FFE9D0"/>
<stop offset="1" stop-color="#FFC27C"/>
</linearGradient>
<linearGradient id="paint1_linear_1406_279151" x1="115.544" y1="39.9895" x2="107.24" y2="29.889" gradientUnits="userSpaceOnUse">
<stop stop-color="#E74C69"/>
<stop offset="1" stop-color="#F8846F"/>
</linearGradient>
<linearGradient id="paint2_linear_1406_279151" x1="118.323" y1="37.7019" x2="110.02" y2="27.6014" gradientUnits="userSpaceOnUse">
<stop stop-color="#E74C69"/>
<stop offset="1" stop-color="#F8846F"/>
</linearGradient>
<linearGradient id="paint3_linear_1406_279151" x1="102.948" y1="50.4724" x2="94.7727" y2="40.5281" gradientUnits="userSpaceOnUse">
<stop stop-color="#E74C69"/>
<stop offset="1" stop-color="#F8846F"/>
</linearGradient>
<linearGradient id="paint4_linear_1406_279151" x1="109.175" y1="45.3509" x2="101" y2="35.4066" gradientUnits="userSpaceOnUse">
<stop stop-color="#E74C69"/>
<stop offset="1" stop-color="#F8846F"/>
</linearGradient>
<linearGradient id="paint5_linear_1406_279151" x1="99.5739" y1="53.2416" x2="91.3989" y2="43.2973" gradientUnits="userSpaceOnUse">
<stop stop-color="#E74C69"/>
<stop offset="1" stop-color="#F8846F"/>
</linearGradient>
<linearGradient id="paint6_linear_1406_279151" x1="102.943" y1="50.4735" x2="94.7678" y2="40.5292" gradientUnits="userSpaceOnUse">
<stop stop-color="#E74C69"/>
<stop offset="1" stop-color="#F8846F"/>
</linearGradient>
<linearGradient id="paint7_linear_1406_279151" x1="24.2783" y1="55.3636" x2="61.2253" y2="61.8843" gradientUnits="userSpaceOnUse">
<stop stop-color="#FFE9D0"/>
<stop offset="1" stop-color="#FFC27C"/>
</linearGradient>
<linearGradient id="paint8_linear_1406_279151" x1="54.0172" y1="102.212" x2="60.5342" y2="90.9242" gradientUnits="userSpaceOnUse">
<stop stop-color="#E74C69"/>
<stop offset="1" stop-color="#F8846F"/>
</linearGradient>
<linearGradient id="paint9_linear_1406_279151" x1="57.1242" y1="104.006" x2="63.6413" y2="92.7183" gradientUnits="userSpaceOnUse">
<stop stop-color="#E74C69"/>
<stop offset="1" stop-color="#F8846F"/>
</linearGradient>
<linearGradient id="paint10_linear_1406_279151" x1="39.8202" y1="94.1284" x2="46.2364" y2="83.0151" gradientUnits="userSpaceOnUse">
<stop stop-color="#E74C69"/>
<stop offset="1" stop-color="#F8846F"/>
</linearGradient>
<linearGradient id="paint11_linear_1406_279151" x1="46.7798" y1="98.1492" x2="53.1961" y2="87.0359" gradientUnits="userSpaceOnUse">
<stop stop-color="#E74C69"/>
<stop offset="1" stop-color="#F8846F"/>
</linearGradient>
<linearGradient id="paint12_linear_1406_279151" x1="36.0552" y1="91.9563" x2="42.4715" y2="80.843" gradientUnits="userSpaceOnUse">
<stop stop-color="#E74C69"/>
<stop offset="1" stop-color="#F8846F"/>
</linearGradient>
<linearGradient id="paint13_linear_1406_279151" x1="39.8179" y1="94.1295" x2="46.2341" y2="83.0162" gradientUnits="userSpaceOnUse">
<stop stop-color="#E74C69"/>
<stop offset="1" stop-color="#F8846F"/>
</linearGradient>
<linearGradient id="paint14_linear_1406_279151" x1="9.85061" y1="-0.266783" x2="51.7939" y2="8.35529" gradientUnits="userSpaceOnUse">
<stop stop-color="#FFE9D0"/>
<stop offset="1" stop-color="#FFC27C"/>
</linearGradient>
<linearGradient id="paint15_linear_1406_279151" x1="30.0118" y1="36.5315" x2="36.821" y2="28.4367" gradientUnits="userSpaceOnUse">
<stop stop-color="#E74C69"/>
<stop offset="1" stop-color="#F8846F"/>
</linearGradient>
<linearGradient id="paint16_linear_1406_279151" x1="32.24" y1="38.4065" x2="39.0492" y2="30.3117" gradientUnits="userSpaceOnUse">
<stop stop-color="#E74C69"/>
<stop offset="1" stop-color="#F8846F"/>
</linearGradient>
<linearGradient id="paint17_linear_1406_279151" x1="19.8128" y1="28.0573" x2="26.5168" y2="20.0877" gradientUnits="userSpaceOnUse">
<stop stop-color="#E74C69"/>
<stop offset="1" stop-color="#F8846F"/>
</linearGradient>
<linearGradient id="paint18_linear_1406_279151" x1="24.8072" y1="32.2581" x2="31.5111" y2="24.2885" gradientUnits="userSpaceOnUse">
<stop stop-color="#E74C69"/>
<stop offset="1" stop-color="#F8846F"/>
</linearGradient>
<linearGradient id="paint19_linear_1406_279151" x1="17.1147" y1="25.7853" x2="23.8187" y2="17.8157" gradientUnits="userSpaceOnUse">
<stop stop-color="#E74C69"/>
<stop offset="1" stop-color="#F8846F"/>
</linearGradient>
<linearGradient id="paint20_linear_1406_279151" x1="19.8135" y1="28.057" x2="26.5175" y2="20.0874" gradientUnits="userSpaceOnUse">
<stop stop-color="#E74C69"/>
<stop offset="1" stop-color="#F8846F"/>
</linearGradient>
<clipPath id="clip0_1406_279151">
<rect width="62.9854" height="60" fill="white" transform="translate(69 12.5)"/>
</clipPath>
<clipPath id="clip1_1406_279151">
<rect width="28.3769" height="9.88891" fill="white" transform="translate(89.7344 45.8613) rotate(-39.423)"/>
</clipPath>
<clipPath id="clip2_1406_279151">
<rect width="54.8864" height="60" fill="white" transform="translate(18.7656 59)"/>
</clipPath>
<clipPath id="clip3_1406_279151">
<rect width="28.2871" height="9.85761" fill="white" transform="translate(39.4922 80.1875) rotate(30)"/>
</clipPath>
<clipPath id="clip4_1406_279151">
<rect width="56.5278" height="60" fill="white" transform="translate(0.972656)"/>
</clipPath>
<clipPath id="clip5_1406_279151">
<rect width="22.9565" height="8" fill="white" transform="translate(21.5352 16.8711) rotate(40.0703)"/>
</clipPath>
</defs>
</svg>
