<svg width="56" height="56" viewBox="0 0 56 56" fill="none" xmlns="http://www.w3.org/2000/svg">
<path d="M53.0924 36.8375C53.0227 35.9716 52.7695 35.1305 52.3494 34.3701C51.9294 33.6097 51.3523 32.9475 50.6564 32.4275C49.9092 31.7463 49.2017 31.023 48.5372 30.261C47.9518 29.5793 47.8372 28.294 47.6937 26.6682C47.5948 24.7627 47.2402 22.8792 46.6393 21.0682C46.0684 19.4875 45.0824 18.0897 43.7851 17.0213C42.1908 15.6026 40.88 13.8945 39.9219 11.9875C36.7807 6.03747 31.3014 2.86209 24.9148 3.28559C20.5328 3.53059 17.3688 4.98047 15.2399 7.71484C13.9984 9.20746 13.1842 11.0083 12.8836 12.9263C12.8127 13.3541 12.716 13.7773 12.5939 14.1933C12.0616 15.5563 11.2893 16.8129 10.3137 17.9033C8.6118 19.9666 6.68418 22.3125 7.44455 27.2177L7.50143 27.5878C8.3913 33.32 8.3913 33.32 5.47843 35.7586C3.3268 37.5646 2.3503 39.9665 2.87268 42.1828C3.09974 43.1093 3.58457 43.9525 4.27105 44.6148C4.95752 45.2771 5.81755 45.7315 6.75155 45.9252C7.62582 46.1415 8.44769 46.5313 9.1683 47.0715C9.82301 47.5708 10.5717 47.933 11.3695 48.1364C12.1674 48.3398 12.9981 48.3803 13.8119 48.2553C13.6137 48.7682 13.5997 49.334 13.7724 49.8561C13.9451 50.3781 14.2937 50.824 14.7587 51.1175C16.8464 52.5691 20.5101 53.305 25.6481 53.305C31.6436 53.305 38.4686 51.1105 39.9394 50.2127L40.2019 50.0543C41.1566 49.4777 42.5644 48.6123 42.3107 47.2351C42.8297 46.9561 43.3269 46.6385 43.7982 46.2848C45.2696 45.1863 46.9237 44.3569 48.6842 43.8348C51.9129 42.917 53.4276 39.1387 53.0924 36.8375ZM39.7461 49.3053L39.4836 49.4663C37.9996 50.3711 31.2393 52.43 25.6481 52.43C20.6921 52.43 17.1964 51.7466 15.2592 50.4008C14.7753 50.0613 14.2284 49.4541 14.7919 48.1521C18.0434 47.6638 19.0707 45.843 19.9737 44.2268C20.2143 43.7972 21.0491 42.539 21.2197 42.3115C21.9476 42.701 22.7492 42.9335 23.5726 42.994L23.7327 46.3382C23.7372 46.4364 23.7746 46.5301 23.8389 46.6044C23.9032 46.6787 23.9906 46.7292 24.0871 46.7477C24.1836 46.7663 24.2836 46.7518 24.371 46.7065C24.4583 46.6613 24.5278 46.5879 24.5683 46.4983L26.0217 43.2853C27.4806 43.0765 28.9118 42.7065 30.2891 42.182C30.3039 42.2257 30.3118 42.2651 30.3276 42.3097C30.6294 43.1313 31.0549 43.902 31.5893 44.5952C33.4207 47.0855 35.7219 48.3691 38.2034 48.3691C39.327 48.3521 40.4352 48.1058 41.4602 47.6455C41.3762 48.2615 40.6368 48.7681 39.7461 49.3053ZM24.6768 35.2257C24.8588 35.1995 26.0401 34.9702 26.4566 34.8565C26.93 34.727 27.3972 34.5754 27.8566 34.4023C27.9127 34.384 27.9645 34.3544 28.0088 34.3154C28.0532 34.2765 28.0893 34.229 28.1148 34.1757C28.1403 34.1225 28.1548 34.0646 28.1574 34.0056C28.1599 33.9466 28.1505 33.8877 28.1297 33.8325C28.1089 33.7772 28.0771 33.7267 28.0363 33.6841C27.9955 33.6414 27.9464 33.6075 27.8921 33.5843C27.8378 33.5611 27.7794 33.5491 27.7203 33.5491C27.6613 33.5491 27.6029 33.561 27.5486 33.5842C26.7437 33.8895 25.9124 34.12 25.0653 34.2728C24.8798 34.3078 24.2349 34.4067 23.5874 34.4478C23.1863 34.4732 22.784 34.4755 22.3826 34.4548C19.5616 34.2851 16.1884 31.5953 15.6984 29.1287C15.437 27.5725 15.2815 26.0003 15.2329 24.423C15.1638 23.1481 15.0921 21.8295 14.9171 20.6246C14.9564 18.5644 15.3123 16.5225 15.9723 14.5705C16.8027 12.0548 17.8973 10.4518 19.0602 10.059C19.4346 9.95396 19.829 9.94154 20.2093 10.0228C20.5896 10.104 20.9445 10.2765 21.2433 10.5253C21.304 10.5668 21.3741 10.5922 21.4472 10.5994C21.5203 10.6066 21.594 10.5953 21.6616 10.5665C23.2322 9.89534 24.3356 9.72209 25.0382 10.031C25.8773 10.4028 26.2632 11.5185 26.7532 12.9342C27.2884 14.7945 28.1964 16.5266 29.4219 18.025C30.9094 19.7155 30.4098 22.1961 29.1218 25.6515C27.9414 28.8155 29.0623 30.7265 29.9636 32.256C30.268 32.7196 30.5137 33.2193 30.6951 33.7435C31.1168 35.1737 31.0352 36.7052 30.4641 38.0826C30.0411 39.1059 29.9047 40.2251 30.0694 41.3201C28.6629 41.8758 27.1917 42.2512 25.6909 42.4375C25.6131 42.4438 25.5384 42.4708 25.4745 42.5157C25.4107 42.5607 25.36 42.6219 25.3278 42.693L24.5202 44.4797L24.4283 42.5608C24.4233 42.4507 24.3769 42.3465 24.2984 42.2692C24.2198 42.1918 24.115 42.1469 24.0048 42.1435C23.238 42.1274 22.4831 41.9513 21.7884 41.6263C22.011 41.3635 22.2757 41.1394 22.5716 40.9631C22.8988 40.7951 25.6393 39.2297 24.6768 35.2257Z" fill="#7A7A7A" fill-opacity="0.5"/>
</svg>
