<svg width="50" height="50" viewBox="0 0 50 50" fill="none" xmlns="http://www.w3.org/2000/svg">
<rect x="0.5" y="0.5" width="49" height="49" rx="24.5" fill="white"/>
<rect x="0.5" y="0.5" width="49" height="49" rx="24.5" stroke="#EEEEEE"/>
<g clip-path="url(#clip0_2371_34761)">
<path d="M15.7194 28.4779L14.5591 32.8094L10.3183 32.8991C9.05091 30.5484 8.33203 27.8589 8.33203 25.0008C8.33203 22.237 9.00417 19.6308 10.1956 17.3359H10.1965L13.972 18.0281L15.6259 21.781C15.2798 22.7902 15.0911 23.8735 15.0911 25.0008C15.0912 26.2242 15.3128 27.3964 15.7194 28.4779Z" fill="#FBBB00"/>
<path d="M41.3762 21.8867C41.5676 22.8949 41.6674 23.9361 41.6674 25.0003C41.6674 26.1935 41.542 27.3574 41.303 28.4801C40.4917 32.3007 38.3717 35.6367 35.4349 37.9975L35.434 37.9966L30.6785 37.754L30.0055 33.5525C31.9542 32.4096 33.4771 30.6212 34.2793 28.4801H25.3672V21.8867H41.3762Z" fill="#518EF8"/>
<path d="M35.4339 37.9977L35.4348 37.9986C32.5786 40.2944 28.9503 41.668 25.0007 41.668C18.6536 41.668 13.1354 38.1204 10.3203 32.8997L15.7214 28.4785C17.1289 32.2349 20.7525 34.9089 25.0007 34.9089C26.8267 34.9089 28.5374 34.4153 30.0053 33.5536L35.4339 37.9977Z" fill="#28B446"/>
<path d="M35.6367 12.171L30.2374 16.5913C28.7182 15.6417 26.9224 15.0931 24.9984 15.0931C20.6541 15.0931 16.9627 17.8898 15.6257 21.7809L10.1962 17.3358H10.1953C12.9691 11.9878 18.557 8.33398 24.9984 8.33398C29.0424 8.33398 32.7503 9.77448 35.6367 12.171Z" fill="#F14336"/>
</g>
<defs>
<clipPath id="clip0_2371_34761">
<rect width="33.3333" height="33.3333" fill="white" transform="translate(8.33203 8.33398)"/>
</clipPath>
</defs>
</svg>
