<svg width="154" height="165" viewBox="0 0 154 165" fill="none" xmlns="http://www.w3.org/2000/svg">
<g clip-path="url(#clip0_1323_136329)">
<path fill-rule="evenodd" clip-rule="evenodd" d="M30.4978 85.4635V85.4942C30.4978 85.5249 30.4978 85.4942 30.4978 85.4635ZM0.963562 85.1872C2.49225 84.9109 3.40947 85.1872 5.88594 86.7224C8.20955 88.1654 11.2975 89.762 12.3676 90.0997C12.9485 90.284 13.0402 90.1919 13.0402 89.6085C13.0402 88.1347 14.4772 87.3978 15.8835 88.1347C16.3727 88.411 16.5562 88.411 16.6479 88.1347C17.0453 86.968 18.7269 86.446 19.4301 87.275C19.6135 87.5207 19.8581 88.626 19.9804 89.7313C20.0722 90.8366 20.2556 91.7577 20.3473 91.7577C20.8976 91.7577 25.2697 89.455 25.2697 89.1479C25.2697 88.9637 26.4315 88.0426 27.8685 87.1215C27.8685 87.1215 29.4583 86.1083 30.4672 85.4635C30.5284 85.4635 32.9437 83.867 34.503 82.8537C36.0622 81.8405 38.1718 80.5203 39.1808 79.8755C40.1897 79.2307 45.8764 75.4542 51.8077 71.4935C57.739 67.5021 63.2423 63.8483 64.0372 63.3571C65.8716 62.2211 67.7978 61.6377 69.6322 61.6377C70.4271 61.6377 71.1609 61.5149 71.2526 61.3921C71.3443 61.2693 69.4182 60.3482 67.0029 59.3964C64.5875 58.4138 60.9187 56.9094 58.8702 56.0497L55.1403 54.4531L49.6064 55.5891C42.6967 57.0015 41.5349 56.848 39.6394 54.2382C38.5081 52.703 38.5081 52.3346 39.5476 51.3521C40.1591 50.7687 40.2814 50.4924 40.0062 50.216C39.4559 49.6634 39.5782 48.4967 40.2508 48.1589C41.0152 47.7291 40.9235 47.6984 42.2687 48.773C43.7362 49.9397 44.4089 49.9397 46.7019 48.7423L48.5363 47.7905L47.7108 47.1457C46.4879 46.1939 46.121 45.6719 46.121 44.7508C46.121 44.1982 46.3044 43.8604 46.6713 43.7376C47.2828 43.5534 50.1567 44.5973 55.446 46.9615C67.7061 52.4574 82.7484 54.7601 93.4797 52.8258C102.591 51.1678 112.038 46.6237 117.786 41.0357C120.232 38.6716 122.831 36.6451 124.298 35.939C124.971 35.6012 125.766 34.7108 126.713 33.2064C128.028 31.1185 128.212 30.9343 129.71 30.5045C131.391 30.0132 131.697 29.6448 131.697 27.8333C131.697 27.1578 131.513 26.9429 130.871 26.7894C127.141 25.899 125.521 22.5523 126.652 18.0696C127.264 15.6747 128.578 12.6044 130.046 10.056C131.055 8.30592 131.085 8.18311 130.627 7.63045C130.352 7.32341 129.924 5.88035 129.679 4.43729C129.312 2.22665 129.282 1.67399 129.618 0.967811C129.985 0.200226 130.199 0.108116 131.789 0.0160055C133.287 -0.0761047 134.326 0.200226 138.484 1.61258C141.205 2.56439 143.682 3.33197 144.018 3.33197C144.354 3.33197 145.058 3.79252 145.608 4.34518C147.779 6.52512 147.718 11.192 145.425 15.0914C144.752 16.2581 144.63 16.7186 144.844 17.1485C145.639 18.653 144.782 20.3724 143.07 20.7101C142.275 20.8636 142.184 21.0785 141.542 23.6883C141.175 25.2235 140.686 27.5876 140.472 28.8772C140.074 31.2106 140.074 31.2721 140.716 31.2721C141.786 31.2721 142.031 31.6098 142.734 34.0354C143.284 35.9083 143.712 36.6451 144.997 38.0575C149.521 43.0929 152.212 50.7073 152.671 60.0718C152.915 64.923 152.426 71.0022 151.723 72.5374C151.203 73.6427 151.203 73.6734 152.273 76.9587C153.802 81.5642 154.138 84.4196 153.955 90.5296C153.771 96.5168 153.19 99.0344 151.142 103.333C149.644 106.465 147.718 109.197 145.486 111.316C139.952 116.627 133.776 118.746 121.944 119.391L118.122 119.606L118.03 132.992L117.939 146.379L119.559 147.024C121.394 147.761 127.019 149.879 134.632 152.765C149.674 158.445 149.307 158.261 148.665 159.305C147.87 160.564 141.022 162.161 133.256 162.897C118.703 164.279 105.251 163.972 93.0517 161.946C85.5306 160.687 81.5865 159.489 81.5865 158.384C81.5865 158.016 81.7394 157.954 96.1091 152.612C101.154 150.739 106.107 148.866 107.116 148.467C108.125 148.068 109.714 147.484 110.632 147.147L112.313 146.533L112.405 133.023L112.497 119.514L110.876 119.299C99.7168 117.917 93.388 116.167 85.4083 112.237C80.6999 109.934 77.0922 107.723 75.0743 105.943C74.2794 105.237 73.9125 105.052 73.8208 105.359C73.7597 105.574 73.3928 106.68 73.0565 107.785C72.017 111.07 69.5405 121.786 66.4525 136.339C65.8716 139.133 64.985 143.124 64.4958 145.243C63.0283 151.476 62.8754 152.673 63.2117 155.16C63.5786 157.77 64.0066 163.972 63.8232 164.003C63.762 164.003 62.0805 164.187 60.0932 164.402L56.4855 164.77L55.7517 163.849L55.0485 162.928L52.5109 163.757C47.6497 165.354 42.5744 165.477 38.1718 164.187C36.9489 163.819 36.8266 163.696 36.8877 162.897C36.9794 161.608 38.3858 160.564 41.4432 159.459C42.8496 158.937 44.9286 158.016 46.0293 157.402L48.0471 156.266L47.4051 155.59C46.5184 154.669 46.6102 154.055 47.7414 153.103C48.4446 152.489 48.5975 152.213 48.3529 151.936C47.8331 151.414 47.9248 150.647 48.5669 150.063C49.3312 149.388 49.9121 149.419 51.716 150.34C53.9173 151.445 54.4982 151.292 54.9874 149.388C55.2014 148.528 55.446 146.993 55.5683 145.98L55.7517 144.107L51.6548 142.725L47.558 141.344L47.6191 139.379C47.6497 138.304 48.0471 135.357 48.4446 132.808C48.8726 130.29 49.7593 124.825 50.4319 120.68C52.6026 107.509 53.8562 100.723 55.1403 95.043C55.5683 93.2008 55.874 91.6349 55.8129 91.5735C55.7517 91.5121 54.4982 92.1876 53.0001 93.0473C46.6713 96.7317 37.5298 100.999 36.0622 100.969C35.8176 100.969 34.717 99.9248 33.6163 98.6353C33.6163 98.6353 32.1182 96.8238 31.1704 95.6571C29.3971 96.6089 26.6761 98.1133 26.6761 98.1133C24.6276 99.2494 22.8849 100.324 22.8544 100.508C22.7626 100.907 15.9447 106.956 15.5778 106.956C15.4555 106.956 14.2326 105.758 12.8568 104.285C10.5637 101.828 10.4108 101.552 10.686 100.815C10.8389 100.385 10.9917 99.802 10.9917 99.7099C10.9917 99.7099 8.82101 98.0826 7.75093 97.1922C7.75093 97.1922 6.89487 96.486 6.34454 96.0255C5.39676 94.9509 3.89864 93.2622 3.89864 93.2622C2.18651 91.1744 0.413223 87.9505 0.16864 86.446C-0.1371 85.4328 -0.106522 85.4021 0.963562 85.1872ZM71.7724 61.5456C71.7724 61.6377 71.8335 61.6991 71.9252 61.6991C72.017 61.6991 72.0781 61.6377 72.0781 61.5456C72.0781 61.4535 72.017 61.3921 71.9252 61.3921C71.8335 61.3921 71.7724 61.4842 71.7724 61.5456ZM118.092 147.669C118 147.669 117.939 147.73 117.939 147.822C117.939 147.914 118 147.976 118.092 147.976C118.183 147.976 118.244 147.914 118.244 147.822C118.244 147.761 118.183 147.669 118.092 147.669Z" fill="white"/>
<path fill-rule="evenodd" clip-rule="evenodd" d="M30.5134 85.4167V85.4474C30.5134 85.4781 30.5134 85.4474 30.5134 85.4167ZM128.227 19.9263C128.411 19.7421 128.777 19.8649 129.236 20.2334C129.634 20.5404 130.612 20.9088 131.437 21.001C133.241 21.2466 133.425 21.7378 131.743 21.7378C129.909 21.7378 127.585 20.5404 128.227 19.9263ZM142.108 17.9306C142.505 17.4394 142.627 17.4087 143.269 17.6543C143.911 17.8999 143.697 18.2991 142.841 18.514C141.863 18.7596 141.588 18.5447 142.108 17.9306ZM130.856 15.3822C131.774 13.8471 132.324 13.3558 132.324 14.062C132.324 14.2155 131.896 15.0752 131.376 15.9656C130.795 16.9481 130.551 17.6236 130.765 17.685C130.948 17.7464 131.101 17.992 131.101 18.2376C131.101 18.7289 131.04 18.7596 130.367 18.4833C129.634 18.2069 129.786 17.1937 130.856 15.3822ZM133.7 13.4479C133.914 13.1102 134.006 13.1102 135.259 13.5707C136.39 13.9699 136.482 14.5839 135.412 14.4304C134.372 14.3076 133.486 13.7857 133.7 13.4479ZM128.227 19.9263C128.411 19.7421 128.777 19.8649 129.236 20.2334C129.634 20.5404 130.612 20.9088 131.437 21.001C133.241 21.2466 133.425 21.7378 131.743 21.7378C129.909 21.7378 127.585 20.5404 128.227 19.9263ZM130.856 15.3822C131.774 13.8471 132.324 13.3558 132.324 14.062C132.324 14.2155 131.896 15.0752 131.376 15.9656C130.795 16.9481 130.551 17.6236 130.765 17.685C130.948 17.7464 131.101 17.992 131.101 18.2376C131.101 18.7289 131.04 18.7596 130.367 18.4833C129.634 18.2069 129.786 17.1937 130.856 15.3822ZM133.7 13.4479C133.914 13.1102 134.006 13.1102 135.259 13.5707C136.39 13.9699 136.482 14.5839 135.412 14.4304C134.372 14.3076 133.486 13.7857 133.7 13.4479ZM142.108 17.9306C142.505 17.4394 142.627 17.4087 143.269 17.6543C143.911 17.8999 143.697 18.2991 142.841 18.514C141.863 18.7596 141.588 18.5447 142.108 17.9306ZM142.108 17.9306C142.505 17.4394 142.627 17.4087 143.269 17.6543C143.911 17.8999 143.697 18.2991 142.841 18.514C141.863 18.7596 141.588 18.5447 142.108 17.9306ZM133.7 13.4479C133.914 13.1102 134.006 13.1102 135.259 13.5707C136.39 13.9699 136.482 14.5839 135.412 14.4304C134.372 14.3076 133.486 13.7857 133.7 13.4479ZM130.856 15.3822C131.774 13.8471 132.324 13.3558 132.324 14.062C132.324 14.2155 131.896 15.0752 131.376 15.9656C130.795 16.9481 130.551 17.6236 130.765 17.685C130.948 17.7464 131.101 17.992 131.101 18.2376C131.101 18.7289 131.04 18.7596 130.367 18.4833C129.634 18.2069 129.786 17.1937 130.856 15.3822ZM128.227 19.9263C128.411 19.7421 128.777 19.8649 129.236 20.2334C129.634 20.5404 130.612 20.9088 131.437 21.001C133.241 21.2466 133.425 21.7378 131.743 21.7378C129.909 21.7378 127.585 20.5404 128.227 19.9263ZM128.227 19.9263C128.411 19.7421 128.777 19.8649 129.236 20.2334C129.634 20.5404 130.612 20.9088 131.437 21.001C133.241 21.2466 133.425 21.7378 131.743 21.7378C129.909 21.7378 127.585 20.5404 128.227 19.9263ZM130.856 15.3822C131.774 13.8471 132.324 13.3558 132.324 14.062C132.324 14.2155 131.896 15.0752 131.376 15.9656C130.795 16.9481 130.551 17.6236 130.765 17.685C130.948 17.7464 131.101 17.992 131.101 18.2376C131.101 18.7289 131.04 18.7596 130.367 18.4833C129.634 18.2069 129.786 17.1937 130.856 15.3822ZM133.7 13.4479C133.914 13.1102 134.006 13.1102 135.259 13.5707C136.39 13.9699 136.482 14.5839 135.412 14.4304C134.372 14.3076 133.486 13.7857 133.7 13.4479ZM142.108 17.9306C142.505 17.4394 142.627 17.4087 143.269 17.6543C143.911 17.8999 143.697 18.2991 142.841 18.514C141.863 18.7596 141.588 18.5447 142.108 17.9306ZM142.108 17.9306C142.505 17.4394 142.627 17.4087 143.269 17.6543C143.911 17.8999 143.697 18.2991 142.841 18.514C141.863 18.7596 141.588 18.5447 142.108 17.9306ZM133.7 13.4479C133.914 13.1102 134.006 13.1102 135.259 13.5707C136.39 13.9699 136.482 14.5839 135.412 14.4304C134.372 14.3076 133.486 13.7857 133.7 13.4479ZM130.856 15.3822C131.774 13.8471 132.324 13.3558 132.324 14.062C132.324 14.2155 131.896 15.0752 131.376 15.9656C130.795 16.9481 130.551 17.6236 130.765 17.685C130.948 17.7464 131.101 17.992 131.101 18.2376C131.101 18.7289 131.04 18.7596 130.367 18.4833C129.634 18.2069 129.786 17.1937 130.856 15.3822ZM128.227 19.9263C128.411 19.7421 128.777 19.8649 129.236 20.2334C129.634 20.5404 130.612 20.9088 131.437 21.001C133.241 21.2466 133.425 21.7378 131.743 21.7378C129.909 21.7378 127.585 20.5404 128.227 19.9263ZM128.227 19.9263C128.411 19.7421 128.777 19.8649 129.236 20.2334C129.634 20.5404 130.612 20.9088 131.437 21.001C133.241 21.2466 133.425 21.7378 131.743 21.7378C129.909 21.7378 127.585 20.5404 128.227 19.9263ZM130.765 17.685C130.948 17.7464 131.101 17.992 131.101 18.2376C131.101 18.7289 131.04 18.7596 130.367 18.4833C129.634 18.2069 129.786 17.163 130.856 15.3822C131.774 13.8471 132.324 13.3558 132.324 14.062C132.324 14.2155 131.896 15.0752 131.376 15.9656C130.795 16.9481 130.551 17.6236 130.765 17.685ZM135.259 13.5707C136.39 13.9699 136.482 14.5839 135.412 14.4304C134.372 14.3076 133.516 13.7857 133.73 13.4479C133.914 13.1102 134.006 13.1102 135.259 13.5707ZM143.269 17.6543C143.911 17.8999 143.697 18.2991 142.841 18.514C141.863 18.7596 141.588 18.5447 142.108 17.9306C142.505 17.4394 142.627 17.4087 143.269 17.6543ZM0.979187 85.1403C2.50787 84.864 3.42509 85.1403 5.90157 86.6755C8.22517 88.1186 11.3131 89.7151 12.3832 90.0529C12.9641 90.2371 13.0558 90.145 13.0558 89.5616C13.0558 88.0879 14.4928 87.351 15.8992 88.0878C16.3884 88.3642 16.5718 88.3642 16.6635 88.0878C17.061 86.9211 18.7425 86.3992 19.4457 87.2282C19.6292 87.4738 19.8738 88.5791 19.9961 89.6844C20.0878 90.7897 20.2712 91.7109 20.3629 91.7109C20.9133 91.7109 25.2853 89.4081 25.2853 89.1011C25.2853 88.9168 26.4471 87.9957 27.8841 87.0746C27.8841 87.0746 29.4739 86.0614 30.4829 85.4167C30.544 85.4167 32.9593 83.8201 34.5186 82.8069C36.0779 81.7937 38.1874 80.4734 39.1964 79.8286C40.2053 79.1839 45.892 75.4074 51.8233 71.4466C57.7546 67.4552 63.2579 63.8015 64.0528 63.3102C65.8873 62.1742 67.8134 61.5908 69.6478 61.5908C70.4427 61.5908 71.1765 61.468 71.2682 61.3452C71.36 61.2224 69.4338 60.3013 67.0185 59.3495C64.6032 58.367 60.9343 56.8625 58.8859 56.0028L55.1559 54.4062L49.622 55.5423C42.7124 56.9546 41.5506 56.8011 39.655 54.1913C38.5238 52.6561 38.5238 52.2877 39.5633 51.3052C40.1747 50.7218 40.297 50.4455 40.0219 50.1692C39.4715 49.6165 39.5938 48.4498 40.2665 48.112C41.0308 47.6822 40.9391 47.6515 42.2843 48.7261C43.7519 49.8928 44.4245 49.8928 46.7175 48.6954L48.5519 47.7436L47.7265 47.0988C46.5035 46.147 46.1366 45.6251 46.1366 44.704C46.1366 44.1513 46.3201 43.8136 46.6869 43.6908C47.2984 43.5065 50.1724 44.5504 55.4616 46.9146C67.7217 52.4105 82.764 54.7133 93.4954 52.779C102.606 51.121 112.054 46.5769 117.801 40.9889C120.247 38.6247 122.846 36.5983 124.314 35.8921C124.986 35.5544 125.781 34.664 126.729 33.1595C128.044 31.0717 128.227 30.8874 129.725 30.4576C131.407 29.9663 131.713 29.5979 131.713 27.7864C131.713 27.1109 131.529 26.896 130.887 26.7425C127.157 25.8521 125.537 22.5054 126.668 18.0227C127.279 15.6279 128.594 12.5575 130.062 10.0091C131.071 8.25904 131.101 8.13623 130.642 7.58357C130.367 7.27654 129.939 5.83348 129.695 4.39042C129.328 2.17977 129.297 1.62711 129.634 0.920936C130 0.153351 130.214 0.0612406 131.804 -0.0308695C133.302 -0.12298 134.342 0.153351 138.5 1.56571C141.221 2.51751 143.697 3.2851 144.034 3.2851C144.37 3.2851 145.073 3.74565 145.624 4.29831C147.794 6.47825 147.733 11.1452 145.44 15.0445C144.768 16.2112 144.645 16.6718 144.859 17.1016C145.654 18.6061 144.798 20.3255 143.086 20.6632C142.291 20.8167 142.199 21.0317 141.557 23.6414C141.19 25.1766 140.701 27.5408 140.487 28.8303C140.09 31.1638 140.09 31.2252 140.732 31.2252C141.802 31.2252 142.046 31.5629 142.75 33.9885C143.3 35.8614 143.728 36.5983 145.012 38.0106C149.537 43.046 152.228 50.6604 152.686 60.025C152.931 64.8761 152.442 70.9554 151.738 72.4905C151.219 73.5959 151.219 73.6266 152.289 76.9118C153.817 81.5173 154.154 84.3727 153.97 90.4827C153.787 96.4699 153.206 98.9875 151.157 103.286C149.659 106.418 147.733 109.15 145.501 111.269C139.967 116.581 133.792 118.699 121.96 119.344L118.138 119.559L118.046 132.945L117.954 146.332L119.575 146.977C121.409 147.714 127.035 149.832 134.648 152.718C149.69 158.399 149.323 158.214 148.681 159.258C147.886 160.517 141.038 162.114 133.272 162.851C118.719 164.232 105.266 163.925 93.0673 161.899C85.5462 160.64 81.6022 159.443 81.6022 158.337C81.6022 157.969 81.755 157.907 96.1247 152.565C101.169 150.692 106.122 148.819 107.131 148.42C108.14 148.021 109.73 147.438 110.647 147.1L112.329 146.486L112.421 132.976L112.512 119.467L110.892 119.252C99.7324 117.87 93.4036 116.12 85.4239 112.19C80.7155 109.887 77.1078 107.677 75.09 105.896C74.295 105.19 73.9282 105.005 73.8364 105.312C73.7753 105.527 73.4084 106.633 73.0721 107.738C72.0326 111.023 69.5561 121.739 66.4682 136.292C65.8873 139.086 65.0006 143.078 64.5114 145.196C63.0439 151.429 62.891 152.626 63.2273 155.113C63.5942 157.723 64.0223 163.925 63.8388 163.956C63.7777 163.956 62.0961 164.14 60.1088 164.355L56.5011 164.723L55.7674 163.802L55.0642 162.881L52.5265 163.71C47.6653 165.307 42.5901 165.43 38.1874 164.14C36.9645 163.772 36.8422 163.649 36.9033 162.851C36.9951 161.561 38.4015 160.517 41.4588 159.412C42.8652 158.89 44.9442 157.969 46.0449 157.355L48.0628 156.219L47.4207 155.543C46.5341 154.622 46.6258 154.008 47.757 153.056C48.4602 152.442 48.6131 152.166 48.3685 151.889C47.8487 151.368 47.9405 150.6 48.5825 150.017C49.3469 149.341 49.9278 149.372 51.7316 150.293C53.9329 151.398 54.5138 151.245 55.003 149.341C55.217 148.481 55.4616 146.946 55.5839 145.933L55.7674 144.06L51.6705 142.678L47.5736 141.297L47.6347 139.332C47.6653 138.257 48.0628 135.31 48.4602 132.761C48.8883 130.244 49.7749 124.778 50.4475 120.633C52.6183 107.462 53.8718 100.676 55.1559 94.9961C55.5839 93.1539 55.8896 91.588 55.8285 91.5266C55.7673 91.4652 54.5138 92.1407 53.0157 93.0004C46.687 96.6848 37.5454 100.953 36.0779 100.922C35.8333 100.922 34.7326 99.878 33.632 98.5884C33.632 98.5884 32.1338 96.7769 31.1861 95.6102C29.4128 96.562 26.6917 98.0665 26.6917 98.0665C24.6433 99.2025 22.9006 100.277 22.87 100.461C22.7783 100.86 15.9603 106.909 15.5934 106.909C15.4711 106.909 14.2482 105.712 12.8724 104.238C10.5793 101.782 10.4265 101.505 10.7016 100.768C10.8545 100.339 11.0074 99.7551 11.0074 99.663C11.0074 99.663 8.83664 98.0357 7.76656 97.1453C7.76656 97.1453 6.91049 96.4392 6.36017 95.9786C5.41238 94.904 3.91426 93.2153 3.91426 93.2153C2.20213 91.1275 0.428848 87.9036 0.184265 86.3992C-0.121475 85.3859 -0.0908966 85.3552 0.979187 85.1403ZM44.3328 50.5376C43.7213 50.6297 43.1404 50.3841 42.3149 49.7086C41.0919 48.7261 40.7556 48.6033 40.4805 49.0024C40.3888 49.1253 40.6028 49.6779 40.9391 50.2306C41.6117 51.2745 43.0181 51.7657 44.3939 51.3973C45.4946 51.1517 45.4334 50.3841 44.3328 50.5376ZM50.6921 45.8093C47.4207 44.4583 46.7175 44.2741 46.7175 44.7347C46.7175 45.3487 48.0322 46.6076 49.0106 46.9146C49.9583 47.2216 50.0501 47.3752 50.0195 48.2963C49.9889 49.463 50.4475 50.1999 51.3342 50.3534C52.2208 50.4762 51.8845 51.0903 50.9978 50.9675C50.1112 50.8753 49.1634 49.8621 49.1634 49.0331C49.1634 48.2963 49.1328 48.2963 47.3901 49.1867C45.9837 49.8928 45.9532 49.9542 46.0449 51.1517C46.2283 53.1167 45.7697 53.6694 43.8436 53.6694C42.6818 53.6694 42.0703 53.5158 41.7951 53.1474C41.4283 52.6868 41.4894 52.6561 42.4678 52.8097C43.6907 52.9939 45.2194 52.779 45.2194 52.4105C45.2194 52.257 44.6385 52.1649 43.9353 52.1956C43.2321 52.2263 42.0703 52.1342 41.3365 51.9807C40.2665 51.7657 40.0219 51.8271 39.8384 52.257C39.5327 53.0246 40.2053 54.0685 41.6423 54.9896C43.2321 56.0335 43.9659 56.0335 49.0411 54.8975C53.2603 53.9457 55.3087 53.7308 56.4094 54.0685C56.9597 54.2527 57.1126 54.0378 57.6935 52.1649C58.0604 50.9982 58.3661 49.8621 58.3661 49.5858C58.3356 49.1253 56.3483 48.1427 50.6921 45.8093ZM115.05 44.4583C114.989 44.4583 113.766 45.1952 112.359 46.1163C101.964 52.8711 90.6214 55.3887 77.7499 53.8229C72.43 53.1781 63.8082 51.1824 60.4146 49.8314L59.2833 49.3709L58.6719 51.3973C57.7546 54.3448 57.7852 54.4369 59.8031 55.4502C63.8694 57.5073 72.5523 60.8539 76.6798 61.99C85.8214 64.5077 89.2456 65.1524 95.4215 65.5209L99.0292 65.7358L100.16 64.4155C104.685 59.2267 106.887 56.9239 108.568 55.6651C110.341 54.3755 110.617 54.0071 111.381 52.0114C111.87 50.7832 112.91 48.6033 113.674 47.1295C114.5 45.6865 115.111 44.4583 115.05 44.4583ZM71.788 61.4987C71.788 61.5908 71.8491 61.6522 71.9409 61.6522C72.0326 61.6522 72.0937 61.5908 72.0937 61.4987C72.0937 61.4066 72.0326 61.3452 71.9409 61.3452C71.8491 61.3452 71.788 61.4373 71.788 61.4987ZM87.8392 65.7358C86.9832 65.7051 87.0443 65.7665 88.4201 66.4727C89.7348 67.1481 90.01 67.2095 90.8049 66.8718C92.2724 66.2577 91.2329 65.8586 87.8392 65.7358ZM91.3552 67.7315C91.3552 67.9771 95.9413 70.679 96.0636 70.5255C96.0941 70.4641 96.7973 69.4816 97.5922 68.3456L99.0598 66.2577H96.4304C94.382 66.2577 93.5259 66.3806 92.5782 66.8718C91.9055 67.2402 91.3552 67.6087 91.3552 67.7315ZM124.742 36.9667C123.825 36.629 119.544 39.9756 117.496 42.6468C115.753 44.9189 113.857 48.2963 112.268 51.9807C111.045 54.8361 110.831 55.1124 109.027 56.4634C105.633 58.981 101.903 63.1874 98.2343 68.6526C96.5833 71.1089 96.5833 71.201 98.6012 72.337L99.7936 73.0125L100.925 72.2449C101.567 71.8151 102.576 71.2931 103.187 71.0782C104.196 70.7404 104.502 70.3413 105.878 67.7315C108.262 63.1874 111.075 59.6872 114.255 57.2309C115.57 56.2177 116.365 55.2045 117.893 52.5947C121.287 46.7918 125.537 41.6029 128.961 39.0852C130.52 37.9492 130.642 37.6729 130.153 36.3833C129.786 35.4008 129.786 35.4008 127.218 36.3833C126.118 36.7825 124.986 37.0588 124.742 36.9667ZM98.3872 80.0743C97.684 81.4559 97.2559 83.7587 97.684 83.7587C97.8368 83.7587 98.2037 83.2367 98.5095 82.5919C100.68 77.9557 102.239 76.3285 101.414 79.5216C100.833 81.8551 101.2 81.7323 102.667 79.0918C104.38 75.9907 105.175 75.4073 107.712 75.4995L109.547 75.5609L110.066 73.4423C110.494 71.7844 110.525 71.2624 110.219 71.0475C109.485 70.5255 105.327 71.0475 103.187 71.9072C101.567 72.5519 100.741 73.1353 99.3349 74.6705C97.3477 76.789 95.5438 79.583 94.8406 81.5787C94.2597 83.2367 94.2597 83.206 95.1463 83.6052C96.0636 84.035 96.3387 83.7894 96.8279 81.8858C97.1336 80.719 97.8674 78.9382 98.2037 78.5391C98.2649 78.4777 98.4483 78.5084 98.6317 78.6312C98.8763 78.8154 98.7846 79.3067 98.3872 80.0743ZM105.052 76.8811L106.978 78.2935C111.717 81.7323 121.868 91.4345 123.305 93.8601C123.611 94.4128 123.977 94.8426 124.13 94.8426C124.558 94.8426 132.936 81.4559 132.936 80.7497C132.936 80.5348 132.263 80.3813 131.04 80.3813C127.31 80.3813 119.697 79.1225 112.635 77.3417C106.856 75.8986 107.192 75.96 105.969 76.482L105.052 76.8811ZM128.441 31.9928C128.38 32.0542 127.799 32.9139 127.157 33.8964C126.515 34.8789 126.026 35.7386 126.056 35.7693C126.148 35.8921 129.328 34.7561 129.358 34.6026C129.358 34.2955 128.533 31.9007 128.441 31.9928ZM130.153 31.1331C129.756 31.2559 129.389 31.4094 129.328 31.4401C129.267 31.5015 129.389 32.0542 129.603 32.6682C130 33.9271 130.276 33.7429 130.673 31.9314C130.856 30.9488 130.826 30.9181 130.153 31.1331ZM142.475 20.0184C143.606 19.9877 144.248 19.3737 144.248 18.3298C144.248 17.6543 144.064 17.378 143.392 17.1016C142.719 16.8253 142.352 16.8867 141.435 17.4087C140.487 17.9613 140.273 17.992 139.967 17.6236C139.692 17.2858 139.692 16.9174 139.967 15.9656C140.426 14.3997 140.09 11.1145 139.325 9.85562C138.653 8.7503 138.255 8.65819 134.586 8.7503L131.835 8.81171L131.009 9.97843C129.97 11.4215 129.97 11.5443 130.918 11.9127C132.11 12.3733 131.865 12.926 130.612 12.711L129.542 12.4961L128.655 14.4304C127.463 17.1016 127.035 18.7903 127.035 21.0317C127.035 22.6589 127.157 23.1195 127.86 24.0406C128.839 25.2994 130.918 26.3126 132.569 26.3126C133.18 26.3126 134.403 25.9442 135.29 25.5143C136.146 25.0845 137.032 24.7775 137.246 24.8389C137.827 25.0231 135.381 27.5101 133.639 28.4926L132.049 29.383L131.376 32.1463C130.734 34.7561 130.734 36.4448 131.376 36.4448C131.529 36.4448 132.079 35.6772 132.599 34.7561C133.486 33.1902 133.639 33.0674 134.984 32.8832C138.745 32.3305 138.836 32.2998 139.081 31.5015C139.203 31.0717 139.662 28.8303 140.09 26.5276C141.221 20.7246 141.466 20.0798 142.475 20.0184ZM142.26 35.0324C142.016 33.7429 141.466 32.5147 141.16 32.5147C141.038 32.5147 139.509 32.8218 137.766 33.1595C136.023 33.5279 134.556 33.8657 134.495 33.9271C134.434 33.9885 134.831 35.5544 135.412 37.4273C136.085 39.6993 136.574 40.7739 136.818 40.6818C137.032 40.5897 138.378 39.5458 139.845 38.3177C142.383 36.1377 142.444 36.0456 142.26 35.0324ZM151.891 62.7269C151.891 54.6212 150.24 47.4673 147.091 42.1556C145.868 40.0678 144.523 38.3177 143.575 37.6115L142.597 36.8439L139.57 39.423C137.888 40.8353 136.421 42.0021 136.268 42.0021C136.115 42.0021 135.657 40.8046 135.198 39.3002C134.22 36.0456 133.822 34.9403 133.578 34.9403C133.486 34.9403 132.905 35.7079 132.324 36.629C131.743 37.5501 130.704 38.7475 130.031 39.2388C126.056 42.3091 122.051 47.0988 118.596 52.9325C116.945 55.7265 116.059 56.8625 115.172 57.4766C112.421 59.3188 108.415 64.3234 106.214 68.6526L105.389 70.3106L107.009 70.1264C107.896 70.0343 109.271 70.0957 110.005 70.2492C113.643 71.0475 116.976 71.4466 121.348 71.6308C128.502 71.9379 129.42 71.6001 132.721 67.3324C134.189 65.4287 134.189 64.6305 132.63 62.297C131.529 60.639 131.407 60.2706 131.468 58.8275L131.56 57.2309L129.725 55.9721C127.065 54.1299 126.698 52.2877 128.686 50.7832C130.398 49.4937 131.499 50.5376 134.25 56.2484C135.809 59.4416 136.299 61.2531 136.329 64.0778C136.36 66.227 135.595 68.5298 134.403 69.7886C133.455 70.8018 130.551 71.9686 128.013 72.3677C125.017 72.8283 118.321 72.4905 112.543 71.5694L111.289 71.3545L110.77 73.4423C110.494 74.5784 110.372 75.6223 110.494 75.7451C110.861 76.1135 119.208 78.0785 122.51 78.6005C135.809 80.6576 144.401 79.6751 148.589 75.5916C151.127 73.1967 151.891 70.1878 151.891 62.7269ZM118.107 147.622C118.016 147.622 117.954 147.683 117.954 147.775C117.954 147.867 118.016 147.929 118.107 147.929C118.199 147.929 118.26 147.867 118.26 147.775C118.26 147.714 118.199 147.622 118.107 147.622ZM146.877 159.473C147.458 159.228 147.917 158.921 147.917 158.798C147.917 158.675 145.593 157.692 142.78 156.649C133.516 153.21 127.983 151.061 127.799 150.907C127.707 150.815 127.432 150.723 127.157 150.723C126.882 150.723 127.707 151.214 128.961 151.828C146.785 160.456 145.685 159.964 146.877 159.473ZM136.299 161.745C138.683 161.745 138.347 161.315 133.516 158.03C130.918 156.28 126.546 153.302 123.763 151.429C120.981 149.525 118.658 147.959 118.566 147.959C118.474 147.959 118.688 148.205 119.024 148.543C119.361 148.881 123.121 151.982 127.432 155.451C134.281 160.978 135.351 161.745 136.299 161.745ZM110.25 148.082C109.21 148.512 105.847 149.771 102.82 150.907C90.224 155.605 88.6341 156.219 85.7296 157.293C84.0481 157.907 82.6417 158.46 82.5805 158.521C82.3054 158.798 86.6468 159.964 90.6214 160.671C97.1948 161.868 106.336 162.728 114.469 162.912C121.012 163.066 129.083 162.697 129.542 162.267C129.634 162.175 128.258 160.548 126.484 158.644C124.711 156.741 121.715 153.425 119.789 151.306L116.303 147.407L114.255 147.376C112.696 147.345 111.656 147.53 110.25 148.082ZM117.343 146.394V135.586C117.343 124.84 117.343 124.748 116.609 123.243C115.753 121.432 114.53 120.173 113.124 119.743C113.093 119.743 113.063 125.73 113.063 133.068V146.424H117.343V146.394ZM81.0824 109.028C83.2226 110.286 83.5283 110.379 83.8646 109.949C84.5678 108.997 89.0316 108.874 92.7616 109.703C94.8406 110.164 98.4789 111.576 101.597 113.142C108.446 116.581 115.386 118.423 121.409 118.423C124.467 118.423 125.078 118.331 127.31 117.471C130.245 116.366 132.141 114.892 134.311 112.036C136.543 109.089 137.491 108.536 139.967 108.659L141.955 108.751L142.627 107.523C142.994 106.848 143.789 104.514 144.401 102.334C145.012 100.154 145.838 97.7901 146.266 97.0839C147.091 95.6409 148.559 94.7812 150.087 94.7812C152.839 94.7812 154.123 89.4388 153.022 82.7148C152.594 80.0743 151.096 74.824 150.76 74.824C150.699 74.824 149.843 75.4995 148.895 76.3592C146.021 78.8768 141.496 80.3199 136.421 80.3506C134.648 80.3506 134.158 80.4734 133.914 80.9033C129.328 88.9168 124.13 96.9304 123.488 96.9304C123.213 96.9304 122.602 97.3603 122.112 97.8822C120.981 99.0797 117.74 101.198 115.692 102.058C113.98 102.795 110.097 103.347 106.948 103.347C105.817 103.347 103.738 103.624 102.362 103.931C96.9196 105.19 90.3157 105.005 85.6685 103.47C82.55 102.426 76.7715 102.242 75.4263 103.133C74.9677 103.44 74.6008 103.869 74.6008 104.084C74.5396 104.637 77.9639 107.216 81.0824 109.028ZM96.0941 103.102C92.5782 103.01 88.8482 102.918 87.8698 102.856C86.8914 102.825 86.1271 102.856 86.1882 102.918C86.2494 102.979 87.6863 103.286 89.3679 103.562C91.6915 103.962 93.3119 104.054 96.0941 103.9C102.943 103.562 102.943 103.286 96.0941 103.102ZM51.2424 150.846C49.7749 150.201 48.8577 150.262 48.8577 150.999C48.8577 151.797 49.6832 152.197 51.059 152.012C52.496 151.828 52.5265 151.429 51.2424 150.846ZM50.3252 152.964C47.8793 153.486 47.6347 153.609 47.6347 154.407C47.6347 154.898 47.8487 154.991 48.7965 154.991C49.9583 154.991 52.2208 153.701 52.4654 152.933C52.6183 152.473 52.8017 152.473 50.3252 152.964ZM55.5533 152.657C55.003 152.012 54.575 152.166 53.2909 153.486C52.6183 154.162 51.2119 155.205 50.1724 155.82C49.1023 156.403 48.3379 157.017 48.4297 157.201C48.8271 157.846 50.9061 157.477 52.3431 156.526C54.3304 155.175 55.9814 153.179 55.5533 152.657ZM55.2782 155.113C53.6272 156.986 50.5698 158.552 49.1328 158.245C48.5825 158.122 47.971 157.907 47.8182 157.785C47.6347 157.631 46.5647 157.969 45.3723 158.552C44.2105 159.105 42.2843 159.934 41.092 160.394C39.1964 161.131 37.576 162.298 37.576 162.973C37.576 163.495 41.948 164.324 44.5468 164.294C47.1456 164.263 52.7405 163.127 54.1469 162.39C54.4833 162.206 55.3393 161.991 56.0425 161.929C59.4362 161.592 62.7993 161.162 62.891 161.039C62.9522 160.978 62.891 159.535 62.7993 157.846L62.5853 154.776L59.956 154.008C56.9597 153.148 56.5623 153.087 56.5623 153.455C56.5011 153.578 55.9508 154.315 55.2782 155.113ZM55.5228 112.835C55.003 112.19 55.003 112.282 54.9724 114.953C54.9724 118.116 55.6145 123.765 56.3177 126.866C56.9903 129.752 56.9597 130.766 56.1954 130.766C54.9724 130.766 52.9851 126.836 51.9151 122.23C51.701 121.34 51.4259 120.695 51.3036 120.756C51.1813 120.848 50.845 122.445 50.5392 124.349C50.2641 126.252 49.836 128.831 49.5915 130.121C49.0106 133.253 48.0933 140.529 48.2768 140.713C48.6437 141.082 63.4108 145.687 63.5942 145.503C63.7165 145.38 64.114 143.722 64.4503 141.819C64.7866 139.915 65.2146 137.981 65.3981 137.551C65.5815 137.09 65.7955 133.652 65.9178 129.875C66.1013 123.243 66.1319 122.998 66.7739 122.445C67.3854 121.954 67.4465 121.616 67.4465 119.16C67.4465 117.655 67.2325 115.475 66.9879 114.309C66.3764 111.392 66.407 110.655 67.2631 109.642C67.9663 108.813 68.058 108.813 69.2809 109.12C70.3204 109.396 70.5956 109.396 70.7179 109.028C71.2071 107.707 69.5561 103.225 67.3854 100.062C66.5293 98.8033 66.407 98.4042 66.4682 96.9918C66.5293 95.6409 66.407 95.0882 65.6121 93.7066C64.542 91.803 64.328 89.8072 65.0923 89.0397C65.5204 88.6098 65.6427 88.6098 66.1013 88.9782C66.3764 89.2239 66.8045 89.8686 67.0185 90.3906C67.6605 91.8951 69.2198 93.5223 70.8402 94.3513L72.3077 95.0882L72.1243 93.7066C71.8797 91.8644 72.4606 91.6494 74.6925 92.7548C77.2607 94.0136 77.7499 93.1846 76.7715 89.0089C76.2518 86.7676 75.2428 84.9254 73.8059 83.513C71.574 81.3638 70.1064 81.1489 66.1624 82.377C59.6808 84.4341 57.4183 86.829 56.3788 92.7548C55.8285 95.9172 56.8374 104.422 58.4273 110.041C58.8247 111.422 59.0693 112.835 58.9776 113.203C58.7024 114.523 56.7151 114.309 55.5228 112.835ZM29.8408 93.1846C31.6447 95.211 33.7848 97.6059 34.5797 98.527L36.0473 100.216L38.7072 99.2946C41.1225 98.4656 41.6117 98.1586 43.7519 96.1014C45.0665 94.8426 46.687 92.9697 47.3596 91.8644C48.0322 90.7898 48.766 89.8993 49.0106 89.8993C49.2246 89.8993 49.6526 90.1757 49.9583 90.5134C50.2641 90.8512 50.7533 91.1275 51.0284 91.1275C51.9456 91.1275 54.9724 87.7194 56.7151 84.7719C58.6719 81.4559 59.4973 80.6883 61.1789 80.6883C62.249 80.6883 62.5853 80.5041 64.0223 78.9996C65.4592 77.4952 65.765 77.311 66.8962 77.311C68.486 77.311 69.7701 77.9864 72.8581 80.3506C74.2033 81.3638 75.3345 82.1928 75.3651 82.1314C75.3957 82.1007 75.1817 81.2717 74.8454 80.2892C74.295 78.6926 74.295 78.4163 74.6925 77.4645C75.2428 76.1135 75.9766 76.0828 76.2518 77.4031C76.5575 78.8154 78.4225 82.4691 79.3091 83.3595C79.7372 83.7894 80.2264 84.0043 80.5015 83.9122C81.1436 83.6666 81.6022 81.8858 81.6022 79.6444C81.6022 78.5698 81.7856 77.5566 81.9996 77.2188C82.3971 76.6969 82.4277 76.6969 83.0391 77.4645C83.3755 77.8943 83.8952 79.1839 84.1704 80.3199C85.7602 86.7062 89.6431 92.1407 94.1986 94.382C99.3655 96.9304 107.468 97.0839 112.206 94.6891C114.286 93.6452 117.068 90.0836 117.068 88.4563C117.068 87.4431 105.755 77.6487 104.563 77.6487C104.38 77.6487 103.646 78.7847 102.973 80.1664C102.301 81.548 101.659 82.8069 101.506 82.9297C100.986 83.4516 100.222 82.8069 100.222 81.8244C100.191 80.9033 100.16 80.934 99.3655 82.5305C98.6012 84.0964 98.4483 84.2192 97.1642 84.4649C94.5349 84.9254 93.2508 84.1271 93.7705 82.377C94.596 79.6137 95.9413 77.3724 98.1731 74.9775L99.3961 73.688L97.5922 72.5212C85.3016 64.5998 73.1332 60.7618 66.9268 62.8804C64.3892 63.7401 63.0133 64.8454 62.035 66.8104C61.5458 67.7929 61.0566 68.9903 60.9343 69.4816C60.0783 73.1967 57.6629 77.1267 56.3483 76.9425C55.8591 76.8811 55.6451 76.5434 55.4616 75.4688C55.2476 74.2099 54.6055 73.3195 53.9024 73.3195C53.5966 73.3195 51.9762 74.9775 49.622 77.7408C48.4297 79.1225 47.8182 79.5523 46.5952 79.9207C45.7392 80.1664 44.5468 80.3813 43.9353 80.3813C43.2933 80.3813 41.8869 80.8419 40.5416 81.4866C39.2881 82.1007 36.9645 83.1753 35.3441 83.8815C33.7542 84.5877 31.8281 85.5702 31.0638 86.0307C27.8535 88.0879 26.4777 89.0397 26.4777 89.2546C26.5388 89.4081 28.0064 91.1582 29.8408 93.1846ZM16.9387 90.1143C15.6546 88.7019 15.1654 88.487 14.1871 88.8554C12.9641 89.316 14.1565 90.6669 16.3884 91.3117C17.3056 91.588 18.1005 91.7416 18.1616 91.6801C18.2228 91.6187 17.6725 90.9126 16.9387 90.1143ZM17.9782 87.7808C17.6419 87.965 17.3667 88.3335 17.3667 88.6405C17.3667 88.9476 17.7642 89.6537 18.2839 90.2371L19.2011 91.3117V89.9915C19.2011 88.1493 18.7425 87.351 17.9782 87.7808ZM17.1221 92.4477C16.052 92.2635 14.3399 91.6802 13.3004 91.1889C10.9768 90.0529 10.9462 90.0529 10.9462 90.9433C10.9462 92.2942 13.0253 93.6452 15.9909 94.1978C18.7731 94.7198 19.8126 94.6584 19.8126 93.9522C19.8126 93.1232 19.2929 92.8162 17.1221 92.4477ZM2.17155 89.3467C3.66966 92.2942 6.39075 95.2417 10.0902 97.9743C11.3743 98.9261 13.4533 100.83 14.7068 102.242L17.0304 104.79L18.3451 103.685C19.0788 103.071 20.2712 102.058 20.9744 101.382L22.2891 100.185L21.4942 98.4963C21.0356 97.5752 20.577 96.4699 20.4852 96.04C20.3018 95.3338 20.1184 95.2724 18.1005 95.211C15.6852 95.1189 12.2303 93.9829 11.0685 92.9083C10.5793 92.4477 10.3653 91.8951 10.3653 91.0968C10.3653 89.9608 10.3347 89.8993 7.98058 88.7326C6.66591 88.0571 5.07607 87.1667 4.43402 86.7369C3.08878 85.8158 0.887466 85.6009 0.887466 86.3685C0.856888 86.5834 1.43779 87.9343 2.17155 89.3467ZM131.743 21.7378C129.909 21.7378 127.585 20.5404 128.227 19.9263C128.411 19.7421 128.777 19.8649 129.236 20.2334C129.634 20.5404 130.612 20.9088 131.437 21.001C133.241 21.2466 133.425 21.7378 131.743 21.7378ZM130.765 17.685C130.948 17.7464 131.101 17.992 131.101 18.2376C131.101 18.7289 131.04 18.7596 130.367 18.4833C129.634 18.2069 129.786 17.163 130.856 15.3822C131.774 13.8471 132.324 13.3558 132.324 14.062C132.324 14.2155 131.896 15.0752 131.376 15.9656C130.795 16.9481 130.551 17.6236 130.765 17.685ZM135.412 14.4304C134.372 14.3076 133.516 13.7857 133.73 13.4479C133.944 13.1102 134.036 13.1102 135.29 13.5707C136.39 13.9699 136.482 14.5839 135.412 14.4304ZM143.269 17.6543C143.911 17.8999 143.697 18.2991 142.841 18.514C141.863 18.7596 141.588 18.5447 142.108 17.9306C142.505 17.4394 142.627 17.4087 143.269 17.6543ZM142.108 17.9306C142.505 17.4394 142.627 17.4087 143.269 17.6543C143.911 17.8999 143.697 18.2991 142.841 18.514C141.863 18.7596 141.588 18.5447 142.108 17.9306ZM133.7 13.4479C133.914 13.1102 134.006 13.1102 135.259 13.5707C136.39 13.9699 136.482 14.5839 135.412 14.4304C134.372 14.3076 133.486 13.7857 133.7 13.4479ZM130.856 15.3822C131.774 13.8471 132.324 13.3558 132.324 14.062C132.324 14.2155 131.896 15.0752 131.376 15.9656C130.795 16.9481 130.551 17.6236 130.765 17.685C130.948 17.7464 131.101 17.992 131.101 18.2376C131.101 18.7289 131.04 18.7596 130.367 18.4833C129.634 18.2069 129.786 17.1937 130.856 15.3822ZM128.227 19.9263C128.411 19.7421 128.777 19.8649 129.236 20.2334C129.634 20.5404 130.612 20.9088 131.437 21.001C133.241 21.2466 133.425 21.7378 131.743 21.7378C129.909 21.7378 127.585 20.5404 128.227 19.9263ZM128.227 19.9263C128.411 19.7421 128.777 19.8649 129.236 20.2334C129.634 20.5404 130.612 20.9088 131.437 21.001C133.241 21.2466 133.425 21.7378 131.743 21.7378C129.909 21.7378 127.585 20.5404 128.227 19.9263ZM130.856 15.3822C131.774 13.8471 132.324 13.3558 132.324 14.062C132.324 14.2155 131.896 15.0752 131.376 15.9656C130.795 16.9481 130.551 17.6236 130.765 17.685C130.948 17.7464 131.101 17.992 131.101 18.2376C131.101 18.7289 131.04 18.7596 130.367 18.4833C129.634 18.2069 129.786 17.1937 130.856 15.3822ZM133.7 13.4479C133.914 13.1102 134.006 13.1102 135.259 13.5707C136.39 13.9699 136.482 14.5839 135.412 14.4304C134.372 14.3076 133.486 13.7857 133.7 13.4479ZM142.108 17.9306C142.505 17.4394 142.627 17.4087 143.269 17.6543C143.911 17.8999 143.697 18.2991 142.841 18.514C141.863 18.7596 141.588 18.5447 142.108 17.9306ZM142.108 17.9306C142.505 17.4394 142.627 17.4087 143.269 17.6543C143.911 17.8999 143.697 18.2991 142.841 18.514C141.863 18.7596 141.588 18.5447 142.108 17.9306ZM133.7 13.4479C133.914 13.1102 134.006 13.1102 135.259 13.5707C136.39 13.9699 136.482 14.5839 135.412 14.4304C134.372 14.3076 133.486 13.7857 133.7 13.4479ZM130.856 15.3822C131.774 13.8471 132.324 13.3558 132.324 14.062C132.324 14.2155 131.896 15.0752 131.376 15.9656C130.795 16.9481 130.551 17.6236 130.765 17.685C130.948 17.7464 131.101 17.992 131.101 18.2376C131.101 18.7289 131.04 18.7596 130.367 18.4833C129.634 18.2069 129.786 17.1937 130.856 15.3822ZM128.227 19.9263C128.411 19.7421 128.777 19.8649 129.236 20.2334C129.634 20.5404 130.612 20.9088 131.437 21.001C133.241 21.2466 133.425 21.7378 131.743 21.7378C129.909 21.7378 127.585 20.5404 128.227 19.9263ZM128.227 19.9263C128.411 19.7421 128.777 19.8649 129.236 20.2334C129.634 20.5404 130.612 20.9088 131.437 21.001C133.241 21.2466 133.425 21.7378 131.743 21.7378C129.909 21.7378 127.585 20.5404 128.227 19.9263ZM130.856 15.3822C131.774 13.8471 132.324 13.3558 132.324 14.062C132.324 14.2155 131.896 15.0752 131.376 15.9656C130.795 16.9481 130.551 17.6236 130.765 17.685C130.948 17.7464 131.101 17.992 131.101 18.2376C131.101 18.7289 131.04 18.7596 130.367 18.4833C129.634 18.2069 129.786 17.1937 130.856 15.3822ZM133.7 13.4479C133.914 13.1102 134.006 13.1102 135.259 13.5707C136.39 13.9699 136.482 14.5839 135.412 14.4304C134.372 14.3076 133.486 13.7857 133.7 13.4479ZM142.108 17.9306C142.505 17.4394 142.627 17.4087 143.269 17.6543C143.911 17.8999 143.697 18.2991 142.841 18.514C141.863 18.7596 141.588 18.5447 142.108 17.9306Z" fill="black"/>
<path d="M28 87.9991L64.5 63.9991C66 62.9991 70.4 61.3991 76 62.9991C83 64.9991 88 66.999 96 71.499L99.5 73.499C98.1667 74.499 95.2 77.499 94 81.499C93.6667 82.499 93.5 84.499 95.5 84.499C97.5 84.499 98.3333 84.1657 98.5 83.999C98.8333 83.6657 99.6 82.699 100 81.499C100 81.999 100.2 82.999 101 82.999C101.8 82.999 102.667 80.999 103 79.999L104.5 77.499L107.5 79.499L112.5 83.499L116 86.999C118.333 89.499 123.1 94.699 123.5 95.499C122.333 97.1657 118.2 100.799 111 101.999C109.316 102.911 106.23 103.534 102.058 102.814C96.2117 102.998 90.6623 102.666 86 102.999C82.8333 101.999 76 100.699 74 103.499C73 105.666 70.5 112.799 68.5 123.999C66.5 135.199 64.3333 142.999 63.5 145.499L48.5 140.999C49 136.666 50.3 125.999 51.5 117.999C53 107.999 56 93.499 57 90.499L55 91.499C50.781 93.6085 43.5 98.499 36 99.999L26.5 89.499L28 87.9991Z" fill="white"/>
<path d="M111 101.999C118.2 100.799 122.333 97.1657 123.5 95.499C123.1 94.699 118.333 89.499 116 86.999L112.5 83.499L107.5 79.499L104.5 77.499L103 79.999C102.667 80.999 101.8 82.999 101 82.999C100.2 82.999 100 81.999 100 81.499C99.6 82.699 98.8333 83.6657 98.5 83.999C98.3333 84.1657 97.5 84.499 95.5 84.499C93.5 84.499 93.6667 82.499 94 81.499C95.2 77.499 98.1667 74.499 99.5 73.499L96 71.499C88 66.999 83 64.9991 76 62.9991C70.4 61.3991 66 62.9991 64.5 63.9991L28 87.9991L26.5 89.499L36 99.999C43.5 98.499 50.781 93.6085 55 91.499M111 101.999C102 103.499 93 102.499 86 102.999C82.8333 101.999 76 100.699 74 103.499C73 105.666 70.5 112.799 68.5 123.999C66.5 135.199 64.3333 142.999 63.5 145.499L48.5 140.999C49 136.666 50.3 125.999 51.5 117.999C53 107.999 56 93.499 57 90.499C57 90.499 58 89.999 55 91.499M111 101.999C107 104.166 95.1 104.699 79.5 89.499C73.1755 83.6935 70.2633 83.777 55 91.499" stroke="black" stroke-width="0.5"/>
</g>
<defs>
<clipPath id="clip0_1323_136329">
<rect width="154" height="165" fill="white" transform="matrix(-1 0 0 1 154 0)"/>
</clipPath>
</defs>
</svg>
