<svg width="393" height="481" viewBox="0 0 393 481" fill="none" xmlns="http://www.w3.org/2000/svg">
<line x1="-1.74846e-08" y1="479.8" x2="393" y2="479.8" stroke="black" stroke-width="0.4"/>
<path d="M144.383 449.657C144.291 449.726 144.225 449.776 144.16 449.841L144.149 449.852L144.139 449.86C142.314 451.468 141.103 453.725 140.345 455.608C139.968 456.546 139.706 457.381 139.54 457.98C139.457 458.28 139.398 458.52 139.359 458.685C139.359 458.686 139.359 458.689 139.358 458.69C139.428 458.756 139.517 458.84 139.627 458.939C139.929 459.215 140.38 459.619 140.975 460.13C142.164 461.152 143.928 462.603 146.216 464.311C150.726 467.677 157.276 472.039 165.494 476.093C165.974 475.274 166.13 474.479 166.052 473.686C165.961 472.772 165.556 471.823 164.903 470.814C163.587 468.779 161.376 466.656 159.086 464.229L159.085 464.229C156.57 461.625 154.11 458.629 152.709 455.163L144.414 449.633C144.403 449.641 144.393 449.65 144.383 449.657Z" fill="white" stroke="black" stroke-width="0.905288"/>
<mask id="path-3-inside-1_7202_60755" fill="white">
<path d="M144.422 448.994C144.409 448.988 144.395 448.982 144.382 448.977C144.201 449.158 144.02 449.339 143.839 449.43C146.193 453.051 150.9 461.288 155.064 463.823C157.509 465.272 158.776 464.729 159.41 463.823C156.89 461.213 154.46 458.244 153.098 454.828L158.507 447.348L148.639 440.92L144.422 448.994Z"/>
</mask>
<path d="M144.422 448.994C144.409 448.988 144.395 448.982 144.382 448.977C144.201 449.158 144.02 449.339 143.839 449.43C146.193 453.051 150.9 461.288 155.064 463.823C157.509 465.272 158.776 464.729 159.41 463.823C156.89 461.213 154.46 458.244 153.098 454.828L158.507 447.348L148.639 440.92L144.422 448.994Z" fill="white"/>
<path d="M144.422 448.994L145.224 449.413L144.832 450.164L144.057 449.823L144.422 448.994ZM144.382 448.977L143.742 448.336L144.179 447.899L144.746 448.148L144.382 448.977ZM143.839 449.43L143.08 449.923L142.527 449.073L143.434 448.62L143.839 449.43ZM155.064 463.823L154.603 464.602L154.594 464.597L155.064 463.823ZM159.41 463.823L160.061 463.194L160.58 463.731L160.152 464.342L159.41 463.823ZM153.098 454.828L152.257 455.164L152.072 454.701L152.364 454.298L153.098 454.828ZM158.507 447.348L159.001 446.589L159.797 447.108L159.24 447.878L158.507 447.348ZM148.639 440.92L147.836 440.501L148.298 439.617L149.133 440.161L148.639 440.92ZM144.422 448.994L144.057 449.823C144.044 449.817 144.032 449.812 144.018 449.805L144.382 448.977L144.746 448.148C144.758 448.153 144.773 448.16 144.786 448.166L144.422 448.994ZM144.382 448.977L145.022 449.617C144.879 449.76 144.585 450.069 144.244 450.239L143.839 449.43L143.434 448.62C143.425 448.625 143.448 448.614 143.514 448.556C143.577 448.5 143.646 448.432 143.742 448.336L144.382 448.977ZM143.839 449.43L144.598 448.936C145.804 450.792 147.532 453.699 149.513 456.513C151.508 459.346 153.632 461.891 155.535 463.05L155.064 463.823L154.594 464.597C152.333 463.22 150.021 460.379 148.032 457.555C146.03 454.711 144.227 451.688 143.08 449.923L143.839 449.43ZM155.064 463.823L155.526 463.044C156.662 463.718 157.394 463.847 157.829 463.805C158.222 463.767 158.475 463.58 158.669 463.304L159.41 463.823L160.152 464.342C159.711 464.972 159.014 465.509 158.003 465.607C157.035 465.701 155.911 465.377 154.603 464.602L155.064 463.823ZM159.41 463.823L158.759 464.452C156.213 461.815 153.685 458.744 152.257 455.164L153.098 454.828L153.939 454.493C155.235 457.743 157.566 460.61 160.061 463.194L159.41 463.823ZM153.098 454.828L152.364 454.298L157.773 446.817L158.507 447.348L159.24 447.878L153.831 455.359L153.098 454.828ZM158.507 447.348L158.013 448.106L148.145 441.678L148.639 440.92L149.133 440.161L159.001 446.589L158.507 447.348ZM148.639 440.92L149.441 441.339L145.224 449.413L144.422 448.994L143.619 448.575L147.836 440.501L148.639 440.92Z" fill="black" mask="url(#path-3-inside-1_7202_60755)"/>
<path d="M171.32 307.929L173.896 333.688L173.896 333.702C175.255 352.991 176.252 373.546 177.066 392.648L177.072 392.79L176.997 392.909C166.676 409.297 158.979 421.227 153.862 429.06C151.304 432.976 149.391 435.868 148.117 437.781C147.48 438.738 147.003 439.451 146.686 439.924C146.545 440.133 146.436 440.295 146.357 440.411C147.404 442.492 149.713 444.67 152.413 446.376C155.123 448.089 158.131 449.266 160.479 449.415C175.577 430.985 182.623 421.499 193.717 405.986H193.716C196.929 401.434 198.889 396.085 199.156 390.564V390.561L199.418 385.846C200.679 362.548 201.231 343.385 201.464 329.811C201.588 322.571 201.622 316.921 201.625 313.082C201.626 311.162 201.62 309.695 201.613 308.708C201.61 308.261 201.608 307.912 201.605 307.665L171.32 307.929Z" fill="#4FB2F3" stroke="black" stroke-width="0.905288"/>
<path d="M172.749 468.085C172.728 468.158 172.715 468.222 172.715 468.259V468.32L172.698 468.38C172.047 470.724 172.281 473.267 172.693 475.25C172.898 476.237 173.146 477.074 173.341 477.664C173.438 477.958 173.522 478.191 173.582 478.349C173.584 478.353 173.586 478.358 173.588 478.362C173.684 478.38 173.809 478.404 173.961 478.431C174.367 478.503 174.97 478.604 175.752 478.72C177.317 478.95 179.602 479.237 182.471 479.463C188.124 479.907 196.045 480.108 205.207 479.165C205.152 478.236 204.841 477.491 204.333 476.867C203.745 476.145 202.872 475.559 201.757 475.054C199.509 474.035 196.451 473.415 193.154 472.591C189.57 471.695 185.838 470.518 182.797 468.345L172.749 468.085Z" fill="white" stroke="black" stroke-width="0.905288"/>
<mask id="path-7-inside-2_7202_60755" fill="white">
<path d="M172.445 467.625C172.47 467.631 172.495 467.636 172.52 467.642C172.354 467.822 172.35 468.083 172.263 468.259C176.246 469.979 184.755 474.505 189.644 474.415C192.45 474.325 193.265 473.239 193.355 472.152C189.734 471.247 186.023 470.07 183.035 467.897C183.005 467.893 182.976 467.888 182.946 467.883L182.766 457.305H170.635L172.445 467.625Z"/>
</mask>
<path d="M172.445 467.625C172.47 467.631 172.495 467.636 172.52 467.642C172.354 467.822 172.35 468.083 172.263 468.259C176.246 469.979 184.755 474.505 189.644 474.415C192.45 474.325 193.265 473.239 193.355 472.152C189.734 471.247 186.023 470.07 183.035 467.897C183.005 467.893 182.976 467.888 182.946 467.883L182.766 457.305H170.635L172.445 467.625Z" fill="white"/>
<path d="M172.445 467.625L172.226 468.503L171.655 468.361L171.554 467.781L172.445 467.625ZM172.52 467.642L172.737 466.763L174.22 467.129L173.186 468.254L172.52 467.642ZM172.263 468.259L171.904 469.09L171.026 468.711L171.453 467.855L172.263 468.259ZM189.644 474.415L189.673 475.32L189.66 475.32L189.644 474.415ZM193.355 472.152L193.575 471.274L194.322 471.461L194.258 472.228L193.355 472.152ZM183.035 467.897L183.178 467.004L183.392 467.038L183.568 467.165L183.035 467.897ZM182.946 467.883L182.804 468.777L182.054 468.657L182.041 467.898L182.946 467.883ZM182.766 457.305V456.399H183.656L183.671 457.289L182.766 457.305ZM170.635 457.305L169.743 457.461L169.557 456.399H170.635V457.305ZM172.445 467.625L172.665 466.747C172.659 466.745 172.655 466.745 172.67 466.748C172.679 466.75 172.707 466.755 172.737 466.763L172.52 467.642L172.302 468.52C172.308 468.522 172.311 468.522 172.295 468.519C172.285 468.517 172.257 468.511 172.226 468.503L172.445 467.625ZM172.52 467.642L173.186 468.254C173.247 468.188 173.252 468.133 173.23 468.209C173.225 468.226 173.22 468.245 173.212 468.272C173.205 468.297 173.196 468.332 173.185 468.368C173.165 468.436 173.131 468.547 173.073 468.663L172.263 468.259L171.453 467.855C171.438 467.883 171.437 467.895 171.448 467.859C171.453 467.843 171.457 467.825 171.465 467.795C171.473 467.769 171.483 467.733 171.494 467.695C171.536 467.551 171.626 467.276 171.853 467.029L172.52 467.642ZM172.263 468.259L172.622 467.428C173.632 467.864 174.93 468.479 176.352 469.138C177.784 469.801 179.359 470.519 180.959 471.179C184.205 472.518 187.393 473.551 189.627 473.51L189.644 474.415L189.66 475.32C187.005 475.369 183.495 474.184 180.268 472.853C178.632 472.177 177.028 471.446 175.591 470.78C174.144 470.11 172.885 469.514 171.904 469.09L172.263 468.259ZM189.644 474.415L189.614 473.51C190.921 473.468 191.619 473.196 191.979 472.929C192.305 472.688 192.426 472.4 192.453 472.077L193.355 472.152L194.258 472.228C194.194 472.991 193.862 473.789 193.056 474.385C192.285 474.955 191.172 475.271 189.673 475.32L189.644 474.415ZM193.355 472.152L193.136 473.031C189.497 472.121 185.64 470.911 182.503 468.63L183.035 467.897L183.568 467.165C186.406 469.229 189.972 470.373 193.575 471.274L193.355 472.152ZM183.035 467.897L182.892 468.791C182.873 468.788 182.855 468.785 182.841 468.783C182.826 468.78 182.814 468.779 182.804 468.777L182.946 467.883L183.089 466.989C183.108 466.992 183.126 466.995 183.14 466.997C183.155 467 183.167 467.002 183.178 467.004L183.035 467.897ZM182.946 467.883L182.041 467.898L181.86 457.32L182.766 457.305L183.671 457.289L183.851 467.867L182.946 467.883ZM182.766 457.305V458.21H170.635V457.305V456.399H182.766V457.305ZM170.635 457.305L171.526 457.148L173.337 467.469L172.445 467.625L171.554 467.781L169.743 457.461L170.635 457.305Z" fill="black" mask="url(#path-7-inside-2_7202_60755)"/>
<path d="M145.105 300.842V300.843C143.756 310.65 144.386 320.548 146.905 330.087C153.877 356.436 158.767 376.538 163.294 395.823L163.302 395.856L163.305 395.891C165.07 418.029 166.022 434.216 166.531 444.869C166.786 450.196 166.93 454.14 167.011 456.752C167.051 458.058 167.075 459.031 167.09 459.679C167.096 459.966 167.101 460.189 167.104 460.349C169.366 461.263 172.924 461.977 176.568 462.16C180.243 462.345 183.913 461.987 186.387 460.826C186.015 436.963 184.307 417.704 183.494 393.77V393.754C183.494 392.784 183.406 391.9 183.315 390.992V390.991C181.641 373.835 179.536 351.179 177.85 332.812C177.007 323.629 176.268 315.518 175.74 309.703C175.476 306.796 175.265 304.462 175.12 302.855C175.048 302.052 174.991 301.431 174.953 301.01C174.943 300.898 174.935 300.801 174.928 300.718L145.769 295.96L145.105 300.842Z" fill="#4FB2F3" stroke="black" stroke-width="0.905288"/>
<path d="M174.439 155.12C178.694 154.667 183.13 155.482 186.66 157.836C192.002 161.276 195.08 167.16 197.977 172.773C199.697 176.213 201.507 180.196 200.059 183.727C199.063 186.171 196.528 188.163 196.709 190.788C196.89 193.051 198.882 194.681 200.149 196.582C202.141 199.569 202.05 203.643 200.511 206.993C198.972 210.342 196.257 212.877 193.269 214.869C182.315 222.202 167.016 222.111 156.062 214.778C153.346 212.968 150.902 210.704 149.453 207.807C148.005 204.911 147.643 201.38 149.091 198.483C150.358 195.948 152.984 193.685 152.622 190.879C152.169 187.891 148.367 186.171 148.005 183.093C147.643 180.287 150.358 178.205 151.807 175.851C152.984 173.95 153.527 171.687 154.07 169.514C154.613 167.341 154.885 164.535 156.786 162.905C159.502 160.551 163.757 161.004 163.757 161.004C163.757 161.004 166.291 156.116 174.439 155.12Z" fill="black"/>
<mask id="path-11-inside-3_7202_60755" fill="white">
<path d="M267.415 183.456C267.144 183.275 266.692 183.365 266.42 183.636C266.149 183.908 265.968 184.27 265.877 184.541C264.248 188.344 263.161 192.327 262.437 196.401C261.35 195.043 260.174 193.685 258.544 193.051C258.001 192.87 257.367 192.779 257.095 193.232C256.914 193.594 257.005 193.957 257.186 194.319C257.819 195.767 258.453 197.306 259.087 198.754C259.539 199.788 259.948 200.775 260.473 201.716L238.802 234.513C230.926 232.431 223.049 229.806 216.169 226.366L184.847 232.16C184.94 232.199 206.734 241.498 239.526 247.912C243.509 248.636 247.673 246.825 249.574 243.294L270.902 204.819C271.488 204.252 271.938 203.561 272.304 202.829C272.757 201.833 272.848 200.384 273.029 199.117C274.658 197.578 276.107 195.767 277.283 193.776C277.465 193.595 277.555 193.323 277.646 193.051C277.736 192.78 277.646 192.508 277.374 192.327C277.012 191.965 276.378 192.237 275.925 192.508C274.748 193.232 273.481 194.047 272.395 194.953C273.572 193.142 274.658 191.331 275.744 189.521C275.925 189.249 276.107 188.887 276.107 188.616C276.197 188.254 276.016 187.892 275.744 187.71C275.473 187.529 275.11 187.529 274.748 187.71C274.477 187.891 274.205 188.073 273.934 188.344C272.486 189.792 271.127 191.15 269.679 192.598C270.765 190.335 271.851 188.072 272.575 185.627C272.666 185.356 272.757 185.084 272.757 184.722C272.757 184.451 272.575 184.089 272.304 183.998C272.213 183.817 271.852 183.818 271.58 183.998C271.309 184.18 271.128 184.361 270.947 184.632C269.317 186.805 267.778 189.068 266.601 191.512C267.235 189.339 267.597 187.076 267.778 184.722C267.778 184.27 267.777 183.727 267.415 183.456Z"/>
</mask>
<path d="M267.415 183.456C267.144 183.275 266.692 183.365 266.42 183.636C266.149 183.908 265.968 184.27 265.877 184.541C264.248 188.344 263.161 192.327 262.437 196.401C261.35 195.043 260.174 193.685 258.544 193.051C258.001 192.87 257.367 192.779 257.095 193.232C256.914 193.594 257.005 193.957 257.186 194.319C257.819 195.767 258.453 197.306 259.087 198.754C259.539 199.788 259.948 200.775 260.473 201.716L238.802 234.513C230.926 232.431 223.049 229.806 216.169 226.366L184.847 232.16C184.94 232.199 206.734 241.498 239.526 247.912C243.509 248.636 247.673 246.825 249.574 243.294L270.902 204.819C271.488 204.252 271.938 203.561 272.304 202.829C272.757 201.833 272.848 200.384 273.029 199.117C274.658 197.578 276.107 195.767 277.283 193.776C277.465 193.595 277.555 193.323 277.646 193.051C277.736 192.78 277.646 192.508 277.374 192.327C277.012 191.965 276.378 192.237 275.925 192.508C274.748 193.232 273.481 194.047 272.395 194.953C273.572 193.142 274.658 191.331 275.744 189.521C275.925 189.249 276.107 188.887 276.107 188.616C276.197 188.254 276.016 187.892 275.744 187.71C275.473 187.529 275.11 187.529 274.748 187.71C274.477 187.891 274.205 188.073 273.934 188.344C272.486 189.792 271.127 191.15 269.679 192.598C270.765 190.335 271.851 188.072 272.575 185.627C272.666 185.356 272.757 185.084 272.757 184.722C272.757 184.451 272.575 184.089 272.304 183.998C272.213 183.817 271.852 183.818 271.58 183.998C271.309 184.18 271.128 184.361 270.947 184.632C269.317 186.805 267.778 189.068 266.601 191.512C267.235 189.339 267.597 187.076 267.778 184.722C267.778 184.27 267.777 183.727 267.415 183.456Z" fill="white"/>
<path d="M267.415 183.456L267.917 182.702L267.938 182.716L267.958 182.731L267.415 183.456ZM266.42 183.636L265.78 182.996L265.78 182.996L266.42 183.636ZM265.877 184.541L266.736 184.828L266.724 184.864L266.709 184.898L265.877 184.541ZM262.437 196.401L263.328 196.559L262.978 198.527L261.73 196.966L262.437 196.401ZM258.544 193.051L258.83 192.192L258.852 192.199L258.872 192.208L258.544 193.051ZM257.095 193.232L256.285 192.827L256.301 192.796L256.319 192.766L257.095 193.232ZM257.186 194.319L257.996 193.914L258.006 193.935L258.015 193.956L257.186 194.319ZM259.087 198.754L258.258 199.117V199.117L259.087 198.754ZM260.473 201.716L261.264 201.276L261.532 201.756L261.228 202.215L260.473 201.716ZM238.802 234.513L239.557 235.012L239.199 235.554L238.571 235.388L238.802 234.513ZM216.169 226.366L216.005 225.475L216.303 225.42L216.574 225.556L216.169 226.366ZM184.847 232.16L184.491 232.992L181.734 231.815L184.682 231.269L184.847 232.16ZM239.526 247.912L239.364 248.802L239.352 248.8L239.526 247.912ZM249.574 243.294L248.777 242.865L248.783 242.856L249.574 243.294ZM270.902 204.819L270.11 204.38L270.175 204.262L270.272 204.168L270.902 204.819ZM272.304 202.829L273.128 203.203L273.121 203.218L273.114 203.233L272.304 202.829ZM273.029 199.117L272.132 198.989L272.177 198.676L272.407 198.459L273.029 199.117ZM277.283 193.776L276.504 193.315L276.562 193.217L276.643 193.136L277.283 193.776ZM277.646 193.051L278.505 193.337L278.505 193.338L277.646 193.051ZM277.374 192.327L276.872 193.08L276.797 193.03L276.734 192.967L277.374 192.327ZM275.925 192.508L275.451 191.737L275.459 191.732L275.925 192.508ZM272.395 194.953L272.974 195.648L271.636 194.459L272.395 194.953ZM275.744 189.521L274.968 189.055L274.979 189.037L274.991 189.019L275.744 189.521ZM276.107 188.616L275.201 188.615L275.201 188.504L275.228 188.396L276.107 188.616ZM275.744 187.71L276.247 186.957L276.247 186.957L275.744 187.71ZM274.748 187.71L274.246 186.957L274.293 186.926L274.343 186.901L274.748 187.71ZM273.934 188.344L273.294 187.704L273.934 188.344ZM269.679 192.598L270.319 193.238L268.863 192.206L269.679 192.598ZM272.575 185.627L271.707 185.37L271.712 185.356L271.717 185.341L272.575 185.627ZM272.757 184.722L273.662 184.721V184.722H272.757ZM272.304 183.998L272.018 184.857L271.662 184.739L271.494 184.403L272.304 183.998ZM271.58 183.998L271.078 183.245L271.078 183.245L271.58 183.998ZM270.947 184.632L271.7 185.134L271.686 185.155L271.671 185.175L270.947 184.632ZM266.601 191.512L267.417 191.905L265.732 191.259L266.601 191.512ZM267.778 184.722H268.683V184.757L268.68 184.792L267.778 184.722ZM267.415 183.456L266.913 184.209C266.972 184.248 267.022 184.26 267.049 184.265C267.075 184.268 267.087 184.266 267.084 184.266C267.082 184.266 267.075 184.268 267.067 184.272C267.06 184.276 267.058 184.279 267.06 184.276L266.42 183.636L265.78 182.996C266.052 182.724 266.402 182.552 266.751 182.486C267.093 182.422 267.532 182.446 267.917 182.702L267.415 183.456ZM266.42 183.636L267.06 184.276C266.916 184.42 266.797 184.646 266.736 184.828L265.877 184.541L265.018 184.255C265.139 183.894 265.381 183.395 265.78 182.996L266.42 183.636ZM265.877 184.541L266.709 184.898C265.113 188.624 264.043 192.538 263.328 196.559L262.437 196.401L261.545 196.242C262.279 192.116 263.383 188.063 265.045 184.185L265.877 184.541ZM262.437 196.401L261.73 196.966C260.634 195.597 259.592 194.43 258.216 193.895L258.544 193.051L258.872 192.208C260.755 192.94 262.067 194.489 263.144 195.835L262.437 196.401ZM258.544 193.051L258.258 193.91C258.149 193.874 258.047 193.846 257.956 193.828C257.863 193.811 257.797 193.807 257.757 193.808C257.716 193.81 257.725 193.817 257.76 193.799C257.804 193.778 257.846 193.739 257.871 193.698L257.095 193.232L256.319 192.766C256.663 192.193 257.23 192.019 257.679 192C258.103 191.981 258.521 192.089 258.83 192.192L258.544 193.051ZM257.095 193.232L257.905 193.637C257.901 193.644 257.901 193.645 257.902 193.643C257.902 193.641 257.901 193.647 257.903 193.663C257.908 193.702 257.928 193.78 257.996 193.914L257.186 194.319L256.376 194.724C256.152 194.275 255.911 193.575 256.285 192.827L257.095 193.232ZM257.186 194.319L258.015 193.956C258.334 194.686 258.653 195.437 258.97 196.183C259.287 196.931 259.602 197.673 259.917 198.392L259.087 198.754L258.258 199.117C257.939 198.388 257.62 197.636 257.303 196.89C256.986 196.143 256.671 195.4 256.356 194.682L257.186 194.319ZM259.087 198.754L259.917 198.392C260.379 199.449 260.766 200.382 261.264 201.276L260.473 201.716L259.682 202.157C259.13 201.167 258.7 200.127 258.258 199.117L259.087 198.754ZM260.473 201.716L261.228 202.215L239.557 235.012L238.802 234.513L238.047 234.014L259.718 201.217L260.473 201.716ZM238.802 234.513L238.571 235.388C230.663 233.298 222.721 230.654 215.764 227.175L216.169 226.366L216.574 225.556C223.378 228.958 231.189 231.564 239.033 233.638L238.802 234.513ZM216.169 226.366L216.334 227.256L185.012 233.05L184.847 232.16L184.682 231.269L216.005 225.475L216.169 226.366ZM184.847 232.16L185.202 231.327C185.259 231.351 206.99 240.625 239.699 247.023L239.526 247.912L239.352 248.8C206.478 242.37 184.621 233.047 184.491 232.992L184.847 232.16ZM239.526 247.912L239.688 247.021C243.32 247.681 247.079 246.02 248.777 242.865L249.574 243.294L250.372 243.724C248.268 247.63 243.697 249.59 239.364 248.802L239.526 247.912ZM249.574 243.294L248.783 242.856L270.11 204.38L270.902 204.819L271.693 205.258L250.366 243.733L249.574 243.294ZM270.902 204.819L270.272 204.168C270.762 203.694 271.157 203.099 271.494 202.424L272.304 202.829L273.114 203.233C272.718 204.024 272.214 204.809 271.531 205.47L270.902 204.819ZM272.304 202.829L271.48 202.454C271.654 202.071 271.775 201.558 271.874 200.933C271.979 200.271 272.031 199.7 272.132 198.989L273.029 199.117L273.925 199.245C273.845 199.801 273.762 200.588 273.662 201.216C273.557 201.881 273.406 202.591 273.128 203.203L272.304 202.829ZM273.029 199.117L272.407 198.459C273.974 196.978 275.37 195.235 276.504 193.315L277.283 193.776L278.063 194.236C276.843 196.3 275.342 198.177 273.65 199.775L273.029 199.117ZM277.283 193.776L276.643 193.136C276.629 193.15 276.643 193.143 276.674 193.073C276.708 192.999 276.739 192.91 276.787 192.765L277.646 193.051L278.505 193.338C278.433 193.553 278.285 194.054 277.924 194.416L277.283 193.776ZM277.646 193.051L276.787 192.765C276.773 192.806 276.765 192.881 276.795 192.964C276.809 193.002 276.827 193.032 276.844 193.052C276.86 193.072 276.872 193.08 276.872 193.08L277.374 192.327L277.877 191.573C278.465 191.966 278.733 192.653 278.505 193.337L277.646 193.051ZM277.374 192.327L276.734 192.967C276.787 193.02 276.853 193.047 276.898 193.055C276.932 193.061 276.929 193.053 276.876 193.064C276.825 193.075 276.754 193.099 276.664 193.14C276.575 193.18 276.482 193.23 276.391 193.285L275.925 192.508L275.459 191.732C275.715 191.578 276.087 191.383 276.491 191.295C276.895 191.207 277.522 191.194 278.014 191.686L277.374 192.327ZM275.925 192.508L276.4 193.279C275.227 194.001 274.007 194.787 272.974 195.648L272.395 194.953L271.815 194.257C272.955 193.308 274.269 192.464 275.451 191.737L275.925 192.508ZM272.395 194.953L271.636 194.459C272.802 192.665 273.881 190.868 274.968 189.055L275.744 189.521L276.521 189.987C275.436 191.795 274.341 193.62 273.154 195.446L272.395 194.953ZM275.744 189.521L274.991 189.019C275.059 188.918 275.12 188.808 275.161 188.712C275.182 188.664 275.193 188.629 275.199 188.606C275.206 188.581 275.201 188.586 275.201 188.615L276.107 188.616L277.012 188.616C277.012 188.93 276.914 189.219 276.825 189.425C276.731 189.645 276.611 189.853 276.498 190.023L275.744 189.521ZM276.107 188.616L275.228 188.396C275.221 188.427 275.228 188.449 275.229 188.452C275.23 188.454 275.23 188.454 275.23 188.454C275.23 188.454 275.233 188.458 275.242 188.464L275.744 187.71L276.247 186.957C276.791 187.32 277.181 188.051 276.985 188.835L276.107 188.616ZM275.744 187.71L275.242 188.464C275.252 188.47 275.263 188.475 275.272 188.478C275.281 188.48 275.284 188.48 275.28 188.48C275.271 188.48 275.228 188.483 275.153 188.52L274.748 187.71L274.343 186.901C274.914 186.615 275.636 186.55 276.247 186.957L275.744 187.71ZM274.748 187.71L275.25 188.464C274.976 188.647 274.775 188.784 274.574 188.984L273.934 188.344L273.294 187.704C273.636 187.362 273.978 187.136 274.246 186.957L274.748 187.71ZM273.934 188.344L274.574 188.984C273.85 189.709 273.148 190.41 272.446 191.111C271.745 191.813 271.043 192.514 270.319 193.238L269.679 192.598L269.039 191.958C269.763 191.234 270.465 190.532 271.166 189.831C271.868 189.129 272.57 188.428 273.294 187.704L273.934 188.344ZM269.679 192.598L268.863 192.206C269.954 189.933 271.007 187.734 271.707 185.37L272.575 185.627L273.443 185.885C272.695 188.409 271.576 190.737 270.495 192.99L269.679 192.598ZM272.575 185.627L271.717 185.341C271.807 185.068 271.852 184.922 271.852 184.722H272.757H273.662C273.662 185.246 273.524 185.643 273.434 185.914L272.575 185.627ZM272.757 184.722L271.852 184.723C271.852 184.752 271.856 184.764 271.855 184.759C271.854 184.756 271.852 184.751 271.851 184.749C271.849 184.747 271.855 184.758 271.876 184.777C271.896 184.796 271.942 184.832 272.018 184.857L272.304 183.998L272.59 183.14C273.005 183.278 273.268 183.586 273.414 183.835C273.563 184.091 273.662 184.405 273.662 184.721L272.757 184.722ZM272.304 183.998L271.494 184.403C271.585 184.585 271.726 184.681 271.823 184.724C271.915 184.765 271.984 184.768 272.01 184.768C272.059 184.768 272.074 184.757 272.082 184.752L271.58 183.998L271.078 183.245C271.358 183.059 271.69 182.957 272.01 182.957C272.277 182.957 272.839 183.044 273.114 183.594L272.304 183.998ZM271.58 183.998L272.082 184.752C271.91 184.867 271.815 184.962 271.7 185.134L270.947 184.632L270.193 184.13C270.441 183.759 270.707 183.493 271.078 183.245L271.58 183.998ZM270.947 184.632L271.671 185.175C270.055 187.329 268.556 189.538 267.417 191.905L266.601 191.512L265.785 191.119C266.999 188.598 268.579 186.281 270.222 184.089L270.947 184.632ZM266.601 191.512L265.732 191.259C266.344 189.159 266.698 186.959 266.875 184.653L267.778 184.722L268.68 184.792C268.496 187.192 268.125 189.52 267.47 191.766L266.601 191.512ZM267.778 184.722L266.872 184.722C266.872 184.478 266.869 184.321 266.845 184.199C266.822 184.086 266.805 184.129 266.872 184.18L267.415 183.456L267.958 182.731C268.388 183.053 268.552 183.503 268.62 183.843C268.686 184.173 268.683 184.514 268.683 184.722H267.778Z" fill="black" mask="url(#path-11-inside-3_7202_60755)"/>
<path d="M193.842 237.154L213.124 243.64L220.914 226.242C220.804 226.196 220.674 226.142 220.523 226.079C219.993 225.858 219.219 225.537 218.244 225.139C216.294 224.342 213.541 223.234 210.33 221.99C204.119 219.585 196.204 216.676 189.074 214.526L193.842 237.154Z" fill="white" stroke="black" stroke-width="0.905288"/>
<path d="M174.921 212.368C172.029 212.289 168.935 212.336 166.89 212.603L166.86 212.606H166.009C163.519 212.562 160.754 212.918 158.27 213.587C155.887 214.228 153.806 215.145 152.467 216.234C152.47 216.306 152.475 216.389 152.476 216.481C152.479 216.77 152.471 217.185 152.455 217.713C152.422 218.771 152.352 220.303 152.244 222.228C152.029 226.069 151.668 231.487 151.172 237.851C151.173 237.861 151.175 237.873 151.177 237.888C151.184 237.939 151.195 238.013 151.209 238.11C151.237 238.304 151.278 238.584 151.33 238.94C151.434 239.653 151.579 240.671 151.743 241.912C152.072 244.395 152.48 247.774 152.798 251.403V251.405C153.251 256.754 153.435 262.587 152.886 266.801V266.803C151.703 275.534 149.633 281.996 147.847 287.954C146.09 293.815 144.611 299.182 144.478 305.796C161.895 311.513 185.807 312.133 201.546 306.986C200.669 300.651 198.839 293.766 197.118 287.549C195.372 281.239 193.726 275.575 193.358 271.95C192.718 265.914 193.632 258.622 194.085 255.453L194.086 255.444L194.088 255.436C194.178 254.941 194.245 254.537 194.29 254.257C194.312 254.117 194.329 254.008 194.34 253.935C194.345 253.898 194.35 253.869 194.353 253.851C194.354 253.842 194.355 253.835 194.355 253.83C194.356 253.828 194.356 253.825 194.356 253.824V253.823L194.378 253.674L194.484 253.567L194.77 253.271C195.324 252.67 195.789 252.022 196.204 251.36L196.408 251.029C200.437 244.103 197.477 236.254 194.944 231.279L194.903 231.198L194.896 231.108C194.58 226.9 194.264 223.565 193.882 221.083C193.691 219.842 193.485 218.824 193.257 218.021C193.056 217.313 192.845 216.798 192.629 216.45L192.536 216.312C192.445 216.193 192.276 216.043 192.008 215.869C191.74 215.696 191.397 215.514 190.985 215.327C190.166 214.956 189.107 214.579 187.902 214.222L184.758 213.412C184.218 213.322 183.7 213.232 183.185 213.143C182.664 213.052 182.145 212.962 181.604 212.872L181.593 212.869C180.456 212.65 177.817 212.447 174.921 212.368Z" fill="white" stroke="black" stroke-width="0.905288"/>
<path d="M194.988 253.887C195.079 253.887 195.169 253.887 195.169 253.797C197.704 250.538 199.152 246.554 199.152 242.481C199.152 238.407 197.794 234.423 195.26 231.164C195.26 228.992 195.169 227 194.897 225.099C194.897 225.009 194.716 224.918 194.626 224.918C194.445 224.918 194.354 225.099 194.445 225.19C194.716 227.091 194.807 229.082 194.807 231.255C194.807 231.346 194.807 231.346 194.897 231.436C197.342 234.605 198.7 238.497 198.7 242.481C198.7 246.464 197.342 250.357 194.807 253.525C194.716 253.616 194.716 253.797 194.897 253.887H194.988Z" fill="#29517C"/>
<path d="M181.137 212.244C181.137 212.244 179.869 216.952 177.425 219.577L172.084 216.137C172.084 216.137 176.429 215.956 178.149 211.973C179.145 211.973 180.141 212.063 181.137 212.244Z" fill="white"/>
<path d="M162.939 212.244C162.939 212.244 164.116 216.952 166.651 219.577L171.992 216.137C171.992 216.137 167.013 216.047 165.384 212.063C164.388 212.063 163.935 211.973 162.939 212.244Z" fill="white"/>
<path d="M138.727 331.737C139.634 331.737 140.37 332.474 140.37 333.382V340.357C140.37 341.038 139.818 341.591 139.138 341.591H137.897C137.217 341.591 136.664 341.038 136.664 340.357V336.061C136.664 335.834 136.481 335.65 136.254 335.649L115.679 335.632C115.452 335.632 115.268 335.816 115.268 336.043V340.344C115.268 341.021 114.721 341.573 114.043 341.577L112.807 341.585C112.123 341.589 111.566 341.037 111.565 340.353V333.382C111.565 332.474 112.302 331.737 113.21 331.737H138.727Z" fill="#72C1F5" stroke="black" stroke-width="0.82199"/>
<rect x="90.5137" y="345.879" width="70.8961" height="40.0724" rx="7.70616" fill="white" stroke="black" stroke-width="1.02749"/>
<path d="M103.357 339.715H148.566C155.66 339.715 161.41 345.465 161.41 352.559C161.41 355.112 159.34 357.183 156.786 357.183H95.1377C92.5841 357.183 90.5137 355.112 90.5137 352.559C90.5137 345.465 96.2641 339.715 103.357 339.715Z" fill="white" stroke="black" stroke-width="1.02749"/>
<line x1="91.3906" y1="348.868" x2="161.124" y2="348.868" stroke="black" stroke-width="0.82199"/>
<rect x="123.913" y="354.216" width="11.0968" height="6.98697" rx="3.49348" fill="#4FB2F3" stroke="black" stroke-width="0.82199"/>
<g clip-path="url(#clip0_7202_60755)">
<path d="M140.079 372.986C140.079 373.709 139.487 374.295 138.757 374.295C138.027 374.295 137.435 373.709 137.435 372.986V368.818H135.559V372.986C135.559 374.736 136.99 376.157 138.761 376.157C140.527 376.157 141.963 374.739 141.963 372.986V368.818H140.086V372.986H140.079Z" fill="#162732"/>
<path d="M136.774 367.715C137.448 367.715 137.998 367.174 137.998 366.503C137.998 365.836 137.452 365.291 136.774 365.291C136.101 365.291 135.551 365.832 135.551 366.503C135.551 367.174 136.097 367.715 136.774 367.715Z" fill="#4FB2F3"/>
<path d="M140.731 367.714C141.405 367.714 141.955 367.172 141.955 366.502C141.952 365.834 141.405 365.293 140.731 365.293C140.058 365.293 139.508 365.834 139.508 366.505C139.508 367.172 140.054 367.714 140.731 367.714Z" fill="#4FB2F3"/>
<path d="M118.771 365.295C118.097 365.295 117.551 365.836 117.551 366.507C117.551 367.174 118.097 367.719 118.774 367.719C119.448 367.719 119.998 367.178 119.998 366.507C119.995 365.836 119.448 365.295 118.771 365.295Z" fill="#4FB2F3"/>
<path d="M130.27 372.545C130.305 372.587 130.337 372.626 130.372 372.661V368.818H128.496V370.638C129.29 371.41 129.854 372.063 130.27 372.545Z" fill="#162732"/>
<path d="M133.02 372.985C133.02 373.484 132.737 373.917 132.321 374.141C132.134 374.242 131.923 374.298 131.697 374.298C130.639 374.298 130.29 373.355 128.495 371.518C128.312 371.329 128.111 371.13 127.892 370.92C127.434 370.309 126.965 369.865 126.513 369.544C125.939 369.076 125.223 368.779 124.44 368.716C124.373 368.709 124.316 368.706 124.267 368.702C124.207 368.699 124.161 368.699 124.126 368.699C123.914 368.699 123.703 368.716 123.502 368.751C123.047 368.828 122.62 368.982 122.239 369.205V368.695H120.363V372.426V374.993V376.157H122.236V375.654V374.993V372.426C122.236 371.612 122.765 370.92 123.498 370.662C123.696 370.592 123.904 370.554 124.122 370.554C124.182 370.554 124.239 370.557 124.295 370.564C124.32 370.568 124.348 370.571 124.373 370.575C124.401 370.578 124.426 370.582 124.454 370.585C124.489 370.592 124.528 370.599 124.563 370.61C124.57 370.61 124.574 370.613 124.581 370.613C124.637 370.627 124.694 370.644 124.747 370.665C124.937 370.735 125.099 370.823 125.219 370.91C125.265 370.941 125.311 370.976 125.357 371.015C125.392 371.043 125.427 371.074 125.459 371.106C125.459 371.106 125.459 371.106 125.462 371.109C125.491 371.137 125.508 371.154 125.508 371.154C125.508 371.154 126.7 372.394 127.737 373.498C128.185 373.973 128.601 374.424 128.883 374.738C129.779 375.737 130.682 376.16 131.697 376.16C131.912 376.16 132.12 376.139 132.321 376.097C133.788 375.807 134.896 374.525 134.896 372.988V368.818H133.02V372.985Z" fill="#4FB2F3"/>
<path d="M113.979 368.819C113.507 368.819 113.059 368.924 112.657 369.105V366.685C112.657 366.314 112.354 366.018 111.983 366.018H110.777V371.991V372.909V376.158H112.653V372.909V371.987C112.653 371.264 113.249 370.677 113.976 370.677C114.706 370.677 115.298 371.264 115.298 371.987V376.158H117.174V371.987C117.178 370.237 115.746 368.819 113.979 368.819Z" fill="#4FB2F3"/>
<path d="M119.708 368.697H117.832V376.158H119.708V368.697Z" fill="#4FB2F3"/>
</g>
<mask id="path-31-inside-4_7202_60755" fill="white">
<path d="M145.478 223.92C145.418 223.988 122.661 250.174 121.405 327.133C121.099 327.899 120.857 328.669 120.67 329.387C119.946 332.103 119.945 334.909 120.579 337.625C120.67 338.168 120.851 338.53 121.395 338.802C121.847 338.983 122.39 338.801 122.661 338.439C123.023 338.802 123.476 338.893 123.929 338.983C124.381 339.074 124.834 338.893 125.196 338.621C125.468 338.893 126.011 339.073 126.464 339.073C127.007 339.073 127.46 338.802 127.731 338.439C128.094 338.802 128.637 338.983 129.18 338.893C129.632 338.802 130.176 338.44 130.176 337.896C130.266 336.086 130.719 334.185 131.353 332.374C131.353 332.646 131.442 333.008 131.442 333.37C131.623 334.366 131.624 335.543 131.896 336.539C132.077 337.263 132.801 337.896 133.615 337.534C134.339 337.172 134.43 336.087 134.521 335.362C135.064 331.198 134.249 326.942 132.258 323.23C132.234 323.182 132.206 323.14 132.176 323.104C133.083 310.923 136.688 276.506 149.461 253.161L145.478 223.92Z"/>
</mask>
<path d="M145.478 223.92C145.418 223.988 122.661 250.174 121.405 327.133C121.099 327.899 120.857 328.669 120.67 329.387C119.946 332.103 119.945 334.909 120.579 337.625C120.67 338.168 120.851 338.53 121.395 338.802C121.847 338.983 122.39 338.801 122.661 338.439C123.023 338.802 123.476 338.893 123.929 338.983C124.381 339.074 124.834 338.893 125.196 338.621C125.468 338.893 126.011 339.073 126.464 339.073C127.007 339.073 127.46 338.802 127.731 338.439C128.094 338.802 128.637 338.983 129.18 338.893C129.632 338.802 130.176 338.44 130.176 337.896C130.266 336.086 130.719 334.185 131.353 332.374C131.353 332.646 131.442 333.008 131.442 333.37C131.623 334.366 131.624 335.543 131.896 336.539C132.077 337.263 132.801 337.896 133.615 337.534C134.339 337.172 134.43 336.087 134.521 335.362C135.064 331.198 134.249 326.942 132.258 323.23C132.234 323.182 132.206 323.14 132.176 323.104C133.083 310.923 136.688 276.506 149.461 253.161L145.478 223.92Z" fill="white"/>
<path d="M145.478 223.92L144.795 223.325L146.105 221.821L146.375 223.798L145.478 223.92ZM121.405 327.133L122.31 327.148L122.308 327.314L122.246 327.469L121.405 327.133ZM120.67 329.387L121.546 329.615L121.545 329.62L120.67 329.387ZM120.579 337.625L121.461 337.419L121.467 337.448L121.472 337.476L120.579 337.625ZM121.395 338.802L121.059 339.642L121.023 339.628L120.99 339.611L121.395 338.802ZM122.661 338.439L121.937 337.896L122.563 337.061L123.301 337.799L122.661 338.439ZM123.929 338.983L124.106 338.096L123.929 338.983ZM125.196 338.621L124.653 337.897L125.281 337.426L125.836 337.981L125.196 338.621ZM126.464 339.073L126.464 339.979H126.464V339.073ZM127.731 338.439L127.007 337.896L127.633 337.061L128.372 337.799L127.731 338.439ZM129.18 338.893L129.357 339.78L129.343 339.783L129.329 339.786L129.18 338.893ZM130.176 337.896H129.27V337.874L129.272 337.851L130.176 337.896ZM131.353 332.374L130.498 332.075L132.258 332.374H131.353ZM131.442 333.37L130.552 333.532L130.537 333.452L130.537 333.37L131.442 333.37ZM131.896 336.539L132.769 336.301L132.771 336.31L132.774 336.319L131.896 336.539ZM133.615 337.534L134.02 338.344L134.002 338.353L133.983 338.361L133.615 337.534ZM134.521 335.362L133.622 335.25L133.623 335.245L134.521 335.362ZM132.258 323.23L131.46 323.659L131.454 323.647L131.448 323.636L132.258 323.23ZM132.176 323.104L131.482 323.685L131.246 323.404L131.273 323.037L132.176 323.104ZM149.461 253.161L150.358 253.039L150.398 253.334L150.255 253.596L149.461 253.161ZM145.478 223.92L146.16 224.514C146.257 224.404 123.563 250.377 122.31 327.148L121.405 327.133L120.5 327.118C121.759 249.971 144.579 223.573 144.795 223.325L145.478 223.92ZM121.405 327.133L122.246 327.469C121.956 328.194 121.725 328.928 121.546 329.615L120.67 329.387L119.794 329.158C119.989 328.41 120.243 327.603 120.565 326.797L121.405 327.133ZM120.67 329.387L121.545 329.62C120.861 332.183 120.859 334.839 121.461 337.419L120.579 337.625L119.697 337.831C119.032 334.979 119.03 332.022 119.795 329.153L120.67 329.387ZM120.579 337.625L121.472 337.476C121.508 337.69 121.548 337.778 121.577 337.823C121.597 337.854 121.643 337.914 121.799 337.992L121.395 338.802L120.99 339.611C120.603 339.418 120.286 339.161 120.057 338.808C119.837 338.467 119.741 338.103 119.686 337.774L120.579 337.625ZM121.395 338.802L121.73 337.961C121.743 337.966 121.779 337.974 121.835 337.957C121.894 337.939 121.928 337.908 121.937 337.896L122.661 338.439L123.385 338.983C122.885 339.65 121.917 339.985 121.059 339.642L121.395 338.802ZM122.661 338.439L123.301 337.799C123.442 337.941 123.621 337.999 124.106 338.096L123.929 338.983L123.751 339.871C123.332 339.787 122.604 339.663 122.021 339.08L122.661 338.439ZM123.929 338.983L124.106 338.096C124.209 338.116 124.401 338.086 124.653 337.897L125.196 338.621L125.739 339.345C125.267 339.7 124.554 340.032 123.751 339.871L123.929 338.983ZM125.196 338.621L125.836 337.981C125.835 337.98 125.852 337.996 125.895 338.021C125.937 338.045 125.993 338.071 126.061 338.094C126.201 338.143 126.349 338.168 126.464 338.168V339.073V339.979C126.126 339.979 125.776 339.913 125.464 339.804C125.16 339.698 124.821 339.526 124.556 339.261L125.196 338.621ZM126.464 339.073L126.464 338.168C126.695 338.168 126.889 338.053 127.007 337.896L127.731 338.439L128.456 338.983C128.03 339.55 127.319 339.978 126.464 339.979L126.464 339.073ZM127.731 338.439L128.372 337.799C128.525 337.953 128.774 338.042 129.031 338L129.18 338.893L129.329 339.786C128.499 339.924 127.662 339.65 127.091 339.08L127.731 338.439ZM129.18 338.893L129.002 338.005C129.038 337.998 129.085 337.983 129.133 337.959C129.182 337.936 129.221 337.909 129.248 337.885C129.276 337.861 129.282 337.848 129.28 337.851C129.277 337.858 129.27 337.876 129.27 337.896H130.176H131.081C131.081 338.496 130.776 338.952 130.446 339.243C130.124 339.528 129.726 339.707 129.357 339.78L129.18 338.893ZM130.176 337.896L129.272 337.851C129.368 335.929 129.846 333.939 130.498 332.075L131.353 332.374L132.207 332.673C131.592 334.43 131.165 336.243 131.08 337.942L130.176 337.896ZM131.353 332.374H132.258C132.258 332.436 132.269 332.522 132.295 332.719C132.317 332.887 132.348 333.122 132.348 333.37L131.442 333.37L130.537 333.37C130.537 333.256 130.523 333.129 130.5 332.957C130.481 332.814 130.447 332.584 130.447 332.374H131.353ZM131.442 333.37L132.333 333.208C132.432 333.75 132.482 334.346 132.535 334.861C132.592 335.401 132.654 335.88 132.769 336.301L131.896 336.539L131.022 336.777C130.865 336.202 130.792 335.595 130.735 335.049C130.675 334.477 130.634 333.986 130.552 333.532L131.442 333.37ZM131.896 336.539L132.774 336.319C132.815 336.483 132.918 336.623 133.02 336.691C133.065 336.721 133.1 336.73 133.124 336.733C133.145 336.735 133.184 336.735 133.248 336.707L133.615 337.534L133.983 338.361C133.266 338.68 132.554 338.556 132.016 338.197C131.507 337.858 131.158 337.319 131.017 336.759L131.896 336.539ZM133.615 337.534L133.21 336.724C133.244 336.708 133.343 336.635 133.44 336.319C133.536 336.006 133.572 335.65 133.622 335.25L134.521 335.362L135.419 335.475C135.378 335.799 135.324 336.348 135.171 336.849C135.019 337.347 134.711 337.998 134.02 338.344L133.615 337.534ZM134.521 335.362L133.623 335.245C134.141 331.274 133.365 327.208 131.46 323.659L132.258 323.23L133.056 322.802C135.134 326.676 135.987 331.122 135.418 335.479L134.521 335.362ZM132.258 323.23L131.448 323.636C131.455 323.65 131.466 323.667 131.482 323.685L132.176 323.104L132.87 322.524C132.946 322.614 133.012 322.715 133.067 322.825L132.258 323.23ZM132.176 323.104L131.273 323.037C132.18 310.861 135.789 276.262 148.667 252.727L149.461 253.161L150.255 253.596C137.586 276.75 133.986 310.986 133.079 323.172L132.176 323.104ZM149.461 253.161L148.564 253.283L144.581 224.042L145.478 223.92L146.375 223.798L150.358 253.039L149.461 253.161Z" fill="black" mask="url(#path-31-inside-4_7202_60755)"/>
<path d="M122.101 318.615L122.039 320.516H132.025L132.209 318.615H122.101Z" fill="#43689A" stroke="black" stroke-width="0.905288"/>
<path d="M127.012 317.438C125.803 317.438 124.839 318.422 124.839 319.52C124.839 320.617 125.803 321.602 127.012 321.602C128.231 321.601 129.183 320.697 129.184 319.52C129.184 318.342 128.231 317.438 127.012 317.438Z" fill="white" stroke="black" stroke-width="0.905288"/>
<path d="M151.814 216.662C144.811 222.126 140.232 229.147 137.392 234.86C135.942 237.776 134.948 240.346 134.316 242.186C134.001 243.105 133.776 243.841 133.631 244.347C133.579 244.527 133.538 244.678 133.506 244.797L149.904 254.428L159.909 234.681L151.814 216.662Z" fill="white" stroke="black" stroke-width="0.905288"/>
<path d="M152.806 249.358C152.896 249.358 152.987 249.358 152.987 249.268C155.703 244.832 158.056 240.034 159.867 235.145C159.957 235.054 159.867 234.873 159.686 234.873C159.595 234.783 159.414 234.873 159.324 235.054C157.513 239.943 155.159 244.651 152.444 249.087C152.353 249.177 152.444 249.358 152.534 249.449C152.715 249.358 152.806 249.358 152.806 249.358Z" fill="#29517C"/>
<path d="M179.037 162.326C173.169 161.713 166.931 163.445 164.16 168.462V168.463C163.611 169.476 163.162 171.247 162.806 173.394C162.452 175.523 162.198 177.964 162.018 180.277C161.837 182.589 161.73 184.767 161.668 186.367C161.637 187.167 161.617 187.822 161.605 188.277C161.599 188.505 161.595 188.682 161.593 188.803C161.592 188.834 161.592 188.862 161.592 188.886C161.595 188.894 161.598 188.904 161.603 188.913C161.637 188.992 161.686 189.107 161.749 189.259C161.874 189.562 162.053 190.007 162.266 190.582C162.691 191.732 163.256 193.4 163.814 195.48C164.925 199.618 166.014 205.394 165.936 211.968C167.135 214.706 169.571 215.88 171.969 215.775C174.382 215.67 176.72 214.272 177.705 211.879C177.716 206.955 178.63 204.527 180.33 202.754C181.166 201.882 182.177 201.186 183.287 200.434C184.406 199.675 185.647 198.845 187.006 197.687H187.007C191.608 193.78 194.091 186.944 190.839 169.779C190.464 167.845 189.014 166.139 186.873 164.826C184.736 163.516 181.958 162.632 179.037 162.326Z" fill="white" stroke="black" stroke-width="0.905288"/>
<path d="M165.836 173.407C165.655 176.938 164.84 182.822 161.853 184.814L159.046 182.641C159.046 182.641 159.59 176.033 159.861 170.782C160.133 165.531 163.301 162.363 170.634 161.005C177.967 159.647 186.567 160.643 189.555 164.626C194.172 170.963 192.633 174.675 192.633 174.675C189.012 174.675 185.028 174.313 182.041 172.23C177.243 175.037 171.087 175.218 165.836 173.407Z" fill="black"/>
<path d="M176.067 184.45C176.067 185.174 176.61 185.717 177.334 185.717C178.058 185.717 178.602 185.174 178.602 184.45C178.602 183.726 178.058 183.182 177.334 183.182C176.7 183.092 176.067 183.726 176.067 184.45Z" fill="black"/>
<path d="M177.875 184.54C177.625 184.54 177.423 184.337 177.423 184.087C177.423 183.837 177.625 183.635 177.875 183.635C178.125 183.635 178.328 183.837 178.328 184.087C178.328 184.337 178.125 184.54 177.875 184.54Z" fill="white"/>
<path d="M186.121 184.45C186.121 185.174 186.665 185.717 187.389 185.717C188.113 185.717 188.656 185.174 188.656 184.45C188.656 183.726 188.113 183.182 187.389 183.182C186.665 183.092 186.121 183.726 186.121 184.45Z" fill="black"/>
<path d="M187.844 184.54C187.594 184.54 187.392 184.337 187.392 184.087C187.392 183.837 187.594 183.635 187.844 183.635C188.094 183.635 188.297 183.837 188.297 184.087C188.297 184.337 188.094 184.54 187.844 184.54Z" fill="white"/>
<path d="M185.214 179.381C186.843 178.295 188.925 178.295 190.464 179.653C190.736 179.924 190.826 180.377 190.555 180.739C190.374 181.101 189.921 181.101 189.649 180.92C189.016 180.377 188.201 180.106 187.477 180.196C187.115 180.196 186.662 180.287 186.3 180.468C185.938 180.649 185.666 180.92 185.304 180.739C185.214 180.649 185.123 180.649 185.123 180.558C184.942 180.106 184.942 179.562 185.214 179.381Z" fill="black"/>
<path d="M180.235 179.381C178.334 178.295 175.98 178.295 174.17 179.653C173.808 179.924 173.808 180.377 173.989 180.739C174.26 181.101 174.713 181.101 175.075 180.92C175.799 180.377 176.705 180.106 177.61 180.196C178.062 180.196 178.515 180.287 178.968 180.468C179.33 180.649 179.692 180.92 180.145 180.649C180.235 180.558 180.326 180.558 180.416 180.468C180.597 180.106 180.597 179.562 180.235 179.381Z" fill="black"/>
<path d="M182.856 191.783C183.58 191.783 184.304 191.602 185.029 191.24C185.391 191.058 185.481 190.696 185.3 190.334C185.119 189.972 184.757 189.882 184.395 190.063C182.675 190.968 180.774 190.063 180.23 189.248C180.049 188.976 179.597 188.886 179.325 189.067C179.054 189.248 178.963 189.701 179.144 189.972C179.778 190.968 181.317 191.783 182.856 191.783Z" fill="black"/>
<path d="M184.49 187.983C184.581 187.983 184.672 187.892 184.672 187.892C185.034 186.806 184.581 186.444 184.219 186.262C183.857 186.172 183.404 186.262 182.861 186.534C182.77 186.625 182.77 186.715 182.77 186.806C182.861 186.896 182.952 186.896 183.042 186.896C183.495 186.625 183.857 186.534 184.128 186.625C184.49 186.715 184.491 187.168 184.309 187.801C184.309 187.801 184.4 187.892 184.49 187.983Z" fill="black"/>
<path d="M156.607 189.341C158.327 191.423 161.043 191.966 162.672 190.608C164.302 189.25 164.211 186.444 162.491 184.362C160.771 182.28 158.055 181.737 156.426 183.094C154.887 184.452 154.887 187.259 156.607 189.341Z" fill="white"/>
<path d="M157.598 184.091C158.322 183.729 159.318 183.729 160.223 184.182C160.676 184.363 161.038 184.634 161.219 184.997C161.49 185.449 161.581 185.902 161.4 186.355C161.219 186.717 160.947 186.988 160.676 187.169C160.495 187.35 160.314 187.441 160.223 187.622C160.042 187.894 160.133 188.256 160.314 188.527C160.495 188.799 160.947 188.799 161.219 188.708C161.4 188.618 161.581 188.708 161.672 188.889C161.762 189.07 161.672 189.251 161.49 189.342C161.309 189.432 161.128 189.432 160.857 189.432C160.495 189.432 160.042 189.251 159.77 188.98C159.318 188.527 159.318 187.803 159.589 187.26C159.77 186.988 160.042 186.807 160.223 186.626C160.404 186.445 160.676 186.264 160.766 186.083C160.857 185.902 160.766 185.54 160.676 185.359C160.585 185.268 160.495 185.178 160.404 185.087C160.042 185.087 159.68 185.178 159.408 185.449C159.137 185.721 159.046 186.083 159.137 186.445C159.137 186.626 159.046 186.807 158.865 186.807C158.865 186.807 158.865 186.807 158.775 186.807C158.594 186.807 158.503 186.717 158.412 186.536C158.322 185.992 158.503 185.359 158.865 184.997C159.046 184.816 159.227 184.725 159.408 184.634C158.865 184.453 158.322 184.544 157.869 184.725C157.326 184.997 156.964 185.721 157.236 186.355C157.326 186.536 157.236 186.717 157.055 186.807C156.873 186.898 156.692 186.807 156.602 186.626C156.24 185.721 156.692 184.634 157.598 184.091Z" fill="black"/>
<path d="M238.627 106.022C233.789 103.262 231.37 105.677 229.642 103.262C227.914 100.847 234.48 94.9818 221.002 89.1168C221.002 89.1168 219.965 76.3517 201.303 76.0067C182.641 75.6617 187.825 88.7717 182.641 91.8767C177.803 94.9818 176.42 90.1517 171.236 93.2568C166.398 96.3618 168.471 102.917 164.324 103.607C160.177 104.642 154.648 99.4668 149.809 102.572C144.971 105.677 144.971 108.437 142.552 108.437C140.133 108.437 135.64 106.712 132.875 108.437C130.11 110.162 127 112.577 127 112.577H242.083C242.429 112.922 243.811 108.782 238.627 106.022Z" fill="white" fill-opacity="0.5"/>
<path d="M201.719 35.4244C196.009 32.1678 193.155 35.0174 191.116 32.1678C189.077 29.3182 196.825 22.3977 180.921 15.4772C180.921 15.4772 179.697 0.414975 157.676 0.00788793C135.655 -0.399199 141.772 15.0701 135.655 18.7339C129.946 22.3977 128.315 16.6985 122.198 20.3622C116.489 24.026 118.936 31.7607 114.042 32.5749C109.149 33.7961 102.624 27.6898 96.9146 31.3536C91.2055 35.0174 91.2055 38.2741 88.3509 38.2741C85.4963 38.2741 80.195 36.2386 76.9326 38.2741C73.6702 40.3095 70 43.1591 70 43.1591H205.796C206.204 43.5662 207.428 38.6811 201.719 35.4244Z" fill="white" fill-opacity="0.5"/>
<path d="M377.321 53.7117C372.626 51.0721 370.278 53.3817 368.601 51.0721C366.925 48.7625 373.296 43.1534 360.217 37.5443C360.217 37.5443 359.211 25.3363 341.102 25.0064C322.993 24.6764 328.023 37.2144 322.993 40.1839C318.298 43.1534 316.956 38.5342 311.926 41.5037C307.231 44.4732 309.243 50.7422 305.219 51.4021C301.194 52.3919 295.829 47.4427 291.134 50.4122C286.439 53.3817 286.439 56.0213 284.091 56.0213C281.744 56.0213 277.384 54.3716 274.701 56.0213C272.018 57.671 269 59.9806 269 59.9806H380.674C381.01 60.3106 382.016 56.3512 377.321 53.7117Z" fill="white" fill-opacity="0.5"/>
<path d="M103.924 134.54C98.6597 131.097 96.2876 133.989 94.3784 131.097C92.4692 128.274 99.6432 120.838 85.2952 113.47C85.2952 113.47 84.3117 97.5644 64.7568 97.0135C45.2019 96.4627 50.4088 112.919 45.2019 116.913C39.9371 120.907 38.4907 114.641 33.2838 118.634C28.019 122.628 30.3911 130.546 26.1098 131.717C21.8286 132.887 16.1009 126.622 10.8362 130.546C5.57137 134.54 5.57137 137.914 3.19933 137.914C0.827283 137.914 -3.97466 135.642 -6.80954 137.914C-9.70228 140.186 -13 143.009 -13 143.009H107.801C107.743 143.078 109.189 137.983 103.924 134.54Z" fill="white" fill-opacity="0.5"/>
<path d="M62.9672 107.934C81.1745 107.934 95.9344 93.1745 95.9344 74.9672C95.9344 56.7599 81.1745 42 62.9672 42C44.7599 42 30 56.7599 30 74.9672C30 93.1745 44.7599 107.934 62.9672 107.934Z" fill="white"/>
<g clip-path="url(#clip1_7202_60755)">
<path d="M67.7178 403.758C71.3538 402.68 75.5735 404.157 78.3125 406.755V406.756C81.0587 409.502 82.7208 413.226 83.8359 416.989C84.3936 418.871 84.8473 420.825 85.3037 422.791C85.7471 424.701 86.194 426.623 86.7383 428.481C86.7527 428.541 86.769 428.6 86.79 428.656L87.4551 428.434C87.4413 428.387 87.4277 428.341 87.4141 428.294C87.3727 428.102 87.3739 427.837 87.4238 427.505C87.4833 427.109 87.6044 426.66 87.751 426.203C87.8972 425.747 88.0653 425.294 88.2168 424.888C88.3629 424.496 88.4985 424.135 88.5742 423.874C89.1322 422.2 89.6873 420.674 90.3789 419.15C91.2938 417.321 92.3648 415.18 93.7578 413.443C95.0626 411.816 96.6175 410.584 98.5459 410.273L98.9365 410.224C101.728 409.958 104.399 411.554 105.602 414.093V414.094C106.951 416.927 106.693 420.193 105.725 423.236C104.749 426.304 103.23 429.052 101.948 432.043C100.674 435.017 99.807 438.311 100.239 441.626L100.922 441.685C102.177 437.639 103.849 433.743 106.212 430.129C108.548 426.556 112.516 423.974 116.58 423.974C118.659 423.974 120.715 424.848 122.216 426.247C123.715 427.645 124.64 429.548 124.508 431.598L124.507 431.605C124.441 433.194 123.746 434.671 122.734 436.042C121.849 437.242 120.735 438.343 119.627 439.35L119.153 439.775C111.182 446.768 102.397 453.987 98.8525 464.193L99.4756 464.503C101.409 461.604 104.035 459.111 106.945 457.17C107.984 456.547 109.138 455.974 110.277 455.706C111.415 455.438 112.506 455.482 113.454 456.051L113.456 456.053C114.526 456.682 115.083 457.793 115.232 459.088C115.382 460.383 115.116 461.824 114.579 463.036C112.942 466.515 109.731 468.78 106.418 471.106C103.198 473.367 99.8814 475.688 98.124 479.249H70.957C68.3658 471.398 62.4885 463.459 56.2002 458.148V458.147L56.1924 458.143L54.6201 456.876C53.0604 455.605 51.5505 454.302 50.1982 452.846C48.4201 450.931 47.2117 448.354 47.3457 445.808L47.3447 445.807C47.6162 442.341 50.4289 439.502 53.8232 438.552C57.2193 437.601 60.9157 438.411 63.9541 439.931C66.9968 441.452 69.9146 443.811 72.5752 446.191L73.2021 446.753L73.1592 445.912C72.873 440.332 69.7215 435.754 66.9355 431.157C64.1202 426.512 61.2235 421.811 60.6719 416.433V416.432L60.6299 415.942C60.4653 413.484 60.9878 410.88 62.125 408.686C63.3373 406.346 65.2344 404.495 67.7178 403.757V403.758Z" fill="white" stroke="black" stroke-width="0.701465"/>
<path d="M86.4244 478.618C86.2842 478.618 86.1439 478.478 86.1439 478.338C84.4603 453.506 78.4277 429.516 67.9058 407.069C67.7655 406.929 67.9058 406.648 68.0461 406.648C68.1864 406.508 68.4669 406.648 68.4669 406.788C78.9889 429.375 85.1618 453.366 86.705 478.338C86.705 478.478 86.5647 478.618 86.4244 478.618Z" fill="black"/>
<path d="M82.074 478.619C81.9337 478.619 81.7934 478.479 81.7934 478.339C78.2861 463.047 66.9224 449.158 52.6125 443.125C52.4722 442.985 52.3319 442.845 52.4722 442.704C52.6125 442.564 52.7528 442.424 52.8931 442.564C67.3432 448.597 78.8473 462.626 82.3546 478.198C82.3546 478.479 82.3546 478.619 82.074 478.619Z" fill="black"/>
<path d="M88.5309 478.618C88.2504 478.618 88.1101 478.477 88.2503 478.197C89.6533 459.117 91.3368 435.548 99.6141 415.626C99.7544 415.486 99.8947 415.346 100.035 415.486C100.175 415.626 100.316 415.766 100.175 415.907C91.898 435.688 90.2145 459.257 88.9518 478.197C88.9518 478.477 88.6712 478.618 88.5309 478.618Z" fill="black"/>
<path d="M90.7692 478.479C90.4886 478.479 90.3483 478.198 90.4886 478.058C94.4168 459.679 103.957 442.283 117.285 429.095C117.425 428.955 117.705 428.955 117.846 429.095C117.986 429.236 117.986 429.516 117.846 429.657C104.518 442.704 95.1183 459.96 91.1901 478.338C91.0498 478.338 90.9095 478.479 90.7692 478.479Z" fill="black"/>
<path d="M95.6824 477.637H95.5422C95.4019 477.497 95.2616 477.356 95.4019 477.216C99.4704 470.622 105.082 465.151 111.816 461.363C111.956 461.223 112.237 461.363 112.237 461.503C112.377 461.643 112.237 461.924 112.097 461.924C105.503 465.712 99.8912 471.183 95.963 477.637C95.963 477.497 95.8227 477.637 95.6824 477.637Z" fill="black"/>
</g>
<g opacity="0.3" clip-path="url(#clip2_7202_60755)">
<path d="M9.53711 447.16C9.90163 451.514 10.93 455.911 13.1963 459.486C15.468 463.07 18.9861 465.836 24.3428 466.908C24.6796 462.499 23.9161 457.633 21.2637 454.1L20.998 453.758C18.1803 450.249 13.9964 447.842 9.53711 447.16Z" fill="white" stroke="black" stroke-width="0.271249"/>
<path d="M36.5176 452.748C33.0331 455.546 30.5466 459.594 29.375 463.907C28.2102 468.196 29.3947 472.547 31.0908 476.668C34.358 473.961 36.7354 470.184 37.751 466.04L37.8457 465.632L37.9326 465.227C38.7728 461.085 38.2854 456.627 36.5176 452.748Z" fill="white" stroke="black" stroke-width="0.271249"/>
<path d="M18.7842 469.696C15.0873 468.534 11.0188 468.876 7.18457 469.812C9.2405 472.415 11.9243 474.559 14.9902 475.949L15.6211 476.223C18.9028 477.546 23.3487 477.357 26.9551 476.884C26.057 473.373 22.9942 471.162 19.499 469.933L18.7842 469.696Z" fill="white" stroke="black" stroke-width="0.271249"/>
<path d="M32.8233 488.175C32.9318 488.175 32.9861 488.067 32.9318 488.013C31.7383 481.069 28.9174 474.016 24.3061 466.584C20.2374 459.965 15.2464 453.889 10.4182 447.976C10.364 447.922 10.3097 447.922 10.2012 447.976C10.147 448.03 10.147 448.085 10.2012 448.193C15.0294 454.052 20.0204 460.128 24.0891 466.692C28.7004 474.179 31.5213 481.123 32.7148 488.067C32.7148 488.121 32.7691 488.175 32.8233 488.175Z" fill="black"/>
<path d="M30.5976 479.821C30.6519 479.821 30.7061 479.767 30.7061 479.712C31.9539 470.544 33.9069 461.919 36.4023 454.161C36.4023 454.107 36.4023 453.998 36.2938 453.998C36.2396 453.998 36.1311 453.998 36.1311 454.107C33.6356 461.919 31.6826 470.49 30.4891 479.658C30.4891 479.712 30.5434 479.767 30.5976 479.821Z" fill="black"/>
<path d="M30.1645 478.682C30.2187 478.682 30.273 478.682 30.273 478.627C30.3272 478.573 30.3272 478.465 30.2187 478.465C23.112 474.721 15.5713 471.792 7.75932 469.73C7.70507 469.73 7.59657 469.73 7.59657 469.839C7.59657 469.893 7.59657 470.002 7.70507 470.002C15.4628 472.009 23.0035 474.938 30.1102 478.682C30.1645 478.682 30.1645 478.682 30.1645 478.682Z" fill="black"/>
</g>
<g clip-path="url(#clip3_7202_60755)">
<path d="M411.49 125.275V479.25H324.992V125.275H411.49Z" fill="white" stroke="black" stroke-width="0.5"/>
<path d="M403.017 125.15V479.125H333.469V125.15H403.017Z" fill="white" stroke="black" stroke-width="0.5"/>
<path d="M357.4 133.5H341.695V154.066H357.4V133.5Z" fill="#E5F4FD"/>
<path d="M355.155 135.992H343.812V151.572H355.155V135.992Z" fill="#4FB2F3"/>
<path d="M343.812 136.99V151.698H355.155V150.327C349.671 148.083 346.181 142.848 343.812 136.99Z" fill="white" fill-opacity="0.2"/>
<path d="M376.095 133.5H360.391V154.066H376.095V133.5Z" fill="#E5F4FD"/>
<path d="M373.85 135.992H362.508V151.572H373.85V135.992Z" fill="#4FB2F3"/>
<path d="M362.508 136.99V151.698H373.85V150.327C368.366 148.083 364.876 142.848 362.508 136.99Z" fill="white" fill-opacity="0.2"/>
<path d="M394.791 133.5H379.086V154.066H394.791V133.5Z" fill="#E5F4FD"/>
<path d="M392.545 135.992H381.203V151.572H392.545V135.992Z" fill="#4FB2F3"/>
<path d="M381.203 136.99V151.698H392.545V150.327C387.061 148.083 383.447 142.848 381.203 136.99Z" fill="white" fill-opacity="0.2"/>
<path d="M357.4 156.309H341.695V176.874H357.4V156.309Z" fill="#E5F4FD"/>
<path d="M355.155 158.801H343.812V174.381H355.155V158.801Z" fill="#4FB2F3"/>
<path d="M343.812 159.674V174.381H355.155V173.01C349.671 170.767 346.181 165.657 343.812 159.674Z" fill="white" fill-opacity="0.2"/>
<path d="M376.095 156.309H360.391V176.874H376.095V156.309Z" fill="#E5F4FD"/>
<path d="M373.85 158.801H362.508V174.381H373.85V158.801Z" fill="#4FB2F3"/>
<path d="M362.508 159.674V174.381H373.85V173.01C368.366 170.767 364.876 165.657 362.508 159.674Z" fill="white" fill-opacity="0.2"/>
<path d="M394.791 156.309H379.086V176.874H394.791V156.309Z" fill="#E5F4FD"/>
<path d="M392.545 158.801H381.203V174.381H392.545V158.801Z" fill="#4FB2F3"/>
<path d="M381.203 159.674V174.381H392.545V173.01C387.061 170.767 383.447 165.657 381.203 159.674Z" fill="white" fill-opacity="0.2"/>
<path d="M357.271 188.467H341.566V209.032H357.271V188.467Z" fill="#E5F4FD"/>
<path d="M355.026 190.959H343.684V206.539H355.026V190.959Z" fill="#4FB2F3"/>
<path d="M343.684 191.957V206.665H355.026V205.293C349.542 203.05 346.052 197.94 343.684 191.957Z" fill="white" fill-opacity="0.2"/>
<path d="M375.966 188.467H360.262V209.032H375.966V188.467Z" fill="#E5F4FD"/>
<path d="M373.721 190.959H362.379V206.539H373.721V190.959Z" fill="#4FB2F3"/>
<path d="M362.379 191.957V206.665H373.721V205.293C368.237 203.05 364.622 197.94 362.379 191.957Z" fill="white" fill-opacity="0.2"/>
<path d="M394.537 188.467H378.832V209.032H394.537V188.467Z" fill="#E5F4FD"/>
<path d="M392.416 190.959H381.074V206.539H392.416V190.959Z" fill="#4FB2F3"/>
<path d="M381.074 191.957V206.665H392.416V205.293C386.808 203.05 383.318 197.94 381.074 191.957Z" fill="white" fill-opacity="0.2"/>
<path d="M357.271 211.275H341.566V231.841H357.271V211.275Z" fill="#E5F4FD"/>
<path d="M355.026 213.768H343.684V229.348H355.026V213.768Z" fill="#4FB2F3"/>
<path d="M343.684 214.641V229.348H355.026V227.977C349.542 225.858 346.052 220.623 343.684 214.641Z" fill="white" fill-opacity="0.2"/>
<path d="M375.966 211.275H360.262V231.841H375.966V211.275Z" fill="#E5F4FD"/>
<path d="M373.721 213.768H362.379V229.348H373.721V213.768Z" fill="#4FB2F3"/>
<path d="M362.379 214.641V229.348H373.721V227.977C368.237 225.858 364.622 220.623 362.379 214.641Z" fill="white" fill-opacity="0.2"/>
<path d="M394.537 211.275H378.832V231.841H394.537V211.275Z" fill="#E5F4FD"/>
<path d="M392.416 213.768H381.074V229.348H392.416V213.768Z" fill="#4FB2F3"/>
<path d="M381.074 214.641V229.348H392.416V227.977C386.808 225.858 383.318 220.623 381.074 214.641Z" fill="white" fill-opacity="0.2"/>
<path d="M413.858 179.369V185.226H322.25V179.369H413.858Z" fill="white" stroke="black" stroke-width="0.5"/>
<path d="M413.858 182.609V185.226H322.25V182.609H413.858Z" fill="white" stroke="black" stroke-width="0.5"/>
<path d="M413.983 235.457V241.313H322.375V235.457H413.983Z" fill="white" stroke="black" stroke-width="0.5"/>
<path d="M413.983 238.697V241.313H322.375V238.697H413.983Z" fill="white" stroke="black" stroke-width="0.5"/>
<path d="M357.271 246.549H341.566V267.114H357.271V246.549Z" fill="#E5F4FD"/>
<path d="M355.026 249.041H343.684V264.621H355.026V249.041Z" fill="#4FB2F3"/>
<path d="M343.684 249.914V264.622H355.026V263.25C349.542 261.132 346.052 255.897 343.684 249.914Z" fill="white" fill-opacity="0.2"/>
<path d="M375.966 246.549H360.262V267.114H375.966V246.549Z" fill="#E5F4FD"/>
<path d="M373.721 249.041H362.379V264.621H373.721V249.041Z" fill="#4FB2F3"/>
<path d="M362.379 249.914V264.622H373.721V263.25C368.237 261.132 364.622 255.897 362.379 249.914Z" fill="white" fill-opacity="0.2"/>
<path d="M394.537 246.549H378.832V267.114H394.537V246.549Z" fill="#E5F4FD"/>
<path d="M392.416 249.041H381.074V264.621H392.416V249.041Z" fill="#4FB2F3"/>
<path d="M381.074 249.914V264.622H392.416V263.25C386.808 261.132 383.318 255.897 381.074 249.914Z" fill="white" fill-opacity="0.2"/>
<path d="M357.271 269.357H341.566V289.923H357.271V269.357Z" fill="#E5F4FD"/>
<path d="M355.026 271.85H343.684V287.43H355.026V271.85Z" fill="#4FB2F3"/>
<path d="M343.684 272.723V287.43H355.026V286.059C349.542 283.816 346.052 278.705 343.684 272.723Z" fill="white" fill-opacity="0.2"/>
<path d="M375.966 269.357H360.262V289.923H375.966V269.357Z" fill="#E5F4FD"/>
<path d="M373.721 271.85H362.379V287.43H373.721V271.85Z" fill="#4FB2F3"/>
<path d="M362.379 272.723V287.43H373.721V286.059C368.237 283.816 364.622 278.705 362.379 272.723Z" fill="white" fill-opacity="0.2"/>
<path d="M394.537 269.357H378.832V289.923H394.537V269.357Z" fill="#E5F4FD"/>
<path d="M392.416 271.85H381.074V287.43H392.416V271.85Z" fill="#4FB2F3"/>
<path d="M381.074 272.723V287.43H392.416V286.059C386.808 283.816 383.318 278.705 381.074 272.723Z" fill="white" fill-opacity="0.2"/>
<path d="M413.983 293.539V299.396H322.375V293.539H413.983Z" fill="white" stroke="black" stroke-width="0.5"/>
<path d="M413.983 296.654V299.271H322.375V296.654H413.983Z" fill="white" stroke="black" stroke-width="0.5"/>
<path d="M357.271 304.631H341.566V325.196H357.271V304.631Z" fill="#E5F4FD"/>
<path d="M355.026 307.123H343.684V322.703H355.026V307.123Z" fill="#4FB2F3"/>
<path d="M343.684 307.996V322.704H355.026V321.333C349.542 319.089 346.052 313.979 343.684 307.996Z" fill="white" fill-opacity="0.2"/>
<path d="M375.966 304.631H360.262V325.196H375.966V304.631Z" fill="#E5F4FD"/>
<path d="M373.721 307.123H362.379V322.703H373.721V307.123Z" fill="#4FB2F3"/>
<path d="M362.379 307.996V322.704H373.721V321.333C368.237 319.089 364.622 313.979 362.379 307.996Z" fill="white" fill-opacity="0.2"/>
<path d="M394.537 304.631H378.832V325.196H394.537V304.631Z" fill="#E5F4FD"/>
<path d="M392.416 307.123H381.074V322.703H392.416V307.123Z" fill="#4FB2F3"/>
<path d="M381.074 307.996V322.704H392.416V321.333C386.808 319.089 383.318 313.979 381.074 307.996Z" fill="white" fill-opacity="0.2"/>
<path d="M357.271 327.314H341.566V347.88H357.271V327.314Z" fill="#E5F4FD"/>
<path d="M355.026 329.807H343.684V345.387H355.026V329.807Z" fill="#4FB2F3"/>
<path d="M343.684 330.803V345.51H355.026V344.139C349.542 341.896 346.052 336.661 343.684 330.803Z" fill="white" fill-opacity="0.2"/>
<path d="M375.966 327.314H360.262V347.88H375.966V327.314Z" fill="#E5F4FD"/>
<path d="M373.721 329.807H362.379V345.387H373.721V329.807Z" fill="#4FB2F3"/>
<path d="M362.379 330.803V345.51H373.721V344.139C368.237 341.896 364.622 336.661 362.379 330.803Z" fill="white" fill-opacity="0.2"/>
<path d="M394.537 327.314H378.832V347.88H394.537V327.314Z" fill="#E5F4FD"/>
<path d="M392.416 329.807H381.074V345.387H392.416V329.807Z" fill="#4FB2F3"/>
<path d="M381.074 330.803V345.51H392.416V344.139C386.808 341.896 383.318 336.661 381.074 330.803Z" fill="white" fill-opacity="0.2"/>
<path d="M413.983 351.621V357.478H322.375V351.621H413.983Z" fill="white" stroke="black" stroke-width="0.5"/>
<path d="M413.983 354.736V357.353H322.375V354.736H413.983Z" fill="white" stroke="black" stroke-width="0.5"/>
<path d="M357.271 362.588H341.566V383.153H357.271V362.588Z" fill="#E5F4FD"/>
<path d="M355.026 365.08H343.684V380.66H355.026V365.08Z" fill="#4FB2F3"/>
<path d="M343.684 366.078V380.786H355.026V379.415C349.542 377.171 346.052 371.936 343.684 366.078Z" fill="white" fill-opacity="0.2"/>
<path d="M375.966 362.588H360.262V383.153H375.966V362.588Z" fill="#E5F4FD"/>
<path d="M373.721 365.08H362.379V380.66H373.721V365.08Z" fill="#4FB2F3"/>
<path d="M362.379 366.078V380.786H373.721V379.415C368.237 377.171 364.622 371.936 362.379 366.078Z" fill="white" fill-opacity="0.2"/>
<path d="M394.537 362.588H378.832V383.153H394.537V362.588Z" fill="#E5F4FD"/>
<path d="M392.416 365.08H381.074V380.66H392.416V365.08Z" fill="#4FB2F3"/>
<path d="M381.074 366.078V380.786H392.416V379.415C386.808 377.171 383.318 371.936 381.074 366.078Z" fill="white" fill-opacity="0.2"/>
<path d="M357.271 385.396H341.566V405.962H357.271V385.396Z" fill="#E5F4FD"/>
<path d="M355.026 387.889H343.684V403.469H355.026V387.889Z" fill="#4FB2F3"/>
<path d="M343.684 388.762V403.469H355.026V402.098C349.542 399.979 346.052 394.744 343.684 388.762Z" fill="white" fill-opacity="0.2"/>
<path d="M375.966 385.396H360.262V405.962H375.966V385.396Z" fill="#E5F4FD"/>
<path d="M373.721 387.889H362.379V403.469H373.721V387.889Z" fill="#4FB2F3"/>
<path d="M362.379 388.762V403.469H373.721V402.098C368.237 399.979 364.622 394.744 362.379 388.762Z" fill="white" fill-opacity="0.2"/>
<path d="M394.537 385.396H378.832V405.962H394.537V385.396Z" fill="#E5F4FD"/>
<path d="M392.416 387.889H381.074V403.469H392.416V387.889Z" fill="#4FB2F3"/>
<path d="M381.074 388.762V403.469H392.416V402.098C386.808 399.979 383.318 394.744 381.074 388.762Z" fill="white" fill-opacity="0.2"/>
<path d="M413.983 409.578V415.435H322.375V409.578H413.983Z" fill="white" stroke="black" stroke-width="0.5"/>
<path d="M413.983 412.818V415.435H322.375V412.818H413.983Z" fill="white" stroke="black" stroke-width="0.5"/>
<path d="M357.271 420.67H341.566V441.235H357.271V420.67Z" fill="#E5F4FD"/>
<path d="M355.026 423.162H343.684V438.742H355.026V423.162Z" fill="#4FB2F3"/>
<path d="M343.684 424.035V438.743H355.026V437.372C349.542 435.253 346.052 430.018 343.684 424.035Z" fill="white" fill-opacity="0.2"/>
<path d="M375.966 420.67H360.262V441.235H375.966V420.67Z" fill="#E5F4FD"/>
<path d="M373.721 423.162H362.379V438.742H373.721V423.162Z" fill="#4FB2F3"/>
<path d="M362.379 424.035V438.743H373.721V437.372C368.237 435.253 364.622 430.018 362.379 424.035Z" fill="white" fill-opacity="0.2"/>
<path d="M394.537 420.67H378.832V441.235H394.537V420.67Z" fill="#E5F4FD"/>
<path d="M392.416 423.162H381.074V438.742H392.416V423.162Z" fill="#4FB2F3"/>
<path d="M381.074 424.035V438.743H392.416V437.372C386.808 435.253 383.318 430.018 381.074 424.035Z" fill="white" fill-opacity="0.2"/>
<path d="M357.271 443.479H341.566V464.044H357.271V443.479Z" fill="#E5F4FD"/>
<path d="M355.026 445.971H343.684V461.551H355.026V445.971Z" fill="#4FB2F3"/>
<path d="M343.684 446.844V461.551H355.026V460.18C349.542 457.937 346.052 452.826 343.684 446.844Z" fill="white" fill-opacity="0.2"/>
<path d="M375.966 443.479H360.262V464.044H375.966V443.479Z" fill="#E5F4FD"/>
<path d="M373.721 445.971H362.379V461.551H373.721V445.971Z" fill="#4FB2F3"/>
<path d="M362.379 446.844V461.551H373.721V460.18C368.237 457.937 364.622 452.826 362.379 446.844Z" fill="white" fill-opacity="0.2"/>
<path d="M394.537 443.479H378.832V464.044H394.537V443.479Z" fill="#E5F4FD"/>
<path d="M392.416 445.971H381.074V461.551H392.416V445.971Z" fill="#4FB2F3"/>
<path d="M381.074 446.844V461.551H392.416V460.18C386.808 457.937 383.318 452.826 381.074 446.844Z" fill="white" fill-opacity="0.2"/>
<path d="M413.858 467.91V479.251H322.25V467.91H413.858Z" fill="white" stroke="black" stroke-width="0.5"/>
<path d="M413.858 473.768V479.126H322.25V473.768H413.858Z" fill="white" stroke="black" stroke-width="0.5"/>
<path d="M403.887 104.092V112.067H332.719V104.092H403.887Z" fill="white" stroke="black" stroke-width="0.5"/>
<path d="M395.75 96.25V103.75H339.25V96.25H395.75Z" fill="white" stroke="black" stroke-width="0.5"/>
<path d="M386.562 88.0156V95.9912H347.426V88.0156H386.562Z" fill="white" stroke="black" stroke-width="0.5"/>
<path d="M370.481 61.0938V87.5156H364.625V61.0938H370.481Z" fill="white" stroke="black" stroke-width="0.5"/>
<path d="M368.741 34.1719V60.5938H366.125V34.1719H368.741Z" fill="white" stroke="black" stroke-width="0.5"/>
<path d="M367.75 7.25V33.75H366.25V7.25H367.75Z" fill="white" stroke="black" stroke-width="0.5"/>
<path d="M408.873 111.568V119.544H327.734V111.568H408.873Z" fill="white" stroke="black" stroke-width="0.5"/>
<path d="M413.983 119.168V125.024H322.375V119.168H413.983Z" fill="white" stroke="black" stroke-width="0.5"/>
</g>
<defs>
<clipPath id="clip0_7202_60755">
<rect width="31.1731" height="10.8635" fill="white" transform="translate(110.785 365.293)"/>
</clipPath>
<clipPath id="clip1_7202_60755">
<rect width="78.2835" height="76.6" fill="white" transform="translate(47 403)"/>
</clipPath>
<clipPath id="clip2_7202_60755">
<rect width="31.4648" height="32.5498" fill="white" transform="matrix(-1 0 0 1 38.4648 447)"/>
</clipPath>
<clipPath id="clip3_7202_60755">
<rect width="92.2333" height="475.5" fill="white" transform="translate(322 4)"/>
</clipPath>
</defs>
</svg>
