<svg width="30" height="32" viewBox="0 0 30 32" fill="none" xmlns="http://www.w3.org/2000/svg">
<g clip-path="url(#clip0_1397_214616)">
<path d="M14.3273 31.1633C7.27273 29.3815 1.09091 21.5269 0.509088 13.636C0.399997 12.1815 0.472725 10.7997 0.763634 9.5633C1.34545 6.90876 2.69091 4.83603 4.65454 3.56331L7.34545 1.78149C5.41818 3.05421 4.03636 5.12694 3.45454 7.78149C3.2 9.01785 3.09091 10.3633 3.2 11.8542C3.78182 19.7451 10 27.5633 17.0182 29.3815C20 30.1451 22.6182 29.7088 24.6545 28.3997L21.9636 30.1815C19.9273 31.4906 17.2727 31.9269 14.3273 31.1633Z" fill="#4FB2F3"/>
<path d="M14.3273 31.1633C7.27273 29.3815 1.09091 21.5269 0.509088 13.636C0.399997 12.1815 0.472725 10.7997 0.763634 9.5633C1.34545 6.90876 2.69091 4.83603 4.65454 3.56331L7.34545 1.78149C5.41818 3.05422 4.03636 5.12694 3.45454 7.78149C3.2 9.01785 3.09091 10.3633 3.2 11.8542C3.78182 19.7451 10 27.5633 17.0182 29.3815C20 30.1451 22.6182 29.7088 24.6545 28.3997L21.9636 30.1815C19.9273 31.4906 17.2727 31.9269 14.3273 31.1633Z" stroke="#111111" stroke-width="0.7" stroke-miterlimit="10" stroke-linecap="round" stroke-linejoin="round"/>
<path d="M3.45263 7.81705L0.761719 9.5625" stroke="#111111" stroke-width="0.7" stroke-miterlimit="10" stroke-linecap="round" stroke-linejoin="round"/>
<path d="M6.90966 21.8913L4.21875 23.6367" stroke="#111111" stroke-width="0.7" stroke-miterlimit="10" stroke-linecap="round" stroke-linejoin="round"/>
<path d="M3.81712 15.3097L1.08984 16.9824" stroke="#111111" stroke-width="0.7" stroke-miterlimit="10" stroke-linecap="round" stroke-linejoin="round"/>
<path d="M12.3267 27.5633L9.78125 29.127" stroke="#111111" stroke-width="0.7" stroke-miterlimit="10" stroke-linecap="round" stroke-linejoin="round"/>
<path d="M17.818 29.5631L14.9453 31.3086" stroke="#111111" stroke-width="0.7" stroke-miterlimit="10" stroke-linecap="round" stroke-linejoin="round"/>
<path d="M17.0166 29.417C9.99837 27.5988 3.78019 19.7807 3.19837 11.8898C3.08928 10.4352 3.19837 9.05339 3.45292 7.81703C4.61655 2.36248 9.16201 -0.619333 14.9075 0.835213C21.9984 2.65339 28.1802 10.4716 28.762 18.3988C28.8711 19.8534 28.762 21.1988 28.5075 22.4352C27.3802 27.8534 22.7984 30.8716 17.0166 29.417Z" fill="white"/>
<path d="M17.0166 29.417C9.99837 27.5988 3.78019 19.7807 3.19837 11.8898C3.08928 10.4352 3.19837 9.05339 3.45292 7.81703C4.61655 2.36248 9.16201 -0.619333 14.9075 0.835212C21.9984 2.65339 28.1802 10.4716 28.762 18.3988C28.8711 19.8534 28.762 21.1988 28.5075 22.4352C27.3802 27.8534 22.7984 30.8716 17.0166 29.417Z" stroke="#111111" stroke-width="0.7" stroke-miterlimit="10" stroke-linecap="round" stroke-linejoin="round"/>
<path d="M26.5085 21.2364C26.7267 20.2182 26.7994 19.0546 26.7267 17.8546C26.254 11.2364 21.054 4.65456 15.1267 3.16365C10.2903 1.92729 6.50852 4.47274 5.5267 9.0182C5.30852 10.0364 5.2358 11.2 5.30852 12.4C5.81761 18.9818 10.9813 25.5637 16.8722 27.0909C21.7085 28.3273 25.5267 25.7818 26.5085 21.2364Z" stroke="#111111" stroke-width="0.7" stroke-miterlimit="10" stroke-linecap="round" stroke-linejoin="round"/>
<path d="M20.7295 17.2001C20.7295 17.2365 20.6205 17.3456 20.5114 17.4547C20.3659 17.6001 20.1841 17.7456 19.9659 17.8911C19.7477 18.0365 19.4932 18.2183 19.2023 18.3638C18.9114 18.5092 18.5841 18.6547 18.2568 18.7638L17.275 16.4729L17.8205 16.2547C18.3659 16.0001 18.875 15.7456 19.3114 15.4547C19.7477 15.2001 20.075 14.8729 20.2932 14.5456C20.5114 14.2183 20.6568 13.8183 20.6932 13.4183C20.7295 12.982 20.6205 12.5092 20.3659 11.9638C20.075 11.3092 19.7477 10.8001 19.3114 10.4001C18.875 10.0001 18.4023 9.67287 17.8568 9.45469C17.3114 9.2365 16.7659 9.09105 16.1477 9.05469C15.5659 8.98196 14.9477 9.01832 14.3295 9.09105L13.4568 7.12741L12.1841 7.34559L13.0205 9.30923C12.1841 9.52741 11.4205 9.81832 10.6932 10.182C9.96591 10.582 9.34773 11.0183 8.875 11.5274L11.2386 13.7092C11.275 13.6365 11.3477 13.5274 11.5295 13.382C11.675 13.2001 11.8932 13.0547 12.1841 12.8365C12.475 12.6547 12.7659 12.4365 13.1295 12.2547C13.4932 12.0729 13.8932 11.8911 14.2932 11.782L15.2386 14.0001L14.4386 14.3638C13.8932 14.6183 13.4568 14.9092 13.0932 15.1638C12.7295 15.4183 12.475 15.7092 12.2932 16.0365C12.1114 16.3274 12.0386 16.6911 12.0386 17.0183C12.0386 17.382 12.1477 17.782 12.3295 18.2183C12.5841 18.8001 12.9114 19.3092 13.3114 19.7092C13.7114 20.1092 14.1841 20.4729 14.6932 20.7274C15.2023 20.982 15.7477 21.1638 16.3659 21.2729C16.9477 21.382 17.5659 21.4183 18.1841 21.3456L18.9114 23.0547L20.1841 22.8365L19.4568 21.1274C20.2205 20.9456 20.9114 20.6547 21.4932 20.2547C22.075 19.8911 22.5841 19.5274 22.9841 19.1638L20.7295 17.2001ZM15.675 18.182C15.5659 17.8911 15.5659 17.6729 15.7114 17.4547C15.8568 17.2729 16.1114 17.0547 16.5114 16.8729L17.3841 18.9456C16.5114 19.0183 15.9295 18.7638 15.675 18.182ZM16.9841 12.2547C17.0932 12.5456 17.0932 12.8001 16.875 12.982C16.6932 13.2001 16.4023 13.382 16.0386 13.6001L15.1659 11.6001C16.1477 11.4547 16.7295 11.6729 16.9841 12.2547Z" fill="white"/>
<g clip-path="url(#clip1_1397_214616)">
<path d="M22.2615 12.4143C22.4401 12.6951 22.3549 13.0694 22.0714 13.2496C21.7879 13.4299 21.4128 13.3482 21.2343 13.0674L20.2052 11.4488L19.4766 11.9121L20.5056 13.5307C20.9378 14.2104 21.8449 14.409 22.5325 13.9719C23.2187 13.5356 23.426 12.6303 22.9929 11.9493L21.9639 10.3307L21.2352 10.794L22.2643 12.4125L22.2615 12.4143Z" fill="black"/>
<path d="M19.6794 11.1824C19.941 11.016 20.021 10.6699 19.8553 10.4094C19.6906 10.1503 19.3437 10.0736 19.0807 10.2408C18.8191 10.4071 18.7392 10.7533 18.9048 11.0138C19.0704 11.2742 19.4164 11.3496 19.6794 11.1824Z" fill="url(#paint0_linear_1397_214616)"/>
<path d="M21.2176 10.2044C21.4792 10.0381 21.5592 9.69197 21.3935 9.43148C21.2274 9.17322 20.8814 9.09791 20.6198 9.26423C20.3582 9.43056 20.2782 9.7767 20.4438 10.0372C20.6086 10.2963 20.9546 10.3716 21.2176 10.2044Z" fill="url(#paint1_linear_1397_214616)"/>
<path d="M12.0872 14.687C11.8256 14.8533 11.747 15.1986 11.9126 15.4591C12.0774 15.7182 12.4242 15.7949 12.6872 15.6277C12.9488 15.4613 13.0288 15.1152 12.8631 14.8547C12.6962 14.5951 12.3502 14.5198 12.0872 14.687Z" fill="url(#paint2_linear_1397_214616)"/>
<path d="M18.3476 14.6639C18.3717 14.6715 18.3935 14.6786 18.4158 14.6834L17.4669 13.191L16.7383 13.6543L17.1877 14.3611C17.6865 14.4651 18.0669 14.5794 18.3476 14.6639Z" fill="black"/>
<path d="M19.5219 14.1559C19.6452 14.3499 19.6426 14.5878 19.5362 14.7774C19.4886 14.8629 19.4202 14.9369 19.3326 14.9926C18.9217 15.2538 18.5532 14.9737 17.4023 14.7034C17.2845 14.6754 17.1573 14.6477 17.0206 14.6203C16.6916 14.496 16.3999 14.4396 16.1452 14.4262C15.8063 14.3864 15.455 14.4478 15.1354 14.6167C15.1076 14.6305 15.0849 14.6431 15.0648 14.654C15.0407 14.6674 15.0229 14.6787 15.0092 14.6874C14.927 14.7397 14.8491 14.7987 14.7797 14.8619C14.622 15.0041 14.4942 15.1692 14.4015 15.35L14.2755 15.152L13.5469 15.6152L14.4681 17.0642L15.1021 18.0614L15.3894 18.5132L16.1167 18.0508L15.9924 17.8554L15.8294 17.599L15.1954 16.6018C14.9944 16.2857 15.0291 15.8864 15.2501 15.6049C15.3096 15.529 15.3809 15.4627 15.4658 15.4087C15.4891 15.3939 15.5119 15.3813 15.5355 15.3701C15.546 15.3654 15.5578 15.3598 15.5683 15.355C15.5801 15.3494 15.5905 15.3447 15.6023 15.3391C15.6178 15.3331 15.6346 15.3262 15.6508 15.3216C15.6536 15.3198 15.6558 15.3203 15.6586 15.3186C15.6839 15.3101 15.7102 15.3029 15.7359 15.298C15.8271 15.2781 15.9117 15.272 15.9798 15.2763C16.0054 15.2772 16.0318 15.2794 16.0591 15.283C16.0797 15.2852 16.1011 15.2887 16.1212 15.293C16.1212 15.293 16.1212 15.293 16.1235 15.2935C16.1413 15.2974 16.1525 15.2998 16.1525 15.2998C16.1525 15.2998 16.9216 15.4871 17.5969 15.6598C17.8882 15.7338 18.1611 15.806 18.3483 15.8585C18.9429 16.0253 19.3979 15.9665 19.7923 15.7157C19.8759 15.6626 19.9515 15.6031 20.0192 15.5372C20.5174 15.0623 20.6309 14.291 20.2514 13.694L19.2215 12.0741L18.4928 12.5373L19.5219 14.1559Z" fill="url(#paint3_linear_1397_214616)"/>
<path d="M11.0995 17.2388C10.916 17.3555 10.7679 17.5068 10.6566 17.6766L10.0588 16.7364C9.96741 16.5926 9.7763 16.5522 9.63249 16.6436L9.16406 16.9414L10.6391 19.2614L10.866 19.6182L11.6682 20.88L12.3968 20.4167L11.5946 19.1549L11.3669 18.7968C11.1883 18.5159 11.2749 18.1408 11.557 17.9614C11.8406 17.7812 12.2156 17.8628 12.3941 18.1437L13.4241 19.7636L14.1527 19.3003L13.1228 17.6804C12.692 16.9998 11.7857 16.8025 11.0995 17.2388Z" fill="url(#paint4_linear_1397_214616)"/>
<path d="M13.2912 15.777L12.5625 16.2402L14.405 19.1382L15.1337 18.6749L13.2912 15.777Z" fill="url(#paint5_linear_1397_214616)"/>
</g>
</g>
<defs>
<linearGradient id="paint0_linear_1397_214616" x1="22.2961" y1="15.299" x2="18.749" y2="9.71999" gradientUnits="userSpaceOnUse">
<stop stop-color="#E74C69"/>
<stop offset="1" stop-color="#F8846F"/>
</linearGradient>
<linearGradient id="paint1_linear_1397_214616" x1="23.8343" y1="14.3211" x2="20.2872" y2="8.74208" gradientUnits="userSpaceOnUse">
<stop stop-color="#E74C69"/>
<stop offset="1" stop-color="#F8846F"/>
</linearGradient>
<linearGradient id="paint2_linear_1397_214616" x1="15.3296" y1="19.7855" x2="11.8373" y2="14.2928" gradientUnits="userSpaceOnUse">
<stop stop-color="#E74C69"/>
<stop offset="1" stop-color="#F8846F"/>
</linearGradient>
<linearGradient id="paint3_linear_1397_214616" x1="18.7697" y1="17.599" x2="15.2775" y2="12.1062" gradientUnits="userSpaceOnUse">
<stop stop-color="#E74C69"/>
<stop offset="1" stop-color="#F8846F"/>
</linearGradient>
<linearGradient id="paint4_linear_1397_214616" x1="13.4705" y1="20.969" x2="9.9783" y2="15.4763" gradientUnits="userSpaceOnUse">
<stop stop-color="#E74C69"/>
<stop offset="1" stop-color="#F8846F"/>
</linearGradient>
<linearGradient id="paint5_linear_1397_214616" x1="15.329" y1="19.7857" x2="11.8368" y2="14.2929" gradientUnits="userSpaceOnUse">
<stop stop-color="#E74C69"/>
<stop offset="1" stop-color="#F8846F"/>
</linearGradient>
<clipPath id="clip0_1397_214616">
<rect width="29.2727" height="32" fill="white" transform="matrix(1 0 0 -1 0 32)"/>
</clipPath>
<clipPath id="clip1_1397_214616">
<rect width="14.3478" height="5" fill="white" transform="translate(8.98438 16.6602) rotate(-32.4478)"/>
</clipPath>
</defs>
</svg>
