<svg width="124" height="44" viewBox="0 0 124 44" fill="none" xmlns="http://www.w3.org/2000/svg">
<g clip-path="url(#clip0_2371_34608)">
<path d="M116.537 30.9892C116.537 33.8654 114.181 36.1996 111.277 36.1996C108.374 36.1996 106.017 33.8654 106.017 30.9892V14.4131H98.5547V30.9892C98.5547 37.9503 104.25 43.6054 111.291 43.6054C118.319 43.6054 124.028 37.9642 124.028 30.9892V14.4131H116.565V30.9892H116.537Z" fill="#162732"/>
<path d="M103.406 10.0227C106.086 10.0227 108.274 7.86901 108.274 5.20127C108.274 2.54742 106.1 0.379883 103.406 0.379883C100.727 0.379883 98.5391 2.53353 98.5391 5.20127C98.5391 7.86901 100.713 10.0227 103.406 10.0227Z" fill="#4FB2F3"/>
<path d="M119.145 10.0224C121.824 10.0224 124.012 7.86879 124.012 5.20105C123.998 2.5472 121.824 0.393555 119.145 0.393555C116.466 0.393555 114.277 2.5472 114.277 5.21494C114.277 7.86879 116.452 10.0224 119.145 10.0224Z" fill="#4FB2F3"/>
<path d="M31.785 0.394043C29.1058 0.394043 26.9316 2.54769 26.9316 5.21543C26.9316 7.86928 29.1058 10.0368 31.799 10.0368C34.4782 10.0368 36.6664 7.88317 36.6664 5.21543C36.6524 2.54769 34.4782 0.394043 31.785 0.394043Z" fill="#4FB2F3"/>
<path d="M77.5419 29.2385C77.6822 29.4052 77.8085 29.5581 77.9487 29.697V14.4131H70.4863V21.6521C73.6424 24.7228 75.8867 27.3211 77.5419 29.2385Z" fill="#162732"/>
<path d="M88.4837 30.9892C88.4837 32.9761 87.3616 34.699 85.7064 35.5883C84.963 35.9912 84.1213 36.2135 83.2236 36.2135C79.0155 36.2135 77.6268 32.462 70.487 25.1535C69.7576 24.4032 68.9581 23.6112 68.0884 22.7775C66.2649 20.346 64.3993 18.5814 62.6038 17.3031C60.3174 15.4413 57.4699 14.2602 54.3559 14.0101C54.0894 13.9823 53.865 13.9684 53.6686 13.9545C53.4301 13.9407 53.2478 13.9407 53.1075 13.9407C52.2659 13.9407 51.4243 14.0101 50.6247 14.1491C48.8152 14.4547 47.1179 15.0661 45.603 15.9554V13.9268H38.1406V28.7661V38.9785V43.6054H45.589V41.6046V38.9785V28.7661C45.589 25.5287 47.6931 22.7775 50.6107 21.7494C51.3962 21.4715 52.2238 21.3186 53.0935 21.3186C53.3319 21.3186 53.5564 21.3325 53.7808 21.3603C53.879 21.3742 53.9912 21.3881 54.0894 21.402C54.2016 21.4159 54.2998 21.4298 54.412 21.4437C54.5523 21.4715 54.7066 21.4993 54.8469 21.5409C54.8749 21.5409 54.8889 21.5548 54.917 21.5548C55.1414 21.6104 55.3659 21.6799 55.5763 21.7632C56.3337 22.0411 56.979 22.3885 57.4559 22.7359C57.6382 22.8609 57.8206 22.9999 58.0029 23.1527C58.1432 23.2639 58.2835 23.3889 58.4097 23.514C58.4097 23.514 58.4097 23.514 58.4238 23.5278C58.536 23.639 58.6061 23.7085 58.6061 23.7085C58.6061 23.7085 63.3473 28.641 67.4712 33.0317C69.2526 34.9213 70.9078 36.7137 72.03 37.9642C75.5929 41.938 79.1838 43.6193 83.2236 43.6193C84.0792 43.6193 84.9068 43.5359 85.7064 43.3692C91.5416 42.2159 95.9461 37.1167 95.9461 31.0031V14.4131H88.4837V30.9892Z" fill="#4FB2F3"/>
<path d="M12.7366 14.4139C10.8569 14.4139 9.07551 14.8307 7.47642 15.5532V5.92435C7.47642 4.45154 6.2701 3.27051 4.79726 3.27051H0V27.0301V30.6843V43.6062H7.4624V30.6843V27.0162C7.4624 24.14 9.83297 21.8058 12.7225 21.8058C15.6261 21.8058 17.9827 24.14 17.9827 27.0162V43.6062H25.4451V27.0162C25.4591 20.055 19.7641 14.4139 12.7366 14.4139Z" fill="#4FB2F3"/>
<path d="M35.5151 13.9268H28.0527V43.6054H35.5151V13.9268Z" fill="#4FB2F3"/>
</g>
<defs>
<clipPath id="clip0_2371_34608">
<rect width="123.999" height="43.2119" fill="white" transform="translate(0 0.394043)"/>
</clipPath>
</defs>
</svg>
