<svg width="120" height="110" viewBox="0 0 120 110" fill="none" xmlns="http://www.w3.org/2000/svg">
<ellipse cx="60" cy="104.072" rx="60" ry="5" fill="white"/>
<path d="M106.375 10.2601C106.375 10.2601 104.049 12.9119 103.208 15.0634C102.367 17.1899 102.589 17.0398 100.56 18.0404C98.5314 19.0411 92.8404 21.3427 90.465 22.3934C88.0897 23.4442 81.409 27.0466 81.0131 26.8715C80.6172 26.6964 79.6769 26.2461 79.6769 26.2461C79.6769 26.2461 78.3903 27.8472 77.4253 28.0223C76.485 28.1974 67.231 29.7985 61.4906 31.1244C55.7501 32.4504 54.6861 32.0251 53.8201 31.95C52.9541 31.875 52.0881 31.1495 52.0881 31.1495C52.0881 31.1495 51.1478 32.0751 49.7375 32.3253C48.3271 32.6005 33.5306 31.2746 31.947 31.3246C30.3634 31.3746 29.6954 30.3739 28.1613 30.6741C26.6272 30.9493 27.0478 29.8986 25.8354 28.6477C24.623 27.3969 23.0146 26.5713 23.0146 26.5713L22.7672 25.2454C22.7672 25.2454 31.2294 19.3413 36.4255 16.2642C41.6216 13.1871 50.6282 11.0106 61.3916 8.25872C72.1302 5.50682 86.4813 7.03287 90.8362 7.45817C95.191 7.88346 102.861 9.65968 102.861 9.65968L106.375 10.2601Z" fill="white" stroke="black" stroke-width="0.5" stroke-miterlimit="10" stroke-linecap="round" stroke-linejoin="round"/>
<path d="M101.574 17.4648C101.574 17.4648 101.154 15.8136 100.609 14.813C100.065 13.8123 92.2707 11.3105 92.2707 11.3105" stroke="black" stroke-width="0.5" stroke-miterlimit="10" stroke-linecap="round" stroke-linejoin="round"/>
<path d="M79.7031 26.2713C79.7031 26.2713 72.0079 12.2617 70.3501 11.2109" stroke="black" stroke-width="0.5" stroke-miterlimit="10" stroke-linecap="round" stroke-linejoin="round"/>
<path d="M52.0881 31.1739L54.9336 14.5625" stroke="black" stroke-width="0.5" stroke-miterlimit="10" stroke-linecap="round" stroke-linejoin="round"/>
<path d="M28.8772 30.5743C28.8772 30.5743 31.2526 26.7967 34.7167 23.0441C38.1807 19.2915 39.7891 18.0156 39.7891 18.0156" stroke="black" stroke-width="0.5" stroke-miterlimit="10" stroke-linecap="round" stroke-linejoin="round"/>
<path d="M80.0232 109.279L63.173 11.1861L64.3854 10.9609L81.2852 109.279H80.0232Z" fill="black"/>
<path d="M74.0602 2.07919C74.0602 2.07919 77.8459 1.37871 84.2544 2.27932C90.6382 3.17994 100.758 7.60799 102.218 8.33349C103.703 9.05899 106.375 10.2848 106.375 10.2848C106.375 10.2848 105.187 11.8609 104.247 12.036C103.307 12.2112 86.6545 12.1111 85.4916 11.8359C84.3287 11.5607 82.7698 9.63439 81.3347 10.51C79.8996 11.3856 79.7017 11.6858 79.3553 11.7358C79.0089 11.8109 67.2063 12.8866 58.0265 14.863C48.8467 16.8143 47.3374 17.2396 46.4466 17.0395C45.5558 16.8393 45.1352 15.9137 43.8733 17.0145C42.6114 18.1152 41.8938 18.8657 40.7061 19.0909C39.5185 19.316 36.1286 19.4411 32.813 21.4425C29.4974 23.4189 25.4395 25.9206 24.2518 26.1457C23.0641 26.3709 22.7425 25.3202 22.7425 25.3202C22.7425 25.3202 27.221 19.6663 32.5408 15.3383C37.8607 11.0103 47.1889 7.15768 49.2426 6.40717C51.2963 5.65665 51.7169 4.58091 53.9191 3.93046C56.1213 3.28001 65.5732 1.50379 68.4434 1.10352C71.3384 0.603172 74.0602 2.07919 74.0602 2.07919Z" fill="white" stroke="black" stroke-width="0.5" stroke-miterlimit="10" stroke-linecap="round" stroke-linejoin="round"/>
<path d="M74.0613 2.08008C74.0613 2.08008 79.3811 6.40806 82.0039 10.1106" stroke="black" stroke-width="0.5" stroke-miterlimit="10" stroke-linecap="round" stroke-linejoin="round"/>
<path d="M50.207 6.05664C50.207 6.05664 46.1739 11.3853 44.6398 16.3637" stroke="black" stroke-width="0.5" stroke-miterlimit="10" stroke-linecap="round" stroke-linejoin="round"/>
<path d="M93.5586 45.4576L71.2896 44.0566L43.3791 85.3601L64.1387 89.0126L93.5586 45.4576Z" stroke="black" stroke-width="0.5" stroke-miterlimit="10" stroke-linecap="round" stroke-linejoin="round"/>
<path d="M93.5586 45.4576L71.2896 44.0566L43.3791 85.3601L64.1387 89.0126L93.5586 45.4576Z" fill="#CFEBFB" stroke="black" stroke-width="0.5" stroke-miterlimit="10" stroke-linecap="round" stroke-linejoin="round"/>
<path d="M93.0391 44.0566H71.2897L69.2854 46.9586L91.0101 47.1838L93.0391 44.0566Z" fill="white" stroke="black" stroke-width="0.5" stroke-miterlimit="10" stroke-linecap="round" stroke-linejoin="round"/>
<path d="M27.2706 104.473L68.8395 44.0566H71.2891L30.2151 104.473H27.2706Z" fill="white" stroke="black" stroke-width="0.5" stroke-miterlimit="10" stroke-linecap="round" stroke-linejoin="round"/>
<path d="M30.2163 104.473L71.2902 44.0566L72.082 45.6327L32.6411 104.473H30.2163Z" fill="white" stroke="black" stroke-width="0.5" stroke-miterlimit="10" stroke-linecap="round" stroke-linejoin="round"/>
<path d="M56.7178 66.8477L62.8047 100.871L60.3798 99.37L55.0353 69.3494L56.7178 66.8477Z" fill="white" stroke="black" stroke-width="0.5" stroke-miterlimit="10" stroke-linecap="round" stroke-linejoin="round"/>
<path d="M57.7816 67.0234L63.8438 101.422L61.4436 99.9211L56.0991 69.5502L57.7816 67.0234Z" fill="white" stroke="black" stroke-width="0.5" stroke-miterlimit="10" stroke-linecap="round" stroke-linejoin="round"/>
<path d="M57.7812 67.0228L56.7173 66.8477L55.0347 69.3494L56.0987 69.5495L57.7812 67.0228Z" fill="white" stroke="black" stroke-width="0.5" stroke-miterlimit="10" stroke-linecap="round" stroke-linejoin="round"/>
<path d="M31.2295 80.707L71.6602 104.523H67.627L30.3635 82.7584L31.2295 80.707Z" fill="white" stroke="black" stroke-width="0.5" stroke-miterlimit="10" stroke-linecap="round" stroke-linejoin="round"/>
<path d="M32.5655 80.707L72.9961 104.523H68.9382L31.6994 82.7584L32.5655 80.707Z" fill="white" stroke="black" stroke-width="0.5" stroke-miterlimit="10" stroke-linecap="round" stroke-linejoin="round"/>
<path d="M89.4531 52.9609C89.4531 52.9609 84.9746 68.2465 77.5763 78.9288C70.1781 89.6112 62.854 90.787 62.854 90.787L89.4531 52.9609Z" fill="#CFEBFB" stroke="black" stroke-width="0.5" stroke-miterlimit="10" stroke-linecap="round" stroke-linejoin="round"/>
<path d="M80.1957 66.8477L86.2578 100.871L83.833 99.37L78.5131 69.3494L80.1957 66.8477Z" fill="white" stroke="black" stroke-width="0.5" stroke-miterlimit="10" stroke-linecap="round" stroke-linejoin="round"/>
<path d="M81.2621 67.0234L87.3242 101.422L84.8994 99.9211L79.5548 69.5502L81.2621 67.0234Z" fill="white" stroke="black" stroke-width="0.5" stroke-miterlimit="10" stroke-linecap="round" stroke-linejoin="round"/>
<path d="M81.2617 67.0228L80.1978 66.8477L78.5152 69.3494L79.5544 69.5495L81.2617 67.0228Z" stroke="black" stroke-width="0.5" stroke-miterlimit="10" stroke-linecap="round" stroke-linejoin="round"/>
<path d="M51.0264 80.707L91.457 104.523H87.3991L50.1604 82.7584L51.0264 80.707Z" fill="white" stroke="black" stroke-width="0.5" stroke-miterlimit="10" stroke-linecap="round" stroke-linejoin="round"/>
<path d="M52.3376 80.707L92.793 104.523H88.7351L51.4963 82.7584L52.3376 80.707Z" fill="white" stroke="black" stroke-width="0.5" stroke-miterlimit="10" stroke-linecap="round" stroke-linejoin="round"/>
<path d="M51.4947 82.7584H50.1585L51.0245 80.707H52.3359L51.4947 82.7584Z" fill="white" stroke="black" stroke-width="0.5" stroke-miterlimit="10" stroke-linecap="round" stroke-linejoin="round"/>
<path d="M51.4699 104.473L93.0387 44.0566H95.4883L54.4143 104.473H51.4699Z" fill="white" stroke="black" stroke-width="0.5" stroke-miterlimit="10" stroke-linecap="round" stroke-linejoin="round"/>
<path d="M54.4155 104.473L95.4895 44.0566L96.2812 45.6327L56.8403 104.473H54.4155Z" fill="white" stroke="black" stroke-width="0.5" stroke-miterlimit="10" stroke-linecap="round" stroke-linejoin="round"/>
<path d="M79.8748 44.3066C79.8748 44.3066 87.7184 45.2823 90.8856 46.0829C94.0527 46.8834 94.1517 47.759 93.9538 48.4095C93.7806 49.0599 88.8071 55.039 86.3823 57.3656C83.9574 59.6922 82.3491 60.7429 82.3491 60.7429L81.6068 53.513L85.1451 49.7604L78.6376 46.0829L79.8748 44.3066Z" fill="white" stroke="black" stroke-width="0.5" stroke-miterlimit="10" stroke-linecap="round" stroke-linejoin="round"/>
<path d="M67.9727 42.4051C67.9727 42.4051 63.1477 39.0528 59.1145 37.8519C55.0814 36.6511 55.2051 36.9263 55.1556 38.3273C55.1061 39.7282 55.8979 46.8331 56.269 48.4092C56.6402 49.9853 56.9619 51.7865 56.9619 51.7865L62.8013 47.1083L61.3662 43.4308L65.5973 44.9068L67.9727 42.4051Z" fill="white" stroke="black" stroke-width="0.5" stroke-miterlimit="10" stroke-linecap="round" stroke-linejoin="round"/>
<path d="M71.8579 56.1653C71.8579 56.1653 72.6002 55.9651 73.1198 55.9651C73.6146 55.9651 74.2827 55.9651 74.2827 55.9651C74.2827 55.9651 75.5446 54.4891 77.5488 54.0388C79.553 53.5885 80.1469 53.6385 80.1469 53.6385L81.7057 53.0881L81.8047 61.9192L76.9797 65.3216C76.9797 65.3216 68.0474 78.7558 67.602 79.4063C67.1566 80.0567 67.503 80.8823 66.4886 81.4327C65.4741 81.983 65.1772 81.5828 64.9297 81.3826C64.6823 81.1825 51.0487 72.3014 50.8508 71.7009C50.6528 71.1005 50.6528 70.325 51.692 69.3243C52.756 68.2986 58.4222 58.0666 58.4222 58.0666L57.8284 52.4377L63.1235 47.6094L64.7813 52.7129L71.8579 56.1653Z" fill="white" stroke="black" stroke-width="0.5" stroke-miterlimit="10" stroke-linecap="round" stroke-linejoin="round"/>
<path d="M63.943 40.3046C63.943 40.3046 63.7203 39.529 64.3389 39.0537C64.9574 38.6034 66.4173 39.1538 67.3328 39.7542C68.2483 40.3546 70.7969 42.8313 70.7969 42.8313C70.7969 42.8313 68.4463 43.3567 67.2091 43.1065C65.9719 42.8313 64.5121 41.2802 63.943 40.3046Z" fill="white" stroke="black" stroke-width="0.5" stroke-miterlimit="10" stroke-linecap="round" stroke-linejoin="round"/>
<path d="M67.1846 42.2309C67.1846 42.2309 68.0259 40.6798 69.461 39.4039C70.8961 38.1281 72.5786 36.7271 74.4591 37.4526C76.3396 38.1781 80.8677 41.6305 81.0656 43.2816C81.2636 44.9578 79.6058 47.9348 79.6058 47.9348C79.6058 47.9348 76.4634 44.8577 73.7416 44.0071C71.0198 43.1565 67.432 43.1315 67.0609 42.8563C66.6897 42.5811 67.1846 42.2309 67.1846 42.2309Z" fill="white" stroke="black" stroke-width="0.5" stroke-miterlimit="10" stroke-linecap="round" stroke-linejoin="round"/>
<path d="M66.6884 42.4312C66.6884 42.4312 68.5937 43.0566 70.6721 42.231C72.7506 41.4054 75.0517 41.6306 77.3528 43.3068C79.654 44.9829 81.7324 48.1601 81.287 50.3616C80.8416 52.5631 77.6992 52.363 76.1652 51.7626C74.6311 51.1622 65.2781 42.281 64.6842 41.5806C64.0904 40.8551 63.9419 40.3047 63.9419 40.3047C63.9419 40.3047 65.3028 42.156 66.6884 42.4312Z" fill="white" stroke="black" stroke-width="0.5" stroke-miterlimit="10" stroke-linecap="round" stroke-linejoin="round"/>
<path d="M67.1824 43.082C67.1824 43.082 66.2916 43.7325 66.1184 44.2328C65.9452 44.7332 66.1432 45.4837 65.871 45.8589C65.5741 46.2092 64.9802 47.8103 64.5101 49.0611C64.04 50.312 63.7678 52.9888 63.9657 53.8895C64.1884 54.7901 65.9947 55.5406 65.9947 55.5406C65.9947 55.5406 64.6338 58.7178 64.6338 59.6935C64.6338 60.6691 64.7823 61.5948 66.9844 61.5697C69.1866 61.5447 70.1021 59.7185 70.9186 58.7428C71.7352 57.7671 72.5269 56.5663 72.5269 56.5663L74.6054 53.0639C74.6054 53.0639 75.9663 53.3891 76.7581 52.7637C77.5498 52.1383 78.3169 51.2126 78.2179 50.8624C78.1189 50.5121 78.1189 50.5121 78.1189 50.5121L77.5746 49.7116C77.5746 49.7116 78.4406 49.5615 78.1437 48.811C77.8715 48.1105 72.1558 43.5824 67.1824 43.082Z" fill="white" stroke="black" stroke-width="0.5" stroke-miterlimit="10" stroke-linecap="round" stroke-linejoin="round"/>
<path d="M68.319 45.6602C68.319 45.6602 66.0921 47.0361 65.8446 48.6122C65.5972 50.1883 67.1313 50.2383 67.6014 49.9381C68.0715 49.6379 68.6406 49.1125 68.6406 49.1125" fill="white"/>
<path d="M68.319 45.6602C68.319 45.6602 66.0921 47.0361 65.8446 48.6122C65.5972 50.1883 67.1313 50.2383 67.6014 49.9381C68.0715 49.6379 68.6406 49.1125 68.6406 49.1125" stroke="black" stroke-width="0.5" stroke-miterlimit="10" stroke-linecap="round" stroke-linejoin="round"/>
<path d="M66.0438 51.5379C66.0438 51.5379 67.0088 52.4386 69.3594 51.4629" stroke="black" stroke-width="0.5" stroke-miterlimit="10" stroke-linecap="round" stroke-linejoin="round"/>
<path d="M68.9378 44.332C68.9378 44.332 71.6101 45.0825 73.2184 46.1833C74.8267 47.3091 73.0452 49.1854 72.3276 49.6107C71.6101 50.036 70.1502 49.3855 69.2595 48.4599C68.3687 47.5342 67.8738 45.3077 68.9378 44.332Z" fill="#4FB2F3" stroke="black" stroke-width="0.5" stroke-miterlimit="10" stroke-linecap="round" stroke-linejoin="round"/>
<path d="M68.1456 44.0576C68.1456 44.0576 66.0671 43.157 65.5475 43.4072C65.0031 43.6574 64.3351 45.6087 64.434 46.5093C64.533 47.4099 65.399 47.8102 66.7104 46.7595C68.0466 45.7088 68.294 44.3578 68.1456 44.0576Z" fill="#4FB2F3" stroke="black" stroke-width="0.5" stroke-miterlimit="10" stroke-linecap="round" stroke-linejoin="round"/>
<path d="M68.9375 44.3338L68.1457 44.0586" stroke="black" stroke-width="0.5" stroke-miterlimit="10" stroke-linecap="round" stroke-linejoin="round"/>
<path d="M68.4922 44.907C68.4922 44.907 68.4674 44.6068 68.1458 44.7569L68.4922 44.907Z" fill="white"/>
<path d="M68.4922 44.907C68.4922 44.907 68.4674 44.6068 68.1458 44.7569" stroke="black" stroke-width="0.5" stroke-miterlimit="10" stroke-linecap="round" stroke-linejoin="round"/>
<path d="M73.889 47.4609L76.2148 49.3873" stroke="black" stroke-width="0.5" stroke-miterlimit="10" stroke-linecap="round" stroke-linejoin="round"/>
<path d="M74.9774 50.2861C74.9774 50.2861 76.3383 49.1603 76.759 49.1353C77.2044 49.1103 77.6992 49.9859 77.6992 49.9859" stroke="black" stroke-width="0.5" stroke-miterlimit="10" stroke-linecap="round" stroke-linejoin="round"/>
<path d="M74.6055 53.1142L74.1353 52.9141C74.1353 52.9141 73.492 53.6896 72.9724 54.0649" stroke="black" stroke-width="0.5" stroke-miterlimit="10" stroke-linecap="round" stroke-linejoin="round"/>
<path d="M82.6236 51.7363L83.2422 62.0434L81.1143 63.0941L80.8668 52.9121L82.6236 51.7363Z" fill="white" stroke="black" stroke-width="0.5" stroke-miterlimit="10" stroke-linecap="round" stroke-linejoin="round"/>
<path d="M63.8906 47.458L56.814 54.4878L56.1954 51.7359L63.0246 46.082L63.8906 47.458Z" fill="white" stroke="black" stroke-width="0.5" stroke-miterlimit="10" stroke-linecap="round" stroke-linejoin="round"/>
<path d="M73.2422 56.6152C73.2422 56.6152 72.0792 61.3685 69.2833 64.1704" stroke="black" stroke-width="0.5" stroke-miterlimit="10" stroke-linecap="round" stroke-linejoin="round"/>
<path d="M65.0273 55.5898C65.0273 55.5898 63.0231 57.5162 62.0087 59.5926" stroke="black" stroke-width="0.5" stroke-miterlimit="10" stroke-linecap="round" stroke-linejoin="round"/>
<path d="M30.0156 78.2306L23.1865 85.8609C23.1865 85.8609 22.6668 87.5871 21.8503 88.0874C21.0338 88.5627 16.9264 84.8602 16.1346 83.8345C15.3181 82.8338 14.8974 82.4335 14.8974 82.4335C14.8974 82.4335 13.7592 83.109 13.5118 82.6337C13.2644 82.1583 13.4623 81.708 13.4623 81.708C13.4623 81.708 12.9427 81.658 12.9427 81.2327C12.9427 80.8074 13.1407 80.3571 13.1407 80.3571C13.1407 80.3571 12.4726 80.157 12.6705 79.6816C12.8685 79.2063 12.8685 79.2063 12.8685 79.2063C12.8685 79.2063 12.6705 78.781 12.819 78.4308C12.9675 78.1056 13.2891 77.8554 13.2891 77.8554C13.2891 77.8554 12.9922 76.6546 13.4376 76.2042C13.8582 75.779 14.6747 75.6789 14.9222 76.3043C15.1696 76.9297 15.1201 77.7553 15.2933 77.9054C15.4913 78.0555 21.5039 81.4328 21.5039 81.4328L26.7495 74.5781L30.0156 78.2306Z" fill="white" stroke="black" stroke-width="0.5" stroke-miterlimit="10" stroke-linecap="round" stroke-linejoin="round"/>
<path d="M13.2902 77.8557C13.2902 77.8557 14.3541 77.8307 14.6016 78.281" stroke="black" stroke-width="0.5" stroke-miterlimit="10" stroke-linecap="round" stroke-linejoin="round"/>
<path d="M12.8435 79.2071C12.8435 79.2071 13.6848 78.6818 14.3281 79.082" stroke="black" stroke-width="0.5" stroke-miterlimit="10" stroke-linecap="round" stroke-linejoin="round"/>
<path d="M13.1431 80.3573C13.1431 80.3573 13.7122 80.1071 14.2812 80.3573" stroke="black" stroke-width="0.5" stroke-miterlimit="10" stroke-linecap="round" stroke-linejoin="round"/>
<path d="M13.4621 81.7077C13.4621 81.7077 14.2044 81.2574 14.5508 81.4575" stroke="black" stroke-width="0.5" stroke-miterlimit="10" stroke-linecap="round" stroke-linejoin="round"/>
<path d="M37.5372 78.1296L40.1847 83.108C40.1847 83.108 43.921 83.4582 46.4943 83.108C49.0676 82.7578 49.9336 82.4575 49.9336 82.4575C49.9336 82.4575 42.0157 72.1254 41.7188 71.9503C41.4219 71.8002 38.0568 75.0525 37.5372 78.1296Z" fill="white" stroke="black" stroke-width="0.5" stroke-miterlimit="10" stroke-linecap="round" stroke-linejoin="round"/>
<path d="M36.647 61.693C36.647 61.693 23.8052 72.3503 23.8547 72.9257C23.9042 73.5011 30.7333 78.8047 30.7333 78.8047C30.7333 78.8047 39.6657 69.9737 39.9379 69.8736C40.2348 69.7735 37.9831 61.1426 37.9831 61.1426L36.647 61.693Z" fill="white" stroke="black" stroke-width="0.5" stroke-miterlimit="10" stroke-linecap="round" stroke-linejoin="round"/>
<path d="M36.8452 65.6203C36.8452 65.6203 46.5446 84.133 52.7552 86.3345C58.9657 88.5361 61.4401 87.4353 63.7659 85.2338C66.0918 83.0323 66.4877 81.4061 64.3845 79.73C62.2813 78.0538 50.4293 68.1971 50.4293 68.1971C50.4293 68.1971 41.3485 61.9928 39.6412 61.1422C37.9339 60.2916 36.0039 61.7676 35.608 63.2687" fill="white"/>
<path d="M36.8452 65.6203C36.8452 65.6203 46.5446 84.133 52.7552 86.3345C58.9657 88.5361 61.4401 87.4353 63.7659 85.2338C66.0918 83.0323 66.4877 81.4061 64.3845 79.73C62.2813 78.0538 50.4293 68.1971 50.4293 68.1971C50.4293 68.1971 41.3485 61.9928 39.6412 61.1422C37.9339 60.2916 36.0039 61.7676 35.608 63.2687" stroke="black" stroke-width="0.5" stroke-miterlimit="10" stroke-linecap="round" stroke-linejoin="round"/>
<path d="M40.2128 82.2827C43.0088 82.3078 47.6358 81.9075 51.0256 80.6816L62.3086 88.7122L60.3539 91.5641C57.3104 91.9644 52.7329 91.8893 46.5966 89.988C44.1717 89.2375 40.7324 87.7115 38.8272 86.5106L40.2128 82.2827Z" fill="#CFEBFB" stroke="black" stroke-width="0.5" stroke-miterlimit="10" stroke-linecap="round" stroke-linejoin="round"/>
<path d="M25.4887 71.0488L31.4023 78.529L30.2147 79.6297L23.1133 73.1253L25.4887 71.0488Z" fill="white" stroke="black" stroke-width="0.5" stroke-miterlimit="10" stroke-linecap="round" stroke-linejoin="round"/>
<path d="M28.5071 91.1387L26.2308 97.6932C26.2308 97.6932 20.4656 97.6181 19.9459 97.468C19.4263 97.3179 19.0057 96.7675 18.5851 96.7425C18.1892 96.7175 17.8922 96.6425 17.8922 96.6425C17.8922 96.6425 17.2242 95.917 16.8035 96.4173C16.3582 96.9427 16.5066 97.9183 16.8778 98.7439C17.2489 99.5445 18.3376 99.7446 18.3376 99.7446C18.3376 99.7446 19.1294 101.371 20.3418 101.846C21.5543 102.321 24.4987 102.922 24.6472 103.022C24.7956 103.122 25.241 104.573 27.171 104.898C29.101 105.223 29.8433 103.447 29.9423 102.046C30.0412 100.645 30.3382 99.0941 30.3382 99.0941L32.8867 93.5904L28.5071 91.1387Z" fill="white" stroke="black" stroke-width="0.5" stroke-miterlimit="10" stroke-linecap="round" stroke-linejoin="round"/>
<path d="M17.9152 96.6426C17.9152 96.6426 18.3853 97.4932 19.3008 97.8934L17.9152 96.6426Z" fill="white"/>
<path d="M17.9152 96.6426C17.9152 96.6426 18.3853 97.4932 19.3008 97.8934" stroke="black" stroke-width="0.5" stroke-miterlimit="10" stroke-linecap="round" stroke-linejoin="round"/>
<path d="M41.6734 77.605L35.7597 95.2422L28.2377 91.5396C28.2377 91.5396 33.5081 73.7524 34.8937 71.8761C36.7247 69.3744 39.3722 69.8497 41.03 71.0005C42.6878 72.1513 42.2425 76.2791 42.2425 76.2791" fill="white"/>
<path d="M41.6734 77.605L35.7597 95.2422L28.2377 91.5396C28.2377 91.5396 33.5081 73.7524 34.8937 71.8761C36.7247 69.3744 39.3722 69.8497 41.03 71.0005C42.6878 72.1513 42.2425 76.2791 42.2425 76.2791" stroke="black" stroke-width="0.5" stroke-miterlimit="10" stroke-linecap="round" stroke-linejoin="round"/>
<path d="M28.5587 89.6367L36.3281 94.2899L35.4621 95.9911L27.7422 91.8632L28.5587 89.6367Z" fill="white" stroke="black" stroke-width="0.5" stroke-miterlimit="10" stroke-linecap="round" stroke-linejoin="round"/>
<path d="M61.7641 89.5381L50.1595 82.7584L51.0255 80.707L62.9766 87.7369L61.7641 89.5381Z" fill="white" stroke="black" stroke-width="0.5" stroke-miterlimit="10" stroke-linecap="round" stroke-linejoin="round"/>
<path d="M62.1339 88.9627L51.4943 82.7584L52.3356 80.707L63.3711 87.1865L62.1339 88.9627Z" fill="white" stroke="black" stroke-width="0.5" stroke-miterlimit="10" stroke-linecap="round" stroke-linejoin="round"/>
<path d="M51.4947 82.7584H50.1585L51.0245 80.707H52.3359L51.4947 82.7584Z" fill="white" stroke="black" stroke-width="0.5" stroke-miterlimit="10" stroke-linecap="round" stroke-linejoin="round"/>
</svg>
