<svg width="36" height="36" viewBox="0 0 36 36" fill="none" xmlns="http://www.w3.org/2000/svg">
<circle cx="18" cy="18" r="14" fill="url(#paint0_radial_3603_61157)"/>
<circle cx="18" cy="18" r="14" fill="url(#paint1_radial_3603_61157)"/>
<path d="M18.0023 9.59961C15.721 9.59961 15.4347 9.60958 14.5387 9.65036C13.6445 9.69131 13.034 9.83288 12.4999 10.0406C11.9475 10.2552 11.4788 10.5422 11.0119 11.0092C10.5446 11.4761 10.2576 11.9448 10.0424 12.4971C9.83414 13.0314 9.69239 13.6419 9.65214 14.5358C9.61206 15.4318 9.60156 15.7183 9.60156 17.9996C9.60156 20.2809 9.61171 20.5663 9.65231 21.4623C9.69344 22.3566 9.83502 22.967 10.0426 23.5011C10.2573 24.0536 10.5443 24.5222 11.0114 24.9891C11.4781 25.4564 11.9468 25.7441 12.4989 25.9586C13.0333 26.1663 13.6439 26.3079 14.538 26.3489C15.434 26.3896 15.7202 26.3996 18.0013 26.3996C20.2828 26.3996 20.5682 26.3896 21.4642 26.3489C22.3585 26.3079 22.9696 26.1663 23.5041 25.9586C24.0564 25.7441 24.5243 25.4564 24.991 24.9891C25.4583 24.5222 25.7453 24.0536 25.9606 23.5013C26.1671 22.967 26.3088 22.3564 26.3508 21.4625C26.3911 20.5665 26.4016 20.2809 26.4016 17.9996C26.4016 15.7183 26.3911 15.432 26.3508 14.536C26.3088 13.6418 26.1671 13.0314 25.9606 12.4973C25.7453 11.9448 25.4583 11.4761 24.991 11.0092C24.5238 10.542 24.0565 10.255 23.5035 10.0406C22.968 9.83288 22.3573 9.69131 21.463 9.65036C20.567 9.60958 20.2817 9.59961 17.9997 9.59961H18.0023ZM17.2488 11.1134C17.4724 11.113 17.722 11.1134 18.0023 11.1134C20.2452 11.1134 20.511 11.1214 21.3967 11.1617C22.2157 11.1991 22.6602 11.336 22.9563 11.4509C23.3483 11.6032 23.6278 11.7852 23.9216 12.0792C24.2156 12.3732 24.3976 12.6532 24.5502 13.0452C24.6652 13.3409 24.8022 13.7854 24.8395 14.6044C24.8797 15.4899 24.8885 15.7559 24.8885 17.9977C24.8885 20.2394 24.8797 20.5054 24.8395 21.3909C24.802 22.2099 24.6652 22.6544 24.5502 22.9502C24.398 23.3422 24.2156 23.6213 23.9216 23.9151C23.6276 24.2091 23.3485 24.3911 22.9563 24.5434C22.6605 24.6589 22.2157 24.7954 21.3967 24.8328C20.5112 24.8731 20.2452 24.8818 18.0023 24.8818C15.7594 24.8818 15.4935 24.8731 14.608 24.8328C13.789 24.795 13.3445 24.6582 13.0482 24.5432C12.6562 24.391 12.3762 24.209 12.0822 23.915C11.7882 23.621 11.6062 23.3417 11.4536 22.9495C11.3386 22.6537 11.2016 22.2092 11.1643 21.3902C11.1241 20.5047 11.116 20.2387 11.116 17.9956C11.116 15.7524 11.1241 15.4878 11.1643 14.6023C11.2018 13.7833 11.3386 13.3388 11.4536 13.0427C11.6059 12.6507 11.7882 12.3707 12.0822 12.0767C12.3762 11.7827 12.6562 11.6007 13.0482 11.4481C13.3443 11.3326 13.789 11.1961 14.608 11.1585C15.3829 11.1235 15.6832 11.113 17.2488 11.1113V11.1134ZM22.4862 12.5081C21.9297 12.5081 21.4782 12.9591 21.4782 13.5158C21.4782 14.0723 21.9297 14.5238 22.4862 14.5238C23.0428 14.5238 23.4943 14.0723 23.4943 13.5158C23.4943 12.9593 23.0428 12.5078 22.4862 12.5078V12.5081ZM18.0023 13.6859C15.62 13.6859 13.6886 15.6173 13.6886 17.9996C13.6886 20.3819 15.62 22.3125 18.0023 22.3125C20.3846 22.3125 22.3154 20.3819 22.3154 17.9996C22.3154 15.6173 20.3845 13.6859 18.0022 13.6859H18.0023ZM18.0023 15.1996C19.5487 15.1996 20.8024 16.4531 20.8024 17.9996C20.8024 19.5459 19.5487 20.7996 18.0023 20.7996C16.4559 20.7996 15.2023 19.5459 15.2023 17.9996C15.2023 16.4531 16.4559 15.1996 18.0023 15.1996V15.1996Z" fill="white"/>
<defs>
<radialGradient id="paint0_radial_3603_61157" cx="0" cy="0" r="1" gradientUnits="userSpaceOnUse" gradientTransform="translate(11.4375 34.1566) rotate(-90) scale(27.7501 25.8097)">
<stop stop-color="#FFDD55"/>
<stop offset="0.1" stop-color="#FFDD55"/>
<stop offset="0.5" stop-color="#FF543E"/>
<stop offset="1" stop-color="#C837AB"/>
</radialGradient>
<radialGradient id="paint1_radial_3603_61157" cx="0" cy="0" r="1" gradientTransform="matrix(2.4347 12.1631 -50.1358 10.0414 -0.690148 6.01707)" gradientUnits="userSpaceOnUse">
<stop stop-color="#3771C8"/>
<stop offset="0.128" stop-color="#3771C8"/>
<stop offset="1" stop-color="#6600FF" stop-opacity="0"/>
</radialGradient>
</defs>
</svg>
