<svg width="119" height="88" viewBox="0 0 119 88" fill="none" xmlns="http://www.w3.org/2000/svg">
<g clip-path="url(#clip0_1456_168518)">
<path d="M118.334 67.3774C119.33 68.7007 118.278 70.2446 115.953 70.8511L48.2848 87.5579C45.959 88.1092 43.3011 87.5027 42.3043 86.1794L21.9265 58.8862C20.9297 57.5629 21.9818 56.019 24.3076 55.4125L30.8418 53.8135L32.3369 55.8536C31.4509 56.2396 31.1186 56.9564 31.617 57.5629C32.1708 58.3348 33.6659 58.6656 34.9949 58.3348C36.3239 58.004 36.8776 57.1218 36.3239 56.405C35.8809 55.7985 34.718 55.4125 33.6659 55.5228L32.1154 53.4275L44.1317 50.4501L45.6268 52.4902C44.7408 52.8761 44.4085 53.5929 44.9069 54.1995C45.4607 54.9714 47.0112 55.3022 48.2848 54.9714C49.6138 54.6406 50.1675 53.7584 49.6138 53.0416C49.1708 52.435 48.0633 52.0491 46.9004 52.1594L45.4053 50.1744L57.4216 47.197L58.9167 49.2371C58.0307 49.623 57.6984 50.3398 58.1968 50.9463C58.7506 51.7183 60.3011 52.0491 61.5747 51.7183C62.9037 51.3874 63.4574 50.5052 62.9037 49.7884C62.4607 49.1819 61.3532 48.7959 60.2457 48.9062L58.7506 46.8661L70.7669 43.8887L72.262 45.9288C71.376 46.3147 71.0437 47.0315 71.5421 47.6381C72.0958 48.41 73.6463 48.7408 74.9199 48.41C76.2489 48.0792 76.8027 47.197 76.2489 46.4802C75.8059 45.8736 74.6984 45.4877 73.591 45.598L72.0958 43.5579L84.1121 40.5804L85.6072 42.6205C84.7213 43.0065 84.389 43.7233 84.8874 44.3298C85.4411 45.1017 86.9362 45.4325 88.2652 45.1017C89.5942 44.7709 90.148 43.8887 89.5942 43.1719C89.1512 42.5654 88.0437 42.1794 86.9362 42.2897L85.4411 40.2496L91.9753 38.6506C94.3011 38.0992 96.959 38.7057 97.9558 40.029L118.334 67.3774Z" fill="white" stroke="black" stroke-width="0.5" stroke-miterlimit="10" stroke-linejoin="round"/>
<path d="M53.9355 82.5967L53.0488 82.8174L36.4922 60.5967L37.3779 60.376L53.9355 82.5967ZM60.8008 80.8867L59.8594 81.1074L43.3027 58.9424L44.2441 58.7217L60.8008 80.8867ZM67.6133 79.1777L66.7266 79.3984L50.1699 57.2334L51.0557 57.0127L67.6133 79.1777ZM74.4238 77.5234L73.5371 77.7441L56.9805 55.5781L57.8662 55.3027L74.4238 77.5234ZM81.29 75.8145L80.3486 76.0352L63.792 53.8701L64.7334 53.6494L81.29 75.8145ZM88.1016 74.1602L87.2148 74.3809L70.6582 52.1602L71.5439 51.9395L88.1016 74.1602ZM95.4434 72.2207L94.5566 72.4414L78 50.2207L78.8857 50L95.4434 72.2207Z" fill="#11293A"/>
<path d="M63.0143 58.002L43.0241 46.5334C42.0827 45.982 41.3074 45.1549 40.8644 44.2176C40.4215 43.2802 40.3107 42.2326 40.5876 41.4056L52.327 5.62109L13.6755 28.0071L1.93611 63.7915C1.65923 64.6737 1.76998 65.6662 2.21298 66.6035C2.65598 67.5409 3.43122 68.368 4.37259 68.9193L24.3628 80.388C25.1934 80.8291 25.8579 80.9394 26.3009 80.7188C39.2032 73.2752 52.1055 65.7765 65.0078 58.3329C64.5094 58.6086 63.8449 58.4983 63.0143 58.002Z" fill="#EDF7EB"/>
<path d="M66.8366 55.9633L55.0418 5.45703L15.7812 27.1262C15.7812 27.1262 28.4067 81.5473 27.6868 82.264C27.576 82.3743 27.4653 82.4295 27.3545 82.5397C40.2568 75.0961 53.1591 67.5974 66.0614 60.1538C66.1721 60.0986 66.2829 59.9884 66.3936 59.8781C67.1135 59.1613 67.2796 57.7828 66.8366 55.9633Z" fill="white" stroke="black" stroke-width="0.5" stroke-miterlimit="10" stroke-linejoin="round"/>
<path d="M12.5703 25.6926L51.2771 3.30664L55.0426 5.45702L16.3358 27.843L12.5703 25.6926Z" fill="white" stroke="black" stroke-width="0.5" stroke-miterlimit="10" stroke-linejoin="round"/>
<path d="M28.1295 78.35C28.5725 80.1696 28.351 81.548 27.6311 82.2648C26.9113 82.9816 25.693 82.9264 24.2533 82.0994L4.31843 70.6307C2.87869 69.8036 1.71583 68.4803 0.995956 66.9365C0.276086 65.3926 0.109963 63.7936 0.552959 62.4703L12.6246 25.6934L16.3901 27.8437L28.1295 78.35ZM26.4683 80.5555C26.9113 80.1144 27.022 79.2322 26.7451 78.0192L15.2272 28.9465L13.6767 28.0643L1.93732 63.7936C1.66045 64.6758 1.7712 65.6683 2.2142 66.6056C2.65719 67.543 3.43244 68.3701 4.37381 68.9214L24.364 80.3901C25.25 80.9415 26.0253 80.9966 26.4683 80.5555Z" fill="white" stroke="black" stroke-width="0.5" stroke-miterlimit="10" stroke-linejoin="round"/>
<path d="M19.7656 28.7267L53.6549 9.09766L64.7298 56.3508L30.7852 75.9247L19.7656 28.7267Z" fill="white" stroke="black" stroke-width="0.5" stroke-miterlimit="10" stroke-linejoin="round"/>
<path d="M53.6549 9.09766L19.7656 28.7267L22.479 40.4711L56.4236 20.842L53.6549 9.09766Z" fill="#93E3A4" stroke="black" stroke-width="0.5" stroke-miterlimit="10" stroke-linejoin="round"/>
<path d="M21.0974 16.0988C19.6577 15.2717 18.3287 15.2166 17.3873 15.7679L16.9997 15.9885C16.0583 16.5399 15.4492 17.6978 15.4492 19.2968C15.4492 20.6201 15.8368 22.0537 16.446 23.4321L17.0551 23.0461C16.446 21.778 16.1137 20.4547 16.1137 19.2968C16.1137 17.9183 16.6121 16.8707 17.332 16.3193C18.2179 15.9334 19.3254 16.0436 20.5437 16.7604C23.2017 18.3043 25.3613 21.9985 25.3613 25.0311C25.3613 26.7955 24.6414 28.0085 23.3678 28.3394L23.5893 28.8356C23.8662 28.7805 24.143 28.6151 24.3645 28.4496C24.3092 28.5048 24.2538 28.5599 24.1984 28.5599L24.586 28.3394C25.5274 27.788 26.0811 26.575 26.1365 25.0311C26.2473 21.778 23.9769 17.7529 21.0974 16.0988Z" fill="#11293A"/>
<path d="M30.0115 10.9718C28.5718 10.1447 27.2428 10.0896 26.3014 10.641L25.9138 10.8615C24.9724 11.4129 24.4187 12.5708 24.3633 14.1698C24.3633 15.4931 24.7509 16.9267 25.36 18.3052L25.9691 17.9192C25.36 16.651 25.0278 15.3277 25.0278 14.1698C25.0278 12.7914 25.5261 11.7437 26.246 11.1924C27.132 10.8064 28.2395 10.9167 29.4577 11.6335C32.1157 13.1773 34.2753 16.8716 34.2753 19.9041C34.2753 21.6686 33.5555 22.8816 32.2818 23.2124L32.6695 23.7087C32.9463 23.6535 33.2232 23.4881 33.4447 23.3227C33.3893 23.3778 33.334 23.433 33.2786 23.433L33.6662 23.2124C34.6076 22.661 35.1613 21.448 35.2167 19.9041C35.1613 16.651 32.8356 12.626 30.0115 10.9718Z" fill="#11293A"/>
<path d="M38.9295 5.84486C37.4897 5.0178 36.1607 4.96266 35.2194 5.51404L34.8317 5.73459C33.8904 6.28597 33.2812 7.44386 33.2812 9.04286C33.2812 10.3662 33.6689 11.7998 34.278 13.1782L34.8871 12.7922C34.278 11.5241 33.9457 10.2008 33.9457 9.04286C33.9457 7.66441 34.4441 6.61679 35.164 6.06541C36.05 5.67945 37.1575 5.78973 38.3757 6.50652C41.0337 8.05038 43.1933 11.7446 43.1933 14.7772C43.1933 16.5416 42.4734 17.7546 41.1998 18.0855L41.4213 18.5817C41.6982 18.5266 41.9751 18.3612 42.1966 18.1957C42.1412 18.2509 42.0858 18.306 42.0304 18.306L42.4181 18.0855C43.3594 17.5341 43.9132 16.3211 43.9685 14.7772C44.0793 11.5241 41.7536 7.499 38.9295 5.84486Z" fill="#11293A"/>
<path d="M47.7881 0.715957C46.3484 -0.11111 45.0194 -0.166248 44.078 0.38513L43.7458 0.550544C42.8044 1.10192 42.2507 2.25982 42.1953 3.85881C42.1953 5.18212 42.5829 6.61571 43.1921 7.99415L43.8012 7.60819C43.1921 6.34002 42.8598 5.01671 42.8598 3.85881C42.8598 2.48037 43.3582 1.43275 44.078 0.881371C44.964 0.495406 46.0715 0.605682 47.2898 1.32247C49.9478 2.86633 52.1074 6.56057 52.1074 9.59315C52.1074 11.3576 51.3321 12.5706 50.1139 12.9014L50.3354 13.3977C50.6123 13.3425 50.8891 13.1771 51.1106 13.0117C51.0553 13.0668 50.9999 13.122 50.9445 13.122L51.3321 12.9014C52.2735 12.35 52.8272 11.137 52.8826 9.59315C52.9934 6.34002 50.6676 2.37009 47.7881 0.715957Z" fill="#11293A"/>
<path d="M39.8745 48.7412C38.1058 49.6749 36.1773 49.042 35.2483 47.2821C34.3193 45.5223 34.8847 43.5729 36.6534 42.6392C38.4132 41.7102 40.3506 42.3385 41.2796 44.0983C42.2086 45.8582 41.6344 47.8122 39.8745 48.7412ZM39.389 47.8215C40.5741 47.1959 40.8579 45.8701 40.2184 44.6585C39.5741 43.4381 38.3239 42.9334 37.1389 43.5589C35.945 44.1892 35.6653 45.5015 36.3096 46.7219C36.9491 47.9335 38.1952 48.4517 39.389 47.8215ZM47.6153 44.5193L46.6868 45.0095L45.2769 42.3387C44.9222 41.6666 44.4652 41.6364 43.9435 41.9119C43.4748 42.1593 43.2173 42.657 43.1456 43.0567L44.7235 46.0458L43.795 46.536L41.5402 42.2646L42.4687 41.7744L42.7722 42.3492C42.8778 41.8638 43.2528 41.2248 43.9249 40.87C44.8447 40.3845 45.5659 40.637 46.0281 41.5125L47.6153 44.5193ZM39.4924 60.115L35.8577 62.0337L32.744 56.1351L33.7786 55.5889L36.4116 60.5766L39.0115 59.2042L39.4924 60.115ZM42.2829 58.7777C40.9918 59.4592 39.574 59.0656 38.8597 57.7125C38.2062 56.4744 38.5807 54.9989 39.8453 54.3314C41.1276 53.6545 42.4547 54.1978 43.1643 55.542L43.2857 55.7719L39.9959 57.5085C40.4028 58.1079 41.1651 58.3953 41.9699 57.9704C42.3943 57.7464 42.792 57.3216 42.9382 56.8487L43.6848 57.2348C43.4662 57.8703 42.955 58.4229 42.2829 58.7777ZM42.0424 55.5801C41.7498 55.0901 41.0781 54.6531 40.2379 55.0966C39.4509 55.5121 39.4016 56.3183 39.637 56.8499L42.0424 55.5801ZM48.7148 55.2467L47.7862 55.7369L47.5388 55.2681C47.4165 55.8076 47.0198 56.2771 46.4538 56.5759C45.764 56.94 44.7249 56.878 44.23 55.9406C43.7072 54.9501 44.2707 54.1325 44.9693 53.7637C45.553 53.4556 46.1374 53.3845 46.6472 53.579L46.311 52.9423C46.0496 52.4471 45.4753 52.3658 44.8916 52.6739C44.414 52.926 44.0829 53.327 43.9164 53.8898L43.1865 53.4496C43.4297 52.7107 43.9367 52.1716 44.6176 51.8122C45.5727 51.308 46.6141 51.2671 47.2163 52.4079L48.7148 55.2467ZM46.4891 55.7431C46.8871 55.533 47.2057 55.1726 47.2727 54.7641L46.9273 54.1097C46.5521 53.9345 46.0748 53.9943 45.6769 54.2043C45.1551 54.4798 44.9205 54.9994 45.1633 55.4592C45.4107 55.9279 45.9674 56.0185 46.4891 55.7431ZM52.0409 53.4909L51.0416 54.0184L47.0446 50.6667L48.044 50.1391L50.9808 52.6822L50.5378 48.8227L51.5283 48.2998L52.0409 53.4909ZM56.4031 51.3239C55.1119 52.0054 53.6942 51.6118 52.9799 50.2587C52.3264 49.0206 52.7009 47.5451 53.9655 46.8776C55.2478 46.2007 56.5749 46.744 57.2845 48.0882L57.4059 48.3181L54.1161 50.0547C54.523 50.6541 55.2853 50.9415 56.09 50.5166C56.5145 50.2926 56.9122 49.8678 57.0583 49.3949L57.8049 49.781C57.5864 50.4165 57.0752 50.9691 56.4031 51.3239ZM56.1626 48.1263C55.8699 47.6363 55.1983 47.1993 54.3581 47.6428C53.5711 48.0583 53.5217 48.8645 53.7571 49.3961L56.1626 48.1263Z" fill="black"/>
<g clip-path="url(#clip1_1456_168518)">
<path d="M88.0145 58.4493C87.6954 55.9586 87.4219 53.4678 87.1484 50.977C90.2023 50.977 108.753 50.8848 111.99 50.8848L111.215 58.3571C111.032 60.0176 109.847 61.632 107.659 62.8313C103.01 65.4604 95.6719 65.3682 91.2051 62.6468C89.2451 61.4936 88.1512 59.9715 88.0145 58.4493Z" fill="white" stroke="black" stroke-width="0.5" stroke-miterlimit="10" stroke-linejoin="round"/>
<path d="M114.316 29.3906C114.088 31.4663 112.584 33.5419 109.803 35.1102C103.878 38.4312 94.5341 38.339 88.8366 34.8796C86.3297 33.3574 84.9623 31.4201 84.7344 29.4367L85.3725 34.9718C85.3269 37.0936 86.6487 41.291 89.2924 42.9515C94.7164 46.2725 103.696 46.3648 109.348 43.136C112.265 41.4755 113.723 37.1397 113.723 34.9257L114.316 29.3906Z" fill="white" stroke="black" stroke-width="0.5" stroke-miterlimit="10" stroke-linejoin="round"/>
<path d="M83.2305 28.9288C83.2305 27.6834 83.2305 26.4841 83.2305 25.2387C87.8341 25.2387 113.222 25.1465 115.775 25.1465C115.775 26.3919 115.775 27.5911 115.775 28.8365C115.775 31.3273 114.088 33.8642 110.761 35.7553C104.288 39.3993 93.9874 39.307 87.7429 35.5247C84.7346 33.6336 83.2305 31.2812 83.2305 28.9288Z" fill="#93E3A4" stroke="black" stroke-width="0.5" stroke-miterlimit="10" stroke-linejoin="round"/>
<path d="M88.0152 18.4587C88.4254 18.2281 88.8357 17.9513 89.2459 17.7207C83.6851 20.9956 83.5484 26.3 89.018 29.6211C94.5787 32.9882 103.74 33.0805 109.529 29.8517C115.318 26.5768 115.5 21.2262 109.939 17.813L111.261 18.551C117.46 22.3794 117.278 28.3757 110.76 32.0657C104.287 35.7096 93.9862 35.6174 87.7417 31.8351C81.5884 28.0528 81.7252 22.1026 88.0152 18.4587Z" fill="#93E3A4" stroke="black" stroke-width="0.5" stroke-miterlimit="10" stroke-linejoin="round"/>
<path d="M109.986 17.8129C115.547 21.1801 115.364 26.5768 109.576 29.8517C103.787 33.1266 94.6253 33.0343 89.0646 29.621C83.5038 26.2539 83.7317 20.8572 89.4748 17.5823C95.2635 14.3535 104.425 14.4458 109.986 17.8129Z" fill="#93E3A4" stroke="black" stroke-width="0.5" stroke-miterlimit="10" stroke-linejoin="round"/>
<path d="M102.191 19.5186C100.778 18.6423 98.4074 18.6423 96.9033 19.4725C95.3991 20.3028 95.3536 21.6865 96.8121 22.5629C96.8577 22.5629 96.8577 22.609 96.9033 22.609C97.4047 22.8858 97.906 23.1626 98.4074 23.4854C98.4074 23.4854 98.4074 23.4854 98.3618 23.4854C97.7693 23.1164 97.7693 22.5168 98.4074 22.1478C99.0455 21.7788 100.048 21.7788 100.686 22.1939C101.279 22.5629 101.279 23.1626 100.641 23.5316C101.142 23.2548 101.644 22.9319 102.145 22.6552C103.558 21.7327 103.604 20.395 102.191 19.5186Z" fill="#93E3A4" stroke="black" stroke-miterlimit="10" stroke-linejoin="round"/>
<path d="M100.548 22.0117C101.095 22.3346 101.095 22.8881 100.503 23.211C99.9101 23.5338 98.9985 23.5338 98.4516 23.211C97.9046 22.8881 97.9046 22.3346 98.4971 22.0117C99.0897 21.6888 100.001 21.6888 100.548 22.0117Z" fill="#93E3A4" stroke="black" stroke-width="0.5" stroke-miterlimit="10" stroke-linejoin="round"/>
<path d="M105.699 17.5366C108.981 19.52 108.889 22.7027 105.425 24.64C102.007 26.5772 96.5828 26.5311 93.3011 24.5016C90.0193 22.5182 90.1104 19.3355 93.5745 17.3983C96.993 15.5071 102.417 15.5532 105.699 17.5366ZM101.916 19.7045C100.639 18.9204 98.5428 18.9204 97.1754 19.6584C95.8535 20.3964 95.808 21.6418 97.0842 22.4259C98.3604 23.2101 100.457 23.2101 101.825 22.4721C103.146 21.6879 103.192 20.4887 101.916 19.7045Z" fill="#93E3A4" stroke="black" stroke-width="0.5" stroke-miterlimit="10" stroke-linejoin="round"/>
<path d="M91.1616 18.8279C91.9365 18.3666 92.6657 17.9515 93.4406 17.4902C90.1133 19.4275 90.0677 22.564 93.3039 24.5474C96.5856 26.5308 102.01 26.6231 105.428 24.6858C108.847 22.7485 108.983 19.5659 105.702 17.5825L108.072 18.9201C112.584 21.6877 112.448 26.0696 107.707 28.7448C103.012 31.4201 95.4917 31.3279 90.9793 28.5603C86.4668 25.8389 86.6036 21.5031 91.1616 18.8279Z" fill="#93E3A4" stroke="black" stroke-width="0.5" stroke-miterlimit="10" stroke-linejoin="round"/>
<path d="M87.0576 50.9305L85.3711 35.5708C85.599 37.4619 86.8752 39.3069 89.291 40.7829C94.715 44.104 103.694 44.1962 109.346 40.9674C112.035 39.4453 113.494 37.4619 113.676 35.4785L112.081 50.7922C111.899 52.5911 110.622 54.2977 108.252 55.6353C103.238 58.449 95.3076 58.3567 90.5216 55.4508C88.425 54.2055 87.2399 52.5911 87.0576 50.9305Z" fill="#EDF7EB" stroke="black" stroke-width="0.5" stroke-miterlimit="10" stroke-linejoin="round"/>
</g>
</g>
<defs>
<clipPath id="clip0_1456_168518">
<rect width="119" height="88" fill="white"/>
</clipPath>
<clipPath id="clip1_1456_168518">
<rect width="33" height="50" fill="white" transform="translate(83 15)"/>
</clipPath>
</defs>
</svg>
