<svg width="96" height="84" viewBox="0 0 96 84" fill="none" xmlns="http://www.w3.org/2000/svg">
<path d="M40.3672 9.05566C58.5491 8.29346 76.6441 8.2098 94.6523 8.96973C95.867 29.061 96.4456 49.3571 92.3525 69.04L92.3516 69.042C91.7368 72.0891 90.9587 75.1464 89.1699 77.6797L89.1689 77.6816C86.2884 81.7967 80.7679 83.8223 75.583 82.3057L75.5264 82.2891L75.4678 82.2881L72.8438 82.2275C60.0351 81.8708 49.1467 80.705 35.8447 79.9658C39.1687 68.2344 40.2008 56.4706 40.4502 44.6768C40.5768 38.6915 40.5031 32.6936 40.4248 26.6895C40.3483 20.8205 40.2684 14.9453 40.3672 9.05566Z" fill="white" stroke="black" stroke-width="0.879346"/>
<path d="M19.2061 67.7324C36.7887 67.3943 54.2866 67.5613 71.5352 67.8174C71.0542 72.1558 71.9731 76.6875 74.0742 80.4785L74.2891 80.8574C74.6428 81.4707 75.1132 82.1202 75.6738 82.624C68.0889 82.6095 60.5661 82.9159 53.0381 83.0947C44.7945 83.2906 36.5323 83.3331 28.1221 82.6396C25.0053 82.2102 21.0869 80.8571 19.5049 76.7305L19.5029 76.7246C18.4136 73.9832 17.9196 70.7365 19.2061 67.7324Z" fill="#FFF0BE" stroke="black" stroke-width="0.879346"/>
<path d="M21.9074 73.2238C21.7315 73.1366 21.7315 73.0495 21.8195 72.9623C22.6109 71.7419 23.4902 70.6087 24.5455 69.4755C24.6334 69.3884 24.7213 69.3884 24.7213 69.4755C24.8093 69.5627 24.8093 69.6499 24.7213 69.6499C23.754 70.6959 22.7868 71.8291 21.9953 73.0495C21.9953 73.2238 21.9074 73.2238 21.9074 73.2238Z" fill="black"/>
<path d="M22.3488 78.5426C22.2609 78.5426 22.2609 78.5426 22.3488 78.5426C22.173 78.4554 22.173 78.3683 22.2609 78.2811C24.2834 75.2302 26.6576 72.2664 29.2077 69.6513C29.2956 69.5641 29.3836 69.5641 29.3836 69.6513C29.4715 69.7385 29.4715 69.8257 29.3836 69.8257C26.8335 72.5279 24.5472 75.4045 22.4368 78.4554C22.4368 78.5426 22.3488 78.5426 22.3488 78.5426Z" fill="black"/>
<path d="M25.7785 80.6347C25.6906 80.6347 25.6906 80.6347 25.7785 80.6347C25.6026 80.5475 25.6026 80.4603 25.6906 80.3732C28.0648 76.6249 30.7908 73.0509 33.6926 69.6513C33.7806 69.5641 33.8685 69.5641 33.8685 69.6513C33.9564 69.7385 33.9564 69.8257 33.8685 69.8257C30.9666 73.1381 28.2407 76.7992 25.8664 80.4603C25.8664 80.6347 25.7785 80.6347 25.7785 80.6347Z" fill="black"/>
<path d="M30.966 81.0707C30.8781 81.0707 30.8781 81.0707 30.966 81.0707C30.7901 80.9835 30.7901 80.8964 30.8781 80.8964C33.2523 77.1481 35.8024 73.3998 38.6163 69.913C38.7042 69.8259 38.7922 69.8259 38.7922 69.913C38.8801 70.0002 38.8801 70.0874 38.7922 70.0874C36.0662 73.5741 33.4282 77.2353 31.1419 80.9836C31.0539 81.0707 30.966 81.0707 30.966 81.0707Z" fill="black"/>
<path d="M35.716 81.5064C35.6281 81.5064 35.6281 81.5064 35.716 81.5064C35.5401 81.4192 35.5401 81.332 35.6281 81.2449L43.3663 69.6513C43.3663 69.5641 43.5422 69.5641 43.5422 69.6513C43.6301 69.6513 43.6301 69.8257 43.5422 69.8257L35.8039 81.4192C35.8039 81.5064 35.716 81.5064 35.716 81.5064Z" fill="black"/>
<path d="M40.9894 81.1578C40.8136 81.0706 40.8136 80.9834 40.9015 80.8963C43.3637 77.148 45.7379 73.3125 48.0242 69.3899C48.0242 69.3027 48.1121 69.3027 48.2001 69.3027C48.288 69.3027 48.288 69.3899 48.288 69.4771C46.0017 73.3125 43.6275 77.2352 41.1653 80.9834C41.0774 81.1578 41.0774 81.1578 40.9894 81.1578Z" fill="black"/>
<path d="M45.6496 81.2452C45.4737 81.158 45.4737 81.0708 45.5617 80.9836C48.1118 77.2354 50.5739 73.4871 52.9482 69.6516C52.9482 69.5645 53.0361 69.5645 53.124 69.5645C53.212 69.5645 53.212 69.6516 53.212 69.7388C50.8377 73.5742 48.3756 77.3225 45.8255 81.0708C45.7375 81.2452 45.6496 81.2452 45.6496 81.2452Z" fill="black"/>
<path d="M51.0129 81.0715C50.9249 81.0715 50.9249 81.0715 51.0129 81.0715C50.837 80.9844 50.837 80.8972 50.9249 80.81C53.3871 77.2361 55.6734 73.4878 57.8718 69.7395C57.8718 69.6523 57.9597 69.6523 58.0476 69.6523C58.1356 69.6523 58.1356 69.7395 58.1356 69.8267C55.9372 73.575 53.6509 77.3233 51.1888 80.8972C51.1008 81.0715 51.0129 81.0715 51.0129 81.0715Z" fill="black"/>
<path d="M56.0285 80.7221C55.8526 80.635 55.8526 80.5478 55.9406 80.5478L62.1839 69.6516C62.1839 69.5645 62.2719 69.5645 62.3598 69.5645C62.4477 69.5645 62.4477 69.6516 62.4477 69.7388L56.2044 80.635C56.1164 80.7221 56.1164 80.7221 56.0285 80.7221Z" fill="black"/>
<path d="M60.423 81.2446C60.3351 81.1575 60.3351 81.2446 60.423 81.2446C60.2472 81.1575 60.2472 81.0703 60.3351 81.0703C62.6214 77.1477 64.9956 73.2251 67.4578 69.3896C67.4578 69.3024 67.6337 69.3024 67.6337 69.3896C67.7216 69.3896 67.7216 69.5639 67.6337 69.5639C65.1715 73.3994 62.7093 77.322 60.511 81.2446C60.511 81.1575 60.423 81.2446 60.423 81.2446Z" fill="black"/>
<path d="M65.7004 80.3753C65.5245 80.2881 65.5245 80.2009 65.6124 80.2009C66.7556 78.0217 68.0746 75.9296 69.5695 73.9248C69.6574 73.8376 69.7454 73.8376 69.7454 73.9248C69.8333 74.0119 69.8333 74.0991 69.7454 74.0991C68.3384 76.104 67.0194 78.1089 65.8763 80.2881C65.7883 80.3753 65.7883 80.3753 65.7004 80.3753Z" fill="black"/>
<path d="M69.5676 81.2446C69.3917 81.1574 69.3917 81.0703 69.4796 80.9831L70.7987 79.0654C70.8866 78.9782 70.9745 78.9782 70.9745 79.0654C71.0625 79.1525 71.0625 79.2397 70.9745 79.2397L69.6555 81.1574C69.6555 81.2446 69.6555 81.2446 69.5676 81.2446Z" fill="black"/>
<g opacity="0.1294">
<path d="M84.8693 81.0708C84.7813 80.9837 84.6934 80.8965 84.6055 80.8965C84.6934 80.9837 84.7813 80.9837 84.8693 81.0708Z" fill="black"/>
</g>
<path d="M50.7478 39.0547C49.4288 39.0547 48.5494 39.8392 47.9339 40.9724C47.2304 42.3671 48.1097 44.2849 49.6046 44.7207C51.0995 45.1565 52.8582 44.1977 53.2979 42.6286C53.7375 41.1468 52.5065 39.0547 50.7478 39.0547Z" fill="#FFE07C"/>
<path d="M50.3098 45.2435C50.046 45.2435 49.6943 45.2435 49.4305 45.1563C48.5511 44.8948 47.8477 44.1975 47.4959 43.3258C47.1442 42.4541 47.1442 41.5824 47.5839 40.7979C48.2873 39.4031 49.4305 38.6186 50.8374 38.7058C51.7168 38.7058 52.5082 39.1416 53.1237 39.9262C53.7393 40.7979 54.0031 41.9311 53.7393 42.8028C53.4755 43.6744 52.8599 44.3718 52.0685 44.8077C51.453 45.0692 50.8374 45.2435 50.3098 45.2435ZM50.7495 39.4903C49.5184 39.4903 48.727 40.362 48.3753 41.1465C48.1115 41.6695 48.1115 42.3669 48.3753 42.9771C48.6391 43.5873 49.1667 44.1103 49.7822 44.2846C50.3978 44.459 51.0133 44.3718 51.6288 44.0231C52.2444 43.6744 52.772 43.1514 52.9479 42.4541C53.1237 41.8439 52.9479 40.9722 52.4203 40.362C51.9806 39.839 51.365 39.4903 50.7495 39.4903Z" fill="black"/>
<path d="M50.7478 53.875C49.4288 53.875 48.5494 54.6595 47.9339 55.7927C47.2304 57.1874 48.1097 59.1052 49.6046 59.541C51.0995 59.9769 52.8582 59.018 53.2979 57.4489C53.7375 55.9671 52.5065 53.875 50.7478 53.875Z" fill="#FFE07C"/>
<path d="M50.3098 60.0638C50.046 60.0638 49.6943 60.0638 49.4305 59.9766C48.5511 59.7151 47.8477 59.0178 47.4959 58.1461C47.1442 57.2744 47.1442 56.4027 47.5839 55.6182C48.2873 54.2235 49.4305 53.4389 50.8374 53.5261C51.7168 53.5261 52.5082 53.962 53.1237 54.7465C53.7393 55.6182 54.0031 56.7514 53.7393 57.6231C53.4755 58.4948 52.8599 59.1921 52.0685 59.628C51.453 59.8895 50.8374 60.0638 50.3098 60.0638ZM50.7495 54.3106C49.5184 54.3106 48.727 55.1823 48.3753 55.9668C48.1115 56.4899 48.1115 57.1872 48.3753 57.7974C48.6391 58.4948 49.1667 58.9306 49.7822 59.1049C50.3978 59.2793 51.0133 59.1921 51.6288 58.8434C52.2444 58.4948 52.772 57.9717 52.9479 57.2744C53.1237 56.6642 52.9479 55.7925 52.4203 55.1823C51.9806 54.6593 51.365 54.3106 50.7495 54.3106Z" fill="black"/>
<path d="M83.7276 27.2858H58.6662C58.4024 27.2858 58.2266 27.1114 58.2266 26.8499C58.2266 26.5884 58.4024 26.4141 58.6662 26.4141H83.7276C83.9914 26.4141 84.1673 26.5884 84.1673 26.8499C84.1673 27.1114 83.9914 27.2858 83.7276 27.2858Z" fill="black"/>
<path d="M83.7276 42.3678H58.6662C58.4024 42.3678 58.2266 42.1934 58.2266 41.9319C58.2266 41.6704 58.4024 41.4961 58.6662 41.4961H83.7276C83.9914 41.4961 84.1673 41.6704 84.1673 41.9319C84.1673 42.1934 83.9914 42.3678 83.7276 42.3678Z" fill="black"/>
<path d="M83.7276 57.1842H58.6662C58.4024 57.1842 58.2266 57.0099 58.2266 56.7483C58.2266 56.4868 58.4024 56.3125 58.6662 56.3125H83.7276C83.9914 56.3125 84.1673 56.4868 84.1673 56.7483C84.1673 57.0099 83.9914 57.1842 83.7276 57.1842Z" fill="black"/>
<path d="M48.1922 29.9808C50.456 17.9108 42.4206 6.30686 30.2446 4.06275C18.0686 1.81864 6.36279 9.78415 4.09898 21.8542C1.83518 33.9243 9.8706 45.5282 22.0466 47.7723C34.2226 50.0164 45.9284 42.0509 48.1922 29.9808Z" fill="white"/>
<path d="M48.1922 29.9808C50.456 17.9108 42.4206 6.30686 30.2446 4.06275C18.0686 1.81864 6.36279 9.78415 4.09898 21.8542C1.83518 33.9243 9.8706 45.5282 22.0466 47.7723C34.2226 50.0164 45.9284 42.0509 48.1922 29.9808Z" fill="#FFE07C" fill-opacity="0.3"/>
<path d="M26.1442 48.5644C13.5696 48.5644 3.28125 38.4528 3.28125 25.9004C3.28125 13.348 13.5696 3.23633 26.1442 3.23633C38.7189 3.23633 49.0072 13.4352 49.0072 25.9004C49.0072 38.3656 38.8068 48.5644 26.1442 48.5644ZM26.1442 4.10802C14.0093 4.10802 4.1606 13.871 4.1606 25.9004C4.1606 37.9298 14.0093 47.6927 26.1442 47.6927C38.2792 47.6927 48.1279 37.9298 48.1279 25.9004C48.1279 13.871 38.2792 4.10802 26.1442 4.10802Z" fill="black"/>
<path d="M26.5861 29.998C26.4102 29.998 26.3223 29.9109 26.2344 29.8237L18.7599 20.7581C18.5841 20.5837 18.672 20.3222 18.8479 20.1479C19.0237 19.9735 19.2875 20.0607 19.4634 20.2351L26.674 28.952L36.6106 17.9686C36.7865 17.7943 37.0503 17.7943 37.2262 17.9686C37.4021 18.143 37.4021 18.4045 37.2262 18.5788L26.9378 29.9109C26.8499 29.998 26.674 29.998 26.5861 29.998Z" fill="black"/>
<path d="M26.1467 9.42704C25.8829 9.42704 25.707 9.2527 25.707 8.99119V5.76593C25.707 5.50442 25.8829 5.33008 26.1467 5.33008C26.4105 5.33008 26.5864 5.50442 26.5864 5.76593V8.99119C26.5864 9.2527 26.4105 9.42704 26.1467 9.42704Z" fill="black"/>
<path d="M26.1467 46.4739C25.8829 46.4739 25.707 46.2996 25.707 46.0381V42.8128C25.707 42.5513 25.8829 42.377 26.1467 42.377C26.4105 42.377 26.5864 42.5513 26.5864 42.8128V46.0381C26.5864 46.2996 26.4105 46.4739 26.1467 46.4739Z" fill="black"/>
<path d="M46.4589 26.3385H43.2053C42.9415 26.3385 42.7656 26.1642 42.7656 25.9026C42.7656 25.6411 42.9415 25.4668 43.2053 25.4668H46.4589C46.7227 25.4668 46.8985 25.6411 46.8985 25.9026C46.8985 26.1642 46.7227 26.3385 46.4589 26.3385Z" fill="black"/>
<path d="M9.08778 26.3385H5.8342C5.5704 26.3385 5.39453 26.1642 5.39453 25.9026C5.39453 25.6411 5.5704 25.4668 5.8342 25.4668H9.08778C9.35159 25.4668 9.52746 25.6411 9.52746 25.9026C9.52746 26.1642 9.35159 26.3385 9.08778 26.3385Z" fill="black"/>
<g opacity="0.1294">
<path d="M47.2488 32.3534C46.5453 32.9636 46.1936 34.0096 45.5781 34.7942C45.4901 35.0557 43.9952 36.7119 43.1159 37.5836C42.4124 38.2809 41.7089 38.8911 40.9175 39.4141C40.8296 39.4141 40.6537 39.5013 40.5658 39.5885C36.8725 42.2907 34.1466 43.3368 29.486 44.2085C27.2877 44.6443 24.7376 44.993 21.2202 44.1213C18.758 43.5111 17.6149 42.9009 15.0648 41.0704C14.0096 40.2858 11.5474 38.1066 9.96456 36.1017C8.20587 33.661 7.59033 31.4817 7.23859 30.5229C6.88685 29.4768 6.62305 28.518 6.27131 27.4719C5.91957 25.9029 5.7437 25.467 5.7437 24.2467C5.4799 23.4621 5.2161 22.6776 5.04023 21.8931C4.86436 21.8059 4.60056 21.7188 4.33675 21.7188C3.89708 24.8568 3.98501 27.9949 4.33675 31.133C5.04023 33.7481 5.83164 36.7119 8.38174 39.5885C10.4042 41.8549 11.8112 42.6394 12.6905 43.4239C14.713 44.9058 16.9114 46.3005 19.2856 47.0851C20.6046 47.4337 21.9237 47.6081 23.3306 47.7824C24.8255 48.0439 26.3204 48.0439 27.7273 47.8696C28.8705 47.7824 30.0136 47.4337 31.1568 47.0851C33.4431 46.4749 35.8173 45.7775 37.9278 44.6443C38.8071 44.1213 39.0709 43.8598 39.5106 43.5983C45.4901 38.9783 47.5126 34.184 48.392 31.4817C47.9523 31.3074 47.6006 32.1791 47.2488 32.3534Z" fill="black"/>
</g>
</svg>
