<svg width="36" height="36" viewBox="0 0 36 36" fill="none" xmlns="http://www.w3.org/2000/svg">
<path d="M27.3566 7.01562H8.63741C7.74071 7.01562 7.01562 7.72355 7.01562 8.5988V27.3952C7.01562 28.2705 7.74071 28.9827 8.63741 28.9827H27.3566C28.2533 28.9827 28.9827 28.2705 28.9827 27.3995V8.5988C28.9827 7.72355 28.2533 7.01562 27.3566 7.01562ZM13.5328 25.7348H10.2721V15.249H13.5328V25.7348ZM11.9024 13.8203C10.8556 13.8203 10.0104 12.975 10.0104 11.9325C10.0104 10.8899 10.8556 10.0447 11.9024 10.0447C12.945 10.0447 13.7902 10.8899 13.7902 11.9325C13.7902 12.9708 12.945 13.8203 11.9024 13.8203ZM25.7348 25.7348H22.4784V20.6378C22.4784 19.4236 22.4569 17.8576 20.7836 17.8576C19.0889 17.8576 18.8315 19.1833 18.8315 20.552V25.7348H15.5793V15.249H18.7028V16.682H18.7457C19.179 15.8582 20.243 14.9873 21.8262 14.9873C25.1256 14.9873 25.7348 17.1582 25.7348 19.9813V25.7348V25.7348Z" fill="#0A66C2"/>
</svg>
