<svg width="46" height="56" viewBox="0 0 46 56" fill="none" xmlns="http://www.w3.org/2000/svg">
<path d="M32.1643 35.7551H30.3084C29.4283 35.7203 28.7487 35.0145 28.7487 34.1345V32.3656L30.8486 30.2744C32.1816 28.9239 33.0704 28.0265 33.0879 25.8306C33.4364 25.8133 33.785 25.6825 34.1161 25.4473C34.9612 24.846 35.6147 23.6437 35.85 22.2321C36.1026 20.8205 35.9023 19.4787 35.3098 18.6335C35.057 18.2676 34.7347 18.0149 34.4122 17.8929V17.8667C35.5275 14.7996 36.6254 10.3907 35.0135 7.84655C34.3338 6.77478 33.2708 6.15616 31.8506 5.99067C30.5348 2.56636 27.6594 0.51875 23.8954 0.344407C18.711 0.144032 13.5266 3.51606 11.2612 8.66555C10.3985 11.2185 10.3202 14.4337 11.0173 18.4853C10.355 19.287 10.1023 20.6898 10.355 22.232C10.7296 24.2971 11.871 25.7435 13.117 25.8305C13.1344 28.035 14.032 28.9412 15.3825 30.2917L17.4649 32.3742V34.1343C17.4649 35.0143 16.7766 35.7201 15.8443 35.7549H14.0407C6.52992 35.7549 0.421875 41.8628 0.421875 49.3737V52.3973C0.421875 54.2009 1.88564 55.6647 3.68934 55.6647H42.5243C44.328 55.6647 45.7917 54.2009 45.7917 52.3973V49.3737C45.7917 41.863 39.675 35.7551 32.1643 35.7551ZM16.3062 29.377C15.0165 28.0787 14.4241 27.4863 14.4241 25.7698V25.0291C14.4241 24.5412 13.9013 24.2188 13.4569 24.454C12.6465 24.8984 11.8275 23.0338 11.6445 22.0143C11.4964 21.143 11.5575 20.4024 11.7317 19.8883C11.9931 20.0799 12.3154 20.1932 12.6552 20.1932H12.8556C13.6921 20.1932 14.3892 19.531 14.4415 18.712L14.6418 16.8387C14.6941 15.9674 15.3825 15.2615 16.2277 15.1832C20.4187 14.8086 24.7056 14.2074 27.6333 12.3427C28.034 12.0901 28.522 12.0203 29.0012 12.1511C29.2563 12.2243 29.493 12.3506 29.6957 12.5218C29.8984 12.693 30.0626 12.9052 30.1775 13.1443C31.014 14.8521 31.1969 16.2202 30.8658 18.3026C30.8396 18.4245 30.8396 18.5291 30.8396 18.5988C30.8396 19.4788 31.5454 20.1933 32.4254 20.1933C33.079 20.1933 33.6539 19.8012 33.898 19.2C33.9066 19.1739 33.9153 19.1477 33.9241 19.1303C34.0374 19.1652 34.142 19.2436 34.2465 19.3917C34.6299 19.9319 34.752 20.9601 34.5602 22.0143C34.3423 23.2865 33.7761 24.0794 33.3579 24.3756C33.2445 24.4628 33.0703 24.5499 32.9222 24.5237C32.8699 24.5151 32.8263 24.4976 32.748 24.454C32.5389 24.3407 32.2948 24.3495 32.1032 24.4714C31.9027 24.5848 31.7808 24.8025 31.7808 25.0291V25.7698C31.7808 27.4689 31.1969 28.0613 29.9162 29.351L27.642 31.6339C27.6333 31.6339 27.6333 31.6339 27.6333 31.6426L26.4482 32.8188C25.8819 33.3852 25.1151 33.6989 24.3048 33.6989H21.9C21.1071 33.6989 20.3403 33.3852 19.7564 32.8188L18.5802 31.6513C18.5802 31.6425 18.5802 31.6425 18.5715 31.6425L16.3062 29.377ZM23.9826 48.9905C23.9826 49.4696 23.5905 49.8618 23.1113 49.8618C22.9968 49.8621 22.8833 49.8399 22.7774 49.7962C22.6715 49.7526 22.5753 49.6884 22.4943 49.6074C22.4133 49.5264 22.3492 49.4302 22.3055 49.3244C22.2619 49.2185 22.2396 49.105 22.24 48.9905V47.6922C22.2396 47.5777 22.2619 47.4642 22.3055 47.3583C22.3492 47.2524 22.4133 47.1562 22.4943 47.0752C22.5753 46.9942 22.6715 46.9301 22.7774 46.8864C22.8833 46.8428 22.9968 46.8205 23.1113 46.8209C23.5905 46.8209 23.9826 47.213 23.9826 47.6922V48.9905ZM23.1024 42.1157C19.983 42.1157 17.3256 39.9287 16.6808 36.9313C17.8919 36.5741 18.7719 35.4675 18.7719 34.1344V33.6813L18.8416 33.7509C19.6781 34.5613 20.7673 35.0057 21.9 35.0057H24.3048C25.4724 35.0057 26.5615 34.5613 27.3718 33.7423L27.4414 33.6726V34.1344C27.4414 35.4588 28.3127 36.5654 29.5327 36.9313C28.8968 39.9287 26.2304 42.1157 23.1024 42.1157Z" fill="#11293A"/>
</svg>
