<svg width="22" height="22" viewBox="0 0 22 22" fill="none" xmlns="http://www.w3.org/2000/svg">
<path d="M16.9289 15.4282L17.2864 18.3248C17.3781 19.0857 16.5622 19.6173 15.9114 19.2232L12.7397 17.3348C12.5197 17.2065 12.4647 16.9315 12.5839 16.7115C13.0422 15.8682 13.2897 14.9148 13.2897 13.9615C13.2897 10.6065 10.4114 7.87482 6.87307 7.87482C6.14891 7.87482 5.44307 7.98482 4.78307 8.20482C4.4439 8.31482 4.1139 8.00315 4.1964 7.65482C5.03057 4.31815 8.23891 1.83398 12.0706 1.83398C16.5439 1.83398 20.1647 5.21648 20.1647 9.38732C20.1647 11.8623 18.8906 14.0532 16.9289 15.4282Z" fill="#4FB2F3"/>
<path d="M11.9154 13.9617C11.9154 15.0525 11.512 16.0608 10.8337 16.8583C9.9262 17.9583 8.48703 18.6642 6.8737 18.6642L4.4812 20.085C4.07786 20.3325 3.56453 19.9933 3.61953 19.5258L3.8487 17.72C2.62036 16.8675 1.83203 15.5017 1.83203 13.9617C1.83203 12.3483 2.6937 10.9275 4.0137 10.0842C4.82953 9.5525 5.81036 9.25 6.8737 9.25C9.66037 9.25 11.9154 11.3583 11.9154 13.9617Z" fill="#4FB2F3"/>
</svg>
