<svg width="56" height="56" viewBox="0 0 56 56" fill="none" xmlns="http://www.w3.org/2000/svg">
<path d="M47.7635 15.2342C47.6601 15.0909 47.5275 14.9711 47.3744 14.8828C47.2213 14.7946 47.0512 14.7397 46.8754 14.722L39.784 14.0064C39.0979 13.9369 38.4842 14.4377 38.4149 15.1246C38.3455 15.8115 38.8462 16.4246 39.5331 16.4938L43.3484 16.8788L37.7629 20.9094C35.7429 18.6931 32.8343 17.3 29.6064 17.3C26.3075 17.3 23.3426 18.7553 21.3184 21.057C20.5682 20.8988 19.8035 20.8191 19.0368 20.8193C12.9512 20.8193 8 25.7705 8 31.8561C8 37.5192 12.2876 42.199 17.7868 42.8218V46.4408H14.0559C13.3655 46.4408 12.8059 47.0004 12.8059 47.6908C12.8059 48.3811 13.3655 48.9408 14.0559 48.9408H17.7869V52.6717C17.7869 53.3621 18.3465 53.9217 19.0369 53.9217C19.7273 53.9217 20.2869 53.3621 20.2869 52.6717V48.9408H24.0179C24.7083 48.9408 25.2679 48.3811 25.2679 47.6908C25.2679 47.0004 24.7083 46.4408 24.0179 46.4408H20.2869V42.8218C23.0799 42.5055 25.5601 41.1428 27.3249 39.136C28.0751 39.2943 28.8398 39.3739 29.6065 39.3738H29.6065C32.5544 39.3738 35.3263 38.2256 37.4107 36.1412C39.4953 34.0566 40.6434 31.285 40.6434 28.3369C40.6434 26.3758 40.1286 24.533 39.2281 22.9352L44.8114 18.9061L43.9745 22.6484C43.8238 23.3221 44.2477 23.9904 44.9215 24.141C45.0134 24.1616 45.1051 24.1714 45.1955 24.1714C45.7678 24.1714 46.2841 23.7758 46.4142 23.194L47.9698 16.2385C48.0083 16.0661 48.0099 15.8874 47.9743 15.7142C47.9387 15.5411 47.8669 15.3775 47.7635 15.2342ZM26.3634 36.2332C23.2599 34.9539 21.0696 31.8966 21.0696 28.3369C21.0696 26.738 21.5118 25.2405 22.2799 23.9598C25.3834 25.2391 27.5737 28.2965 27.5737 31.8561C27.5737 33.4551 27.1315 34.9525 26.3634 36.2332ZM19.0368 40.3931C14.3297 40.3931 10.5 36.5634 10.5 31.8561C10.5 27.1489 14.3297 23.3193 19.0368 23.3193C19.281 23.3193 19.5228 23.3302 19.762 23.3504C18.9998 24.849 18.5696 26.5436 18.5696 28.3369C18.5696 32.666 21.0753 36.4202 24.7124 38.2272C23.2027 39.5734 21.2139 40.3931 19.0368 40.3931ZM35.6429 34.3734C34.0305 35.9858 31.8868 36.8737 29.6064 36.8737C29.3622 36.8737 29.1204 36.8628 28.8812 36.8426C29.6434 35.344 30.0737 33.6494 30.0737 31.8561C30.0737 27.527 27.5679 23.7728 23.9309 21.9658C25.4405 20.6195 27.4294 19.8 29.6064 19.8C34.3136 19.8 38.1432 23.6297 38.1432 28.3369C38.1433 30.6172 37.2553 32.7611 35.6429 34.3734Z" fill="#7A7A7A" fill-opacity="0.5"/>
</svg>
