<svg width="144" height="66" viewBox="0 0 144 66" fill="none" xmlns="http://www.w3.org/2000/svg">
<g clip-path="url(#clip0_3877_63776)">
<path d="M71.3086 0.248047L48.7266 12.852L72.0963 25.4559L95.4661 13.3771L71.3086 0.248047Z" fill="white" stroke="black" stroke-width="0.235727"/>
<path d="M95.4674 13.377L72.0977 25.4557V82.4359H95.4674V13.377Z" fill="url(#paint0_linear_3877_63776)" stroke="black" stroke-width="0.235727"/>
<path d="M72.0963 25.4555L48.7266 12.8516L48.9891 82.4357H72.3589L72.0963 25.4555Z" fill="url(#paint1_linear_3877_63776)" stroke="black" stroke-width="0.235727"/>
<path d="M124.462 20.5195L106.551 30.5164L125.087 40.5133L143.623 30.933L124.462 20.5195Z" fill="white" stroke="black" stroke-width="0.235727"/>
<path d="M143.626 30.9336L125.09 40.514V85.7083H143.626V30.9336Z" fill="url(#paint2_linear_3877_63776)"/>
<path d="M143.626 30.9336L125.09 40.514V85.7083H143.626V30.9336Z" fill="url(#paint3_linear_3877_63776)"/>
<path d="M143.626 30.9336L125.09 40.514V85.7083H143.626V30.9336Z" stroke="black" stroke-width="0.235727"/>
<path d="M125.087 40.5125L106.551 30.5156L106.759 85.7069H125.295L125.087 40.5125Z" fill="url(#paint4_linear_3877_63776)"/>
<path d="M125.087 40.5125L106.551 30.5156L106.759 85.7069H125.295L125.087 40.5125Z" fill="url(#paint5_linear_3877_63776)"/>
<path d="M125.087 40.5125L106.551 30.5156L106.759 85.7069H125.295L125.087 40.5125Z" stroke="black" stroke-width="0.235727"/>
<path d="M18.4775 20.5195L0.566406 30.5164L19.1023 40.5133L37.6383 30.933L18.4775 20.5195Z" fill="white" stroke="black" stroke-width="0.235727"/>
<path d="M37.6336 30.9336L19.0977 40.514L19.0977 85.7083H37.6336V30.9336Z" fill="url(#paint6_linear_3877_63776)"/>
<path d="M37.6336 30.9336L19.0977 40.514L19.0977 85.7083H37.6336V30.9336Z" fill="url(#paint7_linear_3877_63776)"/>
<path d="M37.6336 30.9336L19.0977 40.514L19.0977 85.7083H37.6336V30.9336Z" stroke="black" stroke-width="0.235727"/>
<path d="M19.1023 40.5125L0.566406 30.5156L0.774675 85.7069H19.3106L19.1023 40.5125Z" fill="url(#paint8_linear_3877_63776)"/>
<path d="M19.1023 40.5125L0.566406 30.5156L0.774675 85.7069H19.3106L19.1023 40.5125Z" fill="url(#paint9_linear_3877_63776)"/>
<path d="M19.1023 40.5125L0.566406 30.5156L0.774675 85.7069H19.3106L19.1023 40.5125Z" stroke="black" stroke-width="0.235727"/>
</g>
<defs>
<linearGradient id="paint0_linear_3877_63776" x1="88.6357" y1="18.2384" x2="114.531" y2="61.7209" gradientUnits="userSpaceOnUse">
<stop stop-color="#BADCF1"/>
<stop offset="1" stop-color="#4FB2F3"/>
</linearGradient>
<linearGradient id="paint1_linear_3877_63776" x1="65.4504" y1="17.75" x2="91.498" y2="61.6455" gradientUnits="userSpaceOnUse">
<stop stop-color="#BADCF1"/>
<stop offset="1" stop-color="#4FB2F3"/>
</linearGradient>
<linearGradient id="paint2_linear_3877_63776" x1="134.358" y1="30.9336" x2="134.358" y2="85.7083" gradientUnits="userSpaceOnUse">
<stop offset="0.0001" stop-color="#4FB2F3"/>
<stop offset="1" stop-color="#BAE4FF"/>
</linearGradient>
<linearGradient id="paint3_linear_3877_63776" x1="138.207" y1="34.7895" x2="158.746" y2="69.278" gradientUnits="userSpaceOnUse">
<stop stop-color="#4FB2F3"/>
<stop offset="1" stop-color="#BADCF1"/>
</linearGradient>
<linearGradient id="paint4_linear_3877_63776" x1="116.027" y1="30.9322" x2="116.027" y2="85.7069" gradientUnits="userSpaceOnUse">
<stop offset="0.0001" stop-color="#5BCFCF"/>
<stop offset="1" stop-color="#8BFFEB"/>
</linearGradient>
<linearGradient id="paint5_linear_3877_63776" x1="119.815" y1="34.4008" x2="140.475" y2="69.217" gradientUnits="userSpaceOnUse">
<stop stop-color="#BADCF1"/>
<stop offset="1" stop-color="#4FB2F3"/>
</linearGradient>
<linearGradient id="paint6_linear_3877_63776" x1="28.3656" y1="30.9336" x2="28.3656" y2="85.7083" gradientUnits="userSpaceOnUse">
<stop offset="0.0001" stop-color="#4FB2F3"/>
<stop offset="1" stop-color="#BAE4FF"/>
</linearGradient>
<linearGradient id="paint7_linear_3877_63776" x1="32.2149" y1="34.7895" x2="52.7542" y2="69.278" gradientUnits="userSpaceOnUse">
<stop stop-color="#4FB2F3"/>
<stop offset="1" stop-color="#BADCF1"/>
</linearGradient>
<linearGradient id="paint8_linear_3877_63776" x1="10.0426" y1="30.9322" x2="10.0426" y2="85.7069" gradientUnits="userSpaceOnUse">
<stop offset="0.0001" stop-color="#5BCFCF"/>
<stop offset="1" stop-color="#8BFFEB"/>
</linearGradient>
<linearGradient id="paint9_linear_3877_63776" x1="13.8311" y1="34.4008" x2="34.491" y2="69.217" gradientUnits="userSpaceOnUse">
<stop stop-color="#BADCF1"/>
<stop offset="1" stop-color="#4FB2F3"/>
</linearGradient>
<clipPath id="clip0_3877_63776">
<rect width="143.322" height="65.0605" fill="white" transform="translate(0.589844 0.195312)"/>
</clipPath>
</defs>
</svg>
