<svg width="48" height="48" viewBox="0 0 48 48" fill="none" xmlns="http://www.w3.org/2000/svg">
<path fill-rule="evenodd" clip-rule="evenodd" d="M33 1.5H42C43.1935 1.5 44.3381 1.97411 45.182 2.81802C46.0259 3.66193 46.5 4.80653 46.5 6V15C46.5 15.3978 46.342 15.7794 46.0607 16.0607C45.7794 16.342 45.3978 16.5 45 16.5C44.6022 16.5 44.2206 16.342 43.9393 16.0607C43.658 15.7794 43.5 15.3978 43.5 15V6C43.5 5.60218 43.342 5.22064 43.0607 4.93934C42.7794 4.65804 42.3978 4.5 42 4.5H33C32.6022 4.5 32.2206 4.34196 31.9393 4.06066C31.658 3.77936 31.5 3.39782 31.5 3C31.5 2.60218 31.658 2.22064 31.9393 1.93934C32.2206 1.65804 32.6022 1.5 33 1.5ZM15 4.5H6C5.60218 4.5 5.22064 4.65804 4.93934 4.93934C4.65804 5.22064 4.5 5.60218 4.5 6V15C4.5 15.3978 4.34196 15.7794 4.06066 16.0607C3.77936 16.342 3.39782 16.5 3 16.5C2.60218 16.5 2.22064 16.342 1.93934 16.0607C1.65804 15.7794 1.5 15.3978 1.5 15V6C1.5 4.80653 1.97411 3.66193 2.81802 2.81802C3.66193 1.97411 4.80653 1.5 6 1.5H15C15.3978 1.5 15.7794 1.65804 16.0607 1.93934C16.342 2.22064 16.5 2.60218 16.5 3C16.5 3.39782 16.342 3.77936 16.0607 4.06066C15.7794 4.34196 15.3978 4.5 15 4.5ZM22.5 18V9C22.5 8.60218 22.658 8.22064 22.9393 7.93934C23.2206 7.65804 23.6022 7.5 24 7.5C24.3978 7.5 24.7794 7.65804 25.0607 7.93934C25.342 8.22064 25.5 8.60218 25.5 9V18C25.5 18.3978 25.342 18.7794 25.0607 19.0607C24.7794 19.342 24.3978 19.5 24 19.5C23.6022 19.5 23.2206 19.342 22.9393 19.0607C22.658 18.7794 22.5 18.3978 22.5 18ZM19.5 18C19.5 18.3978 19.342 18.7794 19.0607 19.0607C18.7794 19.342 18.3978 19.5 18 19.5H9C8.60218 19.5 8.22064 19.342 7.93934 19.0607C7.65804 18.7794 7.5 18.3978 7.5 18V9C7.5 8.60218 7.65804 8.22064 7.93934 7.93934C8.22064 7.65804 8.60218 7.5 9 7.5H18C18.3978 7.5 18.7794 7.65804 19.0607 7.93934C19.342 8.22064 19.5 8.60218 19.5 9V18ZM40.5 18C40.5 18.3978 40.342 18.7794 40.0607 19.0607C39.7794 19.342 39.3978 19.5 39 19.5H30C29.6022 19.5 29.2206 19.342 28.9393 19.0607C28.658 18.7794 28.5 18.3978 28.5 18V9C28.5 8.60218 28.658 8.22064 28.9393 7.93934C29.2206 7.65804 29.6022 7.5 30 7.5H39C39.3978 7.5 39.7794 7.65804 40.0607 7.93934C40.342 8.22064 40.5 8.60218 40.5 9V18ZM16.5 16.5V10.5H10.5V16.5H16.5ZM37.5 16.5V10.5H31.5V16.5H37.5ZM22.5 22.5H24C24.3978 22.5 24.7794 22.658 25.0607 22.9393C25.342 23.2206 25.5 23.6022 25.5 24C25.5 24.3978 25.342 24.7794 25.0607 25.0607C24.7794 25.342 24.3978 25.5 24 25.5H22.5C22.1022 25.5 21.7206 25.342 21.4393 25.0607C21.158 24.7794 21 24.3978 21 24C21 23.6022 21.158 23.2206 21.4393 22.9393C21.7206 22.658 22.1022 22.5 22.5 22.5ZM9 22.5H16.5C16.8978 22.5 17.2794 22.658 17.5607 22.9393C17.842 23.2206 18 23.6022 18 24C18 24.3978 17.842 24.7794 17.5607 25.0607C17.2794 25.342 16.8978 25.5 16.5 25.5H9C8.60218 25.5 8.22064 25.342 7.93934 25.0607C7.65804 24.7794 7.5 24.3978 7.5 24C7.5 23.6022 7.65804 23.2206 7.93934 22.9393C8.22064 22.658 8.60218 22.5 9 22.5ZM36 25.5H37.5V24C37.5 23.6022 37.658 23.2206 37.9393 22.9393C38.2206 22.658 38.6022 22.5 39 22.5C39.3978 22.5 39.7794 22.658 40.0607 22.9393C40.342 23.2206 40.5 23.6022 40.5 24V27C40.5 27.3978 40.342 27.7794 40.0607 28.0607C39.7794 28.342 39.3978 28.5 39 28.5H36C35.6022 28.5 35.2206 28.342 34.9393 28.0607C34.658 27.7794 34.5 27.3978 34.5 27C34.5 26.6022 34.658 26.2206 34.9393 25.9393C35.2206 25.658 35.6022 25.5 36 25.5ZM31.5 24V31.5H33C33.3978 31.5 33.7794 31.658 34.0607 31.9393C34.342 32.2206 34.5 32.6022 34.5 33C34.5 33.3978 34.342 33.7794 34.0607 34.0607C33.7794 34.342 33.3978 34.5 33 34.5H30C29.6022 34.5 29.2206 34.342 28.9393 34.0607C28.658 33.7794 28.5 33.3978 28.5 33V24C28.5 23.6022 28.658 23.2206 28.9393 22.9393C29.2206 22.658 29.6022 22.5 30 22.5C30.3978 22.5 30.7794 22.658 31.0607 22.9393C31.342 23.2206 31.5 23.6022 31.5 24ZM22.5 33V30C22.5 29.6022 22.658 29.2206 22.9393 28.9393C23.2206 28.658 23.6022 28.5 24 28.5C24.3978 28.5 24.7794 28.658 25.0607 28.9393C25.342 29.2206 25.5 29.6022 25.5 30V33C25.5 33.3978 25.342 33.7794 25.0607 34.0607C24.7794 34.342 24.3978 34.5 24 34.5C23.6022 34.5 23.2206 34.342 22.9393 34.0607C22.658 33.7794 22.5 33.3978 22.5 33ZM19.5 39C19.5 39.3978 19.342 39.7794 19.0607 40.0607C18.7794 40.342 18.3978 40.5 18 40.5H9C8.60218 40.5 8.22064 40.342 7.93934 40.0607C7.65804 39.7794 7.5 39.3978 7.5 39V30C7.5 29.6022 7.65804 29.2206 7.93934 28.9393C8.22064 28.658 8.60218 28.5 9 28.5H18C18.3978 28.5 18.7794 28.658 19.0607 28.9393C19.342 29.2206 19.5 29.6022 19.5 30V39ZM15 46.5H6C4.80653 46.5 3.66193 46.0259 2.81802 45.182C1.97411 44.3381 1.5 43.1935 1.5 42V33C1.5 32.6022 1.65804 32.2206 1.93934 31.9393C2.22064 31.658 2.60218 31.5 3 31.5C3.39782 31.5 3.77936 31.658 4.06066 31.9393C4.34196 32.2206 4.5 32.6022 4.5 33V42C4.5 42.3978 4.65804 42.7794 4.93934 43.0607C5.22064 43.342 5.60218 43.5 6 43.5H15C15.3978 43.5 15.7794 43.658 16.0607 43.9393C16.342 44.2206 16.5 44.6022 16.5 45C16.5 45.3978 16.342 45.7794 16.0607 46.0607C15.7794 46.342 15.3978 46.5 15 46.5ZM16.5 37.5V31.5H10.5V37.5H16.5ZM33 43.5H42C42.3978 43.5 42.7794 43.342 43.0607 43.0607C43.342 42.7794 43.5 42.3978 43.5 42V33C43.5 32.6022 43.658 32.2206 43.9393 31.9393C44.2206 31.658 44.6022 31.5 45 31.5C45.3978 31.5 45.7794 31.658 46.0607 31.9393C46.342 32.2206 46.5 32.6022 46.5 33V42C46.5 43.1935 46.0259 44.3381 45.182 45.182C44.3381 46.0259 43.1935 46.5 42 46.5H33C32.6022 46.5 32.2206 46.342 31.9393 46.0607C31.658 45.7794 31.5 45.3978 31.5 45C31.5 44.6022 31.658 44.2206 31.9393 43.9393C32.2206 43.658 32.6022 43.5 33 43.5ZM24 37.5H37.5V33C37.5 32.6022 37.658 32.2206 37.9393 31.9393C38.2206 31.658 38.6022 31.5 39 31.5C39.3978 31.5 39.7794 31.658 40.0607 31.9393C40.342 32.2206 40.5 32.6022 40.5 33V39C40.5 39.3978 40.342 39.7794 40.0607 40.0607C39.7794 40.342 39.3978 40.5 39 40.5H24C23.6022 40.5 23.2206 40.342 22.9393 40.0607C22.658 39.7794 22.5 39.3978 22.5 39C22.5 38.6022 22.658 38.2206 22.9393 37.9393C23.2206 37.658 23.6022 37.5 24 37.5Z" fill="#4FB2F3"/>
</svg>
