<svg width="39" height="43" viewBox="0 0 39 43" fill="none" xmlns="http://www.w3.org/2000/svg">
<path d="M17.7012 1.7666C18.9017 0.951503 20.4783 0.95341 21.6768 1.77148L36.8018 12.0957C37.7658 12.7538 38.3427 13.8455 38.3428 15.0127V28.1943C38.3428 29.3637 37.7637 30.4575 36.7969 31.1152L21.6758 41.4023C20.4796 42.2159 18.9082 42.2177 17.71 41.4072L2.49219 31.1143C1.52081 30.4573 0.938513 29.3612 0.938477 28.1885V15.0186C0.938603 13.8483 1.51821 12.7541 2.48633 12.0967L17.7012 1.7666Z" fill="url(#paint0_linear_3877_63806)"/>
<path d="M17.7012 1.7666C18.9017 0.951503 20.4783 0.95341 21.6768 1.77148L36.8018 12.0957C37.7658 12.7538 38.3427 13.8455 38.3428 15.0127V28.1943C38.3428 29.3637 37.7637 30.4575 36.7969 31.1152L21.6758 41.4023C20.4796 42.2159 18.9082 42.2177 17.71 41.4072L2.49219 31.1143C1.52081 30.4573 0.938513 29.3612 0.938477 28.1885V15.0186C0.938603 13.8483 1.51821 12.7541 2.48633 12.0967L17.7012 1.7666Z" fill="url(#paint1_linear_3877_63806)"/>
<path d="M17.7012 1.7666C18.9017 0.951503 20.4783 0.95341 21.6768 1.77148L36.8018 12.0957C37.7658 12.7538 38.3427 13.8455 38.3428 15.0127V28.1943C38.3428 29.3637 37.7637 30.4575 36.7969 31.1152L21.6758 41.4023C20.4796 42.2159 18.9082 42.2177 17.71 41.4072L2.49219 31.1143C1.52081 30.4573 0.938513 29.3612 0.938477 28.1885V15.0186C0.938603 13.8483 1.51821 12.7541 2.48633 12.0967L17.7012 1.7666Z" stroke="#656565" stroke-width="0.376741"/>
<path d="M18.7295 4.78809C19.3007 4.39603 20.0547 4.39672 20.625 4.79004L34.1641 14.1328C34.6163 14.445 34.8867 14.9593 34.8867 15.5088V27.6924C34.8867 28.2428 34.6156 28.7584 34.1621 29.0703L20.626 38.3779C20.0567 38.7693 19.3057 38.7708 18.7354 38.3809L5.11621 29.0693C4.66043 28.7577 4.3877 28.2416 4.3877 27.6895V15.5117C4.3877 14.9607 4.65896 14.4447 5.11328 14.1328L18.7295 4.78809Z" fill="url(#paint2_linear_3877_63806)" stroke="white" stroke-width="0.376741"/>
<path d="M22.0374 26.8223H19.8117V17.0254L17.7382 19.175L16.4447 17.8244L20.0971 14.1339H22.0374V26.8223Z" fill="#F3934F"/>
<defs>
<linearGradient id="paint0_linear_3877_63806" x1="38.531" y1="21.5824" x2="0.75" y2="21.5824" gradientUnits="userSpaceOnUse">
<stop stop-color="#FE986A"/>
<stop offset="1" stop-color="#FED5C0"/>
</linearGradient>
<linearGradient id="paint1_linear_3877_63806" x1="33.43" y1="35.3296" x2="4.90365" y2="10.2181" gradientUnits="userSpaceOnUse">
<stop stop-color="#FEB394"/>
<stop offset="1" stop-color="#FFDDCF"/>
</linearGradient>
<linearGradient id="paint2_linear_3877_63806" x1="30.9061" y1="32.9386" x2="7.37444" y2="12.4461" gradientUnits="userSpaceOnUse">
<stop stop-color="#FFDDCF"/>
<stop offset="1" stop-color="#FEB394"/>
</linearGradient>
</defs>
</svg>
