<svg width="144" height="93" viewBox="0 0 144 93" fill="none" xmlns="http://www.w3.org/2000/svg">
<g clip-path="url(#clip0_3977_60972)">
<path d="M71.3086 32.0527L48.7266 44.6566L72.0963 57.2606L95.4661 45.1818L71.3086 32.0527Z" fill="white" stroke="black" stroke-width="0.235727"/>
<path d="M95.4635 45.1816L72.0938 57.2604V114.241H95.4635V45.1816Z" fill="url(#paint0_linear_3977_60972)" stroke="black" stroke-width="0.235727"/>
<path d="M72.0963 57.2602L48.7266 44.6562L48.9891 114.24H72.3589L72.0963 57.2602Z" fill="url(#paint1_linear_3977_60972)" stroke="black" stroke-width="0.235727"/>
<path d="M124.462 52.3242L106.551 62.3211L125.087 72.318L143.623 62.7377L124.462 52.3242Z" fill="white" stroke="black" stroke-width="0.235727"/>
<path d="M143.626 62.7383L125.09 72.3187V117.513H143.626V62.7383Z" fill="url(#paint2_linear_3977_60972)"/>
<path d="M143.626 62.7383L125.09 72.3187V117.513H143.626V62.7383Z" fill="url(#paint3_linear_3977_60972)"/>
<path d="M143.626 62.7383L125.09 72.3187V117.513H143.626V62.7383Z" stroke="black" stroke-width="0.235727"/>
<path d="M125.087 72.3172L106.551 62.3203L106.759 117.512H125.295L125.087 72.3172Z" fill="url(#paint4_linear_3977_60972)"/>
<path d="M125.087 72.3172L106.551 62.3203L106.759 117.512H125.295L125.087 72.3172Z" fill="url(#paint5_linear_3977_60972)"/>
<path d="M125.087 72.3172L106.551 62.3203L106.759 117.512H125.295L125.087 72.3172Z" stroke="black" stroke-width="0.235727"/>
<path d="M18.4775 52.3242L0.566406 62.3211L19.1023 72.318L37.6383 62.7377L18.4775 52.3242Z" fill="white" stroke="black" stroke-width="0.235727"/>
<path d="M37.6375 62.7383L19.1016 72.3187L19.1016 117.513H37.6375V62.7383Z" fill="url(#paint6_linear_3977_60972)"/>
<path d="M37.6375 62.7383L19.1016 72.3187L19.1016 117.513H37.6375V62.7383Z" fill="url(#paint7_linear_3977_60972)"/>
<path d="M37.6375 62.7383L19.1016 72.3187L19.1016 117.513H37.6375V62.7383Z" stroke="black" stroke-width="0.235727"/>
<path d="M19.1023 72.3172L0.566406 62.3203L0.774675 117.512H19.3106L19.1023 72.3172Z" fill="url(#paint8_linear_3977_60972)"/>
<path d="M19.1023 72.3172L0.566406 62.3203L0.774675 117.512H19.3106L19.1023 72.3172Z" fill="url(#paint9_linear_3977_60972)"/>
<path d="M19.1023 72.3172L0.566406 62.3203L0.774675 117.512H19.3106L19.1023 72.3172Z" stroke="black" stroke-width="0.235727"/>
</g>
<circle cx="18.5" cy="42.5" r="18.5" fill="#4FB2F3" fill-opacity="0.3"/>
<circle cx="18.1487" cy="42.8498" r="14.5404" fill="white" stroke="black" stroke-width="0.24"/>
<path d="M21.0443 37.5683C21.0443 39.278 19.7057 40.6639 18.0546 40.6639C16.4034 40.6639 15.0649 39.278 15.0649 37.5683C15.0649 35.8586 16.4034 34.4727 18.0546 34.4727C19.7057 34.4727 21.0443 35.8586 21.0443 37.5683Z" fill="#4FB2F3"/>
<path d="M12.4376 46.0284C12.7304 43.9277 14.301 42.2111 16.3454 42.0569C17.5134 41.9687 18.5999 41.9686 19.7657 42.0564C21.8093 42.2102 23.3787 43.9268 23.6714 46.0266L23.7284 46.435C23.8971 47.6452 23.0851 48.7748 21.9109 48.9052C19.1552 49.2112 16.9631 49.2076 14.2033 48.9028C13.0272 48.7729 12.2126 47.6423 12.3816 46.4303L12.4376 46.0284Z" fill="#4FB2F3"/>
<circle cx="124.5" cy="42.5" r="18.5" fill="#4FB2F3" fill-opacity="0.3"/>
<circle cx="124.149" cy="42.8498" r="14.5404" fill="white" stroke="black" stroke-width="0.24"/>
<path d="M126.935 37.5683C126.935 39.278 125.596 40.6639 123.945 40.6639C122.294 40.6639 120.956 39.278 120.956 37.5683C120.956 35.8586 122.294 34.4727 123.945 34.4727C125.596 34.4727 126.935 35.8586 126.935 37.5683Z" fill="#4FB2F3"/>
<path d="M118.328 46.0284C118.621 43.9277 120.192 42.2111 122.236 42.0569C123.404 41.9687 124.491 41.9686 125.656 42.0564C127.7 42.2102 129.269 43.9268 129.562 46.0266L129.619 46.435C129.788 47.6452 128.976 48.7748 127.802 48.9052C125.046 49.2112 122.854 49.2076 120.094 48.9028C118.918 48.7729 118.103 47.6423 118.272 46.4303L118.328 46.0284Z" fill="#4FB2F3"/>
<circle cx="72.5" cy="21.5" r="21.5" fill="#4FB2F3" fill-opacity="0.3"/>
<circle cx="72.0924" cy="21.9049" r="16.9177" fill="white" stroke="black" stroke-width="0.24"/>
<path d="M75.4331 15.7676C75.4331 17.7545 73.8775 19.3652 71.9586 19.3652C70.0397 19.3652 68.4841 17.7545 68.4841 15.7676C68.4841 13.7806 70.0397 12.1699 71.9586 12.1699C73.8775 12.1699 75.4331 13.7806 75.4331 15.7676Z" fill="#4FB2F3"/>
<path d="M65.4307 25.5995C65.771 23.1582 67.5964 21.1632 69.9722 20.984C71.3297 20.8816 72.5924 20.8814 73.9472 20.9834C76.3221 21.1622 78.1461 23.1571 78.4863 25.5974L78.5525 26.0721C78.7485 27.4785 77.8049 28.7913 76.4403 28.9428C73.2377 29.2984 70.6901 29.2943 67.4827 28.9401C66.116 28.7891 65.1693 27.4752 65.3656 26.0666L65.4307 25.5995Z" fill="#4FB2F3"/>
<defs>
<linearGradient id="paint0_linear_3977_60972" x1="88.6318" y1="50.0431" x2="114.527" y2="93.5256" gradientUnits="userSpaceOnUse">
<stop stop-color="#BADCF1"/>
<stop offset="1" stop-color="#4FB2F3"/>
</linearGradient>
<linearGradient id="paint1_linear_3977_60972" x1="65.4504" y1="49.5546" x2="91.498" y2="93.4502" gradientUnits="userSpaceOnUse">
<stop stop-color="#BADCF1"/>
<stop offset="1" stop-color="#4FB2F3"/>
</linearGradient>
<linearGradient id="paint2_linear_3977_60972" x1="134.358" y1="62.7383" x2="134.358" y2="117.513" gradientUnits="userSpaceOnUse">
<stop offset="0.0001" stop-color="#4FB2F3"/>
<stop offset="1" stop-color="#BAE4FF"/>
</linearGradient>
<linearGradient id="paint3_linear_3977_60972" x1="138.207" y1="66.5942" x2="158.746" y2="101.083" gradientUnits="userSpaceOnUse">
<stop stop-color="#4FB2F3"/>
<stop offset="1" stop-color="#BADCF1"/>
</linearGradient>
<linearGradient id="paint4_linear_3977_60972" x1="116.027" y1="62.7369" x2="116.027" y2="117.512" gradientUnits="userSpaceOnUse">
<stop offset="0.0001" stop-color="#5BCFCF"/>
<stop offset="1" stop-color="#8BFFEB"/>
</linearGradient>
<linearGradient id="paint5_linear_3977_60972" x1="119.815" y1="66.2055" x2="140.475" y2="101.022" gradientUnits="userSpaceOnUse">
<stop stop-color="#BADCF1"/>
<stop offset="1" stop-color="#4FB2F3"/>
</linearGradient>
<linearGradient id="paint6_linear_3977_60972" x1="28.3695" y1="62.7383" x2="28.3695" y2="117.513" gradientUnits="userSpaceOnUse">
<stop offset="0.0001" stop-color="#4FB2F3"/>
<stop offset="1" stop-color="#BAE4FF"/>
</linearGradient>
<linearGradient id="paint7_linear_3977_60972" x1="32.2188" y1="66.5942" x2="52.7581" y2="101.083" gradientUnits="userSpaceOnUse">
<stop stop-color="#4FB2F3"/>
<stop offset="1" stop-color="#BADCF1"/>
</linearGradient>
<linearGradient id="paint8_linear_3977_60972" x1="10.0426" y1="62.7369" x2="10.0426" y2="117.512" gradientUnits="userSpaceOnUse">
<stop offset="0.0001" stop-color="#5BCFCF"/>
<stop offset="1" stop-color="#8BFFEB"/>
</linearGradient>
<linearGradient id="paint9_linear_3977_60972" x1="13.8311" y1="66.2055" x2="34.491" y2="101.022" gradientUnits="userSpaceOnUse">
<stop stop-color="#BADCF1"/>
<stop offset="1" stop-color="#4FB2F3"/>
</linearGradient>
<clipPath id="clip0_3977_60972">
<rect width="143.322" height="65.0605" fill="white" transform="translate(0.589844 32)"/>
</clipPath>
</defs>
</svg>
