<svg width="18" height="18" viewBox="0 0 18 18" fill="none" xmlns="http://www.w3.org/2000/svg">
<path d="M1 5.41143C1.04239 4.69715 1.09924 3.95548 1.17178 3.17131C1.2695 2.11503 2.11302 1.28285 3.16934 1.19181C3.95147 1.1244 4.69053 1.06909 5.40185 1.0259C5.55305 1.01672 5.70299 1.00809 5.85183 1M12.6008 1.02337C13.313 1.06643 14.0521 1.12181 14.8337 1.1895C15.8952 1.28143 16.7398 2.12198 16.8338 3.18385C16.9027 3.96288 16.9579 4.70029 17 5.41143M1.03758 12.6122C1.08158 13.3149 1.13553 14.043 1.19824 14.8113C1.2861 15.8878 2.13643 16.7475 3.212 16.8393C3.97739 16.9045 4.7024 16.9581 5.40185 17M12.6008 16.9989C13.3045 16.9568 14.0354 16.903 14.8082 16.8375C15.8812 16.7465 16.7315 15.8913 16.8204 14.8176C16.8842 14.046 16.9377 13.3157 16.9805 12.6122M2.5 8.5H15.5" stroke="black" stroke-linecap="round"/>
</svg>
