<svg width="393" height="852" viewBox="0 0 393 852" fill="none" xmlns="http://www.w3.org/2000/svg">
<g clip-path="url(#clip0_2371_34606)">
<rect width="393" height="852" fill="url(#paint0_linear_2371_34606)"/>
<g clip-path="url(#clip1_2371_34606)">
<path d="M251.537 434.99C251.537 437.866 249.181 440.201 246.277 440.201C243.374 440.201 241.017 437.866 241.017 434.99V418.414H233.555V434.99C233.555 441.951 239.25 447.606 246.291 447.606C253.319 447.606 259.028 441.965 259.028 434.99V418.414H251.565V434.99H251.537Z" fill="#162732"/>
<path d="M238.406 414.024C241.086 414.024 243.274 411.87 243.274 409.202C243.274 406.548 241.1 404.381 238.406 404.381C235.727 404.381 233.539 406.535 233.539 409.202C233.539 411.87 235.713 414.024 238.406 414.024Z" fill="#4FB2F3"/>
<path d="M254.145 414.023C256.824 414.023 259.012 411.87 259.012 409.202C258.998 406.548 256.824 404.395 254.145 404.395C251.466 404.395 249.277 406.548 249.277 409.216C249.277 411.87 251.452 414.023 254.145 414.023Z" fill="#4FB2F3"/>
<path d="M166.783 404.395C164.104 404.395 161.93 406.548 161.93 409.216C161.93 411.87 164.104 414.037 166.797 414.037C169.476 414.037 171.664 411.884 171.664 409.216C171.65 406.548 169.476 404.395 166.783 404.395Z" fill="#4FB2F3"/>
<path d="M212.54 433.239C212.68 433.406 212.807 433.559 212.947 433.698V418.414H205.484V425.653C208.64 428.724 210.885 431.322 212.54 433.239Z" fill="#162732"/>
<path d="M223.484 434.99C223.484 436.977 222.362 438.7 220.706 439.589C219.963 439.992 219.121 440.214 218.224 440.214C214.015 440.214 212.627 436.463 205.487 429.154C204.758 428.404 203.958 427.612 203.088 426.779C201.265 424.347 199.399 422.582 197.604 421.304C195.317 419.442 192.47 418.261 189.356 418.011C189.089 417.983 188.865 417.969 188.669 417.956C188.43 417.942 188.248 417.942 188.108 417.942C187.266 417.942 186.424 418.011 185.625 418.15C183.815 418.456 182.118 419.067 180.603 419.956V417.928H173.141V432.767V442.979V447.606H180.589V445.606V442.979V432.767C180.589 429.53 182.693 426.779 185.611 425.75C186.396 425.472 187.224 425.32 188.093 425.32C188.332 425.32 188.556 425.333 188.781 425.361C188.879 425.375 188.991 425.389 189.089 425.403C189.202 425.417 189.3 425.431 189.412 425.445C189.552 425.472 189.707 425.5 189.847 425.542C189.875 425.542 189.889 425.556 189.917 425.556C190.141 425.611 190.366 425.681 190.576 425.764C191.334 426.042 191.979 426.389 192.456 426.737C192.638 426.862 192.821 427.001 193.003 427.154C193.143 427.265 193.283 427.39 193.41 427.515C193.41 427.515 193.41 427.515 193.424 427.529C193.536 427.64 193.606 427.709 193.606 427.709C193.606 427.709 198.347 432.642 202.471 437.033C204.253 438.922 205.908 440.715 207.03 441.965C210.593 445.939 214.184 447.62 218.224 447.62C219.079 447.62 219.907 447.537 220.706 447.37C226.542 446.217 230.946 441.118 230.946 435.004V418.414H223.484V434.99Z" fill="#4FB2F3"/>
<path d="M147.737 418.415C145.857 418.415 144.076 418.832 142.476 419.554V409.925C142.476 408.453 141.27 407.271 139.797 407.271H135V431.031V434.685V447.607H142.462V434.685V431.017C142.462 428.141 144.833 425.807 147.723 425.807C150.626 425.807 152.983 428.141 152.983 431.017V447.607H160.445V431.017C160.459 424.056 154.764 418.415 147.737 418.415Z" fill="#4FB2F3"/>
<path d="M170.517 417.928H163.055V447.606H170.517V417.928Z" fill="#4FB2F3"/>
</g>
<path d="M110.295 795H108.657V791.122L105.031 785.662H106.907L109.469 789.652L112.031 785.662H113.907L110.295 791.122V795ZM116.185 795.168C114.029 795.168 112.713 793.544 112.713 791.612C112.713 789.666 114.029 788.07 116.185 788.07C118.341 788.07 119.657 789.666 119.657 791.612C119.657 793.544 118.341 795.168 116.185 795.168ZM116.185 793.866C117.445 793.866 118.131 792.816 118.131 791.612C118.131 790.422 117.445 789.372 116.185 789.372C114.939 789.372 114.239 790.422 114.239 791.612C114.239 792.816 114.939 793.866 116.185 793.866ZM127.192 795H125.722V794.104C125.246 794.636 124.406 795.168 123.342 795.168C121.886 795.168 121.158 794.398 121.158 793.026V788.238H122.628V792.48C122.628 793.53 123.16 793.866 124 793.866C124.742 793.866 125.386 793.432 125.722 792.984V788.238H127.192V795ZM130.571 795H129.101V788.238H130.571V789.218C131.089 788.574 131.901 788.07 132.769 788.07V789.526C132.643 789.498 132.503 789.484 132.321 789.484C131.691 789.484 130.865 789.904 130.571 790.394V795ZM141.092 795H137.606V785.662H141.078C144.004 785.662 145.964 787.594 145.964 790.324C145.964 793.082 144.004 795 141.092 795ZM141.078 793.558C143.108 793.558 144.284 792.102 144.284 790.324C144.284 788.532 143.164 787.104 141.092 787.104H139.244V793.558H141.078ZM153.118 795H151.648V794.258C151.144 794.846 150.346 795.168 149.45 795.168C148.358 795.168 147.112 794.412 147.112 792.928C147.112 791.36 148.344 790.716 149.45 790.716C150.374 790.716 151.144 791.01 151.648 791.584V790.576C151.648 789.792 150.99 789.316 150.066 789.316C149.31 789.316 148.638 789.596 148.064 790.184L147.448 789.162C148.232 788.406 149.212 788.07 150.29 788.07C151.802 788.07 153.118 788.7 153.118 790.506V795ZM150.038 794.16C150.668 794.16 151.298 793.922 151.648 793.46V792.424C151.298 791.962 150.668 791.724 150.038 791.724C149.212 791.724 148.582 792.214 148.582 792.942C148.582 793.684 149.212 794.16 150.038 794.16ZM155.765 787.412C155.261 787.412 154.855 787.006 154.855 786.502C154.855 785.998 155.261 785.592 155.765 785.592C156.269 785.592 156.675 785.998 156.675 786.502C156.675 787.006 156.269 787.412 155.765 787.412ZM156.493 795H155.023V788.238H156.493V795ZM159.87 795H158.4V785.662H159.87V795ZM161.497 797.646L161.707 796.33C161.861 796.4 162.099 796.442 162.267 796.442C162.743 796.442 163.051 796.302 163.247 795.854L163.583 795.084L160.797 788.238H162.379L164.353 793.306L166.327 788.238H167.895L164.633 796.218C164.171 797.366 163.373 797.73 162.323 797.744C162.113 797.744 161.693 797.702 161.497 797.646ZM181.36 795H179.61L177.804 788.098L175.984 795H174.234L171.574 785.662H173.394L175.214 792.844L177.146 785.662H178.448L180.38 792.844L182.2 785.662H184.034L181.36 795ZM187.58 795.168C185.424 795.168 184.108 793.544 184.108 791.612C184.108 789.666 185.424 788.07 187.58 788.07C189.736 788.07 191.052 789.666 191.052 791.612C191.052 793.544 189.736 795.168 187.58 795.168ZM187.58 793.866C188.84 793.866 189.526 792.816 189.526 791.612C189.526 790.422 188.84 789.372 187.58 789.372C186.334 789.372 185.634 790.422 185.634 791.612C185.634 792.816 186.334 793.866 187.58 793.866ZM194.023 795H192.553V788.238H194.023V789.218C194.541 788.574 195.353 788.07 196.221 788.07V789.526C196.095 789.498 195.955 789.484 195.773 789.484C195.143 789.484 194.317 789.904 194.023 790.394V795ZM203.734 795H201.886L199.828 792.2L198.876 793.18V795H197.406V785.662H198.876V791.5L201.858 788.238H203.678L200.878 791.304L203.734 795ZM212.934 795.168C210.176 795.168 208.034 793.208 208.034 790.338C208.034 787.454 210.176 785.508 212.934 785.508C214.81 785.508 215.986 786.474 216.672 787.594L215.286 788.322C214.838 787.538 213.928 786.964 212.934 786.964C211.086 786.964 209.714 788.364 209.714 790.338C209.714 792.284 211.086 793.712 212.934 793.712C213.928 793.712 214.838 793.124 215.286 792.354L216.686 793.054C215.972 794.174 214.81 795.168 212.934 795.168ZM221.007 795.168C218.851 795.168 217.535 793.544 217.535 791.612C217.535 789.666 218.851 788.07 221.007 788.07C223.163 788.07 224.479 789.666 224.479 791.612C224.479 793.544 223.163 795.168 221.007 795.168ZM221.007 793.866C222.267 793.866 222.953 792.816 222.953 791.612C222.953 790.422 222.267 789.372 221.007 789.372C219.761 789.372 219.061 790.422 219.061 791.612C219.061 792.816 219.761 793.866 221.007 793.866ZM235.752 795H234.282V790.59C234.282 789.862 233.96 789.372 233.162 789.372C232.504 789.372 231.888 789.82 231.594 790.268V795H230.124V790.59C230.124 789.862 229.816 789.372 229.018 789.372C228.36 789.372 227.758 789.834 227.45 790.268V795H225.98V788.238H227.45V789.148C227.744 788.742 228.626 788.07 229.662 788.07C230.67 788.07 231.286 788.574 231.51 789.302C231.888 788.7 232.784 788.07 233.806 788.07C235.038 788.07 235.752 788.742 235.752 790.114V795ZM241.296 795.168C240.442 795.168 239.686 794.776 239.126 794.062V797.576H237.656V788.238H239.126V789.162C239.63 788.49 240.414 788.07 241.296 788.07C243.046 788.07 244.292 789.386 244.292 791.612C244.292 793.838 243.046 795.168 241.296 795.168ZM240.862 793.866C242.024 793.866 242.78 792.928 242.78 791.612C242.78 790.296 242.024 789.372 240.862 789.372C240.176 789.372 239.462 789.764 239.126 790.268V792.942C239.448 793.446 240.176 793.866 240.862 793.866ZM251.378 795H249.908V794.258C249.404 794.846 248.606 795.168 247.71 795.168C246.618 795.168 245.372 794.412 245.372 792.928C245.372 791.36 246.604 790.716 247.71 790.716C248.634 790.716 249.404 791.01 249.908 791.584V790.576C249.908 789.792 249.25 789.316 248.326 789.316C247.57 789.316 246.898 789.596 246.324 790.184L245.708 789.162C246.492 788.406 247.472 788.07 248.55 788.07C250.062 788.07 251.378 788.7 251.378 790.506V795ZM248.298 794.16C248.928 794.16 249.558 793.922 249.908 793.46V792.424C249.558 791.962 248.928 791.724 248.298 791.724C247.472 791.724 246.842 792.214 246.842 792.942C246.842 793.684 247.472 794.16 248.298 794.16ZM259.331 795H257.861V790.772C257.861 789.708 257.315 789.372 256.489 789.372C255.747 789.372 255.103 789.82 254.753 790.268V795H253.283V788.238H254.753V789.148C255.201 788.616 256.083 788.07 257.147 788.07C258.603 788.07 259.331 788.854 259.331 790.24V795ZM261.982 787.412C261.478 787.412 261.072 787.006 261.072 786.502C261.072 785.998 261.478 785.592 261.982 785.592C262.486 785.592 262.892 785.998 262.892 786.502C262.892 787.006 262.486 787.412 261.982 787.412ZM262.71 795H261.24V788.238H262.71V795ZM267.683 795.168C265.527 795.168 264.211 793.544 264.211 791.612C264.211 789.666 265.527 788.07 267.683 788.07C269.839 788.07 271.155 789.666 271.155 791.612C271.155 793.544 269.839 795.168 267.683 795.168ZM267.683 793.866C268.943 793.866 269.629 792.816 269.629 791.612C269.629 790.422 268.943 789.372 267.683 789.372C266.437 789.372 265.737 790.422 265.737 791.612C265.737 792.816 266.437 793.866 267.683 793.866ZM278.704 795H277.234V790.772C277.234 789.708 276.688 789.372 275.862 789.372C275.12 789.372 274.476 789.82 274.126 790.268V795H272.656V788.238H274.126V789.148C274.574 788.616 275.456 788.07 276.52 788.07C277.976 788.07 278.704 788.854 278.704 790.24V795ZM281.383 795.154C280.851 795.154 280.403 794.692 280.403 794.16C280.403 793.642 280.851 793.194 281.383 793.194C281.915 793.194 282.363 793.642 282.363 794.16C282.363 794.692 281.915 795.154 281.383 795.154ZM284.828 795.154C284.296 795.154 283.848 794.692 283.848 794.16C283.848 793.642 284.296 793.194 284.828 793.194C285.36 793.194 285.808 793.642 285.808 794.16C285.808 794.692 285.36 795.154 284.828 795.154ZM288.274 795.154C287.742 795.154 287.294 794.692 287.294 794.16C287.294 793.642 287.742 793.194 288.274 793.194C288.806 793.194 289.254 793.642 289.254 794.16C289.254 794.692 288.806 795.154 288.274 795.154Z" fill="#11293A"/>
</g>
<defs>
<linearGradient id="paint0_linear_2371_34606" x1="393" y1="-1.0174e-05" x2="-51.5" y2="957.5" gradientUnits="userSpaceOnUse">
<stop stop-color="#BDE4F9"/>
<stop offset="0.509615" stop-color="#F7F7F7"/>
<stop offset="0.971154" stop-color="#BDE4F9"/>
</linearGradient>
<clipPath id="clip0_2371_34606">
<rect width="393" height="852" fill="white"/>
</clipPath>
<clipPath id="clip1_2371_34606">
<rect width="123.999" height="43.2119" fill="white" transform="translate(135 404.395)"/>
</clipPath>
</defs>
</svg>
