<svg width="100" height="100" viewBox="0 0 100 100" fill="none" xmlns="http://www.w3.org/2000/svg">
<path fill-rule="evenodd" clip-rule="evenodd" d="M62.4495 2.45856L52.9 42.9991L74.8135 7.58C75.4925 6.48305 77.0165 6.30595 77.9285 7.21805L92.782 22.0714C93.694 22.9834 93.517 24.5077 92.42 25.1863L57.001 47.1002L97.5415 37.5505C98.797 37.2547 100 38.2073 100 39.4972V60.503C100 61.793 98.797 62.7455 97.5415 62.4495L57.001 52.9L92.42 74.814C93.517 75.4925 93.694 77.0165 92.782 77.929L77.9285 92.782C77.0165 93.694 75.4925 93.517 74.8135 92.42L52.9 57.001L62.4495 97.5415C62.7455 98.797 61.7925 100 60.503 100H39.4972C38.2072 100 37.2547 98.797 37.5504 97.5415L47.1002 57.001L25.1863 92.42C24.5077 93.517 22.9834 93.694 22.0713 92.782L7.21805 77.9285C6.30595 77.0165 6.48305 75.4925 7.58 74.8135L42.9987 52.9L2.45857 62.4495C1.20303 62.7455 0 61.793 0 60.503V39.4972C9.7457e-07 38.2073 1.20302 37.2547 2.45857 37.5505L42.999 47.1002L7.58 25.1864C6.48305 24.5077 6.30595 22.9834 7.21805 22.0714L22.0713 7.2181C22.9834 6.306 24.5077 6.4831 25.1863 7.58005L47.1002 42.9991L37.5504 2.45857C37.2547 1.20303 38.2072 1.94914e-06 39.4972 1.83637e-06L60.503 0C61.793 0 62.7455 1.20302 62.4495 2.45856ZM50 55.7145C53.156 55.7145 55.7145 53.156 55.7145 50C55.7145 46.8441 53.156 44.2857 50 44.2857C46.8441 44.2857 44.2857 46.8441 44.2857 50C44.2857 53.156 46.8441 55.7145 50 55.7145Z" fill="url(#paint0_linear_6337_61021)" fill-opacity="0.05"/>
<defs>
<linearGradient id="paint0_linear_6337_61021" x1="50" y1="0" x2="50" y2="78.2734" gradientUnits="userSpaceOnUse">
<stop stop-opacity="0"/>
<stop offset="1"/>
</linearGradient>
</defs>
</svg>
