<svg width="101" height="45" viewBox="0 0 101 45" fill="none" xmlns="http://www.w3.org/2000/svg">
<path fill-rule="evenodd" clip-rule="evenodd" d="M62.637 3.4195L53.0875 43.96L75.001 8.54094C75.68 7.44399 77.204 7.26689 78.116 8.17899L92.9695 23.0323C93.8815 23.9444 93.7045 25.4686 92.6075 26.1473L57.1885 48.0611L97.729 38.5114C98.9845 38.2157 100.188 39.1683 100.188 40.4582V61.4639C100.188 62.7539 98.9845 63.7064 97.729 63.4104L57.1885 53.8609L92.6075 75.7749C93.7045 76.4534 93.8815 77.9774 92.9695 78.8899L78.116 93.7429C77.204 94.6549 75.68 94.4779 75.001 93.3809L53.0875 57.9619L62.637 98.5024C62.933 99.7579 61.98 100.961 60.6905 100.961H39.6847C38.3947 100.961 37.4422 99.7579 37.7379 98.5024L47.2877 57.9619L25.3738 93.3809C24.6952 94.4779 23.1709 94.6549 22.2588 93.7429L7.40555 78.8894C6.49345 77.9774 6.67055 76.4534 7.7675 75.7744L43.1862 53.8609L2.64607 63.4104C1.39053 63.7064 0.1875 62.7539 0.1875 61.4639V40.4581C0.187501 39.1682 1.39052 38.2157 2.64607 38.5114L43.1865 48.0611L7.7675 26.1473C6.67055 25.4686 6.49345 23.9444 7.40555 23.0323L22.2588 8.17904C23.1709 7.26694 24.6952 7.44404 25.3738 8.54099L47.2877 43.9601L37.7379 3.41951C37.4422 2.16397 38.3947 0.960939 39.6847 0.960939L60.6905 0.960938C61.9805 0.960938 62.933 2.16396 62.637 3.4195ZM50.1875 56.6754C53.3435 56.6754 55.902 54.1169 55.902 50.9609C55.902 47.805 53.3435 45.2466 50.1875 45.2466C47.0316 45.2466 44.4732 47.805 44.4732 50.9609C44.4732 54.1169 47.0316 56.6754 50.1875 56.6754Z" fill="url(#paint0_linear_1397_214823)" fill-opacity="0.05"/>
<defs>
<linearGradient id="paint0_linear_1397_214823" x1="50.1875" y1="0.960938" x2="50.1875" y2="79.2344" gradientUnits="userSpaceOnUse">
<stop stop-opacity="0"/>
<stop offset="1"/>
</linearGradient>
</defs>
</svg>
