<svg width="157" height="121" viewBox="0 0 157 121" fill="none" xmlns="http://www.w3.org/2000/svg">
<ellipse cx="78.4102" cy="112.223" rx="78" ry="7.2" fill="#EEEEEE"/>
<ellipse cx="78.4115" cy="111.222" rx="17.3841" ry="1.60469" fill="url(#paint0_radial_1459_167961)" fill-opacity="0.25"/>
<path d="M78.2734 110.693C105.773 110.693 128.273 88.1934 128.273 60.6934C128.273 33.1934 105.773 10.6934 78.2734 10.6934C50.7734 10.6934 28.2734 33.1934 28.2734 60.6934C28.2734 88.1934 50.7734 110.693 78.2734 110.693Z" fill="#ECF9EF"/>
<path d="M78.2734 110.693C105.773 110.693 128.273 88.1934 128.273 60.6934C128.273 33.1934 105.773 10.6934 78.2734 10.6934C50.7734 10.6934 28.2734 33.1934 28.2734 60.6934C28.2734 88.1934 50.7734 110.693 78.2734 110.693Z" stroke="#3EBF5A" stroke-width="2" stroke-linecap="round" stroke-linejoin="round"/>
<path d="M71.265 81.6934L70.7832 80.8728C67.17 74.7166 57.5582 61.6385 57.4616 61.5071L57.1797 61.1241L60.7949 57.5519L71.1424 64.7773C77.6277 56.3959 83.6692 50.6276 87.6215 47.247C91.9875 43.5124 94.7519 41.8411 94.8669 41.7718L94.9976 41.6934H101.369L100.29 42.6544C86.6649 54.79 71.8836 80.6072 71.7358 80.8666L71.265 81.6934Z" fill="#3EBF5A"/>
<defs>
<radialGradient id="paint0_radial_1459_167961" cx="0" cy="0" r="1" gradientUnits="userSpaceOnUse" gradientTransform="translate(78.4115 111.222) scale(17.3841 1.60469)">
<stop stop-color="#111111"/>
<stop offset="1" stop-color="#111111" stop-opacity="0"/>
</radialGradient>
</defs>
</svg>
