<svg width="36" height="36" viewBox="0 0 36 36" fill="none" xmlns="http://www.w3.org/2000/svg">
<g clip-path="url(#clip0_3603_61159)">
<path d="M18 32C25.732 32 32 25.732 32 18C32 10.268 25.732 4 18 4C10.268 4 4 10.268 4 18C4 25.732 10.268 32 18 32Z" fill="#039BE5"/>
<path d="M10.4079 17.6959L23.9063 12.4914C24.5328 12.2651 25.0799 12.6443 24.8769 13.5916L24.8781 13.5904L22.5798 24.4183C22.4094 25.1859 21.9533 25.3726 21.3151 25.0109L17.8151 22.4314L16.1269 24.0578C15.9403 24.2444 15.7828 24.4019 15.4211 24.4019L15.6696 20.8401L22.1563 14.9799C22.4386 14.7314 22.0933 14.5914 21.7211 14.8388L13.7049 19.8858L10.2493 18.8078C9.4991 18.5698 9.48277 18.0576 10.4079 17.6959Z" fill="white"/>
</g>
<defs>
<clipPath id="clip0_3603_61159">
<rect width="36" height="36" rx="10" fill="white"/>
</clipPath>
</defs>
</svg>
