<svg width="111" height="81" viewBox="0 0 111 81" fill="none" xmlns="http://www.w3.org/2000/svg">
<ellipse cx="55.457" cy="76" rx="55" ry="5" fill="white" fill-opacity="0.2"/>
<path d="M56.4948 6.68701C57.4634 6.42764 58.4589 7.003 58.7184 7.97166L60.7129 15.4151C60.9074 16.1415 60.4765 16.8876 59.7503 17.0824L58.4269 17.437C57.7005 17.6316 56.9535 17.201 56.7587 16.4747L55.53 11.8894C55.4652 11.6473 55.2169 11.5034 54.9748 11.568L33.0166 17.4315C32.7743 17.4962 32.6307 17.7453 32.6955 17.9876L33.9252 22.5767C34.119 23.2999 33.6923 24.0444 32.9704 24.2429L31.6539 24.6047C30.9254 24.8051 30.173 24.3743 29.9772 23.6447L27.9843 16.2069C27.7247 15.2381 28.2999 14.2418 29.2687 13.9822L56.4948 6.68701Z" fill="#72C1F5" stroke="black" stroke-width="0.907988"/>
<rect x="9.09738" y="35.5595" width="78.314" height="44.2644" rx="8.51239" transform="rotate(-15 9.09738 35.5595)" fill="white" stroke="black" stroke-width="1.13499"/>
<path d="M21.0396 25.3093L69.2774 12.384C76.8458 10.3562 84.6255 14.8477 86.6535 22.4161C87.3835 25.1406 85.7664 27.9412 83.042 28.6714L17.2628 46.2968C14.5382 47.0268 11.7376 45.4099 11.0075 42.6854C8.97956 35.1169 13.4711 27.3372 21.0396 25.3093Z" fill="white" stroke="black" stroke-width="1.13499"/>
<line x1="10.8825" y1="37.499" x2="85.2874" y2="17.5622" stroke="black" stroke-width="0.907988"/>
<rect x="47.1158" y="34.9055" width="12.2578" height="7.7179" rx="3.85895" transform="rotate(-15 47.1158 34.9055)" fill="#4FB2F3" stroke="black" stroke-width="0.907988"/>
<g clip-path="url(#clip0_1310_134779)">
<path d="M69.7299 50.3101C69.9366 51.0816 69.4723 51.8771 68.6934 52.0858C67.9146 52.2945 67.1147 51.8378 66.908 51.0663L65.7166 46.6199L63.7148 47.1562L64.9062 51.6026C65.4066 53.4699 67.3406 54.5774 69.2295 54.0713C71.1145 53.5662 72.2405 51.6427 71.7391 49.7717L70.5477 45.3254L68.546 45.8617L69.7374 50.3081L69.7299 50.3101Z" fill="#162732"/>
<path d="M64.7018 45.6293C65.4205 45.4367 65.8527 44.7018 65.6609 43.9862C65.4702 43.2743 64.7312 42.8492 64.0088 43.0427C63.2901 43.2353 62.8579 43.9703 63.0497 44.6859C63.2414 45.4015 63.9794 45.8229 64.7018 45.6293Z" fill="#4FB2F3"/>
<path d="M68.9235 44.4986C69.6421 44.3061 70.0743 43.5711 69.8826 42.8555C69.6881 42.1446 68.9501 41.7232 68.2314 41.9158C67.5127 42.1083 67.0806 42.8433 67.2723 43.5589C67.4631 44.2708 68.2011 44.6922 68.9235 44.4986Z" fill="#4FB2F3"/>
<path d="M44.798 48.1941C44.0793 48.3867 43.6509 49.1207 43.8426 49.8363C44.0334 50.5481 44.7724 50.9733 45.4948 50.7797C46.2134 50.5871 46.6456 49.8522 46.4539 49.1366C46.2584 48.422 45.5204 48.0006 44.798 48.1941Z" fill="#4FB2F3"/>
<path d="M59.1418 52.6435C59.1914 52.6781 59.2362 52.71 59.2838 52.7372L58.1853 48.6375L56.1836 49.1738L56.7039 51.1156C57.7712 51.7125 58.56 52.2481 59.1418 52.6435Z" fill="#162732"/>
<path d="M62.203 52.3256C62.3458 52.8586 62.1686 53.4014 61.7886 53.7589C61.6181 53.9204 61.4083 54.0405 61.1675 54.1051C60.0387 54.4075 59.3966 53.501 56.9561 52.0538C56.7066 51.9049 56.4352 51.75 56.142 51.5888C55.4781 51.0677 54.8508 50.7284 54.2773 50.5146C53.5302 50.1795 52.6815 50.0674 51.8282 50.2241C51.7547 50.2358 51.6935 50.2482 51.6399 50.2586C51.5749 50.272 51.526 50.2851 51.4884 50.2952C51.2626 50.3557 51.0418 50.4348 50.8374 50.5295C50.3739 50.7416 49.9626 51.0276 49.6202 51.375L49.4744 50.8308L47.4727 51.3672L48.5392 55.3477L49.2732 58.0871L49.6058 59.3282L51.6037 58.7928L51.4599 58.2561L51.2712 57.5517L50.5372 54.8123C50.3045 53.9439 50.6711 53.0547 51.3799 52.5692C51.5706 52.4382 51.7816 52.3378 52.0149 52.2752C52.0788 52.2581 52.14 52.2457 52.2022 52.237C52.2296 52.2337 52.2607 52.2294 52.288 52.226C52.3191 52.2217 52.3465 52.2184 52.3776 52.214C52.4172 52.2114 52.4606 52.2078 52.5012 52.2089C52.5087 52.2068 52.5135 52.2096 52.521 52.2075C52.5852 52.2063 52.6504 52.2088 52.7128 52.2161C52.936 52.2362 53.134 52.283 53.2869 52.3419C53.3448 52.3623 53.4037 52.3865 53.4636 52.4144C53.5092 52.4341 53.5558 52.4575 53.5987 52.482C53.5987 52.482 53.5987 52.482 53.6035 52.4847C53.6415 52.5065 53.6654 52.5201 53.6654 52.5201C53.6654 52.5201 55.2916 53.5024 56.7134 54.3838C57.3271 54.7626 57.8999 55.1244 58.2908 55.3792C59.5321 56.189 60.6162 56.3819 61.6998 56.0916C61.9293 56.0301 62.1453 55.9482 62.3478 55.846C63.8302 55.1173 64.6451 53.4329 64.2057 51.793L63.0133 47.3429L61.0116 47.8792L62.203 52.3256Z" fill="#4FB2F3"/>
<path d="M40.6939 53.3237C40.1897 53.4588 39.7419 53.6986 39.3648 54.0073L38.6728 51.4245C38.5669 51.0294 38.1584 50.7993 37.7634 50.9052L36.4766 51.25L38.1843 57.6232L38.4469 58.6035L39.3757 62.0696L41.3774 61.5333L40.4486 58.0671L40.185 57.0832C39.9783 56.3117 40.4464 55.5151 41.2215 55.3075C42.0003 55.0988 42.8002 55.5555 43.0069 56.327L44.1993 60.7771L46.201 60.2408L45.0086 55.7907C44.5121 53.9224 42.579 52.8186 40.6939 53.3237Z" fill="#4FB2F3"/>
<path d="M46.7712 51.5554L44.7695 52.0918L46.9027 60.0528L48.9044 59.5164L46.7712 51.5554Z" fill="#4FB2F3"/>
</g>
<defs>
<clipPath id="clip0_1310_134779">
<rect width="34.4348" height="12" fill="white" transform="translate(36.2734 50.4785) rotate(-15)"/>
</clipPath>
</defs>
</svg>
