<svg width="57" height="57" viewBox="0 0 57 57" fill="none" xmlns="http://www.w3.org/2000/svg">
<path d="M49.6696 14.1435C41.7934 13.363 33.8699 12.9609 25.9701 12.9609C21.287 12.9609 16.6039 13.1975 11.9207 13.6705L7.0957 14.1435" stroke="#F34F4F" stroke-width="2" stroke-linecap="round" stroke-linejoin="round"/>
<path d="M20.1035 11.7552L20.6239 8.65673C21.0023 6.40977 21.2861 4.73047 25.2833 4.73047H31.4802C35.4774 4.73047 35.7849 6.50438 36.1397 8.68038L36.66 11.7552" stroke="#F34F4F" stroke-width="2" stroke-linecap="round" stroke-linejoin="round"/>
<path d="M44.5851 21.6172L43.0477 45.4349C42.7875 49.1483 42.5746 52.0338 35.9757 52.0338H20.791C14.1921 52.0338 13.9792 49.1483 13.719 45.4349L12.1816 21.6172" stroke="#F34F4F" stroke-width="2" stroke-linecap="round" stroke-linejoin="round"/>
<path d="M24.4336 39.0254H32.3098" stroke="#F34F4F" stroke-width="2" stroke-linecap="round" stroke-linejoin="round"/>
<path d="M22.4688 29.5645H34.2948" stroke="#F34F4F" stroke-width="2" stroke-linecap="round" stroke-linejoin="round"/>
</svg>
