<svg width="36" height="36" viewBox="0 0 36 36" fill="none" xmlns="http://www.w3.org/2000/svg">
<g clip-path="url(#clip0_3603_61147)">
<path d="M18 4C10.2683 4 4 10.2683 4 18C4 25.7317 10.2683 32 18 32C25.7317 32 32 25.7317 32 18C32 10.2683 25.7317 4 18 4Z" fill="black"/>
<path d="M19.5342 16.7323L25.5275 9.76562H24.1073L18.9033 15.8147L14.747 9.76562H9.95312L16.2383 18.9128L9.95312 26.2184H11.3734L16.8689 19.8304L21.2583 26.2184H26.0522L19.5339 16.7323H19.5342ZM11.8851 10.8348H14.0666L24.1079 25.1979H21.9264L11.8851 10.8348Z" fill="white"/>
</g>
<defs>
<clipPath id="clip0_3603_61147">
<rect width="28" height="28" fill="white" transform="translate(4 4)"/>
</clipPath>
</defs>
</svg>
