<svg width="36" height="36" viewBox="0 0 36 36" fill="none" xmlns="http://www.w3.org/2000/svg">
<path d="M29.6414 17.3109C29.2447 10.5442 23.0964 5.32922 16.0147 6.49589C11.1381 7.30089 7.22973 11.2559 6.4714 16.1325C6.02806 18.9559 6.61142 21.6275 7.88309 23.8325L6.84474 27.6942C6.6114 28.5692 7.41638 29.3625 8.27972 29.1175L12.0831 28.0675C13.8097 29.0825 15.8281 29.6659 17.9864 29.6659C24.5664 29.6659 30.0264 23.8675 29.6414 17.3109ZM23.6914 22.3392C23.5864 22.5492 23.458 22.7476 23.2947 22.9342C23.003 23.2492 22.688 23.4825 22.338 23.6225C21.988 23.7742 21.6031 23.8442 21.1947 23.8442C20.5997 23.8442 19.9581 23.7042 19.2931 23.4126C18.6164 23.1209 17.9514 22.7359 17.2864 22.2575C16.6098 21.7675 15.9797 21.2192 15.3731 20.6242C14.7664 20.0175 14.2297 19.3759 13.7397 18.7109C13.2614 18.0459 12.8764 17.3809 12.5964 16.7159C12.3164 16.0509 12.1764 15.4092 12.1764 14.8026C12.1764 14.4059 12.2464 14.0209 12.3864 13.6709C12.5264 13.3092 12.7481 12.9826 13.0631 12.6909C13.4364 12.3176 13.8447 12.1426 14.2764 12.1426C14.4397 12.1426 14.603 12.1775 14.7547 12.2475C14.9064 12.3175 15.0464 12.4225 15.1514 12.5742L16.5047 14.4875C16.6097 14.6392 16.6914 14.7675 16.738 14.8959C16.7964 15.0242 16.8197 15.1409 16.8197 15.2575C16.8197 15.3975 16.7731 15.5376 16.6914 15.6776C16.6097 15.8176 16.5047 15.9575 16.3647 16.0975L15.9214 16.5642C15.8514 16.6342 15.8281 16.7042 15.8281 16.7975C15.8281 16.8442 15.8397 16.8909 15.8514 16.9375C15.8747 16.9842 15.8864 17.0192 15.8981 17.0542C16.0031 17.2525 16.1897 17.4975 16.4464 17.8009C16.7147 18.1042 16.9948 18.4192 17.2981 18.7225C17.6131 19.0375 17.9164 19.3175 18.2314 19.5859C18.5347 19.8425 18.7914 20.0175 18.9897 20.1225C19.0247 20.1342 19.0597 20.1575 19.0947 20.1692C19.1414 20.1925 19.1881 20.1925 19.2464 20.1925C19.3514 20.1925 19.4214 20.1576 19.4914 20.0876L19.9347 19.6442C20.0864 19.4925 20.2264 19.3875 20.3548 19.3175C20.4948 19.2359 20.6231 19.1892 20.7747 19.1892C20.8914 19.1892 21.0081 19.2125 21.1364 19.2709C21.2647 19.3292 21.4047 19.3992 21.5447 19.5042L23.4814 20.8809C23.6331 20.9859 23.738 21.1142 23.808 21.2542C23.8664 21.4059 23.9014 21.5459 23.9014 21.7092C23.8314 21.9075 23.7847 22.1292 23.6914 22.3392Z" fill="#25D366"/>
</svg>
