<svg width="15" height="15" viewBox="0 0 15 15" fill="none" xmlns="http://www.w3.org/2000/svg">
<path fill-rule="evenodd" clip-rule="evenodd" d="M7.5 15C11.6421 15 15 11.6421 15 7.5C15 3.35786 11.6421 0 7.5 0C3.35786 0 0 3.35786 0 7.5C0 11.6421 3.35786 15 7.5 15ZM8.125 2.91667C8.125 2.57149 7.84518 2.29167 7.5 2.29167C7.15482 2.29167 6.875 2.57149 6.875 2.91667V7.24112L4.55806 9.55806C4.31398 9.80213 4.31398 10.1979 4.55806 10.4419C4.80214 10.686 5.19786 10.686 5.44194 10.4419L7.91753 7.96635C8.05037 7.83351 8.125 7.65334 8.125 7.46548V2.91667Z" fill="#4FB2F3"/>
</svg>
