<svg width="15" height="15" viewBox="0 0 15 15" fill="none" xmlns="http://www.w3.org/2000/svg">
<path fill-rule="evenodd" clip-rule="evenodd" d="M7.5 15C11.6421 15 15 11.6421 15 7.5C15 3.35786 11.6421 0 7.5 0C3.35786 0 0 3.35786 0 7.5C0 11.6421 3.35786 15 7.5 15ZM8.125 4.16667C8.125 3.82149 7.84518 3.54167 7.5 3.54167C7.15482 3.54167 6.875 3.82149 6.875 4.16667V6.875H4.16667C3.82149 6.875 3.54167 7.15482 3.54167 7.5C3.54167 7.84518 3.82149 8.125 4.16667 8.125H6.875V10.8333C6.875 11.1785 7.15482 11.4583 7.5 11.4583C7.84518 11.4583 8.125 11.1785 8.125 10.8333V8.125H10.8333C11.1785 8.125 11.4583 7.84518 11.4583 7.5C11.4583 7.15482 11.1785 6.875 10.8333 6.875H8.125V4.16667Z" fill="#4FB2F3"/>
</svg>
