<svg width="15" height="15" viewBox="0 0 15 15" fill="none" xmlns="http://www.w3.org/2000/svg">
<path fill-rule="evenodd" clip-rule="evenodd" d="M7.5 15C11.6421 15 15 11.6421 15 7.5C15 3.35786 11.6421 0 7.5 0C3.35786 0 0 3.35786 0 7.5C0 11.6421 3.35786 15 7.5 15ZM11.0875 5.62876C11.3197 5.37335 11.3008 4.97807 11.0454 4.74587C10.79 4.51368 10.3947 4.53251 10.1625 4.78792L6.46529 8.8549L4.84366 7.01705C4.61528 6.75822 4.22032 6.73353 3.96149 6.96191C3.70267 7.19029 3.67798 7.58525 3.90636 7.84407L5.86657 10.0656C6.17862 10.4193 6.72872 10.4234 7.04598 10.0744L11.0875 5.62876Z" fill="#4FB2F3"/>
</svg>
