<svg width="30" height="30" viewBox="0 0 30 30" fill="none" xmlns="http://www.w3.org/2000/svg">
<rect width="30" height="30" fill="white"/>
<g clip-path="url(#clip0_5489_68713)">
<path d="M26.9993 7.51758V22.4833L15.0469 30.0004V15.0691L26.9993 7.51758Z" fill="#994514"/>
<path d="M15.0476 15.0691V30.0004L3 22.4833V7.51758L15.0476 15.0691Z" fill="#803117"/>
<path d="M23.4789 18.6042C23.2569 19.1877 22.9399 20.2861 23.5106 20.9039C23.7325 21.1442 23.9861 21.2129 24.2715 21.2129C24.8738 21.2129 25.5079 20.801 25.7933 20.6637C26.2371 20.3891 26.6493 20.0801 27.0297 19.7712V19.5653C26.6176 19.9085 26.1737 20.2518 25.6981 20.5264C25.3177 20.7666 24.2081 21.4531 23.6374 20.801C23.1301 20.2518 23.4155 19.2563 23.6374 18.6728C24.2715 17.0252 25.5396 15.9268 27.0297 14.9657V14.7598C25.4762 15.7209 24.1446 16.8536 23.4789 18.6042Z" fill="#853B12"/>
<path d="M22.6873 16.8205C21.9264 18.1592 21.3557 19.3949 20.9752 20.5963C20.246 22.9304 19.7071 25.1615 19.2949 27.324L19.4851 27.221C19.8973 25.1272 20.4363 22.9304 21.1338 20.6649C21.5142 19.4636 22.0532 18.2279 22.8141 16.9235C23.4482 15.8251 24.2091 14.5551 25.2236 13.6283C25.7626 13.1134 26.3649 12.7015 26.999 12.3583V12.1523C26.3332 12.5299 25.6674 12.9761 25.0968 13.491C24.1139 14.4521 23.3213 15.7221 22.6873 16.8205Z" fill="#853B12"/>
<path d="M25.6048 21.7956C25.2244 21.9672 24.8439 22.0702 24.4635 22.1389C24.1464 22.2075 23.8611 22.2762 23.5441 22.3791C22.0857 22.9283 21.198 24.5759 20.9443 26.2922L21.1346 26.1892C21.4199 24.5759 22.2442 23.0656 23.6075 22.5508C23.8928 22.4478 24.2099 22.3791 24.4952 22.3105C24.8756 22.2418 25.2878 22.1389 25.7 21.9329C26.1755 21.6926 26.6194 21.418 27.0315 21.1434V20.9375C26.556 21.2464 26.0804 21.5553 25.6048 21.7956Z" fill="#853B12"/>
<path d="M24.9076 11.74C23.9565 12.4265 23.0371 13.0786 22.1177 13.6965C21.8006 13.9024 21.4836 14.1084 21.1666 14.3143C19.9618 15.1381 19.3911 16.8201 18.9156 18.502C18.6936 19.3601 18.5034 20.2182 18.3449 21.0764C18.1864 21.7972 18.0596 22.518 17.8693 23.2388L17.8376 23.3418C17.4255 24.9551 16.9816 26.637 16.7597 28.3532C16.728 28.5249 16.728 28.7308 16.6963 28.9368L16.8548 28.8338C16.8548 28.6965 16.8865 28.5249 16.9182 28.3876C17.1401 26.7056 17.584 25.0237 17.9962 23.4105L18.0279 23.3075C18.2181 22.5867 18.3766 21.8315 18.5034 21.1107C18.6619 20.2526 18.8522 19.3944 19.0741 18.5363C19.518 16.8887 20.0886 15.2411 21.23 14.4516C21.547 14.2457 21.8641 14.0397 22.1811 13.8338C23.1005 13.2159 24.0516 12.5981 24.9711 11.9116L25.0028 11.8773C25.732 11.3281 26.4294 10.8132 27.0001 10.1954V9.95508C26.3977 10.6416 25.6685 11.1565 24.9076 11.74Z" fill="#853B12"/>
<path d="M26.7763 16.5812C25.5399 17.7826 24.9375 18.6064 24.9375 19.0526C24.9375 19.1556 24.9692 19.2586 25.0643 19.3272C25.1277 19.3959 25.2228 19.4302 25.3497 19.4302C25.8252 19.4302 26.5227 19.0183 26.6812 18.9153C26.808 18.8467 26.9032 18.778 26.9983 18.6751V18.4348C26.8714 18.5378 26.7446 18.6751 26.6178 18.7437C26.174 19.0183 25.3814 19.3616 25.1594 19.1899C25.1277 19.1556 25.096 19.1213 25.096 19.0526C25.096 18.8124 25.318 18.2288 26.8715 16.6842L26.9349 16.6156C26.9666 16.5812 26.9666 16.5812 26.9983 16.5469V16.3066C26.9349 16.3753 26.8714 16.4096 26.8397 16.4783L26.7763 16.5812Z" fill="#853B12"/>
<path d="M17.9637 17.0938C18.2807 16.0983 18.6928 15.0686 19.2952 14.1761C19.6757 13.6269 20.1195 13.2837 20.5951 12.9061C20.7853 12.7688 21.0072 12.5972 21.1975 12.4256C21.673 12.0137 22.3705 10.6063 22.4022 10.5377L22.4656 10.4004L22.1486 10.6063H22.1803C21.9901 10.9839 21.4828 11.9793 21.1024 12.2883C20.9121 12.4599 20.6902 12.6315 20.5 12.7688C20.0244 13.1464 19.5489 13.524 19.1684 14.0732C18.5343 14.9999 18.1222 16.064 17.8051 17.0594C17.6466 17.5057 17.5198 17.9519 17.393 18.3981C17.1393 19.2562 16.854 20.1487 16.5053 21.0068C16.1882 21.7619 15.6175 22.3455 15.0469 22.8603C15.0469 22.8603 15.0469 22.8603 15.0469 22.826V23.0663L15.1103 23.032C15.7127 22.4828 16.315 21.8649 16.6638 21.0754C17.0125 20.2516 17.2979 19.3249 17.5515 18.4668C17.6783 17.9519 17.8051 17.5057 17.9637 17.0938Z" fill="#853B12"/>
<path d="M9.214 20.5953C9.1823 20.4237 9.1823 20.2864 9.15059 20.1147C9.05548 18.982 8.92867 17.815 8.35799 16.8195C7.81902 15.8928 7.05812 15.069 6.36063 14.2795C6.23382 14.1422 6.107 14.0049 5.98019 13.8676C5.12417 12.8722 4.04624 12.1513 3 11.4648V11.6708C4.01453 12.3573 5.02906 13.0781 5.88507 14.0049C6.01189 14.1422 6.13871 14.2795 6.26552 14.4168C6.96301 15.2063 7.69221 16.0301 8.23118 16.9225C8.80185 17.8836 8.89696 19.0163 9.02378 20.1491C9.02378 20.3207 9.05548 20.4923 9.08719 20.6296L9.11889 20.8699C9.24571 21.9339 9.34082 22.9294 9.214 23.9591C9.1506 24.6456 9.02378 25.3664 8.83355 26.1216L8.99207 26.2246C9.1823 25.4351 9.30912 24.7143 9.37252 23.9934C9.49934 22.9294 9.37252 21.9339 9.27741 20.8699L9.214 20.5953Z" fill="#692713"/>
<path d="M6.26455 16.7852C6.07433 16.7852 5.82069 16.8881 5.59876 17.403C5.02809 18.5014 4.83787 19.9087 4.67935 21.1101C4.64764 21.316 4.61594 21.5563 4.58423 21.7623C4.52083 22.2771 4.42571 22.792 4.3623 23.3412L4.52083 23.4442C4.58423 22.895 4.67935 22.3458 4.74275 21.7966C4.77446 21.5906 4.80616 21.3504 4.83787 21.1444C4.99639 19.8744 5.18661 18.5357 5.72558 17.4717C5.8841 17.1284 6.07433 16.9568 6.26455 16.9568C6.48648 16.9568 6.70841 17.2314 6.89863 17.6433C7.88146 19.9087 7.59612 22.6204 7.08886 25.0231L7.24738 25.1261C7.78635 22.689 8.07168 19.9087 7.05715 17.5746C6.83522 17.0941 6.54989 16.7852 6.26455 16.7852Z" fill="#692713"/>
<path d="M4.14135 15.1381C3.88771 14.4859 3.47556 13.9024 3 13.4219V13.6621C3.41215 14.1084 3.7609 14.6232 3.98283 15.2068C4.5535 16.6141 4.20476 18.1587 3.91942 19.6347C3.85601 19.875 3.82431 20.1152 3.7926 20.3212C3.63408 21.0763 3.41215 21.8315 3.19022 22.5866L3.31704 22.6896C3.53897 21.9345 3.7609 21.1793 3.91942 20.3898C3.95112 20.1496 4.01453 19.9436 4.04624 19.7033C4.39498 18.1587 4.71202 16.5798 4.14135 15.1381Z" fill="#692713"/>
<path d="M13.6511 20.216C12.8585 18.3967 12.6683 16.3029 12.6683 13.5913L12.5098 13.4883C12.5098 16.3029 12.7 18.4311 13.4926 20.2846C13.9364 21.3144 14.3486 22.1725 14.951 22.962L15.0144 23.0306V22.7903C14.4754 22.0009 14.095 21.1771 13.6511 20.216Z" fill="#692713"/>
<path d="M12.1319 20.8669C11.8782 20.0774 11.5929 19.2879 11.4344 18.4641C11.0856 16.5076 11.1808 14.5511 11.3076 12.7319L11.1491 12.6289V12.6632C10.9905 14.5168 10.9271 16.5076 11.2759 18.4985C11.4344 19.3566 11.7197 20.1461 11.9734 20.9355C12.1636 21.4847 12.3538 22.0339 12.5123 22.6175C12.9562 24.2994 12.9562 26.1529 12.9245 28.0408C12.9245 28.2468 12.9245 28.4527 12.9245 28.6587L13.083 28.7616C13.083 28.5214 13.083 28.2811 13.1147 28.0408C13.1464 26.1186 13.1464 24.2651 12.7026 22.5488C12.5123 21.9996 12.3221 21.4161 12.1319 20.8669Z" fill="#692713"/>
<path d="M10.3554 19.152C10.2602 18.8087 10.1968 18.4655 10.1017 18.1222C9.49934 15.5478 8.89696 12.8705 6.61427 11.3602C5.50462 10.6394 4.26816 10.1588 3 9.78125V9.95287C4.23646 10.3304 5.47292 10.7767 6.51916 11.4975C8.73844 12.9735 9.37252 15.6165 9.9432 18.1565C10.0066 18.4998 10.1017 18.843 10.1968 19.1863L10.3236 19.7355C10.7358 21.4174 11.148 23.1337 11.1797 24.8842C11.1797 25.7423 11.0528 26.5661 10.8626 27.3899L10.9894 27.4929C11.1797 26.6691 11.3065 25.811 11.3065 24.8842C11.3065 23.0993 10.8626 21.3831 10.4505 19.7012L10.3554 19.152Z" fill="#692713"/>
<path opacity="0.5" d="M15.0469 15.6869L26.9993 8.16975V7.51758L15.0469 15.0691V15.6869Z" fill="white"/>
<path opacity="0.3" d="M15.0476 15.0691L3 7.51758V8.16975L15.0476 15.6869V15.0691Z" fill="white"/>
<path d="M15.0469 30.0014L26.9993 22.4842V21.832L15.0469 29.3835V30.0014Z" fill="#692713"/>
<path d="M15.0476 29.3835L3 21.832V22.4842L15.0476 30.0014V29.3835Z" fill="#541F0F"/>
<path d="M27 7.51716L15.0476 15.0686L3 7.51716L14.9524 0L27 7.51716Z" fill="#B06118"/>
<path d="M8.29436 7.62201C8.83333 7.58768 9.75275 7.38173 9.91127 6.69523C9.97468 6.45496 9.91127 6.24901 9.75275 6.07739C9.30889 5.56251 7.94561 5.49386 5.66292 5.83711L5.28247 6.07739C8.45288 5.52819 9.3723 5.90576 9.62593 6.18036C9.72104 6.31766 9.78445 6.45496 9.72104 6.62658C9.59423 7.24443 8.64311 7.38173 8.23095 7.41606C7.37494 7.48471 6.45552 7.31308 5.59951 7.17578C5.40929 7.14146 5.25077 7.10713 5.06054 7.07281C4.68009 7.00416 4.29964 6.93551 3.91919 6.90118L3.69727 7.03848C4.17283 7.10713 4.61668 7.17578 5.06054 7.24443C5.21906 7.27876 5.40929 7.31308 5.59951 7.34741C6.32871 7.48471 7.0579 7.62201 7.8188 7.62201C7.97732 7.62201 8.13584 7.62201 8.29436 7.62201Z" fill="#994514"/>
<path d="M12.3222 10.5037C12.4173 9.85155 9.62734 8.65018 9.18348 8.51288H9.15178C8.96156 8.44423 8.32747 8.23828 7.85191 8.23828C7.53487 8.23828 7.34465 8.34126 7.28124 8.54721C7.12272 9.06208 8.01043 9.54263 8.80304 9.95453L8.92985 10.0232C9.65905 10.4008 10.5785 10.847 11.4028 10.847C11.9734 10.847 12.2905 10.744 12.3222 10.5037ZM8.83474 9.7829C7.7885 9.26803 7.31294 8.89046 7.40806 8.61586C7.43976 8.47856 7.59828 8.44423 7.85191 8.44423C8.29577 8.44423 8.89815 8.65018 9.08837 8.71883H9.12008C9.97609 8.99343 12.2271 10.1262 12.1637 10.5381C12.1637 10.5724 12.1003 10.7097 11.4028 10.7097C10.6102 10.7097 9.72245 10.2635 8.99326 9.88588L8.83474 9.7829Z" fill="#994514"/>
<path d="M17.9634 11.0861C16.6635 11.292 12.7956 12.9053 12.542 13.4545V13.4888L12.7005 13.5918C12.7005 13.5575 12.7005 13.5231 12.7005 13.5231C12.9858 13.1112 16.6001 11.498 17.9951 11.2577C19.3584 11.0174 20.7534 10.8115 22.18 10.6055L22.4971 10.3996V10.3652H22.3386C20.8485 10.6055 19.3901 10.8458 17.9634 11.0861Z" fill="#994514"/>
<path d="M16.9173 3.87907C17.2343 3.77609 17.5514 3.67312 17.8367 3.57014C18.2806 3.39852 18.7561 3.26122 19.2317 3.15824C19.4536 3.12392 19.6438 3.08959 19.8658 3.05527L19.6438 2.91797C19.4853 2.95229 19.3585 2.95229 19.2 2.98662C18.7244 3.08959 18.2488 3.26122 17.805 3.39852C17.5197 3.50149 17.2026 3.60447 16.8856 3.70744C13.8103 4.56557 10.6399 4.73719 7.46945 4.73719L7.21582 4.90882C7.43775 4.90882 7.69138 4.90882 7.91331 4.90882C10.9252 4.90882 13.9688 4.70287 16.9173 3.87907Z" fill="#994514"/>
<path d="M26.0479 6.93359C25.7308 7.07089 25.4455 7.20819 25.0967 7.27684L25.0333 7.31117C23.7969 7.68874 22.6238 8.03199 21.4191 8.47822C20.4362 8.85579 19.4534 9.23336 18.4706 9.57661C16.7903 10.1945 15.0465 10.8123 13.3662 11.5331C12.5419 11.8764 11.7493 12.2883 11.1469 12.5972L11.1152 12.6315L11.2738 12.7345C11.8761 12.4256 12.637 12.048 13.4296 11.7048C15.11 10.9839 16.822 10.3661 18.5023 9.74824C19.4534 9.40499 20.4679 9.02742 21.4508 8.64984C22.6555 8.20362 23.7969 7.86037 25.0333 7.48279L25.0967 7.44847C25.4772 7.34549 25.8259 7.17387 26.1747 7.03657L26.0479 6.93359Z" fill="#994514"/>
<path d="M12.0045 2.95249C12.6703 2.95249 13.3361 2.8152 14.0019 2.71222C14.1921 2.6779 14.3823 2.64357 14.5726 2.60925C14.7945 2.57492 15.0164 2.5406 15.2384 2.50627C15.9041 2.4033 16.5699 2.30032 17.204 2.06005C17.3942 1.9914 17.5845 1.88842 17.8064 1.81977L17.6162 1.7168C17.4576 1.78545 17.2991 1.8541 17.1406 1.92275C16.5065 2.16302 15.8407 2.266 15.2066 2.36897C14.9847 2.4033 14.7628 2.43762 14.5409 2.47195C14.3506 2.50627 14.1604 2.5406 13.9702 2.57492C13.3361 2.71222 12.6703 2.81519 12.0045 2.81519C11.529 2.81519 11.0534 2.81519 10.5779 2.81519L10.3242 2.98682C10.8315 2.98682 11.307 3.02114 11.8143 3.02114C11.8777 2.95249 11.9411 2.95249 12.0045 2.95249Z" fill="#994514"/>
<path d="M11.941 6.62623C11.4972 6.90083 10.6729 7.41571 10.6729 7.99923C10.7046 8.68573 11.624 8.75438 12.0678 8.82303H12.1312C12.5434 8.85736 12.9555 8.89168 13.3677 8.89168C15.9357 8.89168 18.5989 8.23951 21.0084 7.65598L21.1035 7.62166C22.4668 7.27841 23.8301 6.93516 25.1299 6.42028L24.9397 6.31731C23.6715 6.83218 22.34 7.14111 21.0401 7.48436L20.945 7.51868C18.1867 8.20518 15.0163 8.96033 12.1312 8.72006H12.0678C11.6557 8.68573 10.8314 8.61708 10.7997 8.06788C10.7997 7.58733 11.5923 7.07246 11.9727 6.83218L12.0678 6.76353C15.0797 4.90999 18.5038 4.46376 21.8961 4.42944L21.6425 4.25781C18.3769 4.32646 14.9212 4.80701 12.0044 6.62623H11.941Z" fill="#994514"/>
</g>
<defs>
<clipPath id="clip0_5489_68713">
<rect width="24" height="30" fill="white" transform="translate(3)"/>
</clipPath>
</defs>
</svg>
