<svg width="30" height="30" viewBox="0 0 30 30" fill="none" xmlns="http://www.w3.org/2000/svg">
<g clip-path="url(#clip0_5489_68758)">
<g clip-path="url(#clip1_5489_68758)">
<path d="M23.166 5.52344L25.6756 9.4048L26.6993 15.8302L24.2227 11.9489L23.166 5.52344Z" fill="#9943FF"/>
<path d="M12.2361 5.58781L10.7832 3.46774L17.6186 2L15.6373 4.87025L12.2361 5.58781Z" fill="#6D2AA4"/>
<path d="M8.60423 25.3864L11.0808 29.3004L5.53324 25.7778L3.05664 21.8965L8.60423 25.3864Z" fill="#431D6E"/>
<path d="M15.6367 4.87025L17.618 2L23.1656 5.52258L18.3775 6.59893L15.6367 4.87025Z" fill="#8735D2"/>
<path d="M5.53329 14.7521L2 15.4697L10.7837 3.4668L12.2366 5.58687L5.53329 14.7521Z" fill="#431D6E"/>
<path d="M15.4389 23.918L17.9155 27.8319L11.0801 29.2997L8.60352 25.3857L15.4389 23.918Z" fill="#662DA6"/>
<path d="M24.2222 11.9473L26.6988 15.8286L17.9151 27.8315L15.4385 23.9175L24.2222 11.9473Z" fill="#823AD7"/>
<path d="M18.3789 6.59978L23.167 5.52344L24.2237 11.9489L18.9072 9.7962L18.3789 6.59978Z" fill="#E993FF"/>
<path d="M6.02861 17.9484L3.05668 21.895L2 15.4695L5.53329 14.752L6.02861 17.9484Z" fill="#6D2AA4"/>
<path d="M8.80236 19.6798L8.60423 25.3877L3.05664 21.8978L6.02857 17.9512L8.80236 19.6798Z" fill="#7B35C5"/>
<path d="M18.9082 9.79492L24.2247 11.9476L15.441 23.9179L12.1719 18.9602L18.9082 9.79492Z" fill="#9943FF"/>
<path d="M18.3795 6.59781L15.6387 4.86914L12.2375 5.5867L5.53418 14.7519L6.0295 17.9484L8.8033 19.677L12.1715 18.9595L18.9078 9.79423L18.3795 6.59781Z" fill="#B959FF"/>
<path d="M12.1698 18.9609L15.4389 23.9186L8.60352 25.3864L8.80164 19.6785L12.1698 18.9609Z" fill="#823AD7"/>
</g>
</g>
<defs>
<clipPath id="clip0_5489_68758">
<rect width="26" height="26" fill="white" transform="translate(2 2)"/>
</clipPath>
<clipPath id="clip1_5489_68758">
<rect width="24.7" height="27.3" fill="white" transform="translate(2 2)"/>
</clipPath>
</defs>
</svg>
