<svg width="30" height="30" viewBox="0 0 30 30" fill="none" xmlns="http://www.w3.org/2000/svg">
<path d="M9.42156 17.084L13.3383 19.0845L9.91768 19.2532L6.00098 17.2527L9.42156 17.084Z" fill="url(#paint0_linear_5489_68634)"/>
<path opacity="0.7" d="M9.60434 17.1804L9.42156 17.084L6.00098 17.2527L6.18376 17.3491L9.60434 17.1804Z" fill="white"/>
<path d="M18.5861 1.92383L22.5028 3.92436L18.4294 13.3244L14.5127 11.2998L18.5861 1.92383Z" fill="url(#paint1_linear_5489_68634)"/>
<path opacity="0.7" d="M18.5861 1.92383L14.5127 11.2998L14.6955 11.3962L18.7688 2.02024L18.5861 1.92383Z" fill="white"/>
<path d="M19.1095 11.082L23.0001 13.1067L9.0305 28.0745L7.35938 27.2309L19.1095 11.082Z" fill="url(#paint2_linear_5489_68634)"/>
<path d="M19.1089 11.0829L7.35877 27.2317L9.42156 17.0845L6.00098 17.2532L7.46321 7.17823L18.5866 1.92383L14.5133 11.2998L19.1089 11.0829Z" fill="url(#paint3_linear_5489_68634)"/>
<path opacity="0.7" d="M19.1095 11.082L7.35938 27.2309L7.54215 27.3273H7.56827L19.2923 11.1784L19.1095 11.082Z" fill="white"/>
<path opacity="0.4" d="M18.5847 1.92383L10.3857 5.80437L16.3652 14.867L19.1069 11.0829L14.5113 11.2998L18.5847 1.92383Z" fill="url(#paint4_linear_5489_68634)"/>
<path opacity="0.4" d="M9.91768 23.7145L13.1555 19.2796L7.07154 10L6.00098 17.2549L9.42156 17.0862L8.50766 21.5693L9.91768 23.7145Z" fill="url(#paint5_linear_5489_68634)"/>
<defs>
<linearGradient id="paint0_linear_5489_68634" x1="-1.34881" y1="20.0821" x2="8.15831" y2="18.1488" gradientUnits="userSpaceOnUse">
<stop stop-color="#F8C316"/>
<stop offset="1" stop-color="#FF6F0F"/>
</linearGradient>
<linearGradient id="paint1_linear_5489_68634" x1="22.0098" y1="-0.038161" x2="17.7998" y2="10.7785" gradientUnits="userSpaceOnUse">
<stop stop-color="#F8C316"/>
<stop offset="1" stop-color="#FF6F0F"/>
</linearGradient>
<linearGradient id="paint2_linear_5489_68634" x1="26.5698" y1="6.14398" x2="13.6861" y2="22.449" gradientUnits="userSpaceOnUse">
<stop stop-color="#F8C316"/>
<stop offset="1" stop-color="#FF6F0F"/>
</linearGradient>
<linearGradient id="paint3_linear_5489_68634" x1="10.6285" y1="9.46144" x2="19.7719" y2="32.7661" gradientUnits="userSpaceOnUse">
<stop stop-color="#F8C316"/>
<stop offset="1" stop-color="#FF8E0F"/>
</linearGradient>
<linearGradient id="paint4_linear_5489_68634" x1="12.2148" y1="11.4252" x2="17.411" y2="5.66617" gradientUnits="userSpaceOnUse">
<stop stop-color="white"/>
<stop offset="1" stop-color="white" stop-opacity="0"/>
</linearGradient>
<linearGradient id="paint5_linear_5489_68634" x1="11.7189" y1="12.0991" x2="7.67216" y2="19.5728" gradientUnits="userSpaceOnUse">
<stop stop-color="white"/>
<stop offset="1" stop-color="white" stop-opacity="0"/>
</linearGradient>
</defs>
</svg>
