<svg width="26" height="26" viewBox="0 0 26 26" fill="none" xmlns="http://www.w3.org/2000/svg">
<g clip-path="url(#clip0_5489_68602)">
<path d="M1.28187 8.45737C1.32524 8.30737 1.43365 8.20022 1.6288 8.15737L7.00607 7.04308C7.43972 6.95737 7.87337 6.65737 8.13357 6.29308L11.7762 1.27879C11.863 1.17165 12.0147 1.02165 12.1882 1.04308C13.4675 1.06451 14.7251 1.10737 16.026 1.12879C16.1995 1.12879 16.3296 1.30022 16.3946 1.42879L19.1483 6.95737C19.3435 7.36451 19.7337 7.75022 20.1674 7.94308L25.6531 10.4288C25.7398 10.4717 25.8265 10.5359 25.8916 10.6002C25.9566 10.6645 25.9783 10.7502 26 10.8145C26 10.9002 26 10.9859 25.9783 11.0717C25.9566 11.1574 25.9133 11.2431 25.8265 11.3074L21.7285 15.8288C21.6635 15.9145 21.5984 16.0002 21.5334 16.1074C21.4683 16.2145 21.425 16.3217 21.3599 16.4502C21.3166 16.5788 21.2732 16.6859 21.2298 16.8145C21.2082 16.9431 21.1865 17.0502 21.1648 17.1574L20.7745 23.4145C20.7745 23.4788 20.7528 23.5431 20.7528 23.5859C20.7311 23.6288 20.7095 23.6931 20.6878 23.7145C20.6661 23.7574 20.6227 23.7788 20.601 23.8217C20.5577 23.8431 20.536 23.8645 20.4926 23.8859C19.5603 24.1645 18.6279 24.4216 17.6739 24.7002C17.4137 24.7859 17.1535 24.8502 16.8716 24.9359C16.8283 24.9574 16.4597 24.9359 16.4597 24.8502L11.1474 21.6788C10.7788 21.4645 10.2585 21.3574 9.82481 21.4431L4.42585 22.6431C4.03556 22.7288 3.81874 22.3645 3.8621 22.0217L4.51258 15.8074C4.55594 15.3359 4.46921 14.7788 4.2307 14.3502L1.30356 8.92879C1.23851 8.80022 1.21683 8.60737 1.28187 8.45737ZM17.1969 24.6145C17.1969 24.6359 17.1969 24.6359 17.1752 24.6574C17.1752 24.6359 17.1752 24.6359 17.1969 24.6145Z" fill="#1567A2"/>
<path opacity="0.9" d="M1.04302 8.45725C1.08639 8.30725 1.1948 8.20011 1.38994 8.15726L6.76722 7.04297C7.20087 6.95725 7.63452 6.63583 7.89471 6.29297L11.5374 1.23583C11.6241 1.12868 11.7759 0.978683 11.9494 1.00011C13.2286 1.04297 14.4862 1.0644 15.7872 1.10725C15.9606 1.10725 16.0907 1.27868 16.1558 1.40725C16.1558 1.40725 18.9095 6.95725 18.9095 6.97868C19.1046 7.38583 19.4949 7.77154 19.9285 7.9644L25.4142 10.4501C25.501 10.493 25.5877 10.5573 25.6527 10.6215C25.7178 10.6858 25.7395 10.7715 25.7611 10.8358C25.7828 10.9215 25.7828 11.0073 25.7395 11.093C25.7178 11.1787 25.6744 11.2644 25.5877 11.3501L21.4897 15.893C21.4246 15.9787 21.3596 16.0644 21.2945 16.1715C21.2295 16.2787 21.1861 16.3858 21.1211 16.5144C21.0777 16.643 21.0343 16.7501 20.991 16.8787C20.9693 17.0073 20.9476 17.1144 20.9259 17.2215L20.5356 23.5001C20.5356 23.5644 20.514 23.6287 20.514 23.6715C20.4923 23.7144 20.4706 23.7787 20.4489 23.8001C20.4272 23.843 20.3839 23.8644 20.3622 23.9073C20.3188 23.9287 20.2971 23.9501 20.2538 23.9715C19.3214 24.2501 18.3891 24.5073 17.435 24.7858C17.1749 24.8715 16.9147 24.9358 16.6328 25.0215C16.5894 25.043 16.2208 25.0215 16.2208 24.9358L10.9086 21.7644C10.54 21.5287 10.0196 21.443 9.58595 21.5287L4.187 22.7287C3.79671 22.8144 3.57988 22.4501 3.62325 22.1073L4.27373 15.8715C4.31709 15.4001 4.23036 14.843 3.99185 14.4144L1.0647 8.97154C0.999659 8.80011 0.977976 8.60725 1.04302 8.45725ZM16.958 24.6787C16.958 24.7001 16.958 24.7001 16.9363 24.7215C16.9363 24.7001 16.9363 24.7001 16.958 24.6787ZM16.893 24.8287C16.8713 24.8287 16.8713 24.8287 16.893 24.8287V24.8287Z" fill="url(#paint0_linear_5489_68602)"/>
<path d="M12.1669 1.02084C12.0152 0.999408 11.8634 1.08512 11.7333 1.23512L8.09061 6.29227C7.83042 6.63512 7.39677 6.95655 6.96312 7.04227L1.58584 8.15655C1.49911 8.17798 1.41238 8.22084 1.36902 8.26369C1.30397 8.30655 1.2606 8.37084 1.23892 8.45655C1.21724 8.52084 1.19556 8.60655 1.21724 8.69227C1.21724 8.77798 1.2606 8.86369 1.30397 8.97084L4.23112 14.4137C4.46962 14.8423 4.55635 15.378 4.51299 15.8708L3.86251 22.1066C3.86251 22.1923 3.86251 22.278 3.86251 22.3423C3.90588 22.5994 4.14439 22.7923 4.42626 22.728L9.82522 21.528C10.2589 21.4208 10.7793 21.528 11.1479 21.7637C11.343 21.8708 11.5381 21.9994 11.7333 22.1066C12.1886 22.3851 12.644 22.6423 13.0993 22.9208C13.6414 23.2423 14.1617 23.5637 14.7038 23.8851C15.1374 24.1423 15.5711 24.4208 16.0048 24.6566C16.2649 24.8066 16.5685 25.1066 16.8721 24.9566C17.0672 24.8494 17.1539 24.7637 17.1756 24.528L17.5659 17.928C17.5659 17.8208 17.5876 17.6923 17.6309 17.5637C17.6526 17.4351 17.696 17.3066 17.761 17.178C17.8044 17.0494 17.8695 16.9208 17.9345 16.8137C17.9995 16.7066 18.0646 16.5994 18.1296 16.5351C18.1296 16.5351 22.3577 11.778 22.3794 11.778C22.6613 11.478 22.5746 11.028 22.1843 10.8566C22.1843 10.8566 16.4818 8.24227 16.4601 8.24227C16.2433 8.13512 16.0481 7.98512 15.8747 7.81369C15.7879 7.72798 15.7012 7.62084 15.6145 7.51369C15.5277 7.40655 15.4627 7.29941 15.4193 7.21369C15.4193 7.21369 12.5572 1.38512 12.5572 1.36369C12.4488 1.14941 12.3187 1.04227 12.1669 1.02084Z" fill="white"/>
<path opacity="0.9" d="M11.9716 1.02084C11.8198 0.999408 11.6681 1.08512 11.538 1.23512L7.8953 6.29227C7.63511 6.63512 7.20146 6.95655 6.76781 7.04227L1.39053 8.15655C1.3038 8.17798 1.21707 8.22084 1.1737 8.26369C1.10866 8.30655 1.06529 8.37084 1.04361 8.45655C1.02193 8.52084 1.00024 8.60655 1.02193 8.69227C1.02193 8.77798 1.06529 8.86369 1.10866 8.97084L4.0358 14.4137C4.27431 14.8423 4.36104 15.378 4.31768 15.8708L3.6672 22.1066C3.6672 22.1923 3.6672 22.278 3.6672 22.3423C3.71057 22.5994 3.94907 22.7923 4.23095 22.728L9.62991 21.528C10.0636 21.4208 10.5839 21.528 10.9525 21.7637C11.1477 21.8708 11.3428 21.9994 11.538 22.1066C11.9933 22.3851 12.4486 22.6423 12.904 22.9208C13.446 23.2423 13.9664 23.5637 14.5085 23.8851C14.9421 24.1423 15.3758 24.4208 15.8094 24.6566C16.0696 24.8066 16.3732 25.1066 16.6767 24.9566C16.8719 24.8494 16.9586 24.7637 16.9803 24.528L17.3706 17.928C17.3706 17.8208 17.3923 17.6923 17.4356 17.5637C17.4573 17.4351 17.5007 17.3066 17.5657 17.178C17.6091 17.0494 17.6741 16.9208 17.7392 16.8137C17.8042 16.7066 17.8693 16.5994 17.9343 16.5351C17.9343 16.5351 22.1624 11.778 22.1841 11.778C22.466 11.478 22.3793 11.028 21.989 10.8566C21.989 10.8566 16.2865 8.24227 16.2648 8.24227C16.0479 8.13512 15.8528 7.98512 15.6793 7.81369C15.5926 7.72798 15.5059 7.62084 15.4192 7.51369C15.3324 7.40655 15.2674 7.29941 15.224 7.21369C15.224 7.21369 12.3619 1.38512 12.3619 1.36369C12.2752 1.14941 12.1234 1.04227 11.9716 1.02084Z" fill="url(#paint1_linear_5489_68602)"/>
<path d="M7.8951 6.29208C7.8951 6.29208 8.50221 5.45636 9.21773 4.44922L19.7988 14.4135C19.0399 15.2706 18.3244 16.0635 18.0425 16.3849L7.65659 6.57065C7.74332 6.48493 7.83005 6.37779 7.8951 6.29208Z" fill="url(#paint2_linear_5489_68602)"/>
<path d="M1.0002 8.69263C1.0002 8.60692 1.00021 8.52121 1.02189 8.45692C1.04357 8.39263 1.08694 8.32835 1.15198 8.26406C1.21703 8.22121 1.28208 8.17835 1.36881 8.15692L3.75389 7.66406L17.1104 22.2998C17.0453 23.5212 16.9803 24.5069 16.9803 24.5069C16.9586 24.7426 16.8718 24.8283 16.6767 24.9355C16.3731 25.0855 16.0696 24.7855 15.8094 24.6355C15.3757 24.3783 14.9421 24.1212 14.5084 23.8641C14.4 23.7998 14.2699 23.7141 14.1615 23.6498L1.52059 9.74263C1.2604 9.2712 1.10862 8.97121 1.10862 8.97121C1.04357 8.86406 1.02189 8.77835 1.0002 8.69263Z" fill="url(#paint3_linear_5489_68602)"/>
<path d="M15.3975 7.44935C13.4027 12.6136 9.19625 17.6494 3.9057 19.7494L4.31767 15.8494C4.36104 15.3779 4.2743 14.8208 4.0358 14.3922L1.10865 8.94935C1.06528 8.86364 1.02192 8.75649 1.02192 8.67078C1.02192 8.58507 1.02192 8.49935 1.0436 8.43507C1.06529 8.37078 1.10865 8.30649 1.1737 8.24221C1.23875 8.19935 1.30379 8.15649 1.39052 8.13507L6.7678 7.02078C7.20145 6.93507 7.6351 6.61364 7.89529 6.27078L11.538 1.21364C11.6464 1.06364 11.8198 0.977924 11.9716 0.999352C12.1234 1.02078 12.2752 1.1065 12.3619 1.29935L15.224 7.14935C15.2674 7.25649 15.3324 7.36364 15.3975 7.44935Z" fill="url(#paint4_linear_5489_68602)"/>
</g>
<defs>
<linearGradient id="paint0_linear_5489_68602" x1="25.7787" y1="13.0074" x2="1.02543" y2="13.0074" gradientUnits="userSpaceOnUse">
<stop stop-color="#3597DD"/>
<stop offset="1" stop-color="#158ADF"/>
</linearGradient>
<linearGradient id="paint1_linear_5489_68602" x1="22.3525" y1="13.0012" x2="1.03162" y2="13.0012" gradientUnits="userSpaceOnUse">
<stop stop-color="#24A4FF"/>
<stop offset="1" stop-color="#0087E9"/>
</linearGradient>
<linearGradient id="paint2_linear_5489_68602" x1="8.14709" y1="5.16305" x2="17.0578" y2="13.8674" gradientUnits="userSpaceOnUse">
<stop stop-color="white" stop-opacity="0.4"/>
<stop offset="1" stop-color="white" stop-opacity="0"/>
</linearGradient>
<linearGradient id="paint3_linear_5489_68602" x1="3.78627" y1="9.37561" x2="13.7867" y2="16.9473" gradientUnits="userSpaceOnUse">
<stop stop-color="white" stop-opacity="0.2"/>
<stop offset="1" stop-color="white" stop-opacity="0"/>
</linearGradient>
<linearGradient id="paint4_linear_5489_68602" x1="3.50815" y1="2.85028" x2="13.6155" y2="9.15433" gradientUnits="userSpaceOnUse">
<stop stop-color="white" stop-opacity="0.2"/>
<stop offset="1" stop-color="white" stop-opacity="0"/>
</linearGradient>
<clipPath id="clip0_5489_68602">
<rect width="25" height="24" fill="white" transform="matrix(-1 0 0 1 26 1)"/>
</clipPath>
</defs>
</svg>
