<svg width="92" height="115" viewBox="0 0 92 115" fill="none" xmlns="http://www.w3.org/2000/svg">
<g opacity="0.5">
<path d="M73.5625 64.3652L75.8525 80.4971L75.7441 80.582L63.0273 90.5479L47.9102 84.4639L46.0508 71.3604L45.6191 68.3301L58.4453 58.2812L73.5625 64.3652ZM63.4277 67.7266C59.7358 66.2408 55.5348 68.0297 54.0488 71.7236C53.4571 73.1846 53.3655 74.7974 53.7822 76.3115L53.8721 76.6123C54.4647 78.461 55.796 80.0562 57.6641 80.9355L58.0449 81.1025C61.7386 82.589 65.9387 80.7993 67.4248 77.1074C67.6013 76.6696 67.7336 76.2149 67.8203 75.751C68.4491 72.4377 66.6744 69.0339 63.4277 67.7266Z" fill="#C7CDE0" stroke="#80888D" stroke-width="0.59517"/>
<path d="M64.8036 68.8227C61.8358 68.6002 58.9403 70.2976 57.7679 73.2065C56.5932 76.129 57.5197 79.3739 59.8357 81.2674C59.2599 81.1912 58.6961 81.0425 58.1576 80.8249C54.6156 79.4004 52.9003 75.3752 54.3263 71.8341C55.7498 68.2921 59.7751 66.5768 63.3177 68.0012C63.8446 68.2135 64.3436 68.4893 64.8036 68.8227Z" fill="#848894"/>
<path d="M34.9482 17.1533L41.5654 28.6152L34.9482 40.0771H21.7119L15.0938 28.6152L17.7666 23.9844L19.291 21.3447L21.7119 17.1533H34.9482ZM28.3301 22.6768C25.0502 22.6768 22.3906 25.3363 22.3906 28.6162C22.3909 31.8959 25.0495 34.5537 28.3301 34.5537V34.5527C28.742 34.5532 29.1524 34.5117 29.5547 34.4268L29.9541 34.3281C32.4419 33.6229 34.2664 31.332 34.2666 28.6162C34.2666 25.8992 32.4416 23.607 29.9531 22.9043H29.9521C29.4364 22.7556 28.8923 22.6768 28.3301 22.6768Z" fill="#C7CDE0" stroke="#80888D" stroke-width="0.59517"/>
<path d="M29.8573 34.0481C29.3601 34.1886 28.8459 34.2596 28.3293 34.259C25.2128 34.259 22.6875 31.7338 22.6875 28.6182C22.6875 25.5026 25.2136 22.9766 28.3291 22.9766C28.8589 22.9766 29.3701 23.0502 29.8571 23.1881C27.4859 23.8556 25.7473 26.0322 25.7473 28.6182C25.7473 31.2042 27.4861 33.3808 29.8573 34.0481Z" fill="#848894"/>
<g clip-path="url(#clip0_6731_61121)">
<path d="M49.0977 25.6786L63.5459 33.6822L63.8854 33.8702L63.6063 34.1403L61.2243 36.4498L50.6624 55.5197L50.636 55.5659L50.5962 55.6007L48.5002 57.3667L48.3489 57.4945L48.1752 57.3991L37.1469 51.289L36.973 51.1926L37.001 50.9966L37.3875 48.2836L37.3947 48.2308L37.4201 48.1849L47.9836 29.1095L48.677 25.8695L48.7582 25.4905L49.0977 25.6786Z" fill="#848894" stroke="#5D6163" stroke-width="0.575389"/>
<path d="M49.1776 17.4807L52.5998 16.9331L52.691 16.9181L68.8303 25.8576L68.8659 25.9428L70.2185 29.136L70.2694 29.2565L70.2065 29.3701L66.8661 35.3979L66.7363 35.6323L66.5028 35.5022L45.75 24.0081L45.5159 23.8792L49.0485 17.5015L49.1776 17.4807Z" fill="#C7CDE0" stroke="#5D6163" stroke-width="0.535167"/>
<path d="M41.025 41.5139C41.3935 41.4856 41.7099 41.7563 41.7365 42.1164C41.7568 42.4016 41.9178 42.7391 42.1659 43.1026C42.4165 43.4697 42.7669 43.8782 43.1859 44.3093C44.0244 45.1719 45.1489 46.1333 46.3327 47.0422C47.5169 47.9514 48.7639 48.8105 49.8486 49.468C50.3907 49.7966 50.8937 50.0756 51.3289 50.2856C51.7621 50.4946 52.136 50.639 52.4171 50.6925C52.7778 50.7613 53.0087 51.105 52.937 51.4597C52.8859 51.7087 52.6979 51.8992 52.4638 51.9664C52.3623 51.9958 52.2549 52.0011 52.151 51.981L52.15 51.9813C51.8846 51.9307 51.5035 51.7894 51.0342 51.5701C50.5671 51.3518 50.0191 51.0591 49.4225 50.7089C48.2292 50.0087 46.844 49.0817 45.5218 48.0716C44.1994 47.0613 42.9431 45.9697 42.0046 44.9401C41.5353 44.4252 41.1469 43.9282 40.8703 43.4664C40.5929 43.0032 40.4322 42.583 40.4063 42.2219C40.3837 41.9058 40.5916 41.6235 40.8917 41.5379L41.025 41.5139ZM43.264 37.5457L43.2643 37.5466C43.6337 37.5182 43.9498 37.7891 43.9755 38.1482C43.9959 38.4334 44.1568 38.7709 44.4049 39.1344C44.6556 39.5015 45.0059 39.9101 45.425 40.3411C46.2635 41.2037 47.3879 42.1651 48.5718 43.074C49.7559 43.9832 51.0029 44.8423 52.0876 45.4998C52.6298 45.8284 53.1327 46.1074 53.5679 46.3174C54.0012 46.5264 54.3749 46.6708 54.6561 46.7243C55.0163 46.793 55.2477 47.1366 55.176 47.4915C55.1257 47.7398 54.9378 47.9306 54.7028 47.9982C54.6013 48.0275 54.494 48.0325 54.39 48.0128C54.1243 47.9622 53.7429 47.8221 53.2735 47.6029C52.8062 47.3845 52.2584 47.091 51.6615 46.7408C50.468 46.0404 49.0831 45.1135 47.7608 44.1034C46.4381 43.0928 45.1809 42.001 44.2424 40.9712C43.7732 40.4564 43.3855 39.959 43.109 39.4972C42.8318 39.0342 42.6711 38.6146 42.6453 38.2537C42.6195 37.8931 42.8934 37.577 43.264 37.5457ZM45.5033 33.5784L45.5036 33.5794C45.8716 33.5505 46.1883 33.8208 46.2147 34.1809C46.2352 34.466 46.396 34.803 46.6439 35.1662C46.8946 35.5333 47.2451 35.9428 47.6642 36.3739C48.5029 37.2364 49.628 38.1976 50.812 39.1065C51.9962 40.0156 53.2431 40.8747 54.3278 41.5323C54.87 41.8609 55.3729 42.1398 55.8082 42.3499C56.2414 42.559 56.6152 42.7032 56.8963 42.7568L56.8966 42.7578C57.2572 42.8264 57.4885 43.1701 57.4172 43.5237C57.3653 43.7734 57.1773 43.9645 56.9433 44.0316C56.8417 44.061 56.7346 44.0658 56.6305 44.0463C56.3649 43.9956 55.9831 43.8547 55.5137 43.6353C55.0466 43.417 54.4987 43.1243 53.902 42.7742C52.7085 42.0737 51.3234 41.1462 50.0011 40.1359C48.6783 39.1253 47.4214 38.0336 46.4826 37.0037C46.0132 36.4887 45.625 35.9919 45.3483 35.53C45.0708 35.0667 44.9104 34.6467 44.8843 34.2855C44.8589 33.9266 45.1311 33.6109 45.5033 33.5784ZM47.7417 29.6115L47.7426 29.6112C48.1106 29.5823 48.4283 29.8544 48.4538 30.2127C48.4743 30.4978 48.635 30.8348 48.8829 31.198C49.1336 31.5651 49.4842 31.9746 49.9033 32.4057C50.7417 33.2681 51.8661 34.2288 53.0498 35.1377C54.2338 36.0467 55.48 36.9062 56.5647 37.5637C57.107 37.8924 57.6109 38.1719 58.0462 38.382C58.4794 38.5909 58.8532 38.7354 59.1344 38.7889C59.4495 38.8492 59.6664 39.1198 59.6673 39.4243L59.6543 39.5561C59.6043 39.805 59.4147 39.9957 59.1801 40.0631C59.0786 40.0923 58.9714 40.0973 58.8673 40.0777C58.6018 40.027 58.2207 39.8857 57.7516 39.6665C57.2844 39.4481 56.7365 39.1555 56.1398 38.8053C54.9464 38.1049 53.5614 37.1781 52.2391 36.1679C50.9164 35.1574 49.6593 34.0656 48.7207 33.0358C48.2514 32.5209 47.8639 32.0235 47.5873 31.5618C47.3445 31.1564 47.1907 30.7847 47.1388 30.4561L47.1236 30.3182C47.0986 29.9571 47.3748 29.6395 47.7417 29.6115ZM52.9485 22.2532L52.9895 22.3004L53.0519 22.2947L53.0538 22.2942C53.0553 22.294 53.0576 22.2935 53.0606 22.2932C53.0669 22.2926 53.0767 22.2921 53.0894 22.291C53.115 22.2889 53.1532 22.286 53.2029 22.2828C53.3025 22.2766 53.4489 22.2697 53.6332 22.267C54.002 22.2616 54.5241 22.2732 55.1338 22.3412C56.355 22.4773 57.923 22.8386 59.3261 23.7365C60.7338 24.6374 61.891 25.9137 62.6976 26.9688C63.1004 27.4957 63.4143 27.9667 63.6278 28.305C63.7345 28.474 63.8166 28.61 63.8713 28.7035C63.8985 28.7501 63.9189 28.7866 63.9326 28.8109C63.9393 28.8228 63.9441 28.832 63.9475 28.8381C63.9492 28.8412 63.9507 28.8436 63.9515 28.8451L63.953 28.8467L63.9837 28.9039L64.048 28.9088L69.7994 29.3395L66.6018 35.1536L45.9488 23.6247L49.1522 17.7957L52.9485 22.2532Z" fill="#A6ABBA" stroke="#6A6B70" stroke-width="0.238068"/>
</g>
<g clip-path="url(#clip1_6731_61121)">
<path d="M12.6041 66.6455L23.9091 54.6037L24.1747 54.3207L24.3681 54.6576L26.0222 57.5335L41.9164 72.453L41.9547 72.4899L41.9787 72.537L43.1763 75.0024L43.263 75.1804L43.1279 75.3254L34.4978 84.5166L34.3617 84.6616L34.1786 84.5863L31.6435 83.5457L31.594 83.5258L31.5557 83.4898L15.6566 68.5676L12.6859 67.1001L12.3385 66.9284L12.6041 66.6455Z" fill="#848894" stroke="#5D6163" stroke-width="0.575389"/>
<path d="M4.6772 64.5538L4.9863 61.1019L4.99413 61.0098L17.6215 47.5584L17.7129 47.5447L21.1403 47.0173L21.2696 46.9975L21.3643 47.0864L26.3879 51.8041L26.5832 51.9875L26.3998 52.1818L10.1636 69.4787L9.98122 69.674L4.66569 64.6841L4.6772 64.5538Z" fill="#C7CDE0" stroke="#5D6163" stroke-width="0.535167"/>
<path d="M25.9744 78.3594C26.0374 77.9952 26.3775 77.755 26.7331 77.8176C27.0146 77.8679 27.3813 77.7946 27.7945 77.6434C28.2119 77.4905 28.694 77.2511 29.2147 76.9507C30.2567 76.3496 31.4647 75.4955 32.6364 74.5709C33.8084 73.6462 34.9473 72.6481 35.8509 71.758C36.3026 71.3131 36.6965 70.894 37.0068 70.5236C37.3158 70.155 37.5475 69.828 37.6684 69.5687C37.8236 69.2358 38.2134 69.0964 38.5397 69.2529C38.7685 69.3636 38.9071 69.5926 38.9148 69.8361C38.9184 69.9417 38.8971 70.047 38.8522 70.1429L38.8522 70.1439C38.738 70.3888 38.5075 70.7235 38.1797 71.1246C37.8535 71.5238 37.4352 71.9832 36.9493 72.4756C35.9775 73.4606 34.7389 74.5759 33.4352 75.6097C32.1312 76.6437 30.7647 77.5937 29.5362 78.2508C28.9219 78.5793 28.3447 78.8338 27.8292 78.9886C27.3121 79.1439 26.8653 79.1964 26.5089 79.1329C26.1969 79.0773 25.9743 78.8064 25.965 78.4945L25.9744 78.3594ZM22.6772 75.2149L22.6781 75.2149C22.7412 74.8498 23.0814 74.6098 23.4358 74.6731C23.7173 74.7233 24.084 74.6502 24.4972 74.4989C24.9146 74.346 25.3967 74.1066 25.9175 73.8062C26.9594 73.205 28.1674 72.351 29.3391 71.4264C30.5112 70.5017 31.65 69.5037 32.5537 68.6135C33.0053 68.1686 33.3992 67.7496 33.7096 67.3791C34.0185 67.0104 34.2503 66.6836 34.3712 66.4242C34.5262 66.0918 34.916 65.9518 35.2425 66.1084C35.4708 66.2182 35.6097 66.4472 35.6175 66.6916C35.621 66.7971 35.5995 66.9024 35.5549 66.9984C35.4407 67.2435 35.2112 67.5789 34.8834 67.9801C34.5571 68.3795 34.1381 68.8385 33.6521 69.3311C32.6802 70.3163 31.4418 71.4314 30.138 72.4652C28.8336 73.4994 27.4667 74.4502 26.238 75.1073C25.6238 75.4358 25.0464 75.6895 24.531 75.8442C24.0141 75.9992 23.5679 76.052 23.2116 75.9884C22.8557 75.925 22.6165 75.5818 22.6772 75.2149ZM19.3809 72.0704L19.3819 72.0703C19.4442 71.7065 19.7839 71.4658 20.1395 71.5286C20.4209 71.5787 20.7871 71.5056 21.2 71.3544C21.6174 71.2014 22.1004 70.9622 22.6212 70.6617C23.6632 70.0604 24.8711 69.2056 26.0428 68.2809C27.2148 67.3561 28.3537 66.3582 29.2573 65.468C29.709 65.0231 30.1028 64.604 30.4133 64.2336C30.7223 63.865 30.9539 63.538 31.0748 63.2787L31.0758 63.2786C31.2308 62.9459 31.6208 62.806 31.9461 62.9619C32.1754 63.0735 32.3145 63.3027 32.3222 63.546C32.3257 63.6517 32.3041 63.7567 32.2596 63.8529C32.1453 64.0979 31.915 64.4334 31.5871 64.8346C31.2608 65.2339 30.8426 65.6932 30.3567 66.1856C29.3847 67.1707 28.1456 68.2857 26.8417 69.3197C25.5373 70.3539 24.1705 71.3045 22.9417 71.9618C22.3273 72.2904 21.7503 72.5448 21.2347 72.6996C20.7175 72.855 20.2709 72.9073 19.9144 72.844C19.5602 72.7805 19.321 72.4392 19.3809 72.0704ZM16.0846 68.9268L16.0846 68.9258C16.147 68.562 16.4887 68.3208 16.8423 68.3841C17.1237 68.4342 17.4898 68.3611 17.9027 68.2099C18.3202 68.057 18.8032 67.8176 19.3239 67.5172C20.3658 66.916 21.5731 66.0618 22.7446 65.1374C23.9165 64.2128 25.0556 63.2156 25.9592 62.3255C26.411 61.8805 26.8056 61.4606 27.1161 61.0901C27.4249 60.7215 27.6568 60.3946 27.7776 60.1351C27.9134 59.8445 28.229 59.7006 28.5244 59.7745L28.6489 59.8194C28.8779 59.929 29.0163 60.1596 29.024 60.4035C29.0275 60.5091 29.006 60.6143 28.9614 60.7104C28.8471 60.9553 28.6166 61.2901 28.2889 61.6911C27.9626 62.0904 27.5444 62.5496 27.0585 63.0421C26.0867 64.0272 24.8482 65.1423 23.5444 66.1762C22.2402 67.2104 20.8732 68.1611 19.6445 68.8182C19.0302 69.1468 18.4529 69.4004 17.9374 69.5551C17.4849 69.691 17.0867 69.7489 16.7555 69.7185L16.6181 69.6994C16.2618 69.635 16.0218 69.2893 16.0846 68.9268ZM10.2295 62.0732L10.2853 62.045L10.295 61.9832L10.295 61.9812C10.2952 61.9797 10.2953 61.9773 10.2957 61.9744C10.2967 61.9681 10.2986 61.9585 10.3007 61.9459C10.3049 61.9206 10.3114 61.8828 10.3206 61.8339C10.339 61.7358 10.3683 61.5922 10.4109 61.4128C10.4961 61.054 10.6356 60.5508 10.8511 59.9763C11.2828 58.8259 12.0179 57.3945 13.2328 56.2547C14.4516 55.1112 15.9729 54.3027 17.1937 53.7797C17.8034 53.5186 18.337 53.3299 18.7173 53.2059C18.9074 53.144 19.0593 53.0978 19.1634 53.0678C19.2153 53.0528 19.2556 53.042 19.2825 53.0347C19.2957 53.0311 19.3058 53.0287 19.3126 53.0269C19.3159 53.026 19.3187 53.0251 19.3203 53.0247L19.3222 53.0237L19.3852 53.008L19.4058 52.9468L21.2349 47.4771L26.0864 52.0038L9.84098 69.1955L4.97653 64.6593L10.2295 62.0732Z" fill="#A6ABBA" stroke="#6A6B70" stroke-width="0.238068"/>
</g>
<g clip-path="url(#clip2_6731_61121)">
<path d="M55.4841 96.8287L49.5468 105.215L49.4071 105.412L49.2596 105.221L47.9948 103.591L36.8979 95.7368L36.8794 95.7092L35.9307 94.2933L35.8615 94.1902L35.9325 94.0899L40.4646 87.6879L40.5366 87.5874L40.6558 87.6185L42.3066 88.0425L42.3388 88.0508L42.3658 88.07L53.4365 95.904L55.3938 96.5559L55.6227 96.6316L55.4841 96.8287Z" fill="#848894" stroke="#5D6163" stroke-width="0.357947"/>
<path d="M60.5485 97.4372L60.6534 99.591L60.6564 99.649L60.6227 99.6953L54.0588 108.97L54.0261 109.017L53.9705 109.033L51.9035 109.651L51.8262 109.674L51.7597 109.627L48.2605 107.15L48.1252 107.054L48.2208 106.918L56.8426 94.7364L56.9788 94.832L60.479 97.3094L60.5446 97.3567L60.5485 97.4372Z" fill="#C7CDE0" stroke="#5D6163" stroke-width="0.332925"/>
<path d="M46.2443 90.7547C46.2365 90.9844 46.0475 91.1618 45.8231 91.1537C45.6454 91.1468 45.4258 91.2227 45.1842 91.3512C44.94 91.4811 44.6628 91.6704 44.3676 91.9001C43.7771 92.3596 43.1059 92.9889 42.4631 93.6586C41.82 94.3286 41.2037 95.0407 40.7231 95.6664C40.4827 95.9792 40.2758 96.2714 40.1162 96.5262C39.9574 96.7797 39.8419 97.0004 39.7895 97.1706C39.7309 97.3616 39.5493 97.4777 39.3612 97.4579L39.2798 97.4401C39.1295 97.3913 39.0245 97.2619 38.9989 97.1126C38.9877 97.0479 38.9917 96.9812 39.0112 96.9183C39.0606 96.7577 39.1742 96.5315 39.3418 96.2564C39.5088 95.9825 39.7275 95.6632 39.9848 95.3181C40.4993 94.6282 41.167 93.8356 41.8818 93.0873C42.5971 92.3385 43.3578 91.6357 44.0587 91.1257C44.4092 90.8707 44.7434 90.6649 45.0479 90.5255C45.3531 90.3857 45.6236 90.3154 45.8486 90.324C46.0456 90.3316 46.2054 90.4792 46.2378 90.6706L46.2443 90.7547ZM48.5447 92.41L48.5437 92.4101C48.5361 92.6406 48.3473 92.8176 48.1235 92.809C47.9458 92.8021 47.7264 92.8789 47.4848 93.0074C47.2407 93.1373 46.9641 93.3257 46.669 93.5552C46.0783 94.0147 45.4064 94.644 44.7635 95.3139C44.1203 95.9839 43.5043 96.6968 43.0236 97.3226C42.7835 97.6353 42.5762 97.9267 42.4166 98.1814C42.2579 98.4349 42.1434 98.6565 42.0911 98.8266C42.024 99.0447 41.795 99.165 41.5804 99.0963C41.4304 99.0482 41.3253 98.9187 41.2995 98.7689L41.2993 98.7679C41.2883 98.7035 41.2927 98.6373 41.3118 98.5746C41.3613 98.4137 41.4745 98.1869 41.6422 97.9117C41.8092 97.6377 42.0281 97.3194 42.2854 96.9744C42.8 96.2843 43.4673 95.4911 44.1822 94.7426C44.8974 93.9939 45.6583 93.2909 46.3591 92.7809C46.7096 92.526 47.0438 92.3201 47.3483 92.1807C47.6536 92.0409 47.924 91.9706 48.149 91.9793C48.3737 91.9879 48.5505 92.1787 48.5447 92.41ZM50.8443 94.0664C50.8369 94.2957 50.6482 94.4723 50.4239 94.4642C50.2463 94.4574 50.0267 94.5342 49.7852 94.6627C49.541 94.7926 49.2638 94.9819 48.9686 95.2116C48.3781 95.6711 47.7069 96.3003 47.064 96.9701C46.4209 97.6403 45.804 98.3532 45.3232 98.979C45.083 99.2918 44.876 99.5841 44.7164 99.8388C44.5577 100.092 44.443 100.313 44.3907 100.483C44.3237 100.701 44.0948 100.821 43.881 100.753C43.7301 100.703 43.6246 100.575 43.5991 100.425L43.5942 100.327C43.5962 100.295 43.6019 100.262 43.6114 100.231C43.6609 100.07 43.7741 99.8433 43.9418 99.5681C44.1088 99.2942 44.3277 98.9757 44.585 98.6308C45.0997 97.9407 45.7677 97.1474 46.4828 96.3988C47.1981 95.6501 47.9588 94.9472 48.6597 94.4372C49.0102 94.1822 49.3443 93.9765 49.6488 93.837C49.9541 93.6971 50.2244 93.6261 50.4494 93.6346C50.6452 93.6422 50.8045 93.789 50.8377 93.9813L50.8443 94.0664ZM53.1447 95.7216C53.1375 95.9512 52.9478 96.1292 52.7245 96.1205C52.5468 96.1136 52.3274 96.1904 52.0857 96.3189C51.8416 96.4488 51.5642 96.6372 51.269 96.8669C50.6784 97.3264 50.0073 97.9557 49.3644 98.6254C48.7214 99.2953 48.1051 100.007 47.6244 100.633C47.3842 100.946 47.1772 101.238 47.0176 101.493C46.8587 101.747 46.7434 101.968 46.6911 102.138C46.6323 102.329 46.4506 102.445 46.2625 102.425L46.1812 102.407C46.0308 102.359 45.9259 102.229 45.9003 102.079C45.8947 102.047 45.8935 102.015 45.8955 101.982L45.9126 101.885C45.9621 101.724 46.0756 101.498 46.2432 101.223C46.4101 100.949 46.6283 100.631 46.8854 100.286C47.4 99.5959 48.0682 98.8026 48.7832 98.0541C49.4985 97.3053 50.2592 96.6025 50.9601 96.0925C51.3106 95.8375 51.6448 95.6317 51.9492 95.4922C52.2545 95.3524 52.525 95.2822 52.75 95.2908C52.975 95.3001 53.1525 95.4929 53.1447 95.7216ZM57.3383 99.4437L57.3065 99.4659L57.3062 99.5046L57.3054 99.5058C57.3054 99.5067 57.3062 99.5086 57.3062 99.5106C57.3061 99.5145 57.3055 99.5208 57.3053 99.5286C57.3049 99.5445 57.304 99.5686 57.3026 99.5994C57.2996 99.6614 57.2937 99.7524 57.2829 99.8663C57.261 100.095 57.2181 100.416 57.1345 100.788C56.9669 101.534 56.6366 102.479 55.9855 103.285C55.3322 104.094 54.4636 104.722 53.7561 105.149C53.4029 105.362 53.0908 105.524 52.867 105.633C52.7552 105.687 52.6653 105.729 52.6037 105.756C52.573 105.77 52.5487 105.781 52.5328 105.787C52.5251 105.791 52.5191 105.793 52.5151 105.794C52.5131 105.795 52.5116 105.797 52.5106 105.797L52.5087 105.797L52.4717 105.813L52.4646 105.853L51.8056 109.377L48.4282 107.004L56.9691 95.0217L60.3544 97.4008L57.3383 99.4437Z" fill="#A6ABBA" stroke="#6A6B70" stroke-width="0.148101"/>
</g>
</g>
<defs>
<clipPath id="clip0_6731_61121">
<rect width="39.3486" height="39.3486" fill="white" transform="translate(28.4453 22.4453) rotate(-16.0181)"/>
</clipPath>
<clipPath id="clip1_6731_61121">
<rect width="39.3486" height="39.3486" fill="white" transform="translate(4.40234 85.875) rotate(-91.81)"/>
</clipPath>
<clipPath id="clip2_6731_61121">
<rect width="24.4786" height="24.4786" fill="white" transform="translate(58.8945 84.2812) rotate(80.2905)"/>
</clipPath>
</defs>
</svg>
