<svg width="86" height="115" viewBox="0 0 86 115" fill="none" xmlns="http://www.w3.org/2000/svg">
<path d="M39.3176 111.785C39.2496 111.842 39.193 111.91 39.125 111.978V111.898C39.1477 111.887 39.1703 111.876 39.193 111.853H39.2043C39.2383 111.83 39.2836 111.808 39.3176 111.785Z" fill="#D3DCFB"/>
<path d="M55.3145 78.4355C55.3031 76.6462 55.3027 74.8455 55.3027 73.0557V68.3701C56.9696 68.0205 58.6253 67.8789 60.2705 67.9453V81.8584C60.293 88.5811 60.292 95.315 60.292 102.038C54.4818 101.815 48.3632 104.236 42.915 108.478C41.798 109.343 40.7076 110.288 39.6523 111.306C40.7434 109.459 41.8878 107.733 43.0684 106.135C46.9599 100.874 51.2133 97.101 55.2363 95.6963L55.3145 95.6699V78.4355Z" fill="#E3CEB9" stroke="black" stroke-width="0.232"/>
<path d="M39.0227 111.968C39.0113 111.979 39.0113 111.979 39 111.979V111.945L39.0227 111.968Z" fill="#BEC8F7"/>
<path d="M55.0957 73.0576C55.09 73.9584 55.0869 74.8564 55.0869 75.7529L55.0957 78.4395V95.4971C51.0202 96.9455 46.7617 100.746 42.8955 105.987C41.6036 107.736 40.3562 109.648 39.1738 111.681V78.0234L39.2422 78.001V77.6875C41.6302 73.5593 44.2726 69.9524 46.9971 67.1406C49.6767 64.3751 52.4313 62.3853 55.0957 61.4199V73.0576Z" fill="white" stroke="black" stroke-width="0.232"/>
<path d="M60.5146 73.4639C61.6365 73.6374 62.7385 73.8614 63.8398 74.1543V107.913C56.849 106.056 49.4711 106.88 42.9297 109.777C41.9607 110.2 41.0122 110.678 40.0898 111.199C41.0451 110.294 42.0347 109.444 43.0469 108.662V108.661C48.5148 104.413 54.617 102.016 60.4043 102.274L60.5254 102.279V102.158C60.5254 95.3953 60.526 88.621 60.5146 81.8467V73.4639Z" fill="#E3CEB9" stroke="black" stroke-width="0.232"/>
<path d="M11.0986 78.6113H13.9268V111.509H33.1377L33.1729 111.491L35.0762 110.585L35.1748 110.538V110.131C36.4057 110.689 37.6068 111.315 38.7676 112.011V112.012L38.8457 112.063C38.854 112.072 38.8627 112.081 38.874 112.089L38.9277 112.143H39.083L39.1348 112.092L39.1602 112.066L39.2051 112.044L39.2188 112.029H39.2393L39.2861 111.995C39.3137 111.974 39.335 111.962 39.3555 111.95H39.3652L39.4062 111.926C40.5018 111.273 41.6369 110.679 42.8018 110.153V110.538L42.9014 110.585L44.8164 111.491L44.8516 111.509H64.0732V108.424L64.1299 108.48V78.6113H66.9014C67.3766 78.6114 67.7095 78.9321 67.7012 79.2832V113.906C67.7009 114.263 67.3732 114.581 66.8896 114.581H44.8223C44.2147 114.581 43.6168 114.441 43.084 114.19H43.085L39.0752 112.276L39 112.24L38.9248 112.276L34.915 114.19L34.9121 114.192C34.3954 114.451 33.7882 114.581 33.1777 114.581H11.0986C10.6251 114.581 10.2874 114.262 10.2871 113.906V79.2871C10.2871 78.9305 10.615 78.6114 11.0986 78.6113Z" fill="#CDA882" stroke="black" stroke-width="0.348"/>
<path d="M43.0352 109.924C49.5498 107.047 56.9028 106.237 63.8418 108.096V111.278H44.9033L43.0352 110.394V109.924ZM14.1592 108.107C21.1096 106.237 28.4515 107.036 34.9551 109.901V110.394L33.0977 111.278H14.1592V108.107Z" fill="#E5C29E" stroke="black" stroke-width="0.116"/>
<path d="M17.5977 73.4561C17.5872 75.1209 17.5879 76.7755 17.5879 78.4404V81.8506C17.5879 88.6246 17.5875 95.3872 17.5762 102.161V102.283L17.6973 102.277C23.4394 102.018 29.4966 104.383 34.9307 108.574L34.9316 108.575C36.0297 109.406 37.0897 110.32 38.1133 111.293C37.2785 110.822 36.4253 110.386 35.5566 109.984L35.0596 109.759C28.5468 106.881 21.1914 106.065 14.2061 107.914V74.1562C15.3199 73.8525 16.4537 73.6205 17.5977 73.4561Z" fill="#E3CEB9" stroke="black" stroke-width="0.232"/>
<path d="M17.8418 67.9482C24.9809 67.666 32.6044 71.4397 38.8838 77.7051V78L38.9404 78.0566V111.759C37.7002 110.543 36.4146 109.405 35.0947 108.39C29.658 104.205 23.5954 101.816 17.8193 102.04C17.8305 95.317 17.8301 88.5826 17.8301 81.8486V78.4395C17.8301 76.7288 17.8305 75.0294 17.8418 73.3193V67.9482Z" fill="#F4E2D1" stroke="black" stroke-width="0.232"/>
<path d="M35.5674 83.8181C35.3635 83.8181 35.1596 83.7502 34.9783 83.6142C30.8096 80.2838 26.3123 78.1201 21.9963 77.3611C21.4865 77.2705 21.1467 76.7834 21.2373 76.2736C21.3279 75.7638 21.815 75.424 22.3248 75.5146C26.958 76.3189 31.7385 78.6185 36.1564 82.1529C36.5642 82.4814 36.6322 83.0705 36.3037 83.4783C36.1111 83.6935 35.8392 83.8181 35.5674 83.8181ZM35.5674 91.7138C35.3635 91.7138 35.1596 91.6459 34.9783 91.5099C30.8096 88.1795 26.3123 86.0158 21.9963 85.2568C21.4865 85.1662 21.1467 84.6791 21.2373 84.1693C21.3279 83.6595 21.815 83.3197 22.3248 83.4103C26.958 84.2146 31.7385 86.5142 36.1564 90.0486C36.5642 90.3771 36.6322 90.9662 36.3037 91.374C36.1111 91.5892 35.8392 91.7138 35.5674 91.7138ZM35.5674 100.504C35.3635 100.504 35.1596 100.437 34.9783 100.301C30.8096 96.9701 26.3123 94.8064 21.9963 94.0474C21.4865 93.9568 21.1467 93.4697 21.2373 92.9599C21.3279 92.4502 21.815 92.1103 22.3248 92.201C26.958 93.0053 31.7385 95.3049 36.1564 98.8392C36.5642 99.1678 36.6322 99.7568 36.3037 100.165C36.1111 100.38 35.8392 100.504 35.5674 100.504Z" fill="#CDA882"/>
<path d="M39.3512 111.778L39 112.378L39.3512 111.778ZM39.6117 111.336L39.3625 111.744L39.6117 111.336Z" fill="black"/>
<path d="M61.4041 38.4995L57.2471 41.4996L62.1413 58.9785L66.4092 55.8915L65.603 53.4699L69.9967 50.296L71.9987 51.8515L76.4074 48.6686L61.4041 38.4995ZM64.3981 49.8434L62.6598 44.6285L62.7018 44.5956L67.0146 47.9583L64.3981 49.8434ZM1.87317 24.3084L2.20285 27.6441L0.749269 28.2345L1.07895 31.5942L11.2091 26.724L10.8944 23.5621L0 20.7329L0.326681 23.9847L1.87317 24.3084ZM7.53165 25.4862L7.53464 25.5132L4.39371 26.778L4.1989 24.7879L7.53165 25.4862ZM29.9558 17.0465C30.5222 17.3072 31.0976 17.463 31.6821 17.511C32.271 17.555 32.8625 17.4732 33.4174 17.2712C33.9868 17.0614 34.5113 16.6958 34.9968 16.1683C35.3475 15.7847 35.5992 15.3981 35.7641 15.0114C36.0746 14.3269 36.1382 13.5558 35.9439 12.8296C35.8495 12.5009 35.7178 12.1841 35.5513 11.8855C36.0959 12.0255 36.6644 12.0459 37.2177 11.9454C37.7392 11.8495 38.2397 11.5318 38.7192 11.0014C38.959 10.7376 39.1748 10.4109 39.3696 10.0243C39.5653 9.61098 39.6589 9.15665 39.6423 8.6996C39.6157 8.14466 39.4673 7.60236 39.2077 7.11115C38.923 6.54171 38.4435 5.94529 37.7511 5.3189L31.9908 0.0890065L22.4481 10.6087L28.4093 16.0245C28.8768 16.438 29.3923 16.7827 29.9558 17.0465ZM32.9588 5.53769L34.6672 7.09017C35.0028 7.39587 35.2216 7.68959 35.3265 7.9803C35.4284 8.27402 35.3625 8.54675 35.1197 8.81049C34.808 9.15815 34.4993 9.29902 34.1966 9.23907C33.8286 9.14631 33.4935 8.95334 33.2286 8.68162L31.5202 7.12614L32.9588 5.53769ZM29.74 9.08922L31.775 10.9354C32.5332 11.6158 32.6172 12.2781 32.0417 12.9165C31.8923 13.097 31.7009 13.238 31.4843 13.3271C31.3048 13.3912 31.1119 13.4087 30.9238 13.378C30.7302 13.3421 30.5452 13.2699 30.3783 13.1652C30.1929 13.0519 30.0192 12.9204 29.8598 12.7726L27.9597 11.0463L29.74 9.08922ZM18.9895 31.1807C19.418 31.81 19.9156 32.3285 20.47 32.7421C21.0065 33.1451 21.6223 33.4298 22.2768 33.5775C22.9313 33.7253 23.6097 33.7327 24.2673 33.5993C24.9566 33.4644 25.646 33.1617 26.3323 32.6912C26.9527 32.2656 27.4322 31.7891 27.7799 31.2526C28.1215 30.7161 28.3433 30.1676 28.4422 29.6042C28.5411 29.0407 28.5321 28.4983 28.4183 27.9558C28.3087 27.4387 28.1012 26.9473 27.8069 26.5082L25.2294 28.2645C25.3283 28.4893 25.4002 28.7111 25.4512 28.9328C25.5034 29.1383 25.5196 29.3512 25.4991 29.5622C25.4802 29.762 25.4156 29.9548 25.3103 30.1257C25.1829 30.325 25.0143 30.4946 24.8158 30.6232C24.5493 30.8164 24.2332 30.9298 23.9047 30.9499C23.6055 30.9538 23.3101 30.8838 23.0445 30.7461C22.7556 30.601 22.4924 30.4096 22.2653 30.1796C21.7739 29.6988 21.3827 29.1253 21.1144 28.4923C20.9846 28.1962 20.9017 27.8817 20.8686 27.5602C20.8407 27.2626 20.8839 26.9627 20.9945 26.685C21.1308 26.3863 21.3517 26.1342 21.6299 25.9597C21.8546 25.7921 22.121 25.6894 22.4001 25.663C22.6203 25.6467 22.8416 25.6701 23.0535 25.732C23.2333 25.7927 23.4007 25.885 23.548 26.0047C23.6829 26.1126 23.7908 26.2055 23.8567 26.2744L26.4072 24.5331C25.5591 23.5381 24.621 22.9657 23.581 22.8218C22.541 22.672 21.4411 22.9956 20.2572 23.7899C19.5979 24.2364 19.0794 24.7489 18.6957 25.3274C18.3181 25.8998 18.0694 26.5112 17.9585 27.1556C17.8476 27.8 17.8775 28.4683 18.0514 29.1546C18.2192 29.841 18.5339 30.5183 18.9895 31.1807ZM6.35979 42.3627C6.43472 42.2818 6.49166 42.2129 6.53662 42.1769L5.45168 40.5615C4.82229 41.089 4.45365 41.6734 4.35775 42.3268C4.26184 42.9801 4.45665 43.6785 4.95117 44.4307C5.23289 44.8473 5.55058 45.174 5.91323 45.4198C6.26127 45.6585 6.65637 45.82 7.07198 45.8934C7.4876 45.9668 7.91411 45.9504 8.32288 45.8453C9.22874 45.6103 10.0303 45.0798 10.6007 44.3378C10.8644 43.9842 11.0382 43.6065 11.1371 43.2019C11.23 42.8003 11.239 42.3897 11.1581 41.9521C11.0661 41.4799 10.8751 41.0325 10.5977 40.6394C10.3865 40.2929 10.1056 39.9941 9.7728 39.762C9.44002 39.5298 9.06262 39.3693 8.66454 39.2907C8.31964 39.2242 7.96484 39.2283 7.62156 39.3027C7.29384 39.3665 6.98209 39.4949 6.70445 39.6804L7.79839 41.3108C7.93925 41.2508 8.08311 41.2059 8.22097 41.1729C8.35884 41.1399 8.49371 41.1309 8.61959 41.1429C8.74556 41.1592 8.86636 41.2032 8.97324 41.2718C9.09926 41.3509 9.20581 41.4575 9.28493 41.5835C9.40426 41.7526 9.47288 41.9522 9.48274 42.1589C9.48322 42.3464 9.43905 42.5314 9.35387 42.6984C9.26093 42.8811 9.13839 43.0472 8.99122 43.1899C8.68421 43.4963 8.3209 43.7406 7.92127 43.9092C7.73365 43.9876 7.53588 44.0391 7.33384 44.0621C7.14692 44.0788 6.95875 44.05 6.78538 43.9782C6.59352 43.8938 6.43308 43.7512 6.32682 43.5706C6.22116 43.4293 6.15777 43.2609 6.144 43.085C6.13256 42.9461 6.1499 42.8063 6.19495 42.6744C6.23016 42.5612 6.28605 42.4556 6.35979 42.3627ZM51.208 49.8824C50.9719 49.5196 50.6676 49.206 50.3119 48.9593C49.9961 48.7541 49.6442 48.6107 49.2749 48.5367C48.9304 48.4682 48.5756 48.4702 48.2319 48.5427C47.9036 48.6077 47.5911 48.7359 47.3118 48.9203L48.3997 50.5507C48.5392 50.4927 48.6836 50.4475 48.8313 50.4159C48.9608 50.3851 49.0945 50.376 49.2269 50.3889C49.3523 50.4039 49.473 50.4458 49.5806 50.5118C49.7066 50.591 49.8131 50.6975 49.8923 50.8235C50.0272 51.0213 50.0871 51.2131 50.0931 51.3959C50.0926 51.585 50.0463 51.7711 49.9582 51.9384C49.8674 52.1207 49.7457 52.286 49.5986 52.4269C49.446 52.5823 49.2772 52.721 49.0951 52.8405C48.9122 52.9604 48.7264 53.0623 48.5286 53.1492C48.3415 53.2316 48.142 53.2822 47.9382 53.2991C47.7523 53.3161 47.565 53.2873 47.3927 53.2151C47.2008 53.1336 47.0408 52.9915 46.9372 52.8105C46.8339 52.6688 46.7698 52.5024 46.7514 52.328C46.7327 52.0675 46.8129 51.8096 46.9761 51.6057C47.0275 51.537 47.0857 51.4737 47.15 51.4169L46.068 49.8045C45.4356 50.332 45.073 50.9164 44.9771 51.5697C44.8782 52.2231 45.076 52.9244 45.5645 53.6707C45.8492 54.0903 46.1669 54.42 46.5296 54.6627C46.8758 54.9041 47.2704 55.0672 47.686 55.1407C48.1016 55.2142 48.5282 55.1963 48.9362 55.0883C49.3738 54.9864 49.7964 54.7886 50.222 54.5099C50.6206 54.2401 50.9503 53.9314 51.214 53.5808C51.4777 53.2271 51.6576 52.8495 51.7535 52.4419C51.8464 52.0403 51.8554 51.6297 51.7775 51.1921C51.6787 50.7214 51.4849 50.2757 51.208 49.8824ZM5.41871 9.64368C5.79987 10.0642 6.23883 10.4285 6.72244 10.7256C7.20259 11.0163 7.75573 11.164 8.31688 11.1512L8.34385 11.1812C8.10424 11.3705 7.9063 11.6072 7.76242 11.8765L10.253 14.6248C10.3378 14.2656 10.5121 13.9336 10.7595 13.6598C11.0113 13.366 11.272 13.1053 11.5357 12.8685L14.4309 10.2461C14.7696 9.94039 15.0843 9.6257 15.39 9.29002C15.6892 8.96545 15.8862 8.55997 15.9564 8.12416C16.0254 7.68059 15.9384 7.15611 15.6837 6.56269C15.4319 5.96327 14.9284 5.24098 14.1612 4.3988C13.7823 3.97563 13.3748 3.57907 12.9414 3.21196C12.5333 2.85826 12.0734 2.56919 11.5777 2.35479C11.1104 2.16229 10.6034 2.08618 10.1001 2.13301C9.58764 2.18396 9.07514 2.42672 8.56264 2.8583L10.8284 5.36086C10.9116 5.2901 11.0044 5.23156 11.1042 5.18703C11.2239 5.13525 11.3549 5.11463 11.4848 5.12709C11.6438 5.1435 11.7973 5.19465 11.9343 5.27694C12.1352 5.39226 12.3146 5.54129 12.4648 5.71751C12.6566 5.92731 12.7915 6.18206 12.8574 6.46079C12.9264 6.73052 12.8455 6.97628 12.6057 7.19207C12.3839 7.39887 12.1621 7.45581 11.9433 7.3719C11.7198 7.28494 11.509 7.16798 11.317 7.02424C11.0682 6.83842 10.7985 6.61364 10.5077 6.35889C10.217 6.10413 9.91132 5.85238 9.58764 5.60662C9.27066 5.36034 8.93721 5.13604 8.58961 4.93528C8.25594 4.74446 7.89362 4.60884 7.51666 4.53367C7.15083 4.46464 6.77429 4.47691 6.41374 4.56963C5.99601 4.68984 5.61487 4.91235 5.30482 5.217C4.96575 5.50681 4.69807 5.87089 4.52258 6.28096C4.37344 6.64213 4.31083 7.03317 4.33976 7.42285C4.36674 7.80947 4.47763 8.1871 4.66345 8.56173C4.85226 8.93337 5.10402 9.29902 5.41871 9.64368ZM7.89729 7.86641C8.13106 7.65062 8.36783 7.5757 8.61059 7.64463C8.84736 7.70457 9.14108 7.85742 9.48574 8.0912C9.69254 8.22906 9.91132 8.36992 10.1181 8.50179C10.3309 8.63966 10.5587 8.75355 10.7865 8.84046L10.1331 9.43089C9.74049 9.75157 9.36286 9.88644 8.99122 9.83849C8.61053 9.78372 8.26246 9.59319 8.01118 9.30201C7.80261 9.08954 7.67896 8.80812 7.66352 8.51079C7.65752 8.22906 7.73245 8.01627 7.89729 7.86641ZM51.0941 11.5498C51.0492 11.4809 51.0282 11.397 51.0012 11.3041C50.9765 11.1998 50.9817 11.0908 51.0162 10.9894C51.0526 10.8642 51.116 10.7486 51.202 10.6507C51.3262 10.5091 51.4743 10.3904 51.6396 10.3C51.8369 10.1762 52.0632 10.1059 52.2959 10.0962C52.5237 10.0902 52.7065 10.1921 52.8474 10.4109C52.9703 10.6267 52.9823 10.8155 52.8894 10.9774C52.7823 11.1394 52.6566 11.2883 52.5147 11.4209C52.3229 11.5918 52.0981 11.7746 51.8464 11.9664C51.5946 12.1582 51.3489 12.368 51.0971 12.5808C50.8557 12.7997 50.6266 13.0319 50.4108 13.2761C50.2004 13.5125 50.0321 13.7831 49.9133 14.0764C49.8019 14.3592 49.7538 14.663 49.7724 14.9665C49.8007 15.3198 49.916 15.6606 50.1081 15.9585C50.2898 16.2743 50.5396 16.5456 50.8394 16.7527C51.107 16.928 51.4117 17.0388 51.7295 17.0764C52.0516 17.1106 52.3773 17.0821 52.6886 16.9925C53.0182 16.9026 53.3539 16.7527 53.6686 16.5579C54.0882 16.3092 54.4448 16.0155 54.7416 15.6828C55.0511 15.3435 55.2561 14.922 55.332 14.469L55.359 14.454C55.4155 14.5626 55.4817 14.6659 55.5568 14.7627C55.6374 14.8605 55.7278 14.9498 55.8265 15.0294L58.419 13.4709C58.1437 13.343 57.9039 13.1495 57.7206 12.9075C57.5386 12.6697 57.3705 12.4215 57.2171 12.1642L55.5747 9.43089C55.3846 9.11397 55.1785 8.80687 54.9573 8.51079C54.7463 8.22093 54.4544 7.99988 54.1182 7.87541C53.6962 7.743 53.2456 7.73158 52.8174 7.84244C52.2959 7.95033 51.6456 8.24105 50.8484 8.72657C50.4498 8.96239 50.0683 9.22578 49.7065 9.5148C49.3579 9.79024 49.0528 10.1166 48.8014 10.4829C48.5763 10.8268 48.4356 11.2191 48.3908 11.6277C48.3621 12.1005 48.4804 12.5705 48.7294 12.9734L51.0941 11.5498ZM53.5038 12.6078C53.6452 12.4627 53.7708 12.303 53.8784 12.1312L54.247 12.7516C54.4448 13.1113 54.4928 13.438 54.3939 13.7287C54.2912 14.0242 54.086 14.273 53.8155 14.43C53.6123 14.5613 53.3688 14.6155 53.1291 14.5829C52.8984 14.5439 52.7365 14.445 52.6466 14.2921C52.5117 14.0704 52.4878 13.8666 52.5837 13.6837C52.7086 13.4479 52.8739 13.2359 53.0722 13.0573L53.5038 12.6078ZM19.8796 51.0932H19.9066C19.9935 51.2101 20.0894 51.324 20.2003 51.4409C20.3082 51.5608 20.443 51.6657 20.6049 51.7586C20.7667 51.8515 20.9645 51.9324 21.2013 51.9923C21.4381 52.0553 21.7228 52.0852 22.0645 52.0852C22.5438 52.0964 23.0172 51.9773 23.4341 51.7406C23.8177 51.5098 24.1354 51.2041 24.3962 50.8265C24.6509 50.4518 24.8398 50.0322 24.9716 49.5677C25.1005 49.1032 25.1604 48.6386 25.1604 48.1771C25.1604 47.7395 25.1125 47.2959 25.0196 46.8404C24.9287 46.401 24.7591 45.9816 24.5191 45.6026C24.276 45.2259 23.9447 44.9142 23.554 44.6945C23.0825 44.4433 22.5534 44.3203 22.0195 44.3378C21.616 44.3342 21.2171 44.4234 20.8536 44.5986C20.5151 44.7727 20.2224 45.0243 19.9995 45.3328H19.9695V41.7543H17.1672V51.9054H19.8796V51.0932ZM19.9335 47.5537C19.959 47.3496 20.0231 47.1523 20.1224 46.9722C20.2125 46.8048 20.3408 46.6611 20.497 46.5526C20.6824 46.4335 20.9002 46.3748 21.1204 46.3848C21.3248 46.3763 21.5274 46.4273 21.7034 46.5315C21.8795 46.6358 22.0216 46.7889 22.1124 46.9722C22.2105 47.1531 22.2754 47.35 22.3042 47.5537C22.3708 47.9887 22.3708 48.4313 22.3042 48.8664C22.274 49.0707 22.2092 49.2684 22.1124 49.4508C22.0235 49.6215 21.895 49.7684 21.7378 49.8794C21.5542 49.9977 21.3386 50.0564 21.1204 50.0472C20.9002 50.0572 20.6824 49.9986 20.497 49.8794C20.3382 49.7693 20.2086 49.6222 20.1194 49.4508C20.0231 49.2684 19.9593 49.0706 19.9305 48.8664C19.8603 48.4315 19.8614 47.9882 19.9335 47.5537ZM68.591 6.87438L67.8598 6.53871L67.8687 6.51473C68.0096 6.48177 68.1565 6.4428 68.3063 6.39185C68.4698 6.33767 68.6236 6.25774 68.7619 6.15508C68.935 6.02972 69.0894 5.88037 69.2204 5.71152C69.3763 5.5227 69.5231 5.27394 69.661 4.96225C69.8674 4.52945 69.9544 4.04931 69.9128 3.57161C69.8608 3.12692 69.7114 2.69918 69.4752 2.31883C69.2392 1.91836 68.9349 1.56232 68.576 1.26686C68.2151 0.964615 67.8136 0.714426 67.3832 0.523583C66.9751 0.335671 66.5481 0.191991 66.1095 0.0950006C65.6629 -0.009897 65.2103 -0.0248823 64.7788 0.0350592C64.3367 0.102486 63.9173 0.275172 63.556 0.538568C63.1307 0.864267 62.7988 1.2964 62.5939 1.79134C62.421 2.15605 62.3377 2.55681 62.3511 2.9602C62.3661 3.35582 62.471 3.71547 62.6628 4.04215L62.6508 4.06612L59.39 2.58557L58.2272 5.14507L67.4641 9.34697L68.591 6.87438ZM67.0086 5.47475C66.8414 5.57234 66.6534 5.62883 66.4601 5.63959C66.2531 5.64944 66.0459 5.6272 65.8457 5.57365C65.6356 5.5113 65.4294 5.43624 65.2283 5.34887C65.0299 5.25608 64.8386 5.1489 64.6559 5.02818C64.4821 4.92116 64.3305 4.78177 64.2093 4.61759C64.0947 4.46595 64.0176 4.28928 63.9845 4.10209C63.9518 3.88551 63.9886 3.66413 64.0894 3.46971C64.1636 3.27825 64.2928 3.1131 64.4609 2.99519C64.629 2.87727 64.8283 2.8119 65.0335 2.80735C65.2402 2.79225 65.448 2.81252 65.6479 2.86729C65.8547 2.93023 66.0645 3.00516 66.2623 3.09507C66.4601 3.18199 66.6489 3.28988 66.8318 3.41276C67.0084 3.522 67.162 3.6645 67.2843 3.83235C67.4172 3.98933 67.5004 4.18229 67.5234 4.38669C67.5463 4.59108 67.508 4.79769 67.4132 4.98023C67.3281 5.18021 67.1878 5.35177 67.0086 5.47475ZM51.253 32.2356C50.9124 32.0141 50.5241 31.8765 50.1201 31.834C49.7412 31.7956 49.3588 31.8534 49.0082 32.0019L48.9872 31.9869L50.8933 28.9508L48.5076 27.4583L43.1129 36.0509L45.4147 37.4925L45.8462 36.8062L45.8702 36.8181C45.8852 36.962 45.9032 37.1089 45.9332 37.2647C45.9685 37.4342 46.0281 37.5977 46.11 37.7502C46.1969 37.9151 46.3198 38.0859 46.4906 38.2687C46.6614 38.4486 46.8892 38.6254 47.1769 38.8082C47.5747 39.0742 48.0385 39.2246 48.5166 39.2428C48.9692 39.2518 49.4008 39.1679 49.8174 38.985C50.24 38.8022 50.6236 38.5475 50.9802 38.2268C51.3292 37.9115 51.6327 37.5494 51.8823 37.1508C52.1131 36.7822 52.3139 36.3776 52.4728 35.943C52.6316 35.5084 52.7125 35.0709 52.7065 34.6303C52.701 34.1817 52.5858 33.7413 52.3709 33.3475C52.0987 32.888 51.714 32.5053 51.253 32.2356ZM49.7814 35.1008C49.6917 35.3004 49.5886 35.4936 49.4727 35.6793C49.3528 35.8651 49.2239 36.0359 49.0801 36.2038C48.9467 36.3644 48.7852 36.4995 48.6035 36.6024C48.4348 36.699 48.2461 36.7554 48.0521 36.7672C47.8362 36.7649 47.6256 36.6992 47.4467 36.5784C47.258 36.469 47.1058 36.3063 47.0091 36.1108C46.9364 35.9324 46.9056 35.7396 46.9192 35.5474C46.9371 35.3402 46.9898 35.1376 47.075 34.948C47.159 34.7502 47.2639 34.5554 47.3837 34.3725C47.4946 34.1867 47.6265 34.0129 47.7764 33.8421C47.9091 33.6859 48.0672 33.5532 48.2439 33.4494C48.4113 33.3567 48.5981 33.3044 48.7894 33.2966C49.0071 33.296 49.2197 33.363 49.3978 33.4884C49.5873 33.594 49.74 33.7551 49.8354 33.95C49.9087 34.1252 49.9415 34.3147 49.9313 34.5044C49.9098 34.7093 49.8593 34.9101 49.7814 35.1008ZM74.9928 16.3391C75.5772 16.8936 76.2695 17.3132 77.0548 17.6159C77.843 17.9216 78.6912 18.0685 79.6023 18.0685C80.4055 18.0685 81.1638 17.9546 81.8861 17.7328C82.6024 17.511 83.2377 17.1783 83.7832 16.7467C84.3347 16.3092 84.7842 15.7787 85.1529 15.1463C85.5155 14.5139 85.7493 13.7886 85.8542 12.9644H81.4695C81.4324 13.4308 81.2355 13.8702 80.912 14.2082C80.7585 14.3774 80.5704 14.5115 80.3604 14.6015C80.1504 14.6915 79.9236 14.7352 79.6952 14.7297C79.3238 14.7507 78.9546 14.661 78.6342 14.472C78.3777 14.3039 78.17 14.0714 78.0318 13.7976C77.8916 13.498 77.7986 13.1786 77.7561 12.8505C77.6699 12.1278 77.6699 11.3974 77.7561 10.6747C77.807 10.321 77.9029 9.99733 78.0378 9.7216C78.1762 9.44559 78.3837 9.21016 78.6402 9.03827C78.9592 8.84255 79.3306 8.74945 79.7042 8.77153C80.1837 8.77153 80.5703 8.9004 80.8641 9.16415C81.1638 9.40991 81.3286 9.79353 81.3796 10.3H85.7403C85.682 9.5392 85.4623 8.7995 85.0959 8.13016C84.7604 7.53479 84.3041 7.01618 83.7562 6.60764C83.1837 6.20105 82.5433 5.89963 81.8651 5.71751C81.1296 5.5232 80.372 5.42547 79.6113 5.4268C78.7002 5.4268 77.849 5.58264 77.0578 5.87935C76.2896 6.16489 75.5879 6.60447 74.9958 7.17109C74.3963 7.7348 73.9216 8.41781 73.6021 9.17614C73.2544 9.99257 73.0799 10.8723 73.0896 11.7596C73.0896 12.7157 73.2635 13.5788 73.5962 14.3551C73.9378 15.1313 74.3994 15.7937 74.9928 16.3391Z" fill="#DFD1C1" fill-opacity="0.5"/>
</svg>
