<svg width="86" height="87" viewBox="0 0 86 87" fill="none" xmlns="http://www.w3.org/2000/svg">
<g opacity="0.6" clip-path="url(#clip0_6749_61029)">
<path d="M35.0406 79.4133C38.023 79.4133 40.4406 76.9956 40.4406 74.0133C40.4406 71.0309 38.023 68.6133 35.0406 68.6133C32.0583 68.6133 29.6406 71.0309 29.6406 74.0133C29.6406 76.9956 32.0583 79.4133 35.0406 79.4133Z" fill="white"/>
<path d="M67.732 79.4133C70.7144 79.4133 73.132 76.9956 73.132 74.0133C73.132 71.0309 70.7144 68.6133 67.732 68.6133C64.7497 68.6133 62.332 71.0309 62.332 74.0133C62.332 76.9956 64.7497 79.4133 67.732 79.4133Z" fill="white"/>
<path d="M46.1992 1.58984H68.4345V24.3034H46.1992V1.58984Z" fill="white"/>
<path d="M60.2342 24.302H80.352C82.7855 23.5357 84.3361 21.0685 83.8855 18.4864C83.4151 15.7899 80.9337 13.9501 78.2511 14.2358C77.4842 10.8193 74.1601 8.5731 70.6737 9.18139C67.375 9.75697 65.08 12.6876 65.2109 15.9443C64.8688 15.9409 64.5271 15.9686 64.19 16.027C61.1272 16.5614 59.0776 19.4774 59.6121 22.54C59.7195 23.158 59.9298 23.7536 60.2342 24.302Z" fill="white"/>
<path d="M36.6602 13.0245V8.32812H30.0955V13.0245C30.0955 15.0894 29.2345 17.0809 27.6696 18.428C25.8055 20.0326 24.625 22.4086 24.625 25.0613V52.2713H42.1308V25.0613C42.1308 22.4086 40.9503 20.0326 39.0862 18.428C37.521 17.0809 36.6602 15.0896 36.6602 13.0245Z" fill="white"/>
<path d="M37.6336 11.6743H29.1211V6.80605C29.1211 5.28436 30.3547 4.05078 31.8764 4.05078H34.8783C36.4 4.05078 37.6336 5.28436 37.6336 6.80605V11.6743Z" fill="white"/>
<path d="M39.755 41.061C42.3497 41.913 45.1437 40.5004 45.9957 37.9057L52.8678 16.977C53.7197 14.3823 52.307 11.5883 49.7125 10.7364C47.1178 9.88445 44.3237 11.2972 43.4718 13.8917L36.5997 34.8204C35.7478 37.4151 37.1603 40.2091 39.755 41.061Z" fill="white"/>
<path d="M18.8086 24.3047H83.9642L77.0238 57.8147H25.9714L18.8086 24.3047Z" fill="#93E3A4"/>
<path d="M68.4345 10.0107V1.58984H46.1992V10.9018" stroke="#93E3A4" stroke-width="1.26562" stroke-miterlimit="10" stroke-linejoin="round"/>
<path d="M80.3558 24.3009C82.7893 23.5346 84.3399 21.0675 83.8894 18.4853C83.4189 15.7888 80.9375 13.949 78.2549 14.2347C77.488 10.8183 74.164 8.57201 70.6775 9.1803C67.3789 9.75588 65.0839 12.6865 65.2147 15.9432C64.8726 15.9398 64.5309 15.9675 64.1938 16.0259C61.1311 16.5604 59.0814 19.4764 59.6159 22.539C59.7234 23.1568 59.9337 23.7524 60.238 24.3008M36.6637 11.6743V13.0207C36.6637 15.0855 37.5246 17.077 39.0895 18.4242C39.9293 19.147 40.6243 20.0225 41.1379 21.0042M30.099 11.6743V13.0207C30.099 15.0855 29.238 17.077 27.6731 18.4242C25.9883 19.8744 24.8651 21.9558 24.6641 24.3011M37.6374 11.6743H29.1249V6.80605C29.1249 5.28436 30.3585 4.05078 31.8802 4.05078H34.8821C36.4038 4.05078 37.6374 5.28436 37.6374 6.80605V11.6743Z" stroke="#93E3A4" stroke-width="1.26562" stroke-miterlimit="10" stroke-linejoin="round"/>
<path d="M50.4599 24.301L52.8648 16.977C53.7168 14.3823 52.3042 11.5883 49.7095 10.7364C47.1149 9.88445 44.3209 11.2972 43.4688 13.8917L40.0508 24.301" stroke="#93E3A4" stroke-width="1.26562" stroke-miterlimit="10" stroke-linejoin="round"/>
<path d="M35.0406 79.4133C38.023 79.4133 40.4406 76.9956 40.4406 74.0133C40.4406 71.0309 38.023 68.6133 35.0406 68.6133C32.0583 68.6133 29.6406 71.0309 29.6406 74.0133C29.6406 76.9956 32.0583 79.4133 35.0406 79.4133Z" stroke="#93E3A4" stroke-width="1.26562" stroke-miterlimit="10" stroke-linejoin="round"/>
<path d="M67.732 79.4133C70.7144 79.4133 73.132 76.9956 73.132 74.0133C73.132 71.0309 70.7144 68.6133 67.732 68.6133C64.7497 68.6133 62.332 71.0309 62.332 74.0133C62.332 76.9956 64.7497 79.4133 67.732 79.4133Z" stroke="#93E3A4" stroke-width="1.26562" stroke-miterlimit="10" stroke-linejoin="round"/>
<path d="M76.9765 68.6125H25.7945C22.8121 68.6125 20.3945 66.1949 20.3945 63.2125C20.3945 60.2301 22.8121 57.8125 25.7945 57.8125H26.4428" stroke="#93E3A4" stroke-width="1.26562" stroke-miterlimit="10" stroke-linecap="round" stroke-linejoin="round"/>
<path d="M35.0972 49.0882L31.6641 33.0273M71.1134 33.0273L67.787 49.0882M46.1286 49.0882L45.0202 33.0273M57.7575 33.0273L56.6834 49.0882" stroke="white" stroke-width="3.17647" stroke-miterlimit="10" stroke-linecap="round" stroke-linejoin="round"/>
<path d="M18.8086 24.3047H83.9642L77.0238 57.8147H25.9714" stroke="#93E3A4" stroke-width="1.26562" stroke-miterlimit="10" stroke-linejoin="round"/>
<path d="M6.14062 11.9062H16.2407L25.749 57.8151" stroke="#93E3A4" stroke-width="1.26562" stroke-miterlimit="10" stroke-linecap="round" stroke-linejoin="round"/>
</g>
<rect x="0.277832" y="41.0981" width="27.1318" height="44.8506" rx="3.59912" fill="#E2FDEC" stroke="#93E3A4" stroke-width="0.553711"/>
<path d="M26.4711 49.2981V76.2265C26.4711 76.7797 26.2253 77.2736 25.839 77.6065C25.5251 77.8799 25.1266 78.037 24.7106 78.0512C24.69 78.052 24.6686 78.052 24.6473 78.052H3.48871C3.46734 78.052 3.44597 78.052 3.4246 78.0503C2.44653 78.0166 1.66406 77.2136 1.66406 76.2265V49.2981C1.66406 48.3118 2.44653 47.508 3.4246 47.4743C3.44597 47.4727 3.46734 47.4727 3.48871 47.4727H24.6473C24.6686 47.4727 24.69 47.4727 24.7106 47.4743C25.6886 47.5072 26.4711 48.3118 26.4711 49.2981Z" fill="white"/>
<path d="M17.1124 45.8362H11.0275C10.8762 45.8362 10.7311 45.7761 10.6241 45.6691C10.5171 45.5622 10.457 45.4171 10.457 45.2658C10.457 45.1145 10.5171 44.9694 10.6241 44.8624C10.7311 44.7554 10.8762 44.6953 11.0275 44.6953H17.1124C17.2637 44.6953 17.4088 44.7554 17.5157 44.8624C17.6227 44.9694 17.6828 45.1145 17.6828 45.2658C17.6828 45.4171 17.6227 45.5622 17.5157 45.6691C17.4088 45.7761 17.2637 45.8362 17.1124 45.8362Z" fill="#93E3A4"/>
<path d="M14.0673 84.7439C15.0343 84.7439 15.8182 83.96 15.8182 82.9931C15.8182 82.0261 15.0343 81.2422 14.0673 81.2422C13.1003 81.2422 12.3164 82.0261 12.3164 82.9931C12.3164 83.96 13.1003 84.7439 14.0673 84.7439Z" fill="#93E3A4"/>
<path d="M16.3189 69.5581H20.1635C20.3044 69.5581 20.4396 69.5021 20.5392 69.4025C20.6388 69.3028 20.6948 69.1677 20.6948 69.0268V65.1822C20.6948 65.0413 20.6388 64.9062 20.5392 64.8065C20.4396 64.7069 20.3044 64.6509 20.1635 64.6509H16.3189C16.178 64.6509 16.0429 64.7069 15.9433 64.8065C15.8436 64.9062 15.7876 65.0413 15.7876 65.1822V69.0268C15.7876 69.1677 15.8436 69.3028 15.9433 69.4025C16.0429 69.5021 16.178 69.5581 16.3189 69.5581ZM16.8502 65.7135H19.6323V68.4955H16.8502V65.7135ZM12.3525 69.0268V65.1822C12.3525 65.0413 12.2965 64.9062 12.1969 64.8065C12.0972 64.7069 11.9621 64.6509 11.8212 64.6509H7.97659C7.83569 64.6509 7.70055 64.7069 7.60092 64.8065C7.50129 64.9062 7.44531 65.0413 7.44531 65.1822V69.0268C7.44531 69.1677 7.50129 69.3028 7.60092 69.4025C7.70055 69.5021 7.83569 69.5581 7.97659 69.5581H11.8212C11.9621 69.5581 12.0972 69.5021 12.1969 69.4025C12.2965 69.3028 12.3525 69.1677 12.3525 69.0268ZM8.5078 65.7135H11.2898V68.4955H8.5078V65.7135ZM20.1635 56.3086H16.3189C16.178 56.3086 16.0429 56.3646 15.9433 56.4642C15.8436 56.5638 15.7876 56.699 15.7876 56.8399V60.6845C15.7876 60.8254 15.8436 60.9605 15.9433 61.0601C16.0429 61.1598 16.178 61.2158 16.3189 61.2158H20.1635C20.3044 61.2158 20.4396 61.1598 20.5392 61.0601C20.6388 60.9605 20.6948 60.8254 20.6948 60.6845V56.8399C20.6948 56.699 20.6388 56.5638 20.5392 56.4642C20.4396 56.3646 20.3044 56.3086 20.1635 56.3086ZM19.6323 60.1532H16.8502V57.3711H19.6323V60.1532Z" fill="#93E3A4"/>
<path d="M18.577 57.8984H17.906C17.7651 57.8984 17.63 57.9544 17.5304 58.054C17.4307 58.1537 17.3747 58.2888 17.3747 58.4297V59.1007C17.3747 59.2416 17.4307 59.3767 17.5304 59.4764C17.63 59.576 17.7651 59.632 17.906 59.632H18.577C18.7179 59.632 18.853 59.576 18.9527 59.4764C19.0523 59.3767 19.1083 59.2416 19.1083 59.1007V58.4297C19.1083 58.2888 19.0523 58.1537 18.9527 58.054C18.853 57.9544 18.7179 57.8984 18.577 57.8984ZM17.906 67.9743H18.577C18.7179 67.9743 18.853 67.9183 18.9527 67.8187C19.0523 67.7191 19.1083 67.5839 19.1083 67.443V66.772C19.1083 66.6311 19.0523 66.496 18.9527 66.3964C18.853 66.2967 18.7179 66.2408 18.577 66.2408H17.906C17.7651 66.2408 17.63 66.2967 17.5304 66.3964C17.4307 66.496 17.3747 66.6311 17.3747 66.772V67.443C17.3747 67.5839 17.4307 67.7191 17.5304 67.8187C17.63 67.9183 17.7651 67.9743 17.906 67.9743ZM16.502 62.8849C16.502 62.744 16.446 62.6089 16.3464 62.5093C16.2467 62.4096 16.1116 62.3537 15.9707 62.3537H14.6016V60.9473C14.6016 60.8064 14.5456 60.6712 14.446 60.5716C14.3464 60.472 14.2112 60.416 14.0703 60.416C13.9294 60.416 13.7943 60.472 13.6947 60.5716C13.595 60.6712 13.5391 60.8064 13.5391 60.9473V69.0298C13.5391 69.1707 13.595 69.3059 13.6947 69.4055C13.7943 69.5051 13.9294 69.5611 14.0703 69.5611C14.2112 69.5611 14.3464 69.5051 14.446 69.4055C14.5456 69.3059 14.6016 69.1707 14.6016 69.0298V63.4162H15.9707C16.1116 63.4162 16.2467 63.3602 16.3464 63.2606C16.446 63.161 16.502 63.0258 16.502 62.8849ZM17.6222 63.4162H20.1638C20.3047 63.4162 20.4398 63.3602 20.5395 63.2606C20.6391 63.161 20.6951 63.0258 20.6951 62.8849C20.6951 62.744 20.6391 62.6089 20.5395 62.5093C20.4398 62.4096 20.3047 62.3537 20.1638 62.3537H17.6222C17.4813 62.3537 17.3462 62.4096 17.2466 62.5093C17.1469 62.6089 17.091 62.744 17.091 62.8849C17.091 63.0258 17.1469 63.161 17.2466 63.2606C17.3462 63.3602 17.4813 63.4162 17.6222 63.4162Z" fill="#93E3A4"/>
<path d="M11.9 63.4656C12.0409 63.4656 12.176 63.4096 12.2756 63.31C12.3753 63.2103 12.4312 63.0752 12.4312 62.9343V59.2305H14.4321C14.573 59.2305 14.7081 59.1745 14.8078 59.0749C14.9074 58.9753 14.9634 58.8401 14.9634 58.6992C14.9634 58.5583 14.9074 58.4232 14.8078 58.3236C14.7081 58.2239 14.573 58.168 14.4321 58.168H11.9C11.7591 58.168 11.6239 58.2239 11.5243 58.3236C11.4247 58.4232 11.3687 58.5583 11.3687 58.6992V62.9343C11.3687 63.0752 11.4247 63.2103 11.5243 63.31C11.6239 63.4096 11.7591 63.4656 11.9 63.4656ZM9.83018 58.168C9.68928 58.168 9.55415 58.2239 9.45451 58.3236C9.35488 58.4232 9.2989 58.5583 9.2989 58.6992V62.403H7.97659C7.83569 62.403 7.70055 62.459 7.60092 62.5586C7.50129 62.6583 7.44531 62.7934 7.44531 62.9343C7.44531 63.0752 7.50129 63.2103 7.60092 63.31C7.70055 63.4096 7.83569 63.4656 7.97659 63.4656H9.83018C9.97108 63.4656 10.1062 63.4096 10.2059 63.31C10.3055 63.2103 10.3615 63.0752 10.3615 62.9343V58.6992C10.3615 58.5583 10.3055 58.4232 10.2059 58.3236C10.1062 58.2239 9.97108 58.168 9.83018 58.168Z" fill="#93E3A4"/>
<path d="M8.50787 57.3715H14.3523C14.4932 57.3715 14.6283 57.3155 14.7279 57.2159C14.8276 57.1163 14.8835 56.9811 14.8835 56.8402C14.8835 56.6993 14.8276 56.5642 14.7279 56.4645C14.6283 56.3649 14.4932 56.3089 14.3523 56.3089H7.97659C7.83569 56.3089 7.70055 56.3649 7.60092 56.4645C7.50129 56.5642 7.44531 56.6993 7.44531 56.8402V61.4227C7.44531 61.5636 7.50129 61.6988 7.60092 61.7984C7.70055 61.898 7.83569 61.954 7.97659 61.954C8.11749 61.954 8.25263 61.898 8.35226 61.7984C8.45189 61.6988 8.50787 61.5636 8.50787 61.4227V57.3715ZM9.56348 67.9716H10.2344C10.3754 67.9716 10.5105 67.9156 10.6101 67.816C10.7098 67.7164 10.7657 67.5812 10.7657 67.4403V66.7694C10.7657 66.6285 10.7098 66.4933 10.6101 66.3937C10.5105 66.2941 10.3754 66.2381 10.2344 66.2381H9.56348C9.42258 66.2381 9.28744 66.2941 9.18781 66.3937C9.08818 66.4933 9.0322 66.6285 9.0322 66.7694V67.4403C9.0322 67.5812 9.08818 67.7164 9.18781 67.816C9.28744 67.9156 9.42258 67.9716 9.56348 67.9716ZM19.1523 54.3008H22.1714C22.3123 54.3008 22.4474 54.3568 22.5471 54.4564C22.6467 54.556 22.7027 54.6912 22.7027 54.8321V57.8518C22.7027 57.9927 22.6467 58.1279 22.5471 58.2275C22.4474 58.3271 22.3123 58.3831 22.1714 58.3831C22.0305 58.3831 21.8954 58.3271 21.7957 58.2275C21.6961 58.1279 21.6401 57.9927 21.6401 57.8518V55.3633H19.1523C19.0114 55.3633 18.8763 55.3074 18.7767 55.2077C18.677 55.1081 18.621 54.973 18.621 54.8321C18.621 54.6912 18.677 54.556 18.7767 54.4564C18.8763 54.3568 19.0114 54.3008 19.1523 54.3008Z" fill="#93E3A4"/>
<path d="M5.96878 54.3008H8.98785C9.12875 54.3008 9.26389 54.3568 9.36352 54.4564C9.46315 54.556 9.51913 54.6912 9.51913 54.8321C9.51913 54.973 9.46315 55.1081 9.36352 55.2077C9.26389 55.3074 9.12875 55.3633 8.98785 55.3633H6.50005V57.8518C6.50005 57.9927 6.44408 58.1279 6.34445 58.2275C6.24481 58.3271 6.10968 58.3831 5.96878 58.3831C5.82787 58.3831 5.69274 58.3271 5.59311 58.2275C5.49347 58.1279 5.4375 57.9927 5.4375 57.8518V54.8321C5.4375 54.6912 5.49347 54.556 5.59311 54.4564C5.69274 54.3568 5.82787 54.3008 5.96878 54.3008ZM22.1713 67.485C22.3122 67.485 22.4474 67.5409 22.547 67.6406C22.6466 67.7402 22.7026 67.8753 22.7026 68.0162V71.0353C22.7026 71.1762 22.6466 71.3113 22.547 71.411C22.4474 71.5106 22.3122 71.5666 22.1713 71.5666H19.1522C19.0113 71.5666 18.8762 71.5106 18.7766 71.411C18.6769 71.3113 18.621 71.1762 18.621 71.0353C18.621 70.8944 18.6769 70.7593 18.7766 70.6596C18.8762 70.56 19.0113 70.504 19.1522 70.504H21.64V68.0162C21.64 67.8753 21.696 67.7402 21.7957 67.6406C21.8953 67.5409 22.0304 67.485 22.1713 67.485ZM5.96878 67.485C6.10968 67.485 6.24481 67.5409 6.34445 67.6406C6.44408 67.7402 6.50005 67.8753 6.50005 68.0162V70.504H8.98785C9.12875 70.504 9.26389 70.56 9.36352 70.6596C9.46315 70.7593 9.51913 70.8944 9.51913 71.0353C9.51913 71.1762 9.46315 71.3113 9.36352 71.411C9.26389 71.5106 9.12875 71.5666 8.98785 71.5666H5.96878C5.82787 71.5666 5.69274 71.5106 5.59311 71.411C5.49347 71.3113 5.4375 71.1762 5.4375 71.0353V68.0162C5.4375 67.8753 5.49347 67.7402 5.59311 67.6406C5.69274 67.5409 5.82787 67.485 5.96878 67.485Z" fill="#93E3A4"/>
<defs>
<clipPath id="clip0_6749_61029">
<rect width="81" height="81" fill="white" transform="translate(4.55469)"/>
</clipPath>
</defs>
</svg>
