<svg width="67" height="70" viewBox="0 0 67 70" fill="none" xmlns="http://www.w3.org/2000/svg">
<path d="M6.97559 0.25H59.7305C60.9142 0.25 61.874 1.20985 61.874 2.39355V9.58691C61.874 10.7706 60.9142 11.7305 59.7305 11.7305H6.97559C5.79188 11.7305 4.83203 10.7706 4.83203 9.58691V2.39355C4.83203 1.28389 5.67519 0.370562 6.75586 0.260742L6.97559 0.25Z" fill="#A6A6A6" stroke="black" stroke-width="0.5"/>
<path d="M54.9404 6.23047V65.9014L50.2168 69.6875L44.6416 65.8174L44.4971 65.7168L44.3545 65.8193L38.9258 69.6924L33.498 65.8193L33.3525 65.7158L33.208 65.8193L27.7793 69.6924L22.3516 65.8193L22.208 65.7168L22.0635 65.8174L16.4883 69.6875L11.7656 65.9014V6.23047H54.9404Z" fill="white" stroke="black" stroke-width="0.5"/>
<path d="M47.084 43.6481H45.1697C44.7565 43.6481 44.4218 43.3134 44.4218 42.9002C44.4218 42.4871 44.7565 42.1524 45.1697 42.1524H47.084C47.4972 42.1524 47.8319 42.4871 47.8319 42.9002C47.8319 43.3134 47.4972 43.6481 47.084 43.6481ZM40.0573 43.6481H19.2361C18.823 43.6481 18.4883 43.3134 18.4883 42.9002C18.4883 42.4871 18.823 42.1524 19.2361 42.1524H40.0573C40.4704 42.1524 40.8051 42.4871 40.8051 42.9002C40.8051 43.3134 40.4704 43.6481 40.0573 43.6481ZM47.084 51.0551H19.2361C18.823 51.0551 18.4883 50.7204 18.4883 50.3072C18.4883 49.8941 18.823 49.5594 19.2361 49.5594H47.084C47.4972 49.5594 47.8319 49.8941 47.8319 50.3072C47.8319 50.7204 47.4972 51.0551 47.084 51.0551ZM47.084 58.4619H45.1697C44.7565 58.4619 44.4218 58.1272 44.4218 57.7141C44.4218 57.301 44.7565 56.9662 45.1697 56.9662H47.084C47.4972 56.9662 47.8319 57.301 47.8319 57.7141C47.8319 58.1272 47.4972 58.4619 47.084 58.4619ZM40.0573 58.4619H19.2361C18.823 58.4619 18.4883 58.1272 18.4883 57.7141C18.4883 57.301 18.823 56.9662 19.2361 56.9662H40.0573C40.4704 56.9662 40.8051 57.301 40.8051 57.7141C40.8051 58.1272 40.4704 58.4619 40.0573 58.4619ZM19.2361 12.7153H32.1858V21.2743H19.2361V12.7153ZM47.4722 14.109H38.5756C38.1625 14.109 37.8277 13.7743 37.8277 13.3611C37.8277 12.948 38.1625 12.6133 38.5756 12.6133H47.4722C47.6705 12.6133 47.8607 12.6921 48.001 12.8323C48.1412 12.9726 48.22 13.1628 48.22 13.3611C48.22 13.5595 48.1412 13.7497 48.001 13.89C47.8607 14.0302 47.6705 14.109 47.4722 14.109ZM47.4722 21.3761H38.5756C38.1625 21.3761 37.8277 21.0414 37.8277 20.6283C37.8277 20.2152 38.1625 19.8804 38.5756 19.8804H47.4722C47.6705 19.8804 47.8607 19.9592 48.001 20.0995C48.1412 20.2397 48.22 20.4299 48.22 20.6283C48.22 20.8266 48.1412 21.0169 48.001 21.1571C47.8607 21.2974 47.6705 21.3761 47.4722 21.3761ZM44.8584 30.5616V28.119C45.352 28.2201 45.8219 28.4379 46.2261 28.7543C46.3275 28.8255 46.446 28.8639 46.5701 28.8657C46.9552 28.8657 47.2719 28.5449 47.2761 28.1501C47.2772 27.9761 47.2095 27.8086 47.0876 27.6842C46.4624 27.1357 45.671 26.8002 44.8514 26.7349V25.9396C44.8514 25.6435 44.6167 25.4025 44.3398 25.4025C44.0419 25.3747 43.7708 25.6348 43.7723 25.9396V26.706C42.1573 26.8541 41.0364 27.9147 41.0364 29.3066C41.0364 30.9726 42.3231 31.4882 43.7723 31.8938V34.6959C43.1125 34.587 42.4955 34.2978 41.9896 33.8604C41.8707 33.7641 41.7229 33.7106 41.5699 33.7084C41.1927 33.7353 40.901 34.0599 40.9059 34.4461C40.9046 34.6195 40.9718 34.7863 41.0928 34.9105C41.8342 35.5944 42.7855 35.9969 43.7795 36.0489V36.7827C43.7761 37.0808 44.045 37.3418 44.3334 37.3207C44.623 37.3207 44.8584 37.0795 44.8584 36.7827V36.0316C46.9005 35.8612 47.6306 34.5056 47.6306 33.2821C47.6306 31.5072 46.2113 30.941 44.8584 30.5616ZM46.139 33.4453C46.139 33.9643 45.8002 34.5601 44.8584 34.7117V32.2244C45.636 32.4626 46.1453 32.7716 46.139 33.4453ZM43.7794 28.0586V30.275C43.0708 30.0561 42.5421 29.8227 42.5421 29.2178C42.5421 28.596 43.0245 28.148 43.7794 28.0586ZM35.135 36.2106H19.2361C18.823 36.2106 18.4883 35.8759 18.4883 35.4628C18.4883 35.0496 18.823 34.7149 19.2361 34.7149H35.135C35.5481 34.7149 35.8828 35.0496 35.8828 35.4628C35.8828 35.8759 35.5481 36.2106 35.135 36.2106ZM35.135 28.7933H19.2361C18.823 28.7933 18.4883 28.4586 18.4883 28.0454C18.4883 27.6323 18.823 27.2976 19.2361 27.2976H35.135C35.5481 27.2976 35.8828 27.6323 35.8828 28.0454C35.8828 28.4586 35.5481 28.7933 35.135 28.7933Z" fill="#DBDBDB"/>
<path d="M56.4717 37.2891C61.9881 37.2891 66.46 41.7533 66.46 47.2588C66.4597 52.764 61.988 57.2275 56.4717 57.2275C50.9555 57.2274 46.4846 52.7639 46.4844 47.2588C46.4844 41.7535 50.9554 37.2892 56.4717 37.2891Z" fill="#808080" stroke="black" stroke-width="0.5"/>
<path d="M54.1264 51.1356L51.8767 49.305C51.7999 49.2432 51.7361 49.1669 51.6889 49.0804C51.6417 48.9938 51.6121 48.8988 51.6018 48.8008C51.5914 48.7028 51.6006 48.6037 51.6287 48.5092C51.6568 48.4147 51.7033 48.3267 51.7655 48.2503C51.8277 48.1738 51.9044 48.1105 51.9912 48.0638C52.078 48.0171 52.1732 47.988 52.2712 47.9782C52.3693 47.9684 52.4684 47.9781 52.5627 48.0067C52.657 48.0353 52.7447 48.0823 52.8208 48.1449L54.5215 49.5288L60.0426 43.4594C60.1087 43.3868 60.1884 43.3279 60.2773 43.2861C60.3661 43.2442 60.4623 43.2203 60.5604 43.2157C60.6585 43.211 60.7565 43.2258 60.8489 43.259C60.9413 43.2923 61.0263 43.3434 61.0989 43.4095C61.1716 43.4755 61.2305 43.5553 61.2723 43.6441C61.3142 43.733 61.3381 43.8292 61.3427 43.9273C61.3474 44.0254 61.3326 44.1234 61.2994 44.2158C61.2661 44.3082 61.215 44.3931 61.1489 44.4658L55.1515 51.0588C55.0046 51.2205 54.4749 51.3445 54.1264 51.1356Z" fill="white"/>
<path d="M10.2373 37.2891C15.7538 37.2891 20.2256 41.7533 20.2256 47.2588C20.2253 52.764 15.7536 57.2275 10.2373 57.2275C4.72117 57.2274 0.250257 52.7639 0.25 47.2588C0.25 41.7535 4.72101 37.2892 10.2373 37.2891Z" fill="#B3B3B3" stroke="black" stroke-width="0.5"/>
<path d="M10.8275 46.4619V44.0194C11.3211 44.1205 11.7911 44.3383 12.1952 44.6546C12.2966 44.7258 12.4151 44.7642 12.5392 44.766C12.9244 44.766 13.241 44.4452 13.2452 44.0505C13.2463 43.8764 13.1786 43.7089 13.0567 43.5846C12.4315 43.0361 11.6401 42.7006 10.8205 42.6352V41.8399C10.8205 41.5438 10.5858 41.3028 10.309 41.3028C10.011 41.275 9.73998 41.5351 9.74147 41.8399V42.6064C8.12639 42.7544 7.00549 43.8151 7.00549 45.207C7.00549 46.8729 8.29226 47.3886 9.74147 47.7941V50.5962C9.08158 50.4873 8.46462 50.1982 7.95872 49.7607C7.83979 49.6645 7.69199 49.611 7.53901 49.6087C7.16179 49.6357 6.87013 49.9602 6.87506 50.3464C6.87378 50.5198 6.9409 50.6867 7.06188 50.8109C7.80331 51.4947 8.75459 51.8972 9.74865 51.9493V52.6831C9.74521 52.9812 10.0141 53.2422 10.3025 53.2209C10.5921 53.2209 10.8275 52.9797 10.8275 52.6831V51.9319C12.8696 51.7617 13.5997 50.406 13.5997 49.1825C13.5998 47.4075 12.1806 46.8414 10.8275 46.4619ZM12.1083 49.3456C12.1083 49.8647 11.7695 50.4604 10.8277 50.6121V48.1247C11.6053 48.363 12.1146 48.672 12.1083 49.3456ZM9.74865 43.9589V46.1753C9.04013 45.9565 8.51139 45.723 8.51139 45.1181C8.51139 44.4964 8.99376 44.0484 9.74865 43.9589Z" fill="white"/>
</svg>
