<svg width="92" height="120" viewBox="0 0 92 120" fill="none" xmlns="http://www.w3.org/2000/svg">
<g opacity="0.5">
<path d="M18.8584 1.00684C21.4027 -0.271194 24.5023 0.113334 27.4883 1.82812V1.8291C30.4119 3.50664 33.1942 6.4633 35.1484 10.3115C37.1022 14.1589 37.8331 18.154 37.4736 21.498C37.1137 24.8073 35.6682 27.4665 33.2744 28.8242L33.0391 28.9521C33.0208 28.9616 33.0057 28.9708 32.9971 28.9766C32.9924 28.9797 32.9883 28.9833 32.9854 28.9854C32.9825 28.9873 32.9801 28.9882 32.9785 28.9893L32.9736 28.9912L32.958 28.999C30.4129 30.2657 27.313 29.8921 24.3281 28.166L24.3271 28.165L23.7803 27.8359C21.0585 26.1147 18.4991 23.2902 16.667 19.6826C14.7131 15.8352 13.9822 11.8389 14.3418 8.48242C14.7258 5.07878 16.2411 2.34493 18.7715 1.04297L18.7725 1.04395C18.7794 1.04046 18.7857 1.03625 18.791 1.0332H18.8057L18.8584 1.00684Z" fill="#C1B1A7" stroke="#4D321E" stroke-width="0.5"/>
<path d="M20.3906 3.19687C20.4027 3.19687 26.0053 3.98853 27.7226 12.5141C27.9905 13.866 27.9783 14.2923 27.954 15.2545C27.954 15.4493 27.9418 15.6808 27.9418 15.9122C27.9296 16.85 28.0392 18.2993 28.5995 20.0166C29.1597 21.7461 30.1828 23.7557 31.9975 25.814C32.2046 26.0454 32.1802 26.4108 31.9488 26.6179C31.7905 26.7518 31.5712 26.7884 31.3886 26.7275C30.877 26.5813 24.7021 24.7057 23.9104 16.0949L23.8739 15.7295C23.4963 11.6737 23.07 6.97249 19.9399 4.17123C19.7085 3.96418 19.6842 3.59879 19.8912 3.36739C20.013 3.23341 20.2079 3.16034 20.3906 3.19687Z" fill="#5E3D25" fill-opacity="0.5"/>
<path d="M24.8612 15.242C24.4958 11.1863 24.0573 6.48506 20.9272 3.6838C20.8054 3.57419 20.7445 3.42803 20.7323 3.2697C20.5131 3.20881 20.3913 3.19663 20.3913 3.19663C20.2086 3.17227 20.0138 3.23316 19.8798 3.37932C19.6727 3.61073 19.6849 3.97611 19.9285 4.18316C23.0586 6.98442 23.4971 11.6857 23.8624 15.7414L23.899 16.1068C24.6906 24.7176 30.8656 26.5932 31.3771 26.7394C31.5598 26.8003 31.779 26.7638 31.9374 26.6298C32.0714 26.508 32.1444 26.3375 32.1323 26.167C30.8534 25.7285 25.6285 23.4753 24.8977 15.6196L24.8612 15.242Z" fill="#4D321E"/>
<path d="M25.9068 26.8718C19.5126 23.1814 15.0063 14.3026 15.8101 6.95847C16.0659 4.64439 16.8332 2.63478 18.0998 1.13672C15.8101 2.58607 14.4582 5.24118 14.0928 8.45654C13.289 15.8007 17.7953 24.6795 24.1895 28.3698C27.21 30.1115 30.401 30.5256 33.0561 29.2102C33.0805 29.198 33.117 29.1859 33.1414 29.1615C34.0183 28.7109 34.7734 28.0897 35.4189 27.3468C35.2362 27.4564 35.0535 27.566 34.8587 27.6634C34.8343 27.6756 34.81 27.7 34.7734 27.7122C32.1305 29.0275 28.9395 28.6134 25.9068 26.8718Z" fill="#5E3D25" fill-opacity="0.5"/>
<path d="M82.9376 15.4479C81.5452 12.9644 78.7618 11.5474 75.3276 11.2961L75.3271 11.2969C71.9654 11.0497 68.0047 11.9415 64.2307 14.0355C60.4576 16.1291 57.615 19.03 56.0403 22.0019C54.4855 24.9452 54.1942 27.9578 55.4172 30.4231L55.5406 30.6609C55.5504 30.6789 55.5578 30.6951 55.5617 30.7047C55.5638 30.7099 55.5652 30.7152 55.5665 30.7185C55.5677 30.7217 55.5692 30.7238 55.5699 30.7256L55.5729 30.7299L55.5815 30.7451C56.9809 33.2198 59.7585 34.646 63.198 34.8873L63.1993 34.887L63.8367 34.9206C67.0555 35.0185 70.7577 34.1115 74.2957 32.1484C78.069 30.0548 80.9123 27.153 82.4938 24.1707C84.0815 21.1357 84.3568 18.0221 82.9894 15.5266L82.988 15.5268C82.9842 15.52 82.9814 15.513 82.9786 15.5075L82.9665 15.4993L82.9376 15.4479Z" fill="#C9BAAF" stroke="#4D321E" stroke-width="0.5"/>
<path d="M80.4406 16.403C80.4305 16.3962 75.3454 13.915 69.1487 20.017C68.1696 20.9871 67.941 21.3471 67.4225 22.1579C67.3133 22.3194 67.1939 22.5179 67.0643 22.7096C66.5492 23.4935 65.6469 24.6329 64.2211 25.742C62.7885 26.8612 60.8156 27.9534 58.1594 28.6426C57.8583 28.7184 57.6739 29.0347 57.7497 29.3359C57.8059 29.5355 57.967 29.6885 58.1525 29.7404C58.6582 29.9057 64.8245 31.8094 70.3021 25.1184L70.537 24.8361C73.1208 21.6872 76.1064 18.0308 80.2684 17.4626C80.576 17.4206 80.8008 17.1315 80.7588 16.8239C80.733 16.6447 80.6124 16.475 80.4406 16.403Z" fill="#5E3D25" fill-opacity="0.5"/>
<path d="M69.9929 23.8792C72.5666 20.7235 75.5623 17.0739 79.7243 16.5057C79.8866 16.483 80.0189 16.396 80.1176 16.2717C80.3333 16.344 80.4411 16.4021 80.4411 16.4021C80.6061 16.4842 80.7334 16.6438 80.7626 16.8399C80.8046 17.1476 80.5899 17.4435 80.2721 17.4786C76.1102 18.0468 73.1144 21.6964 70.5407 24.8521L70.3058 25.1344C64.8283 31.8254 58.6619 29.9217 58.1563 29.7564C57.9708 29.7046 57.8096 29.5515 57.7534 29.3519C57.7106 29.1759 57.7456 28.9937 57.8511 28.8593C59.1562 29.2121 64.7469 30.271 69.7512 24.1715L69.9929 23.8792Z" fill="#4D321E"/>
<path d="M62.6113 32.9323C69.9754 33.4552 78.6807 28.6222 82.1271 22.0873C83.211 20.0268 83.7005 17.9321 83.4899 15.9816C84.5754 18.4646 84.2088 21.4214 82.7111 24.29C79.2647 30.825 70.5594 35.658 63.1952 35.1351C59.7174 34.8868 56.8417 33.4431 55.3785 30.8665C55.3651 30.8428 55.3416 30.8122 55.3351 30.7784C54.8609 29.914 54.5831 28.9765 54.4643 27.9995C54.5542 28.1927 54.6442 28.3858 54.7511 28.5756C54.7645 28.5994 54.771 28.6332 54.7945 28.6637C56.2477 31.2335 59.1234 32.6772 62.6113 32.9323Z" fill="#5E3D25" fill-opacity="0.5"/>
<path d="M70.8404 99.3122C70.5716 99.3111 70.3139 99.2048 70.1225 99.016C69.9311 98.8272 69.8213 98.571 69.8166 98.3023C69.8118 98.0335 69.9125 97.7736 70.0971 97.5782C70.2816 97.3827 70.5354 97.2674 70.804 97.2568C84.4999 96.7626 88.0003 88.0263 88.7628 85.199C88.8 85.0615 88.8329 84.9399 88.8626 84.8359L88.9332 84.4865C89.6359 81.2079 87.6433 78.0138 84.3997 77.2031C82.9896 76.8504 80.6566 77.4236 79.4164 78.2842C78.5022 78.9187 77.3583 80.1522 77.1006 82.4263C77.0854 82.5605 77.044 82.6903 76.9786 82.8084C76.9132 82.9265 76.8252 83.0306 76.7196 83.1147C76.6141 83.1988 76.4929 83.2613 76.3632 83.2986C76.2334 83.3359 76.0976 83.3473 75.9635 83.3321C75.8293 83.3169 75.6995 83.2754 75.5814 83.2101C75.4633 83.1447 75.3592 83.0567 75.2751 82.9511C75.191 82.8455 75.1285 82.7244 75.0912 82.5946C75.0539 82.4649 75.0425 82.3291 75.0577 82.1949C75.4019 79.155 76.9806 77.4717 78.2443 76.5949C79.983 75.3885 82.9004 74.7093 84.898 75.2083C86.9814 75.729 88.753 77.0198 89.8868 78.8429C91.0179 80.6617 91.394 82.8147 90.9459 84.9056L90.8695 85.2839C90.8637 85.312 90.8568 85.3398 90.8489 85.3673C90.8191 85.4695 90.7861 85.5927 90.7478 85.7343C90.3718 87.1284 89.4911 90.393 86.787 93.3399C83.4455 96.9817 77.3101 99.0791 70.8778 99.3111C70.8654 99.3119 70.8529 99.3123 70.8404 99.3122Z" fill="#B39A7C"/>
<path d="M54.0381 100.205C60.7928 100.205 66.9213 100.858 71.3721 101.92C73.5939 102.45 75.4204 103.086 76.7012 103.809C77.9491 104.512 78.823 105.381 78.8232 106.424C78.8232 106.729 78.7457 107.022 78.6055 107.301L78.6064 107.302C78.1796 108.155 77.152 108.884 75.7754 109.506C74.3774 110.137 72.5356 110.694 70.3643 111.157C66.0186 112.084 60.2979 112.645 54.0381 112.645C47.2835 112.645 41.1552 111.991 36.7041 110.93C34.4817 110.4 32.655 109.762 31.374 109.04C30.1258 108.336 29.252 107.467 29.252 106.424C29.2521 105.69 29.6888 105.045 30.3545 104.495C31.0244 103.942 31.9817 103.439 33.1572 102.986C37.5246 101.307 45.2616 100.205 54.0381 100.205Z" fill="#A78966" stroke="#4D321E" stroke-width="0.80822"/>
<path d="M78.4194 106.424C78.4194 106.66 78.3607 106.893 78.2454 107.121C73.9471 108.775 66.2678 109.877 57.5095 109.877C44.0441 109.877 33.1289 107.273 33.1289 104.061C33.1289 103.825 33.1876 103.593 33.3029 103.363C37.6023 101.711 45.2816 100.609 54.0388 100.609C67.5042 100.61 78.4194 103.213 78.4194 106.424Z" fill="#B39A7C"/>
<path d="M78.333 72.4062V76.3916C78.333 82.2928 77.2463 87.9571 75.2871 92.8379L75.2861 92.8389C73.3264 97.7158 70.4873 101.83 66.9688 104.607C63.9072 107.024 60.4794 108.302 56.9824 108.302H50.5889C48.8413 108.302 47.11 107.983 45.4326 107.361C43.7539 106.74 42.1327 105.816 40.6025 104.607C33.575 99.0607 29.2383 88.1732 29.2383 76.3916V72.4062H78.333Z" fill="#C0AB91" stroke="#4D321E"/>
<path d="M77.8325 72.9062V76.3918C77.8325 82.2336 76.7565 87.8342 74.8225 92.6521C72.8871 97.4686 70.0937 101.504 66.6588 104.215C63.6734 106.571 60.3523 107.802 56.9818 107.802H55.2492C53.5633 107.802 51.891 107.494 50.2668 106.892C48.6411 106.29 47.0649 105.394 45.5723 104.215C38.7024 98.7927 34.3984 88.0755 34.3984 76.3918V72.9062H77.8325Z" fill="#E5E1E0"/>
<path d="M53.7852 65.6484C54.652 65.6484 55.5075 65.6613 56.3506 65.6875L56.3496 65.6885C59.5837 65.7836 62.6311 66.0569 65.3643 66.4756C68.0723 66.8912 70.4803 67.4476 72.457 68.1172C74.2114 68.7119 75.6525 69.402 76.665 70.1758C77.6692 70.9431 78.332 71.8588 78.332 72.9062C78.332 74.0291 77.5745 74.9986 76.4336 75.8066L76.2002 75.9658C75.8363 76.2064 75.4322 76.4356 74.9922 76.6562H74.9912C72.2107 78.0493 67.8307 79.1217 62.6152 79.6973C60.6025 79.9195 58.4618 80.0656 56.2344 80.1289H56.2334C55.4287 80.151 54.6124 80.1631 53.7852 80.1631C53.1724 80.1631 52.5643 80.1582 51.9609 80.1445V80.1436C49.5075 80.0926 47.1539 79.9398 44.9561 79.6953V79.6943C40.0975 79.1598 35.9692 78.1931 33.1826 76.9404C32.4986 76.6344 31.8916 76.3086 31.3701 75.9648C30.0996 75.1268 29.2384 74.1023 29.2383 72.9062C29.2383 71.7842 29.9977 70.8143 31.1309 70.0107C32.2777 69.1975 33.909 68.4778 35.8896 67.8691C37.7077 67.311 39.8434 66.8389 42.207 66.4756L43.3125 66.3164C45.9282 65.9639 48.8028 65.7395 51.8311 65.6719V65.6709C52.4755 65.6557 53.128 65.6484 53.7852 65.6484Z" fill="#EBE5DD" stroke="#4D321E"/>
<path d="M75.9241 75.5499C75.58 75.7774 75.1935 75.9968 74.7672 76.2105C72.0643 77.5648 67.7522 78.6283 62.56 79.2014C60.6918 79.4084 58.7111 79.5481 56.6511 79.6167C56.5072 79.6222 56.3632 79.6263 56.2193 79.6304C55.4188 79.6524 54.6074 79.6647 53.785 79.6647C53.1751 79.6647 52.5707 79.6591 51.9716 79.6455C49.5318 79.5949 47.1935 79.4427 45.0114 79.2C40.1771 78.6682 36.1061 77.7087 33.3866 76.4861C32.7218 76.1887 32.1394 75.8748 31.6445 75.5485C32.7178 74.8399 34.2105 74.1943 36.0361 73.6323C37.8262 73.0827 39.9371 72.6152 42.2823 72.2561C45.1621 71.8147 48.401 71.5337 51.8427 71.4556C52.4828 71.4405 53.1312 71.4336 53.7849 71.4336C54.647 71.4336 55.4968 71.4473 56.3344 71.472C56.4441 71.4747 56.5552 71.4789 56.6647 71.4829C59.7569 71.5857 62.6696 71.853 65.2877 72.2559C67.9756 72.6671 70.3537 73.2195 72.2959 73.8774C73.7762 74.3793 75.0029 74.9413 75.9241 75.5499Z" fill="#554431"/>
<path d="M75.9233 75.5512C75.5793 75.7787 75.1928 75.9981 74.7665 76.2118C72.0635 77.5661 67.7514 78.6296 62.5593 79.2027C60.691 79.4097 58.7104 79.5494 56.6504 79.618C54.604 79.5481 52.637 79.407 50.7839 79.2013C45.9496 78.6695 41.8786 77.71 39.1591 76.4874L39.1393 76.4785C38.3377 76.1186 38.3474 74.9771 39.149 74.6171C39.9288 74.2669 40.8199 73.9381 41.8086 73.6336C43.5987 73.084 45.7096 72.6165 48.0547 72.2574C50.6673 71.8571 53.5758 71.5885 56.664 71.4844C59.7562 71.5872 62.6689 71.8544 65.287 72.2574C67.9749 72.6686 70.3529 73.221 72.2952 73.8789C73.7754 74.3806 75.0022 74.9426 75.9233 75.5512Z" fill="#6A563D"/>
<path d="M49.7155 50.8734C49.7155 50.3055 49.2552 49.8454 48.6875 49.8454C48.1197 49.8454 47.6595 50.3055 47.6595 50.8734C47.6595 51.5146 47.4757 51.7779 47.1711 52.214C46.8087 52.733 46.3125 53.4438 46.3125 54.7317C46.3125 56.0197 46.8088 56.7304 47.1711 57.2496C47.4757 57.6857 47.6595 57.949 47.6595 58.5901C47.6595 59.2312 47.4757 59.4945 47.1711 59.9305C46.8087 60.4494 46.3125 61.1602 46.3125 62.448C46.3125 62.583 46.3391 62.7167 46.3907 62.8414C46.4424 62.9662 46.5181 63.0795 46.6136 63.1749C46.709 63.2704 46.8223 63.3461 46.9471 63.3978C47.0718 63.4494 47.2055 63.476 47.3405 63.476C47.4755 63.476 47.6092 63.4494 47.7339 63.3978C47.8586 63.3461 47.972 63.2704 48.0674 63.1749C48.1629 63.0795 48.2386 62.9662 48.2903 62.8414C48.3419 62.7167 48.3685 62.583 48.3685 62.448C48.3685 61.8069 48.5523 61.5436 48.8569 61.1076C49.2191 60.5886 49.7155 59.8779 49.7155 58.5901C49.7155 57.3021 49.2193 56.5915 48.8569 56.0725C48.5523 55.6363 48.3685 55.3729 48.3685 54.7317C48.3685 54.0905 48.5523 53.8271 48.8569 53.391C49.2191 52.872 49.7155 52.1613 49.7155 50.8734ZM59.9125 54.7317C59.9125 54.0904 60.0963 53.8271 60.4009 53.391C60.7633 52.872 61.2595 52.1613 61.2595 50.8734C61.2595 50.3055 60.7994 49.8454 60.2315 49.8454C59.6636 49.8454 59.2035 50.3055 59.2035 50.8734C59.2035 51.5146 59.0197 51.7779 58.7151 52.214C58.3527 52.733 57.8565 53.4438 57.8565 54.7317C57.8565 56.0197 58.3527 56.7304 58.7151 57.2494C59.0197 57.6857 59.2035 57.949 59.2035 58.5901C59.2035 59.2312 59.0197 59.4945 58.7151 59.9305C58.3527 60.4494 57.8565 61.1602 57.8565 62.448C57.8565 63.0159 58.3166 63.476 58.8845 63.476C59.4524 63.476 59.9125 63.0159 59.9125 62.448C59.9125 61.8068 60.0963 61.5436 60.4009 61.1076C60.7633 60.5886 61.2595 59.8779 61.2595 58.5901C61.2595 57.3021 60.7633 56.5915 60.4009 56.0725C60.0963 55.6364 59.9125 55.3731 59.9125 54.7317ZM55.4873 47.028C55.4873 46.4601 55.0271 46 54.4594 46C53.8916 46 53.4314 46.4601 53.4314 47.028C53.4314 48.0463 53.1869 48.5087 52.8772 49.0938C52.524 49.7616 52.0844 50.5927 52.0844 52.1209C52.0844 53.6492 52.524 54.4804 52.8772 55.1482C53.1869 55.7336 53.4314 56.196 53.4314 57.214C53.4314 58.232 53.1869 58.6941 52.8772 59.2794C52.524 59.947 52.0844 60.7781 52.0844 62.3064C52.0844 62.8743 52.5446 63.3344 53.1124 63.3344C53.6801 63.3344 54.1404 62.8743 54.1404 62.3064C54.1404 61.2884 54.3848 60.8261 54.6945 60.2408C55.0477 59.5732 55.4873 58.7421 55.4873 57.214C55.4873 55.6857 55.0477 54.8545 54.6945 54.1867C54.3848 53.6013 54.1404 53.1389 54.1404 52.1209C54.1404 51.1029 54.3848 50.6404 54.6945 50.0552C55.0477 49.3875 55.4873 48.5565 55.4873 47.028Z" fill="#C6BFB9"/>
<path d="M6.88282 101.922C9.13 101.276 11.9666 101.315 14.8517 102.204L14.8514 102.205C17.7353 103.103 20.102 104.672 21.5901 106.47C23.1132 108.314 23.7175 110.363 23.1576 112.203L23.1545 112.211L23.1388 112.274C22.5894 113.99 21.1048 115.282 19.0316 115.981L18.6087 116.114C16.3612 116.759 13.5237 116.719 10.6382 115.83C7.75434 114.94 5.39795 113.365 3.90074 111.564C2.37808 109.72 1.77417 107.672 2.33394 105.832L2.34964 105.77C2.93321 103.934 4.58541 102.583 6.88282 101.922Z" fill="#B9A89E" stroke="#4D321E" stroke-width="0.75"/>
<path d="M21.4633 112.027C21.4528 112.033 18.3042 114.487 13.1124 111.166C12.2934 110.641 12.0803 110.427 11.6083 109.936C11.5102 109.831 11.3953 109.722 11.2825 109.605C10.8147 109.132 10.0272 108.481 8.87163 107.916C7.71609 107.35 6.19044 106.878 4.2505 106.782C4.031 106.772 3.85557 106.586 3.86833 106.358C3.87892 106.209 3.96476 106.08 4.08607 106.021C4.40819 105.836 8.40323 103.621 13.1744 107.449L13.3812 107.617C15.6289 109.425 18.2318 111.518 21.2006 111.304C21.4264 111.289 21.6165 111.452 21.6309 111.678C21.6307 111.82 21.5637 111.946 21.4633 112.027Z" fill="#5E3D25" fill-opacity="0.5"/>
<path d="M13.1302 108.373C15.3779 110.182 17.9808 112.275 20.9495 112.06C21.0666 112.054 21.1732 112.09 21.2526 112.163C21.3885 112.082 21.4555 112.027 21.4638 112.029C21.5726 111.95 21.6313 111.823 21.6231 111.678C21.6086 111.452 21.4102 111.287 21.1928 111.304C18.224 111.518 15.6211 109.425 13.3734 107.617L13.1666 107.449C8.40378 103.623 4.40037 105.836 4.07825 106.021C3.95485 106.088 3.87111 106.209 3.86052 106.358C3.85412 106.489 3.91254 106.611 4.00028 106.686C4.85572 106.252 8.56791 104.704 12.9234 108.206L13.1302 108.373Z" fill="#4D321E"/>
<path d="M6.70122 103.18C11.7283 101.74 18.4579 103.82 21.7927 107.848C22.843 109.116 23.4898 110.505 23.6243 111.88C24.0171 109.997 23.3353 108.004 21.8778 106.234C18.543 102.207 11.8051 100.124 6.78637 101.566C4.41086 102.25 2.63255 103.67 1.99932 105.661L1.98253 105.728C1.77912 106.397 1.72202 107.085 1.78827 107.777C1.81768 107.624 1.85335 107.482 1.89948 107.334L1.91627 107.267C2.5495 105.275 4.32571 103.864 6.70122 103.18Z" fill="#5E3D25" fill-opacity="0.5"/>
<path d="M17.4882 94.3216C16.5572 96.4664 16.229 99.2842 16.7378 102.26L16.7387 102.26C17.2563 105.236 18.506 107.785 20.0964 109.494C21.728 111.242 23.6818 112.107 25.5784 111.789L25.587 111.787L25.651 111.78C27.4241 111.457 28.8975 110.152 29.8584 108.187L30.0444 107.784C30.9755 105.639 31.3027 102.82 30.7936 99.844C30.2847 96.8694 29.0277 94.3291 27.4351 92.6115C25.8037 90.8632 23.8505 89.9994 21.9542 90.3166L21.8902 90.3241C19.9946 90.6654 18.4407 92.1289 17.4882 94.3216Z" fill="#BDABA1" stroke="#4D321E" stroke-width="0.75"/>
<path d="M25.6259 110.088C25.6335 110.078 28.4735 107.273 25.8522 101.695C25.4371 100.815 25.253 100.577 24.8264 100.045C24.7354 99.9341 24.6423 99.8061 24.5407 99.6791C24.1323 99.154 23.5887 98.289 23.1773 97.07C22.766 95.851 22.4954 94.2772 22.6512 92.3411C22.669 92.1221 22.507 91.924 22.2794 91.9072C22.1309 91.8985 21.9914 91.9669 21.9177 92.0796C21.6919 92.375 18.9795 96.0502 22.1585 101.276L22.2978 101.503C23.8003 103.966 25.5391 106.817 24.9424 109.734C24.8989 109.956 25.0362 110.165 25.2582 110.209C25.3992 110.227 25.5322 110.177 25.6259 110.088Z" fill="#5E3D25" fill-opacity="0.5"/>
<path d="M23.0794 101.348C24.5819 103.811 26.3208 106.662 25.724 109.578C25.7028 109.694 25.7243 109.804 25.7867 109.892C25.6884 110.017 25.6259 110.076 25.6269 110.084C25.5342 110.182 25.4002 110.224 25.2582 110.197C25.0362 110.153 24.8979 109.935 24.9424 109.722C25.5391 106.806 23.8003 103.954 22.2978 101.491L22.1585 101.265C18.9805 96.047 21.6919 92.3633 21.9177 92.0679C21.9999 91.9542 22.1309 91.8868 22.2794 91.8955C22.4109 91.9062 22.5236 91.9798 22.587 92.0765C22.0459 92.8687 20.0312 96.3495 22.9401 101.121L23.0794 101.348Z" fill="#4D321E"/>
<path d="M18.7565 94.3038C16.6787 99.1024 17.8711 106.045 21.4335 109.872C22.5549 111.078 23.8483 111.899 25.1951 112.21C23.2769 112.356 21.3889 111.422 19.8222 109.748C16.2599 105.92 15.0664 98.9696 17.1453 94.1795C18.1302 91.9123 19.7681 90.3326 21.825 89.9622L21.8935 89.9542C22.5829 89.839 23.2723 89.8713 23.9499 90.0265C23.7948 90.036 23.6493 90.053 23.4962 90.0795L23.4277 90.0875C21.3708 90.4579 19.7415 92.0366 18.7565 94.3038Z" fill="#5E3D25" fill-opacity="0.5"/>
</g>
</svg>
