<svg width="80" height="104" viewBox="0 0 80 104" fill="none" xmlns="http://www.w3.org/2000/svg">
<g opacity="0.6" clip-path="url(#clip0_6731_61081)">
<path d="M60.4658 2.02246H66.0498C66.6681 2.02259 67.1689 2.52345 67.1689 3.1416V22.0244C67.1689 22.6427 66.668 23.1434 66.0498 23.1436C65.9756 23.143 65.9016 23.1358 65.8291 23.1201H65.8271L60.2441 21.9473H60.2422C59.9897 21.8957 59.7628 21.7581 59.5996 21.5586C59.4569 21.3841 59.3702 21.1714 59.3506 20.9482L59.3467 20.8516V3.1416C59.3469 2.5235 59.8477 2.02266 60.4658 2.02246Z" fill="#FFCA28" stroke="#FFDA94" stroke-width="0.552239"/>
<path d="M53.1367 1.6709H58.7207C58.8728 1.67086 59.0234 1.7017 59.1631 1.76172C59.3028 1.82177 59.4295 1.90916 59.5342 2.01953L59.5361 2.02148C59.6426 2.13156 59.7244 2.26295 59.7783 2.40625C59.8321 2.54904 59.8568 2.70113 59.8496 2.85352L58.4531 27.9775C58.4397 28.2161 58.3505 28.4448 58.1982 28.6289C58.0461 28.8128 57.839 28.943 57.6074 29.001L52.0234 30.3975H52.0225C51.9316 30.4206 51.838 30.4316 51.7441 30.4307H51.7402C51.7212 30.4308 51.7017 30.4307 51.6816 30.4297C51.0641 30.3976 50.589 29.8705 50.6211 29.2529L52.0176 2.73242C52.0325 2.44565 52.1568 2.17509 52.3652 1.97754C52.5735 1.78015 52.8498 1.67059 53.1367 1.6709Z" fill="#FFB300" stroke="#FFDCA4" stroke-width="0.552239"/>
<path d="M68.5381 9.27051C68.8147 8.71737 69.4879 8.49304 70.041 8.76953L75.624 11.5615C75.8649 11.6824 76.0544 11.8857 76.1572 12.1348C76.26 12.384 76.2693 12.6623 76.1836 12.918V12.9189L70.5996 29.6689C70.5367 29.8575 70.4249 30.0262 70.2754 30.1572C70.1632 30.2554 70.033 30.33 69.8926 30.377L69.749 30.4141L58.9482 32.4717C58.7065 32.518 58.4564 32.4832 58.2363 32.373C57.6836 32.0961 57.4596 31.4239 57.7363 30.8711H57.7373L68.5381 9.27148V9.27051ZM24.6523 10.0664C24.8008 10.0368 24.9544 10.0372 25.1025 10.0684C25.2507 10.0995 25.3907 10.1611 25.5146 10.248C25.6384 10.3349 25.7436 10.4457 25.8232 10.5742C25.883 10.6706 25.9279 10.7754 25.9561 10.8848L25.9785 10.9961L28.7695 29.1426C28.7781 29.1988 28.7832 29.2552 28.7832 29.3115C28.7834 29.9298 28.2822 30.4312 27.6641 30.4316H20.6816C20.4145 30.434 20.1556 30.3409 19.9512 30.1689C19.7466 29.9968 19.6097 29.7569 19.5664 29.4932L16.7754 12.7432C16.7283 12.4552 16.7957 12.1601 16.9629 11.9209C17.1302 11.6818 17.3842 11.5174 17.6709 11.4629L17.6738 11.4619L24.6523 10.0664Z" fill="#FFC107" stroke="#FFDCA4" stroke-width="0.552239"/>
<path d="M61.3213 17.0371L61.4336 17.0596L67.0166 18.4551L67.0215 18.457C67.294 18.5198 67.5337 18.6819 67.6924 18.9121C67.8508 19.1421 67.9179 19.4235 67.8799 19.7002L66.4834 29.4717C66.4448 29.7401 66.3103 29.9855 66.1045 30.1621C65.8986 30.3388 65.6355 30.4343 65.3643 30.4316H59.7754C59.7266 30.4321 59.6772 30.43 59.6279 30.4238C59.0146 30.3471 58.5797 29.7873 58.6562 29.1738L60.0518 18.0068C60.0573 17.9626 60.0655 17.9188 60.0762 17.876V17.875C60.2164 17.3127 60.7596 16.9562 61.3213 17.0371Z" fill="#FFB300" stroke="#FFDCA4" stroke-width="0.552239"/>
<path d="M28.7461 17.0352C29.3212 16.9631 29.8494 17.3407 29.9766 17.8936L29.9961 18.0068L31.417 29.1738C31.4231 29.2228 31.4262 29.2716 31.4258 29.3203V29.3213C31.4208 29.9395 30.916 30.4363 30.2979 30.4316H24.709C24.4377 30.4343 24.1746 30.3388 23.9688 30.1621C23.7629 29.9855 23.6285 29.7401 23.5898 29.4717L22.1934 19.7002C22.1542 19.4259 22.2184 19.1469 22.373 18.917C22.5083 18.7159 22.7047 18.5649 22.9316 18.4854L23.0312 18.4551L28.6152 17.0596L28.6143 17.0586C28.6576 17.0478 28.7018 17.0407 28.7461 17.0352Z" fill="#FFD54F" stroke="#FFDA94" stroke-width="0.552239"/>
<path d="M31.5811 2.05273C31.7346 2.01331 31.8948 2.00803 32.0508 2.03613C32.2068 2.06425 32.3552 2.12525 32.4854 2.21582L32.4863 2.2168C32.6175 2.30709 32.7283 2.42422 32.8105 2.56055C32.8927 2.69668 32.9441 2.84897 32.9629 3.00684L35.7637 26.7334C35.7692 26.7801 35.7718 26.8272 35.7715 26.874C35.767 27.4922 35.2619 27.9897 34.6436 27.9854H29.0586C28.7914 27.9852 28.5329 27.8898 28.3301 27.7158C28.1272 27.5417 27.9928 27.3004 27.9521 27.0361L25.1631 8.9082L25.1475 4.53516C25.1475 4.28545 25.231 4.04246 25.3848 3.8457C25.5385 3.64909 25.7539 3.50962 25.9961 3.44922L31.5791 2.05371L31.5811 2.05273Z" fill="#FFC107" stroke="#FFDCA4" stroke-width="0.552239"/>
<path d="M35.7695 3.76953C36.3263 3.60827 36.9071 3.8993 37.1191 4.42578L37.1562 4.53418L39.9473 14.3037L39.9502 14.3105C39.9545 14.3242 39.9591 14.3401 39.9619 14.3486C39.9653 14.359 39.9682 14.3656 39.9697 14.3711C39.9712 14.3763 39.9707 14.3789 39.9707 14.3789V14.3945L39.9746 14.418L44.0811 37.9014C44.1244 38.1513 44.0818 38.4084 43.96 38.6309C43.8531 38.8257 43.691 38.984 43.4951 39.0859L43.4092 39.126L34.0713 43.0342C33.9658 43.0783 33.8541 43.1058 33.7402 43.1162C33.1244 43.1722 32.5794 42.7184 32.5234 42.1025L29.3945 7.73438L29.3916 7.56641C29.4013 7.39901 29.4481 7.23473 29.5303 7.08691C29.6397 6.89008 29.8064 6.73071 30.0078 6.62988L35.5889 3.83984C35.6471 3.8114 35.7078 3.7874 35.7695 3.76953Z" fill="#FFD54F" stroke="#FFDA94" stroke-width="0.552239"/>
<path d="M47.2031 3.06934H52.7881C53.4064 3.06935 53.9071 3.5702 53.9072 4.18848V12.6191H53.9082L52.7773 41.0498C52.7658 41.3389 52.6423 41.6131 52.4336 41.8135C52.2249 42.0136 51.9464 42.1252 51.6572 42.125H43.8916C43.8573 42.1252 43.8225 42.1233 43.7871 42.1201C43.1714 42.0644 42.7168 41.5201 42.7725 40.9043L46.084 4.08789C46.1093 3.80879 46.238 3.54897 46.4453 3.36035C46.6525 3.17185 46.923 3.06831 47.2031 3.06934Z" fill="#FFD54F" stroke="#FFDA94" stroke-width="0.552239"/>
<path d="M51.7539 12.8721V12.8711L60.126 14.2676C60.4137 14.3156 60.671 14.474 60.8438 14.709C61.0164 14.9439 61.0908 15.2366 61.0508 15.5254L58.2598 35.0664L58.2568 35.0859V35.1152L57.2305 41.1982C57.1865 41.4593 57.0517 41.6972 56.8496 41.8682C56.6476 42.039 56.3914 42.1327 56.127 42.1328H55.9473L49.2314 41.1748H49.2305C48.9476 41.1346 48.6908 40.9879 48.5127 40.7646C48.3345 40.5411 48.2485 40.2575 48.2725 39.9727V39.9717L50.4521 13.8867C50.465 13.7325 50.5104 13.5824 50.584 13.4463C50.6575 13.3106 50.7573 13.1906 50.8789 13.0957L50.8799 13.0967C51.0025 13.0018 51.1428 12.9322 51.293 12.8936C51.4433 12.8549 51.6006 12.848 51.7539 12.8721Z" fill="#FFC107" stroke="#FFDA94" stroke-width="0.552239"/>
<path d="M41.6201 0.276367H47.2061C47.3598 0.276265 47.5123 0.307883 47.6533 0.369141C47.794 0.430333 47.9207 0.51967 48.0254 0.631836L48.0264 0.632812C48.1318 0.745258 48.213 0.878221 48.2646 1.02344C48.3162 1.16857 48.3369 1.32292 48.3262 1.47656L45.5342 40.5596C45.5138 40.8422 45.3873 41.107 45.1797 41.2998C44.9719 41.4926 44.6985 41.5993 44.415 41.5986H44.4131C44.3033 41.5992 44.1939 41.5841 44.0889 41.5537H44.0879L36.6875 39.3633C36.4329 39.2878 36.2126 39.1237 36.0674 38.9014C35.9224 38.6792 35.8614 38.4127 35.8945 38.1494V38.1484L40.501 1.25684C40.5351 0.984626 40.6677 0.734479 40.874 0.553711C41.0804 0.37295 41.3458 0.274306 41.6201 0.276367Z" fill="#FFB300" stroke="#FFDCA4" stroke-width="0.552239"/>
<path d="M38.1318 11.4443H43.7158C44.0033 11.444 44.2799 11.554 44.4883 11.752C44.6967 11.95 44.8206 12.2207 44.835 12.5078L46.2314 40.4248C46.2324 40.4434 46.2324 40.4628 46.2324 40.4824C46.2314 41.1006 45.7296 41.6003 45.1113 41.5996C45.0201 41.5992 44.9293 41.5877 44.8408 41.5645L44.8379 41.5635L39.2539 40.168C39.0219 40.1099 38.8144 39.9784 38.6621 39.7939C38.5481 39.6557 38.4693 39.4928 38.4316 39.3193L38.4082 39.1426L37.0117 12.6221C37.0108 12.6019 37.0108 12.582 37.0107 12.5625C37.0115 11.9826 37.4527 11.5066 38.0176 11.4502L38.1318 11.4443Z" fill="#FFCA28" stroke="#FFDA94" stroke-width="0.552239"/>
<path d="M19.2949 28.418H33.2529C33.7475 28.418 34.1482 28.8189 34.1484 29.3135C34.1484 34.986 38.7475 39.585 44.4199 39.585H47.2109C52.8835 39.585 57.4824 34.9859 57.4824 29.3135C57.4826 28.8189 57.8833 28.418 58.3779 28.418H72.3359C72.475 28.418 72.6129 28.4505 72.7373 28.5127C72.8306 28.5594 72.9149 28.6219 72.9863 28.6973L73.0527 28.7764C73.1361 28.8892 73.1922 29.0199 73.2158 29.1582C73.2395 29.2973 73.2295 29.4405 73.1875 29.5752V29.5771L63.2354 61.9268L63.2344 61.9287C62.4069 64.6531 59.8902 66.5115 57.043 66.501H34.5771C31.7298 66.5118 29.2121 64.6532 28.3848 61.9287V61.9268L18.4385 29.5771C18.4122 29.4915 18.3984 29.4028 18.3984 29.3135L18.4033 29.2217C18.4495 28.7702 18.8312 28.4179 19.2949 28.418Z" fill="#F7EDC0" stroke="#BCA53F"/>
<circle cx="45.5686" cy="52.1115" r="6.51389" fill="#E2D081"/>
</g>
<g clip-path="url(#clip1_6731_61081)">
<path d="M3.64453 90.4541H45.3564C46.8547 90.4542 48.0468 91.8624 47.8506 93.3594C47.7562 94.0753 47.6003 94.7816 47.3857 95.4707L47.29 95.7646C46.7834 97.2671 45.3675 98.2754 43.7803 98.2754H5.21973C3.63274 98.2753 2.21747 97.2669 1.71094 95.7646H1.70996C1.44551 94.9829 1.25823 94.1766 1.15039 93.3584C0.954774 91.8617 2.14641 90.4541 3.64453 90.4541Z" fill="#FFC365" stroke="#EBB35B" stroke-width="0.415254"/>
<mask id="path-15-inside-1_6731_61081" fill="white">
<path d="M44.8701 79.8242C45.5272 79.8242 46.0653 80.3771 46.0654 81.0527V82.583C46.0652 83.2585 45.5272 83.8115 44.8701 83.8115H31.7412C31.7471 83.8115 31.753 83.8106 31.7588 83.8105H3.51172C2.85453 83.8105 2.31641 83.2577 2.31641 82.582V81.0527C2.31642 80.3771 2.85453 79.8242 3.51172 79.8242H44.8701Z"/>
</mask>
<path d="M44.8701 79.8242C45.5272 79.8242 46.0653 80.3771 46.0654 81.0527V82.583C46.0652 83.2585 45.5272 83.8115 44.8701 83.8115H31.7412C31.7471 83.8115 31.753 83.8106 31.7588 83.8105H3.51172C2.85453 83.8105 2.31641 83.2577 2.31641 82.582V81.0527C2.31642 80.3771 2.85453 79.8242 3.51172 79.8242H44.8701Z" fill="#FFE2B5"/>
<path d="M46.0654 81.0527H46.4807V81.0526L46.0654 81.0527ZM46.0654 82.583L46.4807 82.5832V82.583H46.0654ZM31.7588 83.8105L31.765 84.2258L31.7588 83.3953V83.8105ZM2.31641 81.0527L1.90115 81.0527V81.0527H2.31641ZM44.8701 79.8242V80.2395C45.2872 80.2395 45.6501 80.5956 45.6502 81.0528L46.0654 81.0527L46.4807 81.0526C46.4805 80.1586 45.7672 79.409 44.8701 79.409V79.8242ZM46.0654 81.0527H45.6502V82.583H46.0654H46.4807V81.0527H46.0654ZM46.0654 82.583L45.6502 82.5829C45.65 83.04 45.2871 83.3963 44.8701 83.3963V83.8115V84.2268C45.7673 84.2268 46.4803 83.4769 46.4807 82.5832L46.0654 82.583ZM44.8701 83.8115V83.3963H31.7412V83.8115V84.2268H44.8701V83.8115ZM31.7412 83.8115V84.2268C31.753 84.2268 31.7629 84.2263 31.7696 84.2259C31.776 84.2256 31.7814 84.2251 31.7829 84.225C31.7857 84.2248 31.7836 84.225 31.7815 84.2251C31.7788 84.2253 31.7728 84.2256 31.765 84.2258L31.7588 83.8105L31.7526 83.3953C31.7419 83.3955 31.733 83.396 31.7274 83.3964C31.7223 83.3967 31.7173 83.3971 31.7171 83.3971C31.7157 83.3972 31.7182 83.397 31.7217 83.3968C31.7254 83.3966 31.7323 83.3963 31.7412 83.3963V83.8115ZM31.7588 83.8105V83.3953H3.51172V83.8105V84.2258H31.7588V83.8105ZM3.51172 83.8105V83.3953C3.09447 83.3953 2.73166 83.0391 2.73166 82.582H2.31641H1.90115C1.90115 83.4763 2.61458 84.2258 3.51172 84.2258V83.8105ZM2.31641 82.582H2.73166V81.0527H2.31641H1.90115V82.582H2.31641ZM2.31641 81.0527L2.73166 81.0527C2.73167 80.5957 3.09449 80.2395 3.51172 80.2395V79.8242V79.409C2.61458 79.409 1.90117 80.1585 1.90115 81.0527L2.31641 81.0527ZM3.51172 79.8242V80.2395H44.8701V79.8242V79.409H3.51172V79.8242Z" fill="#EBB35B" mask="url(#path-15-inside-1_6731_61081)"/>
<path d="M45.75 83.9111C46.9162 83.9112 47.8709 84.8659 47.8711 86.0322V88.0156C47.8709 89.1818 46.9162 90.1367 45.75 90.1367H27.3379C29.9392 87.4829 33.943 84.3718 38.7178 83.9111H45.75ZM3.25098 83.9111H9.65332C9.66559 83.914 9.68298 83.9175 9.70508 83.9229C9.75485 83.9349 9.82924 83.9532 9.92578 83.9785C10.1191 84.0291 10.402 84.1078 10.7578 84.2178C11.4695 84.4377 12.4732 84.7841 13.6357 85.29C15.8517 86.2546 18.6384 87.7969 21.0918 90.1367H3.25098C2.08467 90.1367 1.12988 89.181 1.12988 88.0146V86.0322C1.1299 84.8659 2.08468 83.9111 3.25098 83.9111Z" fill="#F0CFA9" stroke="#EBB35B" stroke-width="0.415254"/>
<path d="M9.47656 83.7031C9.47656 83.7031 17.3049 85.4415 22.493 91.5211C23.405 92.5898 25.056 92.5978 25.9702 91.531C28.3819 88.7168 33.0634 84.2623 38.9013 83.7031H9.47656Z" fill="#FFE02F"/>
<path d="M36.6182 83.9111C31.7593 85.218 27.9134 88.9442 25.8125 91.3955C24.982 92.3646 23.4814 92.3588 22.6514 91.3867C20.0312 88.3163 16.7479 86.3456 14.126 85.1436C12.8762 84.5706 11.7738 84.1725 10.9619 83.9111H36.6182Z" fill="#FED96E" stroke="#FFDA94" stroke-width="0.415254"/>
<path d="M24.5 60.7275C30.8675 60.7275 36.6484 62.4954 40.9805 65.377C45.3133 68.2591 48.1847 72.2457 48.7695 76.6846C48.9755 78.2482 47.7369 79.7167 46.1719 79.7168H2.82812C1.26321 79.7166 0.0247124 78.2482 0.230469 76.6846C0.81527 72.2444 3.68793 68.2578 8.02148 65.376C12.3541 62.4948 18.1348 60.7276 24.5 60.7275Z" fill="#FFC365" stroke="#EBB35B" stroke-width="0.415254"/>
<path d="M12.4678 62.8926C12.9878 63.4668 13.1229 64.364 12.6152 65.0938L11.5869 66.5713C11.3824 66.8653 10.9478 66.8653 10.7432 66.5713L9.71484 65.0938C9.55494 64.8638 9.46063 64.6172 9.41992 64.3701C10.3807 63.8248 11.3992 63.3307 12.4678 62.8926Z" fill="#FEE6C1" stroke="#FFB866" stroke-width="0.166102"/>
<path d="M15.0869 68.8486C15.2915 68.5546 15.7272 68.5546 15.9316 68.8486L16.96 70.3262C17.7749 71.4975 16.9358 73.1025 15.5088 73.1025C14.082 73.1022 13.2438 71.4974 14.0586 70.3262L15.0869 68.8486ZM23.7695 68.8486C23.9741 68.5546 24.4098 68.5546 24.6143 68.8486L25.6426 70.3262C26.4576 71.4974 25.6192 73.1023 24.1924 73.1025C22.7653 73.1025 21.9263 71.4975 22.7412 70.3262L23.7695 68.8486ZM32.4531 68.8486C32.6577 68.5546 33.0924 68.5546 33.2969 68.8486L34.3252 70.3262C35.1401 71.4975 34.302 73.1025 32.875 73.1025C31.448 73.1025 30.6099 71.4975 31.4248 70.3262L32.4531 68.8486ZM19.8506 62.3174C21.2776 62.3174 22.1156 63.9215 21.3008 65.0928L20.2725 66.5713C20.068 66.8651 19.6333 66.8652 19.4287 66.5713L18.4004 65.0928C17.5857 63.9214 18.4236 62.3174 19.8506 62.3174ZM28.5332 62.3174C29.9601 62.3174 30.7983 63.9214 29.9834 65.0928L28.9551 66.5713C28.7505 66.8651 28.3159 66.8653 28.1113 66.5713L27.083 65.0928C26.2685 63.9215 27.1065 62.3176 28.5332 62.3174ZM36.0957 62.7178C37.1027 63.1113 38.0665 63.555 38.9824 64.043C38.9922 64.3964 38.8974 64.7615 38.667 65.0928L37.6387 66.5713C37.4342 66.8653 36.9985 66.8654 36.7939 66.5713L35.7656 65.0928C35.2031 64.2838 35.4298 63.2691 36.0957 62.7178Z" fill="#FEE6C1" stroke="#FFB866" stroke-width="0.166102"/>
</g>
<defs>
<clipPath id="clip0_6731_61081">
<rect width="67" height="67" fill="white" transform="translate(13)"/>
</clipPath>
<clipPath id="clip1_6731_61081">
<rect width="49" height="49" fill="white" transform="translate(0 55)"/>
</clipPath>
</defs>
</svg>
