<svg width="68" height="82" viewBox="0 0 68 82" fill="none" xmlns="http://www.w3.org/2000/svg">
<g opacity="0.8">
<path d="M9.49219 68.7041V73.8311C9.49199 74.6516 8.82595 75.3154 8.00684 75.3154H3.64746C3.25391 75.315 2.87678 75.1583 2.59863 74.8799C2.32058 74.6016 2.16416 74.2245 2.16406 73.8311V68.7041H9.49219Z" fill="#C59681" stroke="#A97C62" stroke-width="0.5"/>
<path d="M32.9404 68.7041V73.8311C32.9402 74.652 32.2729 75.3154 31.4541 75.3154H27.0957C26.7021 75.3153 26.3243 75.1592 26.0459 74.8809C25.7676 74.6025 25.6114 74.2247 25.6113 73.8311V68.7041H32.9404Z" fill="#C59681" stroke="#A97C62" stroke-width="0.5"/>
<path d="M56.3867 68.7041V73.8311C56.3865 74.6515 55.7218 75.3154 54.9014 75.3154H50.543C50.1493 75.3153 49.7715 75.1592 49.4932 74.8809C49.2148 74.6025 49.0587 74.2247 49.0586 73.8311V68.7041H56.3867Z" fill="#C59681" stroke="#A97C62" stroke-width="0.5"/>
<path d="M78.3496 63.0801C79.169 63.0801 79.8328 63.7442 79.833 64.5645V69.1982H2.16406V64.5645C2.1643 63.7443 2.82816 63.0802 3.64746 63.0801H78.3496Z" fill="#C59681" stroke="#A97C62" stroke-width="0.5"/>
<path d="M41.4189 32.0527C42.9207 32.053 44.1377 33.2707 44.1377 34.7725V60.8604C44.1377 61.5815 43.8517 62.2732 43.3418 62.7832C42.8319 63.2931 42.1401 63.58 41.4189 63.5801H10.958C10.2367 63.5801 9.54519 63.2932 9.03516 62.7832C8.52513 62.2732 8.23828 61.5816 8.23828 60.8604V34.7725C8.23828 33.2718 9.456 32.0527 10.958 32.0527H41.4189Z" fill="#FFCAA4" stroke="#BE8666" stroke-width="0.5"/>
<path d="M22.418 32.3027H29.9559V40.1494H22.418V32.3027Z" fill="#E5A27C"/>
<path d="M31.9018 56.4953H19.5548C19.3149 56.4953 19.0849 56.4001 18.9153 56.2305C18.7457 56.0608 18.6504 55.8308 18.6504 55.5909C18.6504 55.3511 18.7457 55.121 18.9153 54.9514C19.0849 54.7818 19.3149 54.6865 19.5548 54.6865H31.903C32.1429 54.6865 32.3729 54.7818 32.5426 54.9514C32.7122 55.121 32.8074 55.3511 32.8074 55.5909C32.8074 55.8308 32.7122 56.0608 32.5426 56.2305C32.3729 56.4001 32.1417 56.4953 31.9018 56.4953Z" fill="#E5B190"/>
<path d="M43.1152 6.68359L43.3467 6.69531C44.4912 6.81145 45.3837 7.77816 45.3838 8.95215V30.2842C45.3838 31.5379 44.3666 32.5527 43.1133 32.5527H18.207C16.9538 32.5526 15.9375 31.5365 15.9375 30.2842V8.95215C15.9375 7.69859 16.9539 6.68377 18.207 6.68359H43.1152Z" fill="#FFCAA4" stroke="#BE8666" stroke-width="0.5"/>
<path d="M27.5781 6.93359H33.7414V13.3501H27.5781V6.93359Z" fill="#E5A27C"/>
<path d="M35.3333 26.8791H25.2364C24.9966 26.8791 24.7665 26.7838 24.5969 26.6142C24.4273 26.4446 24.332 26.2146 24.332 25.9747C24.332 25.7349 24.4273 25.5048 24.5969 25.3352C24.7665 25.1656 24.9966 25.0703 25.2364 25.0703H35.3333C35.5732 25.0703 35.8032 25.1656 35.9728 25.3352C36.1424 25.5048 36.2377 25.7349 36.2377 25.9747C36.2377 26.2146 36.1424 26.4446 35.9728 26.6142C35.8032 26.7838 35.5732 26.8791 35.3333 26.8791Z" fill="#E5B190"/>
<path d="M70.2861 32.0527C71.7879 32.053 73.0049 33.2707 73.0049 34.7725V60.8604C73.0049 61.5815 72.7189 62.2732 72.209 62.7832C71.6991 63.2931 71.0073 63.58 70.2861 63.5801H39.8252C39.1039 63.5801 38.4124 63.2932 37.9023 62.7832C37.3923 62.2732 37.1055 61.5816 37.1055 60.8604V34.7725C37.1055 33.272 38.3221 32.0527 39.8242 32.0527H70.2861Z" fill="#FFCAA4" stroke="#BE8666" stroke-width="0.5"/>
<path d="M51.2871 32.3027H58.8251V40.1494H51.2871V32.3027Z" fill="#E5A27C"/>
<path d="M60.771 56.4953H48.4239C48.1841 56.4953 47.954 56.4001 47.7844 56.2305C47.6148 56.0608 47.5195 55.8308 47.5195 55.5909C47.5195 55.3511 47.6148 55.121 47.7844 54.9514C47.954 54.7818 48.1841 54.6865 48.4239 54.6865H60.771C61.0108 54.6865 61.2409 54.7818 61.4105 54.9514C61.5801 55.121 61.6754 55.3511 61.6754 55.5909C61.6754 55.8308 61.5801 56.0608 61.4105 56.2305C61.2409 56.4001 61.0108 56.4953 60.771 56.4953Z" fill="#E5B190"/>
<path d="M26.828 43.5289C26.7441 43.4437 26.644 43.376 26.5337 43.3298C26.4233 43.2836 26.3049 43.2598 26.1853 43.2598C26.0656 43.2598 25.9472 43.2836 25.8369 43.3298C25.7265 43.376 25.6265 43.4437 25.5425 43.5289L23.0222 46.0769C22.9364 46.1609 22.8681 46.261 22.8214 46.3716C22.7746 46.4821 22.7504 46.6009 22.75 46.7209C22.7496 46.8409 22.7732 46.9598 22.8192 47.0707C22.8653 47.1815 22.9329 47.2821 23.0182 47.3665C23.1035 47.451 23.2048 47.5176 23.3161 47.5625C23.4274 47.6074 23.5466 47.6297 23.6666 47.628C23.7866 47.6264 23.9051 47.6009 24.0152 47.5531C24.1253 47.5052 24.2247 47.4359 24.3077 47.3492L25.2808 46.3652V51.4697C25.2808 51.7095 25.3761 51.9396 25.5457 52.1092C25.7154 52.2788 25.9454 52.3741 26.1853 52.3741C26.4251 52.3741 26.6552 52.2788 26.8248 52.1092C26.9944 51.9396 27.0897 51.7095 27.0897 51.4697V46.3615L28.0676 47.3504C28.1513 47.4348 28.2508 47.5019 28.3605 47.5478C28.4701 47.5938 28.5877 47.6177 28.7065 47.6182C28.8254 47.6187 28.9432 47.5958 29.0532 47.5507C29.1632 47.5057 29.2633 47.4395 29.3477 47.3558C29.4321 47.2721 29.4992 47.1726 29.5451 47.063C29.5911 46.9534 29.615 46.8358 29.6155 46.7169C29.616 46.598 29.5931 46.4802 29.5481 46.3702C29.5031 46.2602 29.4368 46.1601 29.3531 46.0757L26.828 43.5289Z" fill="#E5B190"/>
<path d="M31.299 15.9957C31.2151 15.9105 31.115 15.8428 31.0047 15.7966C30.8943 15.7504 30.7759 15.7266 30.6563 15.7266C30.5366 15.7266 30.4182 15.7504 30.3078 15.7966C30.1975 15.8428 30.0975 15.9105 30.0135 15.9957L27.9539 18.0795C27.868 18.1634 27.7998 18.2635 27.753 18.3741C27.7063 18.4846 27.682 18.6034 27.6816 18.7234C27.6813 18.8435 27.7048 18.9624 27.7508 19.0732C27.7969 19.1841 27.8645 19.2846 27.9499 19.3691C28.0352 19.4535 28.1364 19.5201 28.2478 19.565C28.3591 19.6099 28.4782 19.6322 28.5982 19.6306C28.7183 19.629 28.8368 19.6035 28.9468 19.5556C29.0569 19.5077 29.1563 19.4384 29.2393 19.3517L29.753 18.8332V22.6052C29.753 22.845 29.8483 23.0751 30.0179 23.2447C30.1876 23.4143 30.4176 23.5096 30.6575 23.5096C30.8973 23.5096 31.1274 23.4143 31.297 23.2447C31.4666 23.0751 31.5619 22.845 31.5619 22.6052V18.8295L32.0804 19.3517C32.1638 19.4362 32.2631 19.5035 32.3726 19.5496C32.482 19.5956 32.5995 19.6196 32.7183 19.6202C32.837 19.6208 32.9547 19.5979 33.0646 19.5528C33.1745 19.5078 33.2744 19.4415 33.3586 19.3577C33.5288 19.1889 33.625 18.9595 33.6262 18.7198C33.6273 18.4802 33.5332 18.2499 33.3647 18.0795L31.299 15.9957Z" fill="#E5B190"/>
<path d="M58.2224 46.0769L55.6961 43.5289C55.6121 43.4437 55.5121 43.376 55.4017 43.3298C55.2914 43.2836 55.1729 43.2598 55.0533 43.2598C54.9337 43.2598 54.8153 43.2836 54.7049 43.3298C54.5946 43.376 54.4945 43.4437 54.4106 43.5289L51.8903 46.0769C51.7216 46.2476 51.6276 46.4782 51.6289 46.7182C51.6303 46.9581 51.7269 47.1877 51.8975 47.3564C52.0681 47.5251 52.2988 47.6191 52.5387 47.6178C52.7787 47.6164 53.0083 47.5198 53.177 47.3492L54.1489 46.3652V51.4697C54.1489 51.7095 54.2442 51.9396 54.4138 52.1092C54.5834 52.2788 54.8134 52.3741 55.0533 52.3741C55.2932 52.3741 55.5232 52.2788 55.6928 52.1092C55.8624 51.9396 55.9577 51.7095 55.9577 51.4697V46.3615L56.9369 47.3504C57.1059 47.5208 57.3357 47.6172 57.5758 47.6182C57.8159 47.6192 58.0465 47.5248 58.2169 47.3558C58.3874 47.1868 58.4838 46.9569 58.4848 46.7169C58.4858 46.4768 58.3914 46.2474 58.2224 46.0769Z" fill="#E5B190"/>
<path d="M61.3945 10.5938C62.8949 10.5938 64.1138 11.8109 64.1143 13.3125V29.833C64.1142 30.5542 63.8274 31.2459 63.3174 31.7559C62.8074 32.2658 62.1157 32.5527 61.3945 32.5527H41.8486C41.1276 32.5527 40.4358 32.2656 39.9258 31.7559C39.416 31.2461 39.1293 30.5549 39.1289 29.834V13.3135C39.1289 11.8116 40.3467 10.5938 41.8486 10.5938H61.3945Z" fill="#FFCAA4" stroke="#BE8666" stroke-width="0.5"/>
<path d="M48.707 10.8447V17.4831L51.6216 15.9396L54.5363 17.4831V10.8447H48.707Z" fill="#E5A27C"/>
<path d="M56.9655 23.5471H45.6446C45.4048 23.5471 45.1747 23.4518 45.0051 23.2822C44.8355 23.1126 44.7402 22.8826 44.7402 22.6427C44.7402 22.4028 44.8355 22.1728 45.0051 22.0032C45.1747 21.8336 45.4048 21.7383 45.6446 21.7383H56.9655C57.2053 21.7383 57.4354 21.8336 57.605 22.0032C57.7746 22.1728 57.8699 22.4028 57.8699 22.6427C57.8699 22.8826 57.7746 23.1126 57.605 23.2822C57.4354 23.4518 57.2053 23.5471 56.9655 23.5471Z" fill="#E5B190"/>
<path d="M56.9655 27.428H45.6446C45.4048 27.428 45.1747 27.3327 45.0051 27.1631C44.8355 26.9935 44.7402 26.7634 44.7402 26.5236C44.7402 26.2837 44.8355 26.0536 45.0051 25.884C45.1747 25.7144 45.4048 25.6191 45.6446 25.6191H56.9655C57.2053 25.6191 57.4354 25.7144 57.605 25.884C57.7746 26.0536 57.8699 26.2837 57.8699 26.5236C57.8699 26.7634 57.7746 26.9935 57.605 27.1631C57.4354 27.3327 57.2053 27.428 56.9655 27.428Z" fill="#E5B190"/>
</g>
</svg>
