<svg width="195" height="211" viewBox="0 0 195 211" fill="none" xmlns="http://www.w3.org/2000/svg">
<path d="M6.63157 21.5H18.7405M6.63157 21.5L0.578125 11L6.63157 0.5H18.7405L24.794 11M6.63157 21.5L0.578125 32L6.63157 42.5M18.7405 21.5L24.794 11M18.7405 21.5L24.794 32M24.794 11L30.8474 0.5H42.9564L49.0099 11M24.794 11L30.8474 21.5M6.63157 105.5H18.7405M6.63157 105.5L0.578125 95L6.63157 84.5M6.63157 105.5L0.578125 116L6.63157 126.5M18.7405 105.5L24.794 95M18.7405 105.5L24.794 116M24.794 95L18.7405 84.5M24.794 95L30.8474 84.5M24.794 95L30.8474 105.5M18.7405 84.5H6.63157M18.7405 84.5L24.794 74M6.63157 84.5L0.578125 74L6.63157 63.5M6.63157 63.5H18.7405M6.63157 63.5L0.578125 53L6.63157 42.5M18.7405 63.5L24.794 53M18.7405 63.5L24.794 74M24.794 53L18.7405 42.5M24.794 53L30.8474 42.5M24.794 53L30.8474 63.5M18.7405 42.5H6.63157M18.7405 42.5L24.794 32M6.63157 147.5H18.7405M6.63157 147.5L0.578125 137L6.63157 126.5M6.63157 147.5L0.578125 158L6.63157 168.5M18.7405 147.5L24.794 137M18.7405 147.5L24.794 158M24.794 137L18.7405 126.5M24.794 137L30.8474 126.5M24.794 137L30.8474 147.5M18.7405 126.5H6.63157M18.7405 126.5L24.794 116M6.63157 189.5H18.7405M6.63157 189.5L0.578125 179L6.63157 168.5M6.63157 189.5L0.578125 200L6.63157 210.5H18.7405L24.794 200M18.7405 189.5L24.794 179M18.7405 189.5L24.794 200M24.794 179L18.7405 168.5M24.794 179L30.8474 168.5M24.794 179L30.8474 189.5M18.7405 168.5H6.63157M18.7405 168.5L24.794 158M24.794 32L30.8474 21.5M24.794 32L30.8474 42.5M24.794 116L30.8474 105.5M24.794 116L30.8474 126.5M24.794 74L30.8474 63.5M24.794 74L30.8474 84.5M24.794 158L30.8474 147.5M24.794 158L30.8474 168.5M24.794 200L30.8474 189.5M24.794 200L30.8474 210.5H42.9564L49.0099 200M103.495 21.5H115.604M103.495 21.5L97.4416 11M103.495 21.5L97.4416 32M115.604 21.5L121.657 11M115.604 21.5L121.657 32M121.657 11L115.604 0.5H103.495L97.4416 11M121.657 11L127.711 0.5H139.82L145.873 11M121.657 11L127.711 21.5M97.4416 11L91.3881 21.5M97.4416 11L91.3881 0.5H79.2792L73.2257 11M103.495 105.5H115.604M103.495 105.5L97.4416 95M103.495 105.5L97.4416 116M115.604 105.5L121.657 95M115.604 105.5L121.657 116M121.657 95L115.604 84.5M121.657 95L127.711 84.5M121.657 95L127.711 105.5M115.604 84.5H103.495M115.604 84.5L121.657 74M103.495 84.5L97.4416 95M103.495 84.5L97.4416 74M97.4416 95L91.3881 105.5M97.4416 95L91.3881 84.5M103.495 63.5H115.604M103.495 63.5L97.4416 53M103.495 63.5L97.4416 74M115.604 63.5L121.657 53M115.604 63.5L121.657 74M121.657 53L115.604 42.5M121.657 53L127.711 42.5M121.657 53L127.711 63.5M115.604 42.5H103.495M115.604 42.5L121.657 32M103.495 42.5L97.4416 53M103.495 42.5L97.4416 32M97.4416 53L91.3881 63.5M97.4416 53L91.3881 42.5M103.495 147.5H115.604M103.495 147.5L97.4416 137M103.495 147.5L97.4416 158M115.604 147.5L121.657 137M115.604 147.5L121.657 158M121.657 137L115.604 126.5M121.657 137L127.711 126.5M121.657 137L127.711 147.5M115.604 126.5H103.495M115.604 126.5L121.657 116M103.495 126.5L97.4416 137M103.495 126.5L97.4416 116M97.4416 137L91.3881 147.5M97.4416 137L91.3881 126.5M103.495 189.5H115.604M103.495 189.5L97.4416 179M103.495 189.5L97.4416 200M115.604 189.5L121.657 179M115.604 189.5L121.657 200M121.657 179L115.604 168.5M121.657 179L127.711 168.5M121.657 179L127.711 189.5M115.604 168.5H103.495M115.604 168.5L121.657 158M103.495 168.5L97.4416 179M103.495 168.5L97.4416 158M97.4416 179L91.3881 189.5M97.4416 179L91.3881 168.5M121.657 32L127.711 21.5M121.657 32L127.711 42.5M97.4416 32L91.3881 42.5M97.4416 32L91.3881 21.5M121.657 116L127.711 105.5M121.657 116L127.711 126.5M97.4416 116L91.3881 126.5M97.4416 116L91.3881 105.5M121.657 74L127.711 63.5M121.657 74L127.711 84.5M97.4416 74L91.3881 84.5M97.4416 74L91.3881 63.5M121.657 158L127.711 147.5M121.657 158L127.711 168.5M97.4416 158L91.3881 168.5M97.4416 158L91.3881 147.5M121.657 200L115.604 210.5H103.495L97.4416 200M121.657 200L127.711 189.5M121.657 200L127.711 210.5H139.82L145.873 200M97.4416 200L91.3881 210.5H79.2792L73.2257 200M97.4416 200L91.3881 189.5M55.0633 21.5H67.1723M55.0633 21.5L49.0099 11M55.0633 21.5L49.0099 32M67.1723 21.5L73.2257 11M67.1723 21.5L73.2257 32M73.2257 11L67.1723 0.5H55.0633L49.0099 11M73.2257 11L79.2792 21.5M49.0099 11L42.9564 21.5M55.0633 105.5H67.1723M55.0633 105.5L49.0099 95M55.0633 105.5L49.0099 116M67.1723 105.5L73.2257 95M67.1723 105.5L73.2257 116M73.2257 95L67.1723 84.5M73.2257 95L79.2792 84.5M73.2257 95L79.2792 105.5M67.1723 84.5H55.0633M67.1723 84.5L73.2257 74M55.0633 84.5L49.0099 95M55.0633 84.5L49.0099 74M49.0099 95L42.9564 105.5M49.0099 95L42.9564 84.5M55.0633 63.5H67.1723M55.0633 63.5L49.0099 53M55.0633 63.5L49.0099 74M67.1723 63.5L73.2257 53M67.1723 63.5L73.2257 74M73.2257 53L67.1723 42.5M73.2257 53L79.2792 42.5M73.2257 53L79.2792 63.5M67.1723 42.5H55.0633M67.1723 42.5L73.2257 32M55.0633 42.5L49.0099 53M55.0633 42.5L49.0099 32M49.0099 53L42.9564 63.5M49.0099 53L42.9564 42.5M55.0633 147.5H67.1723M55.0633 147.5L49.0099 137M55.0633 147.5L49.0099 158M67.1723 147.5L73.2257 137M67.1723 147.5L73.2257 158M73.2257 137L67.1723 126.5M73.2257 137L79.2792 126.5M73.2257 137L79.2792 147.5M67.1723 126.5H55.0633M67.1723 126.5L73.2257 116M55.0633 126.5L49.0099 137M55.0633 126.5L49.0099 116M49.0099 137L42.9564 147.5M49.0099 137L42.9564 126.5M55.0633 189.5H67.1723M55.0633 189.5L49.0099 179M55.0633 189.5L49.0099 200M67.1723 189.5L73.2257 179M67.1723 189.5L73.2257 200M73.2257 179L67.1723 168.5M73.2257 179L79.2792 168.5M73.2257 179L79.2792 189.5M67.1723 168.5H55.0633M67.1723 168.5L73.2257 158M55.0633 168.5L49.0099 179M55.0633 168.5L49.0099 158M49.0099 179L42.9564 189.5M49.0099 179L42.9564 168.5M73.2257 32L79.2792 21.5M73.2257 32L79.2792 42.5M49.0099 32L42.9564 42.5M49.0099 32L42.9564 21.5M73.2257 116L79.2792 105.5M73.2257 116L79.2792 126.5M49.0099 116L42.9564 126.5M49.0099 116L42.9564 105.5M73.2257 74L79.2792 63.5M73.2257 74L79.2792 84.5M49.0099 74L42.9564 84.5M49.0099 74L42.9564 63.5M73.2257 158L79.2792 147.5M73.2257 158L79.2792 168.5M49.0099 158L42.9564 168.5M49.0099 158L42.9564 147.5M73.2257 200L67.1723 210.5H55.0633L49.0099 200M73.2257 200L79.2792 189.5M49.0099 200L42.9564 189.5M151.927 21.5H164.036M151.927 21.5L145.873 11M151.927 21.5L145.873 32M164.036 21.5L170.089 11M164.036 21.5L170.089 32M170.089 11L164.036 0.5H151.927L145.873 11M170.089 11L176.143 0.5H188.252L194.305 11L188.252 21.5M170.089 11L176.143 21.5M145.873 11L139.82 21.5M151.927 105.5H164.036M151.927 105.5L145.873 95M151.927 105.5L145.873 116M164.036 105.5L170.089 95M164.036 105.5L170.089 116M170.089 95L164.036 84.5M170.089 95L176.143 84.5M170.089 95L176.143 105.5M164.036 84.5H151.927M164.036 84.5L170.089 74M151.927 84.5L145.873 95M151.927 84.5L145.873 74M145.873 95L139.82 105.5M145.873 95L139.82 84.5M151.927 63.5H164.036M151.927 63.5L145.873 53M151.927 63.5L145.873 74M164.036 63.5L170.089 53M164.036 63.5L170.089 74M170.089 53L164.036 42.5M170.089 53L176.143 42.5M170.089 53L176.143 63.5M164.036 42.5H151.927M164.036 42.5L170.089 32M151.927 42.5L145.873 53M151.927 42.5L145.873 32M145.873 53L139.82 63.5M145.873 53L139.82 42.5M151.927 147.5H164.036M151.927 147.5L145.873 137M151.927 147.5L145.873 158M164.036 147.5L170.089 137M164.036 147.5L170.089 158M170.089 137L164.036 126.5M170.089 137L176.143 126.5M170.089 137L176.143 147.5M164.036 126.5H151.927M164.036 126.5L170.089 116M151.927 126.5L145.873 137M151.927 126.5L145.873 116M145.873 137L139.82 147.5M145.873 137L139.82 126.5M151.927 189.5H164.036M151.927 189.5L145.873 179M151.927 189.5L145.873 200M164.036 189.5L170.089 179M164.036 189.5L170.089 200M170.089 179L164.036 168.5M170.089 179L176.143 168.5M170.089 179L176.143 189.5M164.036 168.5H151.927M164.036 168.5L170.089 158M151.927 168.5L145.873 179M151.927 168.5L145.873 158M145.873 179L139.82 189.5M145.873 179L139.82 168.5M170.089 32L176.143 21.5M170.089 32L176.143 42.5M145.873 32L139.82 42.5M145.873 32L139.82 21.5M170.089 116L176.143 105.5M170.089 116L176.143 126.5M145.873 116L139.82 126.5M145.873 116L139.82 105.5M170.089 74L176.143 63.5M170.089 74L176.143 84.5M145.873 74L139.82 84.5M145.873 74L139.82 63.5M170.089 158L176.143 147.5M170.089 158L176.143 168.5M145.873 158L139.82 168.5M145.873 158L139.82 147.5M170.089 200L164.036 210.5H151.927L145.873 200M170.089 200L176.143 189.5M170.089 200L176.143 210.5H188.252L194.305 200L188.252 189.5M145.873 200L139.82 189.5M30.8474 21.5H42.9564M30.8474 105.5H42.9564M42.9564 84.5H30.8474M30.8474 63.5H42.9564M42.9564 42.5H30.8474M30.8474 147.5H42.9564M42.9564 126.5H30.8474M30.8474 189.5H42.9564M42.9564 168.5H30.8474M127.711 21.5H139.82M127.711 105.5H139.82M139.82 84.5H127.711M127.711 63.5H139.82M139.82 42.5H127.711M127.711 147.5H139.82M139.82 126.5H127.711M127.711 189.5H139.82M139.82 168.5H127.711M79.2792 21.5H91.3881M79.2792 105.5H91.3881M91.3881 84.5H79.2792M79.2792 63.5H91.3881M91.3881 42.5H79.2792M79.2792 147.5H91.3881M91.3881 126.5H79.2792M79.2792 189.5H91.3881M91.3881 168.5H79.2792M176.143 21.5H188.252M188.252 21.5L194.305 32L188.252 42.5M176.143 105.5H188.252M188.252 105.5L194.305 95L188.252 84.5M188.252 105.5L194.305 116L188.252 126.5M188.252 84.5H176.143M188.252 84.5L194.305 74L188.252 63.5M176.143 63.5H188.252M188.252 63.5L194.305 53L188.252 42.5M188.252 42.5H176.143M176.143 147.5H188.252M188.252 147.5L194.305 137L188.252 126.5M188.252 147.5L194.305 158L188.252 168.5M188.252 126.5H176.143M176.143 189.5H188.252M188.252 189.5L194.305 179L188.252 168.5M188.252 168.5H176.143" stroke="url(#paint0_linear_6731_61036)" stroke-opacity="0.08" stroke-miterlimit="10"/>
<defs>
<linearGradient id="paint0_linear_6731_61036" x1="183.918" y1="102.272" x2="-1.96406" y2="102.272" gradientUnits="userSpaceOnUse">
<stop stop-color="#FFAC37"/>
<stop offset="1" stop-color="#F39C4F" stop-opacity="0"/>
</linearGradient>
</defs>
</svg>
