<svg width="83" height="94" viewBox="0 0 83 94" fill="none" xmlns="http://www.w3.org/2000/svg">
<g clip-path="url(#clip0_6749_60969)">
<path d="M19.3255 89.6209H17.1836V93.286C17.1836 93.6803 16.8639 94 16.4696 94C16.0753 94 15.7556 93.6803 15.7556 93.286V89.6209H8.61589V93.286C8.61589 93.6803 8.29621 94 7.90191 94C7.5076 94 7.18793 93.6803 7.18793 93.286V89.6209H5.04601C4.65189 89.6209 4.33203 89.3011 4.33203 88.907V86.0511C4.33203 85.657 4.65189 85.3371 5.04601 85.3371H5.75998V81.7672C5.75998 78.4529 8.28174 75.717 11.5075 75.3771H11.5076C11.8475 72.1516 14.5834 69.6296 17.8976 69.6296C18.2919 69.6296 18.6115 69.9493 18.6115 70.3436C18.6115 70.7379 18.2919 71.0576 17.8976 71.0576C15.3687 71.0576 13.2728 72.9457 12.9447 75.3861H12.945C16.1317 75.7627 18.6115 78.481 18.6115 81.7672V85.3371H19.3255C19.7196 85.3371 20.0395 85.657 20.0395 86.0511V88.907C20.0395 89.3011 19.7196 89.6209 19.3255 89.6209ZM14.1187 81.2622L12.6908 79.8342C12.0287 79.1722 11.012 80.175 11.6807 80.8443L12.4085 81.5716L10.4384 82.5564C10.0034 82.7744 9.90866 83.3556 10.2528 83.7002L11.6807 85.1281C12.3481 85.7955 13.3591 84.7869 12.6908 84.1181L11.963 83.3908L13.9331 82.406C14.3681 82.188 14.4629 81.6068 14.1187 81.2622Z" fill="#A0B2B3"/>
</g>
<g clip-path="url(#clip1_6749_60969)">
<path d="M71.4746 44.9521L82.2139 67.3789H5.98828L16.7275 44.9521H71.4746Z" fill="#F8F8F8" stroke="#747D7D" stroke-width="0.232099"/>
<path d="M82.2783 67.6123C82.2133 69.732 80.3792 71.5283 78.248 71.5283H9.95312C7.82229 71.5282 5.98885 69.7319 5.92383 67.6123H82.2783Z" fill="#E4F4F8" stroke="#747D7D" stroke-width="0.232099"/>
<path d="M28.4637 48.0293L28.7828 46.4336H25.2722L24.7935 48.0293H28.4637ZM64.8452 48.0293H68.5152L67.8769 46.4336H64.2068L64.8452 48.0293ZM65.643 50.4228H69.4726L68.6748 48.6675H65.0046L65.643 50.4228ZM38.3568 48.0293L38.5165 46.4336H35.0059L34.6868 48.0293H38.3568ZM43.463 48.0293V46.4336H39.9526L39.793 48.0293H43.463ZM33.4102 48.0293L33.7294 46.4336H30.2189L29.7402 48.0293H33.4102ZM50.3244 53.7738L50.4841 55.8481H54.6328L54.3137 53.7738H50.3244ZM61.3346 53.7738L61.8133 55.8481H65.962L65.3239 53.7738H61.3346ZM23.9957 46.4336H20.3257L19.6874 48.0293H23.3574L23.9957 46.4336ZM21.4426 53.7738H17.4535L16.4961 55.8481H20.6448L21.4426 53.7738ZM28.3041 53.7738L27.8254 55.8481H49.0479L48.8883 53.7738H28.3041ZM22.2405 51.061H18.4109L17.613 53.1354H21.6022L22.2405 51.061ZM48.4096 48.0293L48.25 46.4336H44.7396V48.0293H48.4096ZM22.8787 53.7738L22.2405 55.8481H26.3893L26.868 53.7738H22.8787ZM32.9315 50.4228L33.2507 48.6675H29.5806L29.1019 50.4228H32.9315ZM66.6004 53.1354H70.5896L69.7917 51.061H65.962L66.6004 53.1354ZM67.5578 55.8481H71.7065L70.7491 53.7738H66.76L67.5578 55.8481ZM39.4739 51.061V53.1354H43.3035L43.463 51.061H39.4739ZM34.2081 51.061L34.0485 53.1354H37.8781L38.1972 51.061H34.2081ZM28.9424 51.061L28.4637 53.1354H32.4528L32.772 51.061H28.9424ZM53.835 50.4228L53.5157 48.6675H49.8457L50.0054 50.4228H53.835ZM59.1007 50.4228L58.622 48.6675H54.9519L55.2711 50.4228H59.1007ZM48.5692 50.4228L48.4096 48.6675H44.7396V50.4228H48.5692ZM43.463 50.4228V48.6675H39.793L39.6333 50.4228H43.463ZM38.1972 50.4228L38.3568 48.6675H34.6868L34.3676 50.4228H38.1972ZM27.5063 51.061H23.6766L23.0383 53.1354H27.0276L27.5063 51.061ZM44.7396 51.061L44.8991 53.1354H48.7287V51.061H44.7396ZM60.3772 50.4228H64.2068L63.7281 48.6675H59.8985L60.3772 50.4228ZM61.175 53.1354H65.1642L64.5259 51.061H60.6963L61.175 53.1354ZM63.409 48.0293L62.9304 46.4336H59.4198L59.7389 48.0293H63.409ZM58.1433 46.4336L58.4624 48.0293H49.8457L49.6861 46.4336H58.1433ZM50.0054 51.061L50.3244 53.1354H54.1541L53.9944 51.061H50.0054ZM55.4306 51.2206L56.2285 55.8481H60.3772L59.2602 51.2206H55.4306ZM28.3041 48.6675H19.5278L18.73 50.4228H27.8254L28.3041 48.6675Z" fill="#95ABB3"/>
<path d="M49.2939 57.7178L52.8477 64.8252H35.3516L38.9053 57.7178H49.2939Z" fill="#CED6E0" stroke="#747D7D" stroke-width="0.232099"/>
<path d="M20.0068 5.06152H68.1963C70.0433 5.06152 71.4315 6.60131 71.4316 8.2959V44.7217H16.7725V8.2959C16.7726 6.60127 18.16 5.06171 20.0068 5.06152Z" fill="white" stroke="#747D7D" stroke-width="0.232099"/>
<path d="M20.0039 8.29688H68.1934V41.6465H20.0039V8.29688Z" fill="#E3EAEA"/>
</g>
<defs>
<clipPath id="clip0_6749_60969">
<rect width="24.3704" height="24.3704" fill="white" transform="matrix(1 0 0 -1 0 94)"/>
</clipPath>
<clipPath id="clip1_6749_60969">
<rect width="76.5926" height="76.5926" fill="white" transform="translate(5.80469)"/>
</clipPath>
</defs>
</svg>
