<svg width="70" height="70" viewBox="0 0 70 70" fill="none" xmlns="http://www.w3.org/2000/svg">
<path d="M32.7803 12.5898V24.4297H8.60156V12.5898H32.7803Z" fill="#CFDCEE" stroke="#9DB0C9" stroke-width="0.5"/>
<path d="M41.75 19.8477V69.3477H0.25V19.8477H41.75Z" fill="#E7EDF6" stroke="#9DB0C9" stroke-width="0.5"/>
<path d="M36.8936 0.25V16.2021H4.48828V0.25H36.8936Z" fill="#B0C4DE" stroke="#9DB0C9" stroke-width="0.5"/>
<path d="M41.3496 30.248V60.9473H0.650391V30.248H41.3496Z" fill="#CFDCEE" stroke="#9DB0C9" stroke-width="0.3"/>
<path d="M28.668 0.25V7.9209H25.0547V0.25H28.668Z" fill="#A0B5D0" stroke="#8FA0B7" stroke-width="0.5"/>
<path d="M16.3281 0.25V7.9209H12.7148V0.25H16.3281Z" fill="#A0B5D0" stroke="#8FA0B7" stroke-width="0.5"/>
<path d="M22.6455 37.9395V43.4238H28.1299V47.3369H22.6455V52.8213H18.7324V47.3369H13.248V43.4238H18.7324V37.9395H22.6455Z" fill="white" stroke="#9DB0C9" stroke-width="0.2"/>
<path d="M61.1377 51.8477C65.4337 51.8477 68.9287 55.3426 68.9287 59.6387C68.9286 63.9346 65.4336 67.4287 61.1377 67.4287H44.6855C40.3896 67.4287 36.8947 63.9346 36.8945 59.6387C36.8945 55.3426 40.3895 51.8477 44.6855 51.8477H61.1377Z" fill="#E4F3FF" stroke="#9DB0C9" stroke-width="0.5"/>
<path d="M61.1364 52.1016H52.9102V67.183H61.1364C65.2944 67.183 68.6771 63.8002 68.6771 59.6423C68.6771 55.4843 65.2944 52.1016 61.1364 52.1016Z" fill="#C3D9F4"/>
<path d="M50.8105 24.3799C53.8484 21.3422 58.7903 21.3422 61.8281 24.3799C64.8657 27.4176 64.8658 32.3598 61.8281 35.3975L50.1943 47.0312C47.1565 50.0688 42.2146 50.0688 39.1768 47.0312C36.1391 43.9936 36.1391 39.0512 39.1768 36.0137L50.8105 24.3799Z" fill="#E4F3FF" stroke="#9DB0C9" stroke-width="0.5"/>
<path d="M50.9847 24.5566L45.168 30.3735L55.8321 41.0376L61.649 35.2207C64.589 32.2808 64.589 27.4968 61.649 24.5566C58.7089 21.6165 53.9249 21.6165 50.9847 24.5566Z" fill="#C3D9F4"/>
</svg>
