<svg width="62" height="85" viewBox="0 0 62 85" fill="none" xmlns="http://www.w3.org/2000/svg">
<g opacity="0.4">
<path d="M1.48008 83.2219C0.744424 83.2219 0.0970435 82.6529 0.00876384 81.8743C-0.0795158 81.0358 0.509012 80.3171 1.33295 80.2273C1.50951 80.1973 12.4267 78.9396 22.8437 70.4948C36.6446 59.2949 43.3833 40.4587 42.2651 16.0825C42.2357 15.244 42.8536 14.5552 43.6776 14.5253C44.4721 14.4654 45.1783 15.1242 45.2077 15.9627C45.8551 30.1273 43.9718 42.4651 39.6461 52.6468C36.1444 60.8521 31.083 67.6798 24.5504 72.9504C13.4272 81.9043 2.09804 83.192 1.62722 83.2219L1.48008 83.2219Z" fill="url(#paint0_linear_2119_19108)"/>
<path d="M55.0947 33.4503C49.9156 37.8224 42.559 37.493 42.559 37.493C42.559 37.493 43.6184 30.0963 48.7974 25.7242C53.9765 21.352 61.3331 21.6814 61.3331 21.6814C61.3331 21.6814 60.2737 29.0782 55.0947 33.4503Z" fill="url(#paint1_linear_2119_19108)"/>
<path d="M39.6166 24.4664C43.4715 30.0663 42.5593 37.493 42.5593 37.493C42.5593 37.493 35.4086 35.816 31.5538 30.2161C27.6989 24.6161 28.6111 17.1895 28.6111 17.1895C28.6111 17.1895 35.7618 18.8664 39.6166 24.4664Z" fill="url(#paint2_linear_2119_19108)"/>
<path d="M35.7032 40.6672C39.0578 46.5965 37.557 53.9034 37.557 53.9034C37.557 53.9034 30.5535 51.5976 27.1989 45.6982C23.8443 39.7987 25.3451 32.4619 25.3451 32.4619C25.3451 32.4619 32.3486 34.7378 35.7032 40.6672Z" fill="url(#paint3_linear_2119_19108)"/>
<path d="M29.2291 55.8802C30.5827 62.5882 26.8455 69.0266 26.8455 69.0266C26.8455 69.0266 20.9308 64.5946 19.5772 57.8866C18.2236 51.1787 21.9608 44.7402 21.9608 44.7402C21.9608 44.7402 27.8755 49.1723 29.2291 55.8802Z" fill="url(#paint4_linear_2119_19108)"/>
<path d="M18.9001 67.9482C17.517 74.6561 11.5729 79.0582 11.5729 79.0582C11.5729 79.0582 7.86515 72.5898 9.24819 65.9118C10.6312 59.2338 16.5754 54.8018 16.5754 54.8018C16.5754 54.8018 20.2831 61.2402 18.9001 67.9482Z" fill="url(#paint5_linear_2119_19108)"/>
<path d="M50.3568 51.0286C44.8246 54.8917 37.5269 53.9034 37.5269 53.9034C37.5269 53.9034 39.2336 46.6265 44.7952 42.7634C50.3568 38.9004 57.6251 39.8886 57.6251 39.8886C57.6251 39.8886 55.9184 47.1655 50.3568 51.0286Z" fill="url(#paint6_linear_2119_19108)"/>
<path d="M39.9991 69.1461C33.7313 71.6316 26.875 68.9963 26.875 68.9963C26.875 68.9963 30.1707 62.3183 36.4091 59.8328C42.6769 57.3472 49.5333 59.9825 49.5333 59.9825C49.5333 59.9825 46.267 66.6605 39.9991 69.1461Z" fill="url(#paint7_linear_2119_19108)"/>
<path d="M23.608 84.3282C16.8694 84.1485 11.5727 78.9978 11.5727 78.9978C11.5727 78.9978 17.1637 74.1465 23.8729 74.3262C30.5821 74.5058 35.9083 79.6566 35.9083 79.6566C35.9083 79.6566 30.3173 84.5079 23.608 84.3282Z" fill="url(#paint8_linear_2119_19108)"/>
<path d="M48.7979 12.3977C48.7979 19.2554 43.8837 24.7955 43.8837 24.7955C43.8837 24.7955 38.9695 19.2554 38.9695 12.3977C38.9695 5.54006 43.8837 4.93229e-06 43.8837 4.93229e-06C43.8837 4.93229e-06 48.7979 5.54006 48.7979 12.3977Z" fill="url(#paint9_linear_2119_19108)"/>
</g>
<defs>
<linearGradient id="paint0_linear_2119_19108" x1="13.252" y1="19.3577" x2="-3.11805" y2="72.9564" gradientUnits="userSpaceOnUse">
<stop stop-color="#4FB2F3"/>
<stop offset="1" stop-color="#BADCF1"/>
</linearGradient>
<linearGradient id="paint1_linear_2119_19108" x1="48.0473" y1="22.7896" x2="45.8192" y2="35.9074" gradientUnits="userSpaceOnUse">
<stop stop-color="#4FB2F3"/>
<stop offset="1" stop-color="#BADCF1"/>
</linearGradient>
<linearGradient id="paint2_linear_2119_19108" x1="32.6495" y1="18.6187" x2="28.0243" y2="34.598" gradientUnits="userSpaceOnUse">
<stop stop-color="#4FB2F3"/>
<stop offset="1" stop-color="#BADCF1"/>
</linearGradient>
<linearGradient id="paint3_linear_2119_19108" x1="28.776" y1="33.9713" x2="23.2615" y2="50.41" gradientUnits="userSpaceOnUse">
<stop stop-color="#4FB2F3"/>
<stop offset="1" stop-color="#BADCF1"/>
</linearGradient>
<linearGradient id="paint4_linear_2119_19108" x1="22.2761" y1="46.4499" x2="14.2174" y2="63.3143" gradientUnits="userSpaceOnUse">
<stop stop-color="#4FB2F3"/>
<stop offset="1" stop-color="#BADCF1"/>
</linearGradient>
<linearGradient id="paint5_linear_2119_19108" x1="11.9414" y1="56.5093" x2="3.91234" y2="73.3772" gradientUnits="userSpaceOnUse">
<stop stop-color="#4FB2F3"/>
<stop offset="1" stop-color="#BADCF1"/>
</linearGradient>
<linearGradient id="paint6_linear_2119_19108" x1="43.4022" y1="40.7779" x2="41.7022" y2="52.6823" gradientUnits="userSpaceOnUse">
<stop stop-color="#4FB2F3"/>
<stop offset="1" stop-color="#BADCF1"/>
</linearGradient>
<linearGradient id="paint7_linear_2119_19108" x1="33.4987" y1="59.5715" x2="32.5147" y2="69.2356" gradientUnits="userSpaceOnUse">
<stop stop-color="#4FB2F3"/>
<stop offset="1" stop-color="#BADCF1"/>
</linearGradient>
<linearGradient id="paint8_linear_2119_19108" x1="18.6867" y1="75.0261" x2="17.9836" y2="83.5074" gradientUnits="userSpaceOnUse">
<stop stop-color="#4FB2F3"/>
<stop offset="1" stop-color="#BADCF1"/>
</linearGradient>
<linearGradient id="paint9_linear_2119_19108" x1="41.8427" y1="1.74549" x2="33.2984" y2="18.5507" gradientUnits="userSpaceOnUse">
<stop stop-color="#4FB2F3"/>
<stop offset="1" stop-color="#BADCF1"/>
</linearGradient>
</defs>
</svg>
